<svg xmlns="http://www.w3.org/2000/svg" xmlns:xlink="http://www.w3.org/1999/xlink" version="1.1" x="0" y="0" height="230" width="800" viewBox="0 0 800 230" preserveAspectRatio="none"  >
<g label="Query sequence" class="clusterblast-cluster"  >
<text x="5" y="20" class="clusterblast-acc"  >
Query sequence</text>
<line x1="10" y1="35" x2="778.0" y2="35" style="stroke-width:1; stroke:grey; "  />
<polygon points="201,40 204,40 209,35 204,30 201,30 201,40 " style="fill:white; stroke-width:1; stroke:black; " description="&lt;b&gt;CopciAB_371128.T0&lt;/b&gt;&lt;br&gt;CopciAB 371128.T0&lt;br&gt;Location: 421853 - 423203" locus_tag="CopciAB_371128.T0" class="clusterblast-orf" id="dummy-1_q0_0_all"  />
<polygon points="213,40 226,40 231,35 226,30 213,30 213,40 " style="fill:white; stroke-width:1; stroke:black; " description="&lt;b&gt;CopciAB_15443.T0&lt;/b&gt;&lt;br&gt;CopciAB 15443.T0&lt;br&gt;Location: 423953 - 426878" locus_tag="CopciAB_15443.T0" class="clusterblast-orf" id="dummy-1_q1_0_all"  />
<polygon points="233,40 256,40 261,35 256,30 233,30 233,40 " style="fill:white; stroke-width:1; stroke:black; " description="&lt;b&gt;CopciAB_371141.T0&lt;/b&gt;&lt;br&gt;CopciAB 371141.T0&lt;br&gt;Location: 427240 - 432121" locus_tag="CopciAB_371141.T0" class="clusterblast-orf" id="dummy-1_q2_0_all"  />
<polygon points="268,40 272,35 268,30 268,40 " style="fill:white; stroke-width:1; stroke:black; " description="&lt;b&gt;CopciAB_499066.T0&lt;/b&gt;&lt;br&gt;CopciAB 499066.T0&lt;br&gt;Location: 433289 - 433957" locus_tag="CopciAB_499066.T0" class="clusterblast-orf" id="dummy-1_q3_0_all"  />
<polygon points="276,40 284,40 289,35 284,30 276,30 276,40 " style="fill:white; stroke-width:1; stroke:black; " description="&lt;b&gt;CopciAB_462172.T0&lt;/b&gt;&lt;br&gt;CopciAB 462172.T0&lt;br&gt;Location: 434519 - 436842" locus_tag="CopciAB_462172.T0" class="clusterblast-orf" id="dummy-1_q4_0_all"  />
<polygon points="296,35 301,30 303,30 303,40 301,40 296,35 " style="fill:white; stroke-width:1; stroke:black; " description="&lt;b&gt;CopciAB_371191.T0&lt;/b&gt;&lt;br&gt;CopciAB 371191.T0&lt;br&gt;Location: 438018 - 439147" locus_tag="CopciAB_371191.T0" class="clusterblast-orf" id="dummy-1_q5_0_all"  />
<polygon points="298,35 299,30 299,40 298,35 " style="fill:white; stroke-width:1; stroke:black; " description="&lt;b&gt;CopciAB_371191.T1&lt;/b&gt;&lt;br&gt;CopciAB 371191.T1&lt;br&gt;Location: 438368 - 438422" locus_tag="CopciAB_371191.T1" class="clusterblast-orf" id="dummy-1_q6_0_all"  />
<polygon points="303,35 306,30 306,40 303,35 " style="fill:white; stroke-width:1; stroke:black; " description="&lt;b&gt;CopciAB_371135.T0&lt;/b&gt;&lt;br&gt;CopciAB 371135.T0&lt;br&gt;Location: 439214 - 439628" locus_tag="CopciAB_371135.T0" class="clusterblast-orf" id="dummy-1_q7_0_all"  />
<polygon points="312,35 314,30 314,40 312,35 " style="fill:white; stroke-width:1; stroke:black; " description="&lt;b&gt;CopciAB_1002281.T0&lt;/b&gt;&lt;br&gt;CopciAB 1002281.T0&lt;br&gt;Location: 440768 - 441083" locus_tag="CopciAB_1002281.T0" class="clusterblast-orf" id="dummy-1_q8_0_all"  />
<polygon points="322,40 332,40 337,35 332,30 322,30 322,40 " style="fill:white; stroke-width:1; stroke:black; " description="&lt;b&gt;CopciAB_1002282.T0&lt;/b&gt;&lt;br&gt;CopciAB 1002282.T0&lt;br&gt;Location: 442404 - 444945" locus_tag="CopciAB_1002282.T0" class="clusterblast-orf" id="dummy-1_q9_0_all"  />
<polygon points="343,40 351,40 356,35 351,30 343,30 343,40 " style="fill:white; stroke-width:1; stroke:black; " description="&lt;b&gt;CopciAB_371185.T0&lt;/b&gt;&lt;br&gt;CopciAB 371185.T0&lt;br&gt;Location: 445952 - 448093" locus_tag="CopciAB_371185.T0" class="clusterblast-orf" id="dummy-1_q10_0_all"  />
<polygon points="358,35 363,30 366,30 366,40 363,40 358,35 " style="fill:#d81515; stroke-width:1; stroke:black; " description="&lt;b&gt;CopciAB_437423.T0&lt;/b&gt;&lt;br&gt;CopciAB 437423.T0&lt;br&gt;Location: 448582 - 449891" locus_tag="CopciAB_437423.T0" class="clusterblast-orf" id="dummy-1_q11_0_all"  />
<polygon points="370,40 413,40 418,35 413,30 370,30 370,40 " style="fill:#15d8d8; stroke-width:1; stroke:black; " description="&lt;b&gt;CopciAB_437425.T0&lt;/b&gt;&lt;br&gt;CopciAB 437425.T0&lt;br&gt;Location: 450566 - 458706" locus_tag="CopciAB_437425.T0" class="clusterblast-orf" id="dummy-1_q12_0_all"  />
<polygon points="423,35 427,30 427,40 423,35 " style="fill:white; stroke-width:1; stroke:black; " description="&lt;b&gt;CopciAB_1002283.T0&lt;/b&gt;&lt;br&gt;CopciAB 1002283.T0&lt;br&gt;Location: 459534 - 460198" locus_tag="CopciAB_1002283.T0" class="clusterblast-orf" id="dummy-1_q13_0_all"  />
<polygon points="455,35 460,30 460,30 460,40 460,40 455,35 " style="fill:white; stroke-width:1; stroke:black; " description="&lt;b&gt;CopciAB_1002284.T0&lt;/b&gt;&lt;br&gt;CopciAB 1002284.T0&lt;br&gt;Location: 464996 - 465772" locus_tag="CopciAB_1002284.T0" class="clusterblast-orf" id="dummy-1_q14_0_all"  />
<polygon points="492,35 497,30 499,30 499,40 497,40 492,35 " style="fill:white; stroke-width:1; stroke:black; " description="&lt;b&gt;CopciAB_1002285.T0&lt;/b&gt;&lt;br&gt;CopciAB 1002285.T0&lt;br&gt;Location: 471290 - 472430" locus_tag="CopciAB_1002285.T0" class="clusterblast-orf" id="dummy-1_q15_0_all"  />
<polygon points="504,40 507,40 512,35 507,30 504,30 504,40 " style="fill:white; stroke-width:1; stroke:black; " description="&lt;b&gt;CopciAB_532638.T0&lt;/b&gt;&lt;br&gt;CopciAB 532638.T0&lt;br&gt;Location: 473318 - 474574" locus_tag="CopciAB_532638.T0" class="clusterblast-orf" id="dummy-1_q16_0_all"  />
<polygon points="519,40 535,40 540,35 535,30 519,30 519,40 " style="fill:white; stroke-width:1; stroke:black; " description="&lt;b&gt;CopciAB_444333.T0&lt;/b&gt;&lt;br&gt;CopciAB 444333.T0&lt;br&gt;Location: 475843 - 479279" locus_tag="CopciAB_444333.T0" class="clusterblast-orf" id="dummy-1_q17_0_all"  />
<polygon points="540,35 545,30 548,30 548,40 545,40 540,35 " style="fill:white; stroke-width:1; stroke:black; " description="&lt;b&gt;CopciAB_444334.T0&lt;/b&gt;&lt;br&gt;CopciAB 444334.T0&lt;br&gt;Location: 479365 - 480691" locus_tag="CopciAB_444334.T0" class="clusterblast-orf" id="dummy-1_q18_0_all"  />
<polygon points="551,35 556,30 578,30 578,40 556,40 551,35 " style="fill:white; stroke-width:1; stroke:black; " description="&lt;b&gt;CopciAB_444335.T0&lt;/b&gt;&lt;br&gt;CopciAB 444335.T0&lt;br&gt;Location: 481168 - 485844" locus_tag="CopciAB_444335.T0" class="clusterblast-orf" id="dummy-1_q19_0_all"  />
</g>
<g label="NC_021191" description="NC_021191 (3208254-3340523): Actinoplanes sp. N902-109, complete genome (2% of genes show similarity), NRPS,NRPS-like,T1PKS" class="clusterblast-cluster"  >
<text x="5" y="70" class="clusterblast-acc"  >
<a xlink:href="https://antismash-db.secondarymetabolites.org/area.html?record=NC_021191&amp;start=3208254&amp;end=3340523" target="_blank">NC_021191 (3208254-3340523)</a>: Actinoplanes sp. N902-109, complete genome (2% of genes show similarity), NRPS,NRPS-like,T1PKS</text>
<line x1="10" y1="85" x2="778.0" y2="85" style="stroke-width:1; stroke:grey; "  />
</g>
<g id="a1_000"  >
<polygon points="0,90 0,90 5,85 0,80 0,80 0,90 " style="fill:white; stroke-width:1; stroke:black; " description="&lt;b&gt;L083_RS13825&lt;/b&gt;&lt;br&gt;NAD-dependent epimerase/dehydratase family protein&lt;br&gt;Location: 3208255 - 3209178" locus_tag="L083_RS13825" class="clusterblast-orf" id="dummy-1_h1_10_0"  />
</g>
<g id="a1_001"  >
<polygon points="5,85 10,80 11,80 11,90 10,90 5,85 " style="fill:white; stroke-width:1; stroke:black; " description="&lt;b&gt;L083_RS13830&lt;/b&gt;&lt;br&gt;NAD(P)/FAD-dependent oxidoreductase&lt;br&gt;Location: 3209244 - 3210155" locus_tag="L083_RS13830" class="clusterblast-orf" id="dummy-1_h1_10_1"  />
</g>
<g id="a1_002"  >
<polygon points="11,90 11,90 16,85 11,80 11,80 11,90 " style="fill:white; stroke-width:1; stroke:black; " description="&lt;b&gt;L083_RS13835&lt;/b&gt;&lt;br&gt;AraC family transcriptional regulator&lt;br&gt;Location: 3210235 - 3211122" locus_tag="L083_RS13835" class="clusterblast-orf" id="dummy-1_h1_10_2"  />
</g>
<g id="a1_003"  >
<polygon points="17,85 21,80 21,90 17,85 " style="fill:white; stroke-width:1; stroke:black; " description="&lt;b&gt;L083_RS13840&lt;/b&gt;&lt;br&gt;response regulator transcription factor&lt;br&gt;Location: 3211165 - 3211866" locus_tag="L083_RS13840" class="clusterblast-orf" id="dummy-1_h1_10_3"  />
</g>
<g id="a1_004"  >
<polygon points="21,85 26,80 27,80 27,90 26,90 21,85 " style="fill:white; stroke-width:1; stroke:black; " description="&lt;b&gt;L083_RS13845&lt;/b&gt;&lt;br&gt;sensor histidine kinase&lt;br&gt;Location: 3211863 - 3212936" locus_tag="L083_RS13845" class="clusterblast-orf" id="dummy-1_h1_10_4"  />
</g>
<g id="a1_005"  >
<polygon points="29,90 32,85 29,80 29,90 " style="fill:white; stroke-width:1; stroke:black; " description="&lt;b&gt;L083_RS13850&lt;/b&gt;&lt;br&gt;sigma-70 family RNA polymerase sigma factor&lt;br&gt;Location: 3213178 - 3213717" locus_tag="L083_RS13850" class="clusterblast-orf" id="dummy-1_h1_10_5"  />
</g>
<g id="a1_006"  >
<polygon points="32,85 36,80 36,90 32,85 " style="fill:white; stroke-width:1; stroke:black; " description="&lt;b&gt;L083_RS40380&lt;/b&gt;&lt;br&gt;helix-turn-helix transcriptional regulator&lt;br&gt;Location: 3213727 - 3214365" locus_tag="L083_RS40380" class="clusterblast-orf" id="dummy-1_h1_10_6"  />
</g>
<g id="a1_007"  >
<polygon points="37,90 38,85 37,80 37,90 " style="fill:white; stroke-width:1; stroke:black; " description="&lt;b&gt;L083_RS13865&lt;/b&gt;&lt;br&gt;hypothetical protein&lt;br&gt;Location: 3214564 - 3214770" locus_tag="L083_RS13865" class="clusterblast-orf" id="dummy-1_h1_10_7"  />
</g>
<g id="a1_008"  >
<polygon points="38,90 41,90 46,85 41,80 38,80 38,90 " style="fill:white; stroke-width:1; stroke:black; " description="&lt;b&gt;L083_RS13870&lt;/b&gt;&lt;br&gt;hypothetical protein&lt;br&gt;Location: 3214748 - 3216082" locus_tag="L083_RS13870" class="clusterblast-orf" id="dummy-1_h1_10_8"  />
</g>
<g id="a1_009"  >
<polygon points="46,90 49,85 46,80 46,90 " style="fill:white; stroke-width:1; stroke:black; " description="&lt;b&gt;L083_RS13875&lt;/b&gt;&lt;br&gt;response regulator transcription factor&lt;br&gt;Location: 3216070 - 3216720" locus_tag="L083_RS13875" class="clusterblast-orf" id="dummy-1_h1_10_9"  />
</g>
<g id="a1_0010"  >
<polygon points="49,90 49,90 54,85 49,80 49,80 49,90 " style="fill:white; stroke-width:1; stroke:black; " description="&lt;b&gt;L083_RS40385&lt;/b&gt;&lt;br&gt;hypothetical protein&lt;br&gt;Location: 3216729 - 3217430" locus_tag="L083_RS40385" class="clusterblast-orf" id="dummy-1_h1_10_10"  />
</g>
<g id="a1_0011"  >
<polygon points="54,85 59,80 60,80 60,90 59,90 54,85 " style="fill:white; stroke-width:1; stroke:black; " description="&lt;b&gt;L083_RS13885&lt;/b&gt;&lt;br&gt;hypothetical protein&lt;br&gt;Location: 3217467 - 3218513" locus_tag="L083_RS13885" class="clusterblast-orf" id="dummy-1_h1_10_11"  />
</g>
<g id="a1_0012"  >
<polygon points="61,85 66,80 68,80 68,90 66,90 61,85 " style="fill:white; stroke-width:1; stroke:black; " description="&lt;b&gt;L083_RS13890&lt;/b&gt;&lt;br&gt;MFS transporter&lt;br&gt;Location: 3218687 - 3219835" locus_tag="L083_RS13890" class="clusterblast-orf" id="dummy-1_h1_10_12"  />
</g>
<g id="a1_0013"  >
<polygon points="69,85 72,80 72,90 69,85 " style="fill:white; stroke-width:1; stroke:black; " description="&lt;b&gt;L083_RS13895&lt;/b&gt;&lt;br&gt;hypothetical protein&lt;br&gt;Location: 3220031 - 3220540" locus_tag="L083_RS13895" class="clusterblast-orf" id="dummy-1_h1_10_13"  />
</g>
<g id="a1_0014"  >
<polygon points="76,90 76,90 81,85 76,80 76,80 76,90 " style="fill:white; stroke-width:1; stroke:black; " description="&lt;b&gt;L083_RS13900&lt;/b&gt;&lt;br&gt;hypothetical protein&lt;br&gt;Location: 3221248 - 3221991" locus_tag="L083_RS13900" class="clusterblast-orf" id="dummy-1_h1_10_14"  />
</g>
<g id="a1_0015"  >
<polygon points="81,85 85,80 85,90 81,85 " style="fill:white; stroke-width:1; stroke:black; " description="&lt;b&gt;L083_RS13905&lt;/b&gt;&lt;br&gt;response regulator transcription factor&lt;br&gt;Location: 3222009 - 3222692" locus_tag="L083_RS13905" class="clusterblast-orf" id="dummy-1_h1_10_15"  />
</g>
<g id="a1_0016"  >
<polygon points="85,90 88,90 93,85 88,80 85,80 85,90 " style="fill:white; stroke-width:1; stroke:black; " description="&lt;b&gt;L083_RS13910&lt;/b&gt;&lt;br&gt;HAMP domain-containing histidine kinase&lt;br&gt;Location: 3222779 - 3224173" locus_tag="L083_RS13910" class="clusterblast-orf" id="dummy-1_h1_10_16"  />
</g>
<g id="a1_0017"  >
<polygon points="93,90 97,85 93,80 93,90 " style="fill:white; stroke-width:1; stroke:black; " description="&lt;b&gt;L083_RS40390&lt;/b&gt;&lt;br&gt;phosphatase PAP2 family protein&lt;br&gt;Location: 3224058 - 3224804" locus_tag="L083_RS40390" class="clusterblast-orf" id="dummy-1_h1_10_17"  />
</g>
<g id="a1_0018"  >
<polygon points="99,90 99,90 104,85 99,80 99,80 99,90 " style="fill:white; stroke-width:1; stroke:black; " description="&lt;b&gt;L083_RS42190&lt;/b&gt;&lt;br&gt;HAMP domain-containing protein&lt;br&gt;Location: 3225080 - 3226042" locus_tag="L083_RS42190" class="clusterblast-orf" id="dummy-1_h1_10_18"  />
</g>
<g id="a1_0019"  >
<polygon points="103,85 108,80 108,80 108,90 108,90 103,85 " style="fill:white; stroke-width:1; stroke:black; " description="&lt;b&gt;L083_RS13925&lt;/b&gt;&lt;br&gt;aminotransferase&lt;br&gt;Location: 3225831 - 3226604" locus_tag="L083_RS13925" class="clusterblast-orf" id="dummy-1_h1_10_19"  />
</g>
<g id="a1_0020"  >
<polygon points="108,85 113,80 113,80 113,90 113,90 108,85 " style="fill:white; stroke-width:1; stroke:black; " description="&lt;b&gt;L083_RS13930&lt;/b&gt;&lt;br&gt;glycosyltransferase&lt;br&gt;Location: 3226617 - 3227564" locus_tag="L083_RS13930" class="clusterblast-orf" id="dummy-1_h1_10_20"  />
</g>
<g id="a1_0021"  >
<polygon points="114,85 119,80 125,80 125,90 119,90 114,85 " style="fill:white; stroke-width:1; stroke:black; " description="&lt;b&gt;L083_RS13935&lt;/b&gt;&lt;br&gt;hypothetical protein&lt;br&gt;Location: 3227594 - 3229468" locus_tag="L083_RS13935" class="clusterblast-orf" id="dummy-1_h1_10_21"  />
</g>
<g id="a1_0022"  >
<polygon points="125,85 130,80 134,80 134,90 130,90 125,85 " style="fill:white; stroke-width:1; stroke:black; " description="&lt;b&gt;L083_RS13940&lt;/b&gt;&lt;br&gt;DUF3459 domain-containing protein&lt;br&gt;Location: 3229473 - 3231053" locus_tag="L083_RS13940" class="clusterblast-orf" id="dummy-1_h1_10_22"  />
</g>
<g id="a1_0023"  >
<polygon points="134,85 139,80 140,80 140,90 139,90 134,85 " style="fill:white; stroke-width:1; stroke:black; " description="&lt;b&gt;L083_RS13945&lt;/b&gt;&lt;br&gt;aldo/keto reductase&lt;br&gt;Location: 3231069 - 3232046" locus_tag="L083_RS13945" class="clusterblast-orf" id="dummy-1_h1_10_23"  />
</g>
<g id="a1_0024"  >
<polygon points="140,85 145,80 148,80 148,90 145,90 140,85 " style="fill:white; stroke-width:1; stroke:black; " description="&lt;b&gt;L083_RS13950&lt;/b&gt;&lt;br&gt;glycosyltransferase&lt;br&gt;Location: 3232027 - 3233475" locus_tag="L083_RS13950" class="clusterblast-orf" id="dummy-1_h1_10_24"  />
</g>
<g id="a1_0025"  >
<polygon points="148,85 153,80 168,80 168,90 153,90 148,85 " style="fill:white; stroke-width:1; stroke:black; " description="&lt;b&gt;L083_RS13955&lt;/b&gt;&lt;br&gt;DUF4915 domain-containing protein&lt;br&gt;Location: 3233432 - 3236860" locus_tag="L083_RS13955" class="clusterblast-orf" id="dummy-1_h1_10_25"  />
</g>
<g id="a1_0026"  >
<polygon points="173,90 174,85 173,80 173,90 " style="fill:white; stroke-width:1; stroke:black; " description="&lt;b&gt;L083_RS13960&lt;/b&gt;&lt;br&gt;hypothetical protein&lt;br&gt;Location: 3237606 - 3237845" locus_tag="L083_RS13960" class="clusterblast-orf" id="dummy-1_h1_10_26"  />
</g>
<g id="a1_0027"  >
<polygon points="175,90 178,90 183,85 178,80 175,80 175,90 " style="fill:white; stroke-width:1; stroke:black; " description="&lt;b&gt;L083_RS13965&lt;/b&gt;&lt;br&gt;FAD-dependent oxidoreductase&lt;br&gt;Location: 3237957 - 3239381" locus_tag="L083_RS13965" class="clusterblast-orf" id="dummy-1_h1_10_27"  />
</g>
<g id="a1_0028"  >
<polygon points="183,90 185,85 183,80 183,90 " style="fill:white; stroke-width:1; stroke:black; " description="&lt;b&gt;L083_RS13970&lt;/b&gt;&lt;br&gt;hypothetical protein&lt;br&gt;Location: 3239374 - 3239655" locus_tag="L083_RS13970" class="clusterblast-orf" id="dummy-1_h1_10_28"  />
</g>
<g id="a1_0029"  >
<polygon points="185,90 185,90 190,85 185,80 185,80 185,90 " style="fill:white; stroke-width:1; stroke:black; " description="&lt;b&gt;L083_RS13975&lt;/b&gt;&lt;br&gt;hypothetical protein&lt;br&gt;Location: 3239645 - 3240589" locus_tag="L083_RS13975" class="clusterblast-orf" id="dummy-1_h1_10_29"  />
</g>
<g id="a1_0030"  >
<polygon points="190,90 191,90 196,85 191,80 190,80 190,90 " style="fill:white; stroke-width:1; stroke:black; " description="&lt;b&gt;L083_RS13980&lt;/b&gt;&lt;br&gt;LLM class flavin-dependent oxidoreductase&lt;br&gt;Location: 3240586 - 3241593" locus_tag="L083_RS13980" class="clusterblast-orf" id="dummy-1_h1_10_30"  />
</g>
<g id="a1_0031"  >
<polygon points="196,90 203,90 208,85 203,80 196,80 196,90 " style="fill:white; stroke-width:1; stroke:black; " description="&lt;b&gt;L083_RS13985&lt;/b&gt;&lt;br&gt;aminodeoxychorismate synthase component I&lt;br&gt;Location: 3241590 - 3243692" locus_tag="L083_RS13985" class="clusterblast-orf" id="dummy-1_h1_10_31"  />
</g>
<g id="a1_0032"  >
<polygon points="208,90 210,90 215,85 210,80 208,80 208,90 " style="fill:white; stroke-width:1; stroke:black; " description="&lt;b&gt;L083_RS13990&lt;/b&gt;&lt;br&gt;beta-ketoacyl-[acyl-carrier-protein] synthase family protein&lt;br&gt;Location: 3243685 - 3244857" locus_tag="L083_RS13990" class="clusterblast-orf" id="dummy-1_h1_10_32"  />
</g>
<g id="a1_0033"  >
<polygon points="215,90 219,90 224,85 219,80 215,80 215,90 " style="fill:white; stroke-width:1; stroke:black; " description="&lt;b&gt;L083_RS13995&lt;/b&gt;&lt;br&gt;acyl--CoA ligase&lt;br&gt;Location: 3244808 - 3246271" locus_tag="L083_RS13995" class="clusterblast-orf" id="dummy-1_h1_10_33"  />
</g>
<g id="a1_0034"  >
<polygon points="224,90 228,85 224,80 224,90 " style="fill:white; stroke-width:1; stroke:black; " description="&lt;b&gt;L083_RS14000&lt;/b&gt;&lt;br&gt;methyltransferase&lt;br&gt;Location: 3246268 - 3246945" locus_tag="L083_RS14000" class="clusterblast-orf" id="dummy-1_h1_10_34"  />
</g>
<g id="a1_0035"  >
<polygon points="228,90 232,85 228,80 228,90 " style="fill:white; stroke-width:1; stroke:black; " description="&lt;b&gt;L083_RS40395&lt;/b&gt;&lt;br&gt;AsuC14&lt;br&gt;Location: 3246942 - 3247673" locus_tag="L083_RS40395" class="clusterblast-orf" id="dummy-1_h1_10_35"  />
</g>
<g id="a1_0036"  >
<polygon points="232,90 236,90 241,85 236,80 232,80 232,90 " style="fill:white; stroke-width:1; stroke:black; " description="&lt;b&gt;L083_RS14010&lt;/b&gt;&lt;br&gt;amino acid adenylation domain-containing protein&lt;br&gt;Location: 3247670 - 3249208" locus_tag="L083_RS14010" class="clusterblast-orf" id="dummy-1_h1_10_36"  />
</g>
<g id="a1_0037"  >
<polygon points="240,90 244,90 249,85 244,80 240,80 240,90 " style="fill:white; stroke-width:1; stroke:black; " description="&lt;b&gt;L083_RS14015&lt;/b&gt;&lt;br&gt;MFS transporter&lt;br&gt;Location: 3249042 - 3250487" locus_tag="L083_RS14015" class="clusterblast-orf" id="dummy-1_h1_10_37"  />
</g>
<g id="a1_0038"  >
<polygon points="249,90 249,90 254,85 249,80 249,80 249,90 " style="fill:white; stroke-width:1; stroke:black; " description="&lt;b&gt;L083_RS14020&lt;/b&gt;&lt;br&gt;TauD/TfdA family dioxygenase&lt;br&gt;Location: 3250548 - 3251441" locus_tag="L083_RS14020" class="clusterblast-orf" id="dummy-1_h1_10_38"  />
</g>
<g id="a1_0039"  >
<polygon points="254,85 259,80 267,80 267,90 259,90 254,85 " style="fill:white; stroke-width:1; stroke:black; " description="&lt;b&gt;L083_RS40400&lt;/b&gt;&lt;br&gt;caspase family protein&lt;br&gt;Location: 3251467 - 3253572" locus_tag="L083_RS40400" class="clusterblast-orf" id="dummy-1_h1_10_39"  />
</g>
<g id="a1_0040"  >
<polygon points="267,85 269,80 269,90 267,85 " style="fill:white; stroke-width:1; stroke:black; " description="&lt;b&gt;L083_RS14030&lt;/b&gt;&lt;br&gt;hypothetical protein&lt;br&gt;Location: 3253553 - 3253882" locus_tag="L083_RS14030" class="clusterblast-orf" id="dummy-1_h1_10_40"  />
</g>
<g id="a1_0041"  >
<polygon points="271,90 321,90 326,85 321,80 271,80 271,90 " style="fill:white; stroke-width:1; stroke:black; " description="&lt;b&gt;L083_RS40405&lt;/b&gt;&lt;br&gt;type I polyketide synthase&lt;br&gt;Location: 3254221 - 3263610" locus_tag="L083_RS40405" class="clusterblast-orf" id="dummy-1_h1_10_41"  />
</g>
<g id="a1_0042"  >
<polygon points="326,90 349,90 354,85 349,80 326,80 326,90 " style="fill:white; stroke-width:1; stroke:black; " description="&lt;b&gt;L083_RS40410&lt;/b&gt;&lt;br&gt;NAD-dependent epimerase/dehydratase family protein&lt;br&gt;Location: 3263607 - 3268325" locus_tag="L083_RS40410" class="clusterblast-orf" id="dummy-1_h1_10_42"  />
</g>
<g id="a1_0043"  >
<polygon points="354,90 356,90 361,85 356,80 354,80 354,90 " style="fill:white; stroke-width:1; stroke:black; " description="&lt;b&gt;L083_RS14050&lt;/b&gt;&lt;br&gt;cytochrome P450&lt;br&gt;Location: 3268354 - 3269556" locus_tag="L083_RS14050" class="clusterblast-orf" id="dummy-1_h1_10_43"  />
</g>
<g id="a1_0044"  >
<polygon points="361,90 365,90 370,85 365,80 361,80 361,90 " style="fill:white; stroke-width:1; stroke:black; " description="&lt;b&gt;L083_RS14055&lt;/b&gt;&lt;br&gt;GMC family oxidoreductase&lt;br&gt;Location: 3269566 - 3271131" locus_tag="L083_RS14055" class="clusterblast-orf" id="dummy-1_h1_10_44"  />
</g>
<g id="a1_0045"  >
<polygon points="370,90 371,90 376,85 371,80 370,80 370,90 " style="fill:white; stroke-width:1; stroke:black; " description="&lt;b&gt;L083_RS14060&lt;/b&gt;&lt;br&gt;SDR family NAD(P)-dependent oxidoreductase&lt;br&gt;Location: 3271146 - 3272072" locus_tag="L083_RS14060" class="clusterblast-orf" id="dummy-1_h1_10_45"  />
</g>
<g id="a1_0046"  >
<polygon points="376,90 385,90 390,85 385,80 376,80 376,90 " style="fill:white; stroke-width:1; stroke:black; " description="&lt;b&gt;L083_RS14065&lt;/b&gt;&lt;br&gt;MMPL family transporter&lt;br&gt;Location: 3272105 - 3274390" locus_tag="L083_RS14065" class="clusterblast-orf" id="dummy-1_h1_10_46"  />
</g>
<g id="a1_0047"  >
<polygon points="390,90 393,90 398,85 393,80 390,80 390,90 " style="fill:white; stroke-width:1; stroke:black; " description="&lt;b&gt;L083_RS14070&lt;/b&gt;&lt;br&gt;crotonyl-CoA carboxylase/reductase&lt;br&gt;Location: 3274540 - 3275865" locus_tag="L083_RS14070" class="clusterblast-orf" id="dummy-1_h1_10_47"  />
</g>
<g id="a1_0048"  >
<polygon points="398,85 403,80 404,80 404,90 403,90 398,85 " style="fill:white; stroke-width:1; stroke:black; " description="&lt;b&gt;L083_RS14075&lt;/b&gt;&lt;br&gt;3-deoxy-7-phosphoheptulonate synthase&lt;br&gt;Location: 3275881 - 3276921" locus_tag="L083_RS14075" class="clusterblast-orf" id="dummy-1_h1_10_48"  />
</g>
<g id="a1_0049"  >
<polygon points="404,85 409,80 414,80 414,90 409,90 404,85 " style="fill:white; stroke-width:1; stroke:black; " description="&lt;b&gt;L083_RS14080&lt;/b&gt;&lt;br&gt;bifunctional 3-(3-hydroxy-phenyl)propionate/3-hydroxycinnamic acid hydroxylase&lt;br&gt;Location: 3276911 - 3278485" locus_tag="L083_RS14080" class="clusterblast-orf" id="dummy-1_h1_10_49"  />
</g>
<g id="a1_0050"  >
<polygon points="414,85 416,80 416,90 414,85 " style="fill:white; stroke-width:1; stroke:black; " description="&lt;b&gt;L083_RS14085&lt;/b&gt;&lt;br&gt;3-dehydroquinate dehydratase&lt;br&gt;Location: 3278489 - 3278923" locus_tag="L083_RS14085" class="clusterblast-orf" id="dummy-1_h1_10_50"  />
</g>
<g id="a1_0051"  >
<polygon points="417,90 419,90 424,85 419,80 417,80 417,90 " style="fill:white; stroke-width:1; stroke:black; " description="&lt;b&gt;L083_RS14090&lt;/b&gt;&lt;br&gt;DegT/DnrJ/EryC1/StrS family aminotransferase&lt;br&gt;Location: 3279072 - 3280235" locus_tag="L083_RS14090" class="clusterblast-orf" id="dummy-1_h1_10_51"  />
</g>
<g id="a1_0052"  >
<polygon points="424,90 425,90 430,85 425,80 424,80 424,90 " style="fill:white; stroke-width:1; stroke:black; " description="&lt;b&gt;L083_RS14095&lt;/b&gt;&lt;br&gt;Gfo/Idh/MocA family oxidoreductase&lt;br&gt;Location: 3280232 - 3281296" locus_tag="L083_RS14095" class="clusterblast-orf" id="dummy-1_h1_10_52"  />
</g>
<g id="a1_0053"  >
<polygon points="430,90 434,85 430,80 430,90 " style="fill:white; stroke-width:1; stroke:black; " description="&lt;b&gt;L083_RS14100&lt;/b&gt;&lt;br&gt;HAD-IA family hydrolase&lt;br&gt;Location: 3281281 - 3281946" locus_tag="L083_RS14100" class="clusterblast-orf" id="dummy-1_h1_10_53"  />
</g>
<g id="a1_0054"  >
<polygon points="434,90 435,90 440,85 435,80 434,80 434,90 " style="fill:white; stroke-width:1; stroke:black; " description="&lt;b&gt;L083_RS14105&lt;/b&gt;&lt;br&gt;3-dehydroquinate synthase&lt;br&gt;Location: 3281939 - 3282964" locus_tag="L083_RS14105" class="clusterblast-orf" id="dummy-1_h1_10_54"  />
</g>
<g id="a1_0055"  >
<polygon points="441,90 506,90 511,85 506,80 441,80 441,90 " style="fill:#15d8d8; stroke-width:1; stroke:black; " description="&lt;b&gt;L083_RS14110&lt;/b&gt;&lt;br&gt;type I polyketide synthase&lt;br&gt;Location: 3283093 - 3294954&lt;br&gt;&lt;br&gt;&lt;b&gt;BlastP hit with CopciAB_437425.T0&lt;/b&gt;&lt;br&gt;Percentage identity: 31&lt;br&gt;Percentage coverage: 39&lt;br&gt;BLAST bit score: 315&lt;br&gt;E-value: 7.71e-84" locus_tag="L083_RS14110" class="clusterblast-orf" id="dummy-1_h1_10_55"  />
</g>
<g id="a1_0056"  >
<polygon points="511,90 544,90 549,85 544,80 511,80 511,90 " style="fill:#d81515; stroke-width:1; stroke:black; " description="&lt;b&gt;L083_RS14115&lt;/b&gt;&lt;br&gt;type I polyketide synthase&lt;br&gt;Location: 3294951 - 3301424&lt;br&gt;&lt;br&gt;&lt;b&gt;BlastP hit with CopciAB_437423.T0&lt;/b&gt;&lt;br&gt;Percentage identity: 33&lt;br&gt;Percentage coverage: 55&lt;br&gt;BLAST bit score: 56&lt;br&gt;E-value: 3.15e-06" locus_tag="L083_RS14115" class="clusterblast-orf" id="dummy-1_h1_10_56"  />
</g>
<g id="a1_0057"  >
<polygon points="549,90 576,90 581,85 576,80 549,80 549,90 " style="fill:white; stroke-width:1; stroke:black; " description="&lt;b&gt;L083_RS14120&lt;/b&gt;&lt;br&gt;type I polyketide synthase&lt;br&gt;Location: 3301454 - 3306838" locus_tag="L083_RS14120" class="clusterblast-orf" id="dummy-1_h1_10_57"  />
</g>
<g id="a1_0058"  >
<polygon points="581,90 614,90 619,85 614,80 581,80 581,90 " style="fill:white; stroke-width:1; stroke:black; " description="&lt;b&gt;L083_RS14125&lt;/b&gt;&lt;br&gt;SDR family NAD(P)-dependent oxidoreductase&lt;br&gt;Location: 3306835 - 3313305" locus_tag="L083_RS14125" class="clusterblast-orf" id="dummy-1_h1_10_58"  />
</g>
<g id="a1_0059"  >
<polygon points="619,90 663,90 668,85 663,80 619,80 619,90 " style="fill:white; stroke-width:1; stroke:black; " description="&lt;b&gt;L083_RS14130&lt;/b&gt;&lt;br&gt;type I polyketide synthase&lt;br&gt;Location: 3313302 - 3321587" locus_tag="L083_RS14130" class="clusterblast-orf" id="dummy-1_h1_10_59"  />
</g>
<g id="a1_0060"  >
<polygon points="668,90 672,85 668,80 668,90 " style="fill:white; stroke-width:1; stroke:black; " description="&lt;b&gt;L083_RS14135&lt;/b&gt;&lt;br&gt;N-acetyltransferase&lt;br&gt;Location: 3321615 - 3322370" locus_tag="L083_RS14135" class="clusterblast-orf" id="dummy-1_h1_10_60"  />
</g>
<g id="a1_0061"  >
<polygon points="672,90 675,90 680,85 675,80 672,80 672,90 " style="fill:white; stroke-width:1; stroke:black; " description="&lt;b&gt;L083_RS14140&lt;/b&gt;&lt;br&gt;LLM class flavin-dependent oxidoreductase&lt;br&gt;Location: 3322370 - 3323596" locus_tag="L083_RS14140" class="clusterblast-orf" id="dummy-1_h1_10_61"  />
</g>
<g id="a1_0062"  >
<polygon points="680,90 680,90 685,85 680,80 680,80 680,90 " style="fill:white; stroke-width:1; stroke:black; " description="&lt;b&gt;L083_RS14145&lt;/b&gt;&lt;br&gt;ROK family protein&lt;br&gt;Location: 3323606 - 3324478" locus_tag="L083_RS14145" class="clusterblast-orf" id="dummy-1_h1_10_62"  />
</g>
<g id="a1_0063"  >
<polygon points="685,85 690,80 693,80 693,90 690,90 685,85 " style="fill:white; stroke-width:1; stroke:black; " description="&lt;b&gt;L083_RS14150&lt;/b&gt;&lt;br&gt;cytochrome P450&lt;br&gt;Location: 3324528 - 3325826" locus_tag="L083_RS14150" class="clusterblast-orf" id="dummy-1_h1_10_63"  />
</g>
<g id="a1_0064"  >
<polygon points="695,90 707,90 712,85 707,80 695,80 695,90 " style="fill:white; stroke-width:1; stroke:black; " description="&lt;b&gt;L083_RS14155&lt;/b&gt;&lt;br&gt;AAA family ATPase&lt;br&gt;Location: 3326148 - 3329000" locus_tag="L083_RS14155" class="clusterblast-orf" id="dummy-1_h1_10_64"  />
</g>
<g id="a1_0065"  >
<polygon points="712,90 715,85 712,80 712,90 " style="fill:white; stroke-width:1; stroke:black; " description="&lt;b&gt;L083_RS14160&lt;/b&gt;&lt;br&gt;malonic semialdehyde reductase&lt;br&gt;Location: 3329070 - 3329660" locus_tag="L083_RS14160" class="clusterblast-orf" id="dummy-1_h1_10_65"  />
</g>
<g id="a1_0066"  >
<polygon points="716,85 721,80 722,80 722,90 721,90 716,85 " style="fill:white; stroke-width:1; stroke:black; " description="&lt;b&gt;L083_RS14165&lt;/b&gt;&lt;br&gt;quinone oxidoreductase&lt;br&gt;Location: 3329810 - 3330766" locus_tag="L083_RS14165" class="clusterblast-orf" id="dummy-1_h1_10_66"  />
</g>
<g id="a1_0067"  >
<polygon points="722,90 726,85 722,80 722,90 " style="fill:white; stroke-width:1; stroke:black; " description="&lt;b&gt;L083_RS14170&lt;/b&gt;&lt;br&gt;TetR/AcrR family transcriptional regulator&lt;br&gt;Location: 3330816 - 3331397" locus_tag="L083_RS14170" class="clusterblast-orf" id="dummy-1_h1_10_67"  />
</g>
<g id="a1_0068"  >
<polygon points="728,90 732,90 737,85 732,80 728,80 728,90 " style="fill:white; stroke-width:1; stroke:black; " description="&lt;b&gt;L083_RS14175&lt;/b&gt;&lt;br&gt;family 16 glycosylhydrolase&lt;br&gt;Location: 3331707 - 3333383" locus_tag="L083_RS14175" class="clusterblast-orf" id="dummy-1_h1_10_68"  />
</g>
<g id="a1_0069"  >
<polygon points="737,85 739,80 739,90 737,85 " style="fill:white; stroke-width:1; stroke:black; " description="&lt;b&gt;L083_RS14180&lt;/b&gt;&lt;br&gt;hypothetical protein&lt;br&gt;Location: 3333392 - 3333727" locus_tag="L083_RS14180" class="clusterblast-orf" id="dummy-1_h1_10_69"  />
</g>
<g id="a1_0070"  >
<polygon points="739,90 742,90 747,85 742,80 739,80 739,90 " style="fill:white; stroke-width:1; stroke:black; " description="&lt;b&gt;L083_RS14185&lt;/b&gt;&lt;br&gt;hypothetical protein&lt;br&gt;Location: 3333711 - 3334928" locus_tag="L083_RS14185" class="clusterblast-orf" id="dummy-1_h1_10_70"  />
</g>
<g id="a1_0071"  >
<polygon points="747,90 750,85 747,80 747,90 " style="fill:white; stroke-width:1; stroke:black; " description="&lt;b&gt;L083_RS14190&lt;/b&gt;&lt;br&gt;hypothetical protein&lt;br&gt;Location: 3335027 - 3335452" locus_tag="L083_RS14190" class="clusterblast-orf" id="dummy-1_h1_10_71"  />
</g>
<g id="a1_0072"  >
<polygon points="750,90 752,90 757,85 752,80 750,80 750,90 " style="fill:white; stroke-width:1; stroke:black; " description="&lt;b&gt;L083_RS14195&lt;/b&gt;&lt;br&gt;putative sulfate exporter family transporter&lt;br&gt;Location: 3335590 - 3336672" locus_tag="L083_RS14195" class="clusterblast-orf" id="dummy-1_h1_10_72"  />
</g>
<g id="a1_0073"  >
<polygon points="757,90 757,90 762,85 757,80 757,80 757,90 " style="fill:white; stroke-width:1; stroke:black; " description="&lt;b&gt;L083_RS14200&lt;/b&gt;&lt;br&gt;LysR family transcriptional regulator&lt;br&gt;Location: 3336727 - 3337638" locus_tag="L083_RS14200" class="clusterblast-orf" id="dummy-1_h1_10_73"  />
</g>
<g id="a1_0074"  >
<polygon points="763,90 764,85 763,80 763,90 " style="fill:white; stroke-width:1; stroke:black; " description="&lt;b&gt;L083_RS43595&lt;/b&gt;&lt;br&gt;hypothetical protein&lt;br&gt;Location: 3337751 - 3337909" locus_tag="L083_RS43595" class="clusterblast-orf" id="dummy-1_h1_10_74"  />
</g>
<g id="a1_0075"  >
<polygon points="764,85 768,80 768,90 764,85 " style="fill:white; stroke-width:1; stroke:black; " description="&lt;b&gt;L083_RS43600&lt;/b&gt;&lt;br&gt;STAS domain-containing protein&lt;br&gt;Location: 3337878 - 3338501" locus_tag="L083_RS43600" class="clusterblast-orf" id="dummy-1_h1_10_75"  />
</g>
<g id="a1_0076"  >
<polygon points="768,85 769,80 769,90 768,85 " style="fill:white; stroke-width:1; stroke:black; " description="&lt;b&gt;L083_RS43605&lt;/b&gt;&lt;br&gt;hypothetical protein&lt;br&gt;Location: 3338498 - 3338794" locus_tag="L083_RS43605" class="clusterblast-orf" id="dummy-1_h1_10_76"  />
</g>
<g id="a1_0077"  >
<polygon points="770,85 773,80 773,90 770,85 " style="fill:white; stroke-width:1; stroke:black; " description="&lt;b&gt;L083_RS42205&lt;/b&gt;&lt;br&gt;hypothetical protein&lt;br&gt;Location: 3338897 - 3339502" locus_tag="L083_RS42205" class="clusterblast-orf" id="dummy-1_h1_10_77"  />
</g>
<g id="a1_0078"  >
<polygon points="773,90 775,85 773,80 773,90 " style="fill:white; stroke-width:1; stroke:black; " description="&lt;b&gt;L083_RS14220&lt;/b&gt;&lt;br&gt;hypothetical protein&lt;br&gt;Location: 3339470 - 3339790" locus_tag="L083_RS14220" class="clusterblast-orf" id="dummy-1_h1_10_78"  />
</g>
<g id="a1_0079"  >
<polygon points="776,90 780,85 776,80 776,90 " style="fill:white; stroke-width:1; stroke:black; " description="&lt;b&gt;L083_RS14225&lt;/b&gt;&lt;br&gt;response regulator transcription factor&lt;br&gt;Location: 3339852 - 3340523" locus_tag="L083_RS14225" class="clusterblast-orf" id="dummy-1_h1_10_79"  />
</g>
</svg>
