<svg xmlns="http://www.w3.org/2000/svg" xmlns:xlink="http://www.w3.org/1999/xlink" version="1.1" x="0" y="0" height="230" width="800" viewBox="0 0 800 230" preserveAspectRatio="none"  >
<g label="Query sequence" class="clusterblast-cluster"  >
<text x="5" y="20" class="clusterblast-acc"  >
Query sequence</text>
<line x1="10" y1="35" x2="778.0" y2="35" style="stroke-width:1; stroke:grey; "  />
<polygon points="2,40 10,40 15,35 10,30 2,30 2,40 " style="fill:white; stroke-width:1; stroke:black; " description="&lt;b&gt;CopciAB_504759.T0&lt;/b&gt;&lt;br&gt;CopciAB 504759.T0&lt;br&gt;Location: 1509256 - 1510298" locus_tag="CopciAB_504759.T0" class="clusterblast-orf" id="dummy-2_q0_0_all"  />
<polygon points="17,35 22,30 32,30 32,40 22,40 17,35 " style="fill:white; stroke-width:1; stroke:black; " description="&lt;b&gt;CopciAB_537377.T0&lt;/b&gt;&lt;br&gt;CopciAB 537377.T0&lt;br&gt;Location: 1510525 - 1511745" locus_tag="CopciAB_537377.T0" class="clusterblast-orf" id="dummy-2_q1_0_all"  />
<polygon points="37,35 42,30 53,30 53,40 42,40 37,35 " style="fill:white; stroke-width:1; stroke:black; " description="&lt;b&gt;CopciAB_537378.T0&lt;/b&gt;&lt;br&gt;CopciAB 537378.T0&lt;br&gt;Location: 1512155 - 1513440" locus_tag="CopciAB_537378.T0" class="clusterblast-orf" id="dummy-2_q2_0_all"  />
<polygon points="55,35 60,30 89,30 89,40 60,40 55,35 " style="fill:white; stroke-width:1; stroke:black; " description="&lt;b&gt;CopciAB_384835.T0&lt;/b&gt;&lt;br&gt;CopciAB 384835.T0&lt;br&gt;Location: 1513673 - 1516469" locus_tag="CopciAB_384835.T0" class="clusterblast-orf" id="dummy-2_q3_0_all"  />
<polygon points="96,35 101,30 110,30 110,40 101,40 96,35 " style="fill:white; stroke-width:1; stroke:black; " description="&lt;b&gt;CopciAB_461698.T0&lt;/b&gt;&lt;br&gt;CopciAB 461698.T0&lt;br&gt;Location: 1517066 - 1518223" locus_tag="CopciAB_461698.T0" class="clusterblast-orf" id="dummy-2_q4_0_all"  />
<polygon points="120,40 131,40 136,35 131,30 120,30 120,40 " style="fill:white; stroke-width:1; stroke:black; " description="&lt;b&gt;CopciAB_451236.T0&lt;/b&gt;&lt;br&gt;CopciAB 451236.T0&lt;br&gt;Location: 1519026 - 1520375" locus_tag="CopciAB_451236.T0" class="clusterblast-orf" id="dummy-2_q5_0_all"  />
<polygon points="143,40 166,40 171,35 166,30 143,30 143,40 " style="fill:white; stroke-width:1; stroke:black; " description="&lt;b&gt;CopciAB_2218.T0&lt;/b&gt;&lt;br&gt;CopciAB 2218.T0&lt;br&gt;Location: 1520900 - 1523225" locus_tag="CopciAB_2218.T0" class="clusterblast-orf" id="dummy-2_q6_0_all"  />
<polygon points="176,35 181,30 202,30 202,40 181,40 176,35 " style="fill:white; stroke-width:1; stroke:black; " description="&lt;b&gt;CopciAB_492579.T0&lt;/b&gt;&lt;br&gt;CopciAB 492579.T0&lt;br&gt;Location: 1523632 - 1525781" locus_tag="CopciAB_492579.T0" class="clusterblast-orf" id="dummy-2_q7_0_all"  />
<polygon points="204,40 206,40 211,35 206,30 204,30 204,40 " style="fill:white; stroke-width:1; stroke:black; " description="&lt;b&gt;CopciAB_436846.T0&lt;/b&gt;&lt;br&gt;CopciAB 436846.T0&lt;br&gt;Location: 1525955 - 1526547" locus_tag="CopciAB_436846.T0" class="clusterblast-orf" id="dummy-2_q8_0_all"  />
<polygon points="211,35 216,30 234,30 234,40 216,40 211,35 " style="fill:white; stroke-width:1; stroke:black; " description="&lt;b&gt;CopciAB_2422.T0&lt;/b&gt;&lt;br&gt;CopciAB 2422.T0&lt;br&gt;Location: 1526572 - 1528450" locus_tag="CopciAB_2422.T0" class="clusterblast-orf" id="dummy-2_q9_0_all"  />
<polygon points="236,40 270,40 275,35 270,30 236,30 236,40 " style="fill:white; stroke-width:1; stroke:black; " description="&lt;b&gt;CopciAB_2409.T0&lt;/b&gt;&lt;br&gt;CopciAB 2409.T0&lt;br&gt;Location: 1528581 - 1531800" locus_tag="CopciAB_2409.T0" class="clusterblast-orf" id="dummy-2_q10_0_all"  />
<polygon points="277,35 282,30 340,30 340,40 282,40 277,35 " style="fill:white; stroke-width:1; stroke:black; " description="&lt;b&gt;CopciAB_483887.T0&lt;/b&gt;&lt;br&gt;CopciAB 483887.T0&lt;br&gt;Location: 1532016 - 1537237" locus_tag="CopciAB_483887.T0" class="clusterblast-orf" id="dummy-2_q11_0_all"  />
<polygon points="342,40 344,40 349,35 344,30 342,30 342,40 " style="fill:#d81515; stroke-width:1; stroke:black; " description="&lt;b&gt;CopciAB_461705.T0&lt;/b&gt;&lt;br&gt;CopciAB 461705.T0&lt;br&gt;Location: 1537347 - 1537914" locus_tag="CopciAB_461705.T0" class="clusterblast-orf" id="dummy-2_q12_0_all"  />
<polygon points="349,35 354,30 445,30 445,40 354,40 349,35 " style="fill:#15d863; stroke-width:1; stroke:black; " description="&lt;b&gt;CopciAB_354233.T0&lt;/b&gt;&lt;br&gt;CopciAB 354233.T0&lt;br&gt;Location: 1537957 - 1545917" locus_tag="CopciAB_354233.T0" class="clusterblast-orf" id="dummy-2_q13_0_all"  />
<polygon points="454,40 472,40 477,35 472,30 454,30 454,40 " style="fill:#1563d8; stroke-width:1; stroke:black; " description="&lt;b&gt;CopciAB_492586.T0&lt;/b&gt;&lt;br&gt;CopciAB 492586.T0&lt;br&gt;Location: 1546654 - 1548569" locus_tag="CopciAB_492586.T0" class="clusterblast-orf" id="dummy-2_q14_0_all"  />
<polygon points="481,40 486,40 491,35 486,30 481,30 481,40 " style="fill:#b115d8; stroke-width:1; stroke:black; " description="&lt;b&gt;CopciAB_411041.T0&lt;/b&gt;&lt;br&gt;CopciAB 411041.T0&lt;br&gt;Location: 1548867 - 1549655" locus_tag="CopciAB_411041.T0" class="clusterblast-orf" id="dummy-2_q15_0_all"  />
<polygon points="492,35 497,30 572,30 572,40 497,40 492,35 " style="fill:#b1d815; stroke-width:1; stroke:black; " description="&lt;b&gt;CopciAB_451244.T0&lt;/b&gt;&lt;br&gt;CopciAB 451244.T0&lt;br&gt;Location: 1549751 - 1556369" locus_tag="CopciAB_451244.T0" class="clusterblast-orf" id="dummy-2_q16_0_all"  />
<polygon points="575,35 580,30 589,30 589,40 580,40 575,35 " style="fill:white; stroke-width:1; stroke:black; " description="&lt;b&gt;CopciAB_2587.T0&lt;/b&gt;&lt;br&gt;CopciAB 2587.T0&lt;br&gt;Location: 1556658 - 1557807" locus_tag="CopciAB_2587.T0" class="clusterblast-orf" id="dummy-2_q17_0_all"  />
<polygon points="592,40 601,40 606,35 601,30 592,30 592,40 " style="fill:white; stroke-width:1; stroke:black; " description="&lt;b&gt;CopciAB_492590.T0&lt;/b&gt;&lt;br&gt;CopciAB 492590.T0&lt;br&gt;Location: 1558077 - 1559177" locus_tag="CopciAB_492590.T0" class="clusterblast-orf" id="dummy-2_q18_0_all"  />
<polygon points="608,40 622,40 627,35 622,30 608,30 608,40 " style="fill:white; stroke-width:1; stroke:black; " description="&lt;b&gt;CopciAB_353895.T0&lt;/b&gt;&lt;br&gt;CopciAB 353895.T0&lt;br&gt;Location: 1559378 - 1560921" locus_tag="CopciAB_353895.T0" class="clusterblast-orf" id="dummy-2_q19_0_all"  />
<polygon points="629,35 634,30 673,30 673,40 634,40 629,35 " style="fill:white; stroke-width:1; stroke:black; " description="&lt;b&gt;CopciAB_492592.T0&lt;/b&gt;&lt;br&gt;CopciAB 492592.T0&lt;br&gt;Location: 1561059 - 1564721" locus_tag="CopciAB_492592.T0" class="clusterblast-orf" id="dummy-2_q20_0_all"  />
<polygon points="675,40 678,35 675,30 675,40 " style="fill:white; stroke-width:1; stroke:black; " description="&lt;b&gt;CopciAB_2714.T0&lt;/b&gt;&lt;br&gt;CopciAB 2714.T0&lt;br&gt;Location: 1564919 - 1565171" locus_tag="CopciAB_2714.T0" class="clusterblast-orf" id="dummy-2_q21_0_all"  />
<polygon points="678,35 683,30 685,30 685,40 683,40 678,35 " style="fill:white; stroke-width:1; stroke:black; " description="&lt;b&gt;CopciAB_354058.T0&lt;/b&gt;&lt;br&gt;CopciAB 354058.T0&lt;br&gt;Location: 1565167 - 1565693" locus_tag="CopciAB_354058.T0" class="clusterblast-orf" id="dummy-2_q22_0_all"  />
<polygon points="686,40 721,40 726,35 721,30 686,30 686,40 " style="fill:white; stroke-width:1; stroke:black; " description="&lt;b&gt;CopciAB_353952.T0&lt;/b&gt;&lt;br&gt;CopciAB 353952.T0&lt;br&gt;Location: 1565806 - 1569136" locus_tag="CopciAB_353952.T0" class="clusterblast-orf" id="dummy-2_q23_0_all"  />
<polygon points="728,40 738,40 743,35 738,30 728,30 728,40 " style="fill:white; stroke-width:1; stroke:black; " description="&lt;b&gt;CopciAB_436853.T0&lt;/b&gt;&lt;br&gt;CopciAB 436853.T0&lt;br&gt;Location: 1569318 - 1570506" locus_tag="CopciAB_436853.T0" class="clusterblast-orf" id="dummy-2_q24_0_all"  />
<polygon points="750,40 761,40 766,35 761,30 750,30 750,40 " style="fill:white; stroke-width:1; stroke:black; " description="&lt;b&gt;CopciAB_461716.T0&lt;/b&gt;&lt;br&gt;CopciAB 461716.T0&lt;br&gt;Location: 1571129 - 1572388" locus_tag="CopciAB_461716.T0" class="clusterblast-orf" id="dummy-2_q25_0_all"  />
<polygon points="775,40 777,35 775,30 775,40 " style="fill:white; stroke-width:1; stroke:black; " description="&lt;b&gt;CopciAB_1000404.T0&lt;/b&gt;&lt;br&gt;CopciAB 1000404.T0&lt;br&gt;Location: 1573184 - 1573358" locus_tag="CopciAB_1000404.T0" class="clusterblast-orf" id="dummy-2_q26_0_all"  />
</g>
<g label="NZ_CP046622" description="NZ_CP046622 (4068160-4133377): Variovorax paradoxus strain CSUSB chromosome, ... (6% of genes show similarity), NRPS,T1PKS" class="clusterblast-cluster"  >
<text x="5" y="70" class="clusterblast-acc"  >
<a xlink:href="https://antismash-db.secondarymetabolites.org/area.html?record=NZ_CP046622&amp;start=4068160&amp;end=4133377" target="_blank">NZ_CP046622 (4068160-4133377)</a>: Variovorax paradoxus strain CSUSB chromosome, ... (6% of genes show similarity), NRPS,T1PKS</text>
<line x1="10" y1="85" x2="778.0" y2="85" style="stroke-width:1; stroke:grey; "  />
</g>
<g id="a2_000"  >
<polygon points="0,90 2,90 7,85 2,80 0,80 0,90 " style="fill:white; stroke-width:1; stroke:black; " description="&lt;b&gt;GOQ09_RS18990&lt;/b&gt;&lt;br&gt;sigma-70 family RNA polymerase sigma factor&lt;br&gt;Location: 4068488 - 4069105" locus_tag="GOQ09_RS18990" class="clusterblast-orf" id="dummy-2_h2_5_0"  />
</g>
<g id="a2_001"  >
<polygon points="7,90 10,85 7,80 7,90 " style="fill:white; stroke-width:1; stroke:black; " description="&lt;b&gt;GOQ09_RS18995&lt;/b&gt;&lt;br&gt;iron dicitrate transport regulator FecR&lt;br&gt;Location: 4069116 - 4069331" locus_tag="GOQ09_RS18995" class="clusterblast-orf" id="dummy-2_h2_5_1"  />
</g>
<g id="a2_002"  >
<polygon points="10,85 13,80 13,90 10,85 " style="fill:white; stroke-width:1; stroke:black; " description="&lt;b&gt;GOQ09_RS19000&lt;/b&gt;&lt;br&gt;hypothetical protein&lt;br&gt;Location: 4069344 - 4069589" locus_tag="GOQ09_RS19000" class="clusterblast-orf" id="dummy-2_h2_5_2"  />
</g>
<g id="a2_003"  >
<polygon points="13,85 18,80 33,80 33,90 18,90 13,85 " style="fill:white; stroke-width:1; stroke:black; " description="&lt;b&gt;GOQ09_RS19005&lt;/b&gt;&lt;br&gt;cyclic peptide export ABC transporter&lt;br&gt;Location: 4069599 - 4071290" locus_tag="GOQ09_RS19005" class="clusterblast-orf" id="dummy-2_h2_5_3"  />
</g>
<g id="a2_004"  >
<polygon points="36,90 39,90 44,85 39,80 36,80 36,90 " style="fill:white; stroke-width:1; stroke:black; " description="&lt;b&gt;GOQ09_RS19010&lt;/b&gt;&lt;br&gt;siderophore-iron reductase FhuF&lt;br&gt;Location: 4071474 - 4072202" locus_tag="GOQ09_RS19010" class="clusterblast-orf" id="dummy-2_h2_5_4"  />
</g>
<g id="a2_005"  >
<polygon points="45,90 50,90 55,85 50,80 45,80 45,90 " style="fill:white; stroke-width:1; stroke:black; " description="&lt;b&gt;GOQ09_RS19015&lt;/b&gt;&lt;br&gt;N(5)-hydroxyornithine transformylase PvdF&lt;br&gt;Location: 4072252 - 4073103" locus_tag="GOQ09_RS19015" class="clusterblast-orf" id="dummy-2_h2_5_5"  />
</g>
<g id="a2_006"  >
<polygon points="55,90 63,90 68,85 63,80 55,80 55,90 " style="fill:white; stroke-width:1; stroke:black; " description="&lt;b&gt;GOQ09_RS19020&lt;/b&gt;&lt;br&gt;GNAT family N-acetyltransferase&lt;br&gt;Location: 4073100 - 4074143" locus_tag="GOQ09_RS19020" class="clusterblast-orf" id="dummy-2_h2_5_6"  />
</g>
<g id="a2_007"  >
<polygon points="68,90 79,90 84,85 79,80 68,80 68,90 " style="fill:#1563d8; stroke-width:1; stroke:black; " description="&lt;b&gt;GOQ09_RS19025&lt;/b&gt;&lt;br&gt;SidA/IucD/PvdA family monooxygenase&lt;br&gt;Location: 4074156 - 4075490&lt;br&gt;&lt;br&gt;&lt;b&gt;BlastP hit with CopciAB_492586.T0&lt;/b&gt;&lt;br&gt;Percentage identity: 32&lt;br&gt;Percentage coverage: 98&lt;br&gt;BLAST bit score: 239&lt;br&gt;E-value: 5.61e-71" locus_tag="GOQ09_RS19025" class="clusterblast-orf" id="dummy-2_h2_5_7"  />
</g>
<g id="a2_008"  >
<polygon points="89,90 134,90 139,85 134,80 89,80 89,90 " style="fill:white; stroke-width:1; stroke:black; " description="&lt;b&gt;GOQ09_RS19030&lt;/b&gt;&lt;br&gt;filamentous hemagglutinin N-terminal domain-containing protein&lt;br&gt;Location: 4075902 - 4080039" locus_tag="GOQ09_RS19030" class="clusterblast-orf" id="dummy-2_h2_5_8"  />
</g>
<g id="a2_009"  >
<polygon points="144,90 145,90 150,85 145,80 144,80 144,90 " style="fill:white; stroke-width:1; stroke:black; " description="&lt;b&gt;GOQ09_RS19035&lt;/b&gt;&lt;br&gt;hypothetical protein&lt;br&gt;Location: 4080427 - 4080963" locus_tag="GOQ09_RS19035" class="clusterblast-orf" id="dummy-2_h2_5_9"  />
</g>
<g id="a2_0010"  >
<polygon points="151,90 155,85 151,80 151,90 " style="fill:white; stroke-width:1; stroke:black; " description="&lt;b&gt;GOQ09_RS19040&lt;/b&gt;&lt;br&gt;hypothetical protein&lt;br&gt;Location: 4081028 - 4081375" locus_tag="GOQ09_RS19040" class="clusterblast-orf" id="dummy-2_h2_5_10"  />
</g>
<g id="a2_0011"  >
<polygon points="156,90 159,85 156,80 156,90 " style="fill:white; stroke-width:1; stroke:black; " description="&lt;b&gt;GOQ09_RS19045&lt;/b&gt;&lt;br&gt;hypothetical protein&lt;br&gt;Location: 4081408 - 4081692" locus_tag="GOQ09_RS19045" class="clusterblast-orf" id="dummy-2_h2_5_11"  />
</g>
<g id="a2_0012"  >
<polygon points="162,90 166,85 162,80 162,90 " style="fill:white; stroke-width:1; stroke:black; " description="&lt;b&gt;GOQ09_RS19050&lt;/b&gt;&lt;br&gt;DUF2846 domain-containing protein&lt;br&gt;Location: 4081882 - 4082274" locus_tag="GOQ09_RS19050" class="clusterblast-orf" id="dummy-2_h2_5_12"  />
</g>
<g id="a2_0013"  >
<polygon points="168,90 184,90 189,85 184,80 168,80 168,90 " style="fill:white; stroke-width:1; stroke:black; " description="&lt;b&gt;GOQ09_RS19055&lt;/b&gt;&lt;br&gt;ShlB/FhaC/HecB family hemolysin secretion/activation protein&lt;br&gt;Location: 4082387 - 4084171" locus_tag="GOQ09_RS19055" class="clusterblast-orf" id="dummy-2_h2_5_13"  />
</g>
<g id="a2_0014"  >
<polygon points="191,90 195,85 191,80 191,90 " style="fill:white; stroke-width:1; stroke:black; " description="&lt;b&gt;GOQ09_RS19060&lt;/b&gt;&lt;br&gt;hypothetical protein&lt;br&gt;Location: 4084286 - 4084651" locus_tag="GOQ09_RS19060" class="clusterblast-orf" id="dummy-2_h2_5_14"  />
</g>
<g id="a2_0015"  >
<polygon points="196,90 203,90 208,85 203,80 196,80 196,90 " style="fill:white; stroke-width:1; stroke:black; " description="&lt;b&gt;GOQ09_RS19065&lt;/b&gt;&lt;br&gt;hypothetical protein&lt;br&gt;Location: 4084752 - 4085723" locus_tag="GOQ09_RS19065" class="clusterblast-orf" id="dummy-2_h2_5_15"  />
</g>
<g id="a2_0016"  >
<polygon points="210,90 231,90 236,85 231,80 210,80 210,90 " style="fill:white; stroke-width:1; stroke:black; " description="&lt;b&gt;GOQ09_RS19070&lt;/b&gt;&lt;br&gt;TonB-dependent siderophore receptor&lt;br&gt;Location: 4085878 - 4088076" locus_tag="GOQ09_RS19070" class="clusterblast-orf" id="dummy-2_h2_5_16"  />
</g>
<g id="a2_0017"  >
<polygon points="237,85 242,80 287,80 287,90 242,90 237,85 " style="fill:white; stroke-width:1; stroke:black; " description="&lt;b&gt;GOQ09_RS19075&lt;/b&gt;&lt;br&gt;amino acid adenylation domain-containing protein&lt;br&gt;Location: 4088161 - 4092264" locus_tag="GOQ09_RS19075" class="clusterblast-orf" id="dummy-2_h2_5_17"  />
</g>
<g id="a2_0018"  >
<polygon points="287,85 292,80 382,80 382,90 292,90 287,85 " style="fill:white; stroke-width:1; stroke:black; " description="&lt;b&gt;GOQ09_RS19080&lt;/b&gt;&lt;br&gt;amino acid adenylation domain-containing protein&lt;br&gt;Location: 4092264 - 4100132" locus_tag="GOQ09_RS19080" class="clusterblast-orf" id="dummy-2_h2_5_18"  />
</g>
<g id="a2_0019"  >
<polygon points="382,85 387,80 423,80 423,90 387,90 382,85 " style="fill:#15d863; stroke-width:1; stroke:black; " description="&lt;b&gt;GOQ09_RS19085&lt;/b&gt;&lt;br&gt;amino acid adenylation domain-containing protein&lt;br&gt;Location: 4100132 - 4103464&lt;br&gt;&lt;br&gt;&lt;b&gt;BlastP hit with CopciAB_354233.T0&lt;/b&gt;&lt;br&gt;Percentage identity: 31&lt;br&gt;Percentage coverage: 25&lt;br&gt;BLAST bit score: 226&lt;br&gt;E-value: 7.61e-58" locus_tag="GOQ09_RS19085" class="clusterblast-orf" id="dummy-2_h2_5_19"  />
</g>
<g id="a2_0020"  >
<polygon points="423,85 428,80 478,80 478,90 428,90 423,85 " style="fill:white; stroke-width:1; stroke:black; " description="&lt;b&gt;GOQ09_RS19090&lt;/b&gt;&lt;br&gt;SDR family NAD(P)-dependent oxidoreductase&lt;br&gt;Location: 4103461 - 4108080" locus_tag="GOQ09_RS19090" class="clusterblast-orf" id="dummy-2_h2_5_20"  />
</g>
<g id="a2_0021"  >
<polygon points="478,85 483,80 542,80 542,90 483,90 478,85 " style="fill:#15d863; stroke-width:1; stroke:black; " description="&lt;b&gt;GOQ09_RS19095&lt;/b&gt;&lt;br&gt;amino acid adenylation domain-containing protein&lt;br&gt;Location: 4108080 - 4113377&lt;br&gt;&lt;br&gt;&lt;b&gt;BlastP hit with CopciAB_354233.T0&lt;/b&gt;&lt;br&gt;Percentage identity: 32&lt;br&gt;Percentage coverage: 26&lt;br&gt;BLAST bit score: 237&lt;br&gt;E-value: 1.82e-60" locus_tag="GOQ09_RS19095" class="clusterblast-orf" id="dummy-2_h2_5_21"  />
</g>
<g id="a2_0022"  >
<polygon points="542,85 547,80 551,80 551,90 547,90 542,85 " style="fill:white; stroke-width:1; stroke:black; " description="&lt;b&gt;GOQ09_RS19100&lt;/b&gt;&lt;br&gt;4'-phosphopantetheinyl transferase superfamily protein&lt;br&gt;Location: 4113374 - 4114063" locus_tag="GOQ09_RS19100" class="clusterblast-orf" id="dummy-2_h2_5_22"  />
</g>
<g id="a2_0023"  >
<polygon points="550,85 555,80 559,80 559,90 555,90 550,85 " style="fill:white; stroke-width:1; stroke:black; " description="&lt;b&gt;GOQ09_RS19105&lt;/b&gt;&lt;br&gt;alpha/beta fold hydrolase&lt;br&gt;Location: 4114041 - 4114778" locus_tag="GOQ09_RS19105" class="clusterblast-orf" id="dummy-2_h2_5_23"  />
</g>
<g id="a2_0024"  >
<polygon points="559,85 562,80 562,90 559,85 " style="fill:white; stroke-width:1; stroke:black; " description="&lt;b&gt;GOQ09_RS19110&lt;/b&gt;&lt;br&gt;MbtH family NRPS accessory protein&lt;br&gt;Location: 4114784 - 4115035" locus_tag="GOQ09_RS19110" class="clusterblast-orf" id="dummy-2_h2_5_24"  />
</g>
<g id="a2_0025"  >
<polygon points="564,85 566,80 566,90 564,85 " style="fill:white; stroke-width:1; stroke:black; " description="&lt;b&gt;GOQ09_RS19115&lt;/b&gt;&lt;br&gt;DUF4880 domain-containing protein&lt;br&gt;Location: 4115138 - 4115365" locus_tag="GOQ09_RS19115" class="clusterblast-orf" id="dummy-2_h2_5_25"  />
</g>
<g id="a2_0026"  >
<polygon points="568,85 573,80 574,80 574,90 573,90 568,85 " style="fill:white; stroke-width:1; stroke:black; " description="&lt;b&gt;GOQ09_RS19120&lt;/b&gt;&lt;br&gt;sigma-70 family RNA polymerase sigma factor&lt;br&gt;Location: 4115468 - 4116013" locus_tag="GOQ09_RS19120" class="clusterblast-orf" id="dummy-2_h2_5_26"  />
</g>
<g id="a2_0027"  >
<polygon points="578,90 583,90 588,85 583,80 578,80 578,90 " style="fill:white; stroke-width:1; stroke:black; " description="&lt;b&gt;GOQ09_RS19125&lt;/b&gt;&lt;br&gt;plasmid replication/partition related protein&lt;br&gt;Location: 4116320 - 4117171" locus_tag="GOQ09_RS19125" class="clusterblast-orf" id="dummy-2_h2_5_27"  />
</g>
<g id="a2_0028"  >
<polygon points="589,85 594,80 596,80 596,90 594,90 589,85 " style="fill:white; stroke-width:1; stroke:black; " description="&lt;b&gt;GOQ09_RS19130&lt;/b&gt;&lt;br&gt;twin-arginine translocation pathway signal&lt;br&gt;Location: 4117195 - 4117779" locus_tag="GOQ09_RS19130" class="clusterblast-orf" id="dummy-2_h2_5_28"  />
</g>
<g id="a2_0029"  >
<polygon points="598,85 603,80 609,80 609,90 603,90 598,85 " style="fill:white; stroke-width:1; stroke:black; " description="&lt;b&gt;GOQ09_RS19135&lt;/b&gt;&lt;br&gt;LysR family transcriptional regulator&lt;br&gt;Location: 4117946 - 4118899" locus_tag="GOQ09_RS19135" class="clusterblast-orf" id="dummy-2_h2_5_29"  />
</g>
<g id="a2_0030"  >
<polygon points="610,90 619,90 624,85 619,80 610,80 610,90 " style="fill:white; stroke-width:1; stroke:black; " description="&lt;b&gt;GOQ09_RS19140&lt;/b&gt;&lt;br&gt;DSD1 family PLP-dependent enzyme&lt;br&gt;Location: 4118971 - 4120113" locus_tag="GOQ09_RS19140" class="clusterblast-orf" id="dummy-2_h2_5_30"  />
</g>
<g id="a2_0031"  >
<polygon points="624,90 624,90 629,85 624,80 624,80 624,90 " style="fill:white; stroke-width:1; stroke:black; " description="&lt;b&gt;GOQ09_RS19145&lt;/b&gt;&lt;br&gt;RidA family protein&lt;br&gt;Location: 4120125 - 4120511" locus_tag="GOQ09_RS19145" class="clusterblast-orf" id="dummy-2_h2_5_31"  />
</g>
<g id="a2_0032"  >
<polygon points="631,90 638,90 643,85 638,80 631,80 631,90 " style="fill:white; stroke-width:1; stroke:black; " description="&lt;b&gt;GOQ09_RS19150&lt;/b&gt;&lt;br&gt;hypothetical protein&lt;br&gt;Location: 4120677 - 4121666" locus_tag="GOQ09_RS19150" class="clusterblast-orf" id="dummy-2_h2_5_32"  />
</g>
<g id="a2_0033"  >
<polygon points="644,90 654,90 659,85 654,80 644,80 644,90 " style="fill:white; stroke-width:1; stroke:black; " description="&lt;b&gt;GOQ09_RS19155&lt;/b&gt;&lt;br&gt;phosphatase PAP2 family protein&lt;br&gt;Location: 4121781 - 4122986" locus_tag="GOQ09_RS19155" class="clusterblast-orf" id="dummy-2_h2_5_33"  />
</g>
<g id="a2_0034"  >
<polygon points="659,90 662,85 659,80 659,90 " style="fill:white; stroke-width:1; stroke:black; " description="&lt;b&gt;GOQ09_RS19160&lt;/b&gt;&lt;br&gt;LysR family transcriptional regulator&lt;br&gt;Location: 4122995 - 4123297" locus_tag="GOQ09_RS19160" class="clusterblast-orf" id="dummy-2_h2_5_34"  />
</g>
<g id="a2_0035"  >
<polygon points="667,85 669,80 669,90 667,85 " style="fill:white; stroke-width:1; stroke:black; " description="&lt;b&gt;GOQ09_RS19165&lt;/b&gt;&lt;br&gt;hypothetical protein&lt;br&gt;Location: 4123679 - 4123879" locus_tag="GOQ09_RS19165" class="clusterblast-orf" id="dummy-2_h2_5_35"  />
</g>
<g id="a2_0036"  >
<polygon points="670,85 675,80 676,80 676,90 675,90 670,85 " style="fill:white; stroke-width:1; stroke:black; " description="&lt;b&gt;GOQ09_RS19170&lt;/b&gt;&lt;br&gt;DJ-1/PfpI/YhbO family deglycase/protease&lt;br&gt;Location: 4123900 - 4124457" locus_tag="GOQ09_RS19170" class="clusterblast-orf" id="dummy-2_h2_5_36"  />
</g>
<g id="a2_0037"  >
<polygon points="683,85 688,80 700,80 700,90 688,90 683,85 " style="fill:white; stroke-width:1; stroke:black; " description="&lt;b&gt;GOQ09_RS19190&lt;/b&gt;&lt;br&gt;glutamate--tRNA ligase&lt;br&gt;Location: 4125007 - 4126395" locus_tag="GOQ09_RS19190" class="clusterblast-orf" id="dummy-2_h2_5_37"  />
</g>
<g id="a2_0038"  >
<polygon points="700,85 705,80 715,80 715,90 705,90 700,85 " style="fill:white; stroke-width:1; stroke:black; " description="&lt;b&gt;GOQ09_RS19195&lt;/b&gt;&lt;br&gt;O-succinylhomoserine sulfhydrylase&lt;br&gt;Location: 4126404 - 4127624" locus_tag="GOQ09_RS19195" class="clusterblast-orf" id="dummy-2_h2_5_38"  />
</g>
<g id="a2_0039"  >
<polygon points="715,85 720,80 733,80 733,90 720,90 715,85 " style="fill:white; stroke-width:1; stroke:black; " description="&lt;b&gt;GOQ09_RS19200&lt;/b&gt;&lt;br&gt;amidophosphoribosyltransferase&lt;br&gt;Location: 4127633 - 4129138" locus_tag="GOQ09_RS19200" class="clusterblast-orf" id="dummy-2_h2_5_39"  />
</g>
<g id="a2_0040"  >
<polygon points="733,85 738,80 739,80 739,90 738,90 733,85 " style="fill:white; stroke-width:1; stroke:black; " description="&lt;b&gt;GOQ09_RS19205&lt;/b&gt;&lt;br&gt;CvpA family protein&lt;br&gt;Location: 4129151 - 4129636" locus_tag="GOQ09_RS19205" class="clusterblast-orf" id="dummy-2_h2_5_40"  />
</g>
<g id="a2_0041"  >
<polygon points="739,85 744,80 750,80 750,90 744,90 739,85 " style="fill:white; stroke-width:1; stroke:black; " description="&lt;b&gt;GOQ09_RS19210&lt;/b&gt;&lt;br&gt;SPOR domain-containing protein&lt;br&gt;Location: 4129655 - 4130542" locus_tag="GOQ09_RS19210" class="clusterblast-orf" id="dummy-2_h2_5_41"  />
</g>
<g id="a2_0042"  >
<polygon points="751,85 756,80 767,80 767,90 756,90 751,85 " style="fill:white; stroke-width:1; stroke:black; " description="&lt;b&gt;GOQ09_RS19215&lt;/b&gt;&lt;br&gt;bifunctional tetrahydrofolate synthase/dihydrofolate synthase&lt;br&gt;Location: 4130604 - 4131911" locus_tag="GOQ09_RS19215" class="clusterblast-orf" id="dummy-2_h2_5_42"  />
</g>
<g id="a2_0043"  >
<polygon points="767,90 767,90 772,85 767,80 767,80 767,90 " style="fill:white; stroke-width:1; stroke:black; " description="&lt;b&gt;GOQ09_RS19220&lt;/b&gt;&lt;br&gt;ArsC family reductase&lt;br&gt;Location: 4131969 - 4132328" locus_tag="GOQ09_RS19220" class="clusterblast-orf" id="dummy-2_h2_5_43"  />
</g>
<g id="a2_0044"  >
<polygon points="772,90 775,90 780,85 775,80 772,80 772,90 " style="fill:white; stroke-width:1; stroke:black; " description="&lt;b&gt;GOQ09_RS19225&lt;/b&gt;&lt;br&gt;hypothetical protein&lt;br&gt;Location: 4132387 - 4132977" locus_tag="GOQ09_RS19225" class="clusterblast-orf" id="dummy-2_h2_5_44"  />
</g>
</svg>
