<svg xmlns="http://www.w3.org/2000/svg" xmlns:xlink="http://www.w3.org/1999/xlink" version="1.1" x="0" y="0" height="230" width="800" viewBox="0 0 800 230" preserveAspectRatio="none"  >
<g label="Query sequence" class="clusterblast-cluster"  >
<text x="5" y="20" class="clusterblast-acc"  >
Query sequence</text>
<line x1="10" y1="35" x2="778.0" y2="35" style="stroke-width:1; stroke:grey; "  />
<polygon points="0,40 45,40 50,35 45,30 0,30 0,40 " style="fill:white; stroke-width:1; stroke:black; " description="&lt;b&gt;CopciAB_467191.T0&lt;/b&gt;&lt;br&gt;CopciAB 467191.T0&lt;br&gt;Location: 865635 - 867502" locus_tag="CopciAB_467191.T0" class="clusterblast-orf" id="dummy-1_q0_0_all"  />
<polygon points="53,35 58,30 115,30 115,40 58,40 53,35 " style="fill:white; stroke-width:1; stroke:black; " description="&lt;b&gt;CopciAB_141512.T0&lt;/b&gt;&lt;br&gt;CopciAB 141512.T0&lt;br&gt;Location: 867640 - 869935" locus_tag="CopciAB_141512.T0" class="clusterblast-orf" id="dummy-1_q1_0_all"  />
<polygon points="127,35 132,30 154,30 154,40 132,40 127,35 " style="fill:white; stroke-width:1; stroke:black; " description="&lt;b&gt;CopciAB_519084.T0&lt;/b&gt;&lt;br&gt;CopciAB 519084.T0&lt;br&gt;Location: 870387 - 871382" locus_tag="CopciAB_519084.T0" class="clusterblast-orf" id="dummy-1_q2_0_all"  />
<polygon points="180,35 185,30 212,30 212,40 185,40 180,35 " style="fill:white; stroke-width:1; stroke:black; " description="&lt;b&gt;CopciAB_495707.T0&lt;/b&gt;&lt;br&gt;CopciAB 495707.T0&lt;br&gt;Location: 872353 - 873585" locus_tag="CopciAB_495707.T0" class="clusterblast-orf" id="dummy-1_q3_0_all"  />
<polygon points="217,35 221,30 221,40 217,35 " style="fill:white; stroke-width:1; stroke:black; " description="&lt;b&gt;CopciAB_10026296.T1&lt;/b&gt;&lt;br&gt;CopciAB 10026296.T1&lt;br&gt;Location: 873746 - 873902" locus_tag="CopciAB_10026296.T1" class="clusterblast-orf" id="dummy-1_q4_0_all"  />
<polygon points="217,35 222,30 223,30 223,40 222,40 217,35 " style="fill:white; stroke-width:1; stroke:black; " description="&lt;b&gt;CopciAB_10026296.T0&lt;/b&gt;&lt;br&gt;CopciAB 10026296.T0&lt;br&gt;Location: 873746 - 873963" locus_tag="CopciAB_10026296.T0" class="clusterblast-orf" id="dummy-1_q5_0_all"  />
<polygon points="231,40 289,40 294,35 289,30 231,30 231,40 " style="fill:white; stroke-width:1; stroke:black; " description="&lt;b&gt;CopciAB_467195.T0&lt;/b&gt;&lt;br&gt;CopciAB 467195.T0&lt;br&gt;Location: 874282 - 876644" locus_tag="CopciAB_467195.T0" class="clusterblast-orf" id="dummy-1_q6_0_all"  />
<polygon points="317,40 344,40 349,35 344,30 317,30 317,40 " style="fill:white; stroke-width:1; stroke:black; " description="&lt;b&gt;CopciAB_141635.T0&lt;/b&gt;&lt;br&gt;CopciAB 141635.T0&lt;br&gt;Location: 877502 - 878702" locus_tag="CopciAB_141635.T0" class="clusterblast-orf" id="dummy-1_q7_0_all"  />
<polygon points="382,35 387,30 418,30 418,40 387,40 382,35 " style="fill:#d81515; stroke-width:1; stroke:black; " description="&lt;b&gt;CopciAB_443805.T0&lt;/b&gt;&lt;br&gt;CopciAB 443805.T0&lt;br&gt;Location: 879908 - 881256" locus_tag="CopciAB_443805.T0" class="clusterblast-orf" id="dummy-1_q8_0_all"  />
<polygon points="465,40 505,40 510,35 505,30 465,30 465,40 " style="fill:#15d863; stroke-width:1; stroke:black; " description="&lt;b&gt;CopciAB_141731.T0&lt;/b&gt;&lt;br&gt;CopciAB 141731.T0&lt;br&gt;Location: 883042 - 884722" locus_tag="CopciAB_141731.T0" class="clusterblast-orf" id="dummy-1_q9_0_all"  />
<polygon points="532,35 537,30 588,30 588,40 537,40 532,35 " style="fill:#1563d8; stroke-width:1; stroke:black; " description="&lt;b&gt;CopciAB_141718.T0&lt;/b&gt;&lt;br&gt;CopciAB 141718.T0&lt;br&gt;Location: 885536 - 887627" locus_tag="CopciAB_141718.T0" class="clusterblast-orf" id="dummy-1_q10_0_all"  />
<polygon points="597,35 602,30 606,30 606,40 602,40 597,35 " style="fill:white; stroke-width:1; stroke:black; " description="&lt;b&gt;CopciAB_1000642.T0&lt;/b&gt;&lt;br&gt;CopciAB 1000642.T0&lt;br&gt;Location: 887943 - 888276" locus_tag="CopciAB_1000642.T0" class="clusterblast-orf" id="dummy-1_q11_0_all"  />
<polygon points="684,35 689,30 719,30 719,40 689,40 684,35 " style="fill:#b115d8; stroke-width:1; stroke:black; " description="&lt;b&gt;CopciAB_362485.T0&lt;/b&gt;&lt;br&gt;CopciAB 362485.T0&lt;br&gt;Location: 891220 - 892508" locus_tag="CopciAB_362485.T0" class="clusterblast-orf" id="dummy-1_q12_0_all"  />
<polygon points="724,40 775,40 780,35 775,30 724,30 724,40 " style="fill:#b1d815; stroke-width:1; stroke:black; " description="&lt;b&gt;CopciAB_519105.T0&lt;/b&gt;&lt;br&gt;CopciAB 519105.T0&lt;br&gt;Location: 892712 - 894789" locus_tag="CopciAB_519105.T0" class="clusterblast-orf" id="dummy-1_q13_0_all"  />
</g>
<g label="NW_006267366" description="NW_006267366 (431975-449993): Agaricus bisporus var. bisporus H97 unplaced ge... (71% of genes show similarity), terpene" class="clusterblast-cluster"  >
<text x="5" y="70" class="clusterblast-acc"  >
<a xlink:href="https://antismash-db.secondarymetabolites.org/area.html?record=NW_006267366&amp;start=431975&amp;end=449993" target="_blank">NW_006267366 (431975-449993)</a>: Agaricus bisporus var. bisporus H97 unplaced ge... (71% of genes show similarity), terpene</text>
<line x1="10" y1="85" x2="778.0" y2="85" style="stroke-width:1; stroke:grey; "  />
</g>
<g id="a1_000"  >
<polygon points="148,90 191,90 196,85 191,80 148,80 148,90 " style="fill:white; stroke-width:1; stroke:black; " description="&lt;b&gt;AGABI2DRAFT_191073&lt;/b&gt;&lt;br&gt;hypothetical protein&lt;br&gt;Location: 431976 - 433743" locus_tag="AGABI2DRAFT_191073" class="clusterblast-orf" id="dummy-1_h1_1_0"  />
</g>
<g id="a1_001"  >
<polygon points="205,85 210,80 260,80 260,90 210,90 205,85 " style="fill:#b1d815; stroke-width:1; stroke:black; " description="&lt;b&gt;AGABI2DRAFT_191077&lt;/b&gt;&lt;br&gt;hypothetical protein&lt;br&gt;Location: 434072 - 436127&lt;br&gt;&lt;br&gt;&lt;b&gt;BlastP hit with CopciAB_519105.T0&lt;/b&gt;&lt;br&gt;Percentage identity: 73&lt;br&gt;Percentage coverage: 99&lt;br&gt;BLAST bit score: 673&lt;br&gt;E-value: 1.71e-241" locus_tag="AGABI2DRAFT_191077" class="clusterblast-orf" id="dummy-1_h1_1_1"  />
</g>
<g id="a1_002"  >
<polygon points="279,90 292,90 297,85 292,80 279,80 279,90 " style="fill:#b115d8; stroke-width:1; stroke:black; " description="&lt;b&gt;AGABI2DRAFT_66741&lt;/b&gt;&lt;br&gt;hypothetical protein&lt;br&gt;Location: 436861 - 437529&lt;br&gt;&lt;br&gt;&lt;b&gt;BlastP hit with CopciAB_362485.T0&lt;/b&gt;&lt;br&gt;Percentage identity: 80&lt;br&gt;Percentage coverage: 38&lt;br&gt;BLAST bit score: 147&lt;br&gt;E-value: 4.16e-43" locus_tag="AGABI2DRAFT_66741" class="clusterblast-orf" id="dummy-1_h1_1_2"  />
</g>
<g id="a1_003"  >
<polygon points="365,85 370,80 398,80 398,90 370,90 365,85 " style="fill:#d81515; stroke-width:1; stroke:black; " description="&lt;b&gt;AGABI2DRAFT_183802&lt;/b&gt;&lt;br&gt;hypothetical protein&lt;br&gt;Location: 440073 - 441313&lt;br&gt;&lt;br&gt;&lt;b&gt;BlastP hit with CopciAB_443805.T0&lt;/b&gt;&lt;br&gt;Percentage identity: 60&lt;br&gt;Percentage coverage: 86&lt;br&gt;BLAST bit score: 419&lt;br&gt;E-value: 7.28e-145" locus_tag="AGABI2DRAFT_183802" class="clusterblast-orf" id="dummy-1_h1_1_3"  />
</g>
<g id="a1_004"  >
<polygon points="413,90 462,90 467,85 462,80 413,80 413,90 " style="fill:#15d863; stroke-width:1; stroke:black; " description="&lt;b&gt;AGABI2DRAFT_115952&lt;/b&gt;&lt;br&gt;hypothetical protein&lt;br&gt;Location: 441857 - 443871&lt;br&gt;&lt;br&gt;&lt;b&gt;BlastP hit with CopciAB_141731.T0&lt;/b&gt;&lt;br&gt;Percentage identity: 31&lt;br&gt;Percentage coverage: 113&lt;br&gt;BLAST bit score: 196&lt;br&gt;E-value: 3.81e-53" locus_tag="AGABI2DRAFT_115952" class="clusterblast-orf" id="dummy-1_h1_1_4"  />
</g>
<g id="a1_005"  >
<polygon points="483,85 488,80 550,80 550,90 488,90 483,85 " style="fill:#1563d8; stroke-width:1; stroke:black; " description="&lt;b&gt;AGABI2DRAFT_191081&lt;/b&gt;&lt;br&gt;hypothetical protein&lt;br&gt;Location: 444463 - 446991&lt;br&gt;&lt;br&gt;&lt;b&gt;BlastP hit with CopciAB_141718.T0&lt;/b&gt;&lt;br&gt;Percentage identity: 68&lt;br&gt;Percentage coverage: 55&lt;br&gt;BLAST bit score: 521&lt;br&gt;E-value: 2.94e-178" locus_tag="AGABI2DRAFT_191081" class="clusterblast-orf" id="dummy-1_h1_1_5"  />
</g>
<g id="a1_006"  >
<polygon points="607,85 612,80 631,80 631,90 612,90 607,85 " style="fill:white; stroke-width:1; stroke:black; " description="&lt;b&gt;AGABI2DRAFT_200889&lt;/b&gt;&lt;br&gt;hypothetical protein&lt;br&gt;Location: 449123 - 449993" locus_tag="AGABI2DRAFT_200889" class="clusterblast-orf" id="dummy-1_h1_1_6"  />
</g>
</svg>
