<svg xmlns="http://www.w3.org/2000/svg" xmlns:xlink="http://www.w3.org/1999/xlink" version="1.1" x="0" y="0" height="230" width="800" viewBox="0 0 800 230" preserveAspectRatio="none"  >
<g label="Query sequence" class="clusterblast-cluster"  >
<text x="5" y="20" class="clusterblast-acc"  >
Query sequence</text>
<line x1="10" y1="35" x2="778.0" y2="35" style="stroke-width:1; stroke:grey; "  />
<polygon points="0,35 5,30 10,30 10,40 5,40 0,35 " style="fill:white; stroke-width:1; stroke:black; " description="&lt;b&gt;CopciAB_427632.T0&lt;/b&gt;&lt;br&gt;CopciAB 427632.T0&lt;br&gt;Location: 413760 - 414914" locus_tag="CopciAB_427632.T0" class="clusterblast-orf" id="dummy-2_q0_0_all"  />
<polygon points="12,35 17,30 20,30 20,40 17,40 12,35 " style="fill:white; stroke-width:1; stroke:black; " description="&lt;b&gt;CopciAB_438000.T0&lt;/b&gt;&lt;br&gt;CopciAB 438000.T0&lt;br&gt;Location: 415226 - 416108" locus_tag="CopciAB_438000.T0" class="clusterblast-orf" id="dummy-2_q1_0_all"  />
<polygon points="24,40 26,40 31,35 26,30 24,30 24,40 " style="fill:white; stroke-width:1; stroke:black; " description="&lt;b&gt;CopciAB_452018.T0&lt;/b&gt;&lt;br&gt;CopciAB 452018.T0&lt;br&gt;Location: 416577 - 417433" locus_tag="CopciAB_452018.T0" class="clusterblast-orf" id="dummy-2_q2_0_all"  />
<polygon points="50,40 53,40 58,35 53,30 50,30 50,40 " style="fill:white; stroke-width:1; stroke:black; " description="&lt;b&gt;CopciAB_27441.T0&lt;/b&gt;&lt;br&gt;CopciAB 27441.T0&lt;br&gt;Location: 419558 - 420503" locus_tag="CopciAB_27441.T0" class="clusterblast-orf" id="dummy-2_q3_0_all"  />
<polygon points="64,40 83,40 88,35 83,30 64,30 64,40 " style="fill:#d81515; stroke-width:1; stroke:black; " description="&lt;b&gt;CopciAB_499440.T0&lt;/b&gt;&lt;br&gt;CopciAB 499440.T0&lt;br&gt;Location: 421185 - 423994" locus_tag="CopciAB_499440.T0" class="clusterblast-orf" id="dummy-2_q4_0_all"  />
<polygon points="100,40 114,40 119,35 114,30 100,30 100,40 " style="fill:#15d863; stroke-width:1; stroke:black; " description="&lt;b&gt;CopciAB_372150.T0&lt;/b&gt;&lt;br&gt;CopciAB 372150.T0&lt;br&gt;Location: 425401 - 427558" locus_tag="CopciAB_372150.T0" class="clusterblast-orf" id="dummy-2_q5_0_all"  />
<polygon points="120,35 125,30 133,30 133,40 125,40 120,35 " style="fill:#1563d8; stroke-width:1; stroke:black; " description="&lt;b&gt;CopciAB_427648.T0&lt;/b&gt;&lt;br&gt;CopciAB 427648.T0&lt;br&gt;Location: 427744 - 429244" locus_tag="CopciAB_427648.T0" class="clusterblast-orf" id="dummy-2_q6_0_all"  />
<polygon points="141,40 141,40 146,35 141,30 141,30 141,40 " style="fill:white; stroke-width:1; stroke:black; " description="&lt;b&gt;CopciAB_507379.T0&lt;/b&gt;&lt;br&gt;CopciAB 507379.T0&lt;br&gt;Location: 430122 - 430738" locus_tag="CopciAB_507379.T0" class="clusterblast-orf" id="dummy-2_q7_0_all"  />
<polygon points="155,40 157,35 155,30 155,40 " style="fill:white; stroke-width:1; stroke:black; " description="&lt;b&gt;CopciAB_372112.T0&lt;/b&gt;&lt;br&gt;CopciAB 372112.T0&lt;br&gt;Location: 431791 - 431987" locus_tag="CopciAB_372112.T0" class="clusterblast-orf" id="dummy-2_q8_0_all"  />
<polygon points="158,35 163,30 172,30 172,40 163,40 158,35 " style="fill:white; stroke-width:1; stroke:black; " description="&lt;b&gt;CopciAB_372121.T0&lt;/b&gt;&lt;br&gt;CopciAB 372121.T0&lt;br&gt;Location: 432136 - 433786" locus_tag="CopciAB_372121.T0" class="clusterblast-orf" id="dummy-2_q9_0_all"  />
<polygon points="181,35 186,30 201,30 201,40 186,40 181,35 " style="fill:white; stroke-width:1; stroke:black; " description="&lt;b&gt;CopciAB_372110.T0&lt;/b&gt;&lt;br&gt;CopciAB 372110.T0&lt;br&gt;Location: 434810 - 437081" locus_tag="CopciAB_372110.T0" class="clusterblast-orf" id="dummy-2_q10_0_all"  />
<polygon points="221,40 223,35 221,30 221,40 " style="fill:white; stroke-width:1; stroke:black; " description="&lt;b&gt;CopciAB_1002472.T0&lt;/b&gt;&lt;br&gt;CopciAB 1002472.T0&lt;br&gt;Location: 439457 - 439700" locus_tag="CopciAB_1002472.T0" class="clusterblast-orf" id="dummy-2_q11_0_all"  />
<polygon points="240,40 247,40 252,35 247,30 240,30 240,40 " style="fill:white; stroke-width:1; stroke:black; " description="&lt;b&gt;CopciAB_543742.T0&lt;/b&gt;&lt;br&gt;CopciAB 543742.T0&lt;br&gt;Location: 441707 - 443028" locus_tag="CopciAB_543742.T0" class="clusterblast-orf" id="dummy-2_q12_0_all"  />
<polygon points="262,35 267,30 281,30 281,40 267,40 262,35 " style="fill:white; stroke-width:1; stroke:black; " description="&lt;b&gt;CopciAB_27642.T0&lt;/b&gt;&lt;br&gt;CopciAB 27642.T0&lt;br&gt;Location: 444225 - 446384" locus_tag="CopciAB_27642.T0" class="clusterblast-orf" id="dummy-2_q13_0_all"  />
<polygon points="288,40 290,35 288,30 288,40 " style="fill:white; stroke-width:1; stroke:black; " description="&lt;b&gt;CopciAB_462682.T0&lt;/b&gt;&lt;br&gt;CopciAB 462682.T0&lt;br&gt;Location: 447215 - 447510" locus_tag="CopciAB_462682.T0" class="clusterblast-orf" id="dummy-2_q14_0_all"  />
<polygon points="293,40 303,40 308,35 303,30 293,30 293,40 " style="fill:white; stroke-width:1; stroke:black; " description="&lt;b&gt;CopciAB_438017.T0&lt;/b&gt;&lt;br&gt;CopciAB 438017.T0&lt;br&gt;Location: 447822 - 449588" locus_tag="CopciAB_438017.T0" class="clusterblast-orf" id="dummy-2_q15_0_all"  />
<polygon points="316,35 321,30 335,30 335,40 321,40 316,35 " style="fill:#b115d8; stroke-width:1; stroke:black; " description="&lt;b&gt;CopciAB_462684.T0&lt;/b&gt;&lt;br&gt;CopciAB 462684.T0&lt;br&gt;Location: 450422 - 452641" locus_tag="CopciAB_462684.T0" class="clusterblast-orf" id="dummy-2_q16_0_all"  />
<polygon points="357,35 360,30 360,40 357,35 " style="fill:white; stroke-width:1; stroke:black; " description="&lt;b&gt;CopciAB_1002474.T0&lt;/b&gt;&lt;br&gt;CopciAB 1002474.T0&lt;br&gt;Location: 455271 - 455550" locus_tag="CopciAB_1002474.T0" class="clusterblast-orf" id="dummy-2_q17_0_all"  />
<polygon points="375,35 377,30 377,40 375,35 " style="fill:white; stroke-width:1; stroke:black; " description="&lt;b&gt;CopciAB_1002475.T0&lt;/b&gt;&lt;br&gt;CopciAB 1002475.T0&lt;br&gt;Location: 457353 - 457605" locus_tag="CopciAB_1002475.T0" class="clusterblast-orf" id="dummy-2_q18_0_all"  />
<polygon points="381,35 386,30 387,30 387,40 386,40 381,35 " style="fill:white; stroke-width:1; stroke:black; " description="&lt;b&gt;CopciAB_372143.T0&lt;/b&gt;&lt;br&gt;CopciAB 372143.T0&lt;br&gt;Location: 458034 - 458686" locus_tag="CopciAB_372143.T0" class="clusterblast-orf" id="dummy-2_q19_0_all"  />
<polygon points="392,40 396,40 401,35 396,30 392,30 392,40 " style="fill:white; stroke-width:1; stroke:black; " description="&lt;b&gt;CopciAB_499451.T0&lt;/b&gt;&lt;br&gt;CopciAB 499451.T0&lt;br&gt;Location: 459297 - 460310" locus_tag="CopciAB_499451.T0" class="clusterblast-orf" id="dummy-2_q20_0_all"  />
<polygon points="401,35 406,30 408,30 408,40 406,40 401,35 " style="fill:white; stroke-width:1; stroke:black; " description="&lt;b&gt;CopciAB_462689.T0&lt;/b&gt;&lt;br&gt;CopciAB 462689.T0&lt;br&gt;Location: 460335 - 461159" locus_tag="CopciAB_462689.T0" class="clusterblast-orf" id="dummy-2_q21_0_all"  />
<polygon points="417,40 419,35 417,30 417,40 " style="fill:white; stroke-width:1; stroke:black; " description="&lt;b&gt;CopciAB_1002476.T0&lt;/b&gt;&lt;br&gt;CopciAB 1002476.T0&lt;br&gt;Location: 462212 - 462474" locus_tag="CopciAB_1002476.T0" class="clusterblast-orf" id="dummy-2_q22_0_all"  />
<polygon points="424,40 431,40 436,35 431,30 424,30 424,40 " style="fill:white; stroke-width:1; stroke:black; " description="&lt;b&gt;CopciAB_27792.T0&lt;/b&gt;&lt;br&gt;CopciAB 27792.T0&lt;br&gt;Location: 463038 - 464422" locus_tag="CopciAB_27792.T0" class="clusterblast-orf" id="dummy-2_q23_0_all"  />
<polygon points="438,35 443,30 444,30 444,40 443,40 438,35 " style="fill:white; stroke-width:1; stroke:black; " description="&lt;b&gt;CopciAB_427679.T0&lt;/b&gt;&lt;br&gt;CopciAB 427679.T0&lt;br&gt;Location: 464670 - 465341" locus_tag="CopciAB_427679.T0" class="clusterblast-orf" id="dummy-2_q24_0_all"  />
<polygon points="455,40 459,40 464,35 459,30 455,30 455,40 " style="fill:white; stroke-width:1; stroke:black; " description="&lt;b&gt;CopciAB_372140.T0&lt;/b&gt;&lt;br&gt;CopciAB 372140.T0&lt;br&gt;Location: 466595 - 467636" locus_tag="CopciAB_372140.T0" class="clusterblast-orf" id="dummy-2_q25_0_all"  />
<polygon points="472,40 476,35 472,30 472,40 " style="fill:white; stroke-width:1; stroke:black; " description="&lt;b&gt;CopciAB_1002477.T0&lt;/b&gt;&lt;br&gt;CopciAB 1002477.T0&lt;br&gt;Location: 468600 - 469095" locus_tag="CopciAB_1002477.T0" class="clusterblast-orf" id="dummy-2_q26_0_all"  />
<polygon points="479,35 482,30 482,40 479,35 " style="fill:white; stroke-width:1; stroke:black; " description="&lt;b&gt;CopciAB_1002478.T0&lt;/b&gt;&lt;br&gt;CopciAB 1002478.T0&lt;br&gt;Location: 469329 - 469770" locus_tag="CopciAB_1002478.T0" class="clusterblast-orf" id="dummy-2_q27_0_all"  />
<polygon points="517,40 520,40 525,35 520,30 517,30 517,40 " style="fill:white; stroke-width:1; stroke:black; " description="&lt;b&gt;CopciAB_438039.T0&lt;/b&gt;&lt;br&gt;CopciAB 438039.T0&lt;br&gt;Location: 473742 - 474720" locus_tag="CopciAB_438039.T0" class="clusterblast-orf" id="dummy-2_q28_0_all"  />
<polygon points="533,35 536,30 536,40 533,35 " style="fill:white; stroke-width:1; stroke:black; " description="&lt;b&gt;CopciAB_352336.T0&lt;/b&gt;&lt;br&gt;CopciAB 352336.T0&lt;br&gt;Location: 475600 - 476021" locus_tag="CopciAB_352336.T0" class="clusterblast-orf" id="dummy-2_q29_0_all"  />
<polygon points="555,40 564,40 569,35 564,30 555,30 555,40 " style="fill:white; stroke-width:1; stroke:black; " description="&lt;b&gt;CopciAB_118644.T0&lt;/b&gt;&lt;br&gt;CopciAB 118644.T0&lt;br&gt;Location: 478160 - 479832" locus_tag="CopciAB_118644.T0" class="clusterblast-orf" id="dummy-2_q30_0_all"  />
<polygon points="590,40 603,40 608,35 603,30 590,30 590,40 " style="fill:#b1d815; stroke-width:1; stroke:black; " description="&lt;b&gt;CopciAB_466228.T0&lt;/b&gt;&lt;br&gt;CopciAB 466228.T0&lt;br&gt;Location: 482241 - 484311" locus_tag="CopciAB_466228.T0" class="clusterblast-orf" id="dummy-2_q31_0_all"  />
<polygon points="609,35 614,30 633,30 633,40 614,40 609,35 " style="fill:white; stroke-width:1; stroke:black; " description="&lt;b&gt;CopciAB_442580.T0&lt;/b&gt;&lt;br&gt;CopciAB 442580.T0&lt;br&gt;Location: 484517 - 487299" locus_tag="CopciAB_442580.T0" class="clusterblast-orf" id="dummy-2_q32_0_all"  />
<polygon points="643,40 646,40 651,35 646,30 643,30 643,40 " style="fill:white; stroke-width:1; stroke:black; " description="&lt;b&gt;CopciAB_490906.T0&lt;/b&gt;&lt;br&gt;CopciAB 490906.T0&lt;br&gt;Location: 488419 - 489289" locus_tag="CopciAB_490906.T0" class="clusterblast-orf" id="dummy-2_q33_0_all"  />
<polygon points="676,35 681,30 689,30 689,40 681,40 676,35 " style="fill:white; stroke-width:1; stroke:black; " description="&lt;b&gt;CopciAB_432515.T0&lt;/b&gt;&lt;br&gt;CopciAB 432515.T0&lt;br&gt;Location: 492228 - 493756" locus_tag="CopciAB_432515.T0" class="clusterblast-orf" id="dummy-2_q34_0_all"  />
<polygon points="725,40 729,40 734,35 729,30 725,30 725,40 " style="fill:white; stroke-width:1; stroke:black; " description="&lt;b&gt;CopciAB_490908.T0&lt;/b&gt;&lt;br&gt;CopciAB 490908.T0&lt;br&gt;Location: 497967 - 499010" locus_tag="CopciAB_490908.T0" class="clusterblast-orf" id="dummy-2_q35_0_all"  />
<polygon points="735,35 740,30 750,30 750,40 740,40 735,35 " style="fill:white; stroke-width:1; stroke:black; " description="&lt;b&gt;CopciAB_454987.T0&lt;/b&gt;&lt;br&gt;CopciAB 454987.T0&lt;br&gt;Location: 499117 - 500815" locus_tag="CopciAB_454987.T0" class="clusterblast-orf" id="dummy-2_q36_0_all"  />
<polygon points="757,40 761,40 766,35 761,30 757,30 757,40 " style="fill:white; stroke-width:1; stroke:black; " description="&lt;b&gt;CopciAB_482192.T0&lt;/b&gt;&lt;br&gt;CopciAB 482192.T0&lt;br&gt;Location: 501679 - 502723" locus_tag="CopciAB_482192.T0" class="clusterblast-orf" id="dummy-2_q37_0_all"  />
<polygon points="769,35 774,30 780,30 780,40 774,40 769,35 " style="fill:white; stroke-width:1; stroke:black; " description="&lt;b&gt;CopciAB_545686.T0&lt;/b&gt;&lt;br&gt;CopciAB 545686.T0&lt;br&gt;Location: 503032 - 504262" locus_tag="CopciAB_545686.T0" class="clusterblast-orf" id="dummy-2_q38_0_all"  />
</g>
<g label="NW_013550602" description="NW_013550602 (1954211-1997567): Rhinocladiella mackenziei CBS 650.93 unplaced... (12% of genes show similarity), NRPS-like" class="clusterblast-cluster"  >
<text x="5" y="70" class="clusterblast-acc"  >
<a xlink:href="https://antismash-db.secondarymetabolites.org/area.html?record=NW_013550602&amp;start=1954211&amp;end=1997567" target="_blank">NW_013550602 (1954211-1997567)</a>: Rhinocladiella mackenziei CBS 650.93 unplaced... (12% of genes show similarity), NRPS-like</text>
<line x1="10" y1="85" x2="778.0" y2="85" style="stroke-width:1; stroke:grey; "  />
</g>
<g id="a2_000"  >
<polygon points="212,85 217,80 226,80 226,90 217,90 212,85 " style="fill:white; stroke-width:1; stroke:black; " description="&lt;b&gt;Z518_04233&lt;/b&gt;&lt;br&gt;hypothetical protein&lt;br&gt;Location: 1955513 - 1957129" locus_tag="Z518_04233" class="clusterblast-orf" id="dummy-2_h2_3_0"  />
</g>
<g id="a2_001"  >
<polygon points="239,90 239,90 244,85 239,80 239,80 239,90 " style="fill:white; stroke-width:1; stroke:black; " description="&lt;b&gt;Z518_04234&lt;/b&gt;&lt;br&gt;hypothetical protein&lt;br&gt;Location: 1958692 - 1959194" locus_tag="Z518_04234" class="clusterblast-orf" id="dummy-2_h2_3_1"  />
</g>
<g id="a2_002"  >
<polygon points="247,85 252,80 253,80 253,90 252,90 247,85 " style="fill:white; stroke-width:1; stroke:black; " description="&lt;b&gt;Z518_04235&lt;/b&gt;&lt;br&gt;hypothetical protein&lt;br&gt;Location: 1959569 - 1960258" locus_tag="Z518_04235" class="clusterblast-orf" id="dummy-2_h2_3_2"  />
</g>
<g id="a2_003"  >
<polygon points="265,85 270,80 277,80 277,90 270,90 265,85 " style="fill:white; stroke-width:1; stroke:black; " description="&lt;b&gt;Z518_04236&lt;/b&gt;&lt;br&gt;hypothetical protein&lt;br&gt;Location: 1961713 - 1963029" locus_tag="Z518_04236" class="clusterblast-orf" id="dummy-2_h2_3_3"  />
</g>
<g id="a2_004"  >
<polygon points="285,85 290,80 294,80 294,90 290,90 285,85 " style="fill:white; stroke-width:1; stroke:black; " description="&lt;b&gt;Z518_04237&lt;/b&gt;&lt;br&gt;hypothetical protein&lt;br&gt;Location: 1963969 - 1965063" locus_tag="Z518_04237" class="clusterblast-orf" id="dummy-2_h2_3_4"  />
</g>
<g id="a2_005"  >
<polygon points="301,90 305,90 310,85 305,80 301,80 301,90 " style="fill:white; stroke-width:1; stroke:black; " description="&lt;b&gt;Z518_04238&lt;/b&gt;&lt;br&gt;hypothetical protein&lt;br&gt;Location: 1965890 - 1966857" locus_tag="Z518_04238" class="clusterblast-orf" id="dummy-2_h2_3_5"  />
</g>
<g id="a2_006"  >
<polygon points="310,85 315,80 326,80 326,90 315,90 310,85 " style="fill:#b115d8; stroke-width:1; stroke:black; " description="&lt;b&gt;Z518_04239&lt;/b&gt;&lt;br&gt;hypothetical protein&lt;br&gt;Location: 1966888 - 1968733&lt;br&gt;&lt;br&gt;&lt;b&gt;BlastP hit with CopciAB_462684.T0&lt;/b&gt;&lt;br&gt;Percentage identity: 32&lt;br&gt;Percentage coverage: 76&lt;br&gt;BLAST bit score: 193&lt;br&gt;E-value: 1.34e-52" locus_tag="Z518_04239" class="clusterblast-orf" id="dummy-2_h2_3_6"  />
</g>
<g id="a2_007"  >
<polygon points="330,90 345,90 350,85 345,80 330,80 330,90 " style="fill:white; stroke-width:1; stroke:black; " description="&lt;b&gt;Z518_04240&lt;/b&gt;&lt;br&gt;hypothetical protein&lt;br&gt;Location: 1969241 - 1971526" locus_tag="Z518_04240" class="clusterblast-orf" id="dummy-2_h2_3_7"  />
</g>
<g id="a2_008"  >
<polygon points="373,90 397,90 402,85 397,80 373,80 373,90 " style="fill:white; stroke-width:1; stroke:black; " description="&lt;b&gt;Z518_04241&lt;/b&gt;&lt;br&gt;hypothetical protein&lt;br&gt;Location: 1974212 - 1977567" locus_tag="Z518_04241" class="clusterblast-orf" id="dummy-2_h2_3_8"  />
</g>
<g id="a2_009"  >
<polygon points="402,85 407,80 413,80 413,90 407,90 402,85 " style="fill:white; stroke-width:1; stroke:black; " description="&lt;b&gt;Z518_04242&lt;/b&gt;&lt;br&gt;hypothetical protein&lt;br&gt;Location: 1977596 - 1978880" locus_tag="Z518_04242" class="clusterblast-orf" id="dummy-2_h2_3_9"  />
</g>
<g id="a2_0010"  >
<polygon points="421,90 431,90 436,85 431,80 421,80 421,90 " style="fill:#b1d815; stroke-width:1; stroke:black; " description="&lt;b&gt;Z518_04243&lt;/b&gt;&lt;br&gt;hypothetical protein&lt;br&gt;Location: 1979781 - 1981544&lt;br&gt;&lt;br&gt;&lt;b&gt;BlastP hit with CopciAB_466228.T0&lt;/b&gt;&lt;br&gt;Percentage identity: 33&lt;br&gt;Percentage coverage: 86&lt;br&gt;BLAST bit score: 240&lt;br&gt;E-value: 2.04e-71" locus_tag="Z518_04243" class="clusterblast-orf" id="dummy-2_h2_3_10"  />
</g>
<g id="a2_0011"  >
<polygon points="438,85 443,80 465,80 465,90 443,90 438,85 " style="fill:white; stroke-width:1; stroke:black; " description="&lt;b&gt;Z518_04244&lt;/b&gt;&lt;br&gt;hypothetical protein&lt;br&gt;Location: 1981726 - 1984856" locus_tag="Z518_04244" class="clusterblast-orf" id="dummy-2_h2_3_11"  />
</g>
<g id="a2_0012"  >
<polygon points="469,85 474,80 480,80 480,90 474,90 469,85 " style="fill:white; stroke-width:1; stroke:black; " description="&lt;b&gt;Z518_04245&lt;/b&gt;&lt;br&gt;hypothetical protein&lt;br&gt;Location: 1985307 - 1986637" locus_tag="Z518_04245" class="clusterblast-orf" id="dummy-2_h2_3_12"  />
</g>
<g id="a2_0013"  >
<polygon points="486,90 520,90 525,85 520,80 486,80 486,90 " style="fill:white; stroke-width:1; stroke:black; " description="&lt;b&gt;Z518_04246&lt;/b&gt;&lt;br&gt;xanthine dehydrogenase, molybdopterin binding subunit&lt;br&gt;Location: 1987266 - 1991875" locus_tag="Z518_04246" class="clusterblast-orf" id="dummy-2_h2_3_13"  />
</g>
<g id="a2_0014"  >
<polygon points="532,85 537,80 538,80 538,90 537,90 532,85 " style="fill:white; stroke-width:1; stroke:black; " description="&lt;b&gt;Z518_04247&lt;/b&gt;&lt;br&gt;hypothetical protein&lt;br&gt;Location: 1992680 - 1993300" locus_tag="Z518_04247" class="clusterblast-orf" id="dummy-2_h2_3_14"  />
</g>
<g id="a2_0015"  >
<polygon points="559,85 564,80 567,80 567,90 564,90 559,85 " style="fill:white; stroke-width:1; stroke:black; " description="&lt;b&gt;Z518_04248&lt;/b&gt;&lt;br&gt;hypothetical protein&lt;br&gt;Location: 1995824 - 1996689" locus_tag="Z518_04248" class="clusterblast-orf" id="dummy-2_h2_3_15"  />
</g>
</svg>
