<svg xmlns="http://www.w3.org/2000/svg" xmlns:xlink="http://www.w3.org/1999/xlink" version="1.1" x="0" y="0" height="230" width="800" viewBox="0 0 800 230" preserveAspectRatio="none"  >
<g label="Query sequence" class="clusterblast-cluster"  >
<text x="5" y="20" class="clusterblast-acc"  >
Query sequence</text>
<line x1="10" y1="35" x2="778.0" y2="35" style="stroke-width:1; stroke:grey; "  />
<polygon points="0,35 5,30 44,30 44,40 5,40 0,35 " style="fill:white; stroke-width:1; stroke:black; " description="&lt;b&gt;CopciAB_454031.T0&lt;/b&gt;&lt;br&gt;CopciAB 454031.T0&lt;br&gt;Location: 950617 - 954232" locus_tag="CopciAB_454031.T0" class="clusterblast-orf" id="dummy-3_q0_0_all"  />
<polygon points="66,40 71,40 76,35 71,30 66,30 66,40 " style="fill:white; stroke-width:1; stroke:black; " description="&lt;b&gt;CopciAB_391177.T0&lt;/b&gt;&lt;br&gt;CopciAB 391177.T0&lt;br&gt;Location: 956110 - 956875" locus_tag="CopciAB_391177.T0" class="clusterblast-orf" id="dummy-3_q1_0_all"  />
<polygon points="79,35 84,30 91,30 91,40 84,40 79,35 " style="fill:white; stroke-width:1; stroke:black; " description="&lt;b&gt;CopciAB_495078.T0&lt;/b&gt;&lt;br&gt;CopciAB 495078.T0&lt;br&gt;Location: 957103 - 958109" locus_tag="CopciAB_495078.T0" class="clusterblast-orf" id="dummy-3_q2_0_all"  />
<polygon points="94,35 99,30 110,30 110,40 99,40 94,35 " style="fill:white; stroke-width:1; stroke:black; " description="&lt;b&gt;CopciAB_441179.T0&lt;/b&gt;&lt;br&gt;CopciAB 441179.T0&lt;br&gt;Location: 958412 - 959728" locus_tag="CopciAB_441179.T0" class="clusterblast-orf" id="dummy-3_q3_0_all"  />
<polygon points="120,35 125,30 129,30 129,40 125,40 120,35 " style="fill:white; stroke-width:1; stroke:black; " description="&lt;b&gt;CopciAB_441181.T0&lt;/b&gt;&lt;br&gt;CopciAB 441181.T0&lt;br&gt;Location: 960502 - 961247" locus_tag="CopciAB_441181.T0" class="clusterblast-orf" id="dummy-3_q4_0_all"  />
<polygon points="141,40 167,40 172,35 167,30 141,30 141,40 " style="fill:#d81515; stroke-width:1; stroke:black; " description="&lt;b&gt;CopciAB_417341.T0&lt;/b&gt;&lt;br&gt;CopciAB 417341.T0&lt;br&gt;Location: 962262 - 964748" locus_tag="CopciAB_417341.T0" class="clusterblast-orf" id="dummy-3_q5_0_all"  />
<polygon points="177,40 185,40 190,35 185,30 177,30 177,40 " style="fill:#4dd815; stroke-width:1; stroke:black; " description="&lt;b&gt;CopciAB_360850.T0&lt;/b&gt;&lt;br&gt;CopciAB 360850.T0&lt;br&gt;Location: 965222 - 966252" locus_tag="CopciAB_360850.T0" class="clusterblast-orf" id="dummy-3_q6_0_all"  />
<polygon points="200,35 205,30 210,30 210,40 205,40 200,35 " style="fill:white; stroke-width:1; stroke:black; " description="&lt;b&gt;CopciAB_90622.T0&lt;/b&gt;&lt;br&gt;CopciAB 90622.T0&lt;br&gt;Location: 967097 - 967880" locus_tag="CopciAB_90622.T0" class="clusterblast-orf" id="dummy-3_q7_0_all"  />
<polygon points="221,35 226,30 277,30 277,40 226,40 221,35 " style="fill:#1585d8; stroke-width:1; stroke:black; " description="&lt;b&gt;CopciAB_360799.T0&lt;/b&gt;&lt;br&gt;CopciAB 360799.T0&lt;br&gt;Location: 968800 - 973450" locus_tag="CopciAB_360799.T0" class="clusterblast-orf" id="dummy-3_q8_0_all"  />
<polygon points="309,35 314,30 314,30 314,40 314,40 309,35 " style="fill:white; stroke-width:1; stroke:black; " description="&lt;b&gt;CopciAB_1002526.T0&lt;/b&gt;&lt;br&gt;CopciAB 1002526.T0&lt;br&gt;Location: 976072 - 976500" locus_tag="CopciAB_1002526.T0" class="clusterblast-orf" id="dummy-3_q9_0_all"  />
<polygon points="317,40 320,40 325,35 320,30 317,30 317,40 " style="fill:#1585d8; stroke-width:1; stroke:black; " description="&lt;b&gt;CopciAB_441187.T0&lt;/b&gt;&lt;br&gt;CopciAB 441187.T0&lt;br&gt;Location: 976689 - 977368" locus_tag="CopciAB_441187.T0" class="clusterblast-orf" id="dummy-3_q10_0_all"  />
<polygon points="332,40 350,40 355,35 350,30 332,30 332,40 " style="fill:#d815bc; stroke-width:1; stroke:black; " description="&lt;b&gt;CopciAB_90822.T0&lt;/b&gt;&lt;br&gt;CopciAB 90822.T0&lt;br&gt;Location: 977916 - 979803" locus_tag="CopciAB_90822.T0" class="clusterblast-orf" id="dummy-3_q11_0_all"  />
<polygon points="360,35 365,30 418,30 418,40 365,40 360,35 " style="fill:#d8bc15; stroke-width:1; stroke:black; " description="&lt;b&gt;CopciAB_417352.T0&lt;/b&gt;&lt;br&gt;CopciAB 417352.T0&lt;br&gt;Location: 980254 - 984983" locus_tag="CopciAB_417352.T0" class="clusterblast-orf" id="dummy-3_q12_0_all"  />
<polygon points="421,35 426,30 459,30 459,40 426,40 421,35 " style="fill:white; stroke-width:1; stroke:black; " description="&lt;b&gt;CopciAB_454041.T0&lt;/b&gt;&lt;br&gt;CopciAB 454041.T0&lt;br&gt;Location: 985245 - 988386" locus_tag="CopciAB_454041.T0" class="clusterblast-orf" id="dummy-3_q13_0_all"  />
<polygon points="461,40 515,40 520,35 515,30 461,30 461,40 " style="fill:white; stroke-width:1; stroke:black; " description="&lt;b&gt;CopciAB_441190.T0&lt;/b&gt;&lt;br&gt;CopciAB 441190.T0&lt;br&gt;Location: 988541 - 993401" locus_tag="CopciAB_441190.T0" class="clusterblast-orf" id="dummy-3_q14_0_all"  />
<polygon points="527,40 529,40 534,35 529,30 527,30 527,40 " style="fill:white; stroke-width:1; stroke:black; " description="&lt;b&gt;CopciAB_417357.T0&lt;/b&gt;&lt;br&gt;CopciAB 417357.T0&lt;br&gt;Location: 993991 - 994567" locus_tag="CopciAB_417357.T0" class="clusterblast-orf" id="dummy-3_q15_0_all"  />
<polygon points="551,35 556,30 577,30 577,40 556,40 551,35 " style="fill:#15d885; stroke-width:1; stroke:black; " description="&lt;b&gt;CopciAB_90959.T0&lt;/b&gt;&lt;br&gt;CopciAB 90959.T0&lt;br&gt;Location: 995905 - 998090" locus_tag="CopciAB_90959.T0" class="clusterblast-orf" id="dummy-3_q16_0_all"  />
<polygon points="585,35 590,30 593,30 593,40 590,40 585,35 " style="fill:white; stroke-width:1; stroke:black; " description="&lt;b&gt;CopciAB_1002528.T0&lt;/b&gt;&lt;br&gt;CopciAB 1002528.T0&lt;br&gt;Location: 998761 - 999424" locus_tag="CopciAB_1002528.T0" class="clusterblast-orf" id="dummy-3_q17_0_all"  />
<polygon points="601,35 606,30 617,30 617,40 606,40 601,35 " style="fill:white; stroke-width:1; stroke:black; " description="&lt;b&gt;CopciAB_465124.T0&lt;/b&gt;&lt;br&gt;CopciAB 465124.T0&lt;br&gt;Location: 1000061 - 1001390" locus_tag="CopciAB_465124.T0" class="clusterblast-orf" id="dummy-3_q18_0_all"  />
<polygon points="620,40 624,40 629,35 624,30 620,30 620,40 " style="fill:white; stroke-width:1; stroke:black; " description="&lt;b&gt;CopciAB_90982.T0&lt;/b&gt;&lt;br&gt;CopciAB 90982.T0&lt;br&gt;Location: 1001584 - 1002367" locus_tag="CopciAB_90982.T0" class="clusterblast-orf" id="dummy-3_q19_0_all"  />
<polygon points="643,40 659,40 664,35 659,30 643,30 643,40 " style="fill:white; stroke-width:1; stroke:black; " description="&lt;b&gt;CopciAB_90984.T0&lt;/b&gt;&lt;br&gt;CopciAB 90984.T0&lt;br&gt;Location: 1003469 - 1005259" locus_tag="CopciAB_90984.T0" class="clusterblast-orf" id="dummy-3_q20_0_all"  />
<polygon points="669,40 682,40 687,35 682,30 669,30 669,40 " style="fill:white; stroke-width:1; stroke:black; " description="&lt;b&gt;CopciAB_90979.T0&lt;/b&gt;&lt;br&gt;CopciAB 90979.T0&lt;br&gt;Location: 1005646 - 1007108" locus_tag="CopciAB_90979.T0" class="clusterblast-orf" id="dummy-3_q21_0_all"  />
<polygon points="692,40 706,40 711,35 706,30 692,30 692,40 " style="fill:#4d15d8; stroke-width:1; stroke:black; " description="&lt;b&gt;CopciAB_476094.T0&lt;/b&gt;&lt;br&gt;CopciAB 476094.T0&lt;br&gt;Location: 1007537 - 1009136" locus_tag="CopciAB_476094.T0" class="clusterblast-orf" id="dummy-3_q22_0_all"  />
<polygon points="715,35 720,30 761,30 761,40 720,40 715,35 " style="fill:white; stroke-width:1; stroke:black; " description="&lt;b&gt;CopciAB_91028.T0&lt;/b&gt;&lt;br&gt;CopciAB 91028.T0&lt;br&gt;Location: 1009428 - 1013227" locus_tag="CopciAB_91028.T0" class="clusterblast-orf" id="dummy-3_q23_0_all"  />
<polygon points="769,40 775,40 780,35 775,30 769,30 769,40 " style="fill:white; stroke-width:1; stroke:black; " description="&lt;b&gt;CopciAB_441197.T0&lt;/b&gt;&lt;br&gt;CopciAB 441197.T0&lt;br&gt;Location: 1013862 - 1014739" locus_tag="CopciAB_441197.T0" class="clusterblast-orf" id="dummy-3_q24_0_all"  />
</g>
<g label="NC_003424" description="NC_003424 (3719161-3763421): Schizosaccharomyces pombe chromosome I, complete... (14% of genes show similarity), NRPS-like" class="clusterblast-cluster"  >
<text x="5" y="70" class="clusterblast-acc"  >
<a xlink:href="https://antismash-db.secondarymetabolites.org/area.html?record=NC_003424&amp;start=3719161&amp;end=3763421" target="_blank">NC_003424 (3719161-3763421)</a>: Schizosaccharomyces pombe chromosome I, complete... (14% of genes show similarity), NRPS-like</text>
<line x1="10" y1="85" x2="778.0" y2="85" style="stroke-width:1; stroke:grey; "  />
</g>
<g id="a3_000"  >
<polygon points="206,85 211,80 212,80 212,90 211,90 206,85 " style="fill:white; stroke-width:1; stroke:black; " description="&lt;b&gt;SPAC15E1.02c&lt;/b&gt;&lt;br&gt;uncharacterized protein&lt;br&gt;Location: 3721310 - 3721756" locus_tag="SPAC15E1.02c" class="clusterblast-orf" id="dummy-3_h3_5_0"  />
</g>
<g id="a3_001"  >
<polygon points="221,90 222,90 227,85 222,80 221,80 221,90 " style="fill:#1585d8; stroke-width:1; stroke:black; " description="&lt;b&gt;SPAC15E1.03&lt;/b&gt;&lt;br&gt;60S ribosomal protein L42&lt;br&gt;Location: 3722509 - 3723019&lt;br&gt;&lt;br&gt;&lt;b&gt;BlastP hit with CopciAB_441187.T0&lt;/b&gt;&lt;br&gt;Percentage identity: 83&lt;br&gt;Percentage coverage: 100&lt;br&gt;BLAST bit score: 181&lt;br&gt;E-value: 7.91e-59" locus_tag="SPAC15E1.03" class="clusterblast-orf" id="dummy-3_h3_5_1"  />
</g>
<g id="a3_002"  >
<polygon points="237,90 255,90 260,85 255,80 237,80 237,90 " style="fill:white; stroke-width:1; stroke:black; " description="&lt;b&gt;SPAC15E1.04&lt;/b&gt;&lt;br&gt;putative thymidylate synthase&lt;br&gt;Location: 3723833 - 3725710" locus_tag="SPAC15E1.04" class="clusterblast-orf" id="dummy-3_h3_5_2"  />
</g>
<g id="a3_003"  >
<polygon points="262,85 267,80 276,80 276,90 267,90 262,85 " style="fill:white; stroke-width:1; stroke:black; " description="&lt;b&gt;SPAC15E1.05c&lt;/b&gt;&lt;br&gt;putative ethanolamine-phosphate cytidylyltransferase&lt;br&gt;Location: 3725922 - 3727074" locus_tag="SPAC15E1.05c" class="clusterblast-orf" id="dummy-3_h3_5_3"  />
</g>
<g id="a3_004"  >
<polygon points="281,90 284,90 289,85 284,80 281,80 281,90 " style="fill:white; stroke-width:1; stroke:black; " description="&lt;b&gt;SPAC15E1.06&lt;/b&gt;&lt;br&gt;retromer complex subunit Vps29&lt;br&gt;Location: 3727463 - 3728104" locus_tag="SPAC15E1.06" class="clusterblast-orf" id="dummy-3_h3_5_4"  />
</g>
<g id="a3_005"  >
<polygon points="294,85 299,80 300,80 300,90 299,90 294,85 " style="fill:white; stroke-width:1; stroke:black; " description="&lt;b&gt;SPAC15E1.07c&lt;/b&gt;&lt;br&gt;protein Moa1&lt;br&gt;Location: 3728516 - 3729034" locus_tag="SPAC15E1.07c" class="clusterblast-orf" id="dummy-3_h3_5_5"  />
</g>
<g id="a3_006"  >
<polygon points="310,90 319,90 324,85 319,80 310,80 310,90 " style="fill:white; stroke-width:1; stroke:black; " description="&lt;b&gt;SPAC15E1.08&lt;/b&gt;&lt;br&gt;putative NatA N-acetyltransferase complex catalytic subunit Naa10&lt;br&gt;Location: 3729807 - 3730991" locus_tag="SPAC15E1.08" class="clusterblast-orf" id="dummy-3_h3_5_6"  />
</g>
<g id="a3_007"  >
<polygon points="327,90 331,90 336,85 331,80 327,80 327,90 " style="fill:white; stroke-width:1; stroke:black; " description="&lt;b&gt;SPAC15E1.09&lt;/b&gt;&lt;br&gt;glutaredoxin Grx2&lt;br&gt;Location: 3731271 - 3731981" locus_tag="SPAC15E1.09" class="clusterblast-orf" id="dummy-3_h3_5_7"  />
</g>
<g id="a3_008"  >
<polygon points="342,90 346,90 351,85 346,80 342,80 342,90 " style="fill:white; stroke-width:1; stroke:black; " description="&lt;b&gt;SPAC15E1.10&lt;/b&gt;&lt;br&gt;putative PI31 proteasome inhibitor domain-containing protein&lt;br&gt;Location: 3732443 - 3733240" locus_tag="SPAC15E1.10" class="clusterblast-orf" id="dummy-3_h3_5_8"  />
</g>
<g id="a3_009"  >
<polygon points="357,85 362,80 380,80 380,90 362,90 357,85 " style="fill:white; stroke-width:1; stroke:black; " description="&lt;b&gt;SPAP7G5.02c&lt;/b&gt;&lt;br&gt;putative GMP synthase Gua2&lt;br&gt;Location: 3733737 - 3735599" locus_tag="SPAP7G5.02c" class="clusterblast-orf" id="dummy-3_h3_5_9"  />
</g>
<g id="a3_0010"  >
<polygon points="397,90 418,90 423,85 418,80 397,80 397,90 " style="fill:white; stroke-width:1; stroke:black; " description="&lt;b&gt;SPAP7G5.03&lt;/b&gt;&lt;br&gt;putative conjugation protein Prm1&lt;br&gt;Location: 3736955 - 3739106" locus_tag="SPAP7G5.03" class="clusterblast-orf" id="dummy-3_h3_5_10"  />
</g>
<g id="a3_0011"  >
<polygon points="423,85 428,80 475,80 475,90 428,90 423,85 " style="fill:#d8bc15; stroke-width:1; stroke:black; " description="&lt;b&gt;SPAP7G5.04c&lt;/b&gt;&lt;br&gt;aminoadipate-semialdehyde dehydrogenase&lt;br&gt;Location: 3739162 - 3743421&lt;br&gt;&lt;br&gt;&lt;b&gt;BlastP hit with CopciAB_417352.T0&lt;/b&gt;&lt;br&gt;Percentage identity: 48&lt;br&gt;Percentage coverage: 101&lt;br&gt;BLAST bit score: 1294&lt;br&gt;E-value: 0.0" locus_tag="SPAP7G5.04c" class="clusterblast-orf" id="dummy-3_h3_5_11"  />
</g>
<g id="a3_0012"  >
<polygon points="484,90 487,90 492,85 487,80 484,80 484,90 " style="fill:white; stroke-width:1; stroke:black; " description="&lt;b&gt;SPAP7G5.05&lt;/b&gt;&lt;br&gt;60S ribosomal protein L10&lt;br&gt;Location: 3744164 - 3744829" locus_tag="SPAP7G5.05" class="clusterblast-orf" id="dummy-3_h3_5_12"  />
</g>
<g id="a3_0013"  >
<polygon points="551,90 568,90 573,85 568,80 551,80 551,90 " style="fill:white; stroke-width:1; stroke:black; " description="&lt;b&gt;SPAP7G5.06&lt;/b&gt;&lt;br&gt;amino acid permease&lt;br&gt;Location: 3749695 - 3751446" locus_tag="SPAP7G5.06" class="clusterblast-orf" id="dummy-3_h3_5_13"  />
</g>
</svg>
