<svg xmlns="http://www.w3.org/2000/svg" xmlns:xlink="http://www.w3.org/1999/xlink" version="1.1" x="0" y="0" height="230" width="800" viewBox="0 0 800 230" preserveAspectRatio="none"  >
<g label="Query sequence" class="clusterblast-cluster"  >
<text x="5" y="20" class="clusterblast-acc"  >
Query sequence</text>
<line x1="10" y1="35" x2="778.0" y2="35" style="stroke-width:1; stroke:grey; "  />
<polygon points="0,40 48,40 53,35 48,30 0,30 0,40 " style="fill:white; stroke-width:1; stroke:black; " description="&lt;b&gt;CopciAB_428477.T0&lt;/b&gt;&lt;br&gt;CopciAB 428477.T0&lt;br&gt;Location: 2370556 - 2372577" locus_tag="CopciAB_428477.T0" class="clusterblast-orf" id="dummy-2_q0_0_all"  />
<polygon points="56,35 61,30 82,30 82,40 61,40 56,35 " style="fill:white; stroke-width:1; stroke:black; " description="&lt;b&gt;CopciAB_438833.T0&lt;/b&gt;&lt;br&gt;CopciAB 438833.T0&lt;br&gt;Location: 2372707 - 2373668" locus_tag="CopciAB_438833.T0" class="clusterblast-orf" id="dummy-2_q1_0_all"  />
<polygon points="102,40 119,40 124,35 119,30 102,30 102,40 " style="fill:white; stroke-width:1; stroke:black; " description="&lt;b&gt;CopciAB_480560.T0&lt;/b&gt;&lt;br&gt;CopciAB 480560.T0&lt;br&gt;Location: 2374457 - 2375273" locus_tag="CopciAB_480560.T0" class="clusterblast-orf" id="dummy-2_q2_0_all"  />
<polygon points="140,40 150,40 155,35 150,30 140,30 140,40 " style="fill:white; stroke-width:1; stroke:black; " description="&lt;b&gt;CopciAB_1001446.T0&lt;/b&gt;&lt;br&gt;CopciAB 1001446.T0&lt;br&gt;Location: 2375877 - 2376467" locus_tag="CopciAB_1001446.T0" class="clusterblast-orf" id="dummy-2_q3_0_all"  />
<polygon points="168,40 188,40 193,35 188,30 168,30 168,40 " style="fill:white; stroke-width:1; stroke:black; " description="&lt;b&gt;CopciAB_480561.T0&lt;/b&gt;&lt;br&gt;CopciAB 480561.T0&lt;br&gt;Location: 2376959 - 2377916" locus_tag="CopciAB_480561.T0" class="clusterblast-orf" id="dummy-2_q4_0_all"  />
<polygon points="208,40 222,40 227,35 222,30 208,30 208,40 " style="fill:white; stroke-width:1; stroke:black; " description="&lt;b&gt;CopciAB_1001447.T0&lt;/b&gt;&lt;br&gt;CopciAB 1001447.T0&lt;br&gt;Location: 2378477 - 2379191" locus_tag="CopciAB_1001447.T0" class="clusterblast-orf" id="dummy-2_q5_0_all"  />
<polygon points="248,40 275,40 280,35 275,30 248,30 248,40 " style="fill:white; stroke-width:1; stroke:black; " description="&lt;b&gt;CopciAB_428490.T0&lt;/b&gt;&lt;br&gt;CopciAB 428490.T0&lt;br&gt;Location: 2380004 - 2381205" locus_tag="CopciAB_428490.T0" class="clusterblast-orf" id="dummy-2_q6_0_all"  />
<polygon points="291,40 315,40 320,35 315,30 291,30 291,40 " style="fill:white; stroke-width:1; stroke:black; " description="&lt;b&gt;CopciAB_452524.T0&lt;/b&gt;&lt;br&gt;CopciAB 452524.T0&lt;br&gt;Location: 2381623 - 2382747" locus_tag="CopciAB_452524.T0" class="clusterblast-orf" id="dummy-2_q7_0_all"  />
<polygon points="330,35 335,30 335,30 335,40 335,40 330,35 " style="fill:#d81515; stroke-width:1; stroke:black; " description="&lt;b&gt;CopciAB_438837.T0&lt;/b&gt;&lt;br&gt;CopciAB 438837.T0&lt;br&gt;Location: 2383115 - 2383322" locus_tag="CopciAB_438837.T0" class="clusterblast-orf" id="dummy-2_q8_0_all"  />
<polygon points="343,40 395,40 400,35 395,30 343,30 343,40 " style="fill:#15d8d8; stroke-width:1; stroke:black; " description="&lt;b&gt;CopciAB_43445.T0&lt;/b&gt;&lt;br&gt;CopciAB 43445.T0&lt;br&gt;Location: 2383610 - 2385775" locus_tag="CopciAB_43445.T0" class="clusterblast-orf" id="dummy-2_q9_0_all"  />
<polygon points="436,35 441,30 510,30 510,40 441,40 436,35 " style="fill:white; stroke-width:1; stroke:black; " description="&lt;b&gt;CopciAB_43479.T0&lt;/b&gt;&lt;br&gt;CopciAB 43479.T0&lt;br&gt;Location: 2387165 - 2389957" locus_tag="CopciAB_43479.T0" class="clusterblast-orf" id="dummy-2_q10_0_all"  />
<polygon points="546,35 551,30 579,30 579,40 551,40 546,35 " style="fill:white; stroke-width:1; stroke:black; " description="&lt;b&gt;CopciAB_544081.T0&lt;/b&gt;&lt;br&gt;CopciAB 544081.T0&lt;br&gt;Location: 2391341 - 2392573" locus_tag="CopciAB_544081.T0" class="clusterblast-orf" id="dummy-2_q11_0_all"  />
<polygon points="612,40 684,40 689,35 684,30 612,30 612,40 " style="fill:white; stroke-width:1; stroke:black; " description="&lt;b&gt;CopciAB_438844.T0&lt;/b&gt;&lt;br&gt;CopciAB 438844.T0&lt;br&gt;Location: 2393830 - 2396768" locus_tag="CopciAB_438844.T0" class="clusterblast-orf" id="dummy-2_q12_0_all"  />
<polygon points="733,40 775,40 780,35 775,30 733,30 733,40 " style="fill:white; stroke-width:1; stroke:black; " description="&lt;b&gt;CopciAB_1001448.T0&lt;/b&gt;&lt;br&gt;CopciAB 1001448.T0&lt;br&gt;Location: 2398463 - 2400228" locus_tag="CopciAB_1001448.T0" class="clusterblast-orf" id="dummy-2_q13_0_all"  />
</g>
<g label="NW_006267369" description="NW_006267369 (306278-325220): Agaricus bisporus var. bisporus H97 unplaced ge... (20% of genes show similarity), terpene" class="clusterblast-cluster"  >
<text x="5" y="70" class="clusterblast-acc"  >
<a xlink:href="https://antismash-db.secondarymetabolites.org/area.html?record=NW_006267369&amp;start=306278&amp;end=325220" target="_blank">NW_006267369 (306278-325220)</a>: Agaricus bisporus var. bisporus H97 unplaced ge... (20% of genes show similarity), terpene</text>
<line x1="10" y1="85" x2="778.0" y2="85" style="stroke-width:1; stroke:grey; "  />
</g>
<g id="a2_000"  >
<polygon points="141,85 146,80 154,80 154,90 146,90 141,85 " style="fill:white; stroke-width:1; stroke:black; " description="&lt;b&gt;AGABI2DRAFT_118490&lt;/b&gt;&lt;br&gt;hypothetical protein&lt;br&gt;Location: 306279 - 306794" locus_tag="AGABI2DRAFT_118490" class="clusterblast-orf" id="dummy-2_h2_1_0"  />
</g>
<g id="a2_001"  >
<polygon points="185,85 190,80 195,80 195,90 190,90 185,85 " style="fill:white; stroke-width:1; stroke:black; " description="&lt;b&gt;AGABI2DRAFT_71636&lt;/b&gt;&lt;br&gt;hypothetical protein&lt;br&gt;Location: 307961 - 308365" locus_tag="AGABI2DRAFT_71636" class="clusterblast-orf" id="dummy-2_h2_1_1"  />
</g>
<g id="a2_002"  >
<polygon points="283,85 288,80 295,80 295,90 288,90 283,85 " style="fill:white; stroke-width:1; stroke:black; " description="&lt;b&gt;AGABI2DRAFT_136557&lt;/b&gt;&lt;br&gt;hypothetical protein&lt;br&gt;Location: 311688 - 312153" locus_tag="AGABI2DRAFT_136557" class="clusterblast-orf" id="dummy-2_h2_1_2"  />
</g>
<g id="a2_003"  >
<polygon points="341,85 346,80 346,80 346,90 346,90 341,85 " style="fill:#d81515; stroke-width:1; stroke:black; " description="&lt;b&gt;AGABI2DRAFT_136564&lt;/b&gt;&lt;br&gt;hypothetical protein&lt;br&gt;Location: 313887 - 314093&lt;br&gt;&lt;br&gt;&lt;b&gt;BlastP hit with CopciAB_438837.T0&lt;/b&gt;&lt;br&gt;Percentage identity: 59&lt;br&gt;Percentage coverage: 100&lt;br&gt;BLAST bit score: 82&lt;br&gt;E-value: 6.04e-21" locus_tag="AGABI2DRAFT_136564" class="clusterblast-orf" id="dummy-2_h2_1_3"  />
</g>
<g id="a2_004"  >
<polygon points="349,90 387,90 392,85 387,80 349,80 349,90 " style="fill:#15d8d8; stroke-width:1; stroke:black; " description="&lt;b&gt;AGABI2DRAFT_50291&lt;/b&gt;&lt;br&gt;hypothetical protein&lt;br&gt;Location: 314227 - 315853&lt;br&gt;&lt;br&gt;&lt;b&gt;BlastP hit with CopciAB_43445.T0&lt;/b&gt;&lt;br&gt;Percentage identity: 79&lt;br&gt;Percentage coverage: 81&lt;br&gt;BLAST bit score: 695&lt;br&gt;E-value: 1.9e-250" locus_tag="AGABI2DRAFT_50291" class="clusterblast-orf" id="dummy-2_h2_1_4"  />
</g>
<g id="a2_005"  >
<polygon points="416,85 421,80 441,80 441,90 421,90 416,85 " style="fill:white; stroke-width:1; stroke:black; " description="&lt;b&gt;AGABI2DRAFT_205429&lt;/b&gt;&lt;br&gt;hypothetical protein&lt;br&gt;Location: 316752 - 317713" locus_tag="AGABI2DRAFT_205429" class="clusterblast-orf" id="dummy-2_h2_1_5"  />
</g>
<g id="a2_006"  >
<polygon points="458,85 463,80 467,80 467,90 463,90 458,85 " style="fill:white; stroke-width:1; stroke:black; " description="&lt;b&gt;AGABI2DRAFT_118495&lt;/b&gt;&lt;br&gt;hypothetical protein&lt;br&gt;Location: 318345 - 318699" locus_tag="AGABI2DRAFT_118495" class="clusterblast-orf" id="dummy-2_h2_1_6"  />
</g>
<g id="a2_007"  >
<polygon points="474,85 479,80 524,80 524,90 479,90 474,85 " style="fill:white; stroke-width:1; stroke:black; " description="&lt;b&gt;AGABI2DRAFT_193043&lt;/b&gt;&lt;br&gt;hypothetical protein&lt;br&gt;Location: 318980 - 320848" locus_tag="AGABI2DRAFT_193043" class="clusterblast-orf" id="dummy-2_h2_1_7"  />
</g>
<g id="a2_008"  >
<polygon points="528,90 565,90 570,85 565,80 528,80 528,90 " style="fill:white; stroke-width:1; stroke:black; " description="&lt;b&gt;AGABI2DRAFT_193044&lt;/b&gt;&lt;br&gt;hypothetical protein&lt;br&gt;Location: 321006 - 322612" locus_tag="AGABI2DRAFT_193044" class="clusterblast-orf" id="dummy-2_h2_1_8"  />
</g>
<g id="a2_009"  >
<polygon points="626,90 633,90 638,85 633,80 626,80 626,90 " style="fill:white; stroke-width:1; stroke:black; " description="&lt;b&gt;AGABI2DRAFT_136569&lt;/b&gt;&lt;br&gt;hydrophobin&lt;br&gt;Location: 324755 - 325220" locus_tag="AGABI2DRAFT_136569" class="clusterblast-orf" id="dummy-2_h2_1_9"  />
</g>
</svg>
