<svg xmlns="http://www.w3.org/2000/svg" xmlns:xlink="http://www.w3.org/1999/xlink" version="1.1" x="0" y="0" height="230" width="800" viewBox="0 0 800 230" preserveAspectRatio="none"  >
<g label="Query sequence" class="clusterblast-cluster"  >
<text x="5" y="20" class="clusterblast-acc"  >
Query sequence</text>
<line x1="10" y1="35" x2="778.0" y2="35" style="stroke-width:1; stroke:grey; "  />
<polygon points="0,40 4,40 9,35 4,30 0,30 0,40 " style="fill:white; stroke-width:1; stroke:black; " description="&lt;b&gt;CopciAB_369971.T0&lt;/b&gt;&lt;br&gt;CopciAB 369971.T0&lt;br&gt;Location: 173614 - 174484" locus_tag="CopciAB_369971.T0" class="clusterblast-orf" id="dummy-1_q0_0_all"  />
<polygon points="10,40 13,40 18,35 13,30 10,30 10,40 " style="fill:white; stroke-width:1; stroke:black; " description="&lt;b&gt;CopciAB_369989.T0&lt;/b&gt;&lt;br&gt;CopciAB 369989.T0&lt;br&gt;Location: 174625 - 175377" locus_tag="CopciAB_369989.T0" class="clusterblast-orf" id="dummy-1_q1_0_all"  />
<polygon points="41,35 46,30 59,30 59,40 46,40 41,35 " style="fill:#d81515; stroke-width:1; stroke:black; " description="&lt;b&gt;CopciAB_286075.T0&lt;/b&gt;&lt;br&gt;CopciAB 286075.T0&lt;br&gt;Location: 177462 - 179182" locus_tag="CopciAB_286075.T0" class="clusterblast-orf" id="dummy-1_q2_0_all"  />
<polygon points="66,35 70,30 70,40 66,35 " style="fill:white; stroke-width:1; stroke:black; " description="&lt;b&gt;CopciAB_1002065.T0&lt;/b&gt;&lt;br&gt;CopciAB 1002065.T0&lt;br&gt;Location: 179853 - 180240" locus_tag="CopciAB_1002065.T0" class="clusterblast-orf" id="dummy-1_q3_0_all"  />
<polygon points="84,40 145,40 150,35 145,30 84,30 84,40 " style="fill:white; stroke-width:1; stroke:black; " description="&lt;b&gt;CopciAB_534846.T0&lt;/b&gt;&lt;br&gt;CopciAB 534846.T0&lt;br&gt;Location: 181567 - 187729" locus_tag="CopciAB_534846.T0" class="clusterblast-orf" id="dummy-1_q4_0_all"  />
<polygon points="162,35 167,30 171,30 171,40 167,40 162,35 " style="fill:white; stroke-width:1; stroke:black; " description="&lt;b&gt;CopciAB_473243.T1&lt;/b&gt;&lt;br&gt;CopciAB 473243.T1&lt;br&gt;Location: 188863 - 189736" locus_tag="CopciAB_473243.T1" class="clusterblast-orf" id="dummy-1_q5_0_all"  />
<polygon points="171,35 176,30 182,30 182,40 176,40 171,35 " style="fill:white; stroke-width:1; stroke:black; " description="&lt;b&gt;CopciAB_473243.T0&lt;/b&gt;&lt;br&gt;CopciAB 473243.T0&lt;br&gt;Location: 189691 - 190759" locus_tag="CopciAB_473243.T0" class="clusterblast-orf" id="dummy-1_q6_0_all"  />
<polygon points="191,40 240,40 245,35 240,30 191,30 191,40 " style="fill:white; stroke-width:1; stroke:black; " description="&lt;b&gt;CopciAB_369919.T0&lt;/b&gt;&lt;br&gt;CopciAB 369919.T0&lt;br&gt;Location: 191565 - 196638" locus_tag="CopciAB_369919.T0" class="clusterblast-orf" id="dummy-1_q7_0_all"  />
<polygon points="253,40 255,40 260,35 255,30 253,30 253,40 " style="fill:white; stroke-width:1; stroke:black; " description="&lt;b&gt;CopciAB_498595.T0&lt;/b&gt;&lt;br&gt;CopciAB 498595.T0&lt;br&gt;Location: 197444 - 198082" locus_tag="CopciAB_498595.T0" class="clusterblast-orf" id="dummy-1_q8_0_all"  />
<polygon points="262,35 267,30 273,30 273,40 267,40 262,35 " style="fill:white; stroke-width:1; stroke:black; " description="&lt;b&gt;CopciAB_498594.T0&lt;/b&gt;&lt;br&gt;CopciAB 498594.T0&lt;br&gt;Location: 198248 - 199281" locus_tag="CopciAB_498594.T0" class="clusterblast-orf" id="dummy-1_q9_0_all"  />
<polygon points="296,40 335,40 340,35 335,30 296,30 296,40 " style="fill:#15d815; stroke-width:1; stroke:black; " description="&lt;b&gt;CopciAB_473239.T0&lt;/b&gt;&lt;br&gt;CopciAB 473239.T0&lt;br&gt;Location: 201434 - 205577" locus_tag="CopciAB_473239.T0" class="clusterblast-orf" id="dummy-1_q10_0_all"  />
<polygon points="334,40 336,40 341,35 336,30 334,30 334,40 " style="fill:#15d815; stroke-width:1; stroke:black; " description="&lt;b&gt;CopciAB_473239.T1&lt;/b&gt;&lt;br&gt;CopciAB 473239.T1&lt;br&gt;Location: 205070 - 205688" locus_tag="CopciAB_473239.T1" class="clusterblast-orf" id="dummy-1_q11_0_all"  />
<polygon points="342,35 347,30 361,30 361,40 347,40 342,35 " style="fill:white; stroke-width:1; stroke:black; " description="&lt;b&gt;CopciAB_425685.T0&lt;/b&gt;&lt;br&gt;CopciAB 425685.T0&lt;br&gt;Location: 205807 - 207560" locus_tag="CopciAB_425685.T0" class="clusterblast-orf" id="dummy-1_q12_0_all"  />
<polygon points="392,40 405,40 410,35 405,30 392,30 392,40 " style="fill:white; stroke-width:1; stroke:black; " description="&lt;b&gt;CopciAB_399574.T0&lt;/b&gt;&lt;br&gt;CopciAB 399574.T0&lt;br&gt;Location: 210441 - 212171" locus_tag="CopciAB_399574.T0" class="clusterblast-orf" id="dummy-1_q13_0_all"  />
<polygon points="415,35 420,30 421,30 421,40 420,40 415,35 " style="fill:white; stroke-width:1; stroke:black; " description="&lt;b&gt;CopciAB_473236.T0&lt;/b&gt;&lt;br&gt;CopciAB 473236.T0&lt;br&gt;Location: 212658 - 213166" locus_tag="CopciAB_473236.T0" class="clusterblast-orf" id="dummy-1_q14_0_all"  />
<polygon points="425,35 430,30 470,30 470,40 430,40 425,35 " style="fill:#15d815; stroke-width:1; stroke:black; " description="&lt;b&gt;CopciAB_369914.T0&lt;/b&gt;&lt;br&gt;CopciAB 369914.T0&lt;br&gt;Location: 213586 - 217818" locus_tag="CopciAB_369914.T0" class="clusterblast-orf" id="dummy-1_q15_0_all"  />
<polygon points="474,35 479,30 494,30 494,40 479,40 474,35 " style="fill:white; stroke-width:1; stroke:black; " description="&lt;b&gt;CopciAB_1002066.T0&lt;/b&gt;&lt;br&gt;CopciAB 1002066.T0&lt;br&gt;Location: 218198 - 220084" locus_tag="CopciAB_1002066.T0" class="clusterblast-orf" id="dummy-1_q16_0_all"  />
<polygon points="503,40 522,40 527,35 522,30 503,30 503,40 " style="fill:#1515d8; stroke-width:1; stroke:black; " description="&lt;b&gt;CopciAB_450807.T0&lt;/b&gt;&lt;br&gt;CopciAB 450807.T0&lt;br&gt;Location: 220896 - 223183" locus_tag="CopciAB_450807.T0" class="clusterblast-orf" id="dummy-1_q17_0_all"  />
<polygon points="534,35 539,30 541,30 541,40 539,40 534,35 " style="fill:white; stroke-width:1; stroke:black; " description="&lt;b&gt;CopciAB_473232.T0&lt;/b&gt;&lt;br&gt;CopciAB 473232.T0&lt;br&gt;Location: 223813 - 224480" locus_tag="CopciAB_473232.T0" class="clusterblast-orf" id="dummy-1_q18_0_all"  />
<polygon points="535,35 536,30 536,40 535,35 " style="fill:white; stroke-width:1; stroke:black; " description="&lt;b&gt;CopciAB_473232.T1&lt;/b&gt;&lt;br&gt;CopciAB 473232.T1&lt;br&gt;Location: 223905 - 223995" locus_tag="CopciAB_473232.T1" class="clusterblast-orf" id="dummy-1_q19_0_all"  />
<polygon points="564,40 581,40 586,35 581,30 564,30 564,40 " style="fill:#1515d8; stroke-width:1; stroke:black; " description="&lt;b&gt;CopciAB_488576.T0&lt;/b&gt;&lt;br&gt;CopciAB 488576.T0&lt;br&gt;Location: 226622 - 228744" locus_tag="CopciAB_488576.T0" class="clusterblast-orf" id="dummy-1_q20_0_all"  />
<polygon points="597,40 611,40 616,35 611,30 597,30 597,40 " style="fill:white; stroke-width:1; stroke:black; " description="&lt;b&gt;CopciAB_473230.T0&lt;/b&gt;&lt;br&gt;CopciAB 473230.T0&lt;br&gt;Location: 229760 - 231482" locus_tag="CopciAB_473230.T0" class="clusterblast-orf" id="dummy-1_q21_0_all"  />
<polygon points="618,35 623,30 641,30 641,40 623,40 618,35 " style="fill:#1515d8; stroke-width:1; stroke:black; " description="&lt;b&gt;CopciAB_488574.T0&lt;/b&gt;&lt;br&gt;CopciAB 488574.T0&lt;br&gt;Location: 231724 - 233909" locus_tag="CopciAB_488574.T0" class="clusterblast-orf" id="dummy-1_q22_0_all"  />
<polygon points="659,40 660,40 665,35 660,30 659,30 659,40 " style="fill:white; stroke-width:1; stroke:black; " description="&lt;b&gt;CopciAB_285476.T0&lt;/b&gt;&lt;br&gt;CopciAB 285476.T0&lt;br&gt;Location: 235533 - 236084" locus_tag="CopciAB_285476.T0" class="clusterblast-orf" id="dummy-1_q23_0_all"  />
<polygon points="667,40 686,40 691,35 686,30 667,30 667,40 " style="fill:#1515d8; stroke-width:1; stroke:black; " description="&lt;b&gt;CopciAB_473228.T0&lt;/b&gt;&lt;br&gt;CopciAB 473228.T0&lt;br&gt;Location: 236320 - 238568" locus_tag="CopciAB_473228.T0" class="clusterblast-orf" id="dummy-1_q24_0_all"  />
<polygon points="694,40 713,40 718,35 713,30 694,30 694,40 " style="fill:#1515d8; stroke-width:1; stroke:black; " description="&lt;b&gt;CopciAB_369969.T0&lt;/b&gt;&lt;br&gt;CopciAB 369969.T0&lt;br&gt;Location: 238825 - 241072" locus_tag="CopciAB_369969.T0" class="clusterblast-orf" id="dummy-1_q25_0_all"  />
<polygon points="746,40 775,40 780,35 775,30 746,30 746,40 " style="fill:white; stroke-width:1; stroke:black; " description="&lt;b&gt;CopciAB_399546.T0&lt;/b&gt;&lt;br&gt;CopciAB 399546.T0&lt;br&gt;Location: 243724 - 246887" locus_tag="CopciAB_399546.T0" class="clusterblast-orf" id="dummy-1_q26_0_all"  />
</g>
<g label="NZ_HG315953" description="NZ_HG315953 (2836127-2906576): Mycobacterium simiae ATCC 25275 = DSM 44165, w... (4% of genes show similarity), NRPS,betalactone" class="clusterblast-cluster"  >
<text x="5" y="70" class="clusterblast-acc"  >
<a xlink:href="https://antismash-db.secondarymetabolites.org/area.html?record=NZ_HG315953&amp;start=2836127&amp;end=2906576" target="_blank">NZ_HG315953 (2836127-2906576)</a>: Mycobacterium simiae ATCC 25275 = DSM 44165, w... (4% of genes show similarity), NRPS,betalactone</text>
<line x1="10" y1="85" x2="778.0" y2="85" style="stroke-width:1; stroke:grey; "  />
</g>
<g id="a1_000"  >
<polygon points="16,85 17,80 17,90 16,85 " style="fill:white; stroke-width:1; stroke:black; " description="&lt;b&gt;TY06_RS28125&lt;/b&gt;&lt;br&gt;CsbD family protein&lt;br&gt;Location: 2906576 - 2906404" locus_tag="TY06_RS28125" class="clusterblast-orf" id="dummy-1_h1_7_0"  />
</g>
<g id="a1_001"  >
<polygon points="22,90 31,90 36,85 31,80 22,80 22,90 " style="fill:white; stroke-width:1; stroke:black; " description="&lt;b&gt;TY06_RS13630&lt;/b&gt;&lt;br&gt;serine hydrolase&lt;br&gt;Location: 2905975 - 2904668" locus_tag="TY06_RS13630" class="clusterblast-orf" id="dummy-1_h1_7_1"  />
</g>
<g id="a1_002"  >
<polygon points="36,85 41,80 47,80 47,90 41,90 36,85 " style="fill:white; stroke-width:1; stroke:black; " description="&lt;b&gt;TY06_RS13625&lt;/b&gt;&lt;br&gt;dihydrodipicolinate reductase&lt;br&gt;Location: 2904671 - 2903617" locus_tag="TY06_RS13625" class="clusterblast-orf" id="dummy-1_h1_7_2"  />
</g>
<g id="a1_003"  >
<polygon points="47,85 52,80 60,80 60,90 52,90 47,85 " style="fill:white; stroke-width:1; stroke:black; " description="&lt;b&gt;TY06_RS13620&lt;/b&gt;&lt;br&gt;hypothetical protein&lt;br&gt;Location: 2903587 - 2902430" locus_tag="TY06_RS13620" class="clusterblast-orf" id="dummy-1_h1_7_3"  />
</g>
<g id="a1_004"  >
<polygon points="60,85 65,80 74,80 74,90 65,90 60,85 " style="fill:white; stroke-width:1; stroke:black; " description="&lt;b&gt;TY06_RS13615&lt;/b&gt;&lt;br&gt;hypothetical protein&lt;br&gt;Location: 2902433 - 2901114" locus_tag="TY06_RS13615" class="clusterblast-orf" id="dummy-1_h1_7_4"  />
</g>
<g id="a1_005"  >
<polygon points="74,90 78,85 74,80 74,90 " style="fill:white; stroke-width:1; stroke:black; " description="&lt;b&gt;TY06_RS13610&lt;/b&gt;&lt;br&gt;hypothetical protein&lt;br&gt;Location: 2901069 - 2900725" locus_tag="TY06_RS13610" class="clusterblast-orf" id="dummy-1_h1_7_5"  />
</g>
<g id="a1_006"  >
<polygon points="78,85 83,80 92,80 92,90 83,90 78,85 " style="fill:white; stroke-width:1; stroke:black; " description="&lt;b&gt;TY06_RS13605&lt;/b&gt;&lt;br&gt;CHAT domain-containing protein&lt;br&gt;Location: 2900721 - 2899360" locus_tag="TY06_RS13605" class="clusterblast-orf" id="dummy-1_h1_7_6"  />
</g>
<g id="a1_007"  >
<polygon points="92,85 97,80 111,80 111,90 97,90 92,85 " style="fill:white; stroke-width:1; stroke:black; " description="&lt;b&gt;TY06_RS13600&lt;/b&gt;&lt;br&gt;hypothetical protein&lt;br&gt;Location: 2899363 - 2897639" locus_tag="TY06_RS13600" class="clusterblast-orf" id="dummy-1_h1_7_7"  />
</g>
<g id="a1_008"  >
<polygon points="112,85 117,80 117,80 117,90 117,90 112,85 " style="fill:white; stroke-width:1; stroke:black; " description="&lt;b&gt;TY06_RS13595&lt;/b&gt;&lt;br&gt;lipoprotein LpqH&lt;br&gt;Location: 2897565 - 2897083" locus_tag="TY06_RS13595" class="clusterblast-orf" id="dummy-1_h1_7_8"  />
</g>
<g id="a1_009"  >
<polygon points="119,90 122,90 127,85 122,80 119,80 119,90 " style="fill:white; stroke-width:1; stroke:black; " description="&lt;b&gt;TY06_RS13590&lt;/b&gt;&lt;br&gt;enoyl-CoA hydratase/isomerase family protein&lt;br&gt;Location: 2896862 - 2896107" locus_tag="TY06_RS13590" class="clusterblast-orf" id="dummy-1_h1_7_9"  />
</g>
<g id="a1_0010"  >
<polygon points="127,85 132,80 136,80 136,90 132,90 127,85 " style="fill:white; stroke-width:1; stroke:black; " description="&lt;b&gt;TY06_RS13585&lt;/b&gt;&lt;br&gt;hypothetical protein&lt;br&gt;Location: 2896106 - 2895252" locus_tag="TY06_RS13585" class="clusterblast-orf" id="dummy-1_h1_7_10"  />
</g>
<g id="a1_0011"  >
<polygon points="141,90 150,90 155,85 150,80 141,80 141,90 " style="fill:white; stroke-width:1; stroke:black; " description="&lt;b&gt;TY06_RS13575&lt;/b&gt;&lt;br&gt;aminotransferase class I/II-fold pyridoxal phosphate-dependent enzyme&lt;br&gt;Location: 2894809 - 2893514" locus_tag="TY06_RS13575" class="clusterblast-orf" id="dummy-1_h1_7_11"  />
</g>
<g id="a1_0012"  >
<polygon points="162,90 171,90 176,85 171,80 162,80 162,90 " style="fill:white; stroke-width:1; stroke:black; " description="&lt;b&gt;TY06_RS13570&lt;/b&gt;&lt;br&gt;IS30 family transposase&lt;br&gt;Location: 2892820 - 2891552" locus_tag="TY06_RS13570" class="clusterblast-orf" id="dummy-1_h1_7_12"  />
</g>
<g id="a1_0013"  >
<polygon points="177,90 190,90 195,85 190,80 177,80 177,90 " style="fill:white; stroke-width:1; stroke:black; " description="&lt;b&gt;TY06_RS13565&lt;/b&gt;&lt;br&gt;DNA polymerase III subunits gamma/tau&lt;br&gt;Location: 2891404 - 2889719" locus_tag="TY06_RS13565" class="clusterblast-orf" id="dummy-1_h1_7_13"  />
</g>
<g id="a1_0014"  >
<polygon points="200,85 204,80 204,90 200,85 " style="fill:white; stroke-width:1; stroke:black; " description="&lt;b&gt;TY06_RS13560&lt;/b&gt;&lt;br&gt;SAM-dependent methyltransferase&lt;br&gt;Location: 2889241 - 2888882" locus_tag="TY06_RS13560" class="clusterblast-orf" id="dummy-1_h1_7_14"  />
</g>
<g id="a1_0015"  >
<polygon points="205,85 210,80 219,80 219,90 210,90 205,85 " style="fill:white; stroke-width:1; stroke:black; " description="&lt;b&gt;TY06_RS13555&lt;/b&gt;&lt;br&gt;FAD-binding oxidoreductase&lt;br&gt;Location: 2888831 - 2887440" locus_tag="TY06_RS13555" class="clusterblast-orf" id="dummy-1_h1_7_15"  />
</g>
<g id="a1_0016"  >
<polygon points="220,90 220,90 225,85 220,80 220,80 220,90 " style="fill:white; stroke-width:1; stroke:black; " description="&lt;b&gt;TY06_RS13550&lt;/b&gt;&lt;br&gt;SRPBCC family protein&lt;br&gt;Location: 2887367 - 2886930" locus_tag="TY06_RS13550" class="clusterblast-orf" id="dummy-1_h1_7_16"  />
</g>
<g id="a1_0017"  >
<polygon points="225,85 230,80 362,80 362,90 230,90 225,85 " style="fill:white; stroke-width:1; stroke:black; " description="&lt;b&gt;TY06_RS13545&lt;/b&gt;&lt;br&gt;non-ribosomal peptide synthetase&lt;br&gt;Location: 2886933 - 2873992" locus_tag="TY06_RS13545" class="clusterblast-orf" id="dummy-1_h1_7_17"  />
</g>
<g id="a1_0018"  >
<polygon points="374,85 379,80 403,80 403,90 379,90 374,85 " style="fill:white; stroke-width:1; stroke:black; " description="&lt;b&gt;TY06_RS13540&lt;/b&gt;&lt;br&gt;non-ribosomal peptide synthetase&lt;br&gt;Location: 2872895 - 2870207" locus_tag="TY06_RS13540" class="clusterblast-orf" id="dummy-1_h1_7_18"  />
</g>
<g id="a1_0019"  >
<polygon points="414,85 419,80 541,80 541,90 419,90 414,85 " style="fill:white; stroke-width:1; stroke:black; " description="&lt;b&gt;TY06_RS27440&lt;/b&gt;&lt;br&gt;amino acid adenylation domain-containing protein&lt;br&gt;Location: 2869132 - 2857185" locus_tag="TY06_RS27440" class="clusterblast-orf" id="dummy-1_h1_7_19"  />
</g>
<g id="a1_0020"  >
<polygon points="546,85 551,80 554,80 554,90 551,90 546,85 " style="fill:white; stroke-width:1; stroke:black; " description="&lt;b&gt;TY06_RS13530&lt;/b&gt;&lt;br&gt;N-acetylmuramoyl-L-alanine amidase&lt;br&gt;Location: 2856776 - 2856003" locus_tag="TY06_RS13530" class="clusterblast-orf" id="dummy-1_h1_7_20"  />
</g>
<g id="a1_0021"  >
<polygon points="555,90 559,85 555,80 555,90 " style="fill:white; stroke-width:1; stroke:black; " description="&lt;b&gt;TY06_RS13525&lt;/b&gt;&lt;br&gt;YbaB/EbfC family nucleoid-associated protein&lt;br&gt;Location: 2855904 - 2855536" locus_tag="TY06_RS13525" class="clusterblast-orf" id="dummy-1_h1_7_21"  />
</g>
<g id="a1_0022"  >
<polygon points="559,90 561,90 566,85 561,80 559,80 559,90 " style="fill:white; stroke-width:1; stroke:black; " description="&lt;b&gt;TY06_RS13520&lt;/b&gt;&lt;br&gt;recombination protein RecR&lt;br&gt;Location: 2855522 - 2854911" locus_tag="TY06_RS13520" class="clusterblast-orf" id="dummy-1_h1_7_22"  />
</g>
<g id="a1_0023"  >
<polygon points="566,85 570,80 570,90 566,85 " style="fill:white; stroke-width:1; stroke:black; " description="&lt;b&gt;TY06_RS13515&lt;/b&gt;&lt;br&gt;hypothetical protein&lt;br&gt;Location: 2854896 - 2854480" locus_tag="TY06_RS13515" class="clusterblast-orf" id="dummy-1_h1_7_23"  />
</g>
<g id="a1_0024"  >
<polygon points="570,85 575,80 578,80 578,90 575,90 570,85 " style="fill:white; stroke-width:1; stroke:black; " description="&lt;b&gt;TY06_RS13510&lt;/b&gt;&lt;br&gt;glutamine amidotransferase&lt;br&gt;Location: 2854466 - 2853747" locus_tag="TY06_RS13510" class="clusterblast-orf" id="dummy-1_h1_7_24"  />
</g>
<g id="a1_0025"  >
<polygon points="578,85 580,80 580,90 578,85 " style="fill:white; stroke-width:1; stroke:black; " description="&lt;b&gt;TY06_RS28835&lt;/b&gt;&lt;br&gt;DUF1727 domain-containing protein&lt;br&gt;Location: 2853754 - 2853572" locus_tag="TY06_RS28835" class="clusterblast-orf" id="dummy-1_h1_7_25"  />
</g>
<g id="a1_0026"  >
<polygon points="581,85 586,80 590,80 590,90 586,90 581,85 " style="fill:white; stroke-width:1; stroke:black; " description="&lt;b&gt;TY06_RS13505&lt;/b&gt;&lt;br&gt;DUF1727 domain-containing protein&lt;br&gt;Location: 2853454 - 2852600" locus_tag="TY06_RS13505" class="clusterblast-orf" id="dummy-1_h1_7_26"  />
</g>
<g id="a1_0027"  >
<polygon points="593,90 599,90 604,85 599,80 593,80 593,90 " style="fill:white; stroke-width:1; stroke:black; " description="&lt;b&gt;TY06_RS13500&lt;/b&gt;&lt;br&gt;DEDDh family exonuclease&lt;br&gt;Location: 2852333 - 2851332" locus_tag="TY06_RS13500" class="clusterblast-orf" id="dummy-1_h1_7_27"  />
</g>
<g id="a1_0028"  >
<polygon points="604,90 608,85 604,80 604,90 " style="fill:white; stroke-width:1; stroke:black; " description="&lt;b&gt;TY06_RS13495&lt;/b&gt;&lt;br&gt;hypothetical protein&lt;br&gt;Location: 2851300 - 2850919" locus_tag="TY06_RS13495" class="clusterblast-orf" id="dummy-1_h1_7_28"  />
</g>
<g id="a1_0029"  >
<polygon points="607,85 612,80 619,80 619,90 612,90 607,85 " style="fill:white; stroke-width:1; stroke:black; " description="&lt;b&gt;TY06_RS13490&lt;/b&gt;&lt;br&gt;AraC family transcriptional regulator&lt;br&gt;Location: 2851006 - 2849939" locus_tag="TY06_RS13490" class="clusterblast-orf" id="dummy-1_h1_7_29"  />
</g>
<g id="a1_0030"  >
<polygon points="619,90 626,90 631,85 626,80 619,80 619,90 " style="fill:#1515d8; stroke-width:1; stroke:black; " description="&lt;b&gt;TY06_RS13485&lt;/b&gt;&lt;br&gt;NAD(P)-binding protein&lt;br&gt;Location: 2849864 - 2848775&lt;br&gt;&lt;br&gt;&lt;b&gt;BlastP hit with CopciAB_450807.T0&lt;/b&gt;&lt;br&gt;Percentage identity: 34&lt;br&gt;Percentage coverage: 61&lt;br&gt;BLAST bit score: 167&lt;br&gt;E-value: 1.37e-44&lt;br&gt;&lt;br&gt;&lt;b&gt;BlastP hit with CopciAB_488576.T0&lt;/b&gt;&lt;br&gt;Percentage identity: 39&lt;br&gt;Percentage coverage: 53&lt;br&gt;BLAST bit score: 168&lt;br&gt;E-value: 5.17e-45&lt;br&gt;&lt;br&gt;&lt;b&gt;BlastP hit with CopciAB_488574.T0&lt;/b&gt;&lt;br&gt;Percentage identity: 37&lt;br&gt;Percentage coverage: 57&lt;br&gt;BLAST bit score: 171&lt;br&gt;E-value: 8.11e-46" locus_tag="TY06_RS13485" class="clusterblast-orf" id="dummy-1_h1_7_30"  />
</g>
<g id="a1_0031"  >
<polygon points="633,90 634,90 639,85 634,80 633,80 633,90 " style="fill:#1515d8; stroke-width:1; stroke:black; " description="&lt;b&gt;TY06_RS13480&lt;/b&gt;&lt;br&gt;choline dehydrogenase&lt;br&gt;Location: 2848567 - 2848055&lt;br&gt;&lt;br&gt;&lt;b&gt;BlastP hit with CopciAB_450807.T0&lt;/b&gt;&lt;br&gt;Percentage identity: 38&lt;br&gt;Percentage coverage: 26&lt;br&gt;BLAST bit score: 94&lt;br&gt;E-value: 2.74e-20&lt;br&gt;&lt;br&gt;&lt;b&gt;BlastP hit with CopciAB_488576.T0&lt;/b&gt;&lt;br&gt;Percentage identity: 38&lt;br&gt;Percentage coverage: 26&lt;br&gt;BLAST bit score: 107&lt;br&gt;E-value: 6.88e-25&lt;br&gt;&lt;br&gt;&lt;b&gt;BlastP hit with CopciAB_473228.T0&lt;/b&gt;&lt;br&gt;Percentage identity: 39&lt;br&gt;Percentage coverage: 26&lt;br&gt;BLAST bit score: 100&lt;br&gt;E-value: 1.37e-22&lt;br&gt;&lt;br&gt;&lt;b&gt;BlastP hit with CopciAB_369969.T0&lt;/b&gt;&lt;br&gt;Percentage identity: 37&lt;br&gt;Percentage coverage: 31&lt;br&gt;BLAST bit score: 100&lt;br&gt;E-value: 1.91e-22" locus_tag="TY06_RS13480" class="clusterblast-orf" id="dummy-1_h1_7_31"  />
</g>
<g id="a1_0032"  >
<polygon points="639,85 644,80 659,80 659,90 644,90 639,85 " style="fill:white; stroke-width:1; stroke:black; " description="&lt;b&gt;TY06_RS13475&lt;/b&gt;&lt;br&gt;2-isopropylmalate synthase&lt;br&gt;Location: 2848051 - 2846128" locus_tag="TY06_RS13475" class="clusterblast-orf" id="dummy-1_h1_7_32"  />
</g>
<g id="a1_0033"  >
<polygon points="662,90 671,90 676,85 671,80 662,80 662,90 " style="fill:white; stroke-width:1; stroke:black; " description="&lt;b&gt;TY06_RS13470&lt;/b&gt;&lt;br&gt;aspartate kinase&lt;br&gt;Location: 2845831 - 2844566" locus_tag="TY06_RS13470" class="clusterblast-orf" id="dummy-1_h1_7_33"  />
</g>
<g id="a1_0034"  >
<polygon points="676,90 682,90 687,85 682,80 676,80 676,90 " style="fill:white; stroke-width:1; stroke:black; " description="&lt;b&gt;TY06_RS13465&lt;/b&gt;&lt;br&gt;aspartate-semialdehyde dehydrogenase&lt;br&gt;Location: 2844565 - 2843531" locus_tag="TY06_RS13465" class="clusterblast-orf" id="dummy-1_h1_7_34"  />
</g>
<g id="a1_0035"  >
<polygon points="686,90 694,90 699,85 694,80 686,80 686,90 " style="fill:white; stroke-width:1; stroke:black; " description="&lt;b&gt;TY06_RS13460&lt;/b&gt;&lt;br&gt;DUF4185 domain-containing protein&lt;br&gt;Location: 2843631 - 2842393" locus_tag="TY06_RS13460" class="clusterblast-orf" id="dummy-1_h1_7_35"  />
</g>
<g id="a1_0036"  >
<polygon points="710,90 714,85 710,80 710,90 " style="fill:white; stroke-width:1; stroke:black; " description="&lt;b&gt;TY06_RS28110&lt;/b&gt;&lt;br&gt;hypothetical protein&lt;br&gt;Location: 2841327 - 2840998" locus_tag="TY06_RS28110" class="clusterblast-orf" id="dummy-1_h1_7_36"  />
</g>
<g id="a1_0037"  >
<polygon points="716,90 720,85 716,80 716,90 " style="fill:white; stroke-width:1; stroke:black; " description="&lt;b&gt;TY06_RS28105&lt;/b&gt;&lt;br&gt;hypothetical protein&lt;br&gt;Location: 2840762 - 2840361" locus_tag="TY06_RS28105" class="clusterblast-orf" id="dummy-1_h1_7_37"  />
</g>
<g id="a1_0038"  >
<polygon points="722,90 733,90 738,85 733,80 722,80 722,90 " style="fill:white; stroke-width:1; stroke:black; " description="&lt;b&gt;TY06_RS13440&lt;/b&gt;&lt;br&gt;catalase&lt;br&gt;Location: 2840188 - 2838746" locus_tag="TY06_RS13440" class="clusterblast-orf" id="dummy-1_h1_7_38"  />
</g>
<g id="a1_0039"  >
<polygon points="738,90 740,90 745,85 740,80 738,80 738,90 " style="fill:white; stroke-width:1; stroke:black; " description="&lt;b&gt;TY06_RS13435&lt;/b&gt;&lt;br&gt;sensor domain-containing protein&lt;br&gt;Location: 2838686 - 2838045" locus_tag="TY06_RS13435" class="clusterblast-orf" id="dummy-1_h1_7_39"  />
</g>
<g id="a1_0040"  >
<polygon points="751,90 758,90 763,85 758,80 751,80 751,90 " style="fill:white; stroke-width:1; stroke:black; " description="&lt;b&gt;TY06_RS13430&lt;/b&gt;&lt;br&gt;ergothioneine biosynthesis glutamate--cysteine ligase EgtA&lt;br&gt;Location: 2837485 - 2836331" locus_tag="TY06_RS13430" class="clusterblast-orf" id="dummy-1_h1_7_40"  />
</g>
</svg>
