<svg xmlns="http://www.w3.org/2000/svg" xmlns:xlink="http://www.w3.org/1999/xlink" version="1.1" x="0" y="0" height="230" width="800" viewBox="0 0 800 230" preserveAspectRatio="none"  >
<g label="Query sequence" class="clusterblast-cluster"  >
<text x="5" y="20" class="clusterblast-acc"  >
Query sequence</text>
<line x1="10" y1="35" x2="778.0" y2="35" style="stroke-width:1; stroke:grey; "  />
<polygon points="0,40 14,40 19,35 14,30 0,30 0,40 " style="fill:white; stroke-width:1; stroke:black; " description="&lt;b&gt;CopciAB_469722.T0&lt;/b&gt;&lt;br&gt;CopciAB 469722.T0&lt;br&gt;Location: 649236 - 649961" locus_tag="CopciAB_469722.T0" class="clusterblast-orf" id="dummy-2_q0_0_all"  />
<polygon points="67,35 72,30 115,30 115,40 72,40 67,35 " style="fill:white; stroke-width:1; stroke:black; " description="&lt;b&gt;CopciAB_201601.T0&lt;/b&gt;&lt;br&gt;CopciAB 201601.T0&lt;br&gt;Location: 651747 - 653564" locus_tag="CopciAB_201601.T0" class="clusterblast-orf" id="dummy-2_q1_0_all"  />
<polygon points="118,35 123,30 166,30 166,40 123,40 118,35 " style="fill:white; stroke-width:1; stroke:black; " description="&lt;b&gt;CopciAB_469720.T0&lt;/b&gt;&lt;br&gt;CopciAB 469720.T0&lt;br&gt;Location: 653660 - 655465" locus_tag="CopciAB_469720.T0" class="clusterblast-orf" id="dummy-2_q2_0_all"  />
<polygon points="173,35 178,30 273,30 273,40 178,40 173,35 " style="fill:#d81515; stroke-width:1; stroke:black; " description="&lt;b&gt;CopciAB_541099.T0&lt;/b&gt;&lt;br&gt;CopciAB 541099.T0&lt;br&gt;Location: 655733 - 659479" locus_tag="CopciAB_541099.T0" class="clusterblast-orf" id="dummy-2_q3_0_all"  />
<polygon points="293,35 298,30 349,30 349,40 298,40 293,35 " style="fill:#15d815; stroke-width:1; stroke:black; " description="&lt;b&gt;CopciAB_420898.T0&lt;/b&gt;&lt;br&gt;CopciAB 420898.T0&lt;br&gt;Location: 660230 - 662345" locus_tag="CopciAB_420898.T0" class="clusterblast-orf" id="dummy-2_q4_0_all"  />
<polygon points="377,40 405,40 410,35 405,30 377,30 377,40 " style="fill:white; stroke-width:1; stroke:black; " description="&lt;b&gt;CopciAB_394772.T0&lt;/b&gt;&lt;br&gt;CopciAB 394772.T0&lt;br&gt;Location: 663413 - 664616" locus_tag="CopciAB_394772.T0" class="clusterblast-orf" id="dummy-2_q5_0_all"  />
<polygon points="436,35 441,30 492,30 492,40 441,40 436,35 " style="fill:#15d815; stroke-width:1; stroke:black; " description="&lt;b&gt;CopciAB_201523.T0&lt;/b&gt;&lt;br&gt;CopciAB 201523.T0&lt;br&gt;Location: 665622 - 667713" locus_tag="CopciAB_201523.T0" class="clusterblast-orf" id="dummy-2_q6_0_all"  />
<polygon points="517,40 536,40 541,35 536,30 517,30 517,40 " style="fill:white; stroke-width:1; stroke:black; " description="&lt;b&gt;CopciAB_469716.T0&lt;/b&gt;&lt;br&gt;CopciAB 469716.T0&lt;br&gt;Location: 668642 - 669560" locus_tag="CopciAB_469716.T0" class="clusterblast-orf" id="dummy-2_q7_0_all"  />
<polygon points="520,40 521,40 526,35 521,30 520,30 520,40 " style="fill:white; stroke-width:1; stroke:black; " description="&lt;b&gt;CopciAB_469716.T1&lt;/b&gt;&lt;br&gt;CopciAB 469716.T1&lt;br&gt;Location: 668777 - 668971" locus_tag="CopciAB_469716.T1" class="clusterblast-orf" id="dummy-2_q8_0_all"  />
<polygon points="551,35 556,30 583,30 583,40 556,40 551,35 " style="fill:white; stroke-width:1; stroke:black; " description="&lt;b&gt;CopciAB_469715.T0&lt;/b&gt;&lt;br&gt;CopciAB 469715.T0&lt;br&gt;Location: 669921 - 671113" locus_tag="CopciAB_469715.T0" class="clusterblast-orf" id="dummy-2_q9_0_all"  />
<polygon points="606,35 611,30 625,30 625,40 611,40 606,35 " style="fill:#1515d8; stroke-width:1; stroke:black; " description="&lt;b&gt;CopciAB_420887.T0&lt;/b&gt;&lt;br&gt;CopciAB 420887.T0&lt;br&gt;Location: 671972 - 672696" locus_tag="CopciAB_420887.T0" class="clusterblast-orf" id="dummy-2_q10_0_all"  />
<polygon points="652,40 775,40 780,35 775,30 652,30 652,40 " style="fill:white; stroke-width:1; stroke:black; " description="&lt;b&gt;CopciAB_469713.T0&lt;/b&gt;&lt;br&gt;CopciAB 469713.T0&lt;br&gt;Location: 673718 - 678512" locus_tag="CopciAB_469713.T0" class="clusterblast-orf" id="dummy-2_q11_0_all"  />
</g>
<g label="NZ_CP055263" description="NZ_CP055263 (5512449-5534342): Metabacillus sp. KUDC1714 chromosome, complete... (10% of genes show similarity), terpene" class="clusterblast-cluster"  >
<text x="5" y="70" class="clusterblast-acc"  >
<a xlink:href="https://antismash-db.secondarymetabolites.org/area.html?record=NZ_CP055263&amp;start=5512449&amp;end=5534342" target="_blank">NZ_CP055263 (5512449-5534342)</a>: Metabacillus sp. KUDC1714 chromosome, complete... (10% of genes show similarity), terpene</text>
<line x1="10" y1="85" x2="778.0" y2="85" style="stroke-width:1; stroke:grey; "  />
</g>
<g id="a2_000"  >
<polygon points="107,90 153,90 158,85 153,80 107,80 107,90 " style="fill:white; stroke-width:1; stroke:black; " description="&lt;b&gt;HUW50_RS25485&lt;/b&gt;&lt;br&gt;VWA domain-containing protein&lt;br&gt;Location: 5533683 - 5531764" locus_tag="HUW50_RS25485" class="clusterblast-orf" id="dummy-2_h2_6_0"  />
</g>
<g id="a2_001"  >
<polygon points="170,90 242,90 247,85 242,80 170,80 170,90 " style="fill:#d81515; stroke-width:1; stroke:black; " description="&lt;b&gt;HUW50_RS25480&lt;/b&gt;&lt;br&gt;2-oxoglutarate dehydrogenase E1 component&lt;br&gt;Location: 5531318 - 5528457&lt;br&gt;&lt;br&gt;&lt;b&gt;BlastP hit with CopciAB_541099.T0&lt;/b&gt;&lt;br&gt;Percentage identity: 35&lt;br&gt;Percentage coverage: 96&lt;br&gt;BLAST bit score: 516&lt;br&gt;E-value: 1.43e-166" locus_tag="HUW50_RS25480" class="clusterblast-orf" id="dummy-2_h2_6_1"  />
</g>
<g id="a2_002"  >
<polygon points="249,90 277,90 282,85 277,80 249,80 249,90 " style="fill:white; stroke-width:1; stroke:black; " description="&lt;b&gt;HUW50_RS25475&lt;/b&gt;&lt;br&gt;2-oxoglutarate dehydrogenase complex dihydrolipoyllysine-residue succinyltransferase&lt;br&gt;Location: 5528363 - 5527110" locus_tag="HUW50_RS25475" class="clusterblast-orf" id="dummy-2_h2_6_2"  />
</g>
<g id="a2_003"  >
<polygon points="290,90 321,90 326,85 321,80 290,80 290,90 " style="fill:white; stroke-width:1; stroke:black; " description="&lt;b&gt;HUW50_RS25470&lt;/b&gt;&lt;br&gt;sodium-dependent transporter&lt;br&gt;Location: 5526820 - 5525474" locus_tag="HUW50_RS25470" class="clusterblast-orf" id="dummy-2_h2_6_3"  />
</g>
<g id="a2_004"  >
<polygon points="330,85 335,80 354,80 354,90 335,90 330,85 " style="fill:#1515d8; stroke-width:1; stroke:black; " description="&lt;b&gt;HUW50_RS25465&lt;/b&gt;&lt;br&gt;superoxide dismutase&lt;br&gt;Location: 5525318 - 5524431&lt;br&gt;&lt;br&gt;&lt;b&gt;BlastP hit with CopciAB_420887.T0&lt;/b&gt;&lt;br&gt;Percentage identity: 41&lt;br&gt;Percentage coverage: 99&lt;br&gt;BLAST bit score: 161&lt;br&gt;E-value: 5.04e-47" locus_tag="HUW50_RS25465" class="clusterblast-orf" id="dummy-2_h2_6_4"  />
</g>
<g id="a2_005"  >
<polygon points="356,85 361,80 407,80 407,90 361,90 356,85 " style="fill:white; stroke-width:1; stroke:black; " description="&lt;b&gt;HUW50_RS25460&lt;/b&gt;&lt;br&gt;squalene--hopene cyclase&lt;br&gt;Location: 5524342 - 5522450" locus_tag="HUW50_RS25460" class="clusterblast-orf" id="dummy-2_h2_6_5"  />
</g>
<g id="a2_006"  >
<polygon points="410,90 410,90 415,85 410,80 410,80 410,90 " style="fill:white; stroke-width:1; stroke:black; " description="&lt;b&gt;HUW50_RS25455&lt;/b&gt;&lt;br&gt;hypothetical protein&lt;br&gt;Location: 5522336 - 5522130" locus_tag="HUW50_RS25455" class="clusterblast-orf" id="dummy-2_h2_6_6"  />
</g>
<g id="a2_007"  >
<polygon points="420,90 430,90 435,85 430,80 420,80 420,90 " style="fill:white; stroke-width:1; stroke:black; " description="&lt;b&gt;HUW50_RS25450&lt;/b&gt;&lt;br&gt;helix-turn-helix domain-containing protein&lt;br&gt;Location: 5521927 - 5521394" locus_tag="HUW50_RS25450" class="clusterblast-orf" id="dummy-2_h2_6_7"  />
</g>
<g id="a2_008"  >
<polygon points="441,90 450,90 455,85 450,80 441,80 441,90 " style="fill:white; stroke-width:1; stroke:black; " description="&lt;b&gt;HUW50_RS25445&lt;/b&gt;&lt;br&gt;N-acetyltransferase&lt;br&gt;Location: 5521146 - 5520637" locus_tag="HUW50_RS25445" class="clusterblast-orf" id="dummy-2_h2_6_8"  />
</g>
<g id="a2_009"  >
<polygon points="462,90 489,90 494,85 489,80 462,80 462,90 " style="fill:white; stroke-width:1; stroke:black; " description="&lt;b&gt;HUW50_RS25440&lt;/b&gt;&lt;br&gt;oligoribonuclease&lt;br&gt;Location: 5520370 - 5519183" locus_tag="HUW50_RS25440" class="clusterblast-orf" id="dummy-2_h2_6_9"  />
</g>
<g id="a2_0010"  >
<polygon points="498,85 502,80 502,90 498,85 " style="fill:white; stroke-width:1; stroke:black; " description="&lt;b&gt;HUW50_RS25435&lt;/b&gt;&lt;br&gt;hypothetical protein&lt;br&gt;Location: 5519002 - 5518853" locus_tag="HUW50_RS25435" class="clusterblast-orf" id="dummy-2_h2_6_10"  />
</g>
<g id="a2_0011"  >
<polygon points="505,85 510,80 517,80 517,90 510,90 505,85 " style="fill:white; stroke-width:1; stroke:black; " description="&lt;b&gt;HUW50_RS25430&lt;/b&gt;&lt;br&gt;cupredoxin domain-containing protein&lt;br&gt;Location: 5518757 - 5518314" locus_tag="HUW50_RS25430" class="clusterblast-orf" id="dummy-2_h2_6_11"  />
</g>
<g id="a2_0012"  >
<polygon points="524,90 529,90 534,85 529,80 524,80 524,90 " style="fill:white; stroke-width:1; stroke:black; " description="&lt;b&gt;HUW50_RS25425&lt;/b&gt;&lt;br&gt;general stress protein&lt;br&gt;Location: 5518059 - 5517682" locus_tag="HUW50_RS25425" class="clusterblast-orf" id="dummy-2_h2_6_12"  />
</g>
<g id="a2_0013"  >
<polygon points="542,90 559,90 564,85 559,80 542,80 542,90 " style="fill:white; stroke-width:1; stroke:black; " description="&lt;b&gt;HUW50_RS25420&lt;/b&gt;&lt;br&gt;pyrroline-5-carboxylate reductase&lt;br&gt;Location: 5517351 - 5516548" locus_tag="HUW50_RS25420" class="clusterblast-orf" id="dummy-2_h2_6_13"  />
</g>
<g id="a2_0014"  >
<polygon points="570,85 575,80 588,80 588,90 575,90 570,85 " style="fill:white; stroke-width:1; stroke:black; " description="&lt;b&gt;HUW50_RS25415&lt;/b&gt;&lt;br&gt;serine/threonine protein kinase&lt;br&gt;Location: 5516319 - 5515651" locus_tag="HUW50_RS25415" class="clusterblast-orf" id="dummy-2_h2_6_14"  />
</g>
<g id="a2_0015"  >
<polygon points="597,85 602,80 603,80 603,90 602,90 597,85 " style="fill:white; stroke-width:1; stroke:black; " description="&lt;b&gt;HUW50_RS25410&lt;/b&gt;&lt;br&gt;hypothetical protein&lt;br&gt;Location: 5515304 - 5515095" locus_tag="HUW50_RS25410" class="clusterblast-orf" id="dummy-2_h2_6_15"  />
</g>
<g id="a2_0016"  >
<polygon points="609,85 614,80 614,80 614,90 614,90 609,85 " style="fill:white; stroke-width:1; stroke:black; " description="&lt;b&gt;HUW50_RS25405&lt;/b&gt;&lt;br&gt;H-type small acid-soluble spore protein&lt;br&gt;Location: 5514850 - 5514671" locus_tag="HUW50_RS25405" class="clusterblast-orf" id="dummy-2_h2_6_16"  />
</g>
<g id="a2_0017"  >
<polygon points="617,85 622,80 648,80 648,90 622,90 617,85 " style="fill:white; stroke-width:1; stroke:black; " description="&lt;b&gt;HUW50_RS25400&lt;/b&gt;&lt;br&gt;DUF418 domain-containing protein&lt;br&gt;Location: 5514556 - 5513384" locus_tag="HUW50_RS25400" class="clusterblast-orf" id="dummy-2_h2_6_17"  />
</g>
<g id="a2_0018"  >
<polygon points="657,90 667,90 672,85 667,80 657,80 657,90 " style="fill:white; stroke-width:1; stroke:black; " description="&lt;b&gt;HUW50_RS25395&lt;/b&gt;&lt;br&gt;hypothetical protein&lt;br&gt;Location: 5513063 - 5512497" locus_tag="HUW50_RS25395" class="clusterblast-orf" id="dummy-2_h2_6_18"  />
</g>
</svg>
