<svg xmlns="http://www.w3.org/2000/svg" xmlns:xlink="http://www.w3.org/1999/xlink" version="1.1" x="0" y="0" height="230" width="800" viewBox="0 0 800 230" preserveAspectRatio="none"  >
<g label="Query sequence" class="clusterblast-cluster"  >
<text x="5" y="20" class="clusterblast-acc"  >
Query sequence</text>
<line x1="10" y1="35" x2="778.0" y2="35" style="stroke-width:1; stroke:grey; "  />
<polygon points="0,35 5,30 152,30 152,40 5,40 0,35 " style="fill:#d81515; stroke-width:1; stroke:black; " description="&lt;b&gt;CopciAB_501747.T0&lt;/b&gt;&lt;br&gt;CopciAB 501747.T0&lt;br&gt;Location: 732617 - 737787" locus_tag="CopciAB_501747.T0" class="clusterblast-orf" id="dummy-1_q0_0_all"  />
<polygon points="178,35 183,30 221,30 221,40 183,40 178,35 " style="fill:white; stroke-width:1; stroke:black; " description="&lt;b&gt;CopciAB_455217.T0&lt;/b&gt;&lt;br&gt;CopciAB 455217.T0&lt;br&gt;Location: 738658 - 740132" locus_tag="CopciAB_455217.T0" class="clusterblast-orf" id="dummy-1_q1_0_all"  />
<polygon points="248,35 253,30 299,30 299,40 253,40 248,35 " style="fill:#77d815; stroke-width:1; stroke:black; " description="&lt;b&gt;CopciAB_124572.T0&lt;/b&gt;&lt;br&gt;CopciAB 124572.T0&lt;br&gt;Location: 741042 - 742784" locus_tag="CopciAB_124572.T0" class="clusterblast-orf" id="dummy-1_q2_0_all"  />
<polygon points="365,40 412,40 417,35 412,30 365,30 365,40 " style="fill:#15d8d8; stroke-width:1; stroke:black; " description="&lt;b&gt;CopciAB_124670.T0&lt;/b&gt;&lt;br&gt;CopciAB 124670.T0&lt;br&gt;Location: 745008 - 746793" locus_tag="CopciAB_124670.T0" class="clusterblast-orf" id="dummy-1_q3_0_all"  />
<polygon points="427,40 463,40 468,35 463,30 427,30 427,40 " style="fill:#7715d8; stroke-width:1; stroke:black; " description="&lt;b&gt;CopciAB_442940.T0&lt;/b&gt;&lt;br&gt;CopciAB 442940.T0&lt;br&gt;Location: 747133 - 748506" locus_tag="CopciAB_442940.T0" class="clusterblast-orf" id="dummy-1_q4_0_all"  />
<polygon points="579,35 584,30 646,30 646,40 584,40 579,35 " style="fill:white; stroke-width:1; stroke:black; " description="&lt;b&gt;CopciAB_545850.T0&lt;/b&gt;&lt;br&gt;CopciAB 545850.T0&lt;br&gt;Location: 752294 - 754555" locus_tag="CopciAB_545850.T0" class="clusterblast-orf" id="dummy-1_q5_0_all"  />
<polygon points="655,40 663,40 668,35 663,30 655,30 655,40 " style="fill:white; stroke-width:1; stroke:black; " description="&lt;b&gt;CopciAB_442944.T0&lt;/b&gt;&lt;br&gt;CopciAB 442944.T0&lt;br&gt;Location: 754859 - 755306" locus_tag="CopciAB_442944.T0" class="clusterblast-orf" id="dummy-1_q6_0_all"  />
<polygon points="688,35 693,30 780,30 780,40 693,40 688,35 " style="fill:white; stroke-width:1; stroke:black; " description="&lt;b&gt;CopciAB_378005.T0&lt;/b&gt;&lt;br&gt;CopciAB 378005.T0&lt;br&gt;Location: 756004 - 759110" locus_tag="CopciAB_378005.T0" class="clusterblast-orf" id="dummy-1_q7_0_all"  />
</g>
<g label="NW_009258198" description="NW_009258198 (2982682-3003994): Heterobasidion irregulare TC 32-1 unplaced ge... (57% of genes show similarity), terpene" class="clusterblast-cluster"  >
<text x="5" y="70" class="clusterblast-acc"  >
<a xlink:href="https://antismash-db.secondarymetabolites.org/area.html?record=NW_009258198&amp;start=2982682&amp;end=3003994" target="_blank">NW_009258198 (2982682-3003994)</a>: Heterobasidion irregulare TC 32-1 unplaced ge... (57% of genes show similarity), terpene</text>
<line x1="10" y1="85" x2="778.0" y2="85" style="stroke-width:1; stroke:grey; "  />
</g>
<g id="a1_000"  >
<polygon points="85,85 90,80 98,80 98,90 90,90 85,85 " style="fill:white; stroke-width:1; stroke:black; " description="&lt;b&gt;HETIRDRAFT_449083&lt;/b&gt;&lt;br&gt;hypothetical protein&lt;br&gt;Location: 2983227 - 2983677" locus_tag="HETIRDRAFT_449083" class="clusterblast-orf" id="dummy-1_h1_1_0"  />
</g>
<g id="a1_001"  >
<polygon points="101,90 256,90 261,85 256,80 101,80 101,90 " style="fill:#d81515; stroke-width:1; stroke:black; " description="&lt;b&gt;HETIRDRAFT_60087&lt;/b&gt;&lt;br&gt;P-type ATPase&lt;br&gt;Location: 2983768 - 2989206&lt;br&gt;&lt;br&gt;&lt;b&gt;BlastP hit with CopciAB_501747.T0&lt;/b&gt;&lt;br&gt;Percentage identity: 59&lt;br&gt;Percentage coverage: 100&lt;br&gt;BLAST bit score: 1642&lt;br&gt;E-value: 0.0" locus_tag="HETIRDRAFT_60087" class="clusterblast-orf" id="dummy-1_h1_1_1"  />
</g>
<g id="a1_002"  >
<polygon points="278,85 283,80 289,80 289,90 283,90 278,85 " style="fill:white; stroke-width:1; stroke:black; " description="&lt;b&gt;HETIRDRAFT_100276&lt;/b&gt;&lt;br&gt;hypothetical protein&lt;br&gt;Location: 2989797 - 2990151" locus_tag="HETIRDRAFT_100276" class="clusterblast-orf" id="dummy-1_h1_1_2"  />
</g>
<g id="a1_003"  >
<polygon points="363,90 397,90 402,85 397,80 363,80 363,90 " style="fill:#15d8d8; stroke-width:1; stroke:black; " description="&lt;b&gt;HETIRDRAFT_167573&lt;/b&gt;&lt;br&gt;hypothetical protein&lt;br&gt;Location: 2992683 - 2993994&lt;br&gt;&lt;br&gt;&lt;b&gt;BlastP hit with CopciAB_124670.T0&lt;/b&gt;&lt;br&gt;Percentage identity: 64&lt;br&gt;Percentage coverage: 79&lt;br&gt;BLAST bit score: 448&lt;br&gt;E-value: 2.74e-155" locus_tag="HETIRDRAFT_167573" class="clusterblast-orf" id="dummy-1_h1_1_3"  />
</g>
<g id="a1_004"  >
<polygon points="483,90 517,90 522,85 517,80 483,80 483,90 " style="fill:#7715d8; stroke-width:1; stroke:black; " description="&lt;b&gt;HETIRDRAFT_457678&lt;/b&gt;&lt;br&gt;hypothetical protein&lt;br&gt;Location: 2996769 - 2998093&lt;br&gt;&lt;br&gt;&lt;b&gt;BlastP hit with CopciAB_442940.T0&lt;/b&gt;&lt;br&gt;Percentage identity: 55&lt;br&gt;Percentage coverage: 102&lt;br&gt;BLAST bit score: 366&lt;br&gt;E-value: 1.18e-124" locus_tag="HETIRDRAFT_457678" class="clusterblast-orf" id="dummy-1_h1_1_4"  />
</g>
<g id="a1_005"  >
<polygon points="536,90 588,90 593,85 588,80 536,80 536,90 " style="fill:#77d815; stroke-width:1; stroke:black; " description="&lt;b&gt;HETIRDRAFT_471579&lt;/b&gt;&lt;br&gt;hypothetical protein&lt;br&gt;Location: 2998566 - 3000504&lt;br&gt;&lt;br&gt;&lt;b&gt;BlastP hit with CopciAB_124572.T0&lt;/b&gt;&lt;br&gt;Percentage identity: 52&lt;br&gt;Percentage coverage: 99&lt;br&gt;BLAST bit score: 314&lt;br&gt;E-value: 2.11e-104" locus_tag="HETIRDRAFT_471579" class="clusterblast-orf" id="dummy-1_h1_1_5"  />
</g>
<g id="a1_006"  >
<polygon points="671,90 689,90 694,85 689,80 671,80 671,90 " style="fill:white; stroke-width:1; stroke:black; " description="&lt;b&gt;HETIRDRAFT_308993&lt;/b&gt;&lt;br&gt;hypothetical protein&lt;br&gt;Location: 3003127 - 3003930" locus_tag="HETIRDRAFT_308993" class="clusterblast-orf" id="dummy-1_h1_1_6"  />
</g>
</svg>
