<svg xmlns="http://www.w3.org/2000/svg" xmlns:xlink="http://www.w3.org/1999/xlink" version="1.1" x="0" y="0" height="230" width="800" viewBox="0 0 800 230" preserveAspectRatio="none"  >
<g label="Query sequence" class="clusterblast-cluster"  >
<text x="5" y="20" class="clusterblast-acc"  >
Query sequence</text>
<line x1="10" y1="35" x2="778.0" y2="35" style="stroke-width:1; stroke:grey; "  />
<polygon points="0,35 5,30 25,30 25,40 5,40 0,35 " style="fill:#d81515; stroke-width:1; stroke:black; " description="&lt;b&gt;CopciAB_371017.T0&lt;/b&gt;&lt;br&gt;CopciAB 371017.T0&lt;br&gt;Location: 2093406 - 2095495" locus_tag="CopciAB_371017.T0" class="clusterblast-orf" id="dummy-1_q0_0_all"  />
<polygon points="28,40 58,40 63,35 58,30 28,30 28,40 " style="fill:white; stroke-width:1; stroke:black; " description="&lt;b&gt;CopciAB_437319.T0&lt;/b&gt;&lt;br&gt;CopciAB 437319.T0&lt;br&gt;Location: 2095709 - 2098625" locus_tag="CopciAB_437319.T0" class="clusterblast-orf" id="dummy-1_q1_0_all"  />
<polygon points="85,40 96,40 101,35 96,30 85,30 85,40 " style="fill:white; stroke-width:1; stroke:black; " description="&lt;b&gt;CopciAB_451551.T0&lt;/b&gt;&lt;br&gt;CopciAB 451551.T0&lt;br&gt;Location: 2100402 - 2101672" locus_tag="CopciAB_451551.T0" class="clusterblast-orf" id="dummy-1_q2_0_all"  />
<polygon points="104,35 109,30 109,30 109,40 109,40 104,35 " style="fill:white; stroke-width:1; stroke:black; " description="&lt;b&gt;CopciAB_1001422.T0&lt;/b&gt;&lt;br&gt;CopciAB 1001422.T0&lt;br&gt;Location: 2101912 - 2102322" locus_tag="CopciAB_1001422.T0" class="clusterblast-orf" id="dummy-1_q3_0_all"  />
<polygon points="134,40 146,40 151,35 146,30 134,30 134,40 " style="fill:white; stroke-width:1; stroke:black; " description="&lt;b&gt;CopciAB_371026.T0&lt;/b&gt;&lt;br&gt;CopciAB 371026.T0&lt;br&gt;Location: 2104427 - 2105803" locus_tag="CopciAB_371026.T0" class="clusterblast-orf" id="dummy-1_q4_0_all"  />
<polygon points="164,35 169,30 184,30 184,40 169,40 164,35 " style="fill:white; stroke-width:1; stroke:black; " description="&lt;b&gt;CopciAB_479810.T0&lt;/b&gt;&lt;br&gt;CopciAB 479810.T0&lt;br&gt;Location: 2106862 - 2108523" locus_tag="CopciAB_479810.T0" class="clusterblast-orf" id="dummy-1_q5_0_all"  />
<polygon points="199,40 210,40 215,35 210,30 199,30 199,40 " style="fill:white; stroke-width:1; stroke:black; " description="&lt;b&gt;CopciAB_462110.T0&lt;/b&gt;&lt;br&gt;CopciAB 462110.T0&lt;br&gt;Location: 2109703 - 2111071" locus_tag="CopciAB_462110.T0" class="clusterblast-orf" id="dummy-1_q6_0_all"  />
<polygon points="229,35 234,30 265,30 265,40 234,40 229,35 " style="fill:#15d815; stroke-width:1; stroke:black; " description="&lt;b&gt;CopciAB_479811.T0&lt;/b&gt;&lt;br&gt;CopciAB 479811.T0&lt;br&gt;Location: 2112187 - 2115168" locus_tag="CopciAB_479811.T0" class="clusterblast-orf" id="dummy-1_q7_0_all"  />
<polygon points="271,35 276,30 305,30 305,40 276,40 271,35 " style="fill:#1515d8; stroke-width:1; stroke:black; " description="&lt;b&gt;CopciAB_437330.T0&lt;/b&gt;&lt;br&gt;CopciAB 437330.T0&lt;br&gt;Location: 2115617 - 2118434" locus_tag="CopciAB_437330.T0" class="clusterblast-orf" id="dummy-1_q8_0_all"  />
<polygon points="308,35 313,30 319,30 319,40 313,40 308,35 " style="fill:#d815d8; stroke-width:1; stroke:black; " description="&lt;b&gt;CopciAB_400550.T0&lt;/b&gt;&lt;br&gt;CopciAB 400550.T0&lt;br&gt;Location: 2118626 - 2119582" locus_tag="CopciAB_400550.T0" class="clusterblast-orf" id="dummy-1_q9_0_all"  />
<polygon points="321,35 326,30 346,30 346,40 326,40 321,35 " style="fill:white; stroke-width:1; stroke:black; " description="&lt;b&gt;CopciAB_371032.T0&lt;/b&gt;&lt;br&gt;CopciAB 371032.T0&lt;br&gt;Location: 2119727 - 2121724" locus_tag="CopciAB_371032.T0" class="clusterblast-orf" id="dummy-1_q10_0_all"  />
<polygon points="354,35 359,30 427,30 427,40 359,40 354,35 " style="fill:#d8d815; stroke-width:1; stroke:black; " description="&lt;b&gt;CopciAB_14244.T0&lt;/b&gt;&lt;br&gt;CopciAB 14244.T0&lt;br&gt;Location: 2122378 - 2128385" locus_tag="CopciAB_14244.T0" class="clusterblast-orf" id="dummy-1_q11_0_all"  />
<polygon points="435,35 440,30 447,30 447,40 440,40 435,35 " style="fill:#15d8d8; stroke-width:1; stroke:black; " description="&lt;b&gt;CopciAB_14270.T0&lt;/b&gt;&lt;br&gt;CopciAB 14270.T0&lt;br&gt;Location: 2129063 - 2130034" locus_tag="CopciAB_14270.T0" class="clusterblast-orf" id="dummy-1_q12_0_all"  />
<polygon points="444,35 445,30 445,40 444,35 " style="fill:white; stroke-width:1; stroke:black; " description="&lt;b&gt;CopciAB_14270.T1&lt;/b&gt;&lt;br&gt;CopciAB 14270.T1&lt;br&gt;Location: 2129742 - 2129900" locus_tag="CopciAB_14270.T1" class="clusterblast-orf" id="dummy-1_q13_0_all"  />
<polygon points="455,40 477,40 482,35 477,30 455,30 455,40 " style="fill:white; stroke-width:1; stroke:black; " description="&lt;b&gt;CopciAB_1001423.T0&lt;/b&gt;&lt;br&gt;CopciAB 1001423.T0&lt;br&gt;Location: 2130659 - 2132871" locus_tag="CopciAB_1001423.T0" class="clusterblast-orf" id="dummy-1_q14_0_all"  />
<polygon points="488,40 501,40 506,35 501,30 488,30 488,40 " style="fill:white; stroke-width:1; stroke:black; " description="&lt;b&gt;CopciAB_14289.T1&lt;/b&gt;&lt;br&gt;CopciAB 14289.T1&lt;br&gt;Location: 2133369 - 2134890" locus_tag="CopciAB_14289.T1" class="clusterblast-orf" id="dummy-1_q15_0_all"  />
<polygon points="507,35 512,30 525,30 525,40 512,40 507,35 " style="fill:white; stroke-width:1; stroke:black; " description="&lt;b&gt;CopciAB_371009.T0&lt;/b&gt;&lt;br&gt;CopciAB 371009.T0&lt;br&gt;Location: 2134905 - 2136408" locus_tag="CopciAB_371009.T0" class="clusterblast-orf" id="dummy-1_q16_0_all"  />
<polygon points="530,35 535,30 548,30 548,40 535,40 530,35 " style="fill:white; stroke-width:1; stroke:black; " description="&lt;b&gt;CopciAB_479819.T0&lt;/b&gt;&lt;br&gt;CopciAB 479819.T0&lt;br&gt;Location: 2136781 - 2138320" locus_tag="CopciAB_479819.T0" class="clusterblast-orf" id="dummy-1_q17_0_all"  />
<polygon points="552,40 566,40 571,35 566,30 552,30 552,40 " style="fill:white; stroke-width:1; stroke:black; " description="&lt;b&gt;CopciAB_437340.T0&lt;/b&gt;&lt;br&gt;CopciAB 437340.T0&lt;br&gt;Location: 2138643 - 2140134" locus_tag="CopciAB_437340.T0" class="clusterblast-orf" id="dummy-1_q18_0_all"  />
<polygon points="584,40 611,40 616,35 611,30 584,30 584,40 " style="fill:white; stroke-width:1; stroke:black; " description="&lt;b&gt;CopciAB_499021.T0&lt;/b&gt;&lt;br&gt;CopciAB 499021.T0&lt;br&gt;Location: 2141199 - 2143880" locus_tag="CopciAB_499021.T0" class="clusterblast-orf" id="dummy-1_q19_0_all"  />
<polygon points="635,35 640,30 652,30 652,40 640,40 635,35 " style="fill:white; stroke-width:1; stroke:black; " description="&lt;b&gt;CopciAB_447960.T0&lt;/b&gt;&lt;br&gt;CopciAB 447960.T0&lt;br&gt;Location: 2145391 - 2146814" locus_tag="CopciAB_447960.T0" class="clusterblast-orf" id="dummy-1_q20_0_all"  />
<polygon points="666,40 671,40 676,35 671,30 666,30 666,40 " style="fill:white; stroke-width:1; stroke:black; " description="&lt;b&gt;CopciAB_503824.T0&lt;/b&gt;&lt;br&gt;CopciAB 503824.T0&lt;br&gt;Location: 2147951 - 2148757" locus_tag="CopciAB_503824.T0" class="clusterblast-orf" id="dummy-1_q21_0_all"  />
<polygon points="686,40 696,40 701,35 696,30 686,30 686,40 " style="fill:white; stroke-width:1; stroke:black; " description="&lt;b&gt;CopciAB_503823.T0&lt;/b&gt;&lt;br&gt;CopciAB 503823.T0&lt;br&gt;Location: 2149577 - 2150788" locus_tag="CopciAB_503823.T0" class="clusterblast-orf" id="dummy-1_q22_0_all"  />
<polygon points="705,35 710,30 723,30 723,40 710,40 705,35 " style="fill:white; stroke-width:1; stroke:black; " description="&lt;b&gt;CopciAB_503822.T0&lt;/b&gt;&lt;br&gt;CopciAB 503822.T0&lt;br&gt;Location: 2151129 - 2152579" locus_tag="CopciAB_503822.T0" class="clusterblast-orf" id="dummy-1_q23_0_all"  />
<polygon points="745,35 750,30 754,30 754,40 750,40 745,35 " style="fill:white; stroke-width:1; stroke:black; " description="&lt;b&gt;CopciAB_492429.T1&lt;/b&gt;&lt;br&gt;CopciAB 492429.T1&lt;br&gt;Location: 2154421 - 2155152" locus_tag="CopciAB_492429.T1" class="clusterblast-orf" id="dummy-1_q24_0_all"  />
<polygon points="745,35 745,30 745,40 745,35 " style="fill:white; stroke-width:1; stroke:black; " description="&lt;b&gt;CopciAB_492429.T0&lt;/b&gt;&lt;br&gt;CopciAB 492429.T0&lt;br&gt;Location: 2154428 - 2154432" locus_tag="CopciAB_492429.T0" class="clusterblast-orf" id="dummy-1_q25_0_all"  />
<polygon points="746,35 751,30 760,30 760,40 751,40 746,35 " style="fill:white; stroke-width:1; stroke:black; " description="&lt;b&gt;CopciAB_492429.T2&lt;/b&gt;&lt;br&gt;CopciAB 492429.T2&lt;br&gt;Location: 2154494 - 2155646" locus_tag="CopciAB_492429.T2" class="clusterblast-orf" id="dummy-1_q26_0_all"  />
<polygon points="766,35 771,30 780,30 780,40 771,40 766,35 " style="fill:white; stroke-width:1; stroke:black; " description="&lt;b&gt;CopciAB_1001424.T0&lt;/b&gt;&lt;br&gt;CopciAB 1001424.T0&lt;br&gt;Location: 2156150 - 2157249" locus_tag="CopciAB_1001424.T0" class="clusterblast-orf" id="dummy-1_q27_0_all"  />
</g>
<g label="NW_003315669" description="NW_003315669 (2794663-2840439): Schizophyllum commune H4-8 unplaced genomic s... (33% of genes show similarity), NRPS-like" class="clusterblast-cluster"  >
<text x="5" y="70" class="clusterblast-acc"  >
<a xlink:href="https://antismash-db.secondarymetabolites.org/area.html?record=NW_003315669&amp;start=2794663&amp;end=2840439" target="_blank">NW_003315669 (2794663-2840439)</a>: Schizophyllum commune H4-8 unplaced genomic s... (33% of genes show similarity), NRPS-like</text>
<line x1="10" y1="85" x2="778.0" y2="85" style="stroke-width:1; stroke:grey; "  />
</g>
<g id="a1_000"  >
<polygon points="115,90 135,90 140,85 135,80 115,80 115,90 " style="fill:white; stroke-width:1; stroke:black; " description="&lt;b&gt;SCHCODRAFT_76267&lt;/b&gt;&lt;br&gt;uncharacterized protein&lt;br&gt;Location: 2794827 - 2796836" locus_tag="SCHCODRAFT_76267" class="clusterblast-orf" id="dummy-1_h1_2_0"  />
</g>
<g id="a1_001"  >
<polygon points="184,90 186,90 191,85 186,80 184,80 184,90 " style="fill:white; stroke-width:1; stroke:black; " description="&lt;b&gt;SCHCODRAFT_85082&lt;/b&gt;&lt;br&gt;uncharacterized protein&lt;br&gt;Location: 2800470 - 2801043" locus_tag="SCHCODRAFT_85082" class="clusterblast-orf" id="dummy-1_h1_2_1"  />
</g>
<g id="a1_002"  >
<polygon points="215,85 220,80 230,80 230,90 220,90 215,85 " style="fill:white; stroke-width:1; stroke:black; " description="&lt;b&gt;SCHCODRAFT_108421&lt;/b&gt;&lt;br&gt;uncharacterized protein&lt;br&gt;Location: 2803011 - 2804237" locus_tag="SCHCODRAFT_108421" class="clusterblast-orf" id="dummy-1_h1_2_2"  />
</g>
<g id="a1_003"  >
<polygon points="238,90 313,90 318,85 313,80 238,80 238,90 " style="fill:white; stroke-width:1; stroke:black; " description="&lt;b&gt;SCHCODRAFT_53770&lt;/b&gt;&lt;br&gt;uncharacterized protein&lt;br&gt;Location: 2804872 - 2811445" locus_tag="SCHCODRAFT_53770" class="clusterblast-orf" id="dummy-1_h1_2_3"  />
</g>
<g id="a1_004"  >
<polygon points="324,90 345,90 350,85 345,80 324,80 324,90 " style="fill:#15d815; stroke-width:1; stroke:black; " description="&lt;b&gt;SCHCODRAFT_53861&lt;/b&gt;&lt;br&gt;uncharacterized protein&lt;br&gt;Location: 2811925 - 2814101&lt;br&gt;&lt;br&gt;&lt;b&gt;BlastP hit with CopciAB_479811.T0&lt;/b&gt;&lt;br&gt;Percentage identity: 75&lt;br&gt;Percentage coverage: 72&lt;br&gt;BLAST bit score: 522&lt;br&gt;E-value: 3.47e-184" locus_tag="SCHCODRAFT_53861" class="clusterblast-orf" id="dummy-1_h1_2_4"  />
</g>
<g id="a1_005"  >
<polygon points="357,85 362,80 428,80 428,90 362,90 357,85 " style="fill:#d8d815; stroke-width:1; stroke:black; " description="&lt;b&gt;SCHCODRAFT_67624&lt;/b&gt;&lt;br&gt;uncharacterized protein&lt;br&gt;Location: 2814664 - 2820439&lt;br&gt;&lt;br&gt;&lt;b&gt;BlastP hit with CopciAB_14244.T0&lt;/b&gt;&lt;br&gt;Percentage identity: 57&lt;br&gt;Percentage coverage: 93&lt;br&gt;BLAST bit score: 1762&lt;br&gt;E-value: 0.0" locus_tag="SCHCODRAFT_67624" class="clusterblast-orf" id="dummy-1_h1_2_5"  />
</g>
<g id="a1_006"  >
<polygon points="463,85 468,80 477,80 477,90 468,90 463,85 " style="fill:#15d8d8; stroke-width:1; stroke:black; " description="&lt;b&gt;SCHCODRAFT_108425&lt;/b&gt;&lt;br&gt;uncharacterized protein&lt;br&gt;Location: 2823331 - 2824451&lt;br&gt;&lt;br&gt;&lt;b&gt;BlastP hit with CopciAB_14270.T0&lt;/b&gt;&lt;br&gt;Percentage identity: 51&lt;br&gt;Percentage coverage: 81&lt;br&gt;BLAST bit score: 181&lt;br&gt;E-value: 7.05e-55" locus_tag="SCHCODRAFT_108425" class="clusterblast-orf" id="dummy-1_h1_2_6"  />
</g>
<g id="a1_007"  >
<polygon points="510,85 515,80 520,80 520,90 515,90 510,85 " style="fill:white; stroke-width:1; stroke:black; " description="&lt;b&gt;SCHCODRAFT_108426&lt;/b&gt;&lt;br&gt;uncharacterized protein&lt;br&gt;Location: 2827124 - 2827960" locus_tag="SCHCODRAFT_108426" class="clusterblast-orf" id="dummy-1_h1_2_7"  />
</g>
<g id="a1_008"  >
<polygon points="532,90 546,90 551,85 546,80 532,80 532,90 " style="fill:white; stroke-width:1; stroke:black; " description="&lt;b&gt;SCHCODRAFT_108427&lt;/b&gt;&lt;br&gt;uncharacterized protein&lt;br&gt;Location: 2828930 - 2830478" locus_tag="SCHCODRAFT_108427" class="clusterblast-orf" id="dummy-1_h1_2_8"  />
</g>
<g id="a1_009"  >
<polygon points="557,90 565,90 570,85 565,80 557,80 557,90 " style="fill:white; stroke-width:1; stroke:black; " description="&lt;b&gt;SCHCODRAFT_108428&lt;/b&gt;&lt;br&gt;uncharacterized protein&lt;br&gt;Location: 2830994 - 2832080" locus_tag="SCHCODRAFT_108428" class="clusterblast-orf" id="dummy-1_h1_2_9"  />
</g>
<g id="a1_0010"  >
<polygon points="606,85 611,80 618,80 618,90 611,90 606,85 " style="fill:#15d8d8; stroke-width:1; stroke:black; " description="&lt;b&gt;SCHCODRAFT_54368&lt;/b&gt;&lt;br&gt;uncharacterized protein&lt;br&gt;Location: 2834983 - 2835980&lt;br&gt;&lt;br&gt;&lt;b&gt;BlastP hit with CopciAB_14270.T0&lt;/b&gt;&lt;br&gt;Percentage identity: 45&lt;br&gt;Percentage coverage: 79&lt;br&gt;BLAST bit score: 141&lt;br&gt;E-value: 8.46e-40" locus_tag="SCHCODRAFT_54368" class="clusterblast-orf" id="dummy-1_h1_2_10"  />
</g>
<g id="a1_0011"  >
<polygon points="644,85 649,80 664,80 664,90 649,90 644,85 " style="fill:white; stroke-width:1; stroke:black; " description="&lt;b&gt;SCHCODRAFT_108430&lt;/b&gt;&lt;br&gt;uncharacterized protein&lt;br&gt;Location: 2838097 - 2839764" locus_tag="SCHCODRAFT_108430" class="clusterblast-orf" id="dummy-1_h1_2_11"  />
</g>
</svg>
