<svg xmlns="http://www.w3.org/2000/svg" xmlns:xlink="http://www.w3.org/1999/xlink" version="1.1" x="0" y="0" height="230" width="800" viewBox="0 0 800 230" preserveAspectRatio="none"  >
<g label="Query sequence" class="clusterblast-cluster"  >
<text x="5" y="20" class="clusterblast-acc"  >
Query sequence</text>
<line x1="10" y1="35" x2="778.0" y2="35" style="stroke-width:1; stroke:grey; "  />
<polygon points="277,40 277,40 282,35 277,30 277,30 277,40 " style="fill:white; stroke-width:1; stroke:black; " description="&lt;b&gt;CopciAB_371128.T0&lt;/b&gt;&lt;br&gt;CopciAB 371128.T0&lt;br&gt;Location: 421853 - 423203" locus_tag="CopciAB_371128.T0" class="clusterblast-orf" id="dummy-1_q0_0_all"  />
<polygon points="284,40 290,40 295,35 290,30 284,30 284,40 " style="fill:white; stroke-width:1; stroke:black; " description="&lt;b&gt;CopciAB_15443.T0&lt;/b&gt;&lt;br&gt;CopciAB 15443.T0&lt;br&gt;Location: 423953 - 426878" locus_tag="CopciAB_15443.T0" class="clusterblast-orf" id="dummy-1_q1_0_all"  />
<polygon points="296,40 308,40 313,35 308,30 296,30 296,40 " style="fill:white; stroke-width:1; stroke:black; " description="&lt;b&gt;CopciAB_371141.T0&lt;/b&gt;&lt;br&gt;CopciAB 371141.T0&lt;br&gt;Location: 427240 - 432121" locus_tag="CopciAB_371141.T0" class="clusterblast-orf" id="dummy-1_q2_0_all"  />
<polygon points="317,40 320,35 317,30 317,40 " style="fill:white; stroke-width:1; stroke:black; " description="&lt;b&gt;CopciAB_499066.T0&lt;/b&gt;&lt;br&gt;CopciAB 499066.T0&lt;br&gt;Location: 433289 - 433957" locus_tag="CopciAB_499066.T0" class="clusterblast-orf" id="dummy-1_q3_0_all"  />
<polygon points="322,40 325,40 330,35 325,30 322,30 322,40 " style="fill:white; stroke-width:1; stroke:black; " description="&lt;b&gt;CopciAB_462172.T0&lt;/b&gt;&lt;br&gt;CopciAB 462172.T0&lt;br&gt;Location: 434519 - 436842" locus_tag="CopciAB_462172.T0" class="clusterblast-orf" id="dummy-1_q4_0_all"  />
<polygon points="334,35 338,30 338,40 334,35 " style="fill:white; stroke-width:1; stroke:black; " description="&lt;b&gt;CopciAB_371191.T0&lt;/b&gt;&lt;br&gt;CopciAB 371191.T0&lt;br&gt;Location: 438018 - 439147" locus_tag="CopciAB_371191.T0" class="clusterblast-orf" id="dummy-1_q5_0_all"  />
<polygon points="335,35 335,30 335,40 335,35 " style="fill:white; stroke-width:1; stroke:black; " description="&lt;b&gt;CopciAB_371191.T1&lt;/b&gt;&lt;br&gt;CopciAB 371191.T1&lt;br&gt;Location: 438368 - 438422" locus_tag="CopciAB_371191.T1" class="clusterblast-orf" id="dummy-1_q6_0_all"  />
<polygon points="338,35 339,30 339,40 338,35 " style="fill:white; stroke-width:1; stroke:black; " description="&lt;b&gt;CopciAB_371135.T0&lt;/b&gt;&lt;br&gt;CopciAB 371135.T0&lt;br&gt;Location: 439214 - 439628" locus_tag="CopciAB_371135.T0" class="clusterblast-orf" id="dummy-1_q7_0_all"  />
<polygon points="344,35 345,30 345,40 344,35 " style="fill:white; stroke-width:1; stroke:black; " description="&lt;b&gt;CopciAB_1002281.T0&lt;/b&gt;&lt;br&gt;CopciAB 1002281.T0&lt;br&gt;Location: 440768 - 441083" locus_tag="CopciAB_1002281.T0" class="clusterblast-orf" id="dummy-1_q8_0_all"  />
<polygon points="349,40 353,40 358,35 353,30 349,30 349,40 " style="fill:white; stroke-width:1; stroke:black; " description="&lt;b&gt;CopciAB_1002282.T0&lt;/b&gt;&lt;br&gt;CopciAB 1002282.T0&lt;br&gt;Location: 442404 - 444945" locus_tag="CopciAB_1002282.T0" class="clusterblast-orf" id="dummy-1_q9_0_all"  />
<polygon points="362,40 364,40 369,35 364,30 362,30 362,40 " style="fill:white; stroke-width:1; stroke:black; " description="&lt;b&gt;CopciAB_371185.T0&lt;/b&gt;&lt;br&gt;CopciAB 371185.T0&lt;br&gt;Location: 445952 - 448093" locus_tag="CopciAB_371185.T0" class="clusterblast-orf" id="dummy-1_q10_0_all"  />
<polygon points="371,35 376,30 376,30 376,40 376,40 371,35 " style="fill:#d81515; stroke-width:1; stroke:black; " description="&lt;b&gt;CopciAB_437423.T0&lt;/b&gt;&lt;br&gt;CopciAB 437423.T0&lt;br&gt;Location: 448582 - 449891" locus_tag="CopciAB_437423.T0" class="clusterblast-orf" id="dummy-1_q11_0_all"  />
<polygon points="378,40 402,40 407,35 402,30 378,30 378,40 " style="fill:#15d8d8; stroke-width:1; stroke:black; " description="&lt;b&gt;CopciAB_437425.T0&lt;/b&gt;&lt;br&gt;CopciAB 437425.T0&lt;br&gt;Location: 450566 - 458706" locus_tag="CopciAB_437425.T0" class="clusterblast-orf" id="dummy-1_q12_0_all"  />
<polygon points="410,35 412,30 412,40 410,35 " style="fill:white; stroke-width:1; stroke:black; " description="&lt;b&gt;CopciAB_1002283.T0&lt;/b&gt;&lt;br&gt;CopciAB 1002283.T0&lt;br&gt;Location: 459534 - 460198" locus_tag="CopciAB_1002283.T0" class="clusterblast-orf" id="dummy-1_q13_0_all"  />
<polygon points="429,35 431,30 431,40 429,35 " style="fill:white; stroke-width:1; stroke:black; " description="&lt;b&gt;CopciAB_1002284.T0&lt;/b&gt;&lt;br&gt;CopciAB 1002284.T0&lt;br&gt;Location: 464996 - 465772" locus_tag="CopciAB_1002284.T0" class="clusterblast-orf" id="dummy-1_q14_0_all"  />
<polygon points="451,35 455,30 455,40 451,35 " style="fill:white; stroke-width:1; stroke:black; " description="&lt;b&gt;CopciAB_1002285.T0&lt;/b&gt;&lt;br&gt;CopciAB 1002285.T0&lt;br&gt;Location: 471290 - 472430" locus_tag="CopciAB_1002285.T0" class="clusterblast-orf" id="dummy-1_q15_0_all"  />
<polygon points="458,40 462,35 458,30 458,40 " style="fill:white; stroke-width:1; stroke:black; " description="&lt;b&gt;CopciAB_532638.T0&lt;/b&gt;&lt;br&gt;CopciAB 532638.T0&lt;br&gt;Location: 473318 - 474574" locus_tag="CopciAB_532638.T0" class="clusterblast-orf" id="dummy-1_q16_0_all"  />
<polygon points="467,40 474,40 479,35 474,30 467,30 467,40 " style="fill:white; stroke-width:1; stroke:black; " description="&lt;b&gt;CopciAB_444333.T0&lt;/b&gt;&lt;br&gt;CopciAB 444333.T0&lt;br&gt;Location: 475843 - 479279" locus_tag="CopciAB_444333.T0" class="clusterblast-orf" id="dummy-1_q17_0_all"  />
<polygon points="479,35 484,30 484,30 484,40 484,40 479,35 " style="fill:white; stroke-width:1; stroke:black; " description="&lt;b&gt;CopciAB_444334.T0&lt;/b&gt;&lt;br&gt;CopciAB 444334.T0&lt;br&gt;Location: 479365 - 480691" locus_tag="CopciAB_444334.T0" class="clusterblast-orf" id="dummy-1_q18_0_all"  />
<polygon points="486,35 491,30 502,30 502,40 491,40 486,35 " style="fill:white; stroke-width:1; stroke:black; " description="&lt;b&gt;CopciAB_444335.T0&lt;/b&gt;&lt;br&gt;CopciAB 444335.T0&lt;br&gt;Location: 481168 - 485844" locus_tag="CopciAB_444335.T0" class="clusterblast-orf" id="dummy-1_q19_0_all"  />
</g>
<g label="NZ_CP020567" description="NZ_CP020567 (5580392-5802131): Kitasatospora aureofaciens strain DM-1 chromos... (4% of genes show similarity), NRPS,NRPS-like,T1PKS,T3PKS" class="clusterblast-cluster"  >
<text x="5" y="70" class="clusterblast-acc"  >
<a xlink:href="https://antismash-db.secondarymetabolites.org/area.html?record=NZ_CP020567&amp;start=5580392&amp;end=5802131" target="_blank">NZ_CP020567 (5580392-5802131)</a>: Kitasatospora aureofaciens strain DM-1 chromos... (4% of genes show similarity), NRPS,NRPS-like,T1PKS,T3PKS</text>
<line x1="10" y1="85" x2="778.0" y2="85" style="stroke-width:1; stroke:grey; "  />
</g>
<g id="a1_000"  >
<polygon points="0,90 1,85 0,80 0,90 " style="fill:white; stroke-width:1; stroke:black; " description="&lt;b&gt;B6264_RS24920&lt;/b&gt;&lt;br&gt;SigE family RNA polymerase sigma factor&lt;br&gt;Location: 5580491 - 5581003" locus_tag="B6264_RS24920" class="clusterblast-orf" id="dummy-1_h1_1_0"  />
</g>
<g id="a1_001"  >
<polygon points="1,90 4,85 1,80 1,90 " style="fill:white; stroke-width:1; stroke:black; " description="&lt;b&gt;B6264_RS24925&lt;/b&gt;&lt;br&gt;hypothetical protein&lt;br&gt;Location: 5580996 - 5581838" locus_tag="B6264_RS24925" class="clusterblast-orf" id="dummy-1_h1_1_1"  />
</g>
<g id="a1_002"  >
<polygon points="5,85 8,80 8,90 5,85 " style="fill:white; stroke-width:1; stroke:black; " description="&lt;b&gt;B6264_RS24935&lt;/b&gt;&lt;br&gt;zinc-binding dehydrogenase&lt;br&gt;Location: 5582127 - 5582882" locus_tag="B6264_RS24935" class="clusterblast-orf" id="dummy-1_h1_1_2"  />
</g>
<g id="a1_003"  >
<polygon points="8,90 10,85 8,80 8,90 " style="fill:white; stroke-width:1; stroke:black; " description="&lt;b&gt;B6264_RS24940&lt;/b&gt;&lt;br&gt;transposase&lt;br&gt;Location: 5582888 - 5583408" locus_tag="B6264_RS24940" class="clusterblast-orf" id="dummy-1_h1_1_3"  />
</g>
<g id="a1_004"  >
<polygon points="11,90 12,90 17,85 12,80 11,80 11,90 " style="fill:white; stroke-width:1; stroke:black; " description="&lt;b&gt;B6264_RS24945&lt;/b&gt;&lt;br&gt;alpha-galactosidase&lt;br&gt;Location: 5583689 - 5585356" locus_tag="B6264_RS24945" class="clusterblast-orf" id="dummy-1_h1_1_4"  />
</g>
<g id="a1_005"  >
<polygon points="18,85 20,80 20,90 18,85 " style="fill:white; stroke-width:1; stroke:black; " description="&lt;b&gt;B6264_RS24950&lt;/b&gt;&lt;br&gt;response regulator transcription factor&lt;br&gt;Location: 5585626 - 5586276" locus_tag="B6264_RS24950" class="clusterblast-orf" id="dummy-1_h1_1_5"  />
</g>
<g id="a1_006"  >
<polygon points="20,85 24,80 24,90 20,85 " style="fill:white; stroke-width:1; stroke:black; " description="&lt;b&gt;B6264_RS24955&lt;/b&gt;&lt;br&gt;two-component sensor histidine kinase&lt;br&gt;Location: 5586273 - 5587475" locus_tag="B6264_RS24955" class="clusterblast-orf" id="dummy-1_h1_1_6"  />
</g>
<g id="a1_007"  >
<polygon points="25,90 27,85 25,80 25,90 " style="fill:white; stroke-width:1; stroke:black; " description="&lt;b&gt;B6264_RS24960&lt;/b&gt;&lt;br&gt;VanZ family protein&lt;br&gt;Location: 5587633 - 5588214" locus_tag="B6264_RS24960" class="clusterblast-orf" id="dummy-1_h1_1_7"  />
</g>
<g id="a1_008"  >
<polygon points="30,90 30,85 30,80 30,90 " style="fill:white; stroke-width:1; stroke:black; " description="&lt;b&gt;B6264_RS24965&lt;/b&gt;&lt;br&gt;hypothetical protein&lt;br&gt;Location: 5589020 - 5589202" locus_tag="B6264_RS24965" class="clusterblast-orf" id="dummy-1_h1_1_8"  />
</g>
<g id="a1_009"  >
<polygon points="30,85 33,80 33,90 30,85 " style="fill:white; stroke-width:1; stroke:black; " description="&lt;b&gt;B6264_RS24970&lt;/b&gt;&lt;br&gt;helix-turn-helix transcriptional regulator&lt;br&gt;Location: 5589297 - 5589869" locus_tag="B6264_RS24970" class="clusterblast-orf" id="dummy-1_h1_1_9"  />
</g>
<g id="a1_0010"  >
<polygon points="33,90 34,85 33,80 33,90 " style="fill:white; stroke-width:1; stroke:black; " description="&lt;b&gt;B6264_RS24975&lt;/b&gt;&lt;br&gt;nuclear transport factor 2 family protein&lt;br&gt;Location: 5589991 - 5590431" locus_tag="B6264_RS24975" class="clusterblast-orf" id="dummy-1_h1_1_10"  />
</g>
<g id="a1_0011"  >
<polygon points="35,85 37,80 37,90 35,85 " style="fill:white; stroke-width:1; stroke:black; " description="&lt;b&gt;B6264_RS24980&lt;/b&gt;&lt;br&gt;IS982 family transposase&lt;br&gt;Location: 5590437 - 5591219" locus_tag="B6264_RS24980" class="clusterblast-orf" id="dummy-1_h1_1_11"  />
</g>
<g id="a1_0012"  >
<polygon points="37,85 38,80 38,90 37,85 " style="fill:white; stroke-width:1; stroke:black; " description="&lt;b&gt;B6264_RS24985&lt;/b&gt;&lt;br&gt;transposase&lt;br&gt;Location: 5591243 - 5591518" locus_tag="B6264_RS24985" class="clusterblast-orf" id="dummy-1_h1_1_12"  />
</g>
<g id="a1_0013"  >
<polygon points="39,90 39,85 39,80 39,90 " style="fill:white; stroke-width:1; stroke:black; " description="&lt;b&gt;B6264_RS24990&lt;/b&gt;&lt;br&gt;IS110 family transposase&lt;br&gt;Location: 5591624 - 5591752" locus_tag="B6264_RS24990" class="clusterblast-orf" id="dummy-1_h1_1_13"  />
</g>
<g id="a1_0014"  >
<polygon points="39,85 42,80 42,90 39,85 " style="fill:white; stroke-width:1; stroke:black; " description="&lt;b&gt;B6264_RS24995&lt;/b&gt;&lt;br&gt;transposase&lt;br&gt;Location: 5591774 - 5592477" locus_tag="B6264_RS24995" class="clusterblast-orf" id="dummy-1_h1_1_14"  />
</g>
<g id="a1_0015"  >
<polygon points="46,90 46,90 51,85 46,80 46,80 46,90 " style="fill:white; stroke-width:1; stroke:black; " description="&lt;b&gt;B6264_RS25005&lt;/b&gt;&lt;br&gt;hypothetical protein&lt;br&gt;Location: 5593564 - 5595186" locus_tag="B6264_RS25005" class="clusterblast-orf" id="dummy-1_h1_1_15"  />
</g>
<g id="a1_0016"  >
<polygon points="53,90 54,85 53,80 53,90 " style="fill:white; stroke-width:1; stroke:black; " description="&lt;b&gt;B6264_RS25010&lt;/b&gt;&lt;br&gt;helix-turn-helix domain-containing protein&lt;br&gt;Location: 5595776 - 5595985" locus_tag="B6264_RS25010" class="clusterblast-orf" id="dummy-1_h1_1_16"  />
</g>
<g id="a1_0017"  >
<polygon points="55,85 56,80 56,90 55,85 " style="fill:white; stroke-width:1; stroke:black; " description="&lt;b&gt;B6264_RS25015&lt;/b&gt;&lt;br&gt;MbtH family protein&lt;br&gt;Location: 5596324 - 5596536" locus_tag="B6264_RS25015" class="clusterblast-orf" id="dummy-1_h1_1_17"  />
</g>
<g id="a1_0018"  >
<polygon points="56,85 58,80 58,90 56,85 " style="fill:white; stroke-width:1; stroke:black; " description="&lt;b&gt;B6264_RS25020&lt;/b&gt;&lt;br&gt;cysteine dioxygenase family protein&lt;br&gt;Location: 5596656 - 5597237" locus_tag="B6264_RS25020" class="clusterblast-orf" id="dummy-1_h1_1_18"  />
</g>
<g id="a1_0019"  >
<polygon points="59,85 63,80 63,90 59,85 " style="fill:white; stroke-width:1; stroke:black; " description="&lt;b&gt;B6264_RS25025&lt;/b&gt;&lt;br&gt;cysteate synthase&lt;br&gt;Location: 5597328 - 5598674" locus_tag="B6264_RS25025" class="clusterblast-orf" id="dummy-1_h1_1_19"  />
</g>
<g id="a1_0020"  >
<polygon points="65,90 69,85 65,80 65,90 " style="fill:white; stroke-width:1; stroke:black; " description="&lt;b&gt;B6264_RS25030&lt;/b&gt;&lt;br&gt;PLP-dependent aminotransferase family protein&lt;br&gt;Location: 5599048 - 5600373" locus_tag="B6264_RS25030" class="clusterblast-orf" id="dummy-1_h1_1_20"  />
</g>
<g id="a1_0021"  >
<polygon points="70,90 73,85 70,80 70,90 " style="fill:white; stroke-width:1; stroke:black; " description="&lt;b&gt;B6264_RS25035&lt;/b&gt;&lt;br&gt;type III polyketide synthase&lt;br&gt;Location: 5600393 - 5601475" locus_tag="B6264_RS25035" class="clusterblast-orf" id="dummy-1_h1_1_21"  />
</g>
<g id="a1_0022"  >
<polygon points="74,90 76,85 74,80 74,90 " style="fill:white; stroke-width:1; stroke:black; " description="&lt;b&gt;B6264_RS25040&lt;/b&gt;&lt;br&gt;enoyl-CoA hydratase/isomerase family protein&lt;br&gt;Location: 5601550 - 5602212" locus_tag="B6264_RS25040" class="clusterblast-orf" id="dummy-1_h1_1_22"  />
</g>
<g id="a1_0023"  >
<polygon points="76,90 76,90 81,85 76,80 76,80 76,90 " style="fill:white; stroke-width:1; stroke:black; " description="&lt;b&gt;B6264_RS25045&lt;/b&gt;&lt;br&gt;enoyl-CoA hydratase/isomerase family protein&lt;br&gt;Location: 5602221 - 5603513" locus_tag="B6264_RS25045" class="clusterblast-orf" id="dummy-1_h1_1_23"  />
</g>
<g id="a1_0024"  >
<polygon points="81,90 84,85 81,80 81,90 " style="fill:white; stroke-width:1; stroke:black; " description="&lt;b&gt;B6264_RS25050&lt;/b&gt;&lt;br&gt;enoyl-CoA hydratase&lt;br&gt;Location: 5603591 - 5604400" locus_tag="B6264_RS25050" class="clusterblast-orf" id="dummy-1_h1_1_24"  />
</g>
<g id="a1_0025"  >
<polygon points="84,90 146,90 151,85 146,80 84,80 84,90 " style="fill:white; stroke-width:1; stroke:black; " description="&lt;b&gt;B6264_RS25055&lt;/b&gt;&lt;br&gt;non-ribosomal peptide synthetase&lt;br&gt;Location: 5604491 - 5623645" locus_tag="B6264_RS25055" class="clusterblast-orf" id="dummy-1_h1_1_25"  />
</g>
<g id="a1_0026"  >
<polygon points="151,90 194,90 199,85 194,80 151,80 151,90 " style="fill:white; stroke-width:1; stroke:black; " description="&lt;b&gt;B6264_RS25060&lt;/b&gt;&lt;br&gt;non-ribosomal peptide synthetase&lt;br&gt;Location: 5623645 - 5637216" locus_tag="B6264_RS25060" class="clusterblast-orf" id="dummy-1_h1_1_26"  />
</g>
<g id="a1_0027"  >
<polygon points="203,85 207,80 207,90 203,85 " style="fill:white; stroke-width:1; stroke:black; " description="&lt;b&gt;B6264_RS25065&lt;/b&gt;&lt;br&gt;IS110 family transposase&lt;br&gt;Location: 5638382 - 5639479" locus_tag="B6264_RS25065" class="clusterblast-orf" id="dummy-1_h1_1_27"  />
</g>
<g id="a1_0028"  >
<polygon points="210,90 212,85 210,80 210,90 " style="fill:white; stroke-width:1; stroke:black; " description="&lt;b&gt;B6264_RS25075&lt;/b&gt;&lt;br&gt;hypothetical protein&lt;br&gt;Location: 5640352 - 5640930" locus_tag="B6264_RS25075" class="clusterblast-orf" id="dummy-1_h1_1_28"  />
</g>
<g id="a1_0029"  >
<polygon points="214,85 215,80 215,90 214,85 " style="fill:white; stroke-width:1; stroke:black; " description="&lt;b&gt;B6264_RS25080&lt;/b&gt;&lt;br&gt;hypothetical protein&lt;br&gt;Location: 5641343 - 5641597" locus_tag="B6264_RS25080" class="clusterblast-orf" id="dummy-1_h1_1_29"  />
</g>
<g id="a1_0030"  >
<polygon points="215,85 216,80 216,90 215,85 " style="fill:white; stroke-width:1; stroke:black; " description="&lt;b&gt;B6264_RS25085&lt;/b&gt;&lt;br&gt;hypothetical protein&lt;br&gt;Location: 5641594 - 5641932" locus_tag="B6264_RS25085" class="clusterblast-orf" id="dummy-1_h1_1_30"  />
</g>
<g id="a1_0031"  >
<polygon points="216,85 218,80 218,90 216,85 " style="fill:white; stroke-width:1; stroke:black; " description="&lt;b&gt;B6264_RS25090&lt;/b&gt;&lt;br&gt;hypothetical protein&lt;br&gt;Location: 5642152 - 5642559" locus_tag="B6264_RS25090" class="clusterblast-orf" id="dummy-1_h1_1_31"  />
</g>
<g id="a1_0032"  >
<polygon points="218,85 221,80 221,90 218,85 " style="fill:white; stroke-width:1; stroke:black; " description="&lt;b&gt;B6264_RS25095&lt;/b&gt;&lt;br&gt;alpha/beta fold hydrolase&lt;br&gt;Location: 5642565 - 5643437" locus_tag="B6264_RS25095" class="clusterblast-orf" id="dummy-1_h1_1_32"  />
</g>
<g id="a1_0033"  >
<polygon points="221,85 223,80 223,90 221,85 " style="fill:white; stroke-width:1; stroke:black; " description="&lt;b&gt;B6264_RS25100&lt;/b&gt;&lt;br&gt;helix-turn-helix transcriptional regulator&lt;br&gt;Location: 5643496 - 5643960" locus_tag="B6264_RS25100" class="clusterblast-orf" id="dummy-1_h1_1_33"  />
</g>
<g id="a1_0034"  >
<polygon points="224,85 226,80 226,90 224,85 " style="fill:white; stroke-width:1; stroke:black; " description="&lt;b&gt;B6264_RS25105&lt;/b&gt;&lt;br&gt;FadR family transcriptional regulator&lt;br&gt;Location: 5644227 - 5644922" locus_tag="B6264_RS25105" class="clusterblast-orf" id="dummy-1_h1_1_34"  />
</g>
<g id="a1_0035"  >
<polygon points="228,90 228,90 233,85 228,80 228,80 228,90 " style="fill:white; stroke-width:1; stroke:black; " description="&lt;b&gt;B6264_RS25110&lt;/b&gt;&lt;br&gt;amino acid permease&lt;br&gt;Location: 5645312 - 5646793" locus_tag="B6264_RS25110" class="clusterblast-orf" id="dummy-1_h1_1_35"  />
</g>
<g id="a1_0036"  >
<polygon points="233,90 233,90 238,85 233,80 233,80 233,90 " style="fill:white; stroke-width:1; stroke:black; " description="&lt;b&gt;B6264_RS25115&lt;/b&gt;&lt;br&gt;glutamine synthetase&lt;br&gt;Location: 5646790 - 5648148" locus_tag="B6264_RS25115" class="clusterblast-orf" id="dummy-1_h1_1_36"  />
</g>
<g id="a1_0037"  >
<polygon points="238,90 240,85 238,80 238,90 " style="fill:white; stroke-width:1; stroke:black; " description="&lt;b&gt;B6264_RS25120&lt;/b&gt;&lt;br&gt;gamma-glutamyl-gamma-aminobutyrate hydrolase family protein&lt;br&gt;Location: 5648244 - 5648921" locus_tag="B6264_RS25120" class="clusterblast-orf" id="dummy-1_h1_1_37"  />
</g>
<g id="a1_0038"  >
<polygon points="240,90 240,90 245,85 240,80 240,80 240,90 " style="fill:white; stroke-width:1; stroke:black; " description="&lt;b&gt;B6264_RS25125&lt;/b&gt;&lt;br&gt;aldehyde dehydrogenase&lt;br&gt;Location: 5648918 - 5650291" locus_tag="B6264_RS25125" class="clusterblast-orf" id="dummy-1_h1_1_38"  />
</g>
<g id="a1_0039"  >
<polygon points="245,90 248,85 245,80 245,90 " style="fill:white; stroke-width:1; stroke:black; " description="&lt;b&gt;B6264_RS25130&lt;/b&gt;&lt;br&gt;3-oxoacyl-ACP reductase&lt;br&gt;Location: 5650297 - 5651064" locus_tag="B6264_RS25130" class="clusterblast-orf" id="dummy-1_h1_1_39"  />
</g>
<g id="a1_0040"  >
<polygon points="249,90 251,90 256,85 251,80 249,80 249,90 " style="fill:white; stroke-width:1; stroke:black; " description="&lt;b&gt;B6264_RS25135&lt;/b&gt;&lt;br&gt;SMI1/KNR4 family protein&lt;br&gt;Location: 5651317 - 5653242" locus_tag="B6264_RS25135" class="clusterblast-orf" id="dummy-1_h1_1_40"  />
</g>
<g id="a1_0041"  >
<polygon points="257,85 261,80 261,90 257,85 " style="fill:white; stroke-width:1; stroke:black; " description="&lt;b&gt;B6264_RS25140&lt;/b&gt;&lt;br&gt;serine hydrolase&lt;br&gt;Location: 5653651 - 5654913" locus_tag="B6264_RS25140" class="clusterblast-orf" id="dummy-1_h1_1_41"  />
</g>
<g id="a1_0042"  >
<polygon points="262,85 266,80 266,90 262,85 " style="fill:white; stroke-width:1; stroke:black; " description="&lt;b&gt;B6264_RS25145&lt;/b&gt;&lt;br&gt;AI-2E family transporter&lt;br&gt;Location: 5655191 - 5656213" locus_tag="B6264_RS25145" class="clusterblast-orf" id="dummy-1_h1_1_42"  />
</g>
<g id="a1_0043"  >
<polygon points="267,85 268,80 268,90 267,85 " style="fill:white; stroke-width:1; stroke:black; " description="&lt;b&gt;B6264_RS25150&lt;/b&gt;&lt;br&gt;hypothetical protein&lt;br&gt;Location: 5656594 - 5656764" locus_tag="B6264_RS25150" class="clusterblast-orf" id="dummy-1_h1_1_43"  />
</g>
<g id="a1_0044"  >
<polygon points="268,90 269,85 268,80 268,90 " style="fill:white; stroke-width:1; stroke:black; " description="&lt;b&gt;B6264_RS25155&lt;/b&gt;&lt;br&gt;CsbD family protein&lt;br&gt;Location: 5656890 - 5657063" locus_tag="B6264_RS25155" class="clusterblast-orf" id="dummy-1_h1_1_44"  />
</g>
<g id="a1_0045"  >
<polygon points="270,90 272,85 270,80 270,90 " style="fill:white; stroke-width:1; stroke:black; " description="&lt;b&gt;B6264_RS25160&lt;/b&gt;&lt;br&gt;TetR/AcrR family transcriptional regulator&lt;br&gt;Location: 5657290 - 5657985" locus_tag="B6264_RS25160" class="clusterblast-orf" id="dummy-1_h1_1_45"  />
</g>
<g id="a1_0046"  >
<polygon points="273,90 277,85 273,80 273,90 " style="fill:white; stroke-width:1; stroke:black; " description="&lt;b&gt;B6264_RS25165&lt;/b&gt;&lt;br&gt;FAD-dependent monooxygenase&lt;br&gt;Location: 5658255 - 5659397" locus_tag="B6264_RS25165" class="clusterblast-orf" id="dummy-1_h1_1_46"  />
</g>
<g id="a1_0047"  >
<polygon points="277,90 280,85 277,80 277,90 " style="fill:white; stroke-width:1; stroke:black; " description="&lt;b&gt;B6264_RS25170&lt;/b&gt;&lt;br&gt;alpha/beta hydrolase&lt;br&gt;Location: 5659469 - 5660206" locus_tag="B6264_RS25170" class="clusterblast-orf" id="dummy-1_h1_1_47"  />
</g>
<g id="a1_0048"  >
<polygon points="281,85 282,80 282,90 281,85 " style="fill:white; stroke-width:1; stroke:black; " description="&lt;b&gt;B6264_RS25175&lt;/b&gt;&lt;br&gt;ATP-binding protein&lt;br&gt;Location: 5660407 - 5660892" locus_tag="B6264_RS25175" class="clusterblast-orf" id="dummy-1_h1_1_48"  />
</g>
<g id="a1_0049"  >
<polygon points="283,85 283,80 283,90 283,85 " style="fill:white; stroke-width:1; stroke:black; " description="&lt;b&gt;B6264_RS32835&lt;/b&gt;&lt;br&gt;hypothetical protein&lt;br&gt;Location: 5661009 - 5661188" locus_tag="B6264_RS32835" class="clusterblast-orf" id="dummy-1_h1_1_49"  />
</g>
<g id="a1_0050"  >
<polygon points="284,85 286,80 286,90 284,85 " style="fill:white; stroke-width:1; stroke:black; " description="&lt;b&gt;B6264_RS25180&lt;/b&gt;&lt;br&gt;hypothetical protein&lt;br&gt;Location: 5661247 - 5661771" locus_tag="B6264_RS25180" class="clusterblast-orf" id="dummy-1_h1_1_50"  />
</g>
<g id="a1_0051"  >
<polygon points="288,85 292,80 292,90 288,85 " style="fill:white; stroke-width:1; stroke:black; " description="&lt;b&gt;B6264_RS25185&lt;/b&gt;&lt;br&gt;hypothetical protein&lt;br&gt;Location: 5662345 - 5663598" locus_tag="B6264_RS25185" class="clusterblast-orf" id="dummy-1_h1_1_51"  />
</g>
<g id="a1_0052"  >
<polygon points="294,85 299,80 299,80 299,90 299,90 294,85 " style="fill:white; stroke-width:1; stroke:black; " description="&lt;b&gt;B6264_RS32840&lt;/b&gt;&lt;br&gt;hypothetical protein&lt;br&gt;Location: 5664067 - 5665677" locus_tag="B6264_RS32840" class="clusterblast-orf" id="dummy-1_h1_1_52"  />
</g>
<g id="a1_0053"  >
<polygon points="300,85 305,80 306,80 306,90 305,90 300,85 " style="fill:white; stroke-width:1; stroke:black; " description="&lt;b&gt;B6264_RS25195&lt;/b&gt;&lt;br&gt;pentachlorophenol monooxygenase&lt;br&gt;Location: 5665823 - 5667454" locus_tag="B6264_RS25195" class="clusterblast-orf" id="dummy-1_h1_1_53"  />
</g>
<g id="a1_0054"  >
<polygon points="305,90 308,85 305,80 305,90 " style="fill:white; stroke-width:1; stroke:black; " description="&lt;b&gt;B6264_RS25200&lt;/b&gt;&lt;br&gt;TetR family transcriptional regulator&lt;br&gt;Location: 5667351 - 5668016" locus_tag="B6264_RS25200" class="clusterblast-orf" id="dummy-1_h1_1_54"  />
</g>
<g id="a1_0055"  >
<polygon points="308,85 308,80 308,90 308,85 " style="fill:white; stroke-width:1; stroke:black; " description="&lt;b&gt;B6264_RS32845&lt;/b&gt;&lt;br&gt;hypothetical protein&lt;br&gt;Location: 5668027 - 5668176" locus_tag="B6264_RS32845" class="clusterblast-orf" id="dummy-1_h1_1_55"  />
</g>
<g id="a1_0056"  >
<polygon points="308,90 310,85 308,80 308,90 " style="fill:white; stroke-width:1; stroke:black; " description="&lt;b&gt;B6264_RS25205&lt;/b&gt;&lt;br&gt;hypothetical protein&lt;br&gt;Location: 5668201 - 5668605" locus_tag="B6264_RS25205" class="clusterblast-orf" id="dummy-1_h1_1_56"  />
</g>
<g id="a1_0057"  >
<polygon points="311,85 313,80 313,90 311,85 " style="fill:white; stroke-width:1; stroke:black; " description="&lt;b&gt;B6264_RS25210&lt;/b&gt;&lt;br&gt;hypothetical protein&lt;br&gt;Location: 5669130 - 5669528" locus_tag="B6264_RS25210" class="clusterblast-orf" id="dummy-1_h1_1_57"  />
</g>
<g id="a1_0058"  >
<polygon points="315,90 318,85 315,80 315,90 " style="fill:white; stroke-width:1; stroke:black; " description="&lt;b&gt;B6264_RS25215&lt;/b&gt;&lt;br&gt;GDP-mannose 4,6-dehydratase&lt;br&gt;Location: 5670001 - 5671038" locus_tag="B6264_RS25215" class="clusterblast-orf" id="dummy-1_h1_1_58"  />
</g>
<g id="a1_0059"  >
<polygon points="318,85 319,80 319,90 318,85 " style="fill:white; stroke-width:1; stroke:black; " description="&lt;b&gt;B6264_RS25220&lt;/b&gt;&lt;br&gt;hypothetical protein&lt;br&gt;Location: 5671096 - 5671413" locus_tag="B6264_RS25220" class="clusterblast-orf" id="dummy-1_h1_1_59"  />
</g>
<g id="a1_0060"  >
<polygon points="321,90 415,90 420,85 415,80 321,80 321,90 " style="fill:#15d8d8; stroke-width:1; stroke:black; " description="&lt;b&gt;B6264_RS25225&lt;/b&gt;&lt;br&gt;type I polyketide synthase&lt;br&gt;Location: 5671731 - 5700035&lt;br&gt;&lt;br&gt;&lt;b&gt;BlastP hit with CopciAB_437425.T0&lt;/b&gt;&lt;br&gt;Percentage identity: 33&lt;br&gt;Percentage coverage: 38&lt;br&gt;BLAST bit score: 340&lt;br&gt;E-value: 3.33e-91" locus_tag="B6264_RS25225" class="clusterblast-orf" id="dummy-1_h1_1_60"  />
</g>
<g id="a1_0061"  >
<polygon points="420,90 451,90 456,85 451,80 420,80 420,90 " style="fill:white; stroke-width:1; stroke:black; " description="&lt;b&gt;B6264_RS25230&lt;/b&gt;&lt;br&gt;type I polyketide synthase&lt;br&gt;Location: 5700046 - 5710275" locus_tag="B6264_RS25230" class="clusterblast-orf" id="dummy-1_h1_1_61"  />
</g>
<g id="a1_0062"  >
<polygon points="456,90 506,90 511,85 506,80 456,80 456,90 " style="fill:#15d8d8; stroke-width:1; stroke:black; " description="&lt;b&gt;B6264_RS25235&lt;/b&gt;&lt;br&gt;type I polyketide synthase&lt;br&gt;Location: 5710312 - 5725914&lt;br&gt;&lt;br&gt;&lt;b&gt;BlastP hit with CopciAB_437425.T0&lt;/b&gt;&lt;br&gt;Percentage identity: 32&lt;br&gt;Percentage coverage: 38&lt;br&gt;BLAST bit score: 334&lt;br&gt;E-value: 1.6e-89" locus_tag="B6264_RS25235" class="clusterblast-orf" id="dummy-1_h1_1_62"  />
</g>
<g id="a1_0063"  >
<polygon points="512,90 566,90 571,85 566,80 512,80 512,90 " style="fill:#d81515; stroke-width:1; stroke:black; " description="&lt;b&gt;B6264_RS25240&lt;/b&gt;&lt;br&gt;type I polyketide synthase&lt;br&gt;Location: 5726188 - 5742762&lt;br&gt;&lt;br&gt;&lt;b&gt;BlastP hit with CopciAB_437423.T0&lt;/b&gt;&lt;br&gt;Percentage identity: 32&lt;br&gt;Percentage coverage: 48&lt;br&gt;BLAST bit score: 69&lt;br&gt;E-value: 1.21e-10" locus_tag="B6264_RS25240" class="clusterblast-orf" id="dummy-1_h1_1_63"  />
</g>
<g id="a1_0064"  >
<polygon points="571,90 604,90 609,85 604,80 571,80 571,90 " style="fill:#15d8d8; stroke-width:1; stroke:black; " description="&lt;b&gt;B6264_RS32050&lt;/b&gt;&lt;br&gt;type I polyketide synthase&lt;br&gt;Location: 5742836 - 5753776&lt;br&gt;&lt;br&gt;&lt;b&gt;BlastP hit with CopciAB_437425.T0&lt;/b&gt;&lt;br&gt;Percentage identity: 31&lt;br&gt;Percentage coverage: 49&lt;br&gt;BLAST bit score: 367&lt;br&gt;E-value: 1.34e-99" locus_tag="B6264_RS32050" class="clusterblast-orf" id="dummy-1_h1_1_64"  />
</g>
<g id="a1_0065"  >
<polygon points="610,90 617,90 622,85 617,80 610,80 610,90 " style="fill:white; stroke-width:1; stroke:black; " description="&lt;b&gt;B6264_RS33345&lt;/b&gt;&lt;br&gt;SDR family NAD(P)-dependent oxidoreductase&lt;br&gt;Location: 5754049 - 5757381" locus_tag="B6264_RS33345" class="clusterblast-orf" id="dummy-1_h1_1_65"  />
</g>
<g id="a1_0066"  >
<polygon points="622,90 624,85 622,80 622,90 " style="fill:white; stroke-width:1; stroke:black; " description="&lt;b&gt;B6264_RS33350&lt;/b&gt;&lt;br&gt;hypothetical protein&lt;br&gt;Location: 5757430 - 5757903" locus_tag="B6264_RS33350" class="clusterblast-orf" id="dummy-1_h1_1_66"  />
</g>
<g id="a1_0067"  >
<polygon points="624,90 674,90 679,85 674,80 624,80 624,90 " style="fill:white; stroke-width:1; stroke:black; " description="&lt;b&gt;B6264_RS32055&lt;/b&gt;&lt;br&gt;SDR family NAD(P)-dependent oxidoreductase&lt;br&gt;Location: 5758009 - 5773548" locus_tag="B6264_RS32055" class="clusterblast-orf" id="dummy-1_h1_1_67"  />
</g>
<g id="a1_0068"  >
<polygon points="680,90 683,85 680,80 680,90 " style="fill:white; stroke-width:1; stroke:black; " description="&lt;b&gt;B6264_RS25250&lt;/b&gt;&lt;br&gt;peptide chain release factor N(5)-glutamine methyltransferase&lt;br&gt;Location: 5773767 - 5774636" locus_tag="B6264_RS25250" class="clusterblast-orf" id="dummy-1_h1_1_68"  />
</g>
<g id="a1_0069"  >
<polygon points="683,85 685,80 685,90 683,85 " style="fill:white; stroke-width:1; stroke:black; " description="&lt;b&gt;B6264_RS25255&lt;/b&gt;&lt;br&gt;GNAT family N-acetyltransferase&lt;br&gt;Location: 5774761 - 5775174" locus_tag="B6264_RS25255" class="clusterblast-orf" id="dummy-1_h1_1_69"  />
</g>
<g id="a1_0070"  >
<polygon points="685,85 688,80 688,90 685,85 " style="fill:white; stroke-width:1; stroke:black; " description="&lt;b&gt;B6264_RS25260&lt;/b&gt;&lt;br&gt;ABC transporter permease&lt;br&gt;Location: 5775299 - 5776105" locus_tag="B6264_RS25260" class="clusterblast-orf" id="dummy-1_h1_1_70"  />
</g>
<g id="a1_0071"  >
<polygon points="688,85 692,80 692,90 688,85 " style="fill:white; stroke-width:1; stroke:black; " description="&lt;b&gt;B6264_RS25265&lt;/b&gt;&lt;br&gt;ATP-binding cassette domain-containing protein&lt;br&gt;Location: 5776162 - 5777139" locus_tag="B6264_RS25265" class="clusterblast-orf" id="dummy-1_h1_1_71"  />
</g>
<g id="a1_0072"  >
<polygon points="692,85 697,80 710,80 710,90 697,90 692,85 " style="fill:white; stroke-width:1; stroke:black; " description="&lt;b&gt;B6264_RS25270&lt;/b&gt;&lt;br&gt;type I polyketide synthase&lt;br&gt;Location: 5777201 - 5782483" locus_tag="B6264_RS25270" class="clusterblast-orf" id="dummy-1_h1_1_72"  />
</g>
<g id="a1_0073"  >
<polygon points="710,85 715,80 718,80 718,90 715,90 710,85 " style="fill:white; stroke-width:1; stroke:black; " description="&lt;b&gt;B6264_RS25275&lt;/b&gt;&lt;br&gt;aminodeoxychorismate synthase component I&lt;br&gt;Location: 5782517 - 5784772" locus_tag="B6264_RS25275" class="clusterblast-orf" id="dummy-1_h1_1_73"  />
</g>
<g id="a1_0074"  >
<polygon points="719,85 721,80 721,90 719,85 " style="fill:white; stroke-width:1; stroke:black; " description="&lt;b&gt;B6264_RS25280&lt;/b&gt;&lt;br&gt;thioesterase&lt;br&gt;Location: 5784829 - 5785578" locus_tag="B6264_RS25280" class="clusterblast-orf" id="dummy-1_h1_1_74"  />
</g>
<g id="a1_0075"  >
<polygon points="721,85 722,80 722,90 721,85 " style="fill:white; stroke-width:1; stroke:black; " description="&lt;b&gt;B6264_RS25285&lt;/b&gt;&lt;br&gt;ferredoxin&lt;br&gt;Location: 5785605 - 5785799" locus_tag="B6264_RS25285" class="clusterblast-orf" id="dummy-1_h1_1_75"  />
</g>
<g id="a1_0076"  >
<polygon points="722,85 726,80 726,90 722,85 " style="fill:white; stroke-width:1; stroke:black; " description="&lt;b&gt;B6264_RS25290&lt;/b&gt;&lt;br&gt;cytochrome P450&lt;br&gt;Location: 5785886 - 5787064" locus_tag="B6264_RS25290" class="clusterblast-orf" id="dummy-1_h1_1_76"  />
</g>
<g id="a1_0077"  >
<polygon points="727,85 730,80 730,90 727,85 " style="fill:white; stroke-width:1; stroke:black; " description="&lt;b&gt;B6264_RS25295&lt;/b&gt;&lt;br&gt;DegT/DnrJ/EryC1/StrS family aminotransferase&lt;br&gt;Location: 5787131 - 5788189" locus_tag="B6264_RS25295" class="clusterblast-orf" id="dummy-1_h1_1_77"  />
</g>
<g id="a1_0078"  >
<polygon points="731,85 736,80 736,80 736,90 736,90 731,85 " style="fill:white; stroke-width:1; stroke:black; " description="&lt;b&gt;B6264_RS25300&lt;/b&gt;&lt;br&gt;glycosyltransferase family 1 protein&lt;br&gt;Location: 5788289 - 5789692" locus_tag="B6264_RS25300" class="clusterblast-orf" id="dummy-1_h1_1_78"  />
</g>
<g id="a1_0079"  >
<polygon points="739,90 741,85 739,80 739,90 " style="fill:white; stroke-width:1; stroke:black; " description="&lt;b&gt;B6264_RS25305&lt;/b&gt;&lt;br&gt;PAS domain-containing protein&lt;br&gt;Location: 5790619 - 5791197" locus_tag="B6264_RS25305" class="clusterblast-orf" id="dummy-1_h1_1_79"  />
</g>
<g id="a1_0080"  >
<polygon points="742,90 742,90 747,85 742,80 742,80 742,90 " style="fill:white; stroke-width:1; stroke:black; " description="&lt;b&gt;B6264_RS25310&lt;/b&gt;&lt;br&gt;glutamate--cysteine ligase&lt;br&gt;Location: 5791576 - 5792886" locus_tag="B6264_RS25310" class="clusterblast-orf" id="dummy-1_h1_1_80"  />
</g>
<g id="a1_0081"  >
<polygon points="747,90 748,90 753,85 748,80 747,80 747,90 " style="fill:white; stroke-width:1; stroke:black; " description="&lt;b&gt;B6264_RS25315&lt;/b&gt;&lt;br&gt;N-acetylglutaminylglutamine amidotransferase&lt;br&gt;Location: 5792893 - 5794677" locus_tag="B6264_RS25315" class="clusterblast-orf" id="dummy-1_h1_1_81"  />
</g>
<g id="a1_0082"  >
<polygon points="753,90 756,90 761,85 756,80 753,80 753,90 " style="fill:white; stroke-width:1; stroke:black; " description="&lt;b&gt;B6264_RS25320&lt;/b&gt;&lt;br&gt;S9 family peptidase&lt;br&gt;Location: 5794693 - 5796876" locus_tag="B6264_RS25320" class="clusterblast-orf" id="dummy-1_h1_1_82"  />
</g>
<g id="a1_0083"  >
<polygon points="762,85 764,80 764,90 762,85 " style="fill:white; stroke-width:1; stroke:black; " description="&lt;b&gt;B6264_RS25325&lt;/b&gt;&lt;br&gt;hypothetical protein&lt;br&gt;Location: 5797100 - 5797855" locus_tag="B6264_RS25325" class="clusterblast-orf" id="dummy-1_h1_1_83"  />
</g>
<g id="a1_0084"  >
<polygon points="766,90 768,85 766,80 766,90 " style="fill:white; stroke-width:1; stroke:black; " description="&lt;b&gt;B6264_RS25330&lt;/b&gt;&lt;br&gt;hypothetical protein&lt;br&gt;Location: 5798367 - 5798882" locus_tag="B6264_RS25330" class="clusterblast-orf" id="dummy-1_h1_1_84"  />
</g>
<g id="a1_0085"  >
<polygon points="768,90 772,85 768,80 768,90 " style="fill:white; stroke-width:1; stroke:black; " description="&lt;b&gt;B6264_RS25335&lt;/b&gt;&lt;br&gt;hypothetical protein&lt;br&gt;Location: 5798953 - 5799912" locus_tag="B6264_RS25335" class="clusterblast-orf" id="dummy-1_h1_1_85"  />
</g>
<g id="a1_0086"  >
<polygon points="772,90 775,85 772,80 772,90 " style="fill:white; stroke-width:1; stroke:black; " description="&lt;b&gt;B6264_RS25340&lt;/b&gt;&lt;br&gt;hypothetical protein&lt;br&gt;Location: 5800105 - 5800836" locus_tag="B6264_RS25340" class="clusterblast-orf" id="dummy-1_h1_1_86"  />
</g>
<g id="a1_0087"  >
<polygon points="776,85 780,80 780,90 776,85 " style="fill:white; stroke-width:1; stroke:black; " description="&lt;b&gt;B6264_RS25345&lt;/b&gt;&lt;br&gt;YihY/virulence factor BrkB family protein&lt;br&gt;Location: 5801109 - 5802131" locus_tag="B6264_RS25345" class="clusterblast-orf" id="dummy-1_h1_1_87"  />
</g>
</svg>
