<svg xmlns="http://www.w3.org/2000/svg" xmlns:xlink="http://www.w3.org/1999/xlink" version="1.1" x="0" y="0" height="230" width="800" viewBox="0 0 800 230" preserveAspectRatio="none"  >
<g label="Query sequence" class="clusterblast-cluster"  >
<text x="5" y="20" class="clusterblast-acc"  >
Query sequence</text>
<line x1="10" y1="35" x2="778.0" y2="35" style="stroke-width:1; stroke:grey; "  />
<polygon points="0,35 5,30 44,30 44,40 5,40 0,35 " style="fill:white; stroke-width:1; stroke:black; " description="&lt;b&gt;CopciAB_454031.T0&lt;/b&gt;&lt;br&gt;CopciAB 454031.T0&lt;br&gt;Location: 950617 - 954232" locus_tag="CopciAB_454031.T0" class="clusterblast-orf" id="dummy-3_q0_0_all"  />
<polygon points="66,40 71,40 76,35 71,30 66,30 66,40 " style="fill:white; stroke-width:1; stroke:black; " description="&lt;b&gt;CopciAB_391177.T0&lt;/b&gt;&lt;br&gt;CopciAB 391177.T0&lt;br&gt;Location: 956110 - 956875" locus_tag="CopciAB_391177.T0" class="clusterblast-orf" id="dummy-3_q1_0_all"  />
<polygon points="79,35 84,30 91,30 91,40 84,40 79,35 " style="fill:white; stroke-width:1; stroke:black; " description="&lt;b&gt;CopciAB_495078.T0&lt;/b&gt;&lt;br&gt;CopciAB 495078.T0&lt;br&gt;Location: 957103 - 958109" locus_tag="CopciAB_495078.T0" class="clusterblast-orf" id="dummy-3_q2_0_all"  />
<polygon points="94,35 99,30 110,30 110,40 99,40 94,35 " style="fill:white; stroke-width:1; stroke:black; " description="&lt;b&gt;CopciAB_441179.T0&lt;/b&gt;&lt;br&gt;CopciAB 441179.T0&lt;br&gt;Location: 958412 - 959728" locus_tag="CopciAB_441179.T0" class="clusterblast-orf" id="dummy-3_q3_0_all"  />
<polygon points="120,35 125,30 129,30 129,40 125,40 120,35 " style="fill:white; stroke-width:1; stroke:black; " description="&lt;b&gt;CopciAB_441181.T0&lt;/b&gt;&lt;br&gt;CopciAB 441181.T0&lt;br&gt;Location: 960502 - 961247" locus_tag="CopciAB_441181.T0" class="clusterblast-orf" id="dummy-3_q4_0_all"  />
<polygon points="141,40 167,40 172,35 167,30 141,30 141,40 " style="fill:#d81515; stroke-width:1; stroke:black; " description="&lt;b&gt;CopciAB_417341.T0&lt;/b&gt;&lt;br&gt;CopciAB 417341.T0&lt;br&gt;Location: 962262 - 964748" locus_tag="CopciAB_417341.T0" class="clusterblast-orf" id="dummy-3_q5_0_all"  />
<polygon points="177,40 185,40 190,35 185,30 177,30 177,40 " style="fill:#4dd815; stroke-width:1; stroke:black; " description="&lt;b&gt;CopciAB_360850.T0&lt;/b&gt;&lt;br&gt;CopciAB 360850.T0&lt;br&gt;Location: 965222 - 966252" locus_tag="CopciAB_360850.T0" class="clusterblast-orf" id="dummy-3_q6_0_all"  />
<polygon points="200,35 205,30 210,30 210,40 205,40 200,35 " style="fill:white; stroke-width:1; stroke:black; " description="&lt;b&gt;CopciAB_90622.T0&lt;/b&gt;&lt;br&gt;CopciAB 90622.T0&lt;br&gt;Location: 967097 - 967880" locus_tag="CopciAB_90622.T0" class="clusterblast-orf" id="dummy-3_q7_0_all"  />
<polygon points="221,35 226,30 277,30 277,40 226,40 221,35 " style="fill:#1585d8; stroke-width:1; stroke:black; " description="&lt;b&gt;CopciAB_360799.T0&lt;/b&gt;&lt;br&gt;CopciAB 360799.T0&lt;br&gt;Location: 968800 - 973450" locus_tag="CopciAB_360799.T0" class="clusterblast-orf" id="dummy-3_q8_0_all"  />
<polygon points="309,35 314,30 314,30 314,40 314,40 309,35 " style="fill:white; stroke-width:1; stroke:black; " description="&lt;b&gt;CopciAB_1002526.T0&lt;/b&gt;&lt;br&gt;CopciAB 1002526.T0&lt;br&gt;Location: 976072 - 976500" locus_tag="CopciAB_1002526.T0" class="clusterblast-orf" id="dummy-3_q9_0_all"  />
<polygon points="317,40 320,40 325,35 320,30 317,30 317,40 " style="fill:#1585d8; stroke-width:1; stroke:black; " description="&lt;b&gt;CopciAB_441187.T0&lt;/b&gt;&lt;br&gt;CopciAB 441187.T0&lt;br&gt;Location: 976689 - 977368" locus_tag="CopciAB_441187.T0" class="clusterblast-orf" id="dummy-3_q10_0_all"  />
<polygon points="332,40 350,40 355,35 350,30 332,30 332,40 " style="fill:#d815bc; stroke-width:1; stroke:black; " description="&lt;b&gt;CopciAB_90822.T0&lt;/b&gt;&lt;br&gt;CopciAB 90822.T0&lt;br&gt;Location: 977916 - 979803" locus_tag="CopciAB_90822.T0" class="clusterblast-orf" id="dummy-3_q11_0_all"  />
<polygon points="360,35 365,30 418,30 418,40 365,40 360,35 " style="fill:#d8bc15; stroke-width:1; stroke:black; " description="&lt;b&gt;CopciAB_417352.T0&lt;/b&gt;&lt;br&gt;CopciAB 417352.T0&lt;br&gt;Location: 980254 - 984983" locus_tag="CopciAB_417352.T0" class="clusterblast-orf" id="dummy-3_q12_0_all"  />
<polygon points="421,35 426,30 459,30 459,40 426,40 421,35 " style="fill:white; stroke-width:1; stroke:black; " description="&lt;b&gt;CopciAB_454041.T0&lt;/b&gt;&lt;br&gt;CopciAB 454041.T0&lt;br&gt;Location: 985245 - 988386" locus_tag="CopciAB_454041.T0" class="clusterblast-orf" id="dummy-3_q13_0_all"  />
<polygon points="461,40 515,40 520,35 515,30 461,30 461,40 " style="fill:white; stroke-width:1; stroke:black; " description="&lt;b&gt;CopciAB_441190.T0&lt;/b&gt;&lt;br&gt;CopciAB 441190.T0&lt;br&gt;Location: 988541 - 993401" locus_tag="CopciAB_441190.T0" class="clusterblast-orf" id="dummy-3_q14_0_all"  />
<polygon points="527,40 529,40 534,35 529,30 527,30 527,40 " style="fill:white; stroke-width:1; stroke:black; " description="&lt;b&gt;CopciAB_417357.T0&lt;/b&gt;&lt;br&gt;CopciAB 417357.T0&lt;br&gt;Location: 993991 - 994567" locus_tag="CopciAB_417357.T0" class="clusterblast-orf" id="dummy-3_q15_0_all"  />
<polygon points="551,35 556,30 577,30 577,40 556,40 551,35 " style="fill:#15d885; stroke-width:1; stroke:black; " description="&lt;b&gt;CopciAB_90959.T0&lt;/b&gt;&lt;br&gt;CopciAB 90959.T0&lt;br&gt;Location: 995905 - 998090" locus_tag="CopciAB_90959.T0" class="clusterblast-orf" id="dummy-3_q16_0_all"  />
<polygon points="585,35 590,30 593,30 593,40 590,40 585,35 " style="fill:white; stroke-width:1; stroke:black; " description="&lt;b&gt;CopciAB_1002528.T0&lt;/b&gt;&lt;br&gt;CopciAB 1002528.T0&lt;br&gt;Location: 998761 - 999424" locus_tag="CopciAB_1002528.T0" class="clusterblast-orf" id="dummy-3_q17_0_all"  />
<polygon points="601,35 606,30 617,30 617,40 606,40 601,35 " style="fill:white; stroke-width:1; stroke:black; " description="&lt;b&gt;CopciAB_465124.T0&lt;/b&gt;&lt;br&gt;CopciAB 465124.T0&lt;br&gt;Location: 1000061 - 1001390" locus_tag="CopciAB_465124.T0" class="clusterblast-orf" id="dummy-3_q18_0_all"  />
<polygon points="620,40 624,40 629,35 624,30 620,30 620,40 " style="fill:white; stroke-width:1; stroke:black; " description="&lt;b&gt;CopciAB_90982.T0&lt;/b&gt;&lt;br&gt;CopciAB 90982.T0&lt;br&gt;Location: 1001584 - 1002367" locus_tag="CopciAB_90982.T0" class="clusterblast-orf" id="dummy-3_q19_0_all"  />
<polygon points="643,40 659,40 664,35 659,30 643,30 643,40 " style="fill:white; stroke-width:1; stroke:black; " description="&lt;b&gt;CopciAB_90984.T0&lt;/b&gt;&lt;br&gt;CopciAB 90984.T0&lt;br&gt;Location: 1003469 - 1005259" locus_tag="CopciAB_90984.T0" class="clusterblast-orf" id="dummy-3_q20_0_all"  />
<polygon points="669,40 682,40 687,35 682,30 669,30 669,40 " style="fill:white; stroke-width:1; stroke:black; " description="&lt;b&gt;CopciAB_90979.T0&lt;/b&gt;&lt;br&gt;CopciAB 90979.T0&lt;br&gt;Location: 1005646 - 1007108" locus_tag="CopciAB_90979.T0" class="clusterblast-orf" id="dummy-3_q21_0_all"  />
<polygon points="692,40 706,40 711,35 706,30 692,30 692,40 " style="fill:#4d15d8; stroke-width:1; stroke:black; " description="&lt;b&gt;CopciAB_476094.T0&lt;/b&gt;&lt;br&gt;CopciAB 476094.T0&lt;br&gt;Location: 1007537 - 1009136" locus_tag="CopciAB_476094.T0" class="clusterblast-orf" id="dummy-3_q22_0_all"  />
<polygon points="715,35 720,30 761,30 761,40 720,40 715,35 " style="fill:white; stroke-width:1; stroke:black; " description="&lt;b&gt;CopciAB_91028.T0&lt;/b&gt;&lt;br&gt;CopciAB 91028.T0&lt;br&gt;Location: 1009428 - 1013227" locus_tag="CopciAB_91028.T0" class="clusterblast-orf" id="dummy-3_q23_0_all"  />
<polygon points="769,40 775,40 780,35 775,30 769,30 769,40 " style="fill:white; stroke-width:1; stroke:black; " description="&lt;b&gt;CopciAB_441197.T0&lt;/b&gt;&lt;br&gt;CopciAB 441197.T0&lt;br&gt;Location: 1013862 - 1014739" locus_tag="CopciAB_441197.T0" class="clusterblast-orf" id="dummy-3_q24_0_all"  />
</g>
<g label="NW_020939757" description="NW_020939757 (351493-398797): Sparassis crispa DNA, contig 000011F, whole gen... (14% of genes show similarity), NRPS-like" class="clusterblast-cluster"  >
<text x="5" y="70" class="clusterblast-acc"  >
<a xlink:href="https://antismash-db.secondarymetabolites.org/area.html?record=NW_020939757&amp;start=351493&amp;end=398797" target="_blank">NW_020939757 (351493-398797)</a>: Sparassis crispa DNA, contig 000011F, whole gen... (14% of genes show similarity), NRPS-like</text>
<line x1="10" y1="85" x2="778.0" y2="85" style="stroke-width:1; stroke:grey; "  />
</g>
<g id="a3_000"  >
<polygon points="119,90 120,90 125,85 120,80 119,80 119,90 " style="fill:white; stroke-width:1; stroke:black; " description="&lt;b&gt;SCP_1101140&lt;/b&gt;&lt;br&gt;hypothetical protein&lt;br&gt;Location: 353026 - 353540" locus_tag="SCP_1101140" class="clusterblast-orf" id="dummy-3_h3_3_0"  />
</g>
<g id="a3_001"  >
<polygon points="145,85 150,80 228,80 228,90 150,90 145,85 " style="fill:white; stroke-width:1; stroke:black; " description="&lt;b&gt;SCP_1101150&lt;/b&gt;&lt;br&gt;hypothetical protein&lt;br&gt;Location: 355192 - 361996" locus_tag="SCP_1101150" class="clusterblast-orf" id="dummy-3_h3_3_1"  />
</g>
<g id="a3_002"  >
<polygon points="244,90 257,90 262,85 257,80 244,80 244,90 " style="fill:white; stroke-width:1; stroke:black; " description="&lt;b&gt;SCP_1101160&lt;/b&gt;&lt;br&gt;hypothetical protein&lt;br&gt;Location: 363312 - 364787" locus_tag="SCP_1101160" class="clusterblast-orf" id="dummy-3_h3_3_2"  />
</g>
<g id="a3_003"  >
<polygon points="272,85 277,80 304,80 304,90 277,90 272,85 " style="fill:white; stroke-width:1; stroke:black; " description="&lt;b&gt;SCP_1101170&lt;/b&gt;&lt;br&gt;Putative peroxisomal-coenzyme A&lt;br&gt;Location: 365577 - 368220" locus_tag="SCP_1101170" class="clusterblast-orf" id="dummy-3_h3_3_3"  />
</g>
<g id="a3_004"  >
<polygon points="315,90 329,90 334,85 329,80 315,80 315,90 " style="fill:white; stroke-width:1; stroke:black; " description="&lt;b&gt;SCP_1101180&lt;/b&gt;&lt;br&gt;Probable D-xylose 1-dehydrogenase (NADP(+))&lt;br&gt;Location: 369165 - 370649" locus_tag="SCP_1101180" class="clusterblast-orf" id="dummy-3_h3_3_4"  />
</g>
<g id="a3_005"  >
<polygon points="344,85 349,80 433,80 433,90 349,90 344,85 " style="fill:#d8bc15; stroke-width:1; stroke:black; " description="&lt;b&gt;SCP_1101190&lt;/b&gt;&lt;br&gt;L-2-aminoadipate reductase&lt;br&gt;Location: 371494 - 378797&lt;br&gt;&lt;br&gt;&lt;b&gt;BlastP hit with CopciAB_417352.T0&lt;/b&gt;&lt;br&gt;Percentage identity: 65&lt;br&gt;Percentage coverage: 98&lt;br&gt;BLAST bit score: 1776&lt;br&gt;E-value: 0.0" locus_tag="SCP_1101190" class="clusterblast-orf" id="dummy-3_h3_3_5"  />
</g>
<g id="a3_006"  >
<polygon points="440,85 445,80 454,80 454,90 445,90 440,85 " style="fill:white; stroke-width:1; stroke:black; " description="&lt;b&gt;SCP_1101200&lt;/b&gt;&lt;br&gt;hypothetical protein&lt;br&gt;Location: 379432 - 380563" locus_tag="SCP_1101200" class="clusterblast-orf" id="dummy-3_h3_3_6"  />
</g>
<g id="a3_007"  >
<polygon points="458,85 463,80 488,80 488,90 463,90 458,85 " style="fill:white; stroke-width:1; stroke:black; " description="&lt;b&gt;SCP_1101210&lt;/b&gt;&lt;br&gt;ATP-dependent RNA helicase mss116, mitochondrial&lt;br&gt;Location: 380885 - 383340" locus_tag="SCP_1101210" class="clusterblast-orf" id="dummy-3_h3_3_7"  />
</g>
<g id="a3_008"  >
<polygon points="492,90 507,90 512,85 507,80 492,80 492,90 " style="fill:white; stroke-width:1; stroke:black; " description="&lt;b&gt;SCP_1101220&lt;/b&gt;&lt;br&gt;Uncharacterized protein&lt;br&gt;Location: 383718 - 385288" locus_tag="SCP_1101220" class="clusterblast-orf" id="dummy-3_h3_3_8"  />
</g>
<g id="a3_009"  >
<polygon points="516,90 531,90 536,85 531,80 516,80 516,90 " style="fill:white; stroke-width:1; stroke:black; " description="&lt;b&gt;SCP_1101230&lt;/b&gt;&lt;br&gt;NAD(P)-binding protein&lt;br&gt;Location: 385660 - 387304" locus_tag="SCP_1101230" class="clusterblast-orf" id="dummy-3_h3_3_9"  />
</g>
<g id="a3_0010"  >
<polygon points="539,85 544,80 569,80 569,90 544,90 539,85 " style="fill:white; stroke-width:1; stroke:black; " description="&lt;b&gt;SCP_1101240&lt;/b&gt;&lt;br&gt;CTP synthase&lt;br&gt;Location: 387524 - 390005" locus_tag="SCP_1101240" class="clusterblast-orf" id="dummy-3_h3_3_10"  />
</g>
<g id="a3_0011"  >
<polygon points="578,90 591,90 596,85 591,80 578,80 578,90 " style="fill:#4dd815; stroke-width:1; stroke:black; " description="&lt;b&gt;SCP_1101250&lt;/b&gt;&lt;br&gt;D-arabinitol dehydrogenase 1&lt;br&gt;Location: 390713 - 392261&lt;br&gt;&lt;br&gt;&lt;b&gt;BlastP hit with CopciAB_360850.T0&lt;/b&gt;&lt;br&gt;Percentage identity: 56&lt;br&gt;Percentage coverage: 90&lt;br&gt;BLAST bit score: 211&lt;br&gt;E-value: 5e-66" locus_tag="SCP_1101250" class="clusterblast-orf" id="dummy-3_h3_3_11"  />
</g>
<g id="a3_0012"  >
<polygon points="602,85 607,80 618,80 618,90 607,90 602,85 " style="fill:white; stroke-width:1; stroke:black; " description="&lt;b&gt;SCP_1101260&lt;/b&gt;&lt;br&gt;hypothetical protein&lt;br&gt;Location: 392761 - 394029" locus_tag="SCP_1101260" class="clusterblast-orf" id="dummy-3_h3_3_12"  />
</g>
<g id="a3_0013"  >
<polygon points="636,85 641,80 660,80 660,90 641,90 636,85 " style="fill:white; stroke-width:1; stroke:black; " description="&lt;b&gt;SCP_1101270&lt;/b&gt;&lt;br&gt;Nucleoporin seh1&lt;br&gt;Location: 395496 - 397478" locus_tag="SCP_1101270" class="clusterblast-orf" id="dummy-3_h3_3_13"  />
</g>
</svg>
