<svg xmlns="http://www.w3.org/2000/svg" xmlns:xlink="http://www.w3.org/1999/xlink" version="1.1" x="0" y="0" height="230" width="800" viewBox="0 0 800 230" preserveAspectRatio="none"  >
<g label="Query sequence" class="clusterblast-cluster"  >
<text x="5" y="20" class="clusterblast-acc"  >
Query sequence</text>
<line x1="10" y1="35" x2="778.0" y2="35" style="stroke-width:1; stroke:grey; "  />
<polygon points="27,40 33,40 38,35 33,30 27,30 27,40 " style="fill:white; stroke-width:1; stroke:black; " description="&lt;b&gt;CopciAB_504759.T0&lt;/b&gt;&lt;br&gt;CopciAB 504759.T0&lt;br&gt;Location: 1509256 - 1510298" locus_tag="CopciAB_504759.T0" class="clusterblast-orf" id="dummy-2_q0_0_all"  />
<polygon points="41,35 46,30 55,30 55,40 46,40 41,35 " style="fill:white; stroke-width:1; stroke:black; " description="&lt;b&gt;CopciAB_537377.T0&lt;/b&gt;&lt;br&gt;CopciAB 537377.T0&lt;br&gt;Location: 1510525 - 1511745" locus_tag="CopciAB_537377.T0" class="clusterblast-orf" id="dummy-2_q1_0_all"  />
<polygon points="59,35 64,30 74,30 74,40 64,40 59,35 " style="fill:white; stroke-width:1; stroke:black; " description="&lt;b&gt;CopciAB_537378.T0&lt;/b&gt;&lt;br&gt;CopciAB 537378.T0&lt;br&gt;Location: 1512155 - 1513440" locus_tag="CopciAB_537378.T0" class="clusterblast-orf" id="dummy-2_q2_0_all"  />
<polygon points="77,35 82,30 108,30 108,40 82,40 77,35 " style="fill:white; stroke-width:1; stroke:black; " description="&lt;b&gt;CopciAB_384835.T0&lt;/b&gt;&lt;br&gt;CopciAB 384835.T0&lt;br&gt;Location: 1513673 - 1516469" locus_tag="CopciAB_384835.T0" class="clusterblast-orf" id="dummy-2_q3_0_all"  />
<polygon points="115,35 120,30 128,30 128,40 120,40 115,35 " style="fill:white; stroke-width:1; stroke:black; " description="&lt;b&gt;CopciAB_461698.T0&lt;/b&gt;&lt;br&gt;CopciAB 461698.T0&lt;br&gt;Location: 1517066 - 1518223" locus_tag="CopciAB_461698.T0" class="clusterblast-orf" id="dummy-2_q4_0_all"  />
<polygon points="137,40 148,40 153,35 148,30 137,30 137,40 " style="fill:white; stroke-width:1; stroke:black; " description="&lt;b&gt;CopciAB_451236.T0&lt;/b&gt;&lt;br&gt;CopciAB 451236.T0&lt;br&gt;Location: 1519026 - 1520375" locus_tag="CopciAB_451236.T0" class="clusterblast-orf" id="dummy-2_q5_0_all"  />
<polygon points="158,40 180,40 185,35 180,30 158,30 158,40 " style="fill:white; stroke-width:1; stroke:black; " description="&lt;b&gt;CopciAB_2218.T0&lt;/b&gt;&lt;br&gt;CopciAB 2218.T0&lt;br&gt;Location: 1520900 - 1523225" locus_tag="CopciAB_2218.T0" class="clusterblast-orf" id="dummy-2_q6_0_all"  />
<polygon points="189,35 194,30 214,30 214,40 194,40 189,35 " style="fill:white; stroke-width:1; stroke:black; " description="&lt;b&gt;CopciAB_492579.T0&lt;/b&gt;&lt;br&gt;CopciAB 492579.T0&lt;br&gt;Location: 1523632 - 1525781" locus_tag="CopciAB_492579.T0" class="clusterblast-orf" id="dummy-2_q7_0_all"  />
<polygon points="216,40 217,40 222,35 217,30 216,30 216,40 " style="fill:white; stroke-width:1; stroke:black; " description="&lt;b&gt;CopciAB_436846.T0&lt;/b&gt;&lt;br&gt;CopciAB 436846.T0&lt;br&gt;Location: 1525955 - 1526547" locus_tag="CopciAB_436846.T0" class="clusterblast-orf" id="dummy-2_q8_0_all"  />
<polygon points="223,35 228,30 244,30 244,40 228,40 223,35 " style="fill:white; stroke-width:1; stroke:black; " description="&lt;b&gt;CopciAB_2422.T0&lt;/b&gt;&lt;br&gt;CopciAB 2422.T0&lt;br&gt;Location: 1526572 - 1528450" locus_tag="CopciAB_2422.T0" class="clusterblast-orf" id="dummy-2_q9_0_all"  />
<polygon points="245,40 277,40 282,35 277,30 245,30 245,40 " style="fill:white; stroke-width:1; stroke:black; " description="&lt;b&gt;CopciAB_2409.T0&lt;/b&gt;&lt;br&gt;CopciAB 2409.T0&lt;br&gt;Location: 1528581 - 1531800" locus_tag="CopciAB_2409.T0" class="clusterblast-orf" id="dummy-2_q10_0_all"  />
<polygon points="284,35 289,30 344,30 344,40 289,40 284,35 " style="fill:white; stroke-width:1; stroke:black; " description="&lt;b&gt;CopciAB_483887.T0&lt;/b&gt;&lt;br&gt;CopciAB 483887.T0&lt;br&gt;Location: 1532016 - 1537237" locus_tag="CopciAB_483887.T0" class="clusterblast-orf" id="dummy-2_q11_0_all"  />
<polygon points="345,40 346,40 351,35 346,30 345,30 345,40 " style="fill:#d81515; stroke-width:1; stroke:black; " description="&lt;b&gt;CopciAB_461705.T0&lt;/b&gt;&lt;br&gt;CopciAB 461705.T0&lt;br&gt;Location: 1537347 - 1537914" locus_tag="CopciAB_461705.T0" class="clusterblast-orf" id="dummy-2_q12_0_all"  />
<polygon points="352,35 357,30 442,30 442,40 357,40 352,35 " style="fill:#15d863; stroke-width:1; stroke:black; " description="&lt;b&gt;CopciAB_354233.T0&lt;/b&gt;&lt;br&gt;CopciAB 354233.T0&lt;br&gt;Location: 1537957 - 1545917" locus_tag="CopciAB_354233.T0" class="clusterblast-orf" id="dummy-2_q13_0_all"  />
<polygon points="450,40 467,40 472,35 467,30 450,30 450,40 " style="fill:#1563d8; stroke-width:1; stroke:black; " description="&lt;b&gt;CopciAB_492586.T0&lt;/b&gt;&lt;br&gt;CopciAB 492586.T0&lt;br&gt;Location: 1546654 - 1548569" locus_tag="CopciAB_492586.T0" class="clusterblast-orf" id="dummy-2_q14_0_all"  />
<polygon points="475,40 479,40 484,35 479,30 475,30 475,40 " style="fill:#b115d8; stroke-width:1; stroke:black; " description="&lt;b&gt;CopciAB_411041.T0&lt;/b&gt;&lt;br&gt;CopciAB 411041.T0&lt;br&gt;Location: 1548867 - 1549655" locus_tag="CopciAB_411041.T0" class="clusterblast-orf" id="dummy-2_q15_0_all"  />
<polygon points="485,35 490,30 560,30 560,40 490,40 485,35 " style="fill:#b1d815; stroke-width:1; stroke:black; " description="&lt;b&gt;CopciAB_451244.T0&lt;/b&gt;&lt;br&gt;CopciAB 451244.T0&lt;br&gt;Location: 1549751 - 1556369" locus_tag="CopciAB_451244.T0" class="clusterblast-orf" id="dummy-2_q16_0_all"  />
<polygon points="563,35 568,30 577,30 577,40 568,40 563,35 " style="fill:white; stroke-width:1; stroke:black; " description="&lt;b&gt;CopciAB_2587.T0&lt;/b&gt;&lt;br&gt;CopciAB 2587.T0&lt;br&gt;Location: 1556658 - 1557807" locus_tag="CopciAB_2587.T0" class="clusterblast-orf" id="dummy-2_q17_0_all"  />
<polygon points="580,40 587,40 592,35 587,30 580,30 580,40 " style="fill:white; stroke-width:1; stroke:black; " description="&lt;b&gt;CopciAB_492590.T0&lt;/b&gt;&lt;br&gt;CopciAB 492590.T0&lt;br&gt;Location: 1558077 - 1559177" locus_tag="CopciAB_492590.T0" class="clusterblast-orf" id="dummy-2_q18_0_all"  />
<polygon points="594,40 607,40 612,35 607,30 594,30 594,40 " style="fill:white; stroke-width:1; stroke:black; " description="&lt;b&gt;CopciAB_353895.T0&lt;/b&gt;&lt;br&gt;CopciAB 353895.T0&lt;br&gt;Location: 1559378 - 1560921" locus_tag="CopciAB_353895.T0" class="clusterblast-orf" id="dummy-2_q19_0_all"  />
<polygon points="613,35 618,30 655,30 655,40 618,40 613,35 " style="fill:white; stroke-width:1; stroke:black; " description="&lt;b&gt;CopciAB_492592.T0&lt;/b&gt;&lt;br&gt;CopciAB 492592.T0&lt;br&gt;Location: 1561059 - 1564721" locus_tag="CopciAB_492592.T0" class="clusterblast-orf" id="dummy-2_q20_0_all"  />
<polygon points="657,40 660,35 657,30 657,40 " style="fill:white; stroke-width:1; stroke:black; " description="&lt;b&gt;CopciAB_2714.T0&lt;/b&gt;&lt;br&gt;CopciAB 2714.T0&lt;br&gt;Location: 1564919 - 1565171" locus_tag="CopciAB_2714.T0" class="clusterblast-orf" id="dummy-2_q21_0_all"  />
<polygon points="660,35 665,30 666,30 666,40 665,40 660,35 " style="fill:white; stroke-width:1; stroke:black; " description="&lt;b&gt;CopciAB_354058.T0&lt;/b&gt;&lt;br&gt;CopciAB 354058.T0&lt;br&gt;Location: 1565167 - 1565693" locus_tag="CopciAB_354058.T0" class="clusterblast-orf" id="dummy-2_q22_0_all"  />
<polygon points="667,40 700,40 705,35 700,30 667,30 667,40 " style="fill:white; stroke-width:1; stroke:black; " description="&lt;b&gt;CopciAB_353952.T0&lt;/b&gt;&lt;br&gt;CopciAB 353952.T0&lt;br&gt;Location: 1565806 - 1569136" locus_tag="CopciAB_353952.T0" class="clusterblast-orf" id="dummy-2_q23_0_all"  />
<polygon points="707,40 715,40 720,35 715,30 707,30 707,40 " style="fill:white; stroke-width:1; stroke:black; " description="&lt;b&gt;CopciAB_436853.T0&lt;/b&gt;&lt;br&gt;CopciAB 436853.T0&lt;br&gt;Location: 1569318 - 1570506" locus_tag="CopciAB_436853.T0" class="clusterblast-orf" id="dummy-2_q24_0_all"  />
<polygon points="727,40 737,40 742,35 737,30 727,30 727,40 " style="fill:white; stroke-width:1; stroke:black; " description="&lt;b&gt;CopciAB_461716.T0&lt;/b&gt;&lt;br&gt;CopciAB 461716.T0&lt;br&gt;Location: 1571129 - 1572388" locus_tag="CopciAB_461716.T0" class="clusterblast-orf" id="dummy-2_q25_0_all"  />
<polygon points="751,40 753,35 751,30 751,40 " style="fill:white; stroke-width:1; stroke:black; " description="&lt;b&gt;CopciAB_1000404.T0&lt;/b&gt;&lt;br&gt;CopciAB 1000404.T0&lt;br&gt;Location: 1573184 - 1573358" locus_tag="CopciAB_1000404.T0" class="clusterblast-orf" id="dummy-2_q26_0_all"  />
</g>
<g label="NZ_CP011052" description="NZ_CP011052 (3648245-3718416): Halomonas sp. KO116 chromosome, complete genome (5% of genes show similarity), NRPS" class="clusterblast-cluster"  >
<text x="5" y="70" class="clusterblast-acc"  >
<a xlink:href="https://antismash-db.secondarymetabolites.org/area.html?record=NZ_CP011052&amp;start=3648245&amp;end=3718416" target="_blank">NZ_CP011052 (3648245-3718416)</a>: Halomonas sp. KO116 chromosome, complete genome (5% of genes show similarity), NRPS</text>
<line x1="10" y1="85" x2="778.0" y2="85" style="stroke-width:1; stroke:grey; "  />
</g>
<g id="a2_000"  >
<polygon points="0,85 1,80 1,90 0,85 " style="fill:white; stroke-width:1; stroke:black; " description="&lt;b&gt;KO116_RS24735&lt;/b&gt;&lt;br&gt;siderophore-iron reductase FhuF&lt;br&gt;Location: 3648654 - 3648824" locus_tag="KO116_RS24735" class="clusterblast-orf" id="dummy-2_h2_10_0"  />
</g>
<g id="a2_001"  >
<polygon points="3,85 8,80 13,80 13,90 8,90 3,85 " style="fill:white; stroke-width:1; stroke:black; " description="&lt;b&gt;KO116_RS16770&lt;/b&gt;&lt;br&gt;ABC transporter substrate-binding protein&lt;br&gt;Location: 3648929 - 3649831" locus_tag="KO116_RS16770" class="clusterblast-orf" id="dummy-2_h2_10_1"  />
</g>
<g id="a2_002"  >
<polygon points="15,85 20,80 42,80 42,90 20,90 15,85 " style="fill:white; stroke-width:1; stroke:black; " description="&lt;b&gt;KO116_RS16775&lt;/b&gt;&lt;br&gt;TonB-dependent siderophore receptor&lt;br&gt;Location: 3649981 - 3652425" locus_tag="KO116_RS16775" class="clusterblast-orf" id="dummy-2_h2_10_2"  />
</g>
<g id="a2_003"  >
<polygon points="43,85 48,80 55,80 55,90 48,90 43,85 " style="fill:white; stroke-width:1; stroke:black; " description="&lt;b&gt;KO116_RS16780&lt;/b&gt;&lt;br&gt;DUF4880 domain-containing protein&lt;br&gt;Location: 3652520 - 3653545" locus_tag="KO116_RS16780" class="clusterblast-orf" id="dummy-2_h2_10_3"  />
</g>
<g id="a2_004"  >
<polygon points="55,85 60,80 60,80 60,90 60,90 55,85 " style="fill:white; stroke-width:1; stroke:black; " description="&lt;b&gt;KO116_RS16785&lt;/b&gt;&lt;br&gt;sigma-70 family RNA polymerase sigma factor&lt;br&gt;Location: 3653546 - 3654031" locus_tag="KO116_RS16785" class="clusterblast-orf" id="dummy-2_h2_10_4"  />
</g>
<g id="a2_005"  >
<polygon points="61,85 66,80 80,80 80,90 66,90 61,85 " style="fill:white; stroke-width:1; stroke:black; " description="&lt;b&gt;KO116_RS16790&lt;/b&gt;&lt;br&gt;multidrug ABC transporter permease/ATP-binding protein&lt;br&gt;Location: 3654109 - 3655767" locus_tag="KO116_RS16790" class="clusterblast-orf" id="dummy-2_h2_10_5"  />
</g>
<g id="a2_006"  >
<polygon points="81,85 86,80 103,80 103,90 86,90 81,85 " style="fill:white; stroke-width:1; stroke:black; " description="&lt;b&gt;KO116_RS16795&lt;/b&gt;&lt;br&gt;Fe(3+)-hydroxamate ABC transporter permease FhuB&lt;br&gt;Location: 3655833 - 3657833" locus_tag="KO116_RS16795" class="clusterblast-orf" id="dummy-2_h2_10_6"  />
</g>
<g id="a2_007"  >
<polygon points="106,90 111,90 116,85 111,80 106,80 106,90 " style="fill:white; stroke-width:1; stroke:black; " description="&lt;b&gt;KO116_RS16800&lt;/b&gt;&lt;br&gt;siderophore-interacting protein&lt;br&gt;Location: 3658021 - 3658965" locus_tag="KO116_RS16800" class="clusterblast-orf" id="dummy-2_h2_10_7"  />
</g>
<g id="a2_008"  >
<polygon points="116,90 118,90 123,85 118,80 116,80 116,90 " style="fill:white; stroke-width:1; stroke:black; " description="&lt;b&gt;KO116_RS16805&lt;/b&gt;&lt;br&gt;cytochrome b&lt;br&gt;Location: 3658958 - 3659581" locus_tag="KO116_RS16805" class="clusterblast-orf" id="dummy-2_h2_10_8"  />
</g>
<g id="a2_009"  >
<polygon points="123,85 128,80 142,80 142,90 128,90 123,85 " style="fill:white; stroke-width:1; stroke:black; " description="&lt;b&gt;KO116_RS16810&lt;/b&gt;&lt;br&gt;cyclic peptide export ABC transporter&lt;br&gt;Location: 3659567 - 3661225" locus_tag="KO116_RS16810" class="clusterblast-orf" id="dummy-2_h2_10_9"  />
</g>
<g id="a2_0010"  >
<polygon points="146,90 152,90 157,85 152,80 146,80 146,90 " style="fill:white; stroke-width:1; stroke:black; " description="&lt;b&gt;KO116_RS16815&lt;/b&gt;&lt;br&gt;GNAT family N-acetyltransferase&lt;br&gt;Location: 3661624 - 3662547" locus_tag="KO116_RS16815" class="clusterblast-orf" id="dummy-2_h2_10_10"  />
</g>
<g id="a2_0011"  >
<polygon points="157,90 167,90 172,85 167,80 157,80 157,90 " style="fill:#1563d8; stroke-width:1; stroke:black; " description="&lt;b&gt;KO116_RS16820&lt;/b&gt;&lt;br&gt;lysine N(6)-hydroxylase/L-ornithine N(5)-oxygenase family protein&lt;br&gt;Location: 3662571 - 3663866&lt;br&gt;&lt;br&gt;&lt;b&gt;BlastP hit with CopciAB_492586.T0&lt;/b&gt;&lt;br&gt;Percentage identity: 33&lt;br&gt;Percentage coverage: 97&lt;br&gt;BLAST bit score: 255&lt;br&gt;E-value: 2.55e-77" locus_tag="KO116_RS16820" class="clusterblast-orf" id="dummy-2_h2_10_11"  />
</g>
<g id="a2_0012"  >
<polygon points="173,90 178,90 183,85 178,80 173,80 173,90 " style="fill:white; stroke-width:1; stroke:black; " description="&lt;b&gt;KO116_RS16825&lt;/b&gt;&lt;br&gt;alpha/beta hydrolase&lt;br&gt;Location: 3663932 - 3664885" locus_tag="KO116_RS16825" class="clusterblast-orf" id="dummy-2_h2_10_12"  />
</g>
<g id="a2_0013"  >
<polygon points="185,90 205,90 210,85 205,80 185,80 185,90 " style="fill:white; stroke-width:1; stroke:black; " description="&lt;b&gt;KO116_RS16830&lt;/b&gt;&lt;br&gt;TonB-dependent siderophore receptor&lt;br&gt;Location: 3665044 - 3667218" locus_tag="KO116_RS16830" class="clusterblast-orf" id="dummy-2_h2_10_13"  />
</g>
<g id="a2_0014"  >
<polygon points="211,90 216,90 221,85 216,80 211,80 211,90 " style="fill:white; stroke-width:1; stroke:black; " description="&lt;b&gt;KO116_RS16835&lt;/b&gt;&lt;br&gt;ABC transporter substrate-binding protein&lt;br&gt;Location: 3667299 - 3668183" locus_tag="KO116_RS16835" class="clusterblast-orf" id="dummy-2_h2_10_14"  />
</g>
<g id="a2_0015"  >
<polygon points="221,85 226,80 378,80 378,90 226,90 221,85 " style="fill:white; stroke-width:1; stroke:black; " description="&lt;b&gt;KO116_RS16840&lt;/b&gt;&lt;br&gt;amino acid adenylation domain-containing protein&lt;br&gt;Location: 3668246 - 3682060" locus_tag="KO116_RS16840" class="clusterblast-orf" id="dummy-2_h2_10_15"  />
</g>
<g id="a2_0016"  >
<polygon points="378,85 383,80 452,80 452,90 383,90 378,85 " style="fill:white; stroke-width:1; stroke:black; " description="&lt;b&gt;KO116_RS16845&lt;/b&gt;&lt;br&gt;non-ribosomal peptide synthetase&lt;br&gt;Location: 3682057 - 3688641" locus_tag="KO116_RS16845" class="clusterblast-orf" id="dummy-2_h2_10_16"  />
</g>
<g id="a2_0017"  >
<polygon points="452,85 457,80 563,80 563,90 457,90 452,85 " style="fill:#15d863; stroke-width:1; stroke:black; " description="&lt;b&gt;KO116_RS16850&lt;/b&gt;&lt;br&gt;non-ribosomal peptide synthase&lt;br&gt;Location: 3688625 - 3698416&lt;br&gt;&lt;br&gt;&lt;b&gt;BlastP hit with CopciAB_354233.T0&lt;/b&gt;&lt;br&gt;Percentage identity: 32&lt;br&gt;Percentage coverage: 27&lt;br&gt;BLAST bit score: 238&lt;br&gt;E-value: 1.44e-60" locus_tag="KO116_RS16850" class="clusterblast-orf" id="dummy-2_h2_10_17"  />
</g>
<g id="a2_0018"  >
<polygon points="564,85 569,80 575,80 575,90 569,90 564,85 " style="fill:white; stroke-width:1; stroke:black; " description="&lt;b&gt;KO116_RS16855&lt;/b&gt;&lt;br&gt;TauD/TfdA family dioxygenase&lt;br&gt;Location: 3698486 - 3699487" locus_tag="KO116_RS16855" class="clusterblast-orf" id="dummy-2_h2_10_18"  />
</g>
<g id="a2_0019"  >
<polygon points="575,85 580,80 584,80 584,90 580,90 575,85 " style="fill:white; stroke-width:1; stroke:black; " description="&lt;b&gt;KO116_RS16860&lt;/b&gt;&lt;br&gt;4'-phosphopantetheinyl transferase superfamily protein&lt;br&gt;Location: 3699480 - 3700238" locus_tag="KO116_RS16860" class="clusterblast-orf" id="dummy-2_h2_10_19"  />
</g>
<g id="a2_0020"  >
<polygon points="584,85 589,80 592,80 592,90 589,90 584,85 " style="fill:white; stroke-width:1; stroke:black; " description="&lt;b&gt;KO116_RS16865&lt;/b&gt;&lt;br&gt;thioesterase&lt;br&gt;Location: 3700216 - 3700956" locus_tag="KO116_RS16865" class="clusterblast-orf" id="dummy-2_h2_10_20"  />
</g>
<g id="a2_0021"  >
<polygon points="592,85 595,80 595,90 592,85 " style="fill:white; stroke-width:1; stroke:black; " description="&lt;b&gt;KO116_RS16870&lt;/b&gt;&lt;br&gt;MbtH family protein&lt;br&gt;Location: 3700946 - 3701191" locus_tag="KO116_RS16870" class="clusterblast-orf" id="dummy-2_h2_10_21"  />
</g>
<g id="a2_0022"  >
<polygon points="598,85 600,80 600,90 598,85 " style="fill:white; stroke-width:1; stroke:black; " description="&lt;b&gt;KO116_RS16875&lt;/b&gt;&lt;br&gt;DUF4880 domain-containing protein&lt;br&gt;Location: 3701449 - 3701655" locus_tag="KO116_RS16875" class="clusterblast-orf" id="dummy-2_h2_10_22"  />
</g>
<g id="a2_0023"  >
<polygon points="601,85 606,80 607,80 607,90 606,90 601,85 " style="fill:white; stroke-width:1; stroke:black; " description="&lt;b&gt;KO116_RS16880&lt;/b&gt;&lt;br&gt;RNA polymerase factor sigma-70&lt;br&gt;Location: 3701779 - 3702306" locus_tag="KO116_RS16880" class="clusterblast-orf" id="dummy-2_h2_10_23"  />
</g>
<g id="a2_0024"  >
<polygon points="610,90 623,90 628,85 623,80 610,80 610,90 " style="fill:white; stroke-width:1; stroke:black; " description="&lt;b&gt;KO116_RS16885&lt;/b&gt;&lt;br&gt;ATP-binding protein&lt;br&gt;Location: 3702565 - 3704181" locus_tag="KO116_RS16885" class="clusterblast-orf" id="dummy-2_h2_10_24"  />
</g>
<g id="a2_0025"  >
<polygon points="630,90 634,90 639,85 634,80 630,80 630,90 " style="fill:white; stroke-width:1; stroke:black; " description="&lt;b&gt;KO116_RS16890&lt;/b&gt;&lt;br&gt;inositol monophosphatase&lt;br&gt;Location: 3704309 - 3705106" locus_tag="KO116_RS16890" class="clusterblast-orf" id="dummy-2_h2_10_25"  />
</g>
<g id="a2_0026"  >
<polygon points="640,85 641,80 641,90 640,85 " style="fill:white; stroke-width:1; stroke:black; " description="&lt;b&gt;KO116_RS24740&lt;/b&gt;&lt;br&gt;50S ribosomal protein L36&lt;br&gt;Location: 3705187 - 3705327" locus_tag="KO116_RS24740" class="clusterblast-orf" id="dummy-2_h2_10_26"  />
</g>
<g id="a2_0027"  >
<polygon points="642,85 645,80 645,90 642,85 " style="fill:white; stroke-width:1; stroke:black; " description="&lt;b&gt;KO116_RS16895&lt;/b&gt;&lt;br&gt;type B 50S ribosomal protein L31&lt;br&gt;Location: 3705340 - 3705609" locus_tag="KO116_RS16895" class="clusterblast-orf" id="dummy-2_h2_10_27"  />
</g>
<g id="a2_0028"  >
<polygon points="646,90 657,90 662,85 657,80 646,80 646,90 " style="fill:white; stroke-width:1; stroke:black; " description="&lt;b&gt;KO116_RS16900&lt;/b&gt;&lt;br&gt;hypothetical protein&lt;br&gt;Location: 3705754 - 3707100" locus_tag="KO116_RS16900" class="clusterblast-orf" id="dummy-2_h2_10_28"  />
</g>
<g id="a2_0029"  >
<polygon points="664,90 668,90 673,85 668,80 664,80 664,90 " style="fill:white; stroke-width:1; stroke:black; " description="&lt;b&gt;KO116_RS16905&lt;/b&gt;&lt;br&gt;ATP-binding cassette domain-containing protein&lt;br&gt;Location: 3707335 - 3708102" locus_tag="KO116_RS16905" class="clusterblast-orf" id="dummy-2_h2_10_29"  />
</g>
<g id="a2_0030"  >
<polygon points="674,90 677,90 682,85 677,80 674,80 674,90 " style="fill:white; stroke-width:1; stroke:black; " description="&lt;b&gt;KO116_RS16910&lt;/b&gt;&lt;br&gt;ABC transporter substrate-binding protein&lt;br&gt;Location: 3708192 - 3708947" locus_tag="KO116_RS16910" class="clusterblast-orf" id="dummy-2_h2_10_30"  />
</g>
<g id="a2_0031"  >
<polygon points="683,85 688,80 707,80 707,90 688,90 683,85 " style="fill:white; stroke-width:1; stroke:black; " description="&lt;b&gt;KO116_RS16915&lt;/b&gt;&lt;br&gt;TonB-dependent siderophore receptor&lt;br&gt;Location: 3708978 - 3711146" locus_tag="KO116_RS16915" class="clusterblast-orf" id="dummy-2_h2_10_31"  />
</g>
<g id="a2_0032"  >
<polygon points="710,90 714,90 719,85 714,80 710,80 710,90 " style="fill:white; stroke-width:1; stroke:black; " description="&lt;b&gt;KO116_RS16920&lt;/b&gt;&lt;br&gt;siderophore-iron reductase FhuF&lt;br&gt;Location: 3711353 - 3712141" locus_tag="KO116_RS16920" class="clusterblast-orf" id="dummy-2_h2_10_32"  />
</g>
<g id="a2_0033"  >
<polygon points="719,85 724,80 737,80 737,90 724,90 719,85 " style="fill:white; stroke-width:1; stroke:black; " description="&lt;b&gt;KO116_RS16925&lt;/b&gt;&lt;br&gt;multidrug ABC transporter permease/ATP-binding protein&lt;br&gt;Location: 3712148 - 3713800" locus_tag="KO116_RS16925" class="clusterblast-orf" id="dummy-2_h2_10_33"  />
</g>
<g id="a2_0034"  >
<polygon points="739,85 744,80 751,80 751,90 744,90 739,85 " style="fill:white; stroke-width:1; stroke:black; " description="&lt;b&gt;KO116_RS16930&lt;/b&gt;&lt;br&gt;DUF1513 domain-containing protein&lt;br&gt;Location: 3713939 - 3715027" locus_tag="KO116_RS16930" class="clusterblast-orf" id="dummy-2_h2_10_34"  />
</g>
<g id="a2_0035"  >
<polygon points="751,85 756,80 763,80 763,90 756,90 751,85 " style="fill:white; stroke-width:1; stroke:black; " description="&lt;b&gt;KO116_RS16935&lt;/b&gt;&lt;br&gt;imelysin family protein&lt;br&gt;Location: 3715031 - 3716056" locus_tag="KO116_RS16935" class="clusterblast-orf" id="dummy-2_h2_10_35"  />
</g>
<g id="a2_0036"  >
<polygon points="763,85 768,80 780,80 780,90 768,90 763,85 " style="fill:white; stroke-width:1; stroke:black; " description="&lt;b&gt;KO116_RS16940&lt;/b&gt;&lt;br&gt;c-type cytochrome&lt;br&gt;Location: 3716080 - 3717513" locus_tag="KO116_RS16940" class="clusterblast-orf" id="dummy-2_h2_10_36"  />
</g>
</svg>
