<svg xmlns="http://www.w3.org/2000/svg" xmlns:xlink="http://www.w3.org/1999/xlink" version="1.1" x="0" y="0" height="230" width="800" viewBox="0 0 800 230" preserveAspectRatio="none"  >
<g label="Query sequence" class="clusterblast-cluster"  >
<text x="5" y="20" class="clusterblast-acc"  >
Query sequence</text>
<line x1="10" y1="35" x2="778.0" y2="35" style="stroke-width:1; stroke:grey; "  />
<polygon points="0,40 4,40 9,35 4,30 0,30 0,40 " style="fill:white; stroke-width:1; stroke:black; " description="&lt;b&gt;CopciAB_369971.T0&lt;/b&gt;&lt;br&gt;CopciAB 369971.T0&lt;br&gt;Location: 173614 - 174484" locus_tag="CopciAB_369971.T0" class="clusterblast-orf" id="dummy-1_q0_0_all"  />
<polygon points="10,40 13,40 18,35 13,30 10,30 10,40 " style="fill:white; stroke-width:1; stroke:black; " description="&lt;b&gt;CopciAB_369989.T0&lt;/b&gt;&lt;br&gt;CopciAB 369989.T0&lt;br&gt;Location: 174625 - 175377" locus_tag="CopciAB_369989.T0" class="clusterblast-orf" id="dummy-1_q1_0_all"  />
<polygon points="41,35 46,30 59,30 59,40 46,40 41,35 " style="fill:#d81515; stroke-width:1; stroke:black; " description="&lt;b&gt;CopciAB_286075.T0&lt;/b&gt;&lt;br&gt;CopciAB 286075.T0&lt;br&gt;Location: 177462 - 179182" locus_tag="CopciAB_286075.T0" class="clusterblast-orf" id="dummy-1_q2_0_all"  />
<polygon points="66,35 70,30 70,40 66,35 " style="fill:white; stroke-width:1; stroke:black; " description="&lt;b&gt;CopciAB_1002065.T0&lt;/b&gt;&lt;br&gt;CopciAB 1002065.T0&lt;br&gt;Location: 179853 - 180240" locus_tag="CopciAB_1002065.T0" class="clusterblast-orf" id="dummy-1_q3_0_all"  />
<polygon points="84,40 145,40 150,35 145,30 84,30 84,40 " style="fill:white; stroke-width:1; stroke:black; " description="&lt;b&gt;CopciAB_534846.T0&lt;/b&gt;&lt;br&gt;CopciAB 534846.T0&lt;br&gt;Location: 181567 - 187729" locus_tag="CopciAB_534846.T0" class="clusterblast-orf" id="dummy-1_q4_0_all"  />
<polygon points="162,35 167,30 171,30 171,40 167,40 162,35 " style="fill:white; stroke-width:1; stroke:black; " description="&lt;b&gt;CopciAB_473243.T1&lt;/b&gt;&lt;br&gt;CopciAB 473243.T1&lt;br&gt;Location: 188863 - 189736" locus_tag="CopciAB_473243.T1" class="clusterblast-orf" id="dummy-1_q5_0_all"  />
<polygon points="171,35 176,30 182,30 182,40 176,40 171,35 " style="fill:white; stroke-width:1; stroke:black; " description="&lt;b&gt;CopciAB_473243.T0&lt;/b&gt;&lt;br&gt;CopciAB 473243.T0&lt;br&gt;Location: 189691 - 190759" locus_tag="CopciAB_473243.T0" class="clusterblast-orf" id="dummy-1_q6_0_all"  />
<polygon points="191,40 240,40 245,35 240,30 191,30 191,40 " style="fill:white; stroke-width:1; stroke:black; " description="&lt;b&gt;CopciAB_369919.T0&lt;/b&gt;&lt;br&gt;CopciAB 369919.T0&lt;br&gt;Location: 191565 - 196638" locus_tag="CopciAB_369919.T0" class="clusterblast-orf" id="dummy-1_q7_0_all"  />
<polygon points="253,40 255,40 260,35 255,30 253,30 253,40 " style="fill:white; stroke-width:1; stroke:black; " description="&lt;b&gt;CopciAB_498595.T0&lt;/b&gt;&lt;br&gt;CopciAB 498595.T0&lt;br&gt;Location: 197444 - 198082" locus_tag="CopciAB_498595.T0" class="clusterblast-orf" id="dummy-1_q8_0_all"  />
<polygon points="262,35 267,30 273,30 273,40 267,40 262,35 " style="fill:white; stroke-width:1; stroke:black; " description="&lt;b&gt;CopciAB_498594.T0&lt;/b&gt;&lt;br&gt;CopciAB 498594.T0&lt;br&gt;Location: 198248 - 199281" locus_tag="CopciAB_498594.T0" class="clusterblast-orf" id="dummy-1_q9_0_all"  />
<polygon points="296,40 335,40 340,35 335,30 296,30 296,40 " style="fill:#15d815; stroke-width:1; stroke:black; " description="&lt;b&gt;CopciAB_473239.T0&lt;/b&gt;&lt;br&gt;CopciAB 473239.T0&lt;br&gt;Location: 201434 - 205577" locus_tag="CopciAB_473239.T0" class="clusterblast-orf" id="dummy-1_q10_0_all"  />
<polygon points="334,40 336,40 341,35 336,30 334,30 334,40 " style="fill:#15d815; stroke-width:1; stroke:black; " description="&lt;b&gt;CopciAB_473239.T1&lt;/b&gt;&lt;br&gt;CopciAB 473239.T1&lt;br&gt;Location: 205070 - 205688" locus_tag="CopciAB_473239.T1" class="clusterblast-orf" id="dummy-1_q11_0_all"  />
<polygon points="342,35 347,30 361,30 361,40 347,40 342,35 " style="fill:white; stroke-width:1; stroke:black; " description="&lt;b&gt;CopciAB_425685.T0&lt;/b&gt;&lt;br&gt;CopciAB 425685.T0&lt;br&gt;Location: 205807 - 207560" locus_tag="CopciAB_425685.T0" class="clusterblast-orf" id="dummy-1_q12_0_all"  />
<polygon points="392,40 405,40 410,35 405,30 392,30 392,40 " style="fill:white; stroke-width:1; stroke:black; " description="&lt;b&gt;CopciAB_399574.T0&lt;/b&gt;&lt;br&gt;CopciAB 399574.T0&lt;br&gt;Location: 210441 - 212171" locus_tag="CopciAB_399574.T0" class="clusterblast-orf" id="dummy-1_q13_0_all"  />
<polygon points="415,35 420,30 421,30 421,40 420,40 415,35 " style="fill:white; stroke-width:1; stroke:black; " description="&lt;b&gt;CopciAB_473236.T0&lt;/b&gt;&lt;br&gt;CopciAB 473236.T0&lt;br&gt;Location: 212658 - 213166" locus_tag="CopciAB_473236.T0" class="clusterblast-orf" id="dummy-1_q14_0_all"  />
<polygon points="425,35 430,30 470,30 470,40 430,40 425,35 " style="fill:#15d815; stroke-width:1; stroke:black; " description="&lt;b&gt;CopciAB_369914.T0&lt;/b&gt;&lt;br&gt;CopciAB 369914.T0&lt;br&gt;Location: 213586 - 217818" locus_tag="CopciAB_369914.T0" class="clusterblast-orf" id="dummy-1_q15_0_all"  />
<polygon points="474,35 479,30 494,30 494,40 479,40 474,35 " style="fill:white; stroke-width:1; stroke:black; " description="&lt;b&gt;CopciAB_1002066.T0&lt;/b&gt;&lt;br&gt;CopciAB 1002066.T0&lt;br&gt;Location: 218198 - 220084" locus_tag="CopciAB_1002066.T0" class="clusterblast-orf" id="dummy-1_q16_0_all"  />
<polygon points="503,40 522,40 527,35 522,30 503,30 503,40 " style="fill:#1515d8; stroke-width:1; stroke:black; " description="&lt;b&gt;CopciAB_450807.T0&lt;/b&gt;&lt;br&gt;CopciAB 450807.T0&lt;br&gt;Location: 220896 - 223183" locus_tag="CopciAB_450807.T0" class="clusterblast-orf" id="dummy-1_q17_0_all"  />
<polygon points="534,35 539,30 541,30 541,40 539,40 534,35 " style="fill:white; stroke-width:1; stroke:black; " description="&lt;b&gt;CopciAB_473232.T0&lt;/b&gt;&lt;br&gt;CopciAB 473232.T0&lt;br&gt;Location: 223813 - 224480" locus_tag="CopciAB_473232.T0" class="clusterblast-orf" id="dummy-1_q18_0_all"  />
<polygon points="535,35 536,30 536,40 535,35 " style="fill:white; stroke-width:1; stroke:black; " description="&lt;b&gt;CopciAB_473232.T1&lt;/b&gt;&lt;br&gt;CopciAB 473232.T1&lt;br&gt;Location: 223905 - 223995" locus_tag="CopciAB_473232.T1" class="clusterblast-orf" id="dummy-1_q19_0_all"  />
<polygon points="564,40 581,40 586,35 581,30 564,30 564,40 " style="fill:#1515d8; stroke-width:1; stroke:black; " description="&lt;b&gt;CopciAB_488576.T0&lt;/b&gt;&lt;br&gt;CopciAB 488576.T0&lt;br&gt;Location: 226622 - 228744" locus_tag="CopciAB_488576.T0" class="clusterblast-orf" id="dummy-1_q20_0_all"  />
<polygon points="597,40 611,40 616,35 611,30 597,30 597,40 " style="fill:white; stroke-width:1; stroke:black; " description="&lt;b&gt;CopciAB_473230.T0&lt;/b&gt;&lt;br&gt;CopciAB 473230.T0&lt;br&gt;Location: 229760 - 231482" locus_tag="CopciAB_473230.T0" class="clusterblast-orf" id="dummy-1_q21_0_all"  />
<polygon points="618,35 623,30 641,30 641,40 623,40 618,35 " style="fill:#1515d8; stroke-width:1; stroke:black; " description="&lt;b&gt;CopciAB_488574.T0&lt;/b&gt;&lt;br&gt;CopciAB 488574.T0&lt;br&gt;Location: 231724 - 233909" locus_tag="CopciAB_488574.T0" class="clusterblast-orf" id="dummy-1_q22_0_all"  />
<polygon points="659,40 660,40 665,35 660,30 659,30 659,40 " style="fill:white; stroke-width:1; stroke:black; " description="&lt;b&gt;CopciAB_285476.T0&lt;/b&gt;&lt;br&gt;CopciAB 285476.T0&lt;br&gt;Location: 235533 - 236084" locus_tag="CopciAB_285476.T0" class="clusterblast-orf" id="dummy-1_q23_0_all"  />
<polygon points="667,40 686,40 691,35 686,30 667,30 667,40 " style="fill:#1515d8; stroke-width:1; stroke:black; " description="&lt;b&gt;CopciAB_473228.T0&lt;/b&gt;&lt;br&gt;CopciAB 473228.T0&lt;br&gt;Location: 236320 - 238568" locus_tag="CopciAB_473228.T0" class="clusterblast-orf" id="dummy-1_q24_0_all"  />
<polygon points="694,40 713,40 718,35 713,30 694,30 694,40 " style="fill:#1515d8; stroke-width:1; stroke:black; " description="&lt;b&gt;CopciAB_369969.T0&lt;/b&gt;&lt;br&gt;CopciAB 369969.T0&lt;br&gt;Location: 238825 - 241072" locus_tag="CopciAB_369969.T0" class="clusterblast-orf" id="dummy-1_q25_0_all"  />
<polygon points="746,40 775,40 780,35 775,30 746,30 746,40 " style="fill:white; stroke-width:1; stroke:black; " description="&lt;b&gt;CopciAB_399546.T0&lt;/b&gt;&lt;br&gt;CopciAB 399546.T0&lt;br&gt;Location: 243724 - 246887" locus_tag="CopciAB_399546.T0" class="clusterblast-orf" id="dummy-1_q26_0_all"  />
</g>
<g label="NT_107013" description="NT_107013 (1979065-2024118): Aspergillus nidulans FGSC A4 chromosome VI map u... (12% of genes show similarity), T1PKS" class="clusterblast-cluster"  >
<text x="5" y="70" class="clusterblast-acc"  >
<a xlink:href="https://antismash-db.secondarymetabolites.org/area.html?record=NT_107013&amp;start=1979065&amp;end=2024118" target="_blank">NT_107013 (1979065-2024118)</a>: Aspergillus nidulans FGSC A4 chromosome VI map u... (12% of genes show similarity), T1PKS</text>
<line x1="10" y1="85" x2="778.0" y2="85" style="stroke-width:1; stroke:grey; "  />
</g>
<g id="a1_000"  >
<polygon points="150,90 155,90 160,85 155,80 150,80 150,90 " style="fill:white; stroke-width:1; stroke:black; " description="&lt;b&gt;AN3238.2&lt;/b&gt;&lt;br&gt;predicted protein&lt;br&gt;Location: 2024118 - 2023138" locus_tag="AN3238.2" class="clusterblast-orf" id="dummy-1_h1_2_0"  />
</g>
<g id="a1_001"  >
<polygon points="180,85 185,80 200,80 200,90 185,90 180,85 " style="fill:white; stroke-width:1; stroke:black; " description="&lt;b&gt;AN3237.2&lt;/b&gt;&lt;br&gt;hypothetical protein&lt;br&gt;Location: 2021286 - 2019431" locus_tag="AN3237.2" class="clusterblast-orf" id="dummy-1_h1_2_1"  />
</g>
<g id="a1_002"  >
<polygon points="208,85 213,80 220,80 220,90 213,90 208,85 " style="fill:white; stroke-width:1; stroke:black; " description="&lt;b&gt;AN3236.2&lt;/b&gt;&lt;br&gt;hypothetical protein&lt;br&gt;Location: 2018683 - 2017536" locus_tag="AN3236.2" class="clusterblast-orf" id="dummy-1_h1_2_2"  />
</g>
<g id="a1_003"  >
<polygon points="229,85 234,80 242,80 242,90 234,90 229,85 " style="fill:white; stroke-width:1; stroke:black; " description="&lt;b&gt;AN3235.2&lt;/b&gt;&lt;br&gt;hypothetical protein&lt;br&gt;Location: 2016662 - 2015404" locus_tag="AN3235.2" class="clusterblast-orf" id="dummy-1_h1_2_3"  />
</g>
<g id="a1_004"  >
<polygon points="256,85 261,80 266,80 266,90 261,90 256,85 " style="fill:white; stroke-width:1; stroke:black; " description="&lt;b&gt;AN3234.2&lt;/b&gt;&lt;br&gt;hypothetical protein&lt;br&gt;Location: 2014124 - 2013184" locus_tag="AN3234.2" class="clusterblast-orf" id="dummy-1_h1_2_4"  />
</g>
<g id="a1_005"  >
<polygon points="277,85 282,80 299,80 299,90 282,90 277,85 " style="fill:white; stroke-width:1; stroke:black; " description="&lt;b&gt;AN3233.2&lt;/b&gt;&lt;br&gt;hypothetical protein&lt;br&gt;Location: 2012124 - 2010103" locus_tag="AN3233.2" class="clusterblast-orf" id="dummy-1_h1_2_5"  />
</g>
<g id="a1_006"  >
<polygon points="317,85 322,80 335,80 335,90 322,90 317,85 " style="fill:white; stroke-width:1; stroke:black; " description="&lt;b&gt;AN3232.2&lt;/b&gt;&lt;br&gt;hypothetical protein&lt;br&gt;Location: 2008387 - 2006746" locus_tag="AN3232.2" class="clusterblast-orf" id="dummy-1_h1_2_6"  />
</g>
<g id="a1_007"  >
<polygon points="340,90 349,90 354,85 349,80 340,80 340,90 " style="fill:white; stroke-width:1; stroke:black; " description="&lt;b&gt;AN3231.2&lt;/b&gt;&lt;br&gt;hypothetical protein&lt;br&gt;Location: 2006227 - 2004897" locus_tag="AN3231.2" class="clusterblast-orf" id="dummy-1_h1_2_7"  />
</g>
<g id="a1_008"  >
<polygon points="358,85 363,80 431,80 431,90 363,90 358,85 " style="fill:#15d815; stroke-width:1; stroke:black; " description="&lt;b&gt;AN3230.2&lt;/b&gt;&lt;br&gt;hypothetical protein&lt;br&gt;Location: 2004517 - 1997737&lt;br&gt;&lt;br&gt;&lt;b&gt;BlastP hit with CopciAB_369914.T0&lt;/b&gt;&lt;br&gt;Percentage identity: 31&lt;br&gt;Percentage coverage: 31&lt;br&gt;BLAST bit score: 144&lt;br&gt;E-value: 1.32e-32" locus_tag="AN3230.2" class="clusterblast-orf" id="dummy-1_h1_2_8"  />
</g>
<g id="a1_009"  >
<polygon points="440,90 456,90 461,85 456,80 440,80 440,90 " style="fill:#1515d8; stroke-width:1; stroke:black; " description="&lt;b&gt;AN3229.2&lt;/b&gt;&lt;br&gt;hypothetical protein&lt;br&gt;Location: 1996815 - 1994877&lt;br&gt;&lt;br&gt;&lt;b&gt;BlastP hit with CopciAB_450807.T0&lt;/b&gt;&lt;br&gt;Percentage identity: 31&lt;br&gt;Percentage coverage: 105&lt;br&gt;BLAST bit score: 252&lt;br&gt;E-value: 6.96e-74&lt;br&gt;&lt;br&gt;&lt;b&gt;BlastP hit with CopciAB_488576.T0&lt;/b&gt;&lt;br&gt;Percentage identity: 32&lt;br&gt;Percentage coverage: 101&lt;br&gt;BLAST bit score: 236&lt;br&gt;E-value: 5.86e-68&lt;br&gt;&lt;br&gt;&lt;b&gt;BlastP hit with CopciAB_473228.T0&lt;/b&gt;&lt;br&gt;Percentage identity: 31&lt;br&gt;Percentage coverage: 105&lt;br&gt;BLAST bit score: 239&lt;br&gt;E-value: 4.98e-69&lt;br&gt;&lt;br&gt;&lt;b&gt;BlastP hit with CopciAB_369969.T0&lt;/b&gt;&lt;br&gt;Percentage identity: 32&lt;br&gt;Percentage coverage: 101&lt;br&gt;BLAST bit score: 255&lt;br&gt;E-value: 5.05e-75" locus_tag="AN3229.2" class="clusterblast-orf" id="dummy-1_h1_2_9"  />
</g>
<g id="a1_0010"  >
<polygon points="469,90 474,90 479,85 474,80 469,80 469,90 " style="fill:white; stroke-width:1; stroke:black; " description="&lt;b&gt;AN3228.2&lt;/b&gt;&lt;br&gt;hypothetical protein&lt;br&gt;Location: 1994136 - 1993207" locus_tag="AN3228.2" class="clusterblast-orf" id="dummy-1_h1_2_10"  />
</g>
<g id="a1_0011"  >
<polygon points="489,90 501,90 506,85 501,80 489,80 489,90 " style="fill:white; stroke-width:1; stroke:black; " description="&lt;b&gt;AN3227.2&lt;/b&gt;&lt;br&gt;hypothetical protein&lt;br&gt;Location: 1992256 - 1990656" locus_tag="AN3227.2" class="clusterblast-orf" id="dummy-1_h1_2_11"  />
</g>
<g id="a1_0012"  >
<polygon points="512,90 518,90 523,85 518,80 512,80 512,90 " style="fill:white; stroke-width:1; stroke:black; " description="&lt;b&gt;AN3226.2&lt;/b&gt;&lt;br&gt;hypothetical protein&lt;br&gt;Location: 1990049 - 1989027" locus_tag="AN3226.2" class="clusterblast-orf" id="dummy-1_h1_2_12"  />
</g>
<g id="a1_0013"  >
<polygon points="530,90 550,90 555,85 550,80 530,80 530,90 " style="fill:white; stroke-width:1; stroke:black; " description="&lt;b&gt;AN3225.2&lt;/b&gt;&lt;br&gt;hypothetical protein&lt;br&gt;Location: 1988404 - 1986077" locus_tag="AN3225.2" class="clusterblast-orf" id="dummy-1_h1_2_13"  />
</g>
<g id="a1_0014"  >
<polygon points="571,85 576,80 592,80 592,90 576,90 571,85 " style="fill:white; stroke-width:1; stroke:black; " description="&lt;b&gt;AN3224.2&lt;/b&gt;&lt;br&gt;hypothetical protein&lt;br&gt;Location: 1984535 - 1982538" locus_tag="AN3224.2" class="clusterblast-orf" id="dummy-1_h1_2_14"  />
</g>
<g id="a1_0015"  >
<polygon points="603,90 624,90 629,85 624,80 603,80 603,90 " style="fill:white; stroke-width:1; stroke:black; " description="&lt;b&gt;AN3223.2&lt;/b&gt;&lt;br&gt;K6PF ASPNG 6-phosphofructokinase (Phosphofructokinase) (Phosphohexokinase) (6PF-1-K)&lt;br&gt;Location: 1981552 - 1979066" locus_tag="AN3223.2" class="clusterblast-orf" id="dummy-1_h1_2_15"  />
</g>
</svg>
