<svg xmlns="http://www.w3.org/2000/svg" xmlns:xlink="http://www.w3.org/1999/xlink" version="1.1" x="0" y="0" height="230" width="800" viewBox="0 0 800 230" preserveAspectRatio="none"  >
<g label="Query sequence" class="clusterblast-cluster"  >
<text x="5" y="20" class="clusterblast-acc"  >
Query sequence</text>
<line x1="10" y1="35" x2="778.0" y2="35" style="stroke-width:1; stroke:grey; "  />
<polygon points="178,40 182,40 187,35 182,30 178,30 178,40 " style="fill:white; stroke-width:1; stroke:black; " description="&lt;b&gt;CopciAB_371128.T0&lt;/b&gt;&lt;br&gt;CopciAB 371128.T0&lt;br&gt;Location: 421853 - 423203" locus_tag="CopciAB_371128.T0" class="clusterblast-orf" id="dummy-1_q0_0_all"  />
<polygon points="192,40 207,40 212,35 207,30 192,30 192,40 " style="fill:white; stroke-width:1; stroke:black; " description="&lt;b&gt;CopciAB_15443.T0&lt;/b&gt;&lt;br&gt;CopciAB 15443.T0&lt;br&gt;Location: 423953 - 426878" locus_tag="CopciAB_15443.T0" class="clusterblast-orf" id="dummy-1_q1_0_all"  />
<polygon points="214,40 241,40 246,35 241,30 214,30 214,40 " style="fill:white; stroke-width:1; stroke:black; " description="&lt;b&gt;CopciAB_371141.T0&lt;/b&gt;&lt;br&gt;CopciAB 371141.T0&lt;br&gt;Location: 427240 - 432121" locus_tag="CopciAB_371141.T0" class="clusterblast-orf" id="dummy-1_q2_0_all"  />
<polygon points="254,40 258,35 254,30 254,40 " style="fill:white; stroke-width:1; stroke:black; " description="&lt;b&gt;CopciAB_499066.T0&lt;/b&gt;&lt;br&gt;CopciAB 499066.T0&lt;br&gt;Location: 433289 - 433957" locus_tag="CopciAB_499066.T0" class="clusterblast-orf" id="dummy-1_q3_0_all"  />
<polygon points="262,40 272,40 277,35 272,30 262,30 262,40 " style="fill:white; stroke-width:1; stroke:black; " description="&lt;b&gt;CopciAB_462172.T0&lt;/b&gt;&lt;br&gt;CopciAB 462172.T0&lt;br&gt;Location: 434519 - 436842" locus_tag="CopciAB_462172.T0" class="clusterblast-orf" id="dummy-1_q4_0_all"  />
<polygon points="285,35 290,30 293,30 293,40 290,40 285,35 " style="fill:white; stroke-width:1; stroke:black; " description="&lt;b&gt;CopciAB_371191.T0&lt;/b&gt;&lt;br&gt;CopciAB 371191.T0&lt;br&gt;Location: 438018 - 439147" locus_tag="CopciAB_371191.T0" class="clusterblast-orf" id="dummy-1_q5_0_all"  />
<polygon points="287,35 288,30 288,40 287,35 " style="fill:white; stroke-width:1; stroke:black; " description="&lt;b&gt;CopciAB_371191.T1&lt;/b&gt;&lt;br&gt;CopciAB 371191.T1&lt;br&gt;Location: 438368 - 438422" locus_tag="CopciAB_371191.T1" class="clusterblast-orf" id="dummy-1_q6_0_all"  />
<polygon points="293,35 296,30 296,40 293,35 " style="fill:white; stroke-width:1; stroke:black; " description="&lt;b&gt;CopciAB_371135.T0&lt;/b&gt;&lt;br&gt;CopciAB 371135.T0&lt;br&gt;Location: 439214 - 439628" locus_tag="CopciAB_371135.T0" class="clusterblast-orf" id="dummy-1_q7_0_all"  />
<polygon points="303,35 305,30 305,40 303,35 " style="fill:white; stroke-width:1; stroke:black; " description="&lt;b&gt;CopciAB_1002281.T0&lt;/b&gt;&lt;br&gt;CopciAB 1002281.T0&lt;br&gt;Location: 440768 - 441083" locus_tag="CopciAB_1002281.T0" class="clusterblast-orf" id="dummy-1_q8_0_all"  />
<polygon points="314,40 326,40 331,35 326,30 314,30 314,40 " style="fill:white; stroke-width:1; stroke:black; " description="&lt;b&gt;CopciAB_1002282.T0&lt;/b&gt;&lt;br&gt;CopciAB 1002282.T0&lt;br&gt;Location: 442404 - 444945" locus_tag="CopciAB_1002282.T0" class="clusterblast-orf" id="dummy-1_q9_0_all"  />
<polygon points="337,40 347,40 352,35 347,30 337,30 337,40 " style="fill:white; stroke-width:1; stroke:black; " description="&lt;b&gt;CopciAB_371185.T0&lt;/b&gt;&lt;br&gt;CopciAB 371185.T0&lt;br&gt;Location: 445952 - 448093" locus_tag="CopciAB_371185.T0" class="clusterblast-orf" id="dummy-1_q10_0_all"  />
<polygon points="355,35 360,30 363,30 363,40 360,40 355,35 " style="fill:#d81515; stroke-width:1; stroke:black; " description="&lt;b&gt;CopciAB_437423.T0&lt;/b&gt;&lt;br&gt;CopciAB 437423.T0&lt;br&gt;Location: 448582 - 449891" locus_tag="CopciAB_437423.T0" class="clusterblast-orf" id="dummy-1_q11_0_all"  />
<polygon points="368,40 417,40 422,35 417,30 368,30 368,40 " style="fill:#15d8d8; stroke-width:1; stroke:black; " description="&lt;b&gt;CopciAB_437425.T0&lt;/b&gt;&lt;br&gt;CopciAB 437425.T0&lt;br&gt;Location: 450566 - 458706" locus_tag="CopciAB_437425.T0" class="clusterblast-orf" id="dummy-1_q12_0_all"  />
<polygon points="427,35 431,30 431,40 427,35 " style="fill:white; stroke-width:1; stroke:black; " description="&lt;b&gt;CopciAB_1002283.T0&lt;/b&gt;&lt;br&gt;CopciAB 1002283.T0&lt;br&gt;Location: 459534 - 460198" locus_tag="CopciAB_1002283.T0" class="clusterblast-orf" id="dummy-1_q13_0_all"  />
<polygon points="463,35 468,30 468,30 468,40 468,40 463,35 " style="fill:white; stroke-width:1; stroke:black; " description="&lt;b&gt;CopciAB_1002284.T0&lt;/b&gt;&lt;br&gt;CopciAB 1002284.T0&lt;br&gt;Location: 464996 - 465772" locus_tag="CopciAB_1002284.T0" class="clusterblast-orf" id="dummy-1_q14_0_all"  />
<polygon points="505,35 510,30 512,30 512,40 510,40 505,35 " style="fill:white; stroke-width:1; stroke:black; " description="&lt;b&gt;CopciAB_1002285.T0&lt;/b&gt;&lt;br&gt;CopciAB 1002285.T0&lt;br&gt;Location: 471290 - 472430" locus_tag="CopciAB_1002285.T0" class="clusterblast-orf" id="dummy-1_q15_0_all"  />
<polygon points="518,40 521,40 526,35 521,30 518,30 518,40 " style="fill:white; stroke-width:1; stroke:black; " description="&lt;b&gt;CopciAB_532638.T0&lt;/b&gt;&lt;br&gt;CopciAB 532638.T0&lt;br&gt;Location: 473318 - 474574" locus_tag="CopciAB_532638.T0" class="clusterblast-orf" id="dummy-1_q16_0_all"  />
<polygon points="535,40 552,40 557,35 552,30 535,30 535,40 " style="fill:white; stroke-width:1; stroke:black; " description="&lt;b&gt;CopciAB_444333.T0&lt;/b&gt;&lt;br&gt;CopciAB 444333.T0&lt;br&gt;Location: 475843 - 479279" locus_tag="CopciAB_444333.T0" class="clusterblast-orf" id="dummy-1_q17_0_all"  />
<polygon points="558,35 563,30 567,30 567,40 563,40 558,35 " style="fill:white; stroke-width:1; stroke:black; " description="&lt;b&gt;CopciAB_444334.T0&lt;/b&gt;&lt;br&gt;CopciAB 444334.T0&lt;br&gt;Location: 479365 - 480691" locus_tag="CopciAB_444334.T0" class="clusterblast-orf" id="dummy-1_q18_0_all"  />
<polygon points="570,35 575,30 601,30 601,40 575,40 570,35 " style="fill:white; stroke-width:1; stroke:black; " description="&lt;b&gt;CopciAB_444335.T0&lt;/b&gt;&lt;br&gt;CopciAB 444335.T0&lt;br&gt;Location: 481168 - 485844" locus_tag="CopciAB_444335.T0" class="clusterblast-orf" id="dummy-1_q19_0_all"  />
</g>
<g label="NZ_CP021748" description="NZ_CP021748 (458639-576848): Streptomyces alboflavus strain MDJK44 chromosome... (6% of genes show similarity), T1PKS" class="clusterblast-cluster"  >
<text x="5" y="70" class="clusterblast-acc"  >
<a xlink:href="https://antismash-db.secondarymetabolites.org/area.html?record=NZ_CP021748&amp;start=458639&amp;end=576848" target="_blank">NZ_CP021748 (458639-576848)</a>: Streptomyces alboflavus strain MDJK44 chromosome... (6% of genes show similarity), T1PKS</text>
<line x1="10" y1="85" x2="778.0" y2="85" style="stroke-width:1; stroke:grey; "  />
</g>
<g id="a1_000"  >
<polygon points="0,90 5,90 10,85 5,80 0,80 0,90 " style="fill:white; stroke-width:1; stroke:black; " description="&lt;b&gt;SMD44_RS02385&lt;/b&gt;&lt;br&gt;helix-turn-helix domain-containing protein&lt;br&gt;Location: 576848 - 575237" locus_tag="SMD44_RS02385" class="clusterblast-orf" id="dummy-1_h1_5_0"  />
</g>
<g id="a1_001"  >
<polygon points="10,85 11,80 11,90 10,85 " style="fill:white; stroke-width:1; stroke:black; " description="&lt;b&gt;SMD44_RS02380&lt;/b&gt;&lt;br&gt;hydrophobic protein&lt;br&gt;Location: 575235 - 575065" locus_tag="SMD44_RS02380" class="clusterblast-orf" id="dummy-1_h1_5_1"  />
</g>
<g id="a1_002"  >
<polygon points="12,85 14,80 14,90 12,85 " style="fill:white; stroke-width:1; stroke:black; " description="&lt;b&gt;SMD44_RS02375&lt;/b&gt;&lt;br&gt;hypothetical protein&lt;br&gt;Location: 574924 - 574691" locus_tag="SMD44_RS02375" class="clusterblast-orf" id="dummy-1_h1_5_2"  />
</g>
<g id="a1_003"  >
<polygon points="14,85 19,80 23,80 23,90 19,90 14,85 " style="fill:white; stroke-width:1; stroke:black; " description="&lt;b&gt;SMD44_RS02370&lt;/b&gt;&lt;br&gt;TRAP transporter large permease subunit&lt;br&gt;Location: 574661 - 573313" locus_tag="SMD44_RS02370" class="clusterblast-orf" id="dummy-1_h1_5_3"  />
</g>
<g id="a1_004"  >
<polygon points="27,85 32,80 32,80 32,90 32,90 27,85 " style="fill:white; stroke-width:1; stroke:black; " description="&lt;b&gt;SMD44_RS02365&lt;/b&gt;&lt;br&gt;hypothetical protein&lt;br&gt;Location: 572614 - 571877" locus_tag="SMD44_RS02365" class="clusterblast-orf" id="dummy-1_h1_5_4"  />
</g>
<g id="a1_005"  >
<polygon points="35,85 40,80 43,80 43,90 40,90 35,85 " style="fill:white; stroke-width:1; stroke:black; " description="&lt;b&gt;SMD44_RS02360&lt;/b&gt;&lt;br&gt;four-carbon acid sugar kinase family protein&lt;br&gt;Location: 571533 - 570293" locus_tag="SMD44_RS02360" class="clusterblast-orf" id="dummy-1_h1_5_5"  />
</g>
<g id="a1_006"  >
<polygon points="43,85 48,80 48,80 48,90 48,90 43,85 " style="fill:white; stroke-width:1; stroke:black; " description="&lt;b&gt;SMD44_RS02355&lt;/b&gt;&lt;br&gt;hypothetical protein&lt;br&gt;Location: 570215 - 569559" locus_tag="SMD44_RS02355" class="clusterblast-orf" id="dummy-1_h1_5_6"  />
</g>
<g id="a1_007"  >
<polygon points="48,85 53,80 54,80 54,90 53,90 48,85 " style="fill:white; stroke-width:1; stroke:black; " description="&lt;b&gt;SMD44_RS02350&lt;/b&gt;&lt;br&gt;TIM barrel protein&lt;br&gt;Location: 569506 - 568538" locus_tag="SMD44_RS02350" class="clusterblast-orf" id="dummy-1_h1_5_7"  />
</g>
<g id="a1_008"  >
<polygon points="54,85 59,80 61,80 61,90 59,90 54,85 " style="fill:white; stroke-width:1; stroke:black; " description="&lt;b&gt;SMD44_RS02345&lt;/b&gt;&lt;br&gt;phosphoglycerate dehydrogenase&lt;br&gt;Location: 568538 - 567540" locus_tag="SMD44_RS02345" class="clusterblast-orf" id="dummy-1_h1_5_8"  />
</g>
<g id="a1_009"  >
<polygon points="62,90 66,85 62,80 62,90 " style="fill:white; stroke-width:1; stroke:black; " description="&lt;b&gt;SMD44_RS02340&lt;/b&gt;&lt;br&gt;GntR family transcriptional regulator&lt;br&gt;Location: 567429 - 566743" locus_tag="SMD44_RS02340" class="clusterblast-orf" id="dummy-1_h1_5_9"  />
</g>
<g id="a1_0010"  >
<polygon points="66,85 70,80 70,90 66,85 " style="fill:white; stroke-width:1; stroke:black; " description="&lt;b&gt;SMD44_RS02335&lt;/b&gt;&lt;br&gt;hypothetical protein&lt;br&gt;Location: 566725 - 566165" locus_tag="SMD44_RS02335" class="clusterblast-orf" id="dummy-1_h1_5_10"  />
</g>
<g id="a1_0011"  >
<polygon points="71,85 76,80 84,80 84,90 76,90 71,85 " style="fill:white; stroke-width:1; stroke:black; " description="&lt;b&gt;SMD44_RS02330&lt;/b&gt;&lt;br&gt;protein-arginine deiminase&lt;br&gt;Location: 565939 - 564056" locus_tag="SMD44_RS02330" class="clusterblast-orf" id="dummy-1_h1_5_11"  />
</g>
<g id="a1_0012"  >
<polygon points="86,90 91,90 96,85 91,80 86,80 86,90 " style="fill:white; stroke-width:1; stroke:black; " description="&lt;b&gt;SMD44_RS02325&lt;/b&gt;&lt;br&gt;hypothetical protein&lt;br&gt;Location: 563718 - 562258" locus_tag="SMD44_RS02325" class="clusterblast-orf" id="dummy-1_h1_5_12"  />
</g>
<g id="a1_0013"  >
<polygon points="97,85 101,80 101,90 97,85 " style="fill:white; stroke-width:1; stroke:black; " description="&lt;b&gt;SMD44_RS02320&lt;/b&gt;&lt;br&gt;TetR/AcrR family transcriptional regulator&lt;br&gt;Location: 562111 - 561536" locus_tag="SMD44_RS02320" class="clusterblast-orf" id="dummy-1_h1_5_13"  />
</g>
<g id="a1_0014"  >
<polygon points="101,90 103,90 108,85 103,80 101,80 101,90 " style="fill:white; stroke-width:1; stroke:black; " description="&lt;b&gt;SMD44_RS02315&lt;/b&gt;&lt;br&gt;alpha/beta hydrolase&lt;br&gt;Location: 561442 - 560480" locus_tag="SMD44_RS02315" class="clusterblast-orf" id="dummy-1_h1_5_14"  />
</g>
<g id="a1_0015"  >
<polygon points="108,90 108,90 113,85 108,80 108,80 108,90 " style="fill:white; stroke-width:1; stroke:black; " description="&lt;b&gt;SMD44_RS02310&lt;/b&gt;&lt;br&gt;NAD(P)-binding domain-containing protein&lt;br&gt;Location: 560433 - 559630" locus_tag="SMD44_RS02310" class="clusterblast-orf" id="dummy-1_h1_5_15"  />
</g>
<g id="a1_0016"  >
<polygon points="124,90 206,90 211,85 206,80 124,80 124,90 " style="fill:#d81515; stroke-width:1; stroke:black; " description="&lt;b&gt;SMD44_RS02305&lt;/b&gt;&lt;br&gt;SDR family NAD(P)-dependent oxidoreductase&lt;br&gt;Location: 557969 - 544851&lt;br&gt;&lt;br&gt;&lt;b&gt;BlastP hit with CopciAB_437423.T0&lt;/b&gt;&lt;br&gt;Percentage identity: 31&lt;br&gt;Percentage coverage: 56&lt;br&gt;BLAST bit score: 62&lt;br&gt;E-value: 2.04e-08" locus_tag="SMD44_RS02305" class="clusterblast-orf" id="dummy-1_h1_5_16"  />
</g>
<g id="a1_0017"  >
<polygon points="211,90 302,90 307,85 302,80 211,80 211,90 " style="fill:#15d8d8; stroke-width:1; stroke:black; " description="&lt;b&gt;SMD44_RS02300&lt;/b&gt;&lt;br&gt;type I polyketide synthase&lt;br&gt;Location: 544797 - 530230&lt;br&gt;&lt;br&gt;&lt;b&gt;BlastP hit with CopciAB_437425.T0&lt;/b&gt;&lt;br&gt;Percentage identity: 31&lt;br&gt;Percentage coverage: 38&lt;br&gt;BLAST bit score: 333&lt;br&gt;E-value: 2.66e-89" locus_tag="SMD44_RS02300" class="clusterblast-orf" id="dummy-1_h1_5_17"  />
</g>
<g id="a1_0018"  >
<polygon points="307,90 385,90 390,85 385,80 307,80 307,90 " style="fill:white; stroke-width:1; stroke:black; " description="&lt;b&gt;SMD44_RS02295&lt;/b&gt;&lt;br&gt;type I polyketide synthase&lt;br&gt;Location: 530188 - 517727" locus_tag="SMD44_RS02295" class="clusterblast-orf" id="dummy-1_h1_5_18"  />
</g>
<g id="a1_0019"  >
<polygon points="392,90 432,90 437,85 432,80 392,80 392,90 " style="fill:#15d8d8; stroke-width:1; stroke:black; " description="&lt;b&gt;SMD44_RS02290&lt;/b&gt;&lt;br&gt;SDR family NAD(P)-dependent oxidoreductase&lt;br&gt;Location: 517385 - 510579&lt;br&gt;&lt;br&gt;&lt;b&gt;BlastP hit with CopciAB_437425.T0&lt;/b&gt;&lt;br&gt;Percentage identity: 31&lt;br&gt;Percentage coverage: 38&lt;br&gt;BLAST bit score: 321&lt;br&gt;E-value: 7.38e-86" locus_tag="SMD44_RS02290" class="clusterblast-orf" id="dummy-1_h1_5_19"  />
</g>
<g id="a1_0020"  >
<polygon points="437,90 510,90 515,85 510,80 437,80 437,90 " style="fill:white; stroke-width:1; stroke:black; " description="&lt;b&gt;SMD44_RS02285&lt;/b&gt;&lt;br&gt;type I polyketide synthase&lt;br&gt;Location: 510547 - 498746" locus_tag="SMD44_RS02285" class="clusterblast-orf" id="dummy-1_h1_5_20"  />
</g>
<g id="a1_0021"  >
<polygon points="514,90 568,90 573,85 568,80 514,80 514,90 " style="fill:white; stroke-width:1; stroke:black; " description="&lt;b&gt;SMD44_RS02280&lt;/b&gt;&lt;br&gt;type I polyketide synthase&lt;br&gt;Location: 498869 - 489879" locus_tag="SMD44_RS02280" class="clusterblast-orf" id="dummy-1_h1_5_21"  />
</g>
<g id="a1_0022"  >
<polygon points="574,90 644,90 649,85 644,80 574,80 574,90 " style="fill:white; stroke-width:1; stroke:black; " description="&lt;b&gt;SMD44_RS02275&lt;/b&gt;&lt;br&gt;type I polyketide synthase&lt;br&gt;Location: 489829 - 478487" locus_tag="SMD44_RS02275" class="clusterblast-orf" id="dummy-1_h1_5_22"  />
</g>
<g id="a1_0023"  >
<polygon points="649,90 649,90 654,85 649,80 649,80 649,90 " style="fill:white; stroke-width:1; stroke:black; " description="&lt;b&gt;SMD44_RS02270&lt;/b&gt;&lt;br&gt;thioesterase&lt;br&gt;Location: 478415 - 477657" locus_tag="SMD44_RS02270" class="clusterblast-orf" id="dummy-1_h1_5_23"  />
</g>
<g id="a1_0024"  >
<polygon points="658,90 658,90 663,85 658,80 658,80 658,90 " style="fill:white; stroke-width:1; stroke:black; " description="&lt;b&gt;SMD44_RS02265&lt;/b&gt;&lt;br&gt;trypsin-like serine protease&lt;br&gt;Location: 477060 - 476323" locus_tag="SMD44_RS02265" class="clusterblast-orf" id="dummy-1_h1_5_24"  />
</g>
<g id="a1_0025"  >
<polygon points="664,90 674,90 679,85 674,80 664,80 664,90 " style="fill:white; stroke-width:1; stroke:black; " description="&lt;b&gt;SMD44_RS02260&lt;/b&gt;&lt;br&gt;glycoside hydrolase&lt;br&gt;Location: 476108 - 473916" locus_tag="SMD44_RS02260" class="clusterblast-orf" id="dummy-1_h1_5_25"  />
</g>
<g id="a1_0026"  >
<polygon points="679,85 684,80 684,80 684,90 684,90 679,85 " style="fill:white; stroke-width:1; stroke:black; " description="&lt;b&gt;SMD44_RS02255&lt;/b&gt;&lt;br&gt;nucleotidyltransferase domain-containing protein&lt;br&gt;Location: 473885 - 473103" locus_tag="SMD44_RS02255" class="clusterblast-orf" id="dummy-1_h1_5_26"  />
</g>
<g id="a1_0027"  >
<polygon points="684,85 687,80 687,90 684,85 " style="fill:white; stroke-width:1; stroke:black; " description="&lt;b&gt;SMD44_RS02250&lt;/b&gt;&lt;br&gt;nucleotidyltransferase domain-containing protein&lt;br&gt;Location: 473068 - 472586" locus_tag="SMD44_RS02250" class="clusterblast-orf" id="dummy-1_h1_5_27"  />
</g>
<g id="a1_0028"  >
<polygon points="688,85 692,80 692,90 688,85 " style="fill:white; stroke-width:1; stroke:black; " description="&lt;b&gt;SMD44_RS02245&lt;/b&gt;&lt;br&gt;hypothetical protein&lt;br&gt;Location: 472566 - 471916" locus_tag="SMD44_RS02245" class="clusterblast-orf" id="dummy-1_h1_5_28"  />
</g>
<g id="a1_0029"  >
<polygon points="692,85 697,80 699,80 699,90 697,90 692,85 " style="fill:white; stroke-width:1; stroke:black; " description="&lt;b&gt;SMD44_RS02240&lt;/b&gt;&lt;br&gt;alkene reductase&lt;br&gt;Location: 471857 - 470787" locus_tag="SMD44_RS02240" class="clusterblast-orf" id="dummy-1_h1_5_29"  />
</g>
<g id="a1_0030"  >
<polygon points="700,90 703,85 700,80 700,90 " style="fill:white; stroke-width:1; stroke:black; " description="&lt;b&gt;SMD44_RS02235&lt;/b&gt;&lt;br&gt;MerR family transcriptional regulator&lt;br&gt;Location: 470625 - 470257" locus_tag="SMD44_RS02235" class="clusterblast-orf" id="dummy-1_h1_5_30"  />
</g>
<g id="a1_0031"  >
<polygon points="703,85 708,80 711,80 711,90 708,90 703,85 " style="fill:white; stroke-width:1; stroke:black; " description="&lt;b&gt;SMD44_RS02230&lt;/b&gt;&lt;br&gt;arsenic transporter&lt;br&gt;Location: 470202 - 468955" locus_tag="SMD44_RS02230" class="clusterblast-orf" id="dummy-1_h1_5_31"  />
</g>
<g id="a1_0032"  >
<polygon points="712,85 717,80 721,80 721,90 717,90 712,85 " style="fill:white; stroke-width:1; stroke:black; " description="&lt;b&gt;SMD44_RS02225&lt;/b&gt;&lt;br&gt;deoxyribodipyrimidine photo-lyase&lt;br&gt;Location: 468887 - 467514" locus_tag="SMD44_RS02225" class="clusterblast-orf" id="dummy-1_h1_5_32"  />
</g>
<g id="a1_0033"  >
<polygon points="723,90 727,85 723,80 723,90 " style="fill:white; stroke-width:1; stroke:black; " description="&lt;b&gt;SMD44_RS02220&lt;/b&gt;&lt;br&gt;adenosylcobinamide amidohydrolase&lt;br&gt;Location: 467240 - 466608" locus_tag="SMD44_RS02220" class="clusterblast-orf" id="dummy-1_h1_5_33"  />
</g>
<g id="a1_0034"  >
<polygon points="728,90 731,85 728,80 728,90 " style="fill:white; stroke-width:1; stroke:black; " description="&lt;b&gt;SMD44_RS02215&lt;/b&gt;&lt;br&gt;hypothetical protein&lt;br&gt;Location: 466370 - 465987" locus_tag="SMD44_RS02215" class="clusterblast-orf" id="dummy-1_h1_5_34"  />
</g>
<g id="a1_0035"  >
<polygon points="732,90 735,90 740,85 735,80 732,80 732,90 " style="fill:white; stroke-width:1; stroke:black; " description="&lt;b&gt;SMD44_RS02210&lt;/b&gt;&lt;br&gt;cytochrome P450&lt;br&gt;Location: 465896 - 464562" locus_tag="SMD44_RS02210" class="clusterblast-orf" id="dummy-1_h1_5_35"  />
</g>
<g id="a1_0036"  >
<polygon points="741,90 742,90 747,85 742,80 741,80 741,90 " style="fill:white; stroke-width:1; stroke:black; " description="&lt;b&gt;SMD44_RS02205&lt;/b&gt;&lt;br&gt;helix-turn-helix transcriptional regulator&lt;br&gt;Location: 464508 - 463492" locus_tag="SMD44_RS02205" class="clusterblast-orf" id="dummy-1_h1_5_36"  />
</g>
<g id="a1_0037"  >
<polygon points="747,90 749,90 754,85 749,80 747,80 747,90 " style="fill:white; stroke-width:1; stroke:black; " description="&lt;b&gt;SMD44_RS02200&lt;/b&gt;&lt;br&gt;methyltransferase&lt;br&gt;Location: 463495 - 462443" locus_tag="SMD44_RS02200" class="clusterblast-orf" id="dummy-1_h1_5_37"  />
</g>
<g id="a1_0038"  >
<polygon points="756,85 759,80 759,90 756,85 " style="fill:white; stroke-width:1; stroke:black; " description="&lt;b&gt;SMD44_RS02195&lt;/b&gt;&lt;br&gt;nuclear transport factor 2 family protein&lt;br&gt;Location: 462188 - 461730" locus_tag="SMD44_RS02195" class="clusterblast-orf" id="dummy-1_h1_5_38"  />
</g>
<g id="a1_0039"  >
<polygon points="760,90 764,85 760,80 760,90 " style="fill:white; stroke-width:1; stroke:black; " description="&lt;b&gt;SMD44_RS02190&lt;/b&gt;&lt;br&gt;TetR family transcriptional regulator&lt;br&gt;Location: 461573 - 460989" locus_tag="SMD44_RS02190" class="clusterblast-orf" id="dummy-1_h1_5_39"  />
</g>
<g id="a1_0040"  >
<polygon points="765,90 766,90 771,85 766,80 765,80 765,90 " style="fill:white; stroke-width:1; stroke:black; " description="&lt;b&gt;SMD44_RS02185&lt;/b&gt;&lt;br&gt;class I SAM-dependent methyltransferase&lt;br&gt;Location: 460762 - 459899" locus_tag="SMD44_RS02185" class="clusterblast-orf" id="dummy-1_h1_5_40"  />
</g>
<g id="a1_0041"  >
<polygon points="771,85 776,80 777,80 777,90 776,90 771,85 " style="fill:white; stroke-width:1; stroke:black; " description="&lt;b&gt;SMD44_RS02180&lt;/b&gt;&lt;br&gt;SDR family oxidoreductase&lt;br&gt;Location: 459877 - 459080" locus_tag="SMD44_RS02180" class="clusterblast-orf" id="dummy-1_h1_5_41"  />
</g>
<g id="a1_0042"  >
<polygon points="777,90 780,85 777,80 777,90 " style="fill:white; stroke-width:1; stroke:black; " description="&lt;b&gt;SMD44_RS02175&lt;/b&gt;&lt;br&gt;MerR family transcriptional regulator&lt;br&gt;Location: 459020 - 458640" locus_tag="SMD44_RS02175" class="clusterblast-orf" id="dummy-1_h1_5_42"  />
</g>
</svg>
