<svg xmlns="http://www.w3.org/2000/svg" xmlns:xlink="http://www.w3.org/1999/xlink" version="1.1" x="0" y="0" height="230" width="800" viewBox="0 0 800 230" preserveAspectRatio="none"  >
<g label="Query sequence" class="clusterblast-cluster"  >
<text x="5" y="20" class="clusterblast-acc"  >
Query sequence</text>
<line x1="10" y1="35" x2="778.0" y2="35" style="stroke-width:1; stroke:grey; "  />
<polygon points="255,40 256,40 261,35 256,30 255,30 255,40 " style="fill:white; stroke-width:1; stroke:black; " description="&lt;b&gt;CopciAB_371128.T0&lt;/b&gt;&lt;br&gt;CopciAB 371128.T0&lt;br&gt;Location: 421853 - 423203" locus_tag="CopciAB_371128.T0" class="clusterblast-orf" id="dummy-1_q0_0_all"  />
<polygon points="264,40 271,40 276,35 271,30 264,30 264,40 " style="fill:white; stroke-width:1; stroke:black; " description="&lt;b&gt;CopciAB_15443.T0&lt;/b&gt;&lt;br&gt;CopciAB 15443.T0&lt;br&gt;Location: 423953 - 426878" locus_tag="CopciAB_15443.T0" class="clusterblast-orf" id="dummy-1_q1_0_all"  />
<polygon points="278,40 293,40 298,35 293,30 278,30 278,40 " style="fill:white; stroke-width:1; stroke:black; " description="&lt;b&gt;CopciAB_371141.T0&lt;/b&gt;&lt;br&gt;CopciAB 371141.T0&lt;br&gt;Location: 427240 - 432121" locus_tag="CopciAB_371141.T0" class="clusterblast-orf" id="dummy-1_q2_0_all"  />
<polygon points="303,40 306,35 303,30 303,40 " style="fill:white; stroke-width:1; stroke:black; " description="&lt;b&gt;CopciAB_499066.T0&lt;/b&gt;&lt;br&gt;CopciAB 499066.T0&lt;br&gt;Location: 433289 - 433957" locus_tag="CopciAB_499066.T0" class="clusterblast-orf" id="dummy-1_q3_0_all"  />
<polygon points="308,40 313,40 318,35 313,30 308,30 308,40 " style="fill:white; stroke-width:1; stroke:black; " description="&lt;b&gt;CopciAB_462172.T0&lt;/b&gt;&lt;br&gt;CopciAB 462172.T0&lt;br&gt;Location: 434519 - 436842" locus_tag="CopciAB_462172.T0" class="clusterblast-orf" id="dummy-1_q4_0_all"  />
<polygon points="323,35 328,30 328,30 328,40 328,40 323,35 " style="fill:white; stroke-width:1; stroke:black; " description="&lt;b&gt;CopciAB_371191.T0&lt;/b&gt;&lt;br&gt;CopciAB 371191.T0&lt;br&gt;Location: 438018 - 439147" locus_tag="CopciAB_371191.T0" class="clusterblast-orf" id="dummy-1_q5_0_all"  />
<polygon points="325,35 325,30 325,40 325,35 " style="fill:white; stroke-width:1; stroke:black; " description="&lt;b&gt;CopciAB_371191.T1&lt;/b&gt;&lt;br&gt;CopciAB 371191.T1&lt;br&gt;Location: 438368 - 438422" locus_tag="CopciAB_371191.T1" class="clusterblast-orf" id="dummy-1_q6_0_all"  />
<polygon points="328,35 330,30 330,40 328,35 " style="fill:white; stroke-width:1; stroke:black; " description="&lt;b&gt;CopciAB_371135.T0&lt;/b&gt;&lt;br&gt;CopciAB 371135.T0&lt;br&gt;Location: 439214 - 439628" locus_tag="CopciAB_371135.T0" class="clusterblast-orf" id="dummy-1_q7_0_all"  />
<polygon points="335,35 336,30 336,40 335,35 " style="fill:white; stroke-width:1; stroke:black; " description="&lt;b&gt;CopciAB_1002281.T0&lt;/b&gt;&lt;br&gt;CopciAB 1002281.T0&lt;br&gt;Location: 440768 - 441083" locus_tag="CopciAB_1002281.T0" class="clusterblast-orf" id="dummy-1_q8_0_all"  />
<polygon points="341,40 347,40 352,35 347,30 341,30 341,40 " style="fill:white; stroke-width:1; stroke:black; " description="&lt;b&gt;CopciAB_1002282.T0&lt;/b&gt;&lt;br&gt;CopciAB 1002282.T0&lt;br&gt;Location: 442404 - 444945" locus_tag="CopciAB_1002282.T0" class="clusterblast-orf" id="dummy-1_q9_0_all"  />
<polygon points="356,40 360,40 365,35 360,30 356,30 356,40 " style="fill:white; stroke-width:1; stroke:black; " description="&lt;b&gt;CopciAB_371185.T0&lt;/b&gt;&lt;br&gt;CopciAB 371185.T0&lt;br&gt;Location: 445952 - 448093" locus_tag="CopciAB_371185.T0" class="clusterblast-orf" id="dummy-1_q10_0_all"  />
<polygon points="367,35 372,30 373,30 373,40 372,40 367,35 " style="fill:#d81515; stroke-width:1; stroke:black; " description="&lt;b&gt;CopciAB_437423.T0&lt;/b&gt;&lt;br&gt;CopciAB 437423.T0&lt;br&gt;Location: 448582 - 449891" locus_tag="CopciAB_437423.T0" class="clusterblast-orf" id="dummy-1_q11_0_all"  />
<polygon points="376,40 405,40 410,35 405,30 376,30 376,40 " style="fill:#15d8d8; stroke-width:1; stroke:black; " description="&lt;b&gt;CopciAB_437425.T0&lt;/b&gt;&lt;br&gt;CopciAB 437425.T0&lt;br&gt;Location: 450566 - 458706" locus_tag="CopciAB_437425.T0" class="clusterblast-orf" id="dummy-1_q12_0_all"  />
<polygon points="413,35 416,30 416,40 413,35 " style="fill:white; stroke-width:1; stroke:black; " description="&lt;b&gt;CopciAB_1002283.T0&lt;/b&gt;&lt;br&gt;CopciAB 1002283.T0&lt;br&gt;Location: 459534 - 460198" locus_tag="CopciAB_1002283.T0" class="clusterblast-orf" id="dummy-1_q13_0_all"  />
<polygon points="436,35 440,30 440,40 436,35 " style="fill:white; stroke-width:1; stroke:black; " description="&lt;b&gt;CopciAB_1002284.T0&lt;/b&gt;&lt;br&gt;CopciAB 1002284.T0&lt;br&gt;Location: 464996 - 465772" locus_tag="CopciAB_1002284.T0" class="clusterblast-orf" id="dummy-1_q14_0_all"  />
<polygon points="463,35 468,30 468,30 468,40 468,40 463,35 " style="fill:white; stroke-width:1; stroke:black; " description="&lt;b&gt;CopciAB_1002285.T0&lt;/b&gt;&lt;br&gt;CopciAB 1002285.T0&lt;br&gt;Location: 471290 - 472430" locus_tag="CopciAB_1002285.T0" class="clusterblast-orf" id="dummy-1_q15_0_all"  />
<polygon points="471,40 472,40 477,35 472,30 471,30 471,40 " style="fill:white; stroke-width:1; stroke:black; " description="&lt;b&gt;CopciAB_532638.T0&lt;/b&gt;&lt;br&gt;CopciAB 532638.T0&lt;br&gt;Location: 473318 - 474574" locus_tag="CopciAB_532638.T0" class="clusterblast-orf" id="dummy-1_q16_0_all"  />
<polygon points="482,40 491,40 496,35 491,30 482,30 482,40 " style="fill:white; stroke-width:1; stroke:black; " description="&lt;b&gt;CopciAB_444333.T0&lt;/b&gt;&lt;br&gt;CopciAB 444333.T0&lt;br&gt;Location: 475843 - 479279" locus_tag="CopciAB_444333.T0" class="clusterblast-orf" id="dummy-1_q17_0_all"  />
<polygon points="497,35 502,30 502,30 502,40 502,40 497,35 " style="fill:white; stroke-width:1; stroke:black; " description="&lt;b&gt;CopciAB_444334.T0&lt;/b&gt;&lt;br&gt;CopciAB 444334.T0&lt;br&gt;Location: 479365 - 480691" locus_tag="CopciAB_444334.T0" class="clusterblast-orf" id="dummy-1_q18_0_all"  />
<polygon points="504,35 509,30 524,30 524,40 509,40 504,35 " style="fill:white; stroke-width:1; stroke:black; " description="&lt;b&gt;CopciAB_444335.T0&lt;/b&gt;&lt;br&gt;CopciAB 444335.T0&lt;br&gt;Location: 481168 - 485844" locus_tag="CopciAB_444335.T0" class="clusterblast-orf" id="dummy-1_q19_0_all"  />
</g>
<g label="NZ_LT607409" description="NZ_LT607409 (5294855-5482390): Micromonospora chokoriensis strain DSM 45160 c... (5% of genes show similarity), T1PKS,betalactone" class="clusterblast-cluster"  >
<text x="5" y="70" class="clusterblast-acc"  >
<a xlink:href="https://antismash-db.secondarymetabolites.org/area.html?record=NZ_LT607409&amp;start=5294855&amp;end=5482390" target="_blank">NZ_LT607409 (5294855-5482390)</a>: Micromonospora chokoriensis strain DSM 45160 c... (5% of genes show similarity), T1PKS,betalactone</text>
<line x1="10" y1="85" x2="778.0" y2="85" style="stroke-width:1; stroke:grey; "  />
</g>
<g id="a1_000"  >
<polygon points="0,90 2,85 0,80 0,90 " style="fill:white; stroke-width:1; stroke:black; " description="&lt;b&gt;GA0070612_RS24860&lt;/b&gt;&lt;br&gt;sigma-70 family RNA polymerase sigma factor&lt;br&gt;Location: 5481516 - 5480947" locus_tag="GA0070612_RS24860" class="clusterblast-orf" id="dummy-1_h1_4_0"  />
</g>
<g id="a1_001"  >
<polygon points="2,90 6,85 2,80 2,90 " style="fill:white; stroke-width:1; stroke:black; " description="&lt;b&gt;GA0070612_RS24855&lt;/b&gt;&lt;br&gt;CU044 5270 family protein&lt;br&gt;Location: 5480806 - 5479964" locus_tag="GA0070612_RS24855" class="clusterblast-orf" id="dummy-1_h1_4_1"  />
</g>
<g id="a1_002"  >
<polygon points="6,85 11,80 11,80 11,90 11,90 6,85 " style="fill:white; stroke-width:1; stroke:black; " description="&lt;b&gt;GA0070612_RS24850&lt;/b&gt;&lt;br&gt;SMP-30/gluconolactonase/LRE family protein&lt;br&gt;Location: 5479912 - 5478854" locus_tag="GA0070612_RS24850" class="clusterblast-orf" id="dummy-1_h1_4_2"  />
</g>
<g id="a1_003"  >
<polygon points="12,85 15,80 15,90 12,85 " style="fill:white; stroke-width:1; stroke:black; " description="&lt;b&gt;GA0070612_RS24845&lt;/b&gt;&lt;br&gt;haloacid dehalogenase&lt;br&gt;Location: 5478644 - 5477934" locus_tag="GA0070612_RS24845" class="clusterblast-orf" id="dummy-1_h1_4_3"  />
</g>
<g id="a1_004"  >
<polygon points="15,85 16,80 16,90 15,85 " style="fill:white; stroke-width:1; stroke:black; " description="&lt;b&gt;GA0070612_RS24840&lt;/b&gt;&lt;br&gt;hypothetical protein&lt;br&gt;Location: 5477927 - 5477541" locus_tag="GA0070612_RS24840" class="clusterblast-orf" id="dummy-1_h1_4_4"  />
</g>
<g id="a1_005"  >
<polygon points="17,90 17,90 22,85 17,80 17,80 17,90 " style="fill:white; stroke-width:1; stroke:black; " description="&lt;b&gt;GA0070612_RS24835&lt;/b&gt;&lt;br&gt;aminotransferase class I/II-fold pyridoxal phosphate-dependent enzyme&lt;br&gt;Location: 5477412 - 5476234" locus_tag="GA0070612_RS24835" class="clusterblast-orf" id="dummy-1_h1_4_5"  />
</g>
<g id="a1_006"  >
<polygon points="22,90 24,85 22,80 22,90 " style="fill:white; stroke-width:1; stroke:black; " description="&lt;b&gt;GA0070612_RS24830&lt;/b&gt;&lt;br&gt;HNH endonuclease&lt;br&gt;Location: 5476082 - 5475771" locus_tag="GA0070612_RS24830" class="clusterblast-orf" id="dummy-1_h1_4_6"  />
</g>
<g id="a1_007"  >
<polygon points="24,90 28,85 24,80 24,90 " style="fill:white; stroke-width:1; stroke:black; " description="&lt;b&gt;GA0070612_RS24825&lt;/b&gt;&lt;br&gt;AraC family transcriptional regulator&lt;br&gt;Location: 5475603 - 5474848" locus_tag="GA0070612_RS24825" class="clusterblast-orf" id="dummy-1_h1_4_7"  />
</g>
<g id="a1_008"  >
<polygon points="28,90 32,85 28,80 28,90 " style="fill:white; stroke-width:1; stroke:black; " description="&lt;b&gt;GA0070612_RS24820&lt;/b&gt;&lt;br&gt;alpha/beta hydrolase&lt;br&gt;Location: 5474677 - 5473772" locus_tag="GA0070612_RS24820" class="clusterblast-orf" id="dummy-1_h1_4_8"  />
</g>
<g id="a1_009"  >
<polygon points="32,90 34,85 32,80 32,90 " style="fill:white; stroke-width:1; stroke:black; " description="&lt;b&gt;GA0070612_RS24815&lt;/b&gt;&lt;br&gt;ATP-dependent DNA ligase&lt;br&gt;Location: 5473775 - 5473410" locus_tag="GA0070612_RS24815" class="clusterblast-orf" id="dummy-1_h1_4_9"  />
</g>
<g id="a1_0010"  >
<polygon points="34,85 35,80 35,90 34,85 " style="fill:white; stroke-width:1; stroke:black; " description="&lt;b&gt;GA0070612_RS24810&lt;/b&gt;&lt;br&gt;winged helix-turn-helix transcriptional regulator&lt;br&gt;Location: 5473328 - 5473098" locus_tag="GA0070612_RS24810" class="clusterblast-orf" id="dummy-1_h1_4_10"  />
</g>
<g id="a1_0011"  >
<polygon points="36,90 37,85 36,80 36,90 " style="fill:white; stroke-width:1; stroke:black; " description="&lt;b&gt;GA0070612_RS24805&lt;/b&gt;&lt;br&gt;hypothetical protein&lt;br&gt;Location: 5472742 - 5472527" locus_tag="GA0070612_RS24805" class="clusterblast-orf" id="dummy-1_h1_4_11"  />
</g>
<g id="a1_0012"  >
<polygon points="38,90 39,90 44,85 39,80 38,80 38,90 " style="fill:white; stroke-width:1; stroke:black; " description="&lt;b&gt;GA0070612_RS24800&lt;/b&gt;&lt;br&gt;AMP-binding protein&lt;br&gt;Location: 5472390 - 5470951" locus_tag="GA0070612_RS24800" class="clusterblast-orf" id="dummy-1_h1_4_12"  />
</g>
<g id="a1_0013"  >
<polygon points="45,90 53,90 58,85 53,80 45,80 45,90 " style="fill:white; stroke-width:1; stroke:black; " description="&lt;b&gt;GA0070612_RS24795&lt;/b&gt;&lt;br&gt;tetratricopeptide repeat protein&lt;br&gt;Location: 5470694 - 5467515" locus_tag="GA0070612_RS24795" class="clusterblast-orf" id="dummy-1_h1_4_13"  />
</g>
<g id="a1_0014"  >
<polygon points="59,85 60,80 60,90 59,85 " style="fill:white; stroke-width:1; stroke:black; " description="&lt;b&gt;GA0070612_RS24790&lt;/b&gt;&lt;br&gt;hypothetical protein&lt;br&gt;Location: 5467410 - 5467225" locus_tag="GA0070612_RS24790" class="clusterblast-orf" id="dummy-1_h1_4_14"  />
</g>
<g id="a1_0015"  >
<polygon points="61,90 62,85 61,80 61,90 " style="fill:white; stroke-width:1; stroke:black; " description="&lt;b&gt;GA0070612_RS24785&lt;/b&gt;&lt;br&gt;hydroxyisourate hydrolase&lt;br&gt;Location: 5466953 - 5466615" locus_tag="GA0070612_RS24785" class="clusterblast-orf" id="dummy-1_h1_4_15"  />
</g>
<g id="a1_0016"  >
<polygon points="62,90 65,90 70,85 65,80 62,80 62,90 " style="fill:white; stroke-width:1; stroke:black; " description="&lt;b&gt;GA0070612_RS24780&lt;/b&gt;&lt;br&gt;2-isopropylmalate synthase&lt;br&gt;Location: 5466559 - 5464757" locus_tag="GA0070612_RS24780" class="clusterblast-orf" id="dummy-1_h1_4_16"  />
</g>
<g id="a1_0017"  >
<polygon points="70,90 77,90 82,85 77,80 70,80 70,90 " style="fill:white; stroke-width:1; stroke:black; " description="&lt;b&gt;GA0070612_RS24775&lt;/b&gt;&lt;br&gt;LuxR family transcriptional regulator&lt;br&gt;Location: 5464710 - 5461936" locus_tag="GA0070612_RS24775" class="clusterblast-orf" id="dummy-1_h1_4_17"  />
</g>
<g id="a1_0018"  >
<polygon points="82,85 86,80 86,90 82,85 " style="fill:white; stroke-width:1; stroke:black; " description="&lt;b&gt;GA0070612_RS24770&lt;/b&gt;&lt;br&gt;metallophosphoesterase&lt;br&gt;Location: 5461816 - 5460995" locus_tag="GA0070612_RS24770" class="clusterblast-orf" id="dummy-1_h1_4_18"  />
</g>
<g id="a1_0019"  >
<polygon points="87,90 91,85 87,80 87,90 " style="fill:white; stroke-width:1; stroke:black; " description="&lt;b&gt;GA0070612_RS24765&lt;/b&gt;&lt;br&gt;ATP-binding cassette domain-containing protein&lt;br&gt;Location: 5460745 - 5459777" locus_tag="GA0070612_RS24765" class="clusterblast-orf" id="dummy-1_h1_4_19"  />
</g>
<g id="a1_0020"  >
<polygon points="91,90 94,85 91,80 91,90 " style="fill:white; stroke-width:1; stroke:black; " description="&lt;b&gt;GA0070612_RS24760&lt;/b&gt;&lt;br&gt;ABC transporter permease&lt;br&gt;Location: 5459763 - 5459011" locus_tag="GA0070612_RS24760" class="clusterblast-orf" id="dummy-1_h1_4_20"  />
</g>
<g id="a1_0021"  >
<polygon points="94,85 96,80 96,90 94,85 " style="fill:white; stroke-width:1; stroke:black; " description="&lt;b&gt;GA0070612_RS24755&lt;/b&gt;&lt;br&gt;hypothetical protein&lt;br&gt;Location: 5458931 - 5458557" locus_tag="GA0070612_RS24755" class="clusterblast-orf" id="dummy-1_h1_4_21"  />
</g>
<g id="a1_0022"  >
<polygon points="97,90 135,90 140,85 135,80 97,80 97,90 " style="fill:white; stroke-width:1; stroke:black; " description="&lt;b&gt;GA0070612_RS24750&lt;/b&gt;&lt;br&gt;type I polyketide synthase&lt;br&gt;Location: 5458251 - 5448172" locus_tag="GA0070612_RS24750" class="clusterblast-orf" id="dummy-1_h1_4_22"  />
</g>
<g id="a1_0023"  >
<polygon points="140,90 211,90 216,85 211,80 140,80 140,90 " style="fill:#15d8d8; stroke-width:1; stroke:black; " description="&lt;b&gt;GA0070612_RS24745&lt;/b&gt;&lt;br&gt;type I polyketide synthase&lt;br&gt;Location: 5448138 - 5430043&lt;br&gt;&lt;br&gt;&lt;b&gt;BlastP hit with CopciAB_437425.T0&lt;/b&gt;&lt;br&gt;Percentage identity: 31&lt;br&gt;Percentage coverage: 39&lt;br&gt;BLAST bit score: 336&lt;br&gt;E-value: 4.39e-90" locus_tag="GA0070612_RS24745" class="clusterblast-orf" id="dummy-1_h1_4_23"  />
</g>
<g id="a1_0024"  >
<polygon points="216,90 238,90 243,85 238,80 216,80 216,90 " style="fill:#d81515; stroke-width:1; stroke:black; " description="&lt;b&gt;GA0070612_RS24740&lt;/b&gt;&lt;br&gt;type I polyketide synthase&lt;br&gt;Location: 5429998 - 5423588&lt;br&gt;&lt;br&gt;&lt;b&gt;BlastP hit with CopciAB_437423.T0&lt;/b&gt;&lt;br&gt;Percentage identity: 31&lt;br&gt;Percentage coverage: 66&lt;br&gt;BLAST bit score: 67&lt;br&gt;E-value: 6.3e-10" locus_tag="GA0070612_RS24740" class="clusterblast-orf" id="dummy-1_h1_4_24"  />
</g>
<g id="a1_0025"  >
<polygon points="243,90 277,90 282,85 277,80 243,80 243,90 " style="fill:white; stroke-width:1; stroke:black; " description="&lt;b&gt;GA0070612_RS24735&lt;/b&gt;&lt;br&gt;type I polyketide synthase&lt;br&gt;Location: 5423554 - 5414186" locus_tag="GA0070612_RS24735" class="clusterblast-orf" id="dummy-1_h1_4_25"  />
</g>
<g id="a1_0026"  >
<polygon points="282,90 322,90 327,85 322,80 282,80 282,90 " style="fill:white; stroke-width:1; stroke:black; " description="&lt;b&gt;GA0070612_RS24730&lt;/b&gt;&lt;br&gt;type I polyketide synthase&lt;br&gt;Location: 5414147 - 5403486" locus_tag="GA0070612_RS24730" class="clusterblast-orf" id="dummy-1_h1_4_26"  />
</g>
<g id="a1_0027"  >
<polygon points="327,90 343,90 348,85 343,80 327,80 327,90 " style="fill:white; stroke-width:1; stroke:black; " description="&lt;b&gt;GA0070612_RS24725&lt;/b&gt;&lt;br&gt;type I polyketide synthase&lt;br&gt;Location: 5403486 - 5398633" locus_tag="GA0070612_RS24725" class="clusterblast-orf" id="dummy-1_h1_4_27"  />
</g>
<g id="a1_0028"  >
<polygon points="348,90 382,90 387,85 382,80 348,80 348,90 " style="fill:white; stroke-width:1; stroke:black; " description="&lt;b&gt;GA0070612_RS31630&lt;/b&gt;&lt;br&gt;SDR family NAD(P)-dependent oxidoreductase&lt;br&gt;Location: 5398603 - 5389322" locus_tag="GA0070612_RS31630" class="clusterblast-orf" id="dummy-1_h1_4_28"  />
</g>
<g id="a1_0029"  >
<polygon points="387,90 398,90 403,85 398,80 387,80 387,90 " style="fill:white; stroke-width:1; stroke:black; " description="&lt;b&gt;GA0070612_RS24700&lt;/b&gt;&lt;br&gt;type I polyketide synthase&lt;br&gt;Location: 5389308 - 5385454" locus_tag="GA0070612_RS24700" class="clusterblast-orf" id="dummy-1_h1_4_29"  />
</g>
<g id="a1_0030"  >
<polygon points="403,90 406,85 403,80 403,90 " style="fill:white; stroke-width:1; stroke:black; " description="&lt;b&gt;GA0070612_RS24695&lt;/b&gt;&lt;br&gt;thioesterase&lt;br&gt;Location: 5385440 - 5384685" locus_tag="GA0070612_RS24695" class="clusterblast-orf" id="dummy-1_h1_4_30"  />
</g>
<g id="a1_0031"  >
<polygon points="406,90 410,85 406,80 406,90 " style="fill:white; stroke-width:1; stroke:black; " description="&lt;b&gt;GA0070612_RS24690&lt;/b&gt;&lt;br&gt;ABC transporter ATP-binding protein&lt;br&gt;Location: 5384641 - 5383871" locus_tag="GA0070612_RS24690" class="clusterblast-orf" id="dummy-1_h1_4_31"  />
</g>
<g id="a1_0032"  >
<polygon points="410,90 413,90 418,85 413,80 410,80 410,90 " style="fill:white; stroke-width:1; stroke:black; " description="&lt;b&gt;GA0070612_RS24685&lt;/b&gt;&lt;br&gt;hypothetical protein&lt;br&gt;Location: 5383886 - 5381931" locus_tag="GA0070612_RS24685" class="clusterblast-orf" id="dummy-1_h1_4_32"  />
</g>
<g id="a1_0033"  >
<polygon points="418,85 423,80 423,80 423,90 423,90 418,85 " style="fill:white; stroke-width:1; stroke:black; " description="&lt;b&gt;GA0070612_RS24680&lt;/b&gt;&lt;br&gt;cytochrome P450&lt;br&gt;Location: 5381873 - 5380632" locus_tag="GA0070612_RS24680" class="clusterblast-orf" id="dummy-1_h1_4_33"  />
</g>
<g id="a1_0034"  >
<polygon points="424,90 489,90 494,85 489,80 424,80 424,90 " style="fill:#15d8d8; stroke-width:1; stroke:black; " description="&lt;b&gt;GA0070612_RS24675&lt;/b&gt;&lt;br&gt;type I polyketide synthase&lt;br&gt;Location: 5380394 - 5363814&lt;br&gt;&lt;br&gt;&lt;b&gt;BlastP hit with CopciAB_437425.T0&lt;/b&gt;&lt;br&gt;Percentage identity: 31&lt;br&gt;Percentage coverage: 39&lt;br&gt;BLAST bit score: 333&lt;br&gt;E-value: 2.81e-89" locus_tag="GA0070612_RS24675" class="clusterblast-orf" id="dummy-1_h1_4_34"  />
</g>
<g id="a1_0035"  >
<polygon points="494,90 506,90 511,85 506,80 494,80 494,90 " style="fill:white; stroke-width:1; stroke:black; " description="&lt;b&gt;GA0070612_RS32000&lt;/b&gt;&lt;br&gt;acyltransferase domain-containing protein&lt;br&gt;Location: 5363785 - 5359832" locus_tag="GA0070612_RS32000" class="clusterblast-orf" id="dummy-1_h1_4_35"  />
</g>
<g id="a1_0036"  >
<polygon points="511,90 523,90 528,85 523,80 511,80 511,90 " style="fill:white; stroke-width:1; stroke:black; " description="&lt;b&gt;GA0070612_RS31995&lt;/b&gt;&lt;br&gt;SDR family NAD(P)-dependent oxidoreductase&lt;br&gt;Location: 5359639 - 5355650" locus_tag="GA0070612_RS31995" class="clusterblast-orf" id="dummy-1_h1_4_36"  />
</g>
<g id="a1_0037"  >
<polygon points="530,90 534,85 530,80 530,90 " style="fill:white; stroke-width:1; stroke:black; " description="&lt;b&gt;GA0070612_RS31990&lt;/b&gt;&lt;br&gt;polyketide synthase&lt;br&gt;Location: 5355118 - 5354351" locus_tag="GA0070612_RS31990" class="clusterblast-orf" id="dummy-1_h1_4_37"  />
</g>
<g id="a1_0038"  >
<polygon points="534,90 538,85 534,80 534,90 " style="fill:white; stroke-width:1; stroke:black; " description="&lt;b&gt;GA0070612_RS31985&lt;/b&gt;&lt;br&gt;SDR family NAD(P)-dependent oxidoreductase&lt;br&gt;Location: 5354329 - 5353358" locus_tag="GA0070612_RS31985" class="clusterblast-orf" id="dummy-1_h1_4_38"  />
</g>
<g id="a1_0039"  >
<polygon points="538,90 540,85 538,80 538,90 " style="fill:white; stroke-width:1; stroke:black; " description="&lt;b&gt;GA0070612_RS31980&lt;/b&gt;&lt;br&gt;hypothetical protein&lt;br&gt;Location: 5353318 - 5352860" locus_tag="GA0070612_RS31980" class="clusterblast-orf" id="dummy-1_h1_4_39"  />
</g>
<g id="a1_0040"  >
<polygon points="540,90 546,90 551,85 546,80 540,80 540,90 " style="fill:white; stroke-width:1; stroke:black; " description="&lt;b&gt;GA0070612_RS31975&lt;/b&gt;&lt;br&gt;type I polyketide synthase&lt;br&gt;Location: 5352772 - 5350265" locus_tag="GA0070612_RS31975" class="clusterblast-orf" id="dummy-1_h1_4_40"  />
</g>
<g id="a1_0041"  >
<polygon points="553,90 554,90 559,85 554,80 553,80 553,90 " style="fill:white; stroke-width:1; stroke:black; " description="&lt;b&gt;GA0070612_RS31970&lt;/b&gt;&lt;br&gt;SDR family NAD(P)-dependent oxidoreductase&lt;br&gt;Location: 5349691 - 5348387" locus_tag="GA0070612_RS31970" class="clusterblast-orf" id="dummy-1_h1_4_41"  />
</g>
<g id="a1_0042"  >
<polygon points="560,90 615,90 620,85 615,80 560,80 560,90 " style="fill:white; stroke-width:1; stroke:black; " description="&lt;b&gt;GA0070612_RS24665&lt;/b&gt;&lt;br&gt;type I polyketide synthase&lt;br&gt;Location: 5348156 - 5333805" locus_tag="GA0070612_RS24665" class="clusterblast-orf" id="dummy-1_h1_4_42"  />
</g>
<g id="a1_0043"  >
<polygon points="620,90 695,90 700,85 695,80 620,80 620,90 " style="fill:white; stroke-width:1; stroke:black; " description="&lt;b&gt;GA0070612_RS31965&lt;/b&gt;&lt;br&gt;SDR family NAD(P)-dependent oxidoreductase&lt;br&gt;Location: 5333770 - 5314856" locus_tag="GA0070612_RS31965" class="clusterblast-orf" id="dummy-1_h1_4_43"  />
</g>
<g id="a1_0044"  >
<polygon points="700,90 702,90 707,85 702,80 700,80 700,90 " style="fill:white; stroke-width:1; stroke:black; " description="&lt;b&gt;GA0070612_RS24645&lt;/b&gt;&lt;br&gt;methylmalonyl-CoA mutase&lt;br&gt;Location: 5314827 - 5313058" locus_tag="GA0070612_RS24645" class="clusterblast-orf" id="dummy-1_h1_4_44"  />
</g>
<g id="a1_0045"  >
<polygon points="707,90 711,90 716,85 711,80 707,80 707,90 " style="fill:white; stroke-width:1; stroke:black; " description="&lt;b&gt;GA0070612_RS24640&lt;/b&gt;&lt;br&gt;methylmalonyl-CoA mutase&lt;br&gt;Location: 5313061 - 5310935" locus_tag="GA0070612_RS24640" class="clusterblast-orf" id="dummy-1_h1_4_45"  />
</g>
<g id="a1_0046"  >
<polygon points="716,85 719,80 719,90 716,85 " style="fill:white; stroke-width:1; stroke:black; " description="&lt;b&gt;GA0070612_RS24635&lt;/b&gt;&lt;br&gt;4'-phosphopantetheinyl transferase superfamily protein&lt;br&gt;Location: 5310854 - 5310150" locus_tag="GA0070612_RS24635" class="clusterblast-orf" id="dummy-1_h1_4_46"  />
</g>
<g id="a1_0047"  >
<polygon points="720,85 721,80 721,90 720,85 " style="fill:white; stroke-width:1; stroke:black; " description="&lt;b&gt;GA0070612_RS24630&lt;/b&gt;&lt;br&gt;hypothetical protein&lt;br&gt;Location: 5309883 - 5309641" locus_tag="GA0070612_RS24630" class="clusterblast-orf" id="dummy-1_h1_4_47"  />
</g>
<g id="a1_0048"  >
<polygon points="722,85 727,80 745,80 745,90 727,90 722,85 " style="fill:white; stroke-width:1; stroke:black; " description="&lt;b&gt;GA0070612_RS24625&lt;/b&gt;&lt;br&gt;ATP-grasp domain-containing protein&lt;br&gt;Location: 5309503 - 5304098" locus_tag="GA0070612_RS24625" class="clusterblast-orf" id="dummy-1_h1_4_48"  />
</g>
<g id="a1_0049"  >
<polygon points="746,85 751,80 752,80 752,90 751,90 746,85 " style="fill:white; stroke-width:1; stroke:black; " description="&lt;b&gt;GA0070612_RS24620&lt;/b&gt;&lt;br&gt;PLP-dependent aminotransferase family protein&lt;br&gt;Location: 5303892 - 5302417" locus_tag="GA0070612_RS24620" class="clusterblast-orf" id="dummy-1_h1_4_49"  />
</g>
<g id="a1_0050"  >
<polygon points="753,90 755,90 760,85 755,80 753,80 753,90 " style="fill:white; stroke-width:1; stroke:black; " description="&lt;b&gt;GA0070612_RS24615&lt;/b&gt;&lt;br&gt;anthranilate synthase component I family protein&lt;br&gt;Location: 5302143 - 5300581" locus_tag="GA0070612_RS24615" class="clusterblast-orf" id="dummy-1_h1_4_50"  />
</g>
<g id="a1_0051"  >
<polygon points="760,90 762,85 760,80 760,90 " style="fill:white; stroke-width:1; stroke:black; " description="&lt;b&gt;GA0070612_RS24610&lt;/b&gt;&lt;br&gt;aminodeoxychorismate/anthranilate synthase component II&lt;br&gt;Location: 5300584 - 5299976" locus_tag="GA0070612_RS24610" class="clusterblast-orf" id="dummy-1_h1_4_51"  />
</g>
<g id="a1_0052"  >
<polygon points="762,90 765,85 762,80 762,90 " style="fill:white; stroke-width:1; stroke:black; " description="&lt;b&gt;GA0070612_RS24605&lt;/b&gt;&lt;br&gt;SDR family oxidoreductase&lt;br&gt;Location: 5299979 - 5299269" locus_tag="GA0070612_RS24605" class="clusterblast-orf" id="dummy-1_h1_4_52"  />
</g>
<g id="a1_0053"  >
<polygon points="765,90 766,90 771,85 766,80 765,80 765,90 " style="fill:white; stroke-width:1; stroke:black; " description="&lt;b&gt;GA0070612_RS24600&lt;/b&gt;&lt;br&gt;phenylacetate--CoA ligase family protein&lt;br&gt;Location: 5299207 - 5297783" locus_tag="GA0070612_RS24600" class="clusterblast-orf" id="dummy-1_h1_4_53"  />
</g>
<g id="a1_0054"  >
<polygon points="771,90 774,85 771,80 771,90 " style="fill:white; stroke-width:1; stroke:black; " description="&lt;b&gt;GA0070612_RS24595&lt;/b&gt;&lt;br&gt;prephenate dehydratase&lt;br&gt;Location: 5297763 - 5297122" locus_tag="GA0070612_RS24595" class="clusterblast-orf" id="dummy-1_h1_4_54"  />
</g>
<g id="a1_0055"  >
<polygon points="774,90 775,90 780,85 775,80 774,80 774,90 " style="fill:white; stroke-width:1; stroke:black; " description="&lt;b&gt;GA0070612_RS24590&lt;/b&gt;&lt;br&gt;amidohydrolase family protein&lt;br&gt;Location: 5297125 - 5295827" locus_tag="GA0070612_RS24590" class="clusterblast-orf" id="dummy-1_h1_4_55"  />
</g>
</svg>
