<svg xmlns="http://www.w3.org/2000/svg" xmlns:xlink="http://www.w3.org/1999/xlink" version="1.1" x="0" y="0" height="230" width="800" viewBox="0 0 800 230" preserveAspectRatio="none"  >
<g label="Query sequence" class="clusterblast-cluster"  >
<text x="5" y="20" class="clusterblast-acc"  >
Query sequence</text>
<line x1="10" y1="35" x2="778.0" y2="35" style="stroke-width:1; stroke:grey; "  />
<polygon points="0,35 5,30 10,30 10,40 5,40 0,35 " style="fill:white; stroke-width:1; stroke:black; " description="&lt;b&gt;CopciAB_427632.T0&lt;/b&gt;&lt;br&gt;CopciAB 427632.T0&lt;br&gt;Location: 413760 - 414914" locus_tag="CopciAB_427632.T0" class="clusterblast-orf" id="dummy-2_q0_0_all"  />
<polygon points="12,35 17,30 20,30 20,40 17,40 12,35 " style="fill:white; stroke-width:1; stroke:black; " description="&lt;b&gt;CopciAB_438000.T0&lt;/b&gt;&lt;br&gt;CopciAB 438000.T0&lt;br&gt;Location: 415226 - 416108" locus_tag="CopciAB_438000.T0" class="clusterblast-orf" id="dummy-2_q1_0_all"  />
<polygon points="24,40 26,40 31,35 26,30 24,30 24,40 " style="fill:white; stroke-width:1; stroke:black; " description="&lt;b&gt;CopciAB_452018.T0&lt;/b&gt;&lt;br&gt;CopciAB 452018.T0&lt;br&gt;Location: 416577 - 417433" locus_tag="CopciAB_452018.T0" class="clusterblast-orf" id="dummy-2_q2_0_all"  />
<polygon points="50,40 53,40 58,35 53,30 50,30 50,40 " style="fill:white; stroke-width:1; stroke:black; " description="&lt;b&gt;CopciAB_27441.T0&lt;/b&gt;&lt;br&gt;CopciAB 27441.T0&lt;br&gt;Location: 419558 - 420503" locus_tag="CopciAB_27441.T0" class="clusterblast-orf" id="dummy-2_q3_0_all"  />
<polygon points="64,40 83,40 88,35 83,30 64,30 64,40 " style="fill:#d81515; stroke-width:1; stroke:black; " description="&lt;b&gt;CopciAB_499440.T0&lt;/b&gt;&lt;br&gt;CopciAB 499440.T0&lt;br&gt;Location: 421185 - 423994" locus_tag="CopciAB_499440.T0" class="clusterblast-orf" id="dummy-2_q4_0_all"  />
<polygon points="100,40 114,40 119,35 114,30 100,30 100,40 " style="fill:#15d863; stroke-width:1; stroke:black; " description="&lt;b&gt;CopciAB_372150.T0&lt;/b&gt;&lt;br&gt;CopciAB 372150.T0&lt;br&gt;Location: 425401 - 427558" locus_tag="CopciAB_372150.T0" class="clusterblast-orf" id="dummy-2_q5_0_all"  />
<polygon points="120,35 125,30 133,30 133,40 125,40 120,35 " style="fill:#1563d8; stroke-width:1; stroke:black; " description="&lt;b&gt;CopciAB_427648.T0&lt;/b&gt;&lt;br&gt;CopciAB 427648.T0&lt;br&gt;Location: 427744 - 429244" locus_tag="CopciAB_427648.T0" class="clusterblast-orf" id="dummy-2_q6_0_all"  />
<polygon points="141,40 141,40 146,35 141,30 141,30 141,40 " style="fill:white; stroke-width:1; stroke:black; " description="&lt;b&gt;CopciAB_507379.T0&lt;/b&gt;&lt;br&gt;CopciAB 507379.T0&lt;br&gt;Location: 430122 - 430738" locus_tag="CopciAB_507379.T0" class="clusterblast-orf" id="dummy-2_q7_0_all"  />
<polygon points="155,40 157,35 155,30 155,40 " style="fill:white; stroke-width:1; stroke:black; " description="&lt;b&gt;CopciAB_372112.T0&lt;/b&gt;&lt;br&gt;CopciAB 372112.T0&lt;br&gt;Location: 431791 - 431987" locus_tag="CopciAB_372112.T0" class="clusterblast-orf" id="dummy-2_q8_0_all"  />
<polygon points="158,35 163,30 172,30 172,40 163,40 158,35 " style="fill:white; stroke-width:1; stroke:black; " description="&lt;b&gt;CopciAB_372121.T0&lt;/b&gt;&lt;br&gt;CopciAB 372121.T0&lt;br&gt;Location: 432136 - 433786" locus_tag="CopciAB_372121.T0" class="clusterblast-orf" id="dummy-2_q9_0_all"  />
<polygon points="181,35 186,30 201,30 201,40 186,40 181,35 " style="fill:white; stroke-width:1; stroke:black; " description="&lt;b&gt;CopciAB_372110.T0&lt;/b&gt;&lt;br&gt;CopciAB 372110.T0&lt;br&gt;Location: 434810 - 437081" locus_tag="CopciAB_372110.T0" class="clusterblast-orf" id="dummy-2_q10_0_all"  />
<polygon points="221,40 223,35 221,30 221,40 " style="fill:white; stroke-width:1; stroke:black; " description="&lt;b&gt;CopciAB_1002472.T0&lt;/b&gt;&lt;br&gt;CopciAB 1002472.T0&lt;br&gt;Location: 439457 - 439700" locus_tag="CopciAB_1002472.T0" class="clusterblast-orf" id="dummy-2_q11_0_all"  />
<polygon points="240,40 247,40 252,35 247,30 240,30 240,40 " style="fill:white; stroke-width:1; stroke:black; " description="&lt;b&gt;CopciAB_543742.T0&lt;/b&gt;&lt;br&gt;CopciAB 543742.T0&lt;br&gt;Location: 441707 - 443028" locus_tag="CopciAB_543742.T0" class="clusterblast-orf" id="dummy-2_q12_0_all"  />
<polygon points="262,35 267,30 281,30 281,40 267,40 262,35 " style="fill:white; stroke-width:1; stroke:black; " description="&lt;b&gt;CopciAB_27642.T0&lt;/b&gt;&lt;br&gt;CopciAB 27642.T0&lt;br&gt;Location: 444225 - 446384" locus_tag="CopciAB_27642.T0" class="clusterblast-orf" id="dummy-2_q13_0_all"  />
<polygon points="288,40 290,35 288,30 288,40 " style="fill:white; stroke-width:1; stroke:black; " description="&lt;b&gt;CopciAB_462682.T0&lt;/b&gt;&lt;br&gt;CopciAB 462682.T0&lt;br&gt;Location: 447215 - 447510" locus_tag="CopciAB_462682.T0" class="clusterblast-orf" id="dummy-2_q14_0_all"  />
<polygon points="293,40 303,40 308,35 303,30 293,30 293,40 " style="fill:white; stroke-width:1; stroke:black; " description="&lt;b&gt;CopciAB_438017.T0&lt;/b&gt;&lt;br&gt;CopciAB 438017.T0&lt;br&gt;Location: 447822 - 449588" locus_tag="CopciAB_438017.T0" class="clusterblast-orf" id="dummy-2_q15_0_all"  />
<polygon points="316,35 321,30 335,30 335,40 321,40 316,35 " style="fill:#b115d8; stroke-width:1; stroke:black; " description="&lt;b&gt;CopciAB_462684.T0&lt;/b&gt;&lt;br&gt;CopciAB 462684.T0&lt;br&gt;Location: 450422 - 452641" locus_tag="CopciAB_462684.T0" class="clusterblast-orf" id="dummy-2_q16_0_all"  />
<polygon points="357,35 360,30 360,40 357,35 " style="fill:white; stroke-width:1; stroke:black; " description="&lt;b&gt;CopciAB_1002474.T0&lt;/b&gt;&lt;br&gt;CopciAB 1002474.T0&lt;br&gt;Location: 455271 - 455550" locus_tag="CopciAB_1002474.T0" class="clusterblast-orf" id="dummy-2_q17_0_all"  />
<polygon points="375,35 377,30 377,40 375,35 " style="fill:white; stroke-width:1; stroke:black; " description="&lt;b&gt;CopciAB_1002475.T0&lt;/b&gt;&lt;br&gt;CopciAB 1002475.T0&lt;br&gt;Location: 457353 - 457605" locus_tag="CopciAB_1002475.T0" class="clusterblast-orf" id="dummy-2_q18_0_all"  />
<polygon points="381,35 386,30 387,30 387,40 386,40 381,35 " style="fill:white; stroke-width:1; stroke:black; " description="&lt;b&gt;CopciAB_372143.T0&lt;/b&gt;&lt;br&gt;CopciAB 372143.T0&lt;br&gt;Location: 458034 - 458686" locus_tag="CopciAB_372143.T0" class="clusterblast-orf" id="dummy-2_q19_0_all"  />
<polygon points="392,40 396,40 401,35 396,30 392,30 392,40 " style="fill:white; stroke-width:1; stroke:black; " description="&lt;b&gt;CopciAB_499451.T0&lt;/b&gt;&lt;br&gt;CopciAB 499451.T0&lt;br&gt;Location: 459297 - 460310" locus_tag="CopciAB_499451.T0" class="clusterblast-orf" id="dummy-2_q20_0_all"  />
<polygon points="401,35 406,30 408,30 408,40 406,40 401,35 " style="fill:white; stroke-width:1; stroke:black; " description="&lt;b&gt;CopciAB_462689.T0&lt;/b&gt;&lt;br&gt;CopciAB 462689.T0&lt;br&gt;Location: 460335 - 461159" locus_tag="CopciAB_462689.T0" class="clusterblast-orf" id="dummy-2_q21_0_all"  />
<polygon points="417,40 419,35 417,30 417,40 " style="fill:white; stroke-width:1; stroke:black; " description="&lt;b&gt;CopciAB_1002476.T0&lt;/b&gt;&lt;br&gt;CopciAB 1002476.T0&lt;br&gt;Location: 462212 - 462474" locus_tag="CopciAB_1002476.T0" class="clusterblast-orf" id="dummy-2_q22_0_all"  />
<polygon points="424,40 431,40 436,35 431,30 424,30 424,40 " style="fill:white; stroke-width:1; stroke:black; " description="&lt;b&gt;CopciAB_27792.T0&lt;/b&gt;&lt;br&gt;CopciAB 27792.T0&lt;br&gt;Location: 463038 - 464422" locus_tag="CopciAB_27792.T0" class="clusterblast-orf" id="dummy-2_q23_0_all"  />
<polygon points="438,35 443,30 444,30 444,40 443,40 438,35 " style="fill:white; stroke-width:1; stroke:black; " description="&lt;b&gt;CopciAB_427679.T0&lt;/b&gt;&lt;br&gt;CopciAB 427679.T0&lt;br&gt;Location: 464670 - 465341" locus_tag="CopciAB_427679.T0" class="clusterblast-orf" id="dummy-2_q24_0_all"  />
<polygon points="455,40 459,40 464,35 459,30 455,30 455,40 " style="fill:white; stroke-width:1; stroke:black; " description="&lt;b&gt;CopciAB_372140.T0&lt;/b&gt;&lt;br&gt;CopciAB 372140.T0&lt;br&gt;Location: 466595 - 467636" locus_tag="CopciAB_372140.T0" class="clusterblast-orf" id="dummy-2_q25_0_all"  />
<polygon points="472,40 476,35 472,30 472,40 " style="fill:white; stroke-width:1; stroke:black; " description="&lt;b&gt;CopciAB_1002477.T0&lt;/b&gt;&lt;br&gt;CopciAB 1002477.T0&lt;br&gt;Location: 468600 - 469095" locus_tag="CopciAB_1002477.T0" class="clusterblast-orf" id="dummy-2_q26_0_all"  />
<polygon points="479,35 482,30 482,40 479,35 " style="fill:white; stroke-width:1; stroke:black; " description="&lt;b&gt;CopciAB_1002478.T0&lt;/b&gt;&lt;br&gt;CopciAB 1002478.T0&lt;br&gt;Location: 469329 - 469770" locus_tag="CopciAB_1002478.T0" class="clusterblast-orf" id="dummy-2_q27_0_all"  />
<polygon points="517,40 520,40 525,35 520,30 517,30 517,40 " style="fill:white; stroke-width:1; stroke:black; " description="&lt;b&gt;CopciAB_438039.T0&lt;/b&gt;&lt;br&gt;CopciAB 438039.T0&lt;br&gt;Location: 473742 - 474720" locus_tag="CopciAB_438039.T0" class="clusterblast-orf" id="dummy-2_q28_0_all"  />
<polygon points="533,35 536,30 536,40 533,35 " style="fill:white; stroke-width:1; stroke:black; " description="&lt;b&gt;CopciAB_352336.T0&lt;/b&gt;&lt;br&gt;CopciAB 352336.T0&lt;br&gt;Location: 475600 - 476021" locus_tag="CopciAB_352336.T0" class="clusterblast-orf" id="dummy-2_q29_0_all"  />
<polygon points="555,40 564,40 569,35 564,30 555,30 555,40 " style="fill:white; stroke-width:1; stroke:black; " description="&lt;b&gt;CopciAB_118644.T0&lt;/b&gt;&lt;br&gt;CopciAB 118644.T0&lt;br&gt;Location: 478160 - 479832" locus_tag="CopciAB_118644.T0" class="clusterblast-orf" id="dummy-2_q30_0_all"  />
<polygon points="590,40 603,40 608,35 603,30 590,30 590,40 " style="fill:#b1d815; stroke-width:1; stroke:black; " description="&lt;b&gt;CopciAB_466228.T0&lt;/b&gt;&lt;br&gt;CopciAB 466228.T0&lt;br&gt;Location: 482241 - 484311" locus_tag="CopciAB_466228.T0" class="clusterblast-orf" id="dummy-2_q31_0_all"  />
<polygon points="609,35 614,30 633,30 633,40 614,40 609,35 " style="fill:white; stroke-width:1; stroke:black; " description="&lt;b&gt;CopciAB_442580.T0&lt;/b&gt;&lt;br&gt;CopciAB 442580.T0&lt;br&gt;Location: 484517 - 487299" locus_tag="CopciAB_442580.T0" class="clusterblast-orf" id="dummy-2_q32_0_all"  />
<polygon points="643,40 646,40 651,35 646,30 643,30 643,40 " style="fill:white; stroke-width:1; stroke:black; " description="&lt;b&gt;CopciAB_490906.T0&lt;/b&gt;&lt;br&gt;CopciAB 490906.T0&lt;br&gt;Location: 488419 - 489289" locus_tag="CopciAB_490906.T0" class="clusterblast-orf" id="dummy-2_q33_0_all"  />
<polygon points="676,35 681,30 689,30 689,40 681,40 676,35 " style="fill:white; stroke-width:1; stroke:black; " description="&lt;b&gt;CopciAB_432515.T0&lt;/b&gt;&lt;br&gt;CopciAB 432515.T0&lt;br&gt;Location: 492228 - 493756" locus_tag="CopciAB_432515.T0" class="clusterblast-orf" id="dummy-2_q34_0_all"  />
<polygon points="725,40 729,40 734,35 729,30 725,30 725,40 " style="fill:white; stroke-width:1; stroke:black; " description="&lt;b&gt;CopciAB_490908.T0&lt;/b&gt;&lt;br&gt;CopciAB 490908.T0&lt;br&gt;Location: 497967 - 499010" locus_tag="CopciAB_490908.T0" class="clusterblast-orf" id="dummy-2_q35_0_all"  />
<polygon points="735,35 740,30 750,30 750,40 740,40 735,35 " style="fill:white; stroke-width:1; stroke:black; " description="&lt;b&gt;CopciAB_454987.T0&lt;/b&gt;&lt;br&gt;CopciAB 454987.T0&lt;br&gt;Location: 499117 - 500815" locus_tag="CopciAB_454987.T0" class="clusterblast-orf" id="dummy-2_q36_0_all"  />
<polygon points="757,40 761,40 766,35 761,30 757,30 757,40 " style="fill:white; stroke-width:1; stroke:black; " description="&lt;b&gt;CopciAB_482192.T0&lt;/b&gt;&lt;br&gt;CopciAB 482192.T0&lt;br&gt;Location: 501679 - 502723" locus_tag="CopciAB_482192.T0" class="clusterblast-orf" id="dummy-2_q37_0_all"  />
<polygon points="769,35 774,30 780,30 780,40 774,40 769,35 " style="fill:white; stroke-width:1; stroke:black; " description="&lt;b&gt;CopciAB_545686.T0&lt;/b&gt;&lt;br&gt;CopciAB 545686.T0&lt;br&gt;Location: 503032 - 504262" locus_tag="CopciAB_545686.T0" class="clusterblast-orf" id="dummy-2_q38_0_all"  />
</g>
<g label="NW_009258208" description="NW_009258208 (1379657-1455780): Heterobasidion irregulare TC 32-1 unplaced ge... (17% of genes show similarity), NRPS-like" class="clusterblast-cluster"  >
<text x="5" y="70" class="clusterblast-acc"  >
<a xlink:href="https://antismash-db.secondarymetabolites.org/area.html?record=NW_009258208&amp;start=1379657&amp;end=1455780" target="_blank">NW_009258208 (1379657-1455780)</a>: Heterobasidion irregulare TC 32-1 unplaced ge... (17% of genes show similarity), NRPS-like</text>
<line x1="10" y1="85" x2="778.0" y2="85" style="stroke-width:1; stroke:grey; "  />
</g>
<g id="a2_000"  >
<polygon points="61,85 66,80 73,80 73,90 66,90 61,85 " style="fill:white; stroke-width:1; stroke:black; " description="&lt;b&gt;HETIRDRAFT_162891&lt;/b&gt;&lt;br&gt;hypothetical protein&lt;br&gt;Location: 1379658 - 1381001" locus_tag="HETIRDRAFT_162891" class="clusterblast-orf" id="dummy-2_h2_1_0"  />
</g>
<g id="a2_001"  >
<polygon points="93,90 95,85 93,80 93,90 " style="fill:white; stroke-width:1; stroke:black; " description="&lt;b&gt;HETIRDRAFT_329360&lt;/b&gt;&lt;br&gt;hypothetical protein&lt;br&gt;Location: 1383369 - 1383584" locus_tag="HETIRDRAFT_329360" class="clusterblast-orf" id="dummy-2_h2_1_1"  />
</g>
<g id="a2_002"  >
<polygon points="108,85 113,80 153,80 153,90 113,90 108,85 " style="fill:white; stroke-width:1; stroke:black; " description="&lt;b&gt;HETIRDRAFT_106721&lt;/b&gt;&lt;br&gt;hypothetical protein&lt;br&gt;Location: 1385047 - 1390322" locus_tag="HETIRDRAFT_106721" class="clusterblast-orf" id="dummy-2_h2_1_2"  />
</g>
<g id="a2_003"  >
<polygon points="157,85 162,80 178,80 178,90 162,90 157,85 " style="fill:white; stroke-width:1; stroke:black; " description="&lt;b&gt;HETIRDRAFT_162895&lt;/b&gt;&lt;br&gt;hypothetical protein&lt;br&gt;Location: 1390774 - 1393127" locus_tag="HETIRDRAFT_162895" class="clusterblast-orf" id="dummy-2_h2_1_3"  />
</g>
<g id="a2_004"  >
<polygon points="182,85 184,80 184,90 182,85 " style="fill:white; stroke-width:1; stroke:black; " description="&lt;b&gt;HETIRDRAFT_162896&lt;/b&gt;&lt;br&gt;hypothetical protein&lt;br&gt;Location: 1393596 - 1393859" locus_tag="HETIRDRAFT_162896" class="clusterblast-orf" id="dummy-2_h2_1_4"  />
</g>
<g id="a2_005"  >
<polygon points="190,90 222,90 227,85 222,80 190,80 190,90 " style="fill:white; stroke-width:1; stroke:black; " description="&lt;b&gt;HETIRDRAFT_66488&lt;/b&gt;&lt;br&gt;tridomain enzyme adenylation-thiolation-dehydrogenase&lt;br&gt;Location: 1394618 - 1398845" locus_tag="HETIRDRAFT_66488" class="clusterblast-orf" id="dummy-2_h2_1_5"  />
</g>
<g id="a2_006"  >
<polygon points="232,90 234,90 239,85 234,80 232,80 232,90 " style="fill:white; stroke-width:1; stroke:black; " description="&lt;b&gt;HETIRDRAFT_430514&lt;/b&gt;&lt;br&gt;hypothetical protein&lt;br&gt;Location: 1399414 - 1400221" locus_tag="HETIRDRAFT_430514" class="clusterblast-orf" id="dummy-2_h2_1_6"  />
</g>
<g id="a2_007"  >
<polygon points="241,85 244,80 244,90 241,85 " style="fill:white; stroke-width:1; stroke:black; " description="&lt;b&gt;HETIRDRAFT_162898&lt;/b&gt;&lt;br&gt;hypothetical protein&lt;br&gt;Location: 1400545 - 1400787" locus_tag="HETIRDRAFT_162898" class="clusterblast-orf" id="dummy-2_h2_1_7"  />
</g>
<g id="a2_008"  >
<polygon points="246,85 251,80 254,80 254,90 251,90 246,85 " style="fill:white; stroke-width:1; stroke:black; " description="&lt;b&gt;HETIRDRAFT_119335&lt;/b&gt;&lt;br&gt;hypothetical protein&lt;br&gt;Location: 1401104 - 1401984" locus_tag="HETIRDRAFT_119335" class="clusterblast-orf" id="dummy-2_h2_1_8"  />
</g>
<g id="a2_009"  >
<polygon points="264,85 269,80 269,80 269,90 269,90 264,85 " style="fill:white; stroke-width:1; stroke:black; " description="&lt;b&gt;HETIRDRAFT_106724&lt;/b&gt;&lt;br&gt;hypothetical protein&lt;br&gt;Location: 1403144 - 1403772" locus_tag="HETIRDRAFT_106724" class="clusterblast-orf" id="dummy-2_h2_1_9"  />
</g>
<g id="a2_0010"  >
<polygon points="286,90 290,90 295,85 290,80 286,80 286,90 " style="fill:#15d863; stroke-width:1; stroke:black; " description="&lt;b&gt;HETIRDRAFT_422723&lt;/b&gt;&lt;br&gt;hypothetical protein&lt;br&gt;Location: 1405735 - 1406738&lt;br&gt;&lt;br&gt;&lt;b&gt;BlastP hit with CopciAB_372150.T0&lt;/b&gt;&lt;br&gt;Percentage identity: 48&lt;br&gt;Percentage coverage: 34&lt;br&gt;BLAST bit score: 85&lt;br&gt;E-value: 1.58e-17" locus_tag="HETIRDRAFT_422723" class="clusterblast-orf" id="dummy-2_h2_1_10"  />
</g>
<g id="a2_0011"  >
<polygon points="297,90 299,85 297,80 297,90 " style="fill:white; stroke-width:1; stroke:black; " description="&lt;b&gt;HETIRDRAFT_162901&lt;/b&gt;&lt;br&gt;hypothetical protein&lt;br&gt;Location: 1406982 - 1407198" locus_tag="HETIRDRAFT_162901" class="clusterblast-orf" id="dummy-2_h2_1_11"  />
</g>
<g id="a2_0012"  >
<polygon points="304,90 314,90 319,85 314,80 304,80 304,90 " style="fill:#15d863; stroke-width:1; stroke:black; " description="&lt;b&gt;HETIRDRAFT_430518&lt;/b&gt;&lt;br&gt;hypothetical protein&lt;br&gt;Location: 1407786 - 1409553&lt;br&gt;&lt;br&gt;&lt;b&gt;BlastP hit with CopciAB_372150.T0&lt;/b&gt;&lt;br&gt;Percentage identity: 35&lt;br&gt;Percentage coverage: 83&lt;br&gt;BLAST bit score: 134&lt;br&gt;E-value: 1.65e-34" locus_tag="HETIRDRAFT_430518" class="clusterblast-orf" id="dummy-2_h2_1_12"  />
</g>
<g id="a2_0013"  >
<polygon points="326,85 331,80 332,80 332,90 331,90 326,85 " style="fill:white; stroke-width:1; stroke:black; " description="&lt;b&gt;HETIRDRAFT_455704&lt;/b&gt;&lt;br&gt;hypothetical protein&lt;br&gt;Location: 1410312 - 1411074" locus_tag="HETIRDRAFT_455704" class="clusterblast-orf" id="dummy-2_h2_1_13"  />
</g>
<g id="a2_0014"  >
<polygon points="343,90 367,90 372,85 367,80 343,80 343,90 " style="fill:white; stroke-width:1; stroke:black; " description="&lt;b&gt;HETIRDRAFT_436926&lt;/b&gt;&lt;br&gt;hypothetical protein&lt;br&gt;Location: 1412292 - 1415735" locus_tag="HETIRDRAFT_436926" class="clusterblast-orf" id="dummy-2_h2_1_14"  />
</g>
<g id="a2_0015"  >
<polygon points="373,85 378,80 389,80 389,90 378,90 373,85 " style="fill:white; stroke-width:1; stroke:black; " description="&lt;b&gt;HETIRDRAFT_461139&lt;/b&gt;&lt;br&gt;hypothetical protein&lt;br&gt;Location: 1415849 - 1417655" locus_tag="HETIRDRAFT_461139" class="clusterblast-orf" id="dummy-2_h2_1_15"  />
</g>
<g id="a2_0016"  >
<polygon points="397,85 402,80 411,80 411,90 402,90 397,85 " style="fill:white; stroke-width:1; stroke:black; " description="&lt;b&gt;HETIRDRAFT_390525&lt;/b&gt;&lt;br&gt;hypothetical protein&lt;br&gt;Location: 1418618 - 1420164" locus_tag="HETIRDRAFT_390525" class="clusterblast-orf" id="dummy-2_h2_1_16"  />
</g>
<g id="a2_0017"  >
<polygon points="418,90 419,90 424,85 419,80 418,80 418,90 " style="fill:white; stroke-width:1; stroke:black; " description="&lt;b&gt;HETIRDRAFT_330394&lt;/b&gt;&lt;br&gt;hypothetical protein&lt;br&gt;Location: 1421015 - 1421692" locus_tag="HETIRDRAFT_330394" class="clusterblast-orf" id="dummy-2_h2_1_17"  />
</g>
<g id="a2_0018"  >
<polygon points="430,90 432,90 437,85 432,80 430,80 430,90 " style="fill:white; stroke-width:1; stroke:black; " description="&lt;b&gt;HETIRDRAFT_66494&lt;/b&gt;&lt;br&gt;hypothetical protein&lt;br&gt;Location: 1422447 - 1423263" locus_tag="HETIRDRAFT_66494" class="clusterblast-orf" id="dummy-2_h2_1_18"  />
</g>
<g id="a2_0019"  >
<polygon points="446,90 461,90 466,85 461,80 446,80 446,90 " style="fill:white; stroke-width:1; stroke:black; " description="&lt;b&gt;HETIRDRAFT_66497&lt;/b&gt;&lt;br&gt;amino acid transporter&lt;br&gt;Location: 1424219 - 1426584" locus_tag="HETIRDRAFT_66497" class="clusterblast-orf" id="dummy-2_h2_1_19"  />
</g>
<g id="a2_0020"  >
<polygon points="479,85 484,80 497,80 497,90 484,90 479,85 " style="fill:white; stroke-width:1; stroke:black; " description="&lt;b&gt;HETIRDRAFT_181184&lt;/b&gt;&lt;br&gt;putative halogenase&lt;br&gt;Location: 1428058 - 1430236" locus_tag="HETIRDRAFT_181184" class="clusterblast-orf" id="dummy-2_h2_1_20"  />
</g>
<g id="a2_0021"  >
<polygon points="503,90 515,90 520,85 515,80 503,80 503,90 " style="fill:white; stroke-width:1; stroke:black; " description="&lt;b&gt;HETIRDRAFT_446810&lt;/b&gt;&lt;br&gt;hypothetical protein&lt;br&gt;Location: 1430937 - 1432889" locus_tag="HETIRDRAFT_446810" class="clusterblast-orf" id="dummy-2_h2_1_21"  />
</g>
<g id="a2_0022"  >
<polygon points="526,85 531,80 562,80 562,90 531,90 526,85 " style="fill:white; stroke-width:1; stroke:black; " description="&lt;b&gt;HETIRDRAFT_162913&lt;/b&gt;&lt;br&gt;tridomain enzyme adenylation-thiolation-dehydrogenase&lt;br&gt;Location: 1433544 - 1437759" locus_tag="HETIRDRAFT_162913" class="clusterblast-orf" id="dummy-2_h2_1_22"  />
</g>
<g id="a2_0023"  >
<polygon points="571,90 588,90 593,85 588,80 571,80 571,90 " style="fill:white; stroke-width:1; stroke:black; " description="&lt;b&gt;HETIRDRAFT_481650&lt;/b&gt;&lt;br&gt;hypothetical protein&lt;br&gt;Location: 1438721 - 1441306" locus_tag="HETIRDRAFT_481650" class="clusterblast-orf" id="dummy-2_h2_1_23"  />
</g>
<g id="a2_0024"  >
<polygon points="602,90 612,90 617,85 612,80 602,80 602,90 " style="fill:#b1d815; stroke-width:1; stroke:black; " description="&lt;b&gt;HETIRDRAFT_54234&lt;/b&gt;&lt;br&gt;major facilitator superfamily&lt;br&gt;Location: 1442328 - 1444173&lt;br&gt;&lt;br&gt;&lt;b&gt;BlastP hit with CopciAB_466228.T0&lt;/b&gt;&lt;br&gt;Percentage identity: 33&lt;br&gt;Percentage coverage: 89&lt;br&gt;BLAST bit score: 235&lt;br&gt;E-value: 5.22e-70" locus_tag="HETIRDRAFT_54234" class="clusterblast-orf" id="dummy-2_h2_1_24"  />
</g>
<g id="a2_0025"  >
<polygon points="620,85 625,80 636,80 636,90 625,90 620,85 " style="fill:white; stroke-width:1; stroke:black; " description="&lt;b&gt;HETIRDRAFT_119348&lt;/b&gt;&lt;br&gt;hypothetical protein&lt;br&gt;Location: 1444479 - 1446309" locus_tag="HETIRDRAFT_119348" class="clusterblast-orf" id="dummy-2_h2_1_25"  />
</g>
<g id="a2_0026"  >
<polygon points="653,90 666,90 671,85 666,80 653,80 653,90 " style="fill:white; stroke-width:1; stroke:black; " description="&lt;b&gt;HETIRDRAFT_162918&lt;/b&gt;&lt;br&gt;cytochrome P450 monooxygenase 20&lt;br&gt;Location: 1448327 - 1450375" locus_tag="HETIRDRAFT_162918" class="clusterblast-orf" id="dummy-2_h2_1_26"  />
</g>
<g id="a2_0027"  >
<polygon points="675,85 680,80 692,80 692,90 680,90 675,85 " style="fill:#d81515; stroke-width:1; stroke:black; " description="&lt;b&gt;HETIRDRAFT_162919&lt;/b&gt;&lt;br&gt;amino acid transporter&lt;br&gt;Location: 1450791 - 1452830&lt;br&gt;&lt;br&gt;&lt;b&gt;BlastP hit with CopciAB_499440.T0&lt;/b&gt;&lt;br&gt;Percentage identity: 52&lt;br&gt;Percentage coverage: 81&lt;br&gt;BLAST bit score: 493&lt;br&gt;E-value: 4.25e-167" locus_tag="HETIRDRAFT_162919" class="clusterblast-orf" id="dummy-2_h2_1_27"  />
</g>
<g id="a2_0028"  >
<polygon points="700,85 705,80 718,80 718,90 705,90 700,85 " style="fill:#d81515; stroke-width:1; stroke:black; " description="&lt;b&gt;HETIRDRAFT_162920&lt;/b&gt;&lt;br&gt;amino acid transporter&lt;br&gt;Location: 1453801 - 1455780&lt;br&gt;&lt;br&gt;&lt;b&gt;BlastP hit with CopciAB_499440.T0&lt;/b&gt;&lt;br&gt;Percentage identity: 53&lt;br&gt;Percentage coverage: 80&lt;br&gt;BLAST bit score: 491&lt;br&gt;E-value: 2.08e-166" locus_tag="HETIRDRAFT_162920" class="clusterblast-orf" id="dummy-2_h2_1_28"  />
</g>
</svg>
