<svg xmlns="http://www.w3.org/2000/svg" xmlns:xlink="http://www.w3.org/1999/xlink" version="1.1" x="0" y="0" height="230" width="800" viewBox="0 0 800 230" preserveAspectRatio="none"  >
<g label="Query sequence" class="clusterblast-cluster"  >
<text x="5" y="20" class="clusterblast-acc"  >
Query sequence</text>
<line x1="10" y1="35" x2="778.0" y2="35" style="stroke-width:1; stroke:grey; "  />
<polygon points="0,40 6,40 11,35 6,30 0,30 0,40 " style="fill:white; stroke-width:1; stroke:black; " description="&lt;b&gt;CopciAB_419547.T0&lt;/b&gt;&lt;br&gt;CopciAB 419547.T0&lt;br&gt;Location: 1623445 - 1623880" locus_tag="CopciAB_419547.T0" class="clusterblast-orf" id="dummy-2_q0_0_all"  />
<polygon points="59,40 63,40 68,35 63,30 59,30 59,40 " style="fill:#d81515; stroke-width:1; stroke:black; " description="&lt;b&gt;CopciAB_476959.T0&lt;/b&gt;&lt;br&gt;CopciAB 476959.T0&lt;br&gt;Location: 1625642 - 1625995" locus_tag="CopciAB_476959.T0" class="clusterblast-orf" id="dummy-2_q1_0_all"  />
<polygon points="71,35 76,30 97,30 97,40 76,40 71,35 " style="fill:#15d863; stroke-width:1; stroke:black; " description="&lt;b&gt;CopciAB_363200.T0&lt;/b&gt;&lt;br&gt;CopciAB 363200.T0&lt;br&gt;Location: 1626078 - 1627074" locus_tag="CopciAB_363200.T0" class="clusterblast-orf" id="dummy-2_q2_0_all"  />
<polygon points="122,40 126,35 122,30 122,40 " style="fill:white; stroke-width:1; stroke:black; " description="&lt;b&gt;CopciAB_1001580.T0&lt;/b&gt;&lt;br&gt;CopciAB 1001580.T0&lt;br&gt;Location: 1627996 - 1628155" locus_tag="CopciAB_1001580.T0" class="clusterblast-orf" id="dummy-2_q3_0_all"  />
<polygon points="138,35 143,30 250,30 250,40 143,40 138,35 " style="fill:white; stroke-width:1; stroke:black; " description="&lt;b&gt;CopciAB_1001581.T0&lt;/b&gt;&lt;br&gt;CopciAB 1001581.T0&lt;br&gt;Location: 1628601 - 1632753" locus_tag="CopciAB_1001581.T0" class="clusterblast-orf" id="dummy-2_q4_0_all"  />
<polygon points="254,40 309,40 314,35 309,30 254,30 254,40 " style="fill:white; stroke-width:1; stroke:black; " description="&lt;b&gt;CopciAB_1001582.T0&lt;/b&gt;&lt;br&gt;CopciAB 1001582.T0&lt;br&gt;Location: 1632910 - 1635157" locus_tag="CopciAB_1001582.T0" class="clusterblast-orf" id="dummy-2_q5_0_all"  />
<polygon points="326,35 330,30 330,40 326,35 " style="fill:white; stroke-width:1; stroke:black; " description="&lt;b&gt;CopciAB_1001583.T0&lt;/b&gt;&lt;br&gt;CopciAB 1001583.T0&lt;br&gt;Location: 1635569 - 1635731" locus_tag="CopciAB_1001583.T0" class="clusterblast-orf" id="dummy-2_q6_0_all"  />
<polygon points="341,40 370,40 375,35 370,30 341,30 341,40 " style="fill:white; stroke-width:1; stroke:black; " description="&lt;b&gt;CopciAB_443341.T0&lt;/b&gt;&lt;br&gt;CopciAB 443341.T0&lt;br&gt;Location: 1636156 - 1637423" locus_tag="CopciAB_443341.T0" class="clusterblast-orf" id="dummy-2_q7_0_all"  />
<polygon points="391,40 396,40 401,35 396,30 391,30 391,40 " style="fill:#1563d8; stroke-width:1; stroke:black; " description="&lt;b&gt;CopciAB_362075.T0&lt;/b&gt;&lt;br&gt;CopciAB 362075.T0&lt;br&gt;Location: 1637990 - 1638388" locus_tag="CopciAB_362075.T0" class="clusterblast-orf" id="dummy-2_q8_0_all"  />
<polygon points="400,40 419,40 424,35 419,30 400,30 400,40 " style="fill:#1563d8; stroke-width:1; stroke:black; " description="&lt;b&gt;CopciAB_362075.T1&lt;/b&gt;&lt;br&gt;CopciAB 362075.T1&lt;br&gt;Location: 1638331 - 1639232" locus_tag="CopciAB_362075.T1" class="clusterblast-orf" id="dummy-2_q9_0_all"  />
<polygon points="433,40 521,40 526,35 521,30 433,30 433,40 " style="fill:#b115d8; stroke-width:1; stroke:black; " description="&lt;b&gt;CopciAB_495583.T0&lt;/b&gt;&lt;br&gt;CopciAB 495583.T0&lt;br&gt;Location: 1639579 - 1643041" locus_tag="CopciAB_495583.T0" class="clusterblast-orf" id="dummy-2_q10_0_all"  />
<polygon points="532,35 537,30 600,30 600,40 537,40 532,35 " style="fill:white; stroke-width:1; stroke:black; " description="&lt;b&gt;CopciAB_495582.T0&lt;/b&gt;&lt;br&gt;CopciAB 495582.T0&lt;br&gt;Location: 1643258 - 1645778" locus_tag="CopciAB_495582.T0" class="clusterblast-orf" id="dummy-2_q11_0_all"  />
<polygon points="569,35 570,30 570,40 569,35 " style="fill:white; stroke-width:1; stroke:black; " description="&lt;b&gt;CopciAB_495582.T1&lt;/b&gt;&lt;br&gt;CopciAB 495582.T1&lt;br&gt;Location: 1644616 - 1644651" locus_tag="CopciAB_495582.T1" class="clusterblast-orf" id="dummy-2_q12_0_all"  />
<polygon points="641,40 658,40 663,35 658,30 641,30 641,40 " style="fill:white; stroke-width:1; stroke:black; " description="&lt;b&gt;CopciAB_1001584.T0&lt;/b&gt;&lt;br&gt;CopciAB 1001584.T0&lt;br&gt;Location: 1647295 - 1648121" locus_tag="CopciAB_1001584.T0" class="clusterblast-orf" id="dummy-2_q13_0_all"  />
<polygon points="674,40 726,40 731,35 726,30 674,30 674,40 " style="fill:white; stroke-width:1; stroke:black; " description="&lt;b&gt;CopciAB_466786.T0&lt;/b&gt;&lt;br&gt;CopciAB 466786.T0&lt;br&gt;Location: 1648529 - 1650649" locus_tag="CopciAB_466786.T0" class="clusterblast-orf" id="dummy-2_q14_0_all"  />
<polygon points="737,35 742,30 772,30 772,40 742,40 737,35 " style="fill:#b1d815; stroke-width:1; stroke:black; " description="&lt;b&gt;CopciAB_540189.T0&lt;/b&gt;&lt;br&gt;CopciAB 540189.T0&lt;br&gt;Location: 1650866 - 1652186" locus_tag="CopciAB_540189.T0" class="clusterblast-orf" id="dummy-2_q15_0_all"  />
<polygon points="776,40 780,35 776,30 776,40 " style="fill:white; stroke-width:1; stroke:black; " description="&lt;b&gt;CopciAB_1001585.T0&lt;/b&gt;&lt;br&gt;CopciAB 1001585.T0&lt;br&gt;Location: 1652335 - 1652476" locus_tag="CopciAB_1001585.T0" class="clusterblast-orf" id="dummy-2_q16_0_all"  />
</g>
<g label="NW_003315670" description="NW_003315670 (1727330-1748555): Schizophyllum commune H4-8 unplaced genomic s... (30% of genes show similarity), terpene" class="clusterblast-cluster"  >
<text x="5" y="70" class="clusterblast-acc"  >
<a xlink:href="https://antismash-db.secondarymetabolites.org/area.html?record=NW_003315670&amp;start=1727330&amp;end=1748555" target="_blank">NW_003315670 (1727330-1748555)</a>: Schizophyllum commune H4-8 unplaced genomic s... (30% of genes show similarity), terpene</text>
<line x1="10" y1="85" x2="778.0" y2="85" style="stroke-width:1; stroke:grey; "  />
</g>
<g id="a2_000"  >
<polygon points="118,90 165,90 170,85 165,80 118,80 118,90 " style="fill:white; stroke-width:1; stroke:black; " description="&lt;b&gt;SCHCODRAFT_106861&lt;/b&gt;&lt;br&gt;uncharacterized protein&lt;br&gt;Location: 1728276 - 1730221" locus_tag="SCHCODRAFT_106861" class="clusterblast-orf" id="dummy-2_h2_3_0"  />
</g>
<g id="a2_001"  >
<polygon points="173,85 178,80 212,80 212,90 178,90 173,85 " style="fill:white; stroke-width:1; stroke:black; " description="&lt;b&gt;SCHCODRAFT_106862&lt;/b&gt;&lt;br&gt;uncharacterized protein&lt;br&gt;Location: 1730316 - 1731788" locus_tag="SCHCODRAFT_106862" class="clusterblast-orf" id="dummy-2_h2_3_1"  />
</g>
<g id="a2_002"  >
<polygon points="228,90 277,90 282,85 277,80 228,80 228,90 " style="fill:white; stroke-width:1; stroke:black; " description="&lt;b&gt;SCHCODRAFT_106863&lt;/b&gt;&lt;br&gt;uncharacterized protein&lt;br&gt;Location: 1732394 - 1734396" locus_tag="SCHCODRAFT_106863" class="clusterblast-orf" id="dummy-2_h2_3_2"  />
</g>
<g id="a2_003"  >
<polygon points="286,85 291,80 325,80 325,90 291,90 286,85 " style="fill:white; stroke-width:1; stroke:black; " description="&lt;b&gt;SCHCODRAFT_233416&lt;/b&gt;&lt;br&gt;uncharacterized protein&lt;br&gt;Location: 1734530 - 1735981" locus_tag="SCHCODRAFT_233416" class="clusterblast-orf" id="dummy-2_h2_3_3"  />
</g>
<g id="a2_004"  >
<polygon points="342,85 347,80 353,80 353,90 347,90 342,85 " style="fill:#d81515; stroke-width:1; stroke:black; " description="&lt;b&gt;SCHCODRAFT_52847&lt;/b&gt;&lt;br&gt;uncharacterized protein&lt;br&gt;Location: 1736635 - 1737048&lt;br&gt;&lt;br&gt;&lt;b&gt;BlastP hit with CopciAB_476959.T0&lt;/b&gt;&lt;br&gt;Percentage identity: 50&lt;br&gt;Percentage coverage: 92&lt;br&gt;BLAST bit score: 100&lt;br&gt;E-value: 2.29e-27" locus_tag="SCHCODRAFT_52847" class="clusterblast-orf" id="dummy-2_h2_3_4"  />
</g>
<g id="a2_005"  >
<polygon points="361,90 389,90 394,85 389,80 361,80 361,90 " style="fill:#1563d8; stroke-width:1; stroke:black; " description="&lt;b&gt;SCHCODRAFT_52466&lt;/b&gt;&lt;br&gt;uncharacterized protein&lt;br&gt;Location: 1737331 - 1738555&lt;br&gt;&lt;br&gt;&lt;b&gt;BlastP hit with CopciAB_362075.T0&lt;/b&gt;&lt;br&gt;Percentage identity: 54&lt;br&gt;Percentage coverage: 86&lt;br&gt;BLAST bit score: 106&lt;br&gt;E-value: 6.56e-27&lt;br&gt;&lt;br&gt;&lt;b&gt;BlastP hit with CopciAB_362075.T1&lt;/b&gt;&lt;br&gt;Percentage identity: 67&lt;br&gt;Percentage coverage: 100&lt;br&gt;BLAST bit score: 310&lt;br&gt;E-value: 1.21e-104" locus_tag="SCHCODRAFT_52466" class="clusterblast-orf" id="dummy-2_h2_3_5"  />
</g>
<g id="a2_006"  >
<polygon points="404,90 485,90 490,85 485,80 404,80 404,90 " style="fill:#b115d8; stroke-width:1; stroke:black; " description="&lt;b&gt;SCHCODRAFT_106866&lt;/b&gt;&lt;br&gt;uncharacterized protein&lt;br&gt;Location: 1738920 - 1742144&lt;br&gt;&lt;br&gt;&lt;b&gt;BlastP hit with CopciAB_495583.T0&lt;/b&gt;&lt;br&gt;Percentage identity: 41&lt;br&gt;Percentage coverage: 100&lt;br&gt;BLAST bit score: 552&lt;br&gt;E-value: 1.57e-183" locus_tag="SCHCODRAFT_106866" class="clusterblast-orf" id="dummy-2_h2_3_6"  />
</g>
<g id="a2_007"  >
<polygon points="505,85 510,80 540,80 540,90 510,90 505,85 " style="fill:white; stroke-width:1; stroke:black; " description="&lt;b&gt;SCHCODRAFT_256490&lt;/b&gt;&lt;br&gt;uncharacterized protein&lt;br&gt;Location: 1742694 - 1743993" locus_tag="SCHCODRAFT_256490" class="clusterblast-orf" id="dummy-2_h2_3_7"  />
</g>
<g id="a2_008"  >
<polygon points="564,85 569,80 605,80 605,90 569,90 564,85 " style="fill:white; stroke-width:1; stroke:black; " description="&lt;b&gt;SCHCODRAFT_28723&lt;/b&gt;&lt;br&gt;uncharacterized protein&lt;br&gt;Location: 1744881 - 1746400" locus_tag="SCHCODRAFT_28723" class="clusterblast-orf" id="dummy-2_h2_3_8"  />
</g>
<g id="a2_009"  >
<polygon points="625,85 630,80 661,80 661,90 630,90 625,85 " style="fill:white; stroke-width:1; stroke:black; " description="&lt;b&gt;SCHCODRAFT_66649&lt;/b&gt;&lt;br&gt;uncharacterized protein&lt;br&gt;Location: 1747155 - 1748504" locus_tag="SCHCODRAFT_66649" class="clusterblast-orf" id="dummy-2_h2_3_9"  />
</g>
</svg>
