<svg xmlns="http://www.w3.org/2000/svg" xmlns:xlink="http://www.w3.org/1999/xlink" version="1.1" x="0" y="0" height="230" width="800" viewBox="0 0 800 230" preserveAspectRatio="none"  >
<g label="Query sequence" class="clusterblast-cluster"  >
<text x="5" y="20" class="clusterblast-acc"  >
Query sequence</text>
<line x1="10" y1="35" x2="778.0" y2="35" style="stroke-width:1; stroke:grey; "  />
<polygon points="0,40 54,40 59,35 54,30 0,30 0,40 " style="fill:white; stroke-width:1; stroke:black; " description="&lt;b&gt;CopciAB_485193.T0&lt;/b&gt;&lt;br&gt;CopciAB 485193.T0&lt;br&gt;Location: 1414810 - 1416979" locus_tag="CopciAB_485193.T0" class="clusterblast-orf" id="dummy-3_q0_0_all"  />
<polygon points="71,40 92,40 97,35 92,30 71,30 71,40 " style="fill:white; stroke-width:1; stroke:black; " description="&lt;b&gt;CopciAB_452092.T0&lt;/b&gt;&lt;br&gt;CopciAB 452092.T0&lt;br&gt;Location: 1417417 - 1418394" locus_tag="CopciAB_452092.T0" class="clusterblast-orf" id="dummy-3_q1_0_all"  />
<polygon points="110,35 115,30 140,30 140,40 115,40 110,35 " style="fill:#d81515; stroke-width:1; stroke:black; " description="&lt;b&gt;CopciAB_462760.T0&lt;/b&gt;&lt;br&gt;CopciAB 462760.T0&lt;br&gt;Location: 1418847 - 1419955" locus_tag="CopciAB_462760.T0" class="clusterblast-orf" id="dummy-3_q2_0_all"  />
<polygon points="163,35 168,30 193,30 193,40 168,40 163,35 " style="fill:#15d815; stroke-width:1; stroke:black; " description="&lt;b&gt;CopciAB_438130.T0&lt;/b&gt;&lt;br&gt;CopciAB 438130.T0&lt;br&gt;Location: 1420793 - 1421920" locus_tag="CopciAB_438130.T0" class="clusterblast-orf" id="dummy-3_q3_0_all"  />
<polygon points="208,35 213,30 245,30 245,40 213,40 208,35 " style="fill:#1597d8; stroke-width:1; stroke:black; " description="&lt;b&gt;CopciAB_438131.T0&lt;/b&gt;&lt;br&gt;CopciAB 438131.T0&lt;br&gt;Location: 1422451 - 1423833" locus_tag="CopciAB_438131.T0" class="clusterblast-orf" id="dummy-3_q4_0_all"  />
<polygon points="250,40 270,40 275,35 270,30 250,30 250,40 " style="fill:#9715d8; stroke-width:1; stroke:black; " description="&lt;b&gt;CopciAB_30507.T0&lt;/b&gt;&lt;br&gt;CopciAB 30507.T0&lt;br&gt;Location: 1424014 - 1424912" locus_tag="CopciAB_30507.T0" class="clusterblast-orf" id="dummy-3_q5_0_all"  />
<polygon points="297,40 307,40 312,35 307,30 297,30 297,40 " style="fill:white; stroke-width:1; stroke:black; " description="&lt;b&gt;CopciAB_1000673.T0&lt;/b&gt;&lt;br&gt;CopciAB 1000673.T0&lt;br&gt;Location: 1425727 - 1426280" locus_tag="CopciAB_1000673.T0" class="clusterblast-orf" id="dummy-3_q6_0_all"  />
<polygon points="315,40 340,40 345,35 340,30 315,30 315,40 " style="fill:white; stroke-width:1; stroke:black; " description="&lt;b&gt;CopciAB_1000674.T0&lt;/b&gt;&lt;br&gt;CopciAB 1000674.T0&lt;br&gt;Location: 1426398 - 1427484" locus_tag="CopciAB_1000674.T0" class="clusterblast-orf" id="dummy-3_q7_0_all"  />
<polygon points="354,40 384,40 389,35 384,30 354,30 354,40 " style="fill:#d89715; stroke-width:1; stroke:black; " description="&lt;b&gt;CopciAB_30510.T0&lt;/b&gt;&lt;br&gt;CopciAB 30510.T0&lt;br&gt;Location: 1427831 - 1429089" locus_tag="CopciAB_30510.T0" class="clusterblast-orf" id="dummy-3_q8_0_all"  />
<polygon points="415,35 420,30 513,30 513,40 420,40 415,35 " style="fill:#15d897; stroke-width:1; stroke:black; " description="&lt;b&gt;CopciAB_358591.T0&lt;/b&gt;&lt;br&gt;CopciAB 358591.T0&lt;br&gt;Location: 1430058 - 1433651" locus_tag="CopciAB_358591.T0" class="clusterblast-orf" id="dummy-3_q9_0_all"  />
<polygon points="519,40 532,40 537,35 532,30 519,30 519,40 " style="fill:#1515d8; stroke-width:1; stroke:black; " description="&lt;b&gt;CopciAB_438138.T0&lt;/b&gt;&lt;br&gt;CopciAB 438138.T0&lt;br&gt;Location: 1433887 - 1434547" locus_tag="CopciAB_438138.T0" class="clusterblast-orf" id="dummy-3_q10_0_all"  />
<polygon points="550,40 593,40 598,35 593,30 550,30 550,40 " style="fill:#d81597; stroke-width:1; stroke:black; " description="&lt;b&gt;CopciAB_485202.T0&lt;/b&gt;&lt;br&gt;CopciAB 485202.T0&lt;br&gt;Location: 1435028 - 1436789" locus_tag="CopciAB_485202.T0" class="clusterblast-orf" id="dummy-3_q11_0_all"  />
<polygon points="614,35 619,30 780,30 780,40 619,40 614,35 " style="fill:#97d815; stroke-width:1; stroke:black; " description="&lt;b&gt;CopciAB_358738.T0&lt;/b&gt;&lt;br&gt;CopciAB 358738.T0&lt;br&gt;Location: 1437350 - 1443453" locus_tag="CopciAB_358738.T0" class="clusterblast-orf" id="dummy-3_q12_0_all"  />
</g>
<g label="NW_020939759" description="NW_020939759 (174100-201152): Sparassis crispa DNA, contig 000012F, whole gen... (66% of genes show similarity), terpene" class="clusterblast-cluster"  >
<text x="5" y="70" class="clusterblast-acc"  >
<a xlink:href="https://antismash-db.secondarymetabolites.org/area.html?record=NW_020939759&amp;start=174100&amp;end=201152" target="_blank">NW_020939759 (174100-201152)</a>: Sparassis crispa DNA, contig 000012F, whole gen... (66% of genes show similarity), terpene</text>
<line x1="10" y1="85" x2="778.0" y2="85" style="stroke-width:1; stroke:grey; "  />
</g>
<g id="a3_000"  >
<polygon points="77,90 81,90 86,85 81,80 77,80 77,90 " style="fill:white; stroke-width:1; stroke:black; " description="&lt;b&gt;SCP_1300610&lt;/b&gt;&lt;br&gt;NADH-ubiquinone oxidoreductase 12 kDa subunit, mitochondrial&lt;br&gt;Location: 175492 - 175835" locus_tag="SCP_1300610" class="clusterblast-orf" id="dummy-3_h3_3_0"  />
</g>
<g id="a3_001"  >
<polygon points="93,85 98,80 124,80 124,90 98,90 93,85 " style="fill:#15d815; stroke-width:1; stroke:black; " description="&lt;b&gt;SCP_1300620&lt;/b&gt;&lt;br&gt;hypothetical protein&lt;br&gt;Location: 176113 - 177242&lt;br&gt;&lt;br&gt;&lt;b&gt;BlastP hit with CopciAB_438130.T0&lt;/b&gt;&lt;br&gt;Percentage identity: 49&lt;br&gt;Percentage coverage: 87&lt;br&gt;BLAST bit score: 208&lt;br&gt;E-value: 4.49e-65" locus_tag="SCP_1300620" class="clusterblast-orf" id="dummy-3_h3_3_1"  />
</g>
<g id="a3_002"  >
<polygon points="150,85 155,80 188,80 188,90 155,90 150,85 " style="fill:#1597d8; stroke-width:1; stroke:black; " description="&lt;b&gt;SCP_1300630&lt;/b&gt;&lt;br&gt;Set1 complex component swd2&lt;br&gt;Location: 178179 - 179569&lt;br&gt;&lt;br&gt;&lt;b&gt;BlastP hit with CopciAB_438131.T0&lt;/b&gt;&lt;br&gt;Percentage identity: 63&lt;br&gt;Percentage coverage: 101&lt;br&gt;BLAST bit score: 539&lt;br&gt;E-value: 7.67e-191" locus_tag="SCP_1300630" class="clusterblast-orf" id="dummy-3_h3_3_2"  />
</g>
<g id="a3_003"  >
<polygon points="191,90 211,90 216,85 211,80 191,80 191,90 " style="fill:#9715d8; stroke-width:1; stroke:black; " description="&lt;b&gt;SCP_1300640&lt;/b&gt;&lt;br&gt;DNA-directed RNA polymerases I, II, and III subunit RPABC1&lt;br&gt;Location: 179707 - 180621&lt;br&gt;&lt;br&gt;&lt;b&gt;BlastP hit with CopciAB_30507.T0&lt;/b&gt;&lt;br&gt;Percentage identity: 77&lt;br&gt;Percentage coverage: 100&lt;br&gt;BLAST bit score: 323&lt;br&gt;E-value: 4.25e-112" locus_tag="SCP_1300640" class="clusterblast-orf" id="dummy-3_h3_3_3"  />
</g>
<g id="a3_004"  >
<polygon points="311,90 338,90 343,85 338,80 311,80 311,90 " style="fill:#d89715; stroke-width:1; stroke:black; " description="&lt;b&gt;SCP_1300650&lt;/b&gt;&lt;br&gt;Linoleate 10R-lipoxygenase COP4&lt;br&gt;Location: 184101 - 185284&lt;br&gt;&lt;br&gt;&lt;b&gt;BlastP hit with CopciAB_30510.T0&lt;/b&gt;&lt;br&gt;Percentage identity: 61&lt;br&gt;Percentage coverage: 94&lt;br&gt;BLAST bit score: 424&lt;br&gt;E-value: 1.79e-147" locus_tag="SCP_1300650" class="clusterblast-orf" id="dummy-3_h3_3_4"  />
</g>
<g id="a3_005"  >
<polygon points="363,85 368,80 414,80 414,90 368,90 363,85 " style="fill:#d81597; stroke-width:1; stroke:black; " description="&lt;b&gt;SCP_1300660&lt;/b&gt;&lt;br&gt;Homocitrate synthase, mitochondrial&lt;br&gt;Location: 186027 - 187870&lt;br&gt;&lt;br&gt;&lt;b&gt;BlastP hit with CopciAB_485202.T0&lt;/b&gt;&lt;br&gt;Percentage identity: 85&lt;br&gt;Percentage coverage: 99&lt;br&gt;BLAST bit score: 799&lt;br&gt;E-value: 7.25e-291" locus_tag="SCP_1300660" class="clusterblast-orf" id="dummy-3_h3_3_5"  />
</g>
<g id="a3_006"  >
<polygon points="473,90 498,90 503,85 498,80 473,80 473,90 " style="fill:#d89715; stroke-width:1; stroke:black; " description="&lt;b&gt;SCP_1300670&lt;/b&gt;&lt;br&gt;Linoleate 10R-lipoxygenase COP4&lt;br&gt;Location: 190036 - 191152&lt;br&gt;&lt;br&gt;&lt;b&gt;BlastP hit with CopciAB_30510.T0&lt;/b&gt;&lt;br&gt;Percentage identity: 49&lt;br&gt;Percentage coverage: 94&lt;br&gt;BLAST bit score: 326&lt;br&gt;E-value: 6.79e-109" locus_tag="SCP_1300670" class="clusterblast-orf" id="dummy-3_h3_3_6"  />
</g>
<g id="a3_007"  >
<polygon points="517,85 522,80 557,80 557,90 522,90 517,85 " style="fill:white; stroke-width:1; stroke:black; " description="&lt;b&gt;SCP_1300680&lt;/b&gt;&lt;br&gt;Homoserine O-acetyltransferase&lt;br&gt;Location: 191673 - 193134" locus_tag="SCP_1300680" class="clusterblast-orf" id="dummy-3_h3_3_7"  />
</g>
<g id="a3_008"  >
<polygon points="631,90 697,90 702,85 697,80 631,80 631,90 " style="fill:white; stroke-width:1; stroke:black; " description="&lt;b&gt;SCP_1300690&lt;/b&gt;&lt;br&gt;predicted protein&lt;br&gt;Location: 195843 - 198479" locus_tag="SCP_1300690" class="clusterblast-orf" id="dummy-3_h3_3_8"  />
</g>
</svg>
