<svg xmlns="http://www.w3.org/2000/svg" xmlns:xlink="http://www.w3.org/1999/xlink" version="1.1" x="0" y="0" height="230" width="800" viewBox="0 0 800 230" preserveAspectRatio="none"  >
<g label="Query sequence" class="clusterblast-cluster"  >
<text x="5" y="20" class="clusterblast-acc"  >
Query sequence</text>
<line x1="10" y1="35" x2="778.0" y2="35" style="stroke-width:1; stroke:grey; "  />
<polygon points="0,40 6,40 11,35 6,30 0,30 0,40 " style="fill:white; stroke-width:1; stroke:black; " description="&lt;b&gt;CopciAB_419547.T0&lt;/b&gt;&lt;br&gt;CopciAB 419547.T0&lt;br&gt;Location: 1623445 - 1623880" locus_tag="CopciAB_419547.T0" class="clusterblast-orf" id="dummy-2_q0_0_all"  />
<polygon points="59,40 63,40 68,35 63,30 59,30 59,40 " style="fill:#d81515; stroke-width:1; stroke:black; " description="&lt;b&gt;CopciAB_476959.T0&lt;/b&gt;&lt;br&gt;CopciAB 476959.T0&lt;br&gt;Location: 1625642 - 1625995" locus_tag="CopciAB_476959.T0" class="clusterblast-orf" id="dummy-2_q1_0_all"  />
<polygon points="71,35 76,30 97,30 97,40 76,40 71,35 " style="fill:#15d863; stroke-width:1; stroke:black; " description="&lt;b&gt;CopciAB_363200.T0&lt;/b&gt;&lt;br&gt;CopciAB 363200.T0&lt;br&gt;Location: 1626078 - 1627074" locus_tag="CopciAB_363200.T0" class="clusterblast-orf" id="dummy-2_q2_0_all"  />
<polygon points="122,40 126,35 122,30 122,40 " style="fill:white; stroke-width:1; stroke:black; " description="&lt;b&gt;CopciAB_1001580.T0&lt;/b&gt;&lt;br&gt;CopciAB 1001580.T0&lt;br&gt;Location: 1627996 - 1628155" locus_tag="CopciAB_1001580.T0" class="clusterblast-orf" id="dummy-2_q3_0_all"  />
<polygon points="138,35 143,30 250,30 250,40 143,40 138,35 " style="fill:white; stroke-width:1; stroke:black; " description="&lt;b&gt;CopciAB_1001581.T0&lt;/b&gt;&lt;br&gt;CopciAB 1001581.T0&lt;br&gt;Location: 1628601 - 1632753" locus_tag="CopciAB_1001581.T0" class="clusterblast-orf" id="dummy-2_q4_0_all"  />
<polygon points="254,40 309,40 314,35 309,30 254,30 254,40 " style="fill:white; stroke-width:1; stroke:black; " description="&lt;b&gt;CopciAB_1001582.T0&lt;/b&gt;&lt;br&gt;CopciAB 1001582.T0&lt;br&gt;Location: 1632910 - 1635157" locus_tag="CopciAB_1001582.T0" class="clusterblast-orf" id="dummy-2_q5_0_all"  />
<polygon points="326,35 330,30 330,40 326,35 " style="fill:white; stroke-width:1; stroke:black; " description="&lt;b&gt;CopciAB_1001583.T0&lt;/b&gt;&lt;br&gt;CopciAB 1001583.T0&lt;br&gt;Location: 1635569 - 1635731" locus_tag="CopciAB_1001583.T0" class="clusterblast-orf" id="dummy-2_q6_0_all"  />
<polygon points="341,40 370,40 375,35 370,30 341,30 341,40 " style="fill:white; stroke-width:1; stroke:black; " description="&lt;b&gt;CopciAB_443341.T0&lt;/b&gt;&lt;br&gt;CopciAB 443341.T0&lt;br&gt;Location: 1636156 - 1637423" locus_tag="CopciAB_443341.T0" class="clusterblast-orf" id="dummy-2_q7_0_all"  />
<polygon points="391,40 396,40 401,35 396,30 391,30 391,40 " style="fill:#1563d8; stroke-width:1; stroke:black; " description="&lt;b&gt;CopciAB_362075.T0&lt;/b&gt;&lt;br&gt;CopciAB 362075.T0&lt;br&gt;Location: 1637990 - 1638388" locus_tag="CopciAB_362075.T0" class="clusterblast-orf" id="dummy-2_q8_0_all"  />
<polygon points="400,40 419,40 424,35 419,30 400,30 400,40 " style="fill:#1563d8; stroke-width:1; stroke:black; " description="&lt;b&gt;CopciAB_362075.T1&lt;/b&gt;&lt;br&gt;CopciAB 362075.T1&lt;br&gt;Location: 1638331 - 1639232" locus_tag="CopciAB_362075.T1" class="clusterblast-orf" id="dummy-2_q9_0_all"  />
<polygon points="433,40 521,40 526,35 521,30 433,30 433,40 " style="fill:#b115d8; stroke-width:1; stroke:black; " description="&lt;b&gt;CopciAB_495583.T0&lt;/b&gt;&lt;br&gt;CopciAB 495583.T0&lt;br&gt;Location: 1639579 - 1643041" locus_tag="CopciAB_495583.T0" class="clusterblast-orf" id="dummy-2_q10_0_all"  />
<polygon points="532,35 537,30 600,30 600,40 537,40 532,35 " style="fill:white; stroke-width:1; stroke:black; " description="&lt;b&gt;CopciAB_495582.T0&lt;/b&gt;&lt;br&gt;CopciAB 495582.T0&lt;br&gt;Location: 1643258 - 1645778" locus_tag="CopciAB_495582.T0" class="clusterblast-orf" id="dummy-2_q11_0_all"  />
<polygon points="569,35 570,30 570,40 569,35 " style="fill:white; stroke-width:1; stroke:black; " description="&lt;b&gt;CopciAB_495582.T1&lt;/b&gt;&lt;br&gt;CopciAB 495582.T1&lt;br&gt;Location: 1644616 - 1644651" locus_tag="CopciAB_495582.T1" class="clusterblast-orf" id="dummy-2_q12_0_all"  />
<polygon points="641,40 658,40 663,35 658,30 641,30 641,40 " style="fill:white; stroke-width:1; stroke:black; " description="&lt;b&gt;CopciAB_1001584.T0&lt;/b&gt;&lt;br&gt;CopciAB 1001584.T0&lt;br&gt;Location: 1647295 - 1648121" locus_tag="CopciAB_1001584.T0" class="clusterblast-orf" id="dummy-2_q13_0_all"  />
<polygon points="674,40 726,40 731,35 726,30 674,30 674,40 " style="fill:white; stroke-width:1; stroke:black; " description="&lt;b&gt;CopciAB_466786.T0&lt;/b&gt;&lt;br&gt;CopciAB 466786.T0&lt;br&gt;Location: 1648529 - 1650649" locus_tag="CopciAB_466786.T0" class="clusterblast-orf" id="dummy-2_q14_0_all"  />
<polygon points="737,35 742,30 772,30 772,40 742,40 737,35 " style="fill:#b1d815; stroke-width:1; stroke:black; " description="&lt;b&gt;CopciAB_540189.T0&lt;/b&gt;&lt;br&gt;CopciAB 540189.T0&lt;br&gt;Location: 1650866 - 1652186" locus_tag="CopciAB_540189.T0" class="clusterblast-orf" id="dummy-2_q15_0_all"  />
<polygon points="776,40 780,35 776,30 776,40 " style="fill:white; stroke-width:1; stroke:black; " description="&lt;b&gt;CopciAB_1001585.T0&lt;/b&gt;&lt;br&gt;CopciAB 1001585.T0&lt;br&gt;Location: 1652335 - 1652476" locus_tag="CopciAB_1001585.T0" class="clusterblast-orf" id="dummy-2_q16_0_all"  />
</g>
<g label="NW_009258201" description="NW_009258201 (823647-844837): Heterobasidion irregulare TC 32-1 unplaced geno... (37% of genes show similarity), terpene" class="clusterblast-cluster"  >
<text x="5" y="70" class="clusterblast-acc"  >
<a xlink:href="https://antismash-db.secondarymetabolites.org/area.html?record=NW_009258201&amp;start=823647&amp;end=844837" target="_blank">NW_009258201 (823647-844837)</a>: Heterobasidion irregulare TC 32-1 unplaced geno... (37% of genes show similarity), terpene</text>
<line x1="10" y1="85" x2="778.0" y2="85" style="stroke-width:1; stroke:grey; "  />
</g>
<g id="a2_000"  >
<polygon points="148,85 153,80 218,80 218,90 153,90 148,85 " style="fill:white; stroke-width:1; stroke:black; " description="&lt;b&gt;HETIRDRAFT_383918&lt;/b&gt;&lt;br&gt;hypothetical protein&lt;br&gt;Location: 826455 - 829042" locus_tag="HETIRDRAFT_383918" class="clusterblast-orf" id="dummy-2_h2_2_0"  />
</g>
<g id="a2_001"  >
<polygon points="265,90 302,90 307,85 302,80 265,80 265,90 " style="fill:white; stroke-width:1; stroke:black; " description="&lt;b&gt;HETIRDRAFT_383923&lt;/b&gt;&lt;br&gt;hypothetical protein&lt;br&gt;Location: 830791 - 832358" locus_tag="HETIRDRAFT_383923" class="clusterblast-orf" id="dummy-2_h2_2_1"  />
</g>
<g id="a2_002"  >
<polygon points="341,90 368,90 373,85 368,80 341,80 341,90 " style="fill:#1563d8; stroke-width:1; stroke:black; " description="&lt;b&gt;HETIRDRAFT_173241&lt;/b&gt;&lt;br&gt;hypothetical protein&lt;br&gt;Location: 833648 - 834837&lt;br&gt;&lt;br&gt;&lt;b&gt;BlastP hit with CopciAB_362075.T0&lt;/b&gt;&lt;br&gt;Percentage identity: 52&lt;br&gt;Percentage coverage: 85&lt;br&gt;BLAST bit score: 102&lt;br&gt;E-value: 1.1e-25&lt;br&gt;&lt;br&gt;&lt;b&gt;BlastP hit with CopciAB_362075.T1&lt;/b&gt;&lt;br&gt;Percentage identity: 65&lt;br&gt;Percentage coverage: 100&lt;br&gt;BLAST bit score: 311&lt;br&gt;E-value: 5.56e-105" locus_tag="HETIRDRAFT_173241" class="clusterblast-orf" id="dummy-2_h2_2_2"  />
</g>
<g id="a2_003"  >
<polygon points="381,90 467,90 472,85 467,80 381,80 381,90 " style="fill:#b115d8; stroke-width:1; stroke:black; " description="&lt;b&gt;HETIRDRAFT_434108&lt;/b&gt;&lt;br&gt;hypothetical protein&lt;br&gt;Location: 835112 - 838497&lt;br&gt;&lt;br&gt;&lt;b&gt;BlastP hit with CopciAB_495583.T0&lt;/b&gt;&lt;br&gt;Percentage identity: 42&lt;br&gt;Percentage coverage: 105&lt;br&gt;BLAST bit score: 611&lt;br&gt;E-value: 1.29e-205" locus_tag="HETIRDRAFT_434108" class="clusterblast-orf" id="dummy-2_h2_2_3"  />
</g>
<g id="a2_004"  >
<polygon points="485,85 490,80 521,80 521,90 490,90 485,85 " style="fill:#b1d815; stroke-width:1; stroke:black; " description="&lt;b&gt;HETIRDRAFT_118046&lt;/b&gt;&lt;br&gt;vacuolar H+-ATPase V0 sector, subunit D&lt;br&gt;Location: 838990 - 840327&lt;br&gt;&lt;br&gt;&lt;b&gt;BlastP hit with CopciAB_540189.T0&lt;/b&gt;&lt;br&gt;Percentage identity: 77&lt;br&gt;Percentage coverage: 100&lt;br&gt;BLAST bit score: 558&lt;br&gt;E-value: 3.99e-200" locus_tag="HETIRDRAFT_118046" class="clusterblast-orf" id="dummy-2_h2_2_4"  />
</g>
<g id="a2_005"  >
<polygon points="525,90 543,90 548,85 543,80 525,80 525,90 " style="fill:white; stroke-width:1; stroke:black; " description="&lt;b&gt;HETIRDRAFT_156265&lt;/b&gt;&lt;br&gt;16k subunit of the vacuolar H+ ATPase&lt;br&gt;Location: 840495 - 841347" locus_tag="HETIRDRAFT_156265" class="clusterblast-orf" id="dummy-2_h2_2_5"  />
</g>
<g id="a2_006"  >
<polygon points="565,85 570,80 573,80 573,90 570,90 565,85 " style="fill:white; stroke-width:1; stroke:black; " description="&lt;b&gt;HETIRDRAFT_248226&lt;/b&gt;&lt;br&gt;hypothetical protein&lt;br&gt;Location: 841973 - 842265" locus_tag="HETIRDRAFT_248226" class="clusterblast-orf" id="dummy-2_h2_2_6"  />
</g>
<g id="a2_007"  >
<polygon points="583,85 588,80 631,80 631,90 588,90 583,85 " style="fill:white; stroke-width:1; stroke:black; " description="&lt;b&gt;HETIRDRAFT_317381&lt;/b&gt;&lt;br&gt;hypothetical protein&lt;br&gt;Location: 842620 - 844416" locus_tag="HETIRDRAFT_317381" class="clusterblast-orf" id="dummy-2_h2_2_7"  />
</g>
</svg>
