<svg xmlns="http://www.w3.org/2000/svg" xmlns:xlink="http://www.w3.org/1999/xlink" version="1.1" x="0" y="0" height="230" width="800" viewBox="0 0 800 230" preserveAspectRatio="none"  >
<g label="Query sequence" class="clusterblast-cluster"  >
<text x="5" y="20" class="clusterblast-acc"  >
Query sequence</text>
<line x1="10" y1="35" x2="778.0" y2="35" style="stroke-width:1; stroke:grey; "  />
<polygon points="0,35 5,30 8,30 8,40 5,40 0,35 " style="fill:white; stroke-width:1; stroke:black; " description="&lt;b&gt;CopciAB_1001712.T0&lt;/b&gt;&lt;br&gt;CopciAB 1001712.T0&lt;br&gt;Location: 586560 - 586847" locus_tag="CopciAB_1001712.T0" class="clusterblast-orf" id="dummy-1_q0_0_all"  />
<polygon points="28,35 33,30 37,30 37,40 33,40 28,35 " style="fill:white; stroke-width:1; stroke:black; " description="&lt;b&gt;CopciAB_1001713.T0&lt;/b&gt;&lt;br&gt;CopciAB 1001713.T0&lt;br&gt;Location: 587532 - 587851" locus_tag="CopciAB_1001713.T0" class="clusterblast-orf" id="dummy-1_q1_0_all"  />
<polygon points="54,35 59,30 63,30 63,40 59,40 54,35 " style="fill:white; stroke-width:1; stroke:black; " description="&lt;b&gt;CopciAB_394838.T0&lt;/b&gt;&lt;br&gt;CopciAB 394838.T0&lt;br&gt;Location: 588442 - 588759" locus_tag="CopciAB_394838.T0" class="clusterblast-orf" id="dummy-1_q2_0_all"  />
<polygon points="78,35 83,30 156,30 156,40 83,40 78,35 " style="fill:white; stroke-width:1; stroke:black; " description="&lt;b&gt;CopciAB_394836.T0&lt;/b&gt;&lt;br&gt;CopciAB 394836.T0&lt;br&gt;Location: 589253 - 591957" locus_tag="CopciAB_394836.T0" class="clusterblast-orf" id="dummy-1_q3_0_all"  />
<polygon points="177,40 213,40 218,35 213,30 177,30 177,40 " style="fill:#d81515; stroke-width:1; stroke:black; " description="&lt;b&gt;CopciAB_446855.T0&lt;/b&gt;&lt;br&gt;CopciAB 446855.T0&lt;br&gt;Location: 592682 - 594117" locus_tag="CopciAB_446855.T0" class="clusterblast-orf" id="dummy-1_q4_0_all"  />
<polygon points="227,35 232,30 241,30 241,40 232,40 227,35 " style="fill:white; stroke-width:1; stroke:black; " description="&lt;b&gt;CopciAB_446854.T0&lt;/b&gt;&lt;br&gt;CopciAB 446854.T0&lt;br&gt;Location: 594430 - 594896" locus_tag="CopciAB_446854.T0" class="clusterblast-orf" id="dummy-1_q5_0_all"  />
<polygon points="257,40 344,40 349,35 344,30 257,30 257,40 " style="fill:#15d815; stroke-width:1; stroke:black; " description="&lt;b&gt;CopciAB_496600.T0&lt;/b&gt;&lt;br&gt;CopciAB 496600.T0&lt;br&gt;Location: 595458 - 598647" locus_tag="CopciAB_496600.T0" class="clusterblast-orf" id="dummy-1_q6_0_all"  />
<polygon points="425,40 456,40 461,35 456,30 425,30 425,40 " style="fill:#1515d8; stroke-width:1; stroke:black; " description="&lt;b&gt;CopciAB_559321.T0&lt;/b&gt;&lt;br&gt;CopciAB 559321.T0&lt;br&gt;Location: 601279 - 602509" locus_tag="CopciAB_559321.T0" class="clusterblast-orf" id="dummy-1_q7_0_all"  />
<polygon points="588,35 593,30 615,30 615,40 593,40 588,35 " style="fill:white; stroke-width:1; stroke:black; " description="&lt;b&gt;CopciAB_201950.T0&lt;/b&gt;&lt;br&gt;CopciAB 201950.T0&lt;br&gt;Location: 606898 - 607858" locus_tag="CopciAB_201950.T0" class="clusterblast-orf" id="dummy-1_q8_0_all"  />
<polygon points="646,35 651,30 654,30 654,40 651,40 646,35 " style="fill:white; stroke-width:1; stroke:black; " description="&lt;b&gt;CopciAB_1001716.T0&lt;/b&gt;&lt;br&gt;CopciAB 1001716.T0&lt;br&gt;Location: 608937 - 609195" locus_tag="CopciAB_1001716.T0" class="clusterblast-orf" id="dummy-1_q9_0_all"  />
<polygon points="711,40 775,40 780,35 775,30 711,30 711,40 " style="fill:white; stroke-width:1; stroke:black; " description="&lt;b&gt;CopciAB_496597.T0&lt;/b&gt;&lt;br&gt;CopciAB 496597.T0&lt;br&gt;Location: 611168 - 613550" locus_tag="CopciAB_496597.T0" class="clusterblast-orf" id="dummy-1_q10_0_all"  />
</g>
<g label="NW_006267371" description="NW_006267371 (1219451-1236742): Agaricus bisporus var. bisporus H97 unplaced ... (60% of genes show similarity), terpene" class="clusterblast-cluster"  >
<text x="5" y="70" class="clusterblast-acc"  >
<a xlink:href="https://antismash-db.secondarymetabolites.org/area.html?record=NW_006267371&amp;start=1219451&amp;end=1236742" target="_blank">NW_006267371 (1219451-1236742)</a>: Agaricus bisporus var. bisporus H97 unplaced ... (60% of genes show similarity), terpene</text>
<line x1="10" y1="85" x2="778.0" y2="85" style="stroke-width:1; stroke:grey; "  />
</g>
<g id="a1_000"  >
<polygon points="140,90 182,90 187,85 182,80 140,80 140,90 " style="fill:#d81515; stroke-width:1; stroke:black; " description="&lt;b&gt;AGABI2DRAFT_144691&lt;/b&gt;&lt;br&gt;hypothetical protein&lt;br&gt;Location: 1219452 - 1221107&lt;br&gt;&lt;br&gt;&lt;b&gt;BlastP hit with CopciAB_446855.T0&lt;/b&gt;&lt;br&gt;Percentage identity: 33&lt;br&gt;Percentage coverage: 85&lt;br&gt;BLAST bit score: 188&lt;br&gt;E-value: 6.09e-52" locus_tag="AGABI2DRAFT_144691" class="clusterblast-orf" id="dummy-1_h1_1_0"  />
</g>
<g id="a1_001"  >
<polygon points="202,85 207,80 299,80 299,90 207,90 202,85 " style="fill:#15d815; stroke-width:1; stroke:black; " description="&lt;b&gt;AGABI2DRAFT_152546&lt;/b&gt;&lt;br&gt;hypothetical protein&lt;br&gt;Location: 1221613 - 1224954&lt;br&gt;&lt;br&gt;&lt;b&gt;BlastP hit with CopciAB_496600.T0&lt;/b&gt;&lt;br&gt;Percentage identity: 59&lt;br&gt;Percentage coverage: 106&lt;br&gt;BLAST bit score: 867&lt;br&gt;E-value: 6.13e-307" locus_tag="AGABI2DRAFT_152546" class="clusterblast-orf" id="dummy-1_h1_1_1"  />
</g>
<g id="a1_002"  >
<polygon points="338,90 384,90 389,85 384,80 338,80 338,90 " style="fill:#1515d8; stroke-width:1; stroke:black; " description="&lt;b&gt;AGABI2DRAFT_208101&lt;/b&gt;&lt;br&gt;hypothetical protein&lt;br&gt;Location: 1226312 - 1228064&lt;br&gt;&lt;br&gt;&lt;b&gt;BlastP hit with CopciAB_559321.T0&lt;/b&gt;&lt;br&gt;Percentage identity: 73&lt;br&gt;Percentage coverage: 97&lt;br&gt;BLAST bit score: 527&lt;br&gt;E-value: 1.28e-185" locus_tag="AGABI2DRAFT_208101" class="clusterblast-orf" id="dummy-1_h1_1_2"  />
</g>
<g id="a1_003"  >
<polygon points="507,85 512,80 541,80 541,90 512,90 507,85 " style="fill:white; stroke-width:1; stroke:black; " description="&lt;b&gt;AGABI2DRAFT_194208&lt;/b&gt;&lt;br&gt;hypothetical protein&lt;br&gt;Location: 1232176 - 1233342" locus_tag="AGABI2DRAFT_194208" class="clusterblast-orf" id="dummy-1_h1_1_3"  />
</g>
<g id="a1_004"  >
<polygon points="590,90 634,90 639,85 634,80 590,80 590,90 " style="fill:white; stroke-width:1; stroke:black; " description="&lt;b&gt;AGABI2DRAFT_120195&lt;/b&gt;&lt;br&gt;hypothetical protein&lt;br&gt;Location: 1235050 - 1236742" locus_tag="AGABI2DRAFT_120195" class="clusterblast-orf" id="dummy-1_h1_1_4"  />
</g>
</svg>
