<svg xmlns="http://www.w3.org/2000/svg" xmlns:xlink="http://www.w3.org/1999/xlink" version="1.1" x="0" y="0" height="230" width="800" viewBox="0 0 800 230" preserveAspectRatio="none"  >
<g label="Query sequence" class="clusterblast-cluster"  >
<text x="5" y="20" class="clusterblast-acc"  >
Query sequence</text>
<line x1="10" y1="35" x2="778.0" y2="35" style="stroke-width:1; stroke:grey; "  />
<polygon points="0,35 5,30 25,30 25,40 5,40 0,35 " style="fill:#d81515; stroke-width:1; stroke:black; " description="&lt;b&gt;CopciAB_371017.T0&lt;/b&gt;&lt;br&gt;CopciAB 371017.T0&lt;br&gt;Location: 2093406 - 2095495" locus_tag="CopciAB_371017.T0" class="clusterblast-orf" id="dummy-1_q0_0_all"  />
<polygon points="28,40 58,40 63,35 58,30 28,30 28,40 " style="fill:white; stroke-width:1; stroke:black; " description="&lt;b&gt;CopciAB_437319.T0&lt;/b&gt;&lt;br&gt;CopciAB 437319.T0&lt;br&gt;Location: 2095709 - 2098625" locus_tag="CopciAB_437319.T0" class="clusterblast-orf" id="dummy-1_q1_0_all"  />
<polygon points="85,40 96,40 101,35 96,30 85,30 85,40 " style="fill:white; stroke-width:1; stroke:black; " description="&lt;b&gt;CopciAB_451551.T0&lt;/b&gt;&lt;br&gt;CopciAB 451551.T0&lt;br&gt;Location: 2100402 - 2101672" locus_tag="CopciAB_451551.T0" class="clusterblast-orf" id="dummy-1_q2_0_all"  />
<polygon points="104,35 109,30 109,30 109,40 109,40 104,35 " style="fill:white; stroke-width:1; stroke:black; " description="&lt;b&gt;CopciAB_1001422.T0&lt;/b&gt;&lt;br&gt;CopciAB 1001422.T0&lt;br&gt;Location: 2101912 - 2102322" locus_tag="CopciAB_1001422.T0" class="clusterblast-orf" id="dummy-1_q3_0_all"  />
<polygon points="134,40 146,40 151,35 146,30 134,30 134,40 " style="fill:white; stroke-width:1; stroke:black; " description="&lt;b&gt;CopciAB_371026.T0&lt;/b&gt;&lt;br&gt;CopciAB 371026.T0&lt;br&gt;Location: 2104427 - 2105803" locus_tag="CopciAB_371026.T0" class="clusterblast-orf" id="dummy-1_q4_0_all"  />
<polygon points="164,35 169,30 184,30 184,40 169,40 164,35 " style="fill:white; stroke-width:1; stroke:black; " description="&lt;b&gt;CopciAB_479810.T0&lt;/b&gt;&lt;br&gt;CopciAB 479810.T0&lt;br&gt;Location: 2106862 - 2108523" locus_tag="CopciAB_479810.T0" class="clusterblast-orf" id="dummy-1_q5_0_all"  />
<polygon points="199,40 210,40 215,35 210,30 199,30 199,40 " style="fill:white; stroke-width:1; stroke:black; " description="&lt;b&gt;CopciAB_462110.T0&lt;/b&gt;&lt;br&gt;CopciAB 462110.T0&lt;br&gt;Location: 2109703 - 2111071" locus_tag="CopciAB_462110.T0" class="clusterblast-orf" id="dummy-1_q6_0_all"  />
<polygon points="229,35 234,30 265,30 265,40 234,40 229,35 " style="fill:#15d815; stroke-width:1; stroke:black; " description="&lt;b&gt;CopciAB_479811.T0&lt;/b&gt;&lt;br&gt;CopciAB 479811.T0&lt;br&gt;Location: 2112187 - 2115168" locus_tag="CopciAB_479811.T0" class="clusterblast-orf" id="dummy-1_q7_0_all"  />
<polygon points="271,35 276,30 305,30 305,40 276,40 271,35 " style="fill:#1515d8; stroke-width:1; stroke:black; " description="&lt;b&gt;CopciAB_437330.T0&lt;/b&gt;&lt;br&gt;CopciAB 437330.T0&lt;br&gt;Location: 2115617 - 2118434" locus_tag="CopciAB_437330.T0" class="clusterblast-orf" id="dummy-1_q8_0_all"  />
<polygon points="308,35 313,30 319,30 319,40 313,40 308,35 " style="fill:#d815d8; stroke-width:1; stroke:black; " description="&lt;b&gt;CopciAB_400550.T0&lt;/b&gt;&lt;br&gt;CopciAB 400550.T0&lt;br&gt;Location: 2118626 - 2119582" locus_tag="CopciAB_400550.T0" class="clusterblast-orf" id="dummy-1_q9_0_all"  />
<polygon points="321,35 326,30 346,30 346,40 326,40 321,35 " style="fill:white; stroke-width:1; stroke:black; " description="&lt;b&gt;CopciAB_371032.T0&lt;/b&gt;&lt;br&gt;CopciAB 371032.T0&lt;br&gt;Location: 2119727 - 2121724" locus_tag="CopciAB_371032.T0" class="clusterblast-orf" id="dummy-1_q10_0_all"  />
<polygon points="354,35 359,30 427,30 427,40 359,40 354,35 " style="fill:#d8d815; stroke-width:1; stroke:black; " description="&lt;b&gt;CopciAB_14244.T0&lt;/b&gt;&lt;br&gt;CopciAB 14244.T0&lt;br&gt;Location: 2122378 - 2128385" locus_tag="CopciAB_14244.T0" class="clusterblast-orf" id="dummy-1_q11_0_all"  />
<polygon points="435,35 440,30 447,30 447,40 440,40 435,35 " style="fill:#15d8d8; stroke-width:1; stroke:black; " description="&lt;b&gt;CopciAB_14270.T0&lt;/b&gt;&lt;br&gt;CopciAB 14270.T0&lt;br&gt;Location: 2129063 - 2130034" locus_tag="CopciAB_14270.T0" class="clusterblast-orf" id="dummy-1_q12_0_all"  />
<polygon points="444,35 445,30 445,40 444,35 " style="fill:white; stroke-width:1; stroke:black; " description="&lt;b&gt;CopciAB_14270.T1&lt;/b&gt;&lt;br&gt;CopciAB 14270.T1&lt;br&gt;Location: 2129742 - 2129900" locus_tag="CopciAB_14270.T1" class="clusterblast-orf" id="dummy-1_q13_0_all"  />
<polygon points="455,40 477,40 482,35 477,30 455,30 455,40 " style="fill:white; stroke-width:1; stroke:black; " description="&lt;b&gt;CopciAB_1001423.T0&lt;/b&gt;&lt;br&gt;CopciAB 1001423.T0&lt;br&gt;Location: 2130659 - 2132871" locus_tag="CopciAB_1001423.T0" class="clusterblast-orf" id="dummy-1_q14_0_all"  />
<polygon points="488,40 501,40 506,35 501,30 488,30 488,40 " style="fill:white; stroke-width:1; stroke:black; " description="&lt;b&gt;CopciAB_14289.T1&lt;/b&gt;&lt;br&gt;CopciAB 14289.T1&lt;br&gt;Location: 2133369 - 2134890" locus_tag="CopciAB_14289.T1" class="clusterblast-orf" id="dummy-1_q15_0_all"  />
<polygon points="507,35 512,30 525,30 525,40 512,40 507,35 " style="fill:white; stroke-width:1; stroke:black; " description="&lt;b&gt;CopciAB_371009.T0&lt;/b&gt;&lt;br&gt;CopciAB 371009.T0&lt;br&gt;Location: 2134905 - 2136408" locus_tag="CopciAB_371009.T0" class="clusterblast-orf" id="dummy-1_q16_0_all"  />
<polygon points="530,35 535,30 548,30 548,40 535,40 530,35 " style="fill:white; stroke-width:1; stroke:black; " description="&lt;b&gt;CopciAB_479819.T0&lt;/b&gt;&lt;br&gt;CopciAB 479819.T0&lt;br&gt;Location: 2136781 - 2138320" locus_tag="CopciAB_479819.T0" class="clusterblast-orf" id="dummy-1_q17_0_all"  />
<polygon points="552,40 566,40 571,35 566,30 552,30 552,40 " style="fill:white; stroke-width:1; stroke:black; " description="&lt;b&gt;CopciAB_437340.T0&lt;/b&gt;&lt;br&gt;CopciAB 437340.T0&lt;br&gt;Location: 2138643 - 2140134" locus_tag="CopciAB_437340.T0" class="clusterblast-orf" id="dummy-1_q18_0_all"  />
<polygon points="584,40 611,40 616,35 611,30 584,30 584,40 " style="fill:white; stroke-width:1; stroke:black; " description="&lt;b&gt;CopciAB_499021.T0&lt;/b&gt;&lt;br&gt;CopciAB 499021.T0&lt;br&gt;Location: 2141199 - 2143880" locus_tag="CopciAB_499021.T0" class="clusterblast-orf" id="dummy-1_q19_0_all"  />
<polygon points="635,35 640,30 652,30 652,40 640,40 635,35 " style="fill:white; stroke-width:1; stroke:black; " description="&lt;b&gt;CopciAB_447960.T0&lt;/b&gt;&lt;br&gt;CopciAB 447960.T0&lt;br&gt;Location: 2145391 - 2146814" locus_tag="CopciAB_447960.T0" class="clusterblast-orf" id="dummy-1_q20_0_all"  />
<polygon points="666,40 671,40 676,35 671,30 666,30 666,40 " style="fill:white; stroke-width:1; stroke:black; " description="&lt;b&gt;CopciAB_503824.T0&lt;/b&gt;&lt;br&gt;CopciAB 503824.T0&lt;br&gt;Location: 2147951 - 2148757" locus_tag="CopciAB_503824.T0" class="clusterblast-orf" id="dummy-1_q21_0_all"  />
<polygon points="686,40 696,40 701,35 696,30 686,30 686,40 " style="fill:white; stroke-width:1; stroke:black; " description="&lt;b&gt;CopciAB_503823.T0&lt;/b&gt;&lt;br&gt;CopciAB 503823.T0&lt;br&gt;Location: 2149577 - 2150788" locus_tag="CopciAB_503823.T0" class="clusterblast-orf" id="dummy-1_q22_0_all"  />
<polygon points="705,35 710,30 723,30 723,40 710,40 705,35 " style="fill:white; stroke-width:1; stroke:black; " description="&lt;b&gt;CopciAB_503822.T0&lt;/b&gt;&lt;br&gt;CopciAB 503822.T0&lt;br&gt;Location: 2151129 - 2152579" locus_tag="CopciAB_503822.T0" class="clusterblast-orf" id="dummy-1_q23_0_all"  />
<polygon points="745,35 750,30 754,30 754,40 750,40 745,35 " style="fill:white; stroke-width:1; stroke:black; " description="&lt;b&gt;CopciAB_492429.T1&lt;/b&gt;&lt;br&gt;CopciAB 492429.T1&lt;br&gt;Location: 2154421 - 2155152" locus_tag="CopciAB_492429.T1" class="clusterblast-orf" id="dummy-1_q24_0_all"  />
<polygon points="745,35 745,30 745,40 745,35 " style="fill:white; stroke-width:1; stroke:black; " description="&lt;b&gt;CopciAB_492429.T0&lt;/b&gt;&lt;br&gt;CopciAB 492429.T0&lt;br&gt;Location: 2154428 - 2154432" locus_tag="CopciAB_492429.T0" class="clusterblast-orf" id="dummy-1_q25_0_all"  />
<polygon points="746,35 751,30 760,30 760,40 751,40 746,35 " style="fill:white; stroke-width:1; stroke:black; " description="&lt;b&gt;CopciAB_492429.T2&lt;/b&gt;&lt;br&gt;CopciAB 492429.T2&lt;br&gt;Location: 2154494 - 2155646" locus_tag="CopciAB_492429.T2" class="clusterblast-orf" id="dummy-1_q26_0_all"  />
<polygon points="766,35 771,30 780,30 780,40 771,40 766,35 " style="fill:white; stroke-width:1; stroke:black; " description="&lt;b&gt;CopciAB_1001424.T0&lt;/b&gt;&lt;br&gt;CopciAB 1001424.T0&lt;br&gt;Location: 2156150 - 2157249" locus_tag="CopciAB_1001424.T0" class="clusterblast-orf" id="dummy-1_q27_0_all"  />
</g>
<g label="NZ_CM001776" description="NZ_CM001776 (3109679-3171542): Synechococcus sp. PCC 7336 chromosome, whole g... (3% of genes show similarity), NRPS,terpene" class="clusterblast-cluster"  >
<text x="5" y="70" class="clusterblast-acc"  >
<a xlink:href="https://antismash-db.secondarymetabolites.org/area.html?record=NZ_CM001776&amp;start=3109679&amp;end=3171542" target="_blank">NZ_CM001776 (3109679-3171542)</a>: Synechococcus sp. PCC 7336 chromosome, whole g... (3% of genes show similarity), NRPS,terpene</text>
<line x1="10" y1="85" x2="778.0" y2="85" style="stroke-width:1; stroke:grey; "  />
</g>
<g id="a1_000"  >
<polygon points="12,90 14,90 19,85 14,80 12,80 12,90 " style="fill:white; stroke-width:1; stroke:black; " description="&lt;b&gt;SYN7336_RS15230&lt;/b&gt;&lt;br&gt;Uma2 family endonuclease&lt;br&gt;Location: 3171542 - 3170943" locus_tag="SYN7336_RS15230" class="clusterblast-orf" id="dummy-1_h1_3_0"  />
</g>
<g id="a1_001"  >
<polygon points="20,90 22,90 27,85 22,80 20,80 20,90 " style="fill:white; stroke-width:1; stroke:black; " description="&lt;b&gt;SYN7336_RS15225&lt;/b&gt;&lt;br&gt;Uma2 family endonuclease&lt;br&gt;Location: 3170879 - 3170280" locus_tag="SYN7336_RS15225" class="clusterblast-orf" id="dummy-1_h1_3_1"  />
</g>
<g id="a1_002"  >
<polygon points="28,90 38,90 43,85 38,80 28,80 28,90 " style="fill:white; stroke-width:1; stroke:black; " description="&lt;b&gt;SYN7336_RS15220&lt;/b&gt;&lt;br&gt;AI-2E family transporter&lt;br&gt;Location: 3170171 - 3169008" locus_tag="SYN7336_RS15220" class="clusterblast-orf" id="dummy-1_h1_3_2"  />
</g>
<g id="a1_003"  >
<polygon points="46,85 48,80 48,90 46,85 " style="fill:white; stroke-width:1; stroke:black; " description="&lt;b&gt;SYN7336_RS30980&lt;/b&gt;&lt;br&gt;hypothetical protein&lt;br&gt;Location: 3168751 - 3168602" locus_tag="SYN7336_RS30980" class="clusterblast-orf" id="dummy-1_h1_3_3"  />
</g>
<g id="a1_004"  >
<polygon points="47,90 52,90 57,85 52,80 47,80 47,90 " style="fill:white; stroke-width:1; stroke:black; " description="&lt;b&gt;SYN7336_RS26145&lt;/b&gt;&lt;br&gt;hypothetical protein&lt;br&gt;Location: 3168627 - 3167845" locus_tag="SYN7336_RS26145" class="clusterblast-orf" id="dummy-1_h1_3_4"  />
</g>
<g id="a1_005"  >
<polygon points="57,85 62,80 66,80 66,90 62,90 57,85 " style="fill:white; stroke-width:1; stroke:black; " description="&lt;b&gt;SYN7336_RS15210&lt;/b&gt;&lt;br&gt;ABC-2 family transporter protein&lt;br&gt;Location: 3167841 - 3167059" locus_tag="SYN7336_RS15210" class="clusterblast-orf" id="dummy-1_h1_3_5"  />
</g>
<g id="a1_006"  >
<polygon points="67,85 72,80 76,80 76,90 72,90 67,85 " style="fill:white; stroke-width:1; stroke:black; " description="&lt;b&gt;SYN7336_RS15205&lt;/b&gt;&lt;br&gt;ABC-2 family transporter protein&lt;br&gt;Location: 3167046 - 3166258" locus_tag="SYN7336_RS15205" class="clusterblast-orf" id="dummy-1_h1_3_6"  />
</g>
<g id="a1_007"  >
<polygon points="76,85 81,80 88,80 88,90 81,90 76,85 " style="fill:white; stroke-width:1; stroke:black; " description="&lt;b&gt;SYN7336_RS15200&lt;/b&gt;&lt;br&gt;ATP-binding cassette domain-containing protein&lt;br&gt;Location: 3166261 - 3165278" locus_tag="SYN7336_RS15200" class="clusterblast-orf" id="dummy-1_h1_3_7"  />
</g>
<g id="a1_008"  >
<polygon points="96,90 116,90 121,85 116,80 96,80 96,90 " style="fill:white; stroke-width:1; stroke:black; " description="&lt;b&gt;SYN7336_RS15195&lt;/b&gt;&lt;br&gt;elongation factor G&lt;br&gt;Location: 3164657 - 3162573" locus_tag="SYN7336_RS15195" class="clusterblast-orf" id="dummy-1_h1_3_8"  />
</g>
<g id="a1_009"  >
<polygon points="122,85 127,80 133,80 133,90 127,90 122,85 " style="fill:white; stroke-width:1; stroke:black; " description="&lt;b&gt;SYN7336_RS15190&lt;/b&gt;&lt;br&gt;phytoene synthase&lt;br&gt;Location: 3162481 - 3161606" locus_tag="SYN7336_RS15190" class="clusterblast-orf" id="dummy-1_h1_3_9"  />
</g>
<g id="a1_0010"  >
<polygon points="134,85 139,80 151,80 151,90 139,90 134,85 " style="fill:white; stroke-width:1; stroke:black; " description="&lt;b&gt;SYN7336_RS15185&lt;/b&gt;&lt;br&gt;15-cis-phytoene desaturase&lt;br&gt;Location: 3161534 - 3160104" locus_tag="SYN7336_RS15185" class="clusterblast-orf" id="dummy-1_h1_3_10"  />
</g>
<g id="a1_0011"  >
<polygon points="153,85 156,80 156,90 153,85 " style="fill:white; stroke-width:1; stroke:black; " description="&lt;b&gt;SYN7336_RS15180&lt;/b&gt;&lt;br&gt;hypothetical protein&lt;br&gt;Location: 3160004 - 3159753" locus_tag="SYN7336_RS15180" class="clusterblast-orf" id="dummy-1_h1_3_11"  />
</g>
<g id="a1_0012"  >
<polygon points="159,90 162,90 167,85 162,80 159,80 159,90 " style="fill:white; stroke-width:1; stroke:black; " description="&lt;b&gt;SYN7336_RS15175&lt;/b&gt;&lt;br&gt;helix-turn-helix transcriptional regulator&lt;br&gt;Location: 3159491 - 3158820" locus_tag="SYN7336_RS15175" class="clusterblast-orf" id="dummy-1_h1_3_12"  />
</g>
<g id="a1_0013"  >
<polygon points="168,90 171,85 168,80 168,90 " style="fill:white; stroke-width:1; stroke:black; " description="&lt;b&gt;SYN7336_RS15170&lt;/b&gt;&lt;br&gt;glutaredoxin 3&lt;br&gt;Location: 3158722 - 3158459" locus_tag="SYN7336_RS15170" class="clusterblast-orf" id="dummy-1_h1_3_13"  />
</g>
<g id="a1_0014"  >
<polygon points="171,90 178,90 183,85 178,80 171,80 171,90 " style="fill:white; stroke-width:1; stroke:black; " description="&lt;b&gt;SYN7336_RS15165&lt;/b&gt;&lt;br&gt;glutathione synthase&lt;br&gt;Location: 3158455 - 3157517" locus_tag="SYN7336_RS15165" class="clusterblast-orf" id="dummy-1_h1_3_14"  />
</g>
<g id="a1_0015"  >
<polygon points="183,85 186,80 186,90 183,85 " style="fill:white; stroke-width:1; stroke:black; " description="&lt;b&gt;SYN7336_RS15160&lt;/b&gt;&lt;br&gt;transposase&lt;br&gt;Location: 3157483 - 3157244" locus_tag="SYN7336_RS15160" class="clusterblast-orf" id="dummy-1_h1_3_15"  />
</g>
<g id="a1_0016"  >
<polygon points="188,85 191,80 191,90 188,85 " style="fill:white; stroke-width:1; stroke:black; " description="&lt;b&gt;SYN7336_RS15155&lt;/b&gt;&lt;br&gt;HigA family addiction module antidote protein&lt;br&gt;Location: 3157138 - 3156851" locus_tag="SYN7336_RS15155" class="clusterblast-orf" id="dummy-1_h1_3_16"  />
</g>
<g id="a1_0017"  >
<polygon points="191,85 195,80 195,90 191,85 " style="fill:white; stroke-width:1; stroke:black; " description="&lt;b&gt;SYN7336_RS15150&lt;/b&gt;&lt;br&gt;type II toxin-antitoxin system RelE/ParE family toxin&lt;br&gt;Location: 3156851 - 3156564" locus_tag="SYN7336_RS15150" class="clusterblast-orf" id="dummy-1_h1_3_17"  />
</g>
<g id="a1_0018"  >
<polygon points="199,85 203,80 203,90 199,85 " style="fill:white; stroke-width:1; stroke:black; " description="&lt;b&gt;SYN7336_RS29015&lt;/b&gt;&lt;br&gt;toxin-antitoxin system HicB family antitoxin&lt;br&gt;Location: 3156178 - 3155843" locus_tag="SYN7336_RS29015" class="clusterblast-orf" id="dummy-1_h1_3_18"  />
</g>
<g id="a1_0019"  >
<polygon points="203,85 208,80 209,80 209,90 208,90 203,85 " style="fill:white; stroke-width:1; stroke:black; " description="&lt;b&gt;SYN7336_RS15140&lt;/b&gt;&lt;br&gt;PIN domain-containing protein&lt;br&gt;Location: 3155846 - 3155406" locus_tag="SYN7336_RS15140" class="clusterblast-orf" id="dummy-1_h1_3_19"  />
</g>
<g id="a1_0020"  >
<polygon points="212,85 217,80 223,80 223,90 217,90 212,85 " style="fill:white; stroke-width:1; stroke:black; " description="&lt;b&gt;SYN7336_RS30975&lt;/b&gt;&lt;br&gt;hypothetical protein&lt;br&gt;Location: 3155114 - 3154230" locus_tag="SYN7336_RS30975" class="clusterblast-orf" id="dummy-1_h1_3_20"  />
</g>
<g id="a1_0021"  >
<polygon points="226,90 229,90 234,85 229,80 226,80 226,90 " style="fill:white; stroke-width:1; stroke:black; " description="&lt;b&gt;SYN7336_RS28105&lt;/b&gt;&lt;br&gt;hypothetical protein&lt;br&gt;Location: 3153984 - 3153325" locus_tag="SYN7336_RS28105" class="clusterblast-orf" id="dummy-1_h1_3_21"  />
</g>
<g id="a1_0022"  >
<polygon points="238,85 239,80 239,90 238,85 " style="fill:white; stroke-width:1; stroke:black; " description="&lt;b&gt;SYN7336_RS29895&lt;/b&gt;&lt;br&gt;CopG family transcriptional regulator&lt;br&gt;Location: 3153021 - 3152899" locus_tag="SYN7336_RS29895" class="clusterblast-orf" id="dummy-1_h1_3_22"  />
</g>
<g id="a1_0023"  >
<polygon points="240,90 242,90 247,85 242,80 240,80 240,90 " style="fill:white; stroke-width:1; stroke:black; " description="&lt;b&gt;SYN7336_RS15115&lt;/b&gt;&lt;br&gt;molybdenum cofactor biosynthesis protein B&lt;br&gt;Location: 3152812 - 3152279" locus_tag="SYN7336_RS15115" class="clusterblast-orf" id="dummy-1_h1_3_23"  />
</g>
<g id="a1_0024"  >
<polygon points="247,85 252,80 301,80 301,90 252,90 247,85 " style="fill:white; stroke-width:1; stroke:black; " description="&lt;b&gt;SYN7336_RS15110&lt;/b&gt;&lt;br&gt;response regulator&lt;br&gt;Location: 3152270 - 3147864" locus_tag="SYN7336_RS15110" class="clusterblast-orf" id="dummy-1_h1_3_24"  />
</g>
<g id="a1_0025"  >
<polygon points="303,85 308,80 333,80 333,90 308,90 303,85 " style="fill:white; stroke-width:1; stroke:black; " description="&lt;b&gt;SYN7336_RS15105&lt;/b&gt;&lt;br&gt;tetratricopeptide repeat protein&lt;br&gt;Location: 3147723 - 3145204" locus_tag="SYN7336_RS15105" class="clusterblast-orf" id="dummy-1_h1_3_25"  />
</g>
<g id="a1_0026"  >
<polygon points="334,85 339,80 341,80 341,90 339,90 334,85 " style="fill:white; stroke-width:1; stroke:black; " description="&lt;b&gt;SYN7336_RS15100&lt;/b&gt;&lt;br&gt;chemotaxis protein CheW&lt;br&gt;Location: 3145138 - 3144602" locus_tag="SYN7336_RS15100" class="clusterblast-orf" id="dummy-1_h1_3_26"  />
</g>
<g id="a1_0027"  >
<polygon points="341,85 345,80 345,90 341,85 " style="fill:white; stroke-width:1; stroke:black; " description="&lt;b&gt;SYN7336_RS15095&lt;/b&gt;&lt;br&gt;response regulator&lt;br&gt;Location: 3144594 - 3144229" locus_tag="SYN7336_RS15095" class="clusterblast-orf" id="dummy-1_h1_3_27"  />
</g>
<g id="a1_0028"  >
<polygon points="347,85 352,80 361,80 361,90 352,90 347,85 " style="fill:white; stroke-width:1; stroke:black; " description="&lt;b&gt;SYN7336_RS26125&lt;/b&gt;&lt;br&gt;response regulator&lt;br&gt;Location: 3144077 - 3142920" locus_tag="SYN7336_RS26125" class="clusterblast-orf" id="dummy-1_h1_3_28"  />
</g>
<g id="a1_0029"  >
<polygon points="368,90 385,90 390,85 385,80 368,80 368,90 " style="fill:white; stroke-width:1; stroke:black; " description="&lt;b&gt;SYN7336_RS26120&lt;/b&gt;&lt;br&gt;hypothetical protein&lt;br&gt;Location: 3142377 - 3140575" locus_tag="SYN7336_RS26120" class="clusterblast-orf" id="dummy-1_h1_3_29"  />
</g>
<g id="a1_0030"  >
<polygon points="390,85 395,80 400,80 400,90 395,90 390,85 " style="fill:white; stroke-width:1; stroke:black; " description="&lt;b&gt;SYN7336_RS15060&lt;/b&gt;&lt;br&gt;prephenate/arogenate dehydrogenase&lt;br&gt;Location: 3140561 - 3139725" locus_tag="SYN7336_RS15060" class="clusterblast-orf" id="dummy-1_h1_3_30"  />
</g>
<g id="a1_0031"  >
<polygon points="404,90 423,90 428,85 423,80 404,80 404,90 " style="fill:#1515d8; stroke-width:1; stroke:black; " description="&lt;b&gt;SYN7336_RS15055&lt;/b&gt;&lt;br&gt;ATP-dependent metallopeptidase FtsH/Yme1/Tma family protein&lt;br&gt;Location: 3139394 - 3137427&lt;br&gt;&lt;br&gt;&lt;b&gt;BlastP hit with CopciAB_437330.T0&lt;/b&gt;&lt;br&gt;Percentage identity: 42&lt;br&gt;Percentage coverage: 29&lt;br&gt;BLAST bit score: 192&lt;br&gt;E-value: 5.98e-50" locus_tag="SYN7336_RS15055" class="clusterblast-orf" id="dummy-1_h1_3_31"  />
</g>
<g id="a1_0032"  >
<polygon points="429,85 434,80 434,80 434,90 434,90 429,85 " style="fill:white; stroke-width:1; stroke:black; " description="&lt;b&gt;SYN7336_RS15050&lt;/b&gt;&lt;br&gt;hypothetical protein&lt;br&gt;Location: 3137373 - 3136969" locus_tag="SYN7336_RS15050" class="clusterblast-orf" id="dummy-1_h1_3_32"  />
</g>
<g id="a1_0033"  >
<polygon points="434,85 439,80 489,80 489,90 439,90 434,85 " style="fill:white; stroke-width:1; stroke:black; " description="&lt;b&gt;SYN7336_RS26115&lt;/b&gt;&lt;br&gt;non-ribosomal peptide synthetase&lt;br&gt;Location: 3136997 - 3132435" locus_tag="SYN7336_RS26115" class="clusterblast-orf" id="dummy-1_h1_3_33"  />
</g>
<g id="a1_0034"  >
<polygon points="490,85 495,80 511,80 511,90 495,90 490,85 " style="fill:white; stroke-width:1; stroke:black; " description="&lt;b&gt;SYN7336_RS15040&lt;/b&gt;&lt;br&gt;thiamine pyrophosphate-binding protein&lt;br&gt;Location: 3132425 - 3130659" locus_tag="SYN7336_RS15040" class="clusterblast-orf" id="dummy-1_h1_3_34"  />
</g>
<g id="a1_0035"  >
<polygon points="511,85 516,80 534,80 534,90 516,90 511,85 " style="fill:#d8d815; stroke-width:1; stroke:black; " description="&lt;b&gt;SYN7336_RS26110&lt;/b&gt;&lt;br&gt;AMP-binding protein&lt;br&gt;Location: 3130645 - 3128753&lt;br&gt;&lt;br&gt;&lt;b&gt;BlastP hit with CopciAB_14244.T0&lt;/b&gt;&lt;br&gt;Percentage identity: 36&lt;br&gt;Percentage coverage: 28&lt;br&gt;BLAST bit score: 246&lt;br&gt;E-value: 1.95e-67" locus_tag="SYN7336_RS26110" class="clusterblast-orf" id="dummy-1_h1_3_35"  />
</g>
<g id="a1_0036"  >
<polygon points="535,85 540,80 546,80 546,90 540,90 535,85 " style="fill:white; stroke-width:1; stroke:black; " description="&lt;b&gt;SYN7336_RS15030&lt;/b&gt;&lt;br&gt;methylated-DNA--[protein]-cysteine S-methyltransferase&lt;br&gt;Location: 3128664 - 3127783" locus_tag="SYN7336_RS15030" class="clusterblast-orf" id="dummy-1_h1_3_36"  />
</g>
<g id="a1_0037"  >
<polygon points="549,85 554,80 557,80 557,90 554,90 549,85 " style="fill:white; stroke-width:1; stroke:black; " description="&lt;b&gt;SYN7336_RS15025&lt;/b&gt;&lt;br&gt;DUF3386 domain-containing protein&lt;br&gt;Location: 3127567 - 3126863" locus_tag="SYN7336_RS15025" class="clusterblast-orf" id="dummy-1_h1_3_37"  />
</g>
<g id="a1_0038"  >
<polygon points="559,90 569,90 574,85 569,80 559,80 559,90 " style="fill:white; stroke-width:1; stroke:black; " description="&lt;b&gt;SYN7336_RS15020&lt;/b&gt;&lt;br&gt;hypothetical protein&lt;br&gt;Location: 3126738 - 3125545" locus_tag="SYN7336_RS15020" class="clusterblast-orf" id="dummy-1_h1_3_38"  />
</g>
<g id="a1_0039"  >
<polygon points="577,90 590,90 595,85 590,80 577,80 577,90 " style="fill:white; stroke-width:1; stroke:black; " description="&lt;b&gt;SYN7336_RS15010&lt;/b&gt;&lt;br&gt;PilT/PilU family type 4a pilus ATPase&lt;br&gt;Location: 3125225 - 3123804" locus_tag="SYN7336_RS15010" class="clusterblast-orf" id="dummy-1_h1_3_39"  />
</g>
<g id="a1_0040"  >
<polygon points="598,90 606,90 611,85 606,80 598,80 598,90 " style="fill:white; stroke-width:1; stroke:black; " description="&lt;b&gt;SYN7336_RS15000&lt;/b&gt;&lt;br&gt;aromatic ring-hydroxylating dioxygenase subunit alpha&lt;br&gt;Location: 3123553 - 3122513" locus_tag="SYN7336_RS15000" class="clusterblast-orf" id="dummy-1_h1_3_40"  />
</g>
<g id="a1_0041"  >
<polygon points="618,85 623,80 625,80 625,90 623,90 618,85 " style="fill:white; stroke-width:1; stroke:black; " description="&lt;b&gt;SYN7336_RS26105&lt;/b&gt;&lt;br&gt;pentapeptide repeat-containing protein&lt;br&gt;Location: 3121898 - 3121320" locus_tag="SYN7336_RS26105" class="clusterblast-orf" id="dummy-1_h1_3_41"  />
</g>
<g id="a1_0042"  >
<polygon points="630,85 635,80 638,80 638,90 635,90 630,85 " style="fill:white; stroke-width:1; stroke:black; " description="&lt;b&gt;SYN7336_RS26100&lt;/b&gt;&lt;br&gt;FAD-dependent oxidoreductase&lt;br&gt;Location: 3120952 - 3120281" locus_tag="SYN7336_RS26100" class="clusterblast-orf" id="dummy-1_h1_3_42"  />
</g>
<g id="a1_0043"  >
<polygon points="640,85 644,80 644,90 640,85 " style="fill:white; stroke-width:1; stroke:black; " description="&lt;b&gt;SYN7336_RS14980&lt;/b&gt;&lt;br&gt;Mo-dependent nitrogenase C-terminal domain-containing protein&lt;br&gt;Location: 3120089 - 3119772" locus_tag="SYN7336_RS14980" class="clusterblast-orf" id="dummy-1_h1_3_43"  />
</g>
<g id="a1_0044"  >
<polygon points="662,90 663,90 668,85 663,80 662,80 662,90 " style="fill:white; stroke-width:1; stroke:black; " description="&lt;b&gt;SYN7336_RS14975&lt;/b&gt;&lt;br&gt;hypothetical protein&lt;br&gt;Location: 3118332 - 3117844" locus_tag="SYN7336_RS14975" class="clusterblast-orf" id="dummy-1_h1_3_44"  />
</g>
<g id="a1_0045"  >
<polygon points="668,90 669,90 674,85 669,80 668,80 668,90 " style="fill:white; stroke-width:1; stroke:black; " description="&lt;b&gt;SYN7336_RS14970&lt;/b&gt;&lt;br&gt;cyclic pyranopterin monophosphate synthase MoaC&lt;br&gt;Location: 3117844 - 3117323" locus_tag="SYN7336_RS14970" class="clusterblast-orf" id="dummy-1_h1_3_45"  />
</g>
<g id="a1_0046"  >
<polygon points="674,90 691,90 696,85 691,80 674,80 674,90 " style="fill:white; stroke-width:1; stroke:black; " description="&lt;b&gt;SYN7336_RS14965&lt;/b&gt;&lt;br&gt;ABC transporter ATP-binding protein&lt;br&gt;Location: 3117318 - 3115534" locus_tag="SYN7336_RS14965" class="clusterblast-orf" id="dummy-1_h1_3_46"  />
</g>
<g id="a1_0047"  >
<polygon points="697,90 704,90 709,85 704,80 697,80 697,90 " style="fill:white; stroke-width:1; stroke:black; " description="&lt;b&gt;SYN7336_RS14960&lt;/b&gt;&lt;br&gt;DUF21 domain-containing protein&lt;br&gt;Location: 3115482 - 3114466" locus_tag="SYN7336_RS14960" class="clusterblast-orf" id="dummy-1_h1_3_47"  />
</g>
<g id="a1_0048"  >
<polygon points="709,85 714,80 714,80 714,90 714,90 709,85 " style="fill:white; stroke-width:1; stroke:black; " description="&lt;b&gt;SYN7336_RS14955&lt;/b&gt;&lt;br&gt;diacylglycerol kinase family protein&lt;br&gt;Location: 3114427 - 3114017" locus_tag="SYN7336_RS14955" class="clusterblast-orf" id="dummy-1_h1_3_48"  />
</g>
<g id="a1_0049"  >
<polygon points="716,85 721,80 723,80 723,90 721,90 716,85 " style="fill:white; stroke-width:1; stroke:black; " description="&lt;b&gt;SYN7336_RS14950&lt;/b&gt;&lt;br&gt;rRNA maturation RNase YbeY&lt;br&gt;Location: 3113889 - 3113353" locus_tag="SYN7336_RS14950" class="clusterblast-orf" id="dummy-1_h1_3_49"  />
</g>
<g id="a1_0050"  >
<polygon points="725,85 727,80 727,90 725,85 " style="fill:white; stroke-width:1; stroke:black; " description="&lt;b&gt;SYN7336_RS31535&lt;/b&gt;&lt;br&gt;hypothetical protein&lt;br&gt;Location: 3113140 - 3112952" locus_tag="SYN7336_RS31535" class="clusterblast-orf" id="dummy-1_h1_3_50"  />
</g>
<g id="a1_0051"  >
<polygon points="732,90 732,90 737,85 732,80 732,80 732,90 " style="fill:white; stroke-width:1; stroke:black; " description="&lt;b&gt;SYN7336_RS14940&lt;/b&gt;&lt;br&gt;hypothetical protein&lt;br&gt;Location: 3112579 - 3112136" locus_tag="SYN7336_RS14940" class="clusterblast-orf" id="dummy-1_h1_3_51"  />
</g>
<g id="a1_0052"  >
<polygon points="737,85 742,80 751,80 751,90 742,90 737,85 " style="fill:white; stroke-width:1; stroke:black; " description="&lt;b&gt;SYN7336_RS26095&lt;/b&gt;&lt;br&gt;magnesium/cobalt transporter CorA&lt;br&gt;Location: 3112139 - 3111012" locus_tag="SYN7336_RS26095" class="clusterblast-orf" id="dummy-1_h1_3_52"  />
</g>
<g id="a1_0053"  >
<polygon points="752,85 757,80 763,80 763,90 757,90 752,85 " style="fill:white; stroke-width:1; stroke:black; " description="&lt;b&gt;SYN7336_RS14930&lt;/b&gt;&lt;br&gt;ferritin-like domain-containing protein&lt;br&gt;Location: 3110911 - 3110078" locus_tag="SYN7336_RS14930" class="clusterblast-orf" id="dummy-1_h1_3_53"  />
</g>
<g id="a1_0054"  >
<polygon points="763,90 767,85 763,80 763,90 " style="fill:white; stroke-width:1; stroke:black; " description="&lt;b&gt;SYN7336_RS14925&lt;/b&gt;&lt;br&gt;6-carboxytetrahydropterin synthase QueD&lt;br&gt;Location: 3110048 - 3109680" locus_tag="SYN7336_RS14925" class="clusterblast-orf" id="dummy-1_h1_3_54"  />
</g>
</svg>
