<svg xmlns="http://www.w3.org/2000/svg" xmlns:xlink="http://www.w3.org/1999/xlink" version="1.1" x="0" y="0" height="150" width="800" viewBox="0 0 800 150" preserveAspectRatio="none"  >
<g label="Query sequence" class="clusterblast-cluster"  >
<text x="5" y="20" class="clusterblast-acc"  >
Query sequence</text>
<line x1="10" y1="35" x2="778.0" y2="35" style="stroke-width:1; stroke:grey; "  />
<polygon points="0,40 45,40 50,35 45,30 0,30 0,40 " style="fill:white; stroke-width:1; stroke:black; " description="&lt;b&gt;CopciAB_467191.T0&lt;/b&gt;&lt;br&gt;CopciAB 467191.T0&lt;br&gt;Location: 865635 - 867502" locus_tag="CopciAB_467191.T0" class="clusterblast-orf" id="general-1_q0_0_all"  />
<polygon points="53,35 58,30 115,30 115,40 58,40 53,35 " style="fill:white; stroke-width:1; stroke:black; " description="&lt;b&gt;CopciAB_141512.T0&lt;/b&gt;&lt;br&gt;CopciAB 141512.T0&lt;br&gt;Location: 867640 - 869935" locus_tag="CopciAB_141512.T0" class="clusterblast-orf" id="general-1_q1_0_all"  />
<polygon points="127,35 132,30 154,30 154,40 132,40 127,35 " style="fill:white; stroke-width:1; stroke:black; " description="&lt;b&gt;CopciAB_519084.T0&lt;/b&gt;&lt;br&gt;CopciAB 519084.T0&lt;br&gt;Location: 870387 - 871382" locus_tag="CopciAB_519084.T0" class="clusterblast-orf" id="general-1_q2_0_all"  />
<polygon points="180,35 185,30 212,30 212,40 185,40 180,35 " style="fill:white; stroke-width:1; stroke:black; " description="&lt;b&gt;CopciAB_495707.T0&lt;/b&gt;&lt;br&gt;CopciAB 495707.T0&lt;br&gt;Location: 872353 - 873585" locus_tag="CopciAB_495707.T0" class="clusterblast-orf" id="general-1_q3_0_all"  />
<polygon points="217,35 221,30 221,40 217,35 " style="fill:white; stroke-width:1; stroke:black; " description="&lt;b&gt;CopciAB_10026296.T1&lt;/b&gt;&lt;br&gt;CopciAB 10026296.T1&lt;br&gt;Location: 873746 - 873902" locus_tag="CopciAB_10026296.T1" class="clusterblast-orf" id="general-1_q4_0_all"  />
<polygon points="217,35 222,30 223,30 223,40 222,40 217,35 " style="fill:white; stroke-width:1; stroke:black; " description="&lt;b&gt;CopciAB_10026296.T0&lt;/b&gt;&lt;br&gt;CopciAB 10026296.T0&lt;br&gt;Location: 873746 - 873963" locus_tag="CopciAB_10026296.T0" class="clusterblast-orf" id="general-1_q5_0_all"  />
<polygon points="231,40 289,40 294,35 289,30 231,30 231,40 " style="fill:white; stroke-width:1; stroke:black; " description="&lt;b&gt;CopciAB_467195.T0&lt;/b&gt;&lt;br&gt;CopciAB 467195.T0&lt;br&gt;Location: 874282 - 876644" locus_tag="CopciAB_467195.T0" class="clusterblast-orf" id="general-1_q6_0_all"  />
<polygon points="317,40 344,40 349,35 344,30 317,30 317,40 " style="fill:white; stroke-width:1; stroke:black; " description="&lt;b&gt;CopciAB_141635.T0&lt;/b&gt;&lt;br&gt;CopciAB 141635.T0&lt;br&gt;Location: 877502 - 878702" locus_tag="CopciAB_141635.T0" class="clusterblast-orf" id="general-1_q7_0_all"  />
<polygon points="382,35 387,30 418,30 418,40 387,40 382,35 " style="fill:#d81515; stroke-width:1; stroke:black; " description="&lt;b&gt;CopciAB_443805.T0&lt;/b&gt;&lt;br&gt;CopciAB 443805.T0&lt;br&gt;Location: 879908 - 881256" locus_tag="CopciAB_443805.T0" class="clusterblast-orf" id="general-1_q8_0_all"  />
<polygon points="465,40 505,40 510,35 505,30 465,30 465,40 " style="fill:#15d863; stroke-width:1; stroke:black; " description="&lt;b&gt;CopciAB_141731.T0&lt;/b&gt;&lt;br&gt;CopciAB 141731.T0&lt;br&gt;Location: 883042 - 884722" locus_tag="CopciAB_141731.T0" class="clusterblast-orf" id="general-1_q9_0_all"  />
<polygon points="532,35 537,30 588,30 588,40 537,40 532,35 " style="fill:#1563d8; stroke-width:1; stroke:black; " description="&lt;b&gt;CopciAB_141718.T0&lt;/b&gt;&lt;br&gt;CopciAB 141718.T0&lt;br&gt;Location: 885536 - 887627" locus_tag="CopciAB_141718.T0" class="clusterblast-orf" id="general-1_q10_0_all"  />
<polygon points="597,35 602,30 606,30 606,40 602,40 597,35 " style="fill:white; stroke-width:1; stroke:black; " description="&lt;b&gt;CopciAB_1000642.T0&lt;/b&gt;&lt;br&gt;CopciAB 1000642.T0&lt;br&gt;Location: 887943 - 888276" locus_tag="CopciAB_1000642.T0" class="clusterblast-orf" id="general-1_q11_0_all"  />
<polygon points="684,35 689,30 719,30 719,40 689,40 684,35 " style="fill:#b115d8; stroke-width:1; stroke:black; " description="&lt;b&gt;CopciAB_362485.T0&lt;/b&gt;&lt;br&gt;CopciAB 362485.T0&lt;br&gt;Location: 891220 - 892508" locus_tag="CopciAB_362485.T0" class="clusterblast-orf" id="general-1_q12_0_all"  />
<polygon points="724,40 775,40 780,35 775,30 724,30 724,40 " style="fill:#b1d815; stroke-width:1; stroke:black; " description="&lt;b&gt;CopciAB_519105.T0&lt;/b&gt;&lt;br&gt;CopciAB 519105.T0&lt;br&gt;Location: 892712 - 894789" locus_tag="CopciAB_519105.T0" class="clusterblast-orf" id="general-1_q13_0_all"  />
</g>
<g label="NW_006267366" description="NW_006267366 (431975-449993): Agaricus bisporus var. bisporus H97 unplaced ge... (71% of genes show similarity), terpene" class="clusterblast-cluster"  >
<text x="5" y="70" class="clusterblast-acc"  >
<a xlink:href="https://antismash-db.secondarymetabolites.org/area.html?record=NW_006267366&amp;start=431975&amp;end=449993" target="_blank">NW_006267366 (431975-449993)</a>: Agaricus bisporus var. bisporus H97 unplaced ge... (71% of genes show similarity), terpene</text>
<line x1="10" y1="85" x2="778.0" y2="85" style="stroke-width:1; stroke:grey; "  />
</g>
<g id="a1_000"  >
<polygon points="148,90 191,90 196,85 191,80 148,80 148,90 " style="fill:white; stroke-width:1; stroke:black; " description="&lt;b&gt;AGABI2DRAFT_191073&lt;/b&gt;&lt;br&gt;hypothetical protein&lt;br&gt;Location: 431976 - 433743" locus_tag="AGABI2DRAFT_191073" class="clusterblast-orf" id="general-1_all_1_1_0"  />
</g>
<g id="a1_001"  >
<polygon points="205,85 210,80 260,80 260,90 210,90 205,85 " style="fill:#b1d815; stroke-width:1; stroke:black; " description="&lt;b&gt;AGABI2DRAFT_191077&lt;/b&gt;&lt;br&gt;hypothetical protein&lt;br&gt;Location: 434072 - 436127&lt;br&gt;&lt;br&gt;&lt;b&gt;BlastP hit with CopciAB_519105.T0&lt;/b&gt;&lt;br&gt;Percentage identity: 73&lt;br&gt;Percentage coverage: 99&lt;br&gt;BLAST bit score: 673&lt;br&gt;E-value: 1.71e-241" locus_tag="AGABI2DRAFT_191077" class="clusterblast-orf" id="general-1_all_1_1_1"  />
</g>
<g id="a1_002"  >
<polygon points="279,90 292,90 297,85 292,80 279,80 279,90 " style="fill:#b115d8; stroke-width:1; stroke:black; " description="&lt;b&gt;AGABI2DRAFT_66741&lt;/b&gt;&lt;br&gt;hypothetical protein&lt;br&gt;Location: 436861 - 437529&lt;br&gt;&lt;br&gt;&lt;b&gt;BlastP hit with CopciAB_362485.T0&lt;/b&gt;&lt;br&gt;Percentage identity: 80&lt;br&gt;Percentage coverage: 38&lt;br&gt;BLAST bit score: 147&lt;br&gt;E-value: 4.16e-43" locus_tag="AGABI2DRAFT_66741" class="clusterblast-orf" id="general-1_all_1_1_2"  />
</g>
<g id="a1_003"  >
<polygon points="365,85 370,80 398,80 398,90 370,90 365,85 " style="fill:#d81515; stroke-width:1; stroke:black; " description="&lt;b&gt;AGABI2DRAFT_183802&lt;/b&gt;&lt;br&gt;hypothetical protein&lt;br&gt;Location: 440073 - 441313&lt;br&gt;&lt;br&gt;&lt;b&gt;BlastP hit with CopciAB_443805.T0&lt;/b&gt;&lt;br&gt;Percentage identity: 60&lt;br&gt;Percentage coverage: 86&lt;br&gt;BLAST bit score: 419&lt;br&gt;E-value: 7.28e-145" locus_tag="AGABI2DRAFT_183802" class="clusterblast-orf" id="general-1_all_1_1_3"  />
</g>
<g id="a1_004"  >
<polygon points="413,90 462,90 467,85 462,80 413,80 413,90 " style="fill:#15d863; stroke-width:1; stroke:black; " description="&lt;b&gt;AGABI2DRAFT_115952&lt;/b&gt;&lt;br&gt;hypothetical protein&lt;br&gt;Location: 441857 - 443871&lt;br&gt;&lt;br&gt;&lt;b&gt;BlastP hit with CopciAB_141731.T0&lt;/b&gt;&lt;br&gt;Percentage identity: 31&lt;br&gt;Percentage coverage: 113&lt;br&gt;BLAST bit score: 196&lt;br&gt;E-value: 3.81e-53" locus_tag="AGABI2DRAFT_115952" class="clusterblast-orf" id="general-1_all_1_1_4"  />
</g>
<g id="a1_005"  >
<polygon points="483,85 488,80 550,80 550,90 488,90 483,85 " style="fill:#1563d8; stroke-width:1; stroke:black; " description="&lt;b&gt;AGABI2DRAFT_191081&lt;/b&gt;&lt;br&gt;hypothetical protein&lt;br&gt;Location: 444463 - 446991&lt;br&gt;&lt;br&gt;&lt;b&gt;BlastP hit with CopciAB_141718.T0&lt;/b&gt;&lt;br&gt;Percentage identity: 68&lt;br&gt;Percentage coverage: 55&lt;br&gt;BLAST bit score: 521&lt;br&gt;E-value: 2.94e-178" locus_tag="AGABI2DRAFT_191081" class="clusterblast-orf" id="general-1_all_1_1_5"  />
</g>
<g id="a1_006"  >
<polygon points="607,85 612,80 631,80 631,90 612,90 607,85 " style="fill:white; stroke-width:1; stroke:black; " description="&lt;b&gt;AGABI2DRAFT_200889&lt;/b&gt;&lt;br&gt;hypothetical protein&lt;br&gt;Location: 449123 - 449993" locus_tag="AGABI2DRAFT_200889" class="clusterblast-orf" id="general-1_all_1_1_6"  />
</g>
<g label="NW_009258200" description="NW_009258200 (1042600-1069564): Heterobasidion irregulare TC 32-1 unplaced ge... (23% of genes show similarity), terpene" class="clusterblast-cluster"  >
<text x="5" y="120" class="clusterblast-acc"  >
<a xlink:href="https://antismash-db.secondarymetabolites.org/area.html?record=NW_009258200&amp;start=1042600&amp;end=1069564" target="_blank">NW_009258200 (1042600-1069564)</a>: Heterobasidion irregulare TC 32-1 unplaced ge... (23% of genes show similarity), terpene</text>
<line x1="10" y1="135" x2="778.0" y2="135" style="stroke-width:1; stroke:grey; "  />
</g>
<g id="a1_000"  >
<polygon points="29,140 63,140 68,135 63,130 29,130 29,140 " style="fill:white; stroke-width:1; stroke:black; " description="&lt;b&gt;HETIRDRAFT_316372&lt;/b&gt;&lt;br&gt;hypothetical protein&lt;br&gt;Location: 1069564 - 1068094" locus_tag="HETIRDRAFT_316372" class="clusterblast-orf" id="general-1_all_1_2_0"  />
</g>
<g id="a1_001"  >
<polygon points="73,140 100,140 105,135 100,130 73,130 73,140 " style="fill:white; stroke-width:1; stroke:black; " description="&lt;b&gt;HETIRDRAFT_240137&lt;/b&gt;&lt;br&gt;hypothetical protein&lt;br&gt;Location: 1067925 - 1066704" locus_tag="HETIRDRAFT_240137" class="clusterblast-orf" id="general-1_all_1_2_1"  />
</g>
<g id="a1_002"  >
<polygon points="135,135 140,130 148,130 148,140 140,140 135,135 " style="fill:white; stroke-width:1; stroke:black; " description="&lt;b&gt;HETIRDRAFT_247841&lt;/b&gt;&lt;br&gt;hypothetical protein&lt;br&gt;Location: 1065605 - 1065116" locus_tag="HETIRDRAFT_247841" class="clusterblast-orf" id="general-1_all_1_2_2"  />
</g>
<g id="a1_003"  >
<polygon points="173,135 178,130 178,130 178,140 178,140 173,135 " style="fill:white; stroke-width:1; stroke:black; " description="&lt;b&gt;HETIRDRAFT_408876&lt;/b&gt;&lt;br&gt;hypothetical protein&lt;br&gt;Location: 1064167 - 1063972" locus_tag="HETIRDRAFT_408876" class="clusterblast-orf" id="general-1_all_1_2_3"  />
</g>
<g id="a1_004"  >
<polygon points="181,140 209,140 214,135 209,130 181,130 181,140 " style="fill:#d81515; stroke-width:1; stroke:black; " description="&lt;b&gt;HETIRDRAFT_382802&lt;/b&gt;&lt;br&gt;hypothetical protein&lt;br&gt;Location: 1063884 - 1062649&lt;br&gt;&lt;br&gt;&lt;b&gt;BlastP hit with CopciAB_443805.T0&lt;/b&gt;&lt;br&gt;Percentage identity: 53&lt;br&gt;Percentage coverage: 85&lt;br&gt;BLAST bit score: 375&lt;br&gt;E-value: 2.01e-127" locus_tag="HETIRDRAFT_382802" class="clusterblast-orf" id="general-1_all_1_2_4"  />
</g>
<g id="a1_005"  >
<polygon points="236,135 241,130 241,130 241,140 241,140 236,135 " style="fill:white; stroke-width:1; stroke:black; " description="&lt;b&gt;HETIRDRAFT_439474&lt;/b&gt;&lt;br&gt;hypothetical protein&lt;br&gt;Location: 1061814 - 1061620" locus_tag="HETIRDRAFT_439474" class="clusterblast-orf" id="general-1_all_1_2_5"  />
</g>
<g id="a1_006"  >
<polygon points="245,135 250,130 274,130 274,140 250,140 245,135 " style="fill:#b115d8; stroke-width:1; stroke:black; " description="&lt;b&gt;HETIRDRAFT_450525&lt;/b&gt;&lt;br&gt;hypothetical protein&lt;br&gt;Location: 1061495 - 1060391&lt;br&gt;&lt;br&gt;&lt;b&gt;BlastP hit with CopciAB_362485.T0&lt;/b&gt;&lt;br&gt;Percentage identity: 76&lt;br&gt;Percentage coverage: 93&lt;br&gt;BLAST bit score: 152&lt;br&gt;E-value: 6.64e-44" locus_tag="HETIRDRAFT_450525" class="clusterblast-orf" id="general-1_all_1_2_6"  />
</g>
<g id="a1_007"  >
<polygon points="316,140 332,140 337,135 332,130 316,130 316,140 " style="fill:white; stroke-width:1; stroke:black; " description="&lt;b&gt;HETIRDRAFT_439473&lt;/b&gt;&lt;br&gt;hypothetical protein&lt;br&gt;Location: 1058821 - 1058057" locus_tag="HETIRDRAFT_439473" class="clusterblast-orf" id="general-1_all_1_2_7"  />
</g>
<g id="a1_008"  >
<polygon points="360,140 407,140 412,135 407,130 360,130 360,140 " style="fill:white; stroke-width:1; stroke:black; " description="&lt;b&gt;HETIRDRAFT_106953&lt;/b&gt;&lt;br&gt;hypothetical protein&lt;br&gt;Location: 1057168 - 1055246" locus_tag="HETIRDRAFT_106953" class="clusterblast-orf" id="general-1_all_1_2_8"  />
</g>
<g id="a1_009"  >
<polygon points="421,140 434,140 439,135 434,130 421,130 421,140 " style="fill:white; stroke-width:1; stroke:black; " description="&lt;b&gt;HETIRDRAFT_316683&lt;/b&gt;&lt;br&gt;hypothetical protein&lt;br&gt;Location: 1054898 - 1054239" locus_tag="HETIRDRAFT_316683" class="clusterblast-orf" id="general-1_all_1_2_9"  />
</g>
<g id="a1_0010"  >
<polygon points="489,135 494,130 520,130 520,140 494,140 489,135 " style="fill:#d81515; stroke-width:1; stroke:black; " description="&lt;b&gt;HETIRDRAFT_458479&lt;/b&gt;&lt;br&gt;hypothetical protein&lt;br&gt;Location: 1052352 - 1051220&lt;br&gt;&lt;br&gt;&lt;b&gt;BlastP hit with CopciAB_443805.T0&lt;/b&gt;&lt;br&gt;Percentage identity: 52&lt;br&gt;Percentage coverage: 85&lt;br&gt;BLAST bit score: 357&lt;br&gt;E-value: 2.33e-120" locus_tag="HETIRDRAFT_458479" class="clusterblast-orf" id="general-1_all_1_2_10"  />
</g>
<g id="a1_0011"  >
<polygon points="529,135 534,130 534,130 534,140 534,140 529,135 " style="fill:white; stroke-width:1; stroke:black; " description="&lt;b&gt;HETIRDRAFT_163186&lt;/b&gt;&lt;br&gt;hypothetical protein&lt;br&gt;Location: 1050871 - 1050689" locus_tag="HETIRDRAFT_163186" class="clusterblast-orf" id="general-1_all_1_2_11"  />
</g>
<g id="a1_0012"  >
<polygon points="536,135 541,130 544,130 544,140 541,140 536,135 " style="fill:white; stroke-width:1; stroke:black; " description="&lt;b&gt;HETIRDRAFT_163185&lt;/b&gt;&lt;br&gt;hypothetical protein&lt;br&gt;Location: 1050602 - 1050298" locus_tag="HETIRDRAFT_163185" class="clusterblast-orf" id="general-1_all_1_2_12"  />
</g>
<g id="a1_0013"  >
<polygon points="565,135 570,130 603,130 603,140 570,140 565,135 " style="fill:white; stroke-width:1; stroke:black; " description="&lt;b&gt;HETIRDRAFT_54691&lt;/b&gt;&lt;br&gt;hypothetical protein&lt;br&gt;Location: 1049525 - 1048114" locus_tag="HETIRDRAFT_54691" class="clusterblast-orf" id="general-1_all_1_2_13"  />
</g>
<g id="a1_0014"  >
<polygon points="609,140 662,140 667,135 662,130 609,130 609,140 " style="fill:#b1d815; stroke-width:1; stroke:black; " description="&lt;b&gt;HETIRDRAFT_382796&lt;/b&gt;&lt;br&gt;hypothetical protein&lt;br&gt;Location: 1047869 - 1045692&lt;br&gt;&lt;br&gt;&lt;b&gt;BlastP hit with CopciAB_519105.T0&lt;/b&gt;&lt;br&gt;Percentage identity: 71&lt;br&gt;Percentage coverage: 98&lt;br&gt;BLAST bit score: 644&lt;br&gt;E-value: 5.4e-230" locus_tag="HETIRDRAFT_382796" class="clusterblast-orf" id="general-1_all_1_2_14"  />
</g>
<g id="a1_0015"  >
<polygon points="705,135 710,130 729,130 729,140 710,140 705,135 " style="fill:white; stroke-width:1; stroke:black; " description="&lt;b&gt;HETIRDRAFT_315871&lt;/b&gt;&lt;br&gt;hypothetical protein&lt;br&gt;Location: 1044306 - 1043382" locus_tag="HETIRDRAFT_315871" class="clusterblast-orf" id="general-1_all_1_2_15"  />
</g>
<g id="a1_0016"  >
<polygon points="743,140 745,140 750,135 745,130 743,130 743,140 " style="fill:white; stroke-width:1; stroke:black; " description="&lt;b&gt;HETIRDRAFT_157091&lt;/b&gt;&lt;br&gt;hypothetical protein&lt;br&gt;Location: 1042855 - 1042601" locus_tag="HETIRDRAFT_157091" class="clusterblast-orf" id="general-1_all_1_2_16"  />
</g>
</svg>
