<svg xmlns="http://www.w3.org/2000/svg" xmlns:xlink="http://www.w3.org/1999/xlink" version="1.1" x="0" y="0" height="230" width="800" viewBox="0 0 800 230" preserveAspectRatio="none"  >
<g label="Query sequence" class="clusterblast-cluster"  >
<text x="5" y="20" class="clusterblast-acc"  >
Query sequence</text>
<line x1="10" y1="35" x2="778.0" y2="35" style="stroke-width:1; stroke:grey; "  />
<polygon points="28,40 38,40 43,35 38,30 28,30 28,40 " style="fill:white; stroke-width:1; stroke:black; " description="&lt;b&gt;CopciAB_371128.T0&lt;/b&gt;&lt;br&gt;CopciAB 371128.T0&lt;br&gt;Location: 421853 - 423203" locus_tag="CopciAB_371128.T0" class="clusterblast-orf" id="dummy-1_q0_0_all"  />
<polygon points="51,40 80,40 85,35 80,30 51,30 51,40 " style="fill:white; stroke-width:1; stroke:black; " description="&lt;b&gt;CopciAB_15443.T0&lt;/b&gt;&lt;br&gt;CopciAB 15443.T0&lt;br&gt;Location: 423953 - 426878" locus_tag="CopciAB_15443.T0" class="clusterblast-orf" id="dummy-1_q1_0_all"  />
<polygon points="89,40 139,40 144,35 139,30 89,30 89,40 " style="fill:white; stroke-width:1; stroke:black; " description="&lt;b&gt;CopciAB_371141.T0&lt;/b&gt;&lt;br&gt;CopciAB 371141.T0&lt;br&gt;Location: 427240 - 432121" locus_tag="CopciAB_371141.T0" class="clusterblast-orf" id="dummy-1_q2_0_all"  />
<polygon points="157,40 160,40 165,35 160,30 157,30 157,40 " style="fill:white; stroke-width:1; stroke:black; " description="&lt;b&gt;CopciAB_499066.T0&lt;/b&gt;&lt;br&gt;CopciAB 499066.T0&lt;br&gt;Location: 433289 - 433957" locus_tag="CopciAB_499066.T0" class="clusterblast-orf" id="dummy-1_q3_0_all"  />
<polygon points="171,40 192,40 197,35 192,30 171,30 171,40 " style="fill:white; stroke-width:1; stroke:black; " description="&lt;b&gt;CopciAB_462172.T0&lt;/b&gt;&lt;br&gt;CopciAB 462172.T0&lt;br&gt;Location: 434519 - 436842" locus_tag="CopciAB_462172.T0" class="clusterblast-orf" id="dummy-1_q4_0_all"  />
<polygon points="211,35 216,30 223,30 223,40 216,40 211,35 " style="fill:white; stroke-width:1; stroke:black; " description="&lt;b&gt;CopciAB_371191.T0&lt;/b&gt;&lt;br&gt;CopciAB 371191.T0&lt;br&gt;Location: 438018 - 439147" locus_tag="CopciAB_371191.T0" class="clusterblast-orf" id="dummy-1_q5_0_all"  />
<polygon points="214,35 215,30 215,40 214,35 " style="fill:white; stroke-width:1; stroke:black; " description="&lt;b&gt;CopciAB_371191.T1&lt;/b&gt;&lt;br&gt;CopciAB 371191.T1&lt;br&gt;Location: 438368 - 438422" locus_tag="CopciAB_371191.T1" class="clusterblast-orf" id="dummy-1_q6_0_all"  />
<polygon points="224,35 229,30 229,30 229,40 229,40 224,35 " style="fill:white; stroke-width:1; stroke:black; " description="&lt;b&gt;CopciAB_371135.T0&lt;/b&gt;&lt;br&gt;CopciAB 371135.T0&lt;br&gt;Location: 439214 - 439628" locus_tag="CopciAB_371135.T0" class="clusterblast-orf" id="dummy-1_q7_0_all"  />
<polygon points="242,35 245,30 245,40 242,35 " style="fill:white; stroke-width:1; stroke:black; " description="&lt;b&gt;CopciAB_1002281.T0&lt;/b&gt;&lt;br&gt;CopciAB 1002281.T0&lt;br&gt;Location: 440768 - 441083" locus_tag="CopciAB_1002281.T0" class="clusterblast-orf" id="dummy-1_q8_0_all"  />
<polygon points="260,40 284,40 289,35 284,30 260,30 260,40 " style="fill:white; stroke-width:1; stroke:black; " description="&lt;b&gt;CopciAB_1002282.T0&lt;/b&gt;&lt;br&gt;CopciAB 1002282.T0&lt;br&gt;Location: 442404 - 444945" locus_tag="CopciAB_1002282.T0" class="clusterblast-orf" id="dummy-1_q9_0_all"  />
<polygon points="300,40 320,40 325,35 320,30 300,30 300,40 " style="fill:white; stroke-width:1; stroke:black; " description="&lt;b&gt;CopciAB_371185.T0&lt;/b&gt;&lt;br&gt;CopciAB 371185.T0&lt;br&gt;Location: 445952 - 448093" locus_tag="CopciAB_371185.T0" class="clusterblast-orf" id="dummy-1_q10_0_all"  />
<polygon points="330,35 335,30 345,30 345,40 335,40 330,35 " style="fill:#d81515; stroke-width:1; stroke:black; " description="&lt;b&gt;CopciAB_437423.T0&lt;/b&gt;&lt;br&gt;CopciAB 437423.T0&lt;br&gt;Location: 448582 - 449891" locus_tag="CopciAB_437423.T0" class="clusterblast-orf" id="dummy-1_q11_0_all"  />
<polygon points="352,40 440,40 445,35 440,30 352,30 352,40 " style="fill:#15d8d8; stroke-width:1; stroke:black; " description="&lt;b&gt;CopciAB_437425.T0&lt;/b&gt;&lt;br&gt;CopciAB 437425.T0&lt;br&gt;Location: 450566 - 458706" locus_tag="CopciAB_437425.T0" class="clusterblast-orf" id="dummy-1_q12_0_all"  />
<polygon points="454,35 459,30 461,30 461,40 459,40 454,35 " style="fill:white; stroke-width:1; stroke:black; " description="&lt;b&gt;CopciAB_1002283.T0&lt;/b&gt;&lt;br&gt;CopciAB 1002283.T0&lt;br&gt;Location: 459534 - 460198" locus_tag="CopciAB_1002283.T0" class="clusterblast-orf" id="dummy-1_q13_0_all"  />
<polygon points="516,35 521,30 525,30 525,40 521,40 516,35 " style="fill:white; stroke-width:1; stroke:black; " description="&lt;b&gt;CopciAB_1002284.T0&lt;/b&gt;&lt;br&gt;CopciAB 1002284.T0&lt;br&gt;Location: 464996 - 465772" locus_tag="CopciAB_1002284.T0" class="clusterblast-orf" id="dummy-1_q14_0_all"  />
<polygon points="587,35 592,30 600,30 600,40 592,40 587,35 " style="fill:white; stroke-width:1; stroke:black; " description="&lt;b&gt;CopciAB_1002285.T0&lt;/b&gt;&lt;br&gt;CopciAB 1002285.T0&lt;br&gt;Location: 471290 - 472430" locus_tag="CopciAB_1002285.T0" class="clusterblast-orf" id="dummy-1_q15_0_all"  />
<polygon points="610,40 619,40 624,35 619,30 610,30 610,40 " style="fill:white; stroke-width:1; stroke:black; " description="&lt;b&gt;CopciAB_532638.T0&lt;/b&gt;&lt;br&gt;CopciAB 532638.T0&lt;br&gt;Location: 473318 - 474574" locus_tag="CopciAB_532638.T0" class="clusterblast-orf" id="dummy-1_q16_0_all"  />
<polygon points="638,40 672,40 677,35 672,30 638,30 638,40 " style="fill:white; stroke-width:1; stroke:black; " description="&lt;b&gt;CopciAB_444333.T0&lt;/b&gt;&lt;br&gt;CopciAB 444333.T0&lt;br&gt;Location: 475843 - 479279" locus_tag="CopciAB_444333.T0" class="clusterblast-orf" id="dummy-1_q17_0_all"  />
<polygon points="678,35 683,30 693,30 693,40 683,40 678,35 " style="fill:white; stroke-width:1; stroke:black; " description="&lt;b&gt;CopciAB_444334.T0&lt;/b&gt;&lt;br&gt;CopciAB 444334.T0&lt;br&gt;Location: 479365 - 480691" locus_tag="CopciAB_444334.T0" class="clusterblast-orf" id="dummy-1_q18_0_all"  />
<polygon points="699,35 704,30 752,30 752,40 704,40 699,35 " style="fill:white; stroke-width:1; stroke:black; " description="&lt;b&gt;CopciAB_444335.T0&lt;/b&gt;&lt;br&gt;CopciAB 444335.T0&lt;br&gt;Location: 481168 - 485844" locus_tag="CopciAB_444335.T0" class="clusterblast-orf" id="dummy-1_q19_0_all"  />
</g>
<g label="NZ_CP034550" description="NZ_CP034550 (4269046-4337996): Saccharothrix syringae strain NRRL B-16468 chr... (5% of genes show similarity), T1PKS" class="clusterblast-cluster"  >
<text x="5" y="70" class="clusterblast-acc"  >
<a xlink:href="https://antismash-db.secondarymetabolites.org/area.html?record=NZ_CP034550&amp;start=4269046&amp;end=4337996" target="_blank">NZ_CP034550 (4269046-4337996)</a>: Saccharothrix syringae strain NRRL B-16468 chr... (5% of genes show similarity), T1PKS</text>
<line x1="10" y1="85" x2="778.0" y2="85" style="stroke-width:1; stroke:grey; "  />
</g>
<g id="a1_000"  >
<polygon points="0,85 3,80 3,90 0,85 " style="fill:white; stroke-width:1; stroke:black; " description="&lt;b&gt;EKG83_RS18910&lt;/b&gt;&lt;br&gt;DUF3040 domain-containing protein&lt;br&gt;Location: 4337996 - 4337703" locus_tag="EKG83_RS18910" class="clusterblast-orf" id="dummy-1_h1_8_0"  />
</g>
<g id="a1_001"  >
<polygon points="4,85 9,80 30,80 30,90 9,90 4,85 " style="fill:white; stroke-width:1; stroke:black; " description="&lt;b&gt;EKG83_RS18905&lt;/b&gt;&lt;br&gt;SpoIIE family protein phosphatase&lt;br&gt;Location: 4337584 - 4335320" locus_tag="EKG83_RS18905" class="clusterblast-orf" id="dummy-1_h1_8_1"  />
</g>
<g id="a1_002"  >
<polygon points="32,85 37,80 37,80 37,90 37,90 32,85 " style="fill:white; stroke-width:1; stroke:black; " description="&lt;b&gt;EKG83_RS18900&lt;/b&gt;&lt;br&gt;Hsp20/alpha crystallin family protein&lt;br&gt;Location: 4335154 - 4334723" locus_tag="EKG83_RS18900" class="clusterblast-orf" id="dummy-1_h1_8_2"  />
</g>
<g id="a1_003"  >
<polygon points="38,90 44,90 49,85 44,80 38,80 38,90 " style="fill:white; stroke-width:1; stroke:black; " description="&lt;b&gt;EKG83_RS18895&lt;/b&gt;&lt;br&gt;PrsW family intramembrane metalloprotease&lt;br&gt;Location: 4334561 - 4333638" locus_tag="EKG83_RS18895" class="clusterblast-orf" id="dummy-1_h1_8_3"  />
</g>
<g id="a1_004"  >
<polygon points="50,90 50,90 55,85 50,80 50,80 50,90 " style="fill:white; stroke-width:1; stroke:black; " description="&lt;b&gt;EKG83_RS18890&lt;/b&gt;&lt;br&gt;hypothetical protein&lt;br&gt;Location: 4333529 - 4333077" locus_tag="EKG83_RS18890" class="clusterblast-orf" id="dummy-1_h1_8_4"  />
</g>
<g id="a1_005"  >
<polygon points="57,90 64,90 69,85 64,80 57,80 57,90 " style="fill:white; stroke-width:1; stroke:black; " description="&lt;b&gt;EKG83_RS18885&lt;/b&gt;&lt;br&gt;mandelate racemase/muconate lactonizing enzyme family protein&lt;br&gt;Location: 4332956 - 4331814" locus_tag="EKG83_RS18885" class="clusterblast-orf" id="dummy-1_h1_8_5"  />
</g>
<g id="a1_006"  >
<polygon points="69,85 74,80 85,80 85,90 74,90 69,85 " style="fill:white; stroke-width:1; stroke:black; " description="&lt;b&gt;EKG83_RS18880&lt;/b&gt;&lt;br&gt;serine hydrolase&lt;br&gt;Location: 4331844 - 4330438" locus_tag="EKG83_RS18880" class="clusterblast-orf" id="dummy-1_h1_8_6"  />
</g>
<g id="a1_007"  >
<polygon points="86,90 96,90 101,85 96,80 86,80 86,90 " style="fill:white; stroke-width:1; stroke:black; " description="&lt;b&gt;EKG83_RS18875&lt;/b&gt;&lt;br&gt;sensor histidine kinase&lt;br&gt;Location: 4330316 - 4329063" locus_tag="EKG83_RS18875" class="clusterblast-orf" id="dummy-1_h1_8_7"  />
</g>
<g id="a1_008"  >
<polygon points="101,90 103,90 108,85 103,80 101,80 101,90 " style="fill:white; stroke-width:1; stroke:black; " description="&lt;b&gt;EKG83_RS18870&lt;/b&gt;&lt;br&gt;response regulator transcription factor&lt;br&gt;Location: 4329066 - 4328413" locus_tag="EKG83_RS18870" class="clusterblast-orf" id="dummy-1_h1_8_8"  />
</g>
<g id="a1_009"  >
<polygon points="108,85 110,80 110,90 108,85 " style="fill:white; stroke-width:1; stroke:black; " description="&lt;b&gt;EKG83_RS18865&lt;/b&gt;&lt;br&gt;transposase&lt;br&gt;Location: 4328369 - 4328199" locus_tag="EKG83_RS18865" class="clusterblast-orf" id="dummy-1_h1_8_9"  />
</g>
<g id="a1_0010"  >
<polygon points="115,85 117,80 117,90 115,85 " style="fill:white; stroke-width:1; stroke:black; " description="&lt;b&gt;EKG83_RS18860&lt;/b&gt;&lt;br&gt;DUF2795 domain-containing protein&lt;br&gt;Location: 4327783 - 4327574" locus_tag="EKG83_RS18860" class="clusterblast-orf" id="dummy-1_h1_8_10"  />
</g>
<g id="a1_0011"  >
<polygon points="118,85 123,80 129,80 129,90 123,90 118,85 " style="fill:white; stroke-width:1; stroke:black; " description="&lt;b&gt;EKG83_RS18855&lt;/b&gt;&lt;br&gt;alpha/beta hydrolase&lt;br&gt;Location: 4327526 - 4326585" locus_tag="EKG83_RS18855" class="clusterblast-orf" id="dummy-1_h1_8_11"  />
</g>
<g id="a1_0012"  >
<polygon points="129,85 132,80 132,90 129,85 " style="fill:white; stroke-width:1; stroke:black; " description="&lt;b&gt;EKG83_RS18850&lt;/b&gt;&lt;br&gt;ferredoxin&lt;br&gt;Location: 4326515 - 4326309" locus_tag="EKG83_RS18850" class="clusterblast-orf" id="dummy-1_h1_8_12"  />
</g>
<g id="a1_0013"  >
<polygon points="132,85 137,80 145,80 145,90 137,90 132,85 " style="fill:white; stroke-width:1; stroke:black; " description="&lt;b&gt;EKG83_RS18845&lt;/b&gt;&lt;br&gt;cytochrome P450&lt;br&gt;Location: 4326309 - 4325110" locus_tag="EKG83_RS18845" class="clusterblast-orf" id="dummy-1_h1_8_13"  />
</g>
<g id="a1_0014"  >
<polygon points="148,90 155,90 160,85 155,80 148,80 148,90 " style="fill:white; stroke-width:1; stroke:black; " description="&lt;b&gt;EKG83_RS18840&lt;/b&gt;&lt;br&gt;LLM class flavin-dependent oxidoreductase&lt;br&gt;Location: 4324911 - 4323850" locus_tag="EKG83_RS18840" class="clusterblast-orf" id="dummy-1_h1_8_14"  />
</g>
<g id="a1_0015"  >
<polygon points="160,90 172,90 177,85 172,80 160,80 160,90 " style="fill:white; stroke-width:1; stroke:black; " description="&lt;b&gt;EKG83_RS18835&lt;/b&gt;&lt;br&gt;hypothetical protein&lt;br&gt;Location: 4323811 - 4322336" locus_tag="EKG83_RS18835" class="clusterblast-orf" id="dummy-1_h1_8_15"  />
</g>
<g id="a1_0016"  >
<polygon points="177,90 183,90 188,85 183,80 177,80 177,90 " style="fill:white; stroke-width:1; stroke:black; " description="&lt;b&gt;EKG83_RS18830&lt;/b&gt;&lt;br&gt;3-oxoacyl-ACP synthase III family protein&lt;br&gt;Location: 4322339 - 4321302" locus_tag="EKG83_RS18830" class="clusterblast-orf" id="dummy-1_h1_8_16"  />
</g>
<g id="a1_0017"  >
<polygon points="190,90 192,90 197,85 192,80 190,80 190,90 " style="fill:white; stroke-width:1; stroke:black; " description="&lt;b&gt;EKG83_RS18825&lt;/b&gt;&lt;br&gt;hypothetical protein&lt;br&gt;Location: 4321182 - 4320535" locus_tag="EKG83_RS18825" class="clusterblast-orf" id="dummy-1_h1_8_17"  />
</g>
<g id="a1_0018"  >
<polygon points="197,90 204,90 209,85 204,80 197,80 197,90 " style="fill:white; stroke-width:1; stroke:black; " description="&lt;b&gt;EKG83_RS18820&lt;/b&gt;&lt;br&gt;alpha/beta hydrolase&lt;br&gt;Location: 4320538 - 4319519" locus_tag="EKG83_RS18820" class="clusterblast-orf" id="dummy-1_h1_8_18"  />
</g>
<g id="a1_0019"  >
<polygon points="210,90 405,90 410,85 405,80 210,80 210,90 " style="fill:#15d8d8; stroke-width:1; stroke:black; " description="&lt;b&gt;EKG83_RS18815&lt;/b&gt;&lt;br&gt;SDR family NAD(P)-dependent oxidoreductase&lt;br&gt;Location: 4319420 - 4301703&lt;br&gt;&lt;br&gt;&lt;b&gt;BlastP hit with CopciAB_437425.T0&lt;/b&gt;&lt;br&gt;Percentage identity: 32&lt;br&gt;Percentage coverage: 48&lt;br&gt;BLAST bit score: 375&lt;br&gt;E-value: 4.64e-102" locus_tag="EKG83_RS18815" class="clusterblast-orf" id="dummy-1_h1_8_19"  />
</g>
<g id="a1_0020"  >
<polygon points="410,90 520,90 525,85 520,80 410,80 410,90 " style="fill:#d81515; stroke-width:1; stroke:black; " description="&lt;b&gt;EKG83_RS18810&lt;/b&gt;&lt;br&gt;type I polyketide synthase&lt;br&gt;Location: 4301682 - 4291573&lt;br&gt;&lt;br&gt;&lt;b&gt;BlastP hit with CopciAB_437423.T0&lt;/b&gt;&lt;br&gt;Percentage identity: 31&lt;br&gt;Percentage coverage: 60&lt;br&gt;BLAST bit score: 62&lt;br&gt;E-value: 3.54e-08" locus_tag="EKG83_RS18810" class="clusterblast-orf" id="dummy-1_h1_8_20"  />
</g>
<g id="a1_0021"  >
<polygon points="525,90 565,90 570,85 565,80 525,80 525,90 " style="fill:white; stroke-width:1; stroke:black; " description="&lt;b&gt;EKG83_RS18805&lt;/b&gt;&lt;br&gt;type I polyketide synthase&lt;br&gt;Location: 4291513 - 4287542" locus_tag="EKG83_RS18805" class="clusterblast-orf" id="dummy-1_h1_8_21"  />
</g>
<g id="a1_0022"  >
<polygon points="571,85 575,80 575,90 571,85 " style="fill:white; stroke-width:1; stroke:black; " description="&lt;b&gt;EKG83_RS18800&lt;/b&gt;&lt;br&gt;hypothetical protein&lt;br&gt;Location: 4287496 - 4287119" locus_tag="EKG83_RS18800" class="clusterblast-orf" id="dummy-1_h1_8_22"  />
</g>
<g id="a1_0023"  >
<polygon points="578,90 585,90 590,85 585,80 578,80 578,90 " style="fill:white; stroke-width:1; stroke:black; " description="&lt;b&gt;EKG83_RS18795&lt;/b&gt;&lt;br&gt;aldo/keto reductase&lt;br&gt;Location: 4286825 - 4285833" locus_tag="EKG83_RS18795" class="clusterblast-orf" id="dummy-1_h1_8_23"  />
</g>
<g id="a1_0024"  >
<polygon points="590,85 595,80 606,80 606,90 595,90 590,85 " style="fill:white; stroke-width:1; stroke:black; " description="&lt;b&gt;EKG83_RS18790&lt;/b&gt;&lt;br&gt;propionyl-CoA carboxylase subunit beta&lt;br&gt;Location: 4285760 - 4284378" locus_tag="EKG83_RS18790" class="clusterblast-orf" id="dummy-1_h1_8_24"  />
</g>
<g id="a1_0025"  >
<polygon points="608,90 634,90 639,85 634,80 608,80 608,90 " style="fill:white; stroke-width:1; stroke:black; " description="&lt;b&gt;EKG83_RS18785&lt;/b&gt;&lt;br&gt;AAA family ATPase&lt;br&gt;Location: 4284246 - 4281505" locus_tag="EKG83_RS18785" class="clusterblast-orf" id="dummy-1_h1_8_25"  />
</g>
<g id="a1_0026"  >
<polygon points="641,85 646,80 649,80 649,90 646,90 641,85 " style="fill:white; stroke-width:1; stroke:black; " description="&lt;b&gt;EKG83_RS18780&lt;/b&gt;&lt;br&gt;AfsR/SARP family transcriptional regulator&lt;br&gt;Location: 4281317 - 4280556" locus_tag="EKG83_RS18780" class="clusterblast-orf" id="dummy-1_h1_8_26"  />
</g>
<g id="a1_0027"  >
<polygon points="651,90 667,90 672,85 667,80 651,80 651,90 " style="fill:white; stroke-width:1; stroke:black; " description="&lt;b&gt;EKG83_RS18775&lt;/b&gt;&lt;br&gt;HAD-IIIC family phosphatase&lt;br&gt;Location: 4280378 - 4278522" locus_tag="EKG83_RS18775" class="clusterblast-orf" id="dummy-1_h1_8_27"  />
</g>
<g id="a1_0028"  >
<polygon points="672,90 675,85 672,80 672,90 " style="fill:white; stroke-width:1; stroke:black; " description="&lt;b&gt;EKG83_RS18770&lt;/b&gt;&lt;br&gt;acyl carrier protein&lt;br&gt;Location: 4278537 - 4278298" locus_tag="EKG83_RS18770" class="clusterblast-orf" id="dummy-1_h1_8_28"  />
</g>
<g id="a1_0029"  >
<polygon points="675,90 676,90 681,85 676,80 675,80 675,90 " style="fill:white; stroke-width:1; stroke:black; " description="&lt;b&gt;EKG83_RS18765&lt;/b&gt;&lt;br&gt;flavin reductase family protein&lt;br&gt;Location: 4278263 - 4277757" locus_tag="EKG83_RS18765" class="clusterblast-orf" id="dummy-1_h1_8_29"  />
</g>
<g id="a1_0030"  >
<polygon points="687,90 690,90 695,85 690,80 687,80 687,90 " style="fill:white; stroke-width:1; stroke:black; " description="&lt;b&gt;EKG83_RS18760&lt;/b&gt;&lt;br&gt;hypothetical protein&lt;br&gt;Location: 4277243 - 4276515" locus_tag="EKG83_RS18760" class="clusterblast-orf" id="dummy-1_h1_8_30"  />
</g>
<g id="a1_0031"  >
<polygon points="695,85 700,80 713,80 713,90 700,90 695,85 " style="fill:white; stroke-width:1; stroke:black; " description="&lt;b&gt;EKG83_RS18755&lt;/b&gt;&lt;br&gt;ABC transporter ATP-binding protein&lt;br&gt;Location: 4276504 - 4274954" locus_tag="EKG83_RS18755" class="clusterblast-orf" id="dummy-1_h1_8_31"  />
</g>
<g id="a1_0032"  >
<polygon points="713,85 718,80 722,80 722,90 718,90 713,85 " style="fill:white; stroke-width:1; stroke:black; " description="&lt;b&gt;EKG83_RS18750&lt;/b&gt;&lt;br&gt;ABC transporter permease&lt;br&gt;Location: 4274957 - 4274121" locus_tag="EKG83_RS18750" class="clusterblast-orf" id="dummy-1_h1_8_32"  />
</g>
<g id="a1_0033"  >
<polygon points="722,85 727,80 732,80 732,90 727,90 722,85 " style="fill:white; stroke-width:1; stroke:black; " description="&lt;b&gt;EKG83_RS18745&lt;/b&gt;&lt;br&gt;ABC transporter permease&lt;br&gt;Location: 4274124 - 4273207" locus_tag="EKG83_RS18745" class="clusterblast-orf" id="dummy-1_h1_8_33"  />
</g>
<g id="a1_0034"  >
<polygon points="733,85 738,80 751,80 751,90 738,90 733,85 " style="fill:white; stroke-width:1; stroke:black; " description="&lt;b&gt;EKG83_RS18740&lt;/b&gt;&lt;br&gt;ABC transporter substrate-binding protein&lt;br&gt;Location: 4273192 - 4271537" locus_tag="EKG83_RS18740" class="clusterblast-orf" id="dummy-1_h1_8_34"  />
</g>
<g id="a1_0035"  >
<polygon points="753,85 758,80 765,80 765,90 758,90 753,85 " style="fill:white; stroke-width:1; stroke:black; " description="&lt;b&gt;EKG83_RS18735&lt;/b&gt;&lt;br&gt;LLM class flavin-dependent oxidoreductase&lt;br&gt;Location: 4271390 - 4270365" locus_tag="EKG83_RS18735" class="clusterblast-orf" id="dummy-1_h1_8_35"  />
</g>
<g id="a1_0036"  >
<polygon points="765,85 770,80 780,80 780,90 770,90 765,85 " style="fill:white; stroke-width:1; stroke:black; " description="&lt;b&gt;EKG83_RS18730&lt;/b&gt;&lt;br&gt;NtaA/DmoA family FMN-dependent monooxygenase&lt;br&gt;Location: 4270363 - 4269047" locus_tag="EKG83_RS18730" class="clusterblast-orf" id="dummy-1_h1_8_36"  />
</g>
</svg>
