<svg xmlns="http://www.w3.org/2000/svg" xmlns:xlink="http://www.w3.org/1999/xlink" version="1.1" x="0" y="0" height="230" width="800" viewBox="0 0 800 230" preserveAspectRatio="none"  >
<g label="Query sequence" class="clusterblast-cluster"  >
<text x="5" y="20" class="clusterblast-acc"  >
Query sequence</text>
<line x1="10" y1="35" x2="778.0" y2="35" style="stroke-width:1; stroke:grey; "  />
<polygon points="0,35 5,30 44,30 44,40 5,40 0,35 " style="fill:white; stroke-width:1; stroke:black; " description="&lt;b&gt;CopciAB_454031.T0&lt;/b&gt;&lt;br&gt;CopciAB 454031.T0&lt;br&gt;Location: 950617 - 954232" locus_tag="CopciAB_454031.T0" class="clusterblast-orf" id="dummy-3_q0_0_all"  />
<polygon points="66,40 71,40 76,35 71,30 66,30 66,40 " style="fill:white; stroke-width:1; stroke:black; " description="&lt;b&gt;CopciAB_391177.T0&lt;/b&gt;&lt;br&gt;CopciAB 391177.T0&lt;br&gt;Location: 956110 - 956875" locus_tag="CopciAB_391177.T0" class="clusterblast-orf" id="dummy-3_q1_0_all"  />
<polygon points="79,35 84,30 91,30 91,40 84,40 79,35 " style="fill:white; stroke-width:1; stroke:black; " description="&lt;b&gt;CopciAB_495078.T0&lt;/b&gt;&lt;br&gt;CopciAB 495078.T0&lt;br&gt;Location: 957103 - 958109" locus_tag="CopciAB_495078.T0" class="clusterblast-orf" id="dummy-3_q2_0_all"  />
<polygon points="94,35 99,30 110,30 110,40 99,40 94,35 " style="fill:white; stroke-width:1; stroke:black; " description="&lt;b&gt;CopciAB_441179.T0&lt;/b&gt;&lt;br&gt;CopciAB 441179.T0&lt;br&gt;Location: 958412 - 959728" locus_tag="CopciAB_441179.T0" class="clusterblast-orf" id="dummy-3_q3_0_all"  />
<polygon points="120,35 125,30 129,30 129,40 125,40 120,35 " style="fill:white; stroke-width:1; stroke:black; " description="&lt;b&gt;CopciAB_441181.T0&lt;/b&gt;&lt;br&gt;CopciAB 441181.T0&lt;br&gt;Location: 960502 - 961247" locus_tag="CopciAB_441181.T0" class="clusterblast-orf" id="dummy-3_q4_0_all"  />
<polygon points="141,40 167,40 172,35 167,30 141,30 141,40 " style="fill:#d81515; stroke-width:1; stroke:black; " description="&lt;b&gt;CopciAB_417341.T0&lt;/b&gt;&lt;br&gt;CopciAB 417341.T0&lt;br&gt;Location: 962262 - 964748" locus_tag="CopciAB_417341.T0" class="clusterblast-orf" id="dummy-3_q5_0_all"  />
<polygon points="177,40 185,40 190,35 185,30 177,30 177,40 " style="fill:#4dd815; stroke-width:1; stroke:black; " description="&lt;b&gt;CopciAB_360850.T0&lt;/b&gt;&lt;br&gt;CopciAB 360850.T0&lt;br&gt;Location: 965222 - 966252" locus_tag="CopciAB_360850.T0" class="clusterblast-orf" id="dummy-3_q6_0_all"  />
<polygon points="200,35 205,30 210,30 210,40 205,40 200,35 " style="fill:white; stroke-width:1; stroke:black; " description="&lt;b&gt;CopciAB_90622.T0&lt;/b&gt;&lt;br&gt;CopciAB 90622.T0&lt;br&gt;Location: 967097 - 967880" locus_tag="CopciAB_90622.T0" class="clusterblast-orf" id="dummy-3_q7_0_all"  />
<polygon points="221,35 226,30 277,30 277,40 226,40 221,35 " style="fill:#1585d8; stroke-width:1; stroke:black; " description="&lt;b&gt;CopciAB_360799.T0&lt;/b&gt;&lt;br&gt;CopciAB 360799.T0&lt;br&gt;Location: 968800 - 973450" locus_tag="CopciAB_360799.T0" class="clusterblast-orf" id="dummy-3_q8_0_all"  />
<polygon points="309,35 314,30 314,30 314,40 314,40 309,35 " style="fill:white; stroke-width:1; stroke:black; " description="&lt;b&gt;CopciAB_1002526.T0&lt;/b&gt;&lt;br&gt;CopciAB 1002526.T0&lt;br&gt;Location: 976072 - 976500" locus_tag="CopciAB_1002526.T0" class="clusterblast-orf" id="dummy-3_q9_0_all"  />
<polygon points="317,40 320,40 325,35 320,30 317,30 317,40 " style="fill:#1585d8; stroke-width:1; stroke:black; " description="&lt;b&gt;CopciAB_441187.T0&lt;/b&gt;&lt;br&gt;CopciAB 441187.T0&lt;br&gt;Location: 976689 - 977368" locus_tag="CopciAB_441187.T0" class="clusterblast-orf" id="dummy-3_q10_0_all"  />
<polygon points="332,40 350,40 355,35 350,30 332,30 332,40 " style="fill:#d815bc; stroke-width:1; stroke:black; " description="&lt;b&gt;CopciAB_90822.T0&lt;/b&gt;&lt;br&gt;CopciAB 90822.T0&lt;br&gt;Location: 977916 - 979803" locus_tag="CopciAB_90822.T0" class="clusterblast-orf" id="dummy-3_q11_0_all"  />
<polygon points="360,35 365,30 418,30 418,40 365,40 360,35 " style="fill:#d8bc15; stroke-width:1; stroke:black; " description="&lt;b&gt;CopciAB_417352.T0&lt;/b&gt;&lt;br&gt;CopciAB 417352.T0&lt;br&gt;Location: 980254 - 984983" locus_tag="CopciAB_417352.T0" class="clusterblast-orf" id="dummy-3_q12_0_all"  />
<polygon points="421,35 426,30 459,30 459,40 426,40 421,35 " style="fill:white; stroke-width:1; stroke:black; " description="&lt;b&gt;CopciAB_454041.T0&lt;/b&gt;&lt;br&gt;CopciAB 454041.T0&lt;br&gt;Location: 985245 - 988386" locus_tag="CopciAB_454041.T0" class="clusterblast-orf" id="dummy-3_q13_0_all"  />
<polygon points="461,40 515,40 520,35 515,30 461,30 461,40 " style="fill:white; stroke-width:1; stroke:black; " description="&lt;b&gt;CopciAB_441190.T0&lt;/b&gt;&lt;br&gt;CopciAB 441190.T0&lt;br&gt;Location: 988541 - 993401" locus_tag="CopciAB_441190.T0" class="clusterblast-orf" id="dummy-3_q14_0_all"  />
<polygon points="527,40 529,40 534,35 529,30 527,30 527,40 " style="fill:white; stroke-width:1; stroke:black; " description="&lt;b&gt;CopciAB_417357.T0&lt;/b&gt;&lt;br&gt;CopciAB 417357.T0&lt;br&gt;Location: 993991 - 994567" locus_tag="CopciAB_417357.T0" class="clusterblast-orf" id="dummy-3_q15_0_all"  />
<polygon points="551,35 556,30 577,30 577,40 556,40 551,35 " style="fill:#15d885; stroke-width:1; stroke:black; " description="&lt;b&gt;CopciAB_90959.T0&lt;/b&gt;&lt;br&gt;CopciAB 90959.T0&lt;br&gt;Location: 995905 - 998090" locus_tag="CopciAB_90959.T0" class="clusterblast-orf" id="dummy-3_q16_0_all"  />
<polygon points="585,35 590,30 593,30 593,40 590,40 585,35 " style="fill:white; stroke-width:1; stroke:black; " description="&lt;b&gt;CopciAB_1002528.T0&lt;/b&gt;&lt;br&gt;CopciAB 1002528.T0&lt;br&gt;Location: 998761 - 999424" locus_tag="CopciAB_1002528.T0" class="clusterblast-orf" id="dummy-3_q17_0_all"  />
<polygon points="601,35 606,30 617,30 617,40 606,40 601,35 " style="fill:white; stroke-width:1; stroke:black; " description="&lt;b&gt;CopciAB_465124.T0&lt;/b&gt;&lt;br&gt;CopciAB 465124.T0&lt;br&gt;Location: 1000061 - 1001390" locus_tag="CopciAB_465124.T0" class="clusterblast-orf" id="dummy-3_q18_0_all"  />
<polygon points="620,40 624,40 629,35 624,30 620,30 620,40 " style="fill:white; stroke-width:1; stroke:black; " description="&lt;b&gt;CopciAB_90982.T0&lt;/b&gt;&lt;br&gt;CopciAB 90982.T0&lt;br&gt;Location: 1001584 - 1002367" locus_tag="CopciAB_90982.T0" class="clusterblast-orf" id="dummy-3_q19_0_all"  />
<polygon points="643,40 659,40 664,35 659,30 643,30 643,40 " style="fill:white; stroke-width:1; stroke:black; " description="&lt;b&gt;CopciAB_90984.T0&lt;/b&gt;&lt;br&gt;CopciAB 90984.T0&lt;br&gt;Location: 1003469 - 1005259" locus_tag="CopciAB_90984.T0" class="clusterblast-orf" id="dummy-3_q20_0_all"  />
<polygon points="669,40 682,40 687,35 682,30 669,30 669,40 " style="fill:white; stroke-width:1; stroke:black; " description="&lt;b&gt;CopciAB_90979.T0&lt;/b&gt;&lt;br&gt;CopciAB 90979.T0&lt;br&gt;Location: 1005646 - 1007108" locus_tag="CopciAB_90979.T0" class="clusterblast-orf" id="dummy-3_q21_0_all"  />
<polygon points="692,40 706,40 711,35 706,30 692,30 692,40 " style="fill:#4d15d8; stroke-width:1; stroke:black; " description="&lt;b&gt;CopciAB_476094.T0&lt;/b&gt;&lt;br&gt;CopciAB 476094.T0&lt;br&gt;Location: 1007537 - 1009136" locus_tag="CopciAB_476094.T0" class="clusterblast-orf" id="dummy-3_q22_0_all"  />
<polygon points="715,35 720,30 761,30 761,40 720,40 715,35 " style="fill:white; stroke-width:1; stroke:black; " description="&lt;b&gt;CopciAB_91028.T0&lt;/b&gt;&lt;br&gt;CopciAB 91028.T0&lt;br&gt;Location: 1009428 - 1013227" locus_tag="CopciAB_91028.T0" class="clusterblast-orf" id="dummy-3_q23_0_all"  />
<polygon points="769,40 775,40 780,35 775,30 769,30 769,40 " style="fill:white; stroke-width:1; stroke:black; " description="&lt;b&gt;CopciAB_441197.T0&lt;/b&gt;&lt;br&gt;CopciAB 441197.T0&lt;br&gt;Location: 1013862 - 1014739" locus_tag="CopciAB_441197.T0" class="clusterblast-orf" id="dummy-3_q24_0_all"  />
</g>
<g label="NW_013185619" description="NW_013185619 (1312093-1337240): Schizosaccharomyces octosporus yFS286 unplace... (14% of genes show similarity), NRPS-like" class="clusterblast-cluster"  >
<text x="5" y="70" class="clusterblast-acc"  >
<a xlink:href="https://antismash-db.secondarymetabolites.org/area.html?record=NW_013185619&amp;start=1312093&amp;end=1337240" target="_blank">NW_013185619 (1312093-1337240)</a>: Schizosaccharomyces octosporus yFS286 unplace... (14% of genes show similarity), NRPS-like</text>
<line x1="10" y1="85" x2="778.0" y2="85" style="stroke-width:1; stroke:grey; "  />
</g>
<g id="a3_000"  >
<polygon points="237,85 242,80 243,80 243,90 242,90 237,85 " style="fill:white; stroke-width:1; stroke:black; " description="&lt;b&gt;SOCG_03149&lt;/b&gt;&lt;br&gt;DUF1761 family protein&lt;br&gt;Location: 1337240 - 1336707" locus_tag="SOCG_03149" class="clusterblast-orf" id="dummy-3_h3_6_0"  />
</g>
<g id="a3_001"  >
<polygon points="252,90 252,90 257,85 252,80 252,80 252,90 " style="fill:#1585d8; stroke-width:1; stroke:black; " description="&lt;b&gt;SOCG_03148&lt;/b&gt;&lt;br&gt;60S ribosomal protein L36/L42&lt;br&gt;Location: 1335994 - 1335552&lt;br&gt;&lt;br&gt;&lt;b&gt;BlastP hit with CopciAB_441187.T0&lt;/b&gt;&lt;br&gt;Percentage identity: 83&lt;br&gt;Percentage coverage: 100&lt;br&gt;BLAST bit score: 181&lt;br&gt;E-value: 3.92e-59" locus_tag="SOCG_03148" class="clusterblast-orf" id="dummy-3_h3_6_1"  />
</g>
<g id="a3_002"  >
<polygon points="262,90 281,90 286,85 281,80 262,80 262,90 " style="fill:white; stroke-width:1; stroke:black; " description="&lt;b&gt;SOCG_03147&lt;/b&gt;&lt;br&gt;thymidylate synthase&lt;br&gt;Location: 1335120 - 1333207" locus_tag="SOCG_03147" class="clusterblast-orf" id="dummy-3_h3_6_2"  />
</g>
<g id="a3_003"  >
<polygon points="287,85 292,80 301,80 301,90 292,90 287,85 " style="fill:white; stroke-width:1; stroke:black; " description="&lt;b&gt;SOCG_03146&lt;/b&gt;&lt;br&gt;ethanolamine-phosphate cytidylyltransferase&lt;br&gt;Location: 1333060 - 1331908" locus_tag="SOCG_03146" class="clusterblast-orf" id="dummy-3_h3_6_3"  />
</g>
<g id="a3_004"  >
<polygon points="305,90 308,90 313,85 308,80 305,80 305,90 " style="fill:white; stroke-width:1; stroke:black; " description="&lt;b&gt;SOCG_03145&lt;/b&gt;&lt;br&gt;retromer complex subunit Vps29&lt;br&gt;Location: 1331581 - 1330939" locus_tag="SOCG_03145" class="clusterblast-orf" id="dummy-3_h3_6_4"  />
</g>
<g id="a3_005"  >
<polygon points="318,85 323,80 325,80 325,90 323,90 318,85 " style="fill:white; stroke-width:1; stroke:black; " description="&lt;b&gt;SOCG_03144&lt;/b&gt;&lt;br&gt;meiotic cohesin complex associated protein Moa1&lt;br&gt;Location: 1330556 - 1330008" locus_tag="SOCG_03144" class="clusterblast-orf" id="dummy-3_h3_6_5"  />
</g>
<g id="a3_006"  >
<polygon points="331,90 336,90 341,85 336,80 331,80 331,90 " style="fill:white; stroke-width:1; stroke:black; " description="&lt;b&gt;SOCG_03143&lt;/b&gt;&lt;br&gt;NatA N-acetyltransferase complex catalytic subunit Ard1&lt;br&gt;Location: 1329516 - 1328644" locus_tag="SOCG_03143" class="clusterblast-orf" id="dummy-3_h3_6_6"  />
</g>
<g id="a3_007"  >
<polygon points="345,90 346,90 351,85 346,80 345,80 345,90 " style="fill:white; stroke-width:1; stroke:black; " description="&lt;b&gt;SOCG_03142&lt;/b&gt;&lt;br&gt;glutaredoxin Grx2&lt;br&gt;Location: 1328328 - 1327798" locus_tag="SOCG_03142" class="clusterblast-orf" id="dummy-3_h3_6_7"  />
</g>
<g id="a3_008"  >
<polygon points="356,90 361,90 366,85 361,80 356,80 356,90 " style="fill:white; stroke-width:1; stroke:black; " description="&lt;b&gt;SOCG_03141&lt;/b&gt;&lt;br&gt;PI31 proteasome regulator&lt;br&gt;Location: 1327406 - 1326588" locus_tag="SOCG_03141" class="clusterblast-orf" id="dummy-3_h3_6_8"  />
</g>
<g id="a3_009"  >
<polygon points="370,85 375,80 392,80 392,90 375,90 370,85 " style="fill:white; stroke-width:1; stroke:black; " description="&lt;b&gt;SOCG_03140&lt;/b&gt;&lt;br&gt;GMP synthase&lt;br&gt;Location: 1326302 - 1324500" locus_tag="SOCG_03140" class="clusterblast-orf" id="dummy-3_h3_6_9"  />
</g>
<g id="a3_0010"  >
<polygon points="407,90 428,90 433,85 428,80 407,80 407,90 " style="fill:white; stroke-width:1; stroke:black; " description="&lt;b&gt;SOCG_03139&lt;/b&gt;&lt;br&gt;conjugation protein&lt;br&gt;Location: 1323229 - 1321089" locus_tag="SOCG_03139" class="clusterblast-orf" id="dummy-3_h3_6_10"  />
</g>
<g id="a3_0011"  >
<polygon points="434,85 439,80 485,80 485,90 439,90 434,85 " style="fill:#d8bc15; stroke-width:1; stroke:black; " description="&lt;b&gt;SOCG_03138&lt;/b&gt;&lt;br&gt;aminoadipate-semialdehyde dehydrogenase&lt;br&gt;Location: 1321035 - 1316779&lt;br&gt;&lt;br&gt;&lt;b&gt;BlastP hit with CopciAB_417352.T0&lt;/b&gt;&lt;br&gt;Percentage identity: 48&lt;br&gt;Percentage coverage: 99&lt;br&gt;BLAST bit score: 1276&lt;br&gt;E-value: 0.0" locus_tag="SOCG_03138" class="clusterblast-orf" id="dummy-3_h3_6_11"  />
</g>
<g id="a3_0012"  >
<polygon points="492,90 495,90 500,85 495,80 492,80 492,90 " style="fill:white; stroke-width:1; stroke:black; " description="&lt;b&gt;SOCG_03137&lt;/b&gt;&lt;br&gt;60S ribosomal protein L10&lt;br&gt;Location: 1316210 - 1315545" locus_tag="SOCG_03137" class="clusterblast-orf" id="dummy-3_h3_6_12"  />
</g>
<g id="a3_0013"  >
<polygon points="521,90 537,90 542,85 537,80 521,80 521,90 " style="fill:white; stroke-width:1; stroke:black; " description="&lt;b&gt;SOCG_03136&lt;/b&gt;&lt;br&gt;hypothetical protein&lt;br&gt;Location: 1313827 - 1312094" locus_tag="SOCG_03136" class="clusterblast-orf" id="dummy-3_h3_6_13"  />
</g>
</svg>
