<svg xmlns="http://www.w3.org/2000/svg" xmlns:xlink="http://www.w3.org/1999/xlink" version="1.1" x="0" y="0" height="230" width="800" viewBox="0 0 800 230" preserveAspectRatio="none"  >
<g label="Query sequence" class="clusterblast-cluster"  >
<text x="5" y="20" class="clusterblast-acc"  >
Query sequence</text>
<line x1="10" y1="35" x2="778.0" y2="35" style="stroke-width:1; stroke:grey; "  />
<polygon points="0,40 54,40 59,35 54,30 0,30 0,40 " style="fill:white; stroke-width:1; stroke:black; " description="&lt;b&gt;CopciAB_485193.T0&lt;/b&gt;&lt;br&gt;CopciAB 485193.T0&lt;br&gt;Location: 1414810 - 1416979" locus_tag="CopciAB_485193.T0" class="clusterblast-orf" id="dummy-3_q0_0_all"  />
<polygon points="71,40 92,40 97,35 92,30 71,30 71,40 " style="fill:white; stroke-width:1; stroke:black; " description="&lt;b&gt;CopciAB_452092.T0&lt;/b&gt;&lt;br&gt;CopciAB 452092.T0&lt;br&gt;Location: 1417417 - 1418394" locus_tag="CopciAB_452092.T0" class="clusterblast-orf" id="dummy-3_q1_0_all"  />
<polygon points="110,35 115,30 140,30 140,40 115,40 110,35 " style="fill:#d81515; stroke-width:1; stroke:black; " description="&lt;b&gt;CopciAB_462760.T0&lt;/b&gt;&lt;br&gt;CopciAB 462760.T0&lt;br&gt;Location: 1418847 - 1419955" locus_tag="CopciAB_462760.T0" class="clusterblast-orf" id="dummy-3_q2_0_all"  />
<polygon points="163,35 168,30 193,30 193,40 168,40 163,35 " style="fill:#15d815; stroke-width:1; stroke:black; " description="&lt;b&gt;CopciAB_438130.T0&lt;/b&gt;&lt;br&gt;CopciAB 438130.T0&lt;br&gt;Location: 1420793 - 1421920" locus_tag="CopciAB_438130.T0" class="clusterblast-orf" id="dummy-3_q3_0_all"  />
<polygon points="208,35 213,30 245,30 245,40 213,40 208,35 " style="fill:#1597d8; stroke-width:1; stroke:black; " description="&lt;b&gt;CopciAB_438131.T0&lt;/b&gt;&lt;br&gt;CopciAB 438131.T0&lt;br&gt;Location: 1422451 - 1423833" locus_tag="CopciAB_438131.T0" class="clusterblast-orf" id="dummy-3_q4_0_all"  />
<polygon points="250,40 270,40 275,35 270,30 250,30 250,40 " style="fill:#9715d8; stroke-width:1; stroke:black; " description="&lt;b&gt;CopciAB_30507.T0&lt;/b&gt;&lt;br&gt;CopciAB 30507.T0&lt;br&gt;Location: 1424014 - 1424912" locus_tag="CopciAB_30507.T0" class="clusterblast-orf" id="dummy-3_q5_0_all"  />
<polygon points="297,40 307,40 312,35 307,30 297,30 297,40 " style="fill:white; stroke-width:1; stroke:black; " description="&lt;b&gt;CopciAB_1000673.T0&lt;/b&gt;&lt;br&gt;CopciAB 1000673.T0&lt;br&gt;Location: 1425727 - 1426280" locus_tag="CopciAB_1000673.T0" class="clusterblast-orf" id="dummy-3_q6_0_all"  />
<polygon points="315,40 340,40 345,35 340,30 315,30 315,40 " style="fill:white; stroke-width:1; stroke:black; " description="&lt;b&gt;CopciAB_1000674.T0&lt;/b&gt;&lt;br&gt;CopciAB 1000674.T0&lt;br&gt;Location: 1426398 - 1427484" locus_tag="CopciAB_1000674.T0" class="clusterblast-orf" id="dummy-3_q7_0_all"  />
<polygon points="354,40 384,40 389,35 384,30 354,30 354,40 " style="fill:#d89715; stroke-width:1; stroke:black; " description="&lt;b&gt;CopciAB_30510.T0&lt;/b&gt;&lt;br&gt;CopciAB 30510.T0&lt;br&gt;Location: 1427831 - 1429089" locus_tag="CopciAB_30510.T0" class="clusterblast-orf" id="dummy-3_q8_0_all"  />
<polygon points="415,35 420,30 513,30 513,40 420,40 415,35 " style="fill:#15d897; stroke-width:1; stroke:black; " description="&lt;b&gt;CopciAB_358591.T0&lt;/b&gt;&lt;br&gt;CopciAB 358591.T0&lt;br&gt;Location: 1430058 - 1433651" locus_tag="CopciAB_358591.T0" class="clusterblast-orf" id="dummy-3_q9_0_all"  />
<polygon points="519,40 532,40 537,35 532,30 519,30 519,40 " style="fill:#1515d8; stroke-width:1; stroke:black; " description="&lt;b&gt;CopciAB_438138.T0&lt;/b&gt;&lt;br&gt;CopciAB 438138.T0&lt;br&gt;Location: 1433887 - 1434547" locus_tag="CopciAB_438138.T0" class="clusterblast-orf" id="dummy-3_q10_0_all"  />
<polygon points="550,40 593,40 598,35 593,30 550,30 550,40 " style="fill:#d81597; stroke-width:1; stroke:black; " description="&lt;b&gt;CopciAB_485202.T0&lt;/b&gt;&lt;br&gt;CopciAB 485202.T0&lt;br&gt;Location: 1435028 - 1436789" locus_tag="CopciAB_485202.T0" class="clusterblast-orf" id="dummy-3_q11_0_all"  />
<polygon points="614,35 619,30 780,30 780,40 619,40 614,35 " style="fill:#97d815; stroke-width:1; stroke:black; " description="&lt;b&gt;CopciAB_358738.T0&lt;/b&gt;&lt;br&gt;CopciAB 358738.T0&lt;br&gt;Location: 1437350 - 1443453" locus_tag="CopciAB_358738.T0" class="clusterblast-orf" id="dummy-3_q12_0_all"  />
</g>
<g label="NW_009258200" description="NW_009258200 (1333427-1354547): Heterobasidion irregulare TC 32-1 unplaced ge... (70% of genes show similarity), terpene" class="clusterblast-cluster"  >
<text x="5" y="70" class="clusterblast-acc"  >
<a xlink:href="https://antismash-db.secondarymetabolites.org/area.html?record=NW_009258200&amp;start=1333427&amp;end=1354547" target="_blank">NW_009258200 (1333427-1354547)</a>: Heterobasidion irregulare TC 32-1 unplaced ge... (70% of genes show similarity), terpene</text>
<line x1="10" y1="85" x2="778.0" y2="85" style="stroke-width:1; stroke:grey; "  />
</g>
<g id="a3_000"  >
<polygon points="124,85 129,80 157,80 157,90 129,90 124,85 " style="fill:white; stroke-width:1; stroke:black; " description="&lt;b&gt;HETIRDRAFT_315489&lt;/b&gt;&lt;br&gt;hypothetical protein&lt;br&gt;Location: 1334743 - 1335954" locus_tag="HETIRDRAFT_315489" class="clusterblast-orf" id="dummy-3_h3_2_0"  />
</g>
<g id="a3_001"  >
<polygon points="170,90 175,90 180,85 175,80 170,80 170,90 " style="fill:white; stroke-width:1; stroke:black; " description="&lt;b&gt;HETIRDRAFT_450583&lt;/b&gt;&lt;br&gt;hypothetical protein&lt;br&gt;Location: 1336420 - 1336801" locus_tag="HETIRDRAFT_450583" class="clusterblast-orf" id="dummy-3_h3_2_1"  />
</g>
<g id="a3_002"  >
<polygon points="186,85 191,80 220,80 220,90 191,90 186,85 " style="fill:#15d815; stroke-width:1; stroke:black; " description="&lt;b&gt;HETIRDRAFT_107017&lt;/b&gt;&lt;br&gt;hypothetical protein&lt;br&gt;Location: 1337021 - 1338254&lt;br&gt;&lt;br&gt;&lt;b&gt;BlastP hit with CopciAB_438130.T0&lt;/b&gt;&lt;br&gt;Percentage identity: 51&lt;br&gt;Percentage coverage: 85&lt;br&gt;BLAST bit score: 207&lt;br&gt;E-value: 6.56e-65" locus_tag="HETIRDRAFT_107017" class="clusterblast-orf" id="dummy-3_h3_2_2"  />
</g>
<g id="a3_003"  >
<polygon points="226,85 231,80 247,80 247,90 231,90 226,85 " style="fill:#1597d8; stroke-width:1; stroke:black; " description="&lt;b&gt;HETIRDRAFT_450585&lt;/b&gt;&lt;br&gt;hypothetical protein&lt;br&gt;Location: 1338463 - 1339256&lt;br&gt;&lt;br&gt;&lt;b&gt;BlastP hit with CopciAB_438131.T0&lt;/b&gt;&lt;br&gt;Percentage identity: 59&lt;br&gt;Percentage coverage: 61&lt;br&gt;BLAST bit score: 315&lt;br&gt;E-value: 3.79e-105" locus_tag="HETIRDRAFT_450585" class="clusterblast-orf" id="dummy-3_h3_2_3"  />
</g>
<g id="a3_004"  >
<polygon points="265,90 285,90 290,85 285,80 265,80 265,90 " style="fill:#9715d8; stroke-width:1; stroke:black; " description="&lt;b&gt;HETIRDRAFT_315674&lt;/b&gt;&lt;br&gt;hypothetical protein&lt;br&gt;Location: 1339923 - 1340826&lt;br&gt;&lt;br&gt;&lt;b&gt;BlastP hit with CopciAB_30507.T0&lt;/b&gt;&lt;br&gt;Percentage identity: 74&lt;br&gt;Percentage coverage: 100&lt;br&gt;BLAST bit score: 315&lt;br&gt;E-value: 1.35e-108" locus_tag="HETIRDRAFT_315674" class="clusterblast-orf" id="dummy-3_h3_2_4"  />
</g>
<g id="a3_005"  >
<polygon points="361,90 386,90 391,85 386,80 361,80 361,90 " style="fill:#d89715; stroke-width:1; stroke:black; " description="&lt;b&gt;HETIRDRAFT_382866&lt;/b&gt;&lt;br&gt;hypothetical protein&lt;br&gt;Location: 1343428 - 1344547&lt;br&gt;&lt;br&gt;&lt;b&gt;BlastP hit with CopciAB_30510.T0&lt;/b&gt;&lt;br&gt;Percentage identity: 60&lt;br&gt;Percentage coverage: 94&lt;br&gt;BLAST bit score: 395&lt;br&gt;E-value: 2.44e-136" locus_tag="HETIRDRAFT_382866" class="clusterblast-orf" id="dummy-3_h3_2_5"  />
</g>
<g id="a3_006"  >
<polygon points="408,85 413,80 503,80 503,90 413,90 408,85 " style="fill:#15d897; stroke-width:1; stroke:black; " description="&lt;b&gt;HETIRDRAFT_439505&lt;/b&gt;&lt;br&gt;hypothetical protein&lt;br&gt;Location: 1345147 - 1348666&lt;br&gt;&lt;br&gt;&lt;b&gt;BlastP hit with CopciAB_358591.T0&lt;/b&gt;&lt;br&gt;Percentage identity: 66&lt;br&gt;Percentage coverage: 101&lt;br&gt;BLAST bit score: 1162&lt;br&gt;E-value: 0.0" locus_tag="HETIRDRAFT_439505" class="clusterblast-orf" id="dummy-3_h3_2_6"  />
</g>
<g id="a3_007"  >
<polygon points="510,90 524,90 529,85 524,80 510,80 510,90 " style="fill:#1515d8; stroke-width:1; stroke:black; " description="&lt;b&gt;HETIRDRAFT_416896&lt;/b&gt;&lt;br&gt;hypothetical protein&lt;br&gt;Location: 1348906 - 1349608&lt;br&gt;&lt;br&gt;&lt;b&gt;BlastP hit with CopciAB_438138.T0&lt;/b&gt;&lt;br&gt;Percentage identity: 60&lt;br&gt;Percentage coverage: 94&lt;br&gt;BLAST bit score: 176&lt;br&gt;E-value: 2.88e-55" locus_tag="HETIRDRAFT_416896" class="clusterblast-orf" id="dummy-3_h3_2_7"  />
</g>
<g id="a3_008"  >
<polygon points="557,90 599,90 604,85 599,80 557,80 557,90 " style="fill:#d81597; stroke-width:1; stroke:black; " description="&lt;b&gt;HETIRDRAFT_316739&lt;/b&gt;&lt;br&gt;hypothetical protein&lt;br&gt;Location: 1350637 - 1352371&lt;br&gt;&lt;br&gt;&lt;b&gt;BlastP hit with CopciAB_485202.T0&lt;/b&gt;&lt;br&gt;Percentage identity: 84&lt;br&gt;Percentage coverage: 97&lt;br&gt;BLAST bit score: 772&lt;br&gt;E-value: 9.83e-281" locus_tag="HETIRDRAFT_316739" class="clusterblast-orf" id="dummy-3_h3_2_8"  />
</g>
<g id="a3_009"  >
<polygon points="633,90 650,90 655,85 650,80 633,80 633,90 " style="fill:white; stroke-width:1; stroke:black; " description="&lt;b&gt;HETIRDRAFT_426357&lt;/b&gt;&lt;br&gt;hypothetical protein&lt;br&gt;Location: 1353421 - 1354225" locus_tag="HETIRDRAFT_426357" class="clusterblast-orf" id="dummy-3_h3_2_9"  />
</g>
</svg>
