<svg xmlns="http://www.w3.org/2000/svg" xmlns:xlink="http://www.w3.org/1999/xlink" version="1.1" x="0" y="0" height="230" width="800" viewBox="0 0 800 230" preserveAspectRatio="none"  >
<g label="Query sequence" class="clusterblast-cluster"  >
<text x="5" y="20" class="clusterblast-acc"  >
Query sequence</text>
<line x1="10" y1="35" x2="778.0" y2="35" style="stroke-width:1; stroke:grey; "  />
<polygon points="0,40 39,40 44,35 39,30 0,30 0,40 " style="fill:white; stroke-width:1; stroke:black; " description="&lt;b&gt;CopciAB_28133.T0&lt;/b&gt;&lt;br&gt;CopciAB 28133.T0&lt;br&gt;Location: 1246341 - 1247339" locus_tag="CopciAB_28133.T0" class="clusterblast-orf" id="dummy-2_q0_0_all"  />
<polygon points="110,40 136,40 141,35 136,30 110,30 110,40 " style="fill:#d81515; stroke-width:1; stroke:black; " description="&lt;b&gt;CopciAB_507443.T1&lt;/b&gt;&lt;br&gt;CopciAB 507443.T1&lt;br&gt;Location: 1248813 - 1249523" locus_tag="CopciAB_507443.T1" class="clusterblast-orf" id="dummy-2_q1_0_all"  />
<polygon points="128,40 149,40 154,35 149,30 128,30 128,40 " style="fill:#d81515; stroke-width:1; stroke:black; " description="&lt;b&gt;CopciAB_507443.T0&lt;/b&gt;&lt;br&gt;CopciAB 507443.T0&lt;br&gt;Location: 1249225 - 1249819" locus_tag="CopciAB_507443.T0" class="clusterblast-orf" id="dummy-2_q2_0_all"  />
<polygon points="166,35 171,30 244,30 244,40 171,40 166,35 " style="fill:#15d815; stroke-width:1; stroke:black; " description="&lt;b&gt;CopciAB_358611.T0&lt;/b&gt;&lt;br&gt;CopciAB 358611.T0&lt;br&gt;Location: 1250094 - 1251834" locus_tag="CopciAB_358611.T0" class="clusterblast-orf" id="dummy-2_q3_0_all"  />
<polygon points="262,35 267,30 359,30 359,40 267,40 262,35 " style="fill:#1515d8; stroke-width:1; stroke:black; " description="&lt;b&gt;CopciAB_358644.T0&lt;/b&gt;&lt;br&gt;CopciAB 358644.T0&lt;br&gt;Location: 1252258 - 1254446" locus_tag="CopciAB_358644.T0" class="clusterblast-orf" id="dummy-2_q4_0_all"  />
<polygon points="403,35 408,30 501,30 501,40 408,40 403,35 " style="fill:#1515d8; stroke-width:1; stroke:black; " description="&lt;b&gt;CopciAB_438053.T0&lt;/b&gt;&lt;br&gt;CopciAB 438053.T0&lt;br&gt;Location: 1255431 - 1257642" locus_tag="CopciAB_438053.T0" class="clusterblast-orf" id="dummy-2_q5_0_all"  />
<polygon points="516,40 775,40 780,35 775,30 516,30 516,40 " style="fill:white; stroke-width:1; stroke:black; " description="&lt;b&gt;CopciAB_438054.T0&lt;/b&gt;&lt;br&gt;CopciAB 438054.T0&lt;br&gt;Location: 1257977 - 1263925" locus_tag="CopciAB_438054.T0" class="clusterblast-orf" id="dummy-2_q6_0_all"  />
</g>
<g label="NW_009258200" description="NW_009258200 (1654537-1671014): Heterobasidion irregulare TC 32-1 unplaced ge... (66% of genes show similarity), siderophore" class="clusterblast-cluster"  >
<text x="5" y="70" class="clusterblast-acc"  >
<a xlink:href="https://antismash-db.secondarymetabolites.org/area.html?record=NW_009258200&amp;start=1654537&amp;end=1671014" target="_blank">NW_009258200 (1654537-1671014)</a>: Heterobasidion irregulare TC 32-1 unplaced ge... (66% of genes show similarity), siderophore</text>
<line x1="10" y1="85" x2="778.0" y2="85" style="stroke-width:1; stroke:grey; "  />
</g>
<g id="a2_000"  >
<polygon points="191,90 281,90 286,85 281,80 191,80 191,90 " style="fill:white; stroke-width:1; stroke:black; " description="&lt;b&gt;HETIRDRAFT_157171&lt;/b&gt;&lt;br&gt;glycoside hydrolase family 43 protein&lt;br&gt;Location: 1668496 - 1666343" locus_tag="HETIRDRAFT_157171" class="clusterblast-orf" id="dummy-2_h2_2_0"  />
</g>
<g id="a2_001"  >
<polygon points="301,85 306,80 406,80 406,90 306,90 301,85 " style="fill:#1515d8; stroke-width:1; stroke:black; " description="&lt;b&gt;HETIRDRAFT_444537&lt;/b&gt;&lt;br&gt;hypothetical protein&lt;br&gt;Location: 1666014 - 1663643&lt;br&gt;&lt;br&gt;&lt;b&gt;BlastP hit with CopciAB_358644.T0&lt;/b&gt;&lt;br&gt;Percentage identity: 47&lt;br&gt;Percentage coverage: 100&lt;br&gt;BLAST bit score: 541&lt;br&gt;E-value: 1.69e-184&lt;br&gt;&lt;br&gt;&lt;b&gt;BlastP hit with CopciAB_438053.T0&lt;/b&gt;&lt;br&gt;Percentage identity: 37&lt;br&gt;Percentage coverage: 101&lt;br&gt;BLAST bit score: 416&lt;br&gt;E-value: 1.89e-135" locus_tag="HETIRDRAFT_444537" class="clusterblast-orf" id="dummy-2_h2_2_1"  />
</g>
<g id="a2_002"  >
<polygon points="487,85 492,80 588,80 588,90 492,90 487,85 " style="fill:#1515d8; stroke-width:1; stroke:black; " description="&lt;b&gt;HETIRDRAFT_458567&lt;/b&gt;&lt;br&gt;hypothetical protein&lt;br&gt;Location: 1661808 - 1659538&lt;br&gt;&lt;br&gt;&lt;b&gt;BlastP hit with CopciAB_358644.T0&lt;/b&gt;&lt;br&gt;Percentage identity: 40&lt;br&gt;Percentage coverage: 105&lt;br&gt;BLAST bit score: 458&lt;br&gt;E-value: 4.72e-152&lt;br&gt;&lt;br&gt;&lt;b&gt;BlastP hit with CopciAB_438053.T0&lt;/b&gt;&lt;br&gt;Percentage identity: 52&lt;br&gt;Percentage coverage: 104&lt;br&gt;BLAST bit score: 649&lt;br&gt;E-value: 6.1e-227" locus_tag="HETIRDRAFT_458567" class="clusterblast-orf" id="dummy-2_h2_2_2"  />
</g>
</svg>
