<svg xmlns="http://www.w3.org/2000/svg" xmlns:xlink="http://www.w3.org/1999/xlink" version="1.1" x="0" y="0" height="230" width="800" viewBox="0 0 800 230" preserveAspectRatio="none"  >
<g label="Query sequence" class="clusterblast-cluster"  >
<text x="5" y="20" class="clusterblast-acc"  >
Query sequence</text>
<line x1="10" y1="35" x2="778.0" y2="35" style="stroke-width:1; stroke:grey; "  />
<polygon points="0,40 54,40 59,35 54,30 0,30 0,40 " style="fill:white; stroke-width:1; stroke:black; " description="&lt;b&gt;CopciAB_485193.T0&lt;/b&gt;&lt;br&gt;CopciAB 485193.T0&lt;br&gt;Location: 1414810 - 1416979" locus_tag="CopciAB_485193.T0" class="clusterblast-orf" id="dummy-3_q0_0_all"  />
<polygon points="71,40 92,40 97,35 92,30 71,30 71,40 " style="fill:white; stroke-width:1; stroke:black; " description="&lt;b&gt;CopciAB_452092.T0&lt;/b&gt;&lt;br&gt;CopciAB 452092.T0&lt;br&gt;Location: 1417417 - 1418394" locus_tag="CopciAB_452092.T0" class="clusterblast-orf" id="dummy-3_q1_0_all"  />
<polygon points="110,35 115,30 140,30 140,40 115,40 110,35 " style="fill:#d81515; stroke-width:1; stroke:black; " description="&lt;b&gt;CopciAB_462760.T0&lt;/b&gt;&lt;br&gt;CopciAB 462760.T0&lt;br&gt;Location: 1418847 - 1419955" locus_tag="CopciAB_462760.T0" class="clusterblast-orf" id="dummy-3_q2_0_all"  />
<polygon points="163,35 168,30 193,30 193,40 168,40 163,35 " style="fill:#15d815; stroke-width:1; stroke:black; " description="&lt;b&gt;CopciAB_438130.T0&lt;/b&gt;&lt;br&gt;CopciAB 438130.T0&lt;br&gt;Location: 1420793 - 1421920" locus_tag="CopciAB_438130.T0" class="clusterblast-orf" id="dummy-3_q3_0_all"  />
<polygon points="208,35 213,30 245,30 245,40 213,40 208,35 " style="fill:#1597d8; stroke-width:1; stroke:black; " description="&lt;b&gt;CopciAB_438131.T0&lt;/b&gt;&lt;br&gt;CopciAB 438131.T0&lt;br&gt;Location: 1422451 - 1423833" locus_tag="CopciAB_438131.T0" class="clusterblast-orf" id="dummy-3_q4_0_all"  />
<polygon points="250,40 270,40 275,35 270,30 250,30 250,40 " style="fill:#9715d8; stroke-width:1; stroke:black; " description="&lt;b&gt;CopciAB_30507.T0&lt;/b&gt;&lt;br&gt;CopciAB 30507.T0&lt;br&gt;Location: 1424014 - 1424912" locus_tag="CopciAB_30507.T0" class="clusterblast-orf" id="dummy-3_q5_0_all"  />
<polygon points="297,40 307,40 312,35 307,30 297,30 297,40 " style="fill:white; stroke-width:1; stroke:black; " description="&lt;b&gt;CopciAB_1000673.T0&lt;/b&gt;&lt;br&gt;CopciAB 1000673.T0&lt;br&gt;Location: 1425727 - 1426280" locus_tag="CopciAB_1000673.T0" class="clusterblast-orf" id="dummy-3_q6_0_all"  />
<polygon points="315,40 340,40 345,35 340,30 315,30 315,40 " style="fill:white; stroke-width:1; stroke:black; " description="&lt;b&gt;CopciAB_1000674.T0&lt;/b&gt;&lt;br&gt;CopciAB 1000674.T0&lt;br&gt;Location: 1426398 - 1427484" locus_tag="CopciAB_1000674.T0" class="clusterblast-orf" id="dummy-3_q7_0_all"  />
<polygon points="354,40 384,40 389,35 384,30 354,30 354,40 " style="fill:#d89715; stroke-width:1; stroke:black; " description="&lt;b&gt;CopciAB_30510.T0&lt;/b&gt;&lt;br&gt;CopciAB 30510.T0&lt;br&gt;Location: 1427831 - 1429089" locus_tag="CopciAB_30510.T0" class="clusterblast-orf" id="dummy-3_q8_0_all"  />
<polygon points="415,35 420,30 513,30 513,40 420,40 415,35 " style="fill:#15d897; stroke-width:1; stroke:black; " description="&lt;b&gt;CopciAB_358591.T0&lt;/b&gt;&lt;br&gt;CopciAB 358591.T0&lt;br&gt;Location: 1430058 - 1433651" locus_tag="CopciAB_358591.T0" class="clusterblast-orf" id="dummy-3_q9_0_all"  />
<polygon points="519,40 532,40 537,35 532,30 519,30 519,40 " style="fill:#1515d8; stroke-width:1; stroke:black; " description="&lt;b&gt;CopciAB_438138.T0&lt;/b&gt;&lt;br&gt;CopciAB 438138.T0&lt;br&gt;Location: 1433887 - 1434547" locus_tag="CopciAB_438138.T0" class="clusterblast-orf" id="dummy-3_q10_0_all"  />
<polygon points="550,40 593,40 598,35 593,30 550,30 550,40 " style="fill:#d81597; stroke-width:1; stroke:black; " description="&lt;b&gt;CopciAB_485202.T0&lt;/b&gt;&lt;br&gt;CopciAB 485202.T0&lt;br&gt;Location: 1435028 - 1436789" locus_tag="CopciAB_485202.T0" class="clusterblast-orf" id="dummy-3_q11_0_all"  />
<polygon points="614,35 619,30 780,30 780,40 619,40 614,35 " style="fill:#97d815; stroke-width:1; stroke:black; " description="&lt;b&gt;CopciAB_358738.T0&lt;/b&gt;&lt;br&gt;CopciAB 358738.T0&lt;br&gt;Location: 1437350 - 1443453" locus_tag="CopciAB_358738.T0" class="clusterblast-orf" id="dummy-3_q12_0_all"  />
</g>
<g label="NW_003315668" description="NW_003315668 (373737-395134): Schizophyllum commune H4-8 unplaced genomic sca... (44% of genes show similarity), terpene" class="clusterblast-cluster"  >
<text x="5" y="70" class="clusterblast-acc"  >
<a xlink:href="https://antismash-db.secondarymetabolites.org/area.html?record=NW_003315668&amp;start=373737&amp;end=395134" target="_blank">NW_003315668 (373737-395134)</a>: Schizophyllum commune H4-8 unplaced genomic sca... (44% of genes show similarity), terpene</text>
<line x1="10" y1="85" x2="778.0" y2="85" style="stroke-width:1; stroke:grey; "  />
</g>
<g id="a3_000"  >
<polygon points="110,85 115,80 194,80 194,90 115,90 110,85 " style="fill:white; stroke-width:1; stroke:black; " description="&lt;b&gt;SCHCODRAFT_55674&lt;/b&gt;&lt;br&gt;glycoside hydrolase family 3 protein&lt;br&gt;Location: 374092 - 377141" locus_tag="SCHCODRAFT_55674" class="clusterblast-orf" id="dummy-3_h3_4_0"  />
</g>
<g id="a3_001"  >
<polygon points="206,90 232,90 237,85 232,80 206,80 206,90 " style="fill:white; stroke-width:1; stroke:black; " description="&lt;b&gt;SCHCODRAFT_55108&lt;/b&gt;&lt;br&gt;uncharacterized protein&lt;br&gt;Location: 377605 - 378754" locus_tag="SCHCODRAFT_55108" class="clusterblast-orf" id="dummy-3_h3_4_1"  />
</g>
<g id="a3_002"  >
<polygon points="248,85 253,80 279,80 279,90 253,90 248,85 " style="fill:#1597d8; stroke-width:1; stroke:black; " description="&lt;b&gt;SCHCODRAFT_56114&lt;/b&gt;&lt;br&gt;uncharacterized protein&lt;br&gt;Location: 379135 - 380290&lt;br&gt;&lt;br&gt;&lt;b&gt;BlastP hit with CopciAB_438131.T0&lt;/b&gt;&lt;br&gt;Percentage identity: 63&lt;br&gt;Percentage coverage: 88&lt;br&gt;BLAST bit score: 468&lt;br&gt;E-value: 2.38e-163" locus_tag="SCHCODRAFT_56114" class="clusterblast-orf" id="dummy-3_h3_4_2"  />
</g>
<g id="a3_003"  >
<polygon points="285,90 305,90 310,85 305,80 285,80 285,90 " style="fill:#9715d8; stroke-width:1; stroke:black; " description="&lt;b&gt;SCHCODRAFT_55942&lt;/b&gt;&lt;br&gt;uncharacterized protein&lt;br&gt;Location: 380495 - 381414&lt;br&gt;&lt;br&gt;&lt;b&gt;BlastP hit with CopciAB_30507.T0&lt;/b&gt;&lt;br&gt;Percentage identity: 74&lt;br&gt;Percentage coverage: 99&lt;br&gt;BLAST bit score: 307&lt;br&gt;E-value: 1.61e-105" locus_tag="SCHCODRAFT_55942" class="clusterblast-orf" id="dummy-3_h3_4_3"  />
</g>
<g id="a3_004"  >
<polygon points="373,90 406,90 411,85 406,80 373,80 373,90 " style="fill:#d89715; stroke-width:1; stroke:black; " description="&lt;b&gt;SCHCODRAFT_15679&lt;/b&gt;&lt;br&gt;uncharacterized protein&lt;br&gt;Location: 383738 - 385134&lt;br&gt;&lt;br&gt;&lt;b&gt;BlastP hit with CopciAB_30510.T0&lt;/b&gt;&lt;br&gt;Percentage identity: 52&lt;br&gt;Percentage coverage: 99&lt;br&gt;BLAST bit score: 371&lt;br&gt;E-value: 1.21e-126" locus_tag="SCHCODRAFT_15679" class="clusterblast-orf" id="dummy-3_h3_4_4"  />
</g>
<g id="a3_005"  >
<polygon points="426,90 461,90 466,85 461,80 426,80 426,90 " style="fill:#15d815; stroke-width:1; stroke:black; " description="&lt;b&gt;SCHCODRAFT_67794&lt;/b&gt;&lt;br&gt;uncharacterized protein&lt;br&gt;Location: 385694 - 387135&lt;br&gt;&lt;br&gt;&lt;b&gt;BlastP hit with CopciAB_438130.T0&lt;/b&gt;&lt;br&gt;Percentage identity: 52&lt;br&gt;Percentage coverage: 103&lt;br&gt;BLAST bit score: 250&lt;br&gt;E-value: 1.67e-81" locus_tag="SCHCODRAFT_67794" class="clusterblast-orf" id="dummy-3_h3_4_5"  />
</g>
<g id="a3_006"  >
<polygon points="528,90 554,90 559,85 554,80 528,80 528,90 " style="fill:white; stroke-width:1; stroke:black; " description="&lt;b&gt;SCHCODRAFT_55414&lt;/b&gt;&lt;br&gt;uncharacterized protein&lt;br&gt;Location: 389440 - 390562" locus_tag="SCHCODRAFT_55414" class="clusterblast-orf" id="dummy-3_h3_4_6"  />
</g>
<g id="a3_007"  >
<polygon points="571,90 597,90 602,85 597,80 571,80 571,90 " style="fill:white; stroke-width:1; stroke:black; " description="&lt;b&gt;SCHCODRAFT_85152&lt;/b&gt;&lt;br&gt;uncharacterized protein&lt;br&gt;Location: 391004 - 392149" locus_tag="SCHCODRAFT_85152" class="clusterblast-orf" id="dummy-3_h3_4_7"  />
</g>
<g id="a3_008"  >
<polygon points="619,90 663,90 668,85 663,80 619,80 619,90 " style="fill:white; stroke-width:1; stroke:black; " description="&lt;b&gt;SCHCODRAFT_234669&lt;/b&gt;&lt;br&gt;uncharacterized protein&lt;br&gt;Location: 392766 - 394582" locus_tag="SCHCODRAFT_234669" class="clusterblast-orf" id="dummy-3_h3_4_8"  />
</g>
</svg>
