<svg xmlns="http://www.w3.org/2000/svg" xmlns:xlink="http://www.w3.org/1999/xlink" version="1.1" x="0" y="0" height="230" width="800" viewBox="0 0 800 230" preserveAspectRatio="none"  >
<g label="Query sequence" class="clusterblast-cluster"  >
<text x="5" y="20" class="clusterblast-acc"  >
Query sequence</text>
<line x1="10" y1="35" x2="778.0" y2="35" style="stroke-width:1; stroke:grey; "  />
<polygon points="0,35 5,30 44,30 44,40 5,40 0,35 " style="fill:white; stroke-width:1; stroke:black; " description="&lt;b&gt;CopciAB_454031.T0&lt;/b&gt;&lt;br&gt;CopciAB 454031.T0&lt;br&gt;Location: 950617 - 954232" locus_tag="CopciAB_454031.T0" class="clusterblast-orf" id="dummy-3_q0_0_all"  />
<polygon points="66,40 71,40 76,35 71,30 66,30 66,40 " style="fill:white; stroke-width:1; stroke:black; " description="&lt;b&gt;CopciAB_391177.T0&lt;/b&gt;&lt;br&gt;CopciAB 391177.T0&lt;br&gt;Location: 956110 - 956875" locus_tag="CopciAB_391177.T0" class="clusterblast-orf" id="dummy-3_q1_0_all"  />
<polygon points="79,35 84,30 91,30 91,40 84,40 79,35 " style="fill:white; stroke-width:1; stroke:black; " description="&lt;b&gt;CopciAB_495078.T0&lt;/b&gt;&lt;br&gt;CopciAB 495078.T0&lt;br&gt;Location: 957103 - 958109" locus_tag="CopciAB_495078.T0" class="clusterblast-orf" id="dummy-3_q2_0_all"  />
<polygon points="94,35 99,30 110,30 110,40 99,40 94,35 " style="fill:white; stroke-width:1; stroke:black; " description="&lt;b&gt;CopciAB_441179.T0&lt;/b&gt;&lt;br&gt;CopciAB 441179.T0&lt;br&gt;Location: 958412 - 959728" locus_tag="CopciAB_441179.T0" class="clusterblast-orf" id="dummy-3_q3_0_all"  />
<polygon points="120,35 125,30 129,30 129,40 125,40 120,35 " style="fill:white; stroke-width:1; stroke:black; " description="&lt;b&gt;CopciAB_441181.T0&lt;/b&gt;&lt;br&gt;CopciAB 441181.T0&lt;br&gt;Location: 960502 - 961247" locus_tag="CopciAB_441181.T0" class="clusterblast-orf" id="dummy-3_q4_0_all"  />
<polygon points="141,40 167,40 172,35 167,30 141,30 141,40 " style="fill:#d81515; stroke-width:1; stroke:black; " description="&lt;b&gt;CopciAB_417341.T0&lt;/b&gt;&lt;br&gt;CopciAB 417341.T0&lt;br&gt;Location: 962262 - 964748" locus_tag="CopciAB_417341.T0" class="clusterblast-orf" id="dummy-3_q5_0_all"  />
<polygon points="177,40 185,40 190,35 185,30 177,30 177,40 " style="fill:#4dd815; stroke-width:1; stroke:black; " description="&lt;b&gt;CopciAB_360850.T0&lt;/b&gt;&lt;br&gt;CopciAB 360850.T0&lt;br&gt;Location: 965222 - 966252" locus_tag="CopciAB_360850.T0" class="clusterblast-orf" id="dummy-3_q6_0_all"  />
<polygon points="200,35 205,30 210,30 210,40 205,40 200,35 " style="fill:white; stroke-width:1; stroke:black; " description="&lt;b&gt;CopciAB_90622.T0&lt;/b&gt;&lt;br&gt;CopciAB 90622.T0&lt;br&gt;Location: 967097 - 967880" locus_tag="CopciAB_90622.T0" class="clusterblast-orf" id="dummy-3_q7_0_all"  />
<polygon points="221,35 226,30 277,30 277,40 226,40 221,35 " style="fill:#1585d8; stroke-width:1; stroke:black; " description="&lt;b&gt;CopciAB_360799.T0&lt;/b&gt;&lt;br&gt;CopciAB 360799.T0&lt;br&gt;Location: 968800 - 973450" locus_tag="CopciAB_360799.T0" class="clusterblast-orf" id="dummy-3_q8_0_all"  />
<polygon points="309,35 314,30 314,30 314,40 314,40 309,35 " style="fill:white; stroke-width:1; stroke:black; " description="&lt;b&gt;CopciAB_1002526.T0&lt;/b&gt;&lt;br&gt;CopciAB 1002526.T0&lt;br&gt;Location: 976072 - 976500" locus_tag="CopciAB_1002526.T0" class="clusterblast-orf" id="dummy-3_q9_0_all"  />
<polygon points="317,40 320,40 325,35 320,30 317,30 317,40 " style="fill:#1585d8; stroke-width:1; stroke:black; " description="&lt;b&gt;CopciAB_441187.T0&lt;/b&gt;&lt;br&gt;CopciAB 441187.T0&lt;br&gt;Location: 976689 - 977368" locus_tag="CopciAB_441187.T0" class="clusterblast-orf" id="dummy-3_q10_0_all"  />
<polygon points="332,40 350,40 355,35 350,30 332,30 332,40 " style="fill:#d815bc; stroke-width:1; stroke:black; " description="&lt;b&gt;CopciAB_90822.T0&lt;/b&gt;&lt;br&gt;CopciAB 90822.T0&lt;br&gt;Location: 977916 - 979803" locus_tag="CopciAB_90822.T0" class="clusterblast-orf" id="dummy-3_q11_0_all"  />
<polygon points="360,35 365,30 418,30 418,40 365,40 360,35 " style="fill:#d8bc15; stroke-width:1; stroke:black; " description="&lt;b&gt;CopciAB_417352.T0&lt;/b&gt;&lt;br&gt;CopciAB 417352.T0&lt;br&gt;Location: 980254 - 984983" locus_tag="CopciAB_417352.T0" class="clusterblast-orf" id="dummy-3_q12_0_all"  />
<polygon points="421,35 426,30 459,30 459,40 426,40 421,35 " style="fill:white; stroke-width:1; stroke:black; " description="&lt;b&gt;CopciAB_454041.T0&lt;/b&gt;&lt;br&gt;CopciAB 454041.T0&lt;br&gt;Location: 985245 - 988386" locus_tag="CopciAB_454041.T0" class="clusterblast-orf" id="dummy-3_q13_0_all"  />
<polygon points="461,40 515,40 520,35 515,30 461,30 461,40 " style="fill:white; stroke-width:1; stroke:black; " description="&lt;b&gt;CopciAB_441190.T0&lt;/b&gt;&lt;br&gt;CopciAB 441190.T0&lt;br&gt;Location: 988541 - 993401" locus_tag="CopciAB_441190.T0" class="clusterblast-orf" id="dummy-3_q14_0_all"  />
<polygon points="527,40 529,40 534,35 529,30 527,30 527,40 " style="fill:white; stroke-width:1; stroke:black; " description="&lt;b&gt;CopciAB_417357.T0&lt;/b&gt;&lt;br&gt;CopciAB 417357.T0&lt;br&gt;Location: 993991 - 994567" locus_tag="CopciAB_417357.T0" class="clusterblast-orf" id="dummy-3_q15_0_all"  />
<polygon points="551,35 556,30 577,30 577,40 556,40 551,35 " style="fill:#15d885; stroke-width:1; stroke:black; " description="&lt;b&gt;CopciAB_90959.T0&lt;/b&gt;&lt;br&gt;CopciAB 90959.T0&lt;br&gt;Location: 995905 - 998090" locus_tag="CopciAB_90959.T0" class="clusterblast-orf" id="dummy-3_q16_0_all"  />
<polygon points="585,35 590,30 593,30 593,40 590,40 585,35 " style="fill:white; stroke-width:1; stroke:black; " description="&lt;b&gt;CopciAB_1002528.T0&lt;/b&gt;&lt;br&gt;CopciAB 1002528.T0&lt;br&gt;Location: 998761 - 999424" locus_tag="CopciAB_1002528.T0" class="clusterblast-orf" id="dummy-3_q17_0_all"  />
<polygon points="601,35 606,30 617,30 617,40 606,40 601,35 " style="fill:white; stroke-width:1; stroke:black; " description="&lt;b&gt;CopciAB_465124.T0&lt;/b&gt;&lt;br&gt;CopciAB 465124.T0&lt;br&gt;Location: 1000061 - 1001390" locus_tag="CopciAB_465124.T0" class="clusterblast-orf" id="dummy-3_q18_0_all"  />
<polygon points="620,40 624,40 629,35 624,30 620,30 620,40 " style="fill:white; stroke-width:1; stroke:black; " description="&lt;b&gt;CopciAB_90982.T0&lt;/b&gt;&lt;br&gt;CopciAB 90982.T0&lt;br&gt;Location: 1001584 - 1002367" locus_tag="CopciAB_90982.T0" class="clusterblast-orf" id="dummy-3_q19_0_all"  />
<polygon points="643,40 659,40 664,35 659,30 643,30 643,40 " style="fill:white; stroke-width:1; stroke:black; " description="&lt;b&gt;CopciAB_90984.T0&lt;/b&gt;&lt;br&gt;CopciAB 90984.T0&lt;br&gt;Location: 1003469 - 1005259" locus_tag="CopciAB_90984.T0" class="clusterblast-orf" id="dummy-3_q20_0_all"  />
<polygon points="669,40 682,40 687,35 682,30 669,30 669,40 " style="fill:white; stroke-width:1; stroke:black; " description="&lt;b&gt;CopciAB_90979.T0&lt;/b&gt;&lt;br&gt;CopciAB 90979.T0&lt;br&gt;Location: 1005646 - 1007108" locus_tag="CopciAB_90979.T0" class="clusterblast-orf" id="dummy-3_q21_0_all"  />
<polygon points="692,40 706,40 711,35 706,30 692,30 692,40 " style="fill:#4d15d8; stroke-width:1; stroke:black; " description="&lt;b&gt;CopciAB_476094.T0&lt;/b&gt;&lt;br&gt;CopciAB 476094.T0&lt;br&gt;Location: 1007537 - 1009136" locus_tag="CopciAB_476094.T0" class="clusterblast-orf" id="dummy-3_q22_0_all"  />
<polygon points="715,35 720,30 761,30 761,40 720,40 715,35 " style="fill:white; stroke-width:1; stroke:black; " description="&lt;b&gt;CopciAB_91028.T0&lt;/b&gt;&lt;br&gt;CopciAB 91028.T0&lt;br&gt;Location: 1009428 - 1013227" locus_tag="CopciAB_91028.T0" class="clusterblast-orf" id="dummy-3_q23_0_all"  />
<polygon points="769,40 775,40 780,35 775,30 769,30 769,40 " style="fill:white; stroke-width:1; stroke:black; " description="&lt;b&gt;CopciAB_441197.T0&lt;/b&gt;&lt;br&gt;CopciAB 441197.T0&lt;br&gt;Location: 1013862 - 1014739" locus_tag="CopciAB_441197.T0" class="clusterblast-orf" id="dummy-3_q24_0_all"  />
</g>
<g label="NW_003315664" description="NW_003315664 (489906-534359): Schizophyllum commune H4-8 unplaced genomic sca... (10% of genes show similarity), NRPS-like" class="clusterblast-cluster"  >
<text x="5" y="70" class="clusterblast-acc"  >
<a xlink:href="https://antismash-db.secondarymetabolites.org/area.html?record=NW_003315664&amp;start=489906&amp;end=534359" target="_blank">NW_003315664 (489906-534359)</a>: Schizophyllum commune H4-8 unplaced genomic sca... (10% of genes show similarity), NRPS-like</text>
<line x1="10" y1="85" x2="778.0" y2="85" style="stroke-width:1; stroke:grey; "  />
</g>
<g id="a3_000"  >
<polygon points="154,90 155,90 160,85 155,80 154,80 154,90 " style="fill:white; stroke-width:1; stroke:black; " description="&lt;b&gt;SCHCODRAFT_59551&lt;/b&gt;&lt;br&gt;uncharacterized protein&lt;br&gt;Location: 493797 - 494355" locus_tag="SCHCODRAFT_59551" class="clusterblast-orf" id="dummy-3_h3_4_0"  />
</g>
<g id="a3_001"  >
<polygon points="167,90 184,90 189,85 184,80 167,80 167,90 " style="fill:white; stroke-width:1; stroke:black; " description="&lt;b&gt;SCHCODRAFT_69935&lt;/b&gt;&lt;br&gt;uncharacterized protein&lt;br&gt;Location: 494879 - 496707" locus_tag="SCHCODRAFT_69935" class="clusterblast-orf" id="dummy-3_h3_4_1"  />
</g>
<g id="a3_002"  >
<polygon points="194,90 200,90 205,85 200,80 194,80 194,90 " style="fill:white; stroke-width:1; stroke:black; " description="&lt;b&gt;SCHCODRAFT_83110&lt;/b&gt;&lt;br&gt;uncharacterized protein&lt;br&gt;Location: 497101 - 498006" locus_tag="SCHCODRAFT_83110" class="clusterblast-orf" id="dummy-3_h3_4_2"  />
</g>
<g id="a3_003"  >
<polygon points="215,85 219,80 219,90 215,85 " style="fill:white; stroke-width:1; stroke:black; " description="&lt;b&gt;SCHCODRAFT_111944&lt;/b&gt;&lt;br&gt;uncharacterized protein&lt;br&gt;Location: 498805 - 499135" locus_tag="SCHCODRAFT_111944" class="clusterblast-orf" id="dummy-3_h3_4_3"  />
</g>
<g id="a3_004"  >
<polygon points="235,90 239,85 235,80 235,90 " style="fill:white; stroke-width:1; stroke:black; " description="&lt;b&gt;SCHCODRAFT_111945&lt;/b&gt;&lt;br&gt;uncharacterized protein&lt;br&gt;Location: 500487 - 500811" locus_tag="SCHCODRAFT_111945" class="clusterblast-orf" id="dummy-3_h3_4_4"  />
</g>
<g id="a3_005"  >
<polygon points="242,85 247,80 251,80 251,90 247,90 242,85 " style="fill:white; stroke-width:1; stroke:black; " description="&lt;b&gt;SCHCODRAFT_59382&lt;/b&gt;&lt;br&gt;uncharacterized protein&lt;br&gt;Location: 501046 - 501812" locus_tag="SCHCODRAFT_59382" class="clusterblast-orf" id="dummy-3_h3_4_5"  />
</g>
<g id="a3_006"  >
<polygon points="265,90 280,90 285,85 280,80 265,80 265,90 " style="fill:white; stroke-width:1; stroke:black; " description="&lt;b&gt;SCHCODRAFT_236959&lt;/b&gt;&lt;br&gt;uncharacterized protein&lt;br&gt;Location: 502923 - 504566" locus_tag="SCHCODRAFT_236959" class="clusterblast-orf" id="dummy-3_h3_4_6"  />
</g>
<g id="a3_007"  >
<polygon points="294,90 313,90 318,85 313,80 294,80 294,90 " style="fill:#d815bc; stroke-width:1; stroke:black; " description="&lt;b&gt;SCHCODRAFT_236960&lt;/b&gt;&lt;br&gt;uncharacterized protein&lt;br&gt;Location: 505300 - 507308&lt;br&gt;&lt;br&gt;&lt;b&gt;BlastP hit with CopciAB_90822.T0&lt;/b&gt;&lt;br&gt;Percentage identity: 35&lt;br&gt;Percentage coverage: 25&lt;br&gt;BLAST bit score: 84&lt;br&gt;E-value: 5.07e-15" locus_tag="SCHCODRAFT_236960" class="clusterblast-orf" id="dummy-3_h3_4_7"  />
</g>
<g id="a3_008"  >
<polygon points="326,90 337,90 342,85 337,80 326,80 326,90 " style="fill:white; stroke-width:1; stroke:black; " description="&lt;b&gt;SCHCODRAFT_111949&lt;/b&gt;&lt;br&gt;uncharacterized protein&lt;br&gt;Location: 507953 - 509277" locus_tag="SCHCODRAFT_111949" class="clusterblast-orf" id="dummy-3_h3_4_8"  />
</g>
<g id="a3_009"  >
<polygon points="350,90 399,90 404,85 399,80 350,80 350,90 " style="fill:#d8bc15; stroke-width:1; stroke:black; " description="&lt;b&gt;SCHCODRAFT_59997&lt;/b&gt;&lt;br&gt;uncharacterized protein&lt;br&gt;Location: 509907 - 514359&lt;br&gt;&lt;br&gt;&lt;b&gt;BlastP hit with CopciAB_417352.T0&lt;/b&gt;&lt;br&gt;Percentage identity: 65&lt;br&gt;Percentage coverage: 101&lt;br&gt;BLAST bit score: 1865&lt;br&gt;E-value: 0.0" locus_tag="SCHCODRAFT_59997" class="clusterblast-orf" id="dummy-3_h3_4_9"  />
</g>
<g id="a3_0010"  >
<polygon points="414,90 414,90 419,85 414,80 414,80 414,90 " style="fill:white; stroke-width:1; stroke:black; " description="&lt;b&gt;SCHCODRAFT_269965&lt;/b&gt;&lt;br&gt;uncharacterized protein&lt;br&gt;Location: 515190 - 515596" locus_tag="SCHCODRAFT_269965" class="clusterblast-orf" id="dummy-3_h3_4_10"  />
</g>
<g id="a3_0011"  >
<polygon points="424,85 429,80 444,80 444,90 429,90 424,85 " style="fill:white; stroke-width:1; stroke:black; " description="&lt;b&gt;SCHCODRAFT_59717&lt;/b&gt;&lt;br&gt;uncharacterized protein&lt;br&gt;Location: 516047 - 517666" locus_tag="SCHCODRAFT_59717" class="clusterblast-orf" id="dummy-3_h3_4_11"  />
</g>
<g id="a3_0012"  >
<polygon points="453,85 458,80 468,80 468,90 458,90 453,85 " style="fill:white; stroke-width:1; stroke:black; " description="&lt;b&gt;SCHCODRAFT_111953&lt;/b&gt;&lt;br&gt;uncharacterized protein&lt;br&gt;Location: 518390 - 519643" locus_tag="SCHCODRAFT_111953" class="clusterblast-orf" id="dummy-3_h3_4_12"  />
</g>
<g id="a3_0013"  >
<polygon points="473,85 478,80 480,80 480,90 478,90 473,85 " style="fill:white; stroke-width:1; stroke:black; " description="&lt;b&gt;SCHCODRAFT_28217&lt;/b&gt;&lt;br&gt;uncharacterized protein&lt;br&gt;Location: 520009 - 520657" locus_tag="SCHCODRAFT_28217" class="clusterblast-orf" id="dummy-3_h3_4_13"  />
</g>
<g id="a3_0014"  >
<polygon points="484,85 489,80 499,80 499,90 489,90 484,85 " style="fill:white; stroke-width:1; stroke:black; " description="&lt;b&gt;SCHCODRAFT_78560&lt;/b&gt;&lt;br&gt;uncharacterized protein&lt;br&gt;Location: 520919 - 522200" locus_tag="SCHCODRAFT_78560" class="clusterblast-orf" id="dummy-3_h3_4_14"  />
</g>
<g id="a3_0015"  >
<polygon points="508,90 518,90 523,85 518,80 508,80 508,90 " style="fill:white; stroke-width:1; stroke:black; " description="&lt;b&gt;SCHCODRAFT_85854&lt;/b&gt;&lt;br&gt;uncharacterized protein&lt;br&gt;Location: 522910 - 524121" locus_tag="SCHCODRAFT_85854" class="clusterblast-orf" id="dummy-3_h3_4_15"  />
</g>
<g id="a3_0016"  >
<polygon points="526,90 554,90 559,85 554,80 526,80 526,90 " style="fill:white; stroke-width:1; stroke:black; " description="&lt;b&gt;SCHCODRAFT_69938&lt;/b&gt;&lt;br&gt;uncharacterized protein&lt;br&gt;Location: 524366 - 527091" locus_tag="SCHCODRAFT_69938" class="clusterblast-orf" id="dummy-3_h3_4_16"  />
</g>
<g id="a3_0017"  >
<polygon points="563,90 573,90 578,85 573,80 563,80 563,90 " style="fill:white; stroke-width:1; stroke:black; " description="&lt;b&gt;SCHCODRAFT_85855&lt;/b&gt;&lt;br&gt;uncharacterized protein&lt;br&gt;Location: 527407 - 528668" locus_tag="SCHCODRAFT_85855" class="clusterblast-orf" id="dummy-3_h3_4_17"  />
</g>
<g id="a3_0018"  >
<polygon points="584,90 620,90 625,85 620,80 584,80 584,90 " style="fill:white; stroke-width:1; stroke:black; " description="&lt;b&gt;SCHCODRAFT_78566&lt;/b&gt;&lt;br&gt;uncharacterized protein&lt;br&gt;Location: 529165 - 532569" locus_tag="SCHCODRAFT_78566" class="clusterblast-orf" id="dummy-3_h3_4_18"  />
</g>
</svg>
