<svg xmlns="http://www.w3.org/2000/svg" xmlns:xlink="http://www.w3.org/1999/xlink" version="1.1" x="0" y="0" height="230" width="800" viewBox="0 0 800 230" preserveAspectRatio="none"  >
<g label="Query sequence" class="clusterblast-cluster"  >
<text x="5" y="20" class="clusterblast-acc"  >
Query sequence</text>
<line x1="10" y1="35" x2="778.0" y2="35" style="stroke-width:1; stroke:grey; "  />
<polygon points="0,40 54,40 59,35 54,30 0,30 0,40 " style="fill:white; stroke-width:1; stroke:black; " description="&lt;b&gt;CopciAB_485193.T0&lt;/b&gt;&lt;br&gt;CopciAB 485193.T0&lt;br&gt;Location: 1414810 - 1416979" locus_tag="CopciAB_485193.T0" class="clusterblast-orf" id="dummy-3_q0_0_all"  />
<polygon points="71,40 92,40 97,35 92,30 71,30 71,40 " style="fill:white; stroke-width:1; stroke:black; " description="&lt;b&gt;CopciAB_452092.T0&lt;/b&gt;&lt;br&gt;CopciAB 452092.T0&lt;br&gt;Location: 1417417 - 1418394" locus_tag="CopciAB_452092.T0" class="clusterblast-orf" id="dummy-3_q1_0_all"  />
<polygon points="110,35 115,30 140,30 140,40 115,40 110,35 " style="fill:#d81515; stroke-width:1; stroke:black; " description="&lt;b&gt;CopciAB_462760.T0&lt;/b&gt;&lt;br&gt;CopciAB 462760.T0&lt;br&gt;Location: 1418847 - 1419955" locus_tag="CopciAB_462760.T0" class="clusterblast-orf" id="dummy-3_q2_0_all"  />
<polygon points="163,35 168,30 193,30 193,40 168,40 163,35 " style="fill:#15d815; stroke-width:1; stroke:black; " description="&lt;b&gt;CopciAB_438130.T0&lt;/b&gt;&lt;br&gt;CopciAB 438130.T0&lt;br&gt;Location: 1420793 - 1421920" locus_tag="CopciAB_438130.T0" class="clusterblast-orf" id="dummy-3_q3_0_all"  />
<polygon points="208,35 213,30 245,30 245,40 213,40 208,35 " style="fill:#1597d8; stroke-width:1; stroke:black; " description="&lt;b&gt;CopciAB_438131.T0&lt;/b&gt;&lt;br&gt;CopciAB 438131.T0&lt;br&gt;Location: 1422451 - 1423833" locus_tag="CopciAB_438131.T0" class="clusterblast-orf" id="dummy-3_q4_0_all"  />
<polygon points="250,40 270,40 275,35 270,30 250,30 250,40 " style="fill:#9715d8; stroke-width:1; stroke:black; " description="&lt;b&gt;CopciAB_30507.T0&lt;/b&gt;&lt;br&gt;CopciAB 30507.T0&lt;br&gt;Location: 1424014 - 1424912" locus_tag="CopciAB_30507.T0" class="clusterblast-orf" id="dummy-3_q5_0_all"  />
<polygon points="297,40 307,40 312,35 307,30 297,30 297,40 " style="fill:white; stroke-width:1; stroke:black; " description="&lt;b&gt;CopciAB_1000673.T0&lt;/b&gt;&lt;br&gt;CopciAB 1000673.T0&lt;br&gt;Location: 1425727 - 1426280" locus_tag="CopciAB_1000673.T0" class="clusterblast-orf" id="dummy-3_q6_0_all"  />
<polygon points="315,40 340,40 345,35 340,30 315,30 315,40 " style="fill:white; stroke-width:1; stroke:black; " description="&lt;b&gt;CopciAB_1000674.T0&lt;/b&gt;&lt;br&gt;CopciAB 1000674.T0&lt;br&gt;Location: 1426398 - 1427484" locus_tag="CopciAB_1000674.T0" class="clusterblast-orf" id="dummy-3_q7_0_all"  />
<polygon points="354,40 384,40 389,35 384,30 354,30 354,40 " style="fill:#d89715; stroke-width:1; stroke:black; " description="&lt;b&gt;CopciAB_30510.T0&lt;/b&gt;&lt;br&gt;CopciAB 30510.T0&lt;br&gt;Location: 1427831 - 1429089" locus_tag="CopciAB_30510.T0" class="clusterblast-orf" id="dummy-3_q8_0_all"  />
<polygon points="415,35 420,30 513,30 513,40 420,40 415,35 " style="fill:#15d897; stroke-width:1; stroke:black; " description="&lt;b&gt;CopciAB_358591.T0&lt;/b&gt;&lt;br&gt;CopciAB 358591.T0&lt;br&gt;Location: 1430058 - 1433651" locus_tag="CopciAB_358591.T0" class="clusterblast-orf" id="dummy-3_q9_0_all"  />
<polygon points="519,40 532,40 537,35 532,30 519,30 519,40 " style="fill:#1515d8; stroke-width:1; stroke:black; " description="&lt;b&gt;CopciAB_438138.T0&lt;/b&gt;&lt;br&gt;CopciAB 438138.T0&lt;br&gt;Location: 1433887 - 1434547" locus_tag="CopciAB_438138.T0" class="clusterblast-orf" id="dummy-3_q10_0_all"  />
<polygon points="550,40 593,40 598,35 593,30 550,30 550,40 " style="fill:#d81597; stroke-width:1; stroke:black; " description="&lt;b&gt;CopciAB_485202.T0&lt;/b&gt;&lt;br&gt;CopciAB 485202.T0&lt;br&gt;Location: 1435028 - 1436789" locus_tag="CopciAB_485202.T0" class="clusterblast-orf" id="dummy-3_q11_0_all"  />
<polygon points="614,35 619,30 780,30 780,40 619,40 614,35 " style="fill:#97d815; stroke-width:1; stroke:black; " description="&lt;b&gt;CopciAB_358738.T0&lt;/b&gt;&lt;br&gt;CopciAB 358738.T0&lt;br&gt;Location: 1437350 - 1443453" locus_tag="CopciAB_358738.T0" class="clusterblast-orf" id="dummy-3_q12_0_all"  />
</g>
<g label="NZ_LELK01000004" description="NZ_LELK01000004 (909138-938664): Anaerobacillus macyae strain DSM 16346 scaff... (8% of genes show similarity), betalactone" class="clusterblast-cluster"  >
<text x="5" y="70" class="clusterblast-acc"  >
<a xlink:href="https://antismash-db.secondarymetabolites.org/area.html?record=NZ_LELK01000004&amp;start=909138&amp;end=938664" target="_blank">NZ_LELK01000004 (909138-938664)</a>: Anaerobacillus macyae strain DSM 16346 scaff... (8% of genes show similarity), betalactone</text>
<line x1="10" y1="85" x2="778.0" y2="85" style="stroke-width:1; stroke:grey; "  />
</g>
<g id="a3_000"  >
<polygon points="4,90 36,90 41,85 36,80 4,80 4,90 " style="fill:white; stroke-width:1; stroke:black; " description="&lt;b&gt;AB986_RS22595&lt;/b&gt;&lt;br&gt;anti-sigma factor domain-containing protein&lt;br&gt;Location: 909713 - 911071" locus_tag="AB986_RS22595" class="clusterblast-orf" id="dummy-3_h3_5_0"  />
</g>
<g id="a3_001"  >
<polygon points="42,85 47,80 53,80 53,90 47,90 42,85 " style="fill:white; stroke-width:1; stroke:black; " description="&lt;b&gt;AB986_RS14675&lt;/b&gt;&lt;br&gt;TlpA family protein disulfide reductase&lt;br&gt;Location: 911142 - 911531" locus_tag="AB986_RS14675" class="clusterblast-orf" id="dummy-3_h3_5_1"  />
</g>
<g id="a3_002"  >
<polygon points="69,90 93,90 98,85 93,80 69,80 69,90 " style="fill:white; stroke-width:1; stroke:black; " description="&lt;b&gt;AB986_RS14680&lt;/b&gt;&lt;br&gt;homoserine O-acetyltransferase&lt;br&gt;Location: 912119 - 913195" locus_tag="AB986_RS14680" class="clusterblast-orf" id="dummy-3_h3_5_2"  />
</g>
<g id="a3_003"  >
<polygon points="99,90 129,90 134,85 129,80 99,80 99,90 " style="fill:white; stroke-width:1; stroke:black; " description="&lt;b&gt;AB986_RS14685&lt;/b&gt;&lt;br&gt;O-acetylhomoserine aminocarboxypropyltransferase/cysteine synthase&lt;br&gt;Location: 913211 - 914509" locus_tag="AB986_RS14685" class="clusterblast-orf" id="dummy-3_h3_5_3"  />
</g>
<g id="a3_004"  >
<polygon points="140,90 183,90 188,85 183,80 140,80 140,90 " style="fill:#15d897; stroke-width:1; stroke:black; " description="&lt;b&gt;AB986_RS14690&lt;/b&gt;&lt;br&gt;aminotransferase class V-fold PLP-dependent enzyme&lt;br&gt;Location: 914723 - 916501&lt;br&gt;&lt;br&gt;&lt;b&gt;BlastP hit with CopciAB_358591.T0&lt;/b&gt;&lt;br&gt;Percentage identity: 33&lt;br&gt;Percentage coverage: 47&lt;br&gt;BLAST bit score: 186&lt;br&gt;E-value: 6.14e-48" locus_tag="AB986_RS14690" class="clusterblast-orf" id="dummy-3_h3_5_4"  />
</g>
<g id="a3_005"  >
<polygon points="189,90 211,90 216,85 211,80 189,80 189,90 " style="fill:white; stroke-width:1; stroke:black; " description="&lt;b&gt;AB986_RS14695&lt;/b&gt;&lt;br&gt;aliphatic sulfonate ABC transporter substrate-binding protein&lt;br&gt;Location: 916524 - 917525" locus_tag="AB986_RS14695" class="clusterblast-orf" id="dummy-3_h3_5_5"  />
</g>
<g id="a3_006"  >
<polygon points="217,90 234,90 239,85 234,80 217,80 217,90 " style="fill:white; stroke-width:1; stroke:black; " description="&lt;b&gt;AB986_RS14700&lt;/b&gt;&lt;br&gt;ABC transporter permease&lt;br&gt;Location: 917541 - 918374" locus_tag="AB986_RS14700" class="clusterblast-orf" id="dummy-3_h3_5_6"  />
</g>
<g id="a3_007"  >
<polygon points="240,90 255,90 260,85 255,80 240,80 240,90 " style="fill:white; stroke-width:1; stroke:black; " description="&lt;b&gt;AB986_RS14705&lt;/b&gt;&lt;br&gt;ABC transporter ATP-binding protein&lt;br&gt;Location: 918387 - 919121" locus_tag="AB986_RS14705" class="clusterblast-orf" id="dummy-3_h3_5_7"  />
</g>
<g id="a3_008"  >
<polygon points="260,90 300,90 305,85 300,80 260,80 260,90 " style="fill:white; stroke-width:1; stroke:black; " description="&lt;b&gt;AB986_RS14710&lt;/b&gt;&lt;br&gt;acetate--CoA ligase&lt;br&gt;Location: 919139 - 920791" locus_tag="AB986_RS14710" class="clusterblast-orf" id="dummy-3_h3_5_8"  />
</g>
<g id="a3_009"  >
<polygon points="306,90 333,90 338,85 333,80 306,80 306,90 " style="fill:white; stroke-width:1; stroke:black; " description="&lt;b&gt;AB986_RS14715&lt;/b&gt;&lt;br&gt;homoserine dehydrogenase&lt;br&gt;Location: 920800 - 922011" locus_tag="AB986_RS14715" class="clusterblast-orf" id="dummy-3_h3_5_9"  />
</g>
<g id="a3_0010"  >
<polygon points="348,90 367,90 372,85 367,80 348,80 348,90 " style="fill:white; stroke-width:1; stroke:black; " description="&lt;b&gt;AB986_RS14720&lt;/b&gt;&lt;br&gt;branched-chain-amino-acid transaminase&lt;br&gt;Location: 922346 - 923251" locus_tag="AB986_RS14720" class="clusterblast-orf" id="dummy-3_h3_5_10"  />
</g>
<g id="a3_0011"  >
<polygon points="382,90 424,90 429,85 424,80 382,80 382,90 " style="fill:white; stroke-width:1; stroke:black; " description="&lt;b&gt;AB986_RS14725&lt;/b&gt;&lt;br&gt;acetolactate synthase large subunit&lt;br&gt;Location: 923611 - 925326" locus_tag="AB986_RS14725" class="clusterblast-orf" id="dummy-3_h3_5_11"  />
</g>
<g id="a3_0012"  >
<polygon points="429,90 438,90 443,85 438,80 429,80 429,90 " style="fill:white; stroke-width:1; stroke:black; " description="&lt;b&gt;AB986_RS14730&lt;/b&gt;&lt;br&gt;acetolactate synthase small subunit&lt;br&gt;Location: 925323 - 925844" locus_tag="AB986_RS14730" class="clusterblast-orf" id="dummy-3_h3_5_12"  />
</g>
<g id="a3_0013"  >
<polygon points="450,90 473,90 478,85 473,80 450,80 450,90 " style="fill:white; stroke-width:1; stroke:black; " description="&lt;b&gt;AB986_RS14735&lt;/b&gt;&lt;br&gt;ketol-acid reductoisomerase&lt;br&gt;Location: 926111 - 927136" locus_tag="AB986_RS14735" class="clusterblast-orf" id="dummy-3_h3_5_13"  />
</g>
<g id="a3_0014"  >
<polygon points="478,90 515,90 520,85 515,80 478,80 478,90 " style="fill:#d81597; stroke-width:1; stroke:black; " description="&lt;b&gt;AB986_RS14740&lt;/b&gt;&lt;br&gt;2-isopropylmalate synthase&lt;br&gt;Location: 927123 - 928664&lt;br&gt;&lt;br&gt;&lt;b&gt;BlastP hit with CopciAB_485202.T0&lt;/b&gt;&lt;br&gt;Percentage identity: 31&lt;br&gt;Percentage coverage: 79&lt;br&gt;BLAST bit score: 178&lt;br&gt;E-value: 4.46e-48" locus_tag="AB986_RS14740" class="clusterblast-orf" id="dummy-3_h3_5_14"  />
</g>
<g id="a3_0015"  >
<polygon points="520,90 545,90 550,85 545,80 520,80 520,90 " style="fill:white; stroke-width:1; stroke:black; " description="&lt;b&gt;AB986_RS14745&lt;/b&gt;&lt;br&gt;3-isopropylmalate dehydrogenase&lt;br&gt;Location: 928681 - 929787" locus_tag="AB986_RS14745" class="clusterblast-orf" id="dummy-3_h3_5_15"  />
</g>
<g id="a3_0016"  >
<polygon points="551,90 584,90 589,85 584,80 551,80 551,90 " style="fill:white; stroke-width:1; stroke:black; " description="&lt;b&gt;AB986_RS14750&lt;/b&gt;&lt;br&gt;3-isopropylmalate dehydratase large subunit&lt;br&gt;Location: 929808 - 931226" locus_tag="AB986_RS14750" class="clusterblast-orf" id="dummy-3_h3_5_16"  />
</g>
<g id="a3_0017"  >
<polygon points="590,90 601,90 606,85 601,80 590,80 590,90 " style="fill:white; stroke-width:1; stroke:black; " description="&lt;b&gt;AB986_RS14755&lt;/b&gt;&lt;br&gt;3-isopropylmalate dehydratase small subunit&lt;br&gt;Location: 931242 - 931832" locus_tag="AB986_RS14755" class="clusterblast-orf" id="dummy-3_h3_5_17"  />
</g>
<g id="a3_0018"  >
<polygon points="607,90 628,90 633,85 628,80 607,80 607,90 " style="fill:white; stroke-width:1; stroke:black; " description="&lt;b&gt;AB986_RS14760&lt;/b&gt;&lt;br&gt;threonine ammonia-lyase&lt;br&gt;Location: 931883 - 932839" locus_tag="AB986_RS14760" class="clusterblast-orf" id="dummy-3_h3_5_18"  />
</g>
<g id="a3_0019"  >
<polygon points="650,90 672,90 677,85 672,80 650,80 650,90 " style="fill:white; stroke-width:1; stroke:black; " description="&lt;b&gt;AB986_RS14765&lt;/b&gt;&lt;br&gt;methionine ABC transporter ATP-binding protein&lt;br&gt;Location: 933437 - 934459" locus_tag="AB986_RS14765" class="clusterblast-orf" id="dummy-3_h3_5_19"  />
</g>
<g id="a3_0020"  >
<polygon points="677,90 690,90 695,85 690,80 677,80 677,90 " style="fill:white; stroke-width:1; stroke:black; " description="&lt;b&gt;AB986_RS14770&lt;/b&gt;&lt;br&gt;ABC transporter permease&lt;br&gt;Location: 934452 - 935120" locus_tag="AB986_RS14770" class="clusterblast-orf" id="dummy-3_h3_5_20"  />
</g>
<g id="a3_0021"  >
<polygon points="696,90 714,90 719,85 714,80 696,80 696,90 " style="fill:white; stroke-width:1; stroke:black; " description="&lt;b&gt;AB986_RS14775&lt;/b&gt;&lt;br&gt;MetQ/NlpA family ABC transporter substrate-binding protein&lt;br&gt;Location: 935146 - 935988" locus_tag="AB986_RS14775" class="clusterblast-orf" id="dummy-3_h3_5_21"  />
</g>
<g id="a3_0022"  >
<polygon points="720,85 725,80 746,80 746,90 725,90 720,85 " style="fill:white; stroke-width:1; stroke:black; " description="&lt;b&gt;AB986_RS14780&lt;/b&gt;&lt;br&gt;L-lactate dehydrogenase&lt;br&gt;Location: 936038 - 936988" locus_tag="AB986_RS14780" class="clusterblast-orf" id="dummy-3_h3_5_22"  />
</g>
<g id="a3_0023"  >
<polygon points="756,90 759,90 764,85 759,80 756,80 756,90 " style="fill:white; stroke-width:1; stroke:black; " description="&lt;b&gt;AB986_RS14785&lt;/b&gt;&lt;br&gt;carboxymuconolactone decarboxylase family protein&lt;br&gt;Location: 937350 - 937652" locus_tag="AB986_RS14785" class="clusterblast-orf" id="dummy-3_h3_5_23"  />
</g>
<g id="a3_0024"  >
<polygon points="771,90 775,85 771,80 771,90 " style="fill:white; stroke-width:1; stroke:black; " description="&lt;b&gt;AB986_RS22600&lt;/b&gt;&lt;br&gt;hypothetical protein&lt;br&gt;Location: 937880 - 938056" locus_tag="AB986_RS22600" class="clusterblast-orf" id="dummy-3_h3_5_24"  />
</g>
</svg>
