<svg xmlns="http://www.w3.org/2000/svg" xmlns:xlink="http://www.w3.org/1999/xlink" version="1.1" x="0" y="0" height="230" width="800" viewBox="0 0 800 230" preserveAspectRatio="none"  >
<g label="Query sequence" class="clusterblast-cluster"  >
<text x="5" y="20" class="clusterblast-acc"  >
Query sequence</text>
<line x1="10" y1="35" x2="778.0" y2="35" style="stroke-width:1; stroke:grey; "  />
<polygon points="0,40 7,40 12,35 7,30 0,30 0,40 " style="fill:white; stroke-width:1; stroke:black; " description="&lt;b&gt;CopciAB_504759.T0&lt;/b&gt;&lt;br&gt;CopciAB 504759.T0&lt;br&gt;Location: 1509256 - 1510298" locus_tag="CopciAB_504759.T0" class="clusterblast-orf" id="dummy-2_q0_0_all"  />
<polygon points="15,35 20,30 30,30 30,40 20,40 15,35 " style="fill:white; stroke-width:1; stroke:black; " description="&lt;b&gt;CopciAB_537377.T0&lt;/b&gt;&lt;br&gt;CopciAB 537377.T0&lt;br&gt;Location: 1510525 - 1511745" locus_tag="CopciAB_537377.T0" class="clusterblast-orf" id="dummy-2_q1_0_all"  />
<polygon points="35,35 40,30 51,30 51,40 40,40 35,35 " style="fill:white; stroke-width:1; stroke:black; " description="&lt;b&gt;CopciAB_537378.T0&lt;/b&gt;&lt;br&gt;CopciAB 537378.T0&lt;br&gt;Location: 1512155 - 1513440" locus_tag="CopciAB_537378.T0" class="clusterblast-orf" id="dummy-2_q2_0_all"  />
<polygon points="53,35 58,30 87,30 87,40 58,40 53,35 " style="fill:white; stroke-width:1; stroke:black; " description="&lt;b&gt;CopciAB_384835.T0&lt;/b&gt;&lt;br&gt;CopciAB 384835.T0&lt;br&gt;Location: 1513673 - 1516469" locus_tag="CopciAB_384835.T0" class="clusterblast-orf" id="dummy-2_q3_0_all"  />
<polygon points="95,35 100,30 109,30 109,40 100,40 95,35 " style="fill:white; stroke-width:1; stroke:black; " description="&lt;b&gt;CopciAB_461698.T0&lt;/b&gt;&lt;br&gt;CopciAB 461698.T0&lt;br&gt;Location: 1517066 - 1518223" locus_tag="CopciAB_461698.T0" class="clusterblast-orf" id="dummy-2_q4_0_all"  />
<polygon points="119,40 130,40 135,35 130,30 119,30 119,40 " style="fill:white; stroke-width:1; stroke:black; " description="&lt;b&gt;CopciAB_451236.T0&lt;/b&gt;&lt;br&gt;CopciAB 451236.T0&lt;br&gt;Location: 1519026 - 1520375" locus_tag="CopciAB_451236.T0" class="clusterblast-orf" id="dummy-2_q5_0_all"  />
<polygon points="141,40 165,40 170,35 165,30 141,30 141,40 " style="fill:white; stroke-width:1; stroke:black; " description="&lt;b&gt;CopciAB_2218.T0&lt;/b&gt;&lt;br&gt;CopciAB 2218.T0&lt;br&gt;Location: 1520900 - 1523225" locus_tag="CopciAB_2218.T0" class="clusterblast-orf" id="dummy-2_q6_0_all"  />
<polygon points="175,35 180,30 201,30 201,40 180,40 175,35 " style="fill:white; stroke-width:1; stroke:black; " description="&lt;b&gt;CopciAB_492579.T0&lt;/b&gt;&lt;br&gt;CopciAB 492579.T0&lt;br&gt;Location: 1523632 - 1525781" locus_tag="CopciAB_492579.T0" class="clusterblast-orf" id="dummy-2_q7_0_all"  />
<polygon points="203,40 205,40 210,35 205,30 203,30 203,40 " style="fill:white; stroke-width:1; stroke:black; " description="&lt;b&gt;CopciAB_436846.T0&lt;/b&gt;&lt;br&gt;CopciAB 436846.T0&lt;br&gt;Location: 1525955 - 1526547" locus_tag="CopciAB_436846.T0" class="clusterblast-orf" id="dummy-2_q8_0_all"  />
<polygon points="210,35 215,30 233,30 233,40 215,40 210,35 " style="fill:white; stroke-width:1; stroke:black; " description="&lt;b&gt;CopciAB_2422.T0&lt;/b&gt;&lt;br&gt;CopciAB 2422.T0&lt;br&gt;Location: 1526572 - 1528450" locus_tag="CopciAB_2422.T0" class="clusterblast-orf" id="dummy-2_q9_0_all"  />
<polygon points="235,40 269,40 274,35 269,30 235,30 235,40 " style="fill:white; stroke-width:1; stroke:black; " description="&lt;b&gt;CopciAB_2409.T0&lt;/b&gt;&lt;br&gt;CopciAB 2409.T0&lt;br&gt;Location: 1528581 - 1531800" locus_tag="CopciAB_2409.T0" class="clusterblast-orf" id="dummy-2_q10_0_all"  />
<polygon points="277,35 282,30 340,30 340,40 282,40 277,35 " style="fill:white; stroke-width:1; stroke:black; " description="&lt;b&gt;CopciAB_483887.T0&lt;/b&gt;&lt;br&gt;CopciAB 483887.T0&lt;br&gt;Location: 1532016 - 1537237" locus_tag="CopciAB_483887.T0" class="clusterblast-orf" id="dummy-2_q11_0_all"  />
<polygon points="341,40 343,40 348,35 343,30 341,30 341,40 " style="fill:#d81515; stroke-width:1; stroke:black; " description="&lt;b&gt;CopciAB_461705.T0&lt;/b&gt;&lt;br&gt;CopciAB 461705.T0&lt;br&gt;Location: 1537347 - 1537914" locus_tag="CopciAB_461705.T0" class="clusterblast-orf" id="dummy-2_q12_0_all"  />
<polygon points="349,35 354,30 446,30 446,40 354,40 349,35 " style="fill:#15d863; stroke-width:1; stroke:black; " description="&lt;b&gt;CopciAB_354233.T0&lt;/b&gt;&lt;br&gt;CopciAB 354233.T0&lt;br&gt;Location: 1537957 - 1545917" locus_tag="CopciAB_354233.T0" class="clusterblast-orf" id="dummy-2_q13_0_all"  />
<polygon points="455,40 473,40 478,35 473,30 455,30 455,40 " style="fill:#1563d8; stroke-width:1; stroke:black; " description="&lt;b&gt;CopciAB_492586.T0&lt;/b&gt;&lt;br&gt;CopciAB 492586.T0&lt;br&gt;Location: 1546654 - 1548569" locus_tag="CopciAB_492586.T0" class="clusterblast-orf" id="dummy-2_q14_0_all"  />
<polygon points="482,40 486,40 491,35 486,30 482,30 482,40 " style="fill:#b115d8; stroke-width:1; stroke:black; " description="&lt;b&gt;CopciAB_411041.T0&lt;/b&gt;&lt;br&gt;CopciAB 411041.T0&lt;br&gt;Location: 1548867 - 1549655" locus_tag="CopciAB_411041.T0" class="clusterblast-orf" id="dummy-2_q15_0_all"  />
<polygon points="492,35 497,30 573,30 573,40 497,40 492,35 " style="fill:#b1d815; stroke-width:1; stroke:black; " description="&lt;b&gt;CopciAB_451244.T0&lt;/b&gt;&lt;br&gt;CopciAB 451244.T0&lt;br&gt;Location: 1549751 - 1556369" locus_tag="CopciAB_451244.T0" class="clusterblast-orf" id="dummy-2_q16_0_all"  />
<polygon points="576,35 581,30 590,30 590,40 581,40 576,35 " style="fill:white; stroke-width:1; stroke:black; " description="&lt;b&gt;CopciAB_2587.T0&lt;/b&gt;&lt;br&gt;CopciAB 2587.T0&lt;br&gt;Location: 1556658 - 1557807" locus_tag="CopciAB_2587.T0" class="clusterblast-orf" id="dummy-2_q17_0_all"  />
<polygon points="594,40 602,40 607,35 602,30 594,30 594,40 " style="fill:white; stroke-width:1; stroke:black; " description="&lt;b&gt;CopciAB_492590.T0&lt;/b&gt;&lt;br&gt;CopciAB 492590.T0&lt;br&gt;Location: 1558077 - 1559177" locus_tag="CopciAB_492590.T0" class="clusterblast-orf" id="dummy-2_q18_0_all"  />
<polygon points="610,40 623,40 628,35 623,30 610,30 610,40 " style="fill:white; stroke-width:1; stroke:black; " description="&lt;b&gt;CopciAB_353895.T0&lt;/b&gt;&lt;br&gt;CopciAB 353895.T0&lt;br&gt;Location: 1559378 - 1560921" locus_tag="CopciAB_353895.T0" class="clusterblast-orf" id="dummy-2_q19_0_all"  />
<polygon points="630,35 635,30 675,30 675,40 635,40 630,35 " style="fill:white; stroke-width:1; stroke:black; " description="&lt;b&gt;CopciAB_492592.T0&lt;/b&gt;&lt;br&gt;CopciAB 492592.T0&lt;br&gt;Location: 1561059 - 1564721" locus_tag="CopciAB_492592.T0" class="clusterblast-orf" id="dummy-2_q20_0_all"  />
<polygon points="677,40 680,35 677,30 677,40 " style="fill:white; stroke-width:1; stroke:black; " description="&lt;b&gt;CopciAB_2714.T0&lt;/b&gt;&lt;br&gt;CopciAB 2714.T0&lt;br&gt;Location: 1564919 - 1565171" locus_tag="CopciAB_2714.T0" class="clusterblast-orf" id="dummy-2_q21_0_all"  />
<polygon points="680,35 685,30 686,30 686,40 685,40 680,35 " style="fill:white; stroke-width:1; stroke:black; " description="&lt;b&gt;CopciAB_354058.T0&lt;/b&gt;&lt;br&gt;CopciAB 354058.T0&lt;br&gt;Location: 1565167 - 1565693" locus_tag="CopciAB_354058.T0" class="clusterblast-orf" id="dummy-2_q22_0_all"  />
<polygon points="688,40 723,40 728,35 723,30 688,30 688,40 " style="fill:white; stroke-width:1; stroke:black; " description="&lt;b&gt;CopciAB_353952.T0&lt;/b&gt;&lt;br&gt;CopciAB 353952.T0&lt;br&gt;Location: 1565806 - 1569136" locus_tag="CopciAB_353952.T0" class="clusterblast-orf" id="dummy-2_q23_0_all"  />
<polygon points="730,40 740,40 745,35 740,30 730,30 730,40 " style="fill:white; stroke-width:1; stroke:black; " description="&lt;b&gt;CopciAB_436853.T0&lt;/b&gt;&lt;br&gt;CopciAB 436853.T0&lt;br&gt;Location: 1569318 - 1570506" locus_tag="CopciAB_436853.T0" class="clusterblast-orf" id="dummy-2_q24_0_all"  />
<polygon points="752,40 763,40 768,35 763,30 752,30 752,40 " style="fill:white; stroke-width:1; stroke:black; " description="&lt;b&gt;CopciAB_461716.T0&lt;/b&gt;&lt;br&gt;CopciAB 461716.T0&lt;br&gt;Location: 1571129 - 1572388" locus_tag="CopciAB_461716.T0" class="clusterblast-orf" id="dummy-2_q25_0_all"  />
<polygon points="778,40 780,35 778,30 778,40 " style="fill:white; stroke-width:1; stroke:black; " description="&lt;b&gt;CopciAB_1000404.T0&lt;/b&gt;&lt;br&gt;CopciAB 1000404.T0&lt;br&gt;Location: 1573184 - 1573358" locus_tag="CopciAB_1000404.T0" class="clusterblast-orf" id="dummy-2_q26_0_all"  />
</g>
<g label="NW_001939252" description="NW_001939252 (607119-653701): Pyrenophora tritici-repentis Pt-1C-BFP supercon... (15% of genes show similarity), NRPS" class="clusterblast-cluster"  >
<text x="5" y="70" class="clusterblast-acc"  >
<a xlink:href="https://antismash-db.secondarymetabolites.org/area.html?record=NW_001939252&amp;start=607119&amp;end=653701" target="_blank">NW_001939252 (607119-653701)</a>: Pyrenophora tritici-repentis Pt-1C-BFP supercon... (15% of genes show similarity), NRPS</text>
<line x1="10" y1="85" x2="778.0" y2="85" style="stroke-width:1; stroke:grey; "  />
</g>
<g id="a2_000"  >
<polygon points="133,85 138,80 160,80 160,90 138,90 133,85 " style="fill:white; stroke-width:1; stroke:black; " description="&lt;b&gt;PTRG_08286&lt;/b&gt;&lt;br&gt;hypothetical protein&lt;br&gt;Location: 650820 - 648647" locus_tag="PTRG_08286" class="clusterblast-orf" id="dummy-2_h2_8_0"  />
</g>
<g id="a2_001"  >
<polygon points="175,85 180,80 203,80 203,90 180,90 175,85 " style="fill:white; stroke-width:1; stroke:black; " description="&lt;b&gt;PTRG_08285&lt;/b&gt;&lt;br&gt;cell division cycle protein 48&lt;br&gt;Location: 647405 - 645066" locus_tag="PTRG_08285" class="clusterblast-orf" id="dummy-2_h2_8_1"  />
</g>
<g id="a2_002"  >
<polygon points="207,90 241,90 246,85 241,80 207,80 207,90 " style="fill:white; stroke-width:1; stroke:black; " description="&lt;b&gt;PTRG_08284&lt;/b&gt;&lt;br&gt;hypothetical protein&lt;br&gt;Location: 644747 - 641598" locus_tag="PTRG_08284" class="clusterblast-orf" id="dummy-2_h2_8_2"  />
</g>
<g id="a2_003"  >
<polygon points="248,85 253,80 259,80 259,90 253,90 248,85 " style="fill:white; stroke-width:1; stroke:black; " description="&lt;b&gt;PTRG_08283&lt;/b&gt;&lt;br&gt;vacuolar-sorting protein SNF8&lt;br&gt;Location: 641360 - 640530" locus_tag="PTRG_08283" class="clusterblast-orf" id="dummy-2_h2_8_3"  />
</g>
<g id="a2_004"  >
<polygon points="270,90 283,90 288,85 283,80 270,80 270,90 " style="fill:white; stroke-width:1; stroke:black; " description="&lt;b&gt;PTRG_08282&lt;/b&gt;&lt;br&gt;AAR2 domain containing protein&lt;br&gt;Location: 639578 - 638148" locus_tag="PTRG_08282" class="clusterblast-orf" id="dummy-2_h2_8_4"  />
</g>
<g id="a2_005"  >
<polygon points="299,90 301,90 306,85 301,80 299,80 299,90 " style="fill:white; stroke-width:1; stroke:black; " description="&lt;b&gt;PTRG_08281&lt;/b&gt;&lt;br&gt;hypothetical protein&lt;br&gt;Location: 637207 - 636611" locus_tag="PTRG_08281" class="clusterblast-orf" id="dummy-2_h2_8_5"  />
</g>
<g id="a2_006"  >
<polygon points="320,90 332,90 337,85 332,80 320,80 320,90 " style="fill:white; stroke-width:1; stroke:black; " description="&lt;b&gt;PTRG_08280&lt;/b&gt;&lt;br&gt;phosphatidic acid phosphatase beta&lt;br&gt;Location: 635463 - 634081" locus_tag="PTRG_08280" class="clusterblast-orf" id="dummy-2_h2_8_6"  />
</g>
<g id="a2_007"  >
<polygon points="342,85 347,80 362,80 362,90 347,90 342,85 " style="fill:white; stroke-width:1; stroke:black; " description="&lt;b&gt;PTRG_08279&lt;/b&gt;&lt;br&gt;peptide synthetase&lt;br&gt;Location: 633701 - 632022" locus_tag="PTRG_08279" class="clusterblast-orf" id="dummy-2_h2_8_7"  />
</g>
<g id="a2_008"  >
<polygon points="369,85 374,80 422,80 422,90 374,90 369,85 " style="fill:#15d863; stroke-width:1; stroke:black; " description="&lt;b&gt;PTRG_08278&lt;/b&gt;&lt;br&gt;gramicidin S synthetase 1&lt;br&gt;Location: 631429 - 627120&lt;br&gt;&lt;br&gt;&lt;b&gt;BlastP hit with CopciAB_354233.T0&lt;/b&gt;&lt;br&gt;Percentage identity: 31&lt;br&gt;Percentage coverage: 28&lt;br&gt;BLAST bit score: 292&lt;br&gt;E-value: 7.15e-79" locus_tag="PTRG_08278" class="clusterblast-orf" id="dummy-2_h2_8_8"  />
</g>
<g id="a2_009"  >
<polygon points="459,85 461,80 461,90 459,85 " style="fill:white; stroke-width:1; stroke:black; " description="&lt;b&gt;PTRG_08277&lt;/b&gt;&lt;br&gt;nonribosomal peptide synthetase 2&lt;br&gt;Location: 624054 - 623920" locus_tag="PTRG_08277" class="clusterblast-orf" id="dummy-2_h2_8_9"  />
</g>
<g id="a2_0010"  >
<polygon points="527,90 529,85 527,80 527,90 " style="fill:white; stroke-width:1; stroke:black; " description="&lt;b&gt;PTRG_08276&lt;/b&gt;&lt;br&gt;hypothetical protein&lt;br&gt;Location: 618473 - 618297" locus_tag="PTRG_08276" class="clusterblast-orf" id="dummy-2_h2_8_10"  />
</g>
<g id="a2_0011"  >
<polygon points="556,90 602,90 607,85 602,80 556,80 556,90 " style="fill:white; stroke-width:1; stroke:black; " description="&lt;b&gt;PTRG_08275&lt;/b&gt;&lt;br&gt;leptomycin B resistance protein pmd1&lt;br&gt;Location: 616104 - 611856" locus_tag="PTRG_08275" class="clusterblast-orf" id="dummy-2_h2_8_11"  />
</g>
<g id="a2_0012"  >
<polygon points="625,90 641,90 646,85 641,80 625,80 625,90 " style="fill:#1563d8; stroke-width:1; stroke:black; " description="&lt;b&gt;PTRG_08274&lt;/b&gt;&lt;br&gt;L-ornithine 5-monooxygenase (L-ornithine N(5)-oxygenase)&lt;br&gt;Location: 610433 - 608720&lt;br&gt;&lt;br&gt;&lt;b&gt;BlastP hit with CopciAB_492586.T0&lt;/b&gt;&lt;br&gt;Percentage identity: 34&lt;br&gt;Percentage coverage: 101&lt;br&gt;BLAST bit score: 244&lt;br&gt;E-value: 4.29e-72" locus_tag="PTRG_08274" class="clusterblast-orf" id="dummy-2_h2_8_12"  />
</g>
</svg>
