<svg xmlns="http://www.w3.org/2000/svg" xmlns:xlink="http://www.w3.org/1999/xlink" version="1.1" x="0" y="0" height="230" width="800" viewBox="0 0 800 230" preserveAspectRatio="none"  >
<g label="Query sequence" class="clusterblast-cluster"  >
<text x="5" y="20" class="clusterblast-acc"  >
Query sequence</text>
<line x1="10" y1="35" x2="778.0" y2="35" style="stroke-width:1; stroke:grey; "  />
<polygon points="183,40 210,40 215,35 210,30 183,30 183,40 " style="fill:white; stroke-width:1; stroke:black; " description="&lt;b&gt;CopciAB_485193.T0&lt;/b&gt;&lt;br&gt;CopciAB 485193.T0&lt;br&gt;Location: 1414810 - 1416979" locus_tag="CopciAB_485193.T0" class="clusterblast-orf" id="dummy-3_q0_0_all"  />
<polygon points="221,40 230,40 235,35 230,30 221,30 221,40 " style="fill:white; stroke-width:1; stroke:black; " description="&lt;b&gt;CopciAB_452092.T0&lt;/b&gt;&lt;br&gt;CopciAB 452092.T0&lt;br&gt;Location: 1417417 - 1418394" locus_tag="CopciAB_452092.T0" class="clusterblast-orf" id="dummy-3_q1_0_all"  />
<polygon points="242,35 247,30 258,30 258,40 247,40 242,35 " style="fill:#d81515; stroke-width:1; stroke:black; " description="&lt;b&gt;CopciAB_462760.T0&lt;/b&gt;&lt;br&gt;CopciAB 462760.T0&lt;br&gt;Location: 1418847 - 1419955" locus_tag="CopciAB_462760.T0" class="clusterblast-orf" id="dummy-3_q2_0_all"  />
<polygon points="270,35 275,30 286,30 286,40 275,40 270,35 " style="fill:#15d815; stroke-width:1; stroke:black; " description="&lt;b&gt;CopciAB_438130.T0&lt;/b&gt;&lt;br&gt;CopciAB 438130.T0&lt;br&gt;Location: 1420793 - 1421920" locus_tag="CopciAB_438130.T0" class="clusterblast-orf" id="dummy-3_q3_0_all"  />
<polygon points="293,35 298,30 313,30 313,40 298,40 293,35 " style="fill:#1597d8; stroke-width:1; stroke:black; " description="&lt;b&gt;CopciAB_438131.T0&lt;/b&gt;&lt;br&gt;CopciAB 438131.T0&lt;br&gt;Location: 1422451 - 1423833" locus_tag="CopciAB_438131.T0" class="clusterblast-orf" id="dummy-3_q4_0_all"  />
<polygon points="316,40 324,40 329,35 324,30 316,30 316,40 " style="fill:#9715d8; stroke-width:1; stroke:black; " description="&lt;b&gt;CopciAB_30507.T0&lt;/b&gt;&lt;br&gt;CopciAB 30507.T0&lt;br&gt;Location: 1424014 - 1424912" locus_tag="CopciAB_30507.T0" class="clusterblast-orf" id="dummy-3_q5_0_all"  />
<polygon points="341,40 344,40 349,35 344,30 341,30 341,40 " style="fill:white; stroke-width:1; stroke:black; " description="&lt;b&gt;CopciAB_1000673.T0&lt;/b&gt;&lt;br&gt;CopciAB 1000673.T0&lt;br&gt;Location: 1425727 - 1426280" locus_tag="CopciAB_1000673.T0" class="clusterblast-orf" id="dummy-3_q6_0_all"  />
<polygon points="350,40 361,40 366,35 361,30 350,30 350,40 " style="fill:white; stroke-width:1; stroke:black; " description="&lt;b&gt;CopciAB_1000674.T0&lt;/b&gt;&lt;br&gt;CopciAB 1000674.T0&lt;br&gt;Location: 1426398 - 1427484" locus_tag="CopciAB_1000674.T0" class="clusterblast-orf" id="dummy-3_q7_0_all"  />
<polygon points="371,40 384,40 389,35 384,30 371,30 371,40 " style="fill:#d89715; stroke-width:1; stroke:black; " description="&lt;b&gt;CopciAB_30510.T0&lt;/b&gt;&lt;br&gt;CopciAB 30510.T0&lt;br&gt;Location: 1427831 - 1429089" locus_tag="CopciAB_30510.T0" class="clusterblast-orf" id="dummy-3_q8_0_all"  />
<polygon points="403,35 408,30 455,30 455,40 408,40 403,35 " style="fill:#15d897; stroke-width:1; stroke:black; " description="&lt;b&gt;CopciAB_358591.T0&lt;/b&gt;&lt;br&gt;CopciAB 358591.T0&lt;br&gt;Location: 1430058 - 1433651" locus_tag="CopciAB_358591.T0" class="clusterblast-orf" id="dummy-3_q9_0_all"  />
<polygon points="458,40 463,40 468,35 463,30 458,30 458,40 " style="fill:#1515d8; stroke-width:1; stroke:black; " description="&lt;b&gt;CopciAB_438138.T0&lt;/b&gt;&lt;br&gt;CopciAB 438138.T0&lt;br&gt;Location: 1433887 - 1434547" locus_tag="CopciAB_438138.T0" class="clusterblast-orf" id="dummy-3_q10_0_all"  />
<polygon points="475,40 495,40 500,35 495,30 475,30 475,40 " style="fill:#d81597; stroke-width:1; stroke:black; " description="&lt;b&gt;CopciAB_485202.T0&lt;/b&gt;&lt;br&gt;CopciAB 485202.T0&lt;br&gt;Location: 1435028 - 1436789" locus_tag="CopciAB_485202.T0" class="clusterblast-orf" id="dummy-3_q11_0_all"  />
<polygon points="508,35 513,30 596,30 596,40 513,40 508,35 " style="fill:#97d815; stroke-width:1; stroke:black; " description="&lt;b&gt;CopciAB_358738.T0&lt;/b&gt;&lt;br&gt;CopciAB 358738.T0&lt;br&gt;Location: 1437350 - 1443453" locus_tag="CopciAB_358738.T0" class="clusterblast-orf" id="dummy-3_q12_0_all"  />
</g>
<g label="NC_019757" description="NC_019757 (479130-533302): Cylindrospermum stagnale PCC 7417, complete sequence (5% of genes show similarity), NRPS" class="clusterblast-cluster"  >
<text x="5" y="70" class="clusterblast-acc"  >
<a xlink:href="https://antismash-db.secondarymetabolites.org/area.html?record=NC_019757&amp;start=479130&amp;end=533302" target="_blank">NC_019757 (479130-533302)</a>: Cylindrospermum stagnale PCC 7417, complete sequence (5% of genes show similarity), NRPS</text>
<line x1="10" y1="85" x2="778.0" y2="85" style="stroke-width:1; stroke:grey; "  />
</g>
<g id="a3_000"  >
<polygon points="0,90 38,90 43,85 38,80 0,80 0,90 " style="fill:white; stroke-width:1; stroke:black; " description="&lt;b&gt;CYLST_RS02150&lt;/b&gt;&lt;br&gt;NACHT domain-containing NTPase&lt;br&gt;Location: 479131 - 482130" locus_tag="CYLST_RS02150" class="clusterblast-orf" id="dummy-3_h3_6_0"  />
</g>
<g id="a3_001"  >
<polygon points="54,85 59,80 66,80 66,90 59,90 54,85 " style="fill:white; stroke-width:1; stroke:black; " description="&lt;b&gt;CYLST_RS02155&lt;/b&gt;&lt;br&gt;hypothetical protein&lt;br&gt;Location: 482922 - 483761" locus_tag="CYLST_RS02155" class="clusterblast-orf" id="dummy-3_h3_6_1"  />
</g>
<g id="a3_002"  >
<polygon points="74,90 74,90 79,85 74,80 74,80 74,90 " style="fill:white; stroke-width:1; stroke:black; " description="&lt;b&gt;CYLST_RS02160&lt;/b&gt;&lt;br&gt;zinc ribbon domain-containing protein&lt;br&gt;Location: 484299 - 484670" locus_tag="CYLST_RS02160" class="clusterblast-orf" id="dummy-3_h3_6_2"  />
</g>
<g id="a3_003"  >
<polygon points="82,85 87,80 110,80 110,90 87,90 82,85 " style="fill:#97d815; stroke-width:1; stroke:black; " description="&lt;b&gt;CYLST_RS02165&lt;/b&gt;&lt;br&gt;HAMP domain-containing protein&lt;br&gt;Location: 484851 - 486824&lt;br&gt;&lt;br&gt;&lt;b&gt;BlastP hit with CopciAB_358738.T0&lt;/b&gt;&lt;br&gt;Percentage identity: 32&lt;br&gt;Percentage coverage: 18&lt;br&gt;BLAST bit score: 89&lt;br&gt;E-value: 1.38e-15" locus_tag="CYLST_RS02165" class="clusterblast-orf" id="dummy-3_h3_6_3"  />
</g>
<g id="a3_004"  >
<polygon points="113,85 118,80 131,80 131,90 118,90 113,85 " style="fill:white; stroke-width:1; stroke:black; " description="&lt;b&gt;CYLST_RS02170&lt;/b&gt;&lt;br&gt;phosphoribosylamine--glycine ligase&lt;br&gt;Location: 487002 - 488288" locus_tag="CYLST_RS02170" class="clusterblast-orf" id="dummy-3_h3_6_4"  />
</g>
<g id="a3_005"  >
<polygon points="139,90 147,90 152,85 147,80 139,80 139,90 " style="fill:white; stroke-width:1; stroke:black; " description="&lt;b&gt;CYLST_RS02175&lt;/b&gt;&lt;br&gt;NAD-dependent epimerase/dehydratase family protein&lt;br&gt;Location: 488799 - 489743" locus_tag="CYLST_RS02175" class="clusterblast-orf" id="dummy-3_h3_6_5"  />
</g>
<g id="a3_006"  >
<polygon points="154,90 165,90 170,85 165,80 154,80 154,90 " style="fill:white; stroke-width:1; stroke:black; " description="&lt;b&gt;CYLST_RS02180&lt;/b&gt;&lt;br&gt;FIST C-terminal domain-containing protein&lt;br&gt;Location: 489858 - 491006" locus_tag="CYLST_RS02180" class="clusterblast-orf" id="dummy-3_h3_6_6"  />
</g>
<g id="a3_007"  >
<polygon points="171,90 190,90 195,85 190,80 171,80 171,90 " style="fill:white; stroke-width:1; stroke:black; " description="&lt;b&gt;CYLST_RS02185&lt;/b&gt;&lt;br&gt;response regulator&lt;br&gt;Location: 491012 - 492691" locus_tag="CYLST_RS02185" class="clusterblast-orf" id="dummy-3_h3_6_7"  />
</g>
<g id="a3_008"  >
<polygon points="198,90 211,90 216,85 211,80 198,80 198,90 " style="fill:white; stroke-width:1; stroke:black; " description="&lt;b&gt;CYLST_RS02190&lt;/b&gt;&lt;br&gt;response regulator&lt;br&gt;Location: 492888 - 494183" locus_tag="CYLST_RS02190" class="clusterblast-orf" id="dummy-3_h3_6_8"  />
</g>
<g id="a3_009"  >
<polygon points="218,85 223,80 274,80 274,90 223,90 218,85 " style="fill:white; stroke-width:1; stroke:black; " description="&lt;b&gt;CYLST_RS02195&lt;/b&gt;&lt;br&gt;hypothetical protein&lt;br&gt;Location: 494282 - 498226" locus_tag="CYLST_RS02195" class="clusterblast-orf" id="dummy-3_h3_6_9"  />
</g>
<g id="a3_0010"  >
<polygon points="279,90 292,90 297,85 292,80 279,80 279,90 " style="fill:white; stroke-width:1; stroke:black; " description="&lt;b&gt;CYLST_RS02200&lt;/b&gt;&lt;br&gt;hypothetical protein&lt;br&gt;Location: 498515 - 499762" locus_tag="CYLST_RS02200" class="clusterblast-orf" id="dummy-3_h3_6_10"  />
</g>
<g id="a3_0011"  >
<polygon points="299,85 304,80 310,80 310,90 304,90 299,85 " style="fill:white; stroke-width:1; stroke:black; " description="&lt;b&gt;CYLST_RS02205&lt;/b&gt;&lt;br&gt;anti-sigma factor&lt;br&gt;Location: 499928 - 500671" locus_tag="CYLST_RS02205" class="clusterblast-orf" id="dummy-3_h3_6_11"  />
</g>
<g id="a3_0012"  >
<polygon points="310,85 315,80 318,80 318,90 315,90 310,85 " style="fill:white; stroke-width:1; stroke:black; " description="&lt;b&gt;CYLST_RS02210&lt;/b&gt;&lt;br&gt;sigma-70 family RNA polymerase sigma factor&lt;br&gt;Location: 500686 - 501273" locus_tag="CYLST_RS02210" class="clusterblast-orf" id="dummy-3_h3_6_12"  />
</g>
<g id="a3_0013"  >
<polygon points="322,90 326,90 331,85 326,80 322,80 322,90 " style="fill:white; stroke-width:1; stroke:black; " description="&lt;b&gt;CYLST_RS02215&lt;/b&gt;&lt;br&gt;ferritin-like domain-containing protein&lt;br&gt;Location: 501500 - 502156" locus_tag="CYLST_RS02215" class="clusterblast-orf" id="dummy-3_h3_6_13"  />
</g>
<g id="a3_0014"  >
<polygon points="334,90 335,90 340,85 335,80 334,80 334,90 " style="fill:white; stroke-width:1; stroke:black; " description="&lt;b&gt;CYLST_RS02220&lt;/b&gt;&lt;br&gt;hypothetical protein&lt;br&gt;Location: 502368 - 502772" locus_tag="CYLST_RS02220" class="clusterblast-orf" id="dummy-3_h3_6_14"  />
</g>
<g id="a3_0015"  >
<polygon points="344,90 356,90 361,85 356,80 344,80 344,90 " style="fill:white; stroke-width:1; stroke:black; " description="&lt;b&gt;CYLST_RS02225&lt;/b&gt;&lt;br&gt;DUF4331 domain-containing protein&lt;br&gt;Location: 503038 - 504231" locus_tag="CYLST_RS02225" class="clusterblast-orf" id="dummy-3_h3_6_15"  />
</g>
<g id="a3_0016"  >
<polygon points="361,90 377,90 382,85 377,80 361,80 361,90 " style="fill:white; stroke-width:1; stroke:black; " description="&lt;b&gt;CYLST_RS02230&lt;/b&gt;&lt;br&gt;hypothetical protein&lt;br&gt;Location: 504237 - 505670" locus_tag="CYLST_RS02230" class="clusterblast-orf" id="dummy-3_h3_6_16"  />
</g>
<g id="a3_0017"  >
<polygon points="382,90 399,90 404,85 399,80 382,80 382,90 " style="fill:white; stroke-width:1; stroke:black; " description="&lt;b&gt;CYLST_RS02235&lt;/b&gt;&lt;br&gt;sulfite exporter TauE/SafE family protein&lt;br&gt;Location: 505667 - 507199" locus_tag="CYLST_RS02235" class="clusterblast-orf" id="dummy-3_h3_6_17"  />
</g>
<g id="a3_0018"  >
<polygon points="404,90 410,90 415,85 410,80 404,80 404,90 " style="fill:white; stroke-width:1; stroke:black; " description="&lt;b&gt;CYLST_RS02240&lt;/b&gt;&lt;br&gt;PEP-CTERM sorting domain-containing protein&lt;br&gt;Location: 507256 - 507984" locus_tag="CYLST_RS02240" class="clusterblast-orf" id="dummy-3_h3_6_18"  />
</g>
<g id="a3_0019"  >
<polygon points="423,85 428,80 498,80 498,90 428,90 423,85 " style="fill:white; stroke-width:1; stroke:black; " description="&lt;b&gt;CYLST_RS02245&lt;/b&gt;&lt;br&gt;thioester reductase domain-containing protein&lt;br&gt;Location: 508539 - 513776" locus_tag="CYLST_RS02245" class="clusterblast-orf" id="dummy-3_h3_6_19"  />
</g>
<g id="a3_0020"  >
<polygon points="501,85 503,80 503,90 501,85 " style="fill:white; stroke-width:1; stroke:black; " description="&lt;b&gt;CYLST_RS35060&lt;/b&gt;&lt;br&gt;hypothetical protein&lt;br&gt;Location: 513950 - 514114" locus_tag="CYLST_RS35060" class="clusterblast-orf" id="dummy-3_h3_6_20"  />
</g>
<g id="a3_0021"  >
<polygon points="504,90 506,85 504,80 504,90 " style="fill:white; stroke-width:1; stroke:black; " description="&lt;b&gt;CYLST_RS34065&lt;/b&gt;&lt;br&gt;ISNCY family transposase&lt;br&gt;Location: 514154 - 514327" locus_tag="CYLST_RS34065" class="clusterblast-orf" id="dummy-3_h3_6_21"  />
</g>
<g id="a3_0022"  >
<polygon points="511,85 516,80 532,80 532,90 516,90 511,85 " style="fill:white; stroke-width:1; stroke:black; " description="&lt;b&gt;CYLST_RS02250&lt;/b&gt;&lt;br&gt;deoxyribodipyrimidine photo-lyase&lt;br&gt;Location: 514642 - 516084" locus_tag="CYLST_RS02250" class="clusterblast-orf" id="dummy-3_h3_6_22"  />
</g>
<g id="a3_0023"  >
<polygon points="533,90 536,85 533,80 533,90 " style="fill:white; stroke-width:1; stroke:black; " description="&lt;b&gt;CYLST_RS34070&lt;/b&gt;&lt;br&gt;hypothetical protein&lt;br&gt;Location: 516189 - 516365" locus_tag="CYLST_RS34070" class="clusterblast-orf" id="dummy-3_h3_6_23"  />
</g>
<g id="a3_0024"  >
<polygon points="536,85 541,80 609,80 609,90 541,90 536,85 " style="fill:white; stroke-width:1; stroke:black; " description="&lt;b&gt;CYLST_RS02255&lt;/b&gt;&lt;br&gt;VCBS repeat-containing protein&lt;br&gt;Location: 516379 - 521457" locus_tag="CYLST_RS02255" class="clusterblast-orf" id="dummy-3_h3_6_24"  />
</g>
<g id="a3_0025"  >
<polygon points="609,85 614,80 639,80 639,90 614,90 609,85 " style="fill:white; stroke-width:1; stroke:black; " description="&lt;b&gt;CYLST_RS02260&lt;/b&gt;&lt;br&gt;TIGR03032 family protein&lt;br&gt;Location: 521459 - 523558" locus_tag="CYLST_RS02260" class="clusterblast-orf" id="dummy-3_h3_6_25"  />
</g>
<g id="a3_0026"  >
<polygon points="645,85 647,80 647,90 645,85 " style="fill:white; stroke-width:1; stroke:black; " description="&lt;b&gt;CYLST_RS33020&lt;/b&gt;&lt;br&gt;helix-turn-helix transcriptional regulator&lt;br&gt;Location: 523938 - 524090" locus_tag="CYLST_RS33020" class="clusterblast-orf" id="dummy-3_h3_6_26"  />
</g>
<g id="a3_0027"  >
<polygon points="655,90 658,85 655,80 655,90 " style="fill:white; stroke-width:1; stroke:black; " description="&lt;b&gt;CYLST_RS34075&lt;/b&gt;&lt;br&gt;hypothetical protein&lt;br&gt;Location: 524641 - 524871" locus_tag="CYLST_RS34075" class="clusterblast-orf" id="dummy-3_h3_6_27"  />
</g>
<g id="a3_0028"  >
<polygon points="660,90 663,90 668,85 663,80 660,80 660,90 " style="fill:white; stroke-width:1; stroke:black; " description="&lt;b&gt;CYLST_RS02270&lt;/b&gt;&lt;br&gt;hypothetical protein&lt;br&gt;Location: 524986 - 525540" locus_tag="CYLST_RS02270" class="clusterblast-orf" id="dummy-3_h3_6_28"  />
</g>
<g id="a3_0029"  >
<polygon points="669,85 674,80 674,80 674,90 674,90 669,85 " style="fill:white; stroke-width:1; stroke:black; " description="&lt;b&gt;CYLST_RS02275&lt;/b&gt;&lt;br&gt;hypothetical protein&lt;br&gt;Location: 525641 - 525952" locus_tag="CYLST_RS02275" class="clusterblast-orf" id="dummy-3_h3_6_29"  />
</g>
<g id="a3_0030"  >
<polygon points="674,85 679,80 695,80 695,90 679,90 674,85 " style="fill:white; stroke-width:1; stroke:black; " description="&lt;b&gt;CYLST_RS02280&lt;/b&gt;&lt;br&gt;radical SAM protein&lt;br&gt;Location: 525989 - 527407" locus_tag="CYLST_RS02280" class="clusterblast-orf" id="dummy-3_h3_6_30"  />
</g>
<g id="a3_0031"  >
<polygon points="695,85 700,80 705,80 705,90 700,90 695,85 " style="fill:white; stroke-width:1; stroke:black; " description="&lt;b&gt;CYLST_RS02285&lt;/b&gt;&lt;br&gt;prolipoprotein diacylglyceryl transferase&lt;br&gt;Location: 527413 - 528162" locus_tag="CYLST_RS02285" class="clusterblast-orf" id="dummy-3_h3_6_31"  />
</g>
<g id="a3_0032"  >
<polygon points="707,85 712,80 719,80 719,90 712,90 707,85 " style="fill:white; stroke-width:1; stroke:black; " description="&lt;b&gt;CYLST_RS02290&lt;/b&gt;&lt;br&gt;hypothetical protein&lt;br&gt;Location: 528277 - 529074" locus_tag="CYLST_RS02290" class="clusterblast-orf" id="dummy-3_h3_6_32"  />
</g>
<g id="a3_0033"  >
<polygon points="723,85 728,80 728,80 728,90 728,90 723,85 " style="fill:white; stroke-width:1; stroke:black; " description="&lt;b&gt;CYLST_RS02295&lt;/b&gt;&lt;br&gt;four-helix bundle copper-binding protein&lt;br&gt;Location: 529360 - 529722" locus_tag="CYLST_RS02295" class="clusterblast-orf" id="dummy-3_h3_6_33"  />
</g>
<g id="a3_0034"  >
<polygon points="744,85 749,80 760,80 760,90 749,90 744,85 " style="fill:#15d897; stroke-width:1; stroke:black; " description="&lt;b&gt;CYLST_RS02305&lt;/b&gt;&lt;br&gt;cystathionine gamma-synthase&lt;br&gt;Location: 530803 - 531939&lt;br&gt;&lt;br&gt;&lt;b&gt;BlastP hit with CopciAB_358591.T0&lt;/b&gt;&lt;br&gt;Percentage identity: 41&lt;br&gt;Percentage coverage: 40&lt;br&gt;BLAST bit score: 265&lt;br&gt;E-value: 2.41e-78" locus_tag="CYLST_RS02305" class="clusterblast-orf" id="dummy-3_h3_6_34"  />
</g>
<g id="a3_0035"  >
<polygon points="760,85 765,80 780,80 780,90 765,90 760,85 " style="fill:white; stroke-width:1; stroke:black; " description="&lt;b&gt;CYLST_RS02310&lt;/b&gt;&lt;br&gt;cystathionine beta-synthase&lt;br&gt;Location: 531929 - 533302" locus_tag="CYLST_RS02310" class="clusterblast-orf" id="dummy-3_h3_6_35"  />
</g>
</svg>
