<svg xmlns="http://www.w3.org/2000/svg" xmlns:xlink="http://www.w3.org/1999/xlink" version="1.1" x="0" y="0" height="230" width="800" viewBox="0 0 800 230" preserveAspectRatio="none"  >
<g label="Query sequence" class="clusterblast-cluster"  >
<text x="5" y="20" class="clusterblast-acc"  >
Query sequence</text>
<line x1="10" y1="35" x2="778.0" y2="35" style="stroke-width:1; stroke:grey; "  />
<polygon points="18,40 25,40 30,35 25,30 18,30 18,40 " style="fill:white; stroke-width:1; stroke:black; " description="&lt;b&gt;CopciAB_504759.T0&lt;/b&gt;&lt;br&gt;CopciAB 504759.T0&lt;br&gt;Location: 1509256 - 1510298" locus_tag="CopciAB_504759.T0" class="clusterblast-orf" id="dummy-2_q0_0_all"  />
<polygon points="32,35 37,30 47,30 47,40 37,40 32,35 " style="fill:white; stroke-width:1; stroke:black; " description="&lt;b&gt;CopciAB_537377.T0&lt;/b&gt;&lt;br&gt;CopciAB 537377.T0&lt;br&gt;Location: 1510525 - 1511745" locus_tag="CopciAB_537377.T0" class="clusterblast-orf" id="dummy-2_q1_0_all"  />
<polygon points="51,35 56,30 66,30 66,40 56,40 51,35 " style="fill:white; stroke-width:1; stroke:black; " description="&lt;b&gt;CopciAB_537378.T0&lt;/b&gt;&lt;br&gt;CopciAB 537378.T0&lt;br&gt;Location: 1512155 - 1513440" locus_tag="CopciAB_537378.T0" class="clusterblast-orf" id="dummy-2_q2_0_all"  />
<polygon points="69,35 74,30 101,30 101,40 74,40 69,35 " style="fill:white; stroke-width:1; stroke:black; " description="&lt;b&gt;CopciAB_384835.T0&lt;/b&gt;&lt;br&gt;CopciAB 384835.T0&lt;br&gt;Location: 1513673 - 1516469" locus_tag="CopciAB_384835.T0" class="clusterblast-orf" id="dummy-2_q3_0_all"  />
<polygon points="108,35 113,30 122,30 122,40 113,40 108,35 " style="fill:white; stroke-width:1; stroke:black; " description="&lt;b&gt;CopciAB_461698.T0&lt;/b&gt;&lt;br&gt;CopciAB 461698.T0&lt;br&gt;Location: 1517066 - 1518223" locus_tag="CopciAB_461698.T0" class="clusterblast-orf" id="dummy-2_q4_0_all"  />
<polygon points="131,40 142,40 147,35 142,30 131,30 131,40 " style="fill:white; stroke-width:1; stroke:black; " description="&lt;b&gt;CopciAB_451236.T0&lt;/b&gt;&lt;br&gt;CopciAB 451236.T0&lt;br&gt;Location: 1519026 - 1520375" locus_tag="CopciAB_451236.T0" class="clusterblast-orf" id="dummy-2_q5_0_all"  />
<polygon points="153,40 175,40 180,35 175,30 153,30 153,40 " style="fill:white; stroke-width:1; stroke:black; " description="&lt;b&gt;CopciAB_2218.T0&lt;/b&gt;&lt;br&gt;CopciAB 2218.T0&lt;br&gt;Location: 1520900 - 1523225" locus_tag="CopciAB_2218.T0" class="clusterblast-orf" id="dummy-2_q6_0_all"  />
<polygon points="185,35 190,30 209,30 209,40 190,40 185,35 " style="fill:white; stroke-width:1; stroke:black; " description="&lt;b&gt;CopciAB_492579.T0&lt;/b&gt;&lt;br&gt;CopciAB 492579.T0&lt;br&gt;Location: 1523632 - 1525781" locus_tag="CopciAB_492579.T0" class="clusterblast-orf" id="dummy-2_q7_0_all"  />
<polygon points="212,40 213,40 218,35 213,30 212,30 212,40 " style="fill:white; stroke-width:1; stroke:black; " description="&lt;b&gt;CopciAB_436846.T0&lt;/b&gt;&lt;br&gt;CopciAB 436846.T0&lt;br&gt;Location: 1525955 - 1526547" locus_tag="CopciAB_436846.T0" class="clusterblast-orf" id="dummy-2_q8_0_all"  />
<polygon points="219,35 224,30 240,30 240,40 224,40 219,35 " style="fill:white; stroke-width:1; stroke:black; " description="&lt;b&gt;CopciAB_2422.T0&lt;/b&gt;&lt;br&gt;CopciAB 2422.T0&lt;br&gt;Location: 1526572 - 1528450" locus_tag="CopciAB_2422.T0" class="clusterblast-orf" id="dummy-2_q9_0_all"  />
<polygon points="242,40 274,40 279,35 274,30 242,30 242,40 " style="fill:white; stroke-width:1; stroke:black; " description="&lt;b&gt;CopciAB_2409.T0&lt;/b&gt;&lt;br&gt;CopciAB 2409.T0&lt;br&gt;Location: 1528581 - 1531800" locus_tag="CopciAB_2409.T0" class="clusterblast-orf" id="dummy-2_q10_0_all"  />
<polygon points="282,35 287,30 342,30 342,40 287,40 282,35 " style="fill:white; stroke-width:1; stroke:black; " description="&lt;b&gt;CopciAB_483887.T0&lt;/b&gt;&lt;br&gt;CopciAB 483887.T0&lt;br&gt;Location: 1532016 - 1537237" locus_tag="CopciAB_483887.T0" class="clusterblast-orf" id="dummy-2_q11_0_all"  />
<polygon points="344,40 345,40 350,35 345,30 344,30 344,40 " style="fill:#d81515; stroke-width:1; stroke:black; " description="&lt;b&gt;CopciAB_461705.T0&lt;/b&gt;&lt;br&gt;CopciAB 461705.T0&lt;br&gt;Location: 1537347 - 1537914" locus_tag="CopciAB_461705.T0" class="clusterblast-orf" id="dummy-2_q12_0_all"  />
<polygon points="351,35 356,30 443,30 443,40 356,40 351,35 " style="fill:#15d863; stroke-width:1; stroke:black; " description="&lt;b&gt;CopciAB_354233.T0&lt;/b&gt;&lt;br&gt;CopciAB 354233.T0&lt;br&gt;Location: 1537957 - 1545917" locus_tag="CopciAB_354233.T0" class="clusterblast-orf" id="dummy-2_q13_0_all"  />
<polygon points="452,40 469,40 474,35 469,30 452,30 452,40 " style="fill:#1563d8; stroke-width:1; stroke:black; " description="&lt;b&gt;CopciAB_492586.T0&lt;/b&gt;&lt;br&gt;CopciAB 492586.T0&lt;br&gt;Location: 1546654 - 1548569" locus_tag="CopciAB_492586.T0" class="clusterblast-orf" id="dummy-2_q14_0_all"  />
<polygon points="477,40 481,40 486,35 481,30 477,30 477,40 " style="fill:#b115d8; stroke-width:1; stroke:black; " description="&lt;b&gt;CopciAB_411041.T0&lt;/b&gt;&lt;br&gt;CopciAB 411041.T0&lt;br&gt;Location: 1548867 - 1549655" locus_tag="CopciAB_411041.T0" class="clusterblast-orf" id="dummy-2_q15_0_all"  />
<polygon points="488,35 493,30 564,30 564,40 493,40 488,35 " style="fill:#b1d815; stroke-width:1; stroke:black; " description="&lt;b&gt;CopciAB_451244.T0&lt;/b&gt;&lt;br&gt;CopciAB 451244.T0&lt;br&gt;Location: 1549751 - 1556369" locus_tag="CopciAB_451244.T0" class="clusterblast-orf" id="dummy-2_q16_0_all"  />
<polygon points="568,35 573,30 581,30 581,40 573,40 568,35 " style="fill:white; stroke-width:1; stroke:black; " description="&lt;b&gt;CopciAB_2587.T0&lt;/b&gt;&lt;br&gt;CopciAB 2587.T0&lt;br&gt;Location: 1556658 - 1557807" locus_tag="CopciAB_2587.T0" class="clusterblast-orf" id="dummy-2_q17_0_all"  />
<polygon points="584,40 592,40 597,35 592,30 584,30 584,40 " style="fill:white; stroke-width:1; stroke:black; " description="&lt;b&gt;CopciAB_492590.T0&lt;/b&gt;&lt;br&gt;CopciAB 492590.T0&lt;br&gt;Location: 1558077 - 1559177" locus_tag="CopciAB_492590.T0" class="clusterblast-orf" id="dummy-2_q18_0_all"  />
<polygon points="599,40 612,40 617,35 612,30 599,30 599,40 " style="fill:white; stroke-width:1; stroke:black; " description="&lt;b&gt;CopciAB_353895.T0&lt;/b&gt;&lt;br&gt;CopciAB 353895.T0&lt;br&gt;Location: 1559378 - 1560921" locus_tag="CopciAB_353895.T0" class="clusterblast-orf" id="dummy-2_q19_0_all"  />
<polygon points="619,35 624,30 661,30 661,40 624,40 619,35 " style="fill:white; stroke-width:1; stroke:black; " description="&lt;b&gt;CopciAB_492592.T0&lt;/b&gt;&lt;br&gt;CopciAB 492592.T0&lt;br&gt;Location: 1561059 - 1564721" locus_tag="CopciAB_492592.T0" class="clusterblast-orf" id="dummy-2_q20_0_all"  />
<polygon points="664,40 666,35 664,30 664,40 " style="fill:white; stroke-width:1; stroke:black; " description="&lt;b&gt;CopciAB_2714.T0&lt;/b&gt;&lt;br&gt;CopciAB 2714.T0&lt;br&gt;Location: 1564919 - 1565171" locus_tag="CopciAB_2714.T0" class="clusterblast-orf" id="dummy-2_q21_0_all"  />
<polygon points="666,35 671,30 673,30 673,40 671,40 666,35 " style="fill:white; stroke-width:1; stroke:black; " description="&lt;b&gt;CopciAB_354058.T0&lt;/b&gt;&lt;br&gt;CopciAB 354058.T0&lt;br&gt;Location: 1565167 - 1565693" locus_tag="CopciAB_354058.T0" class="clusterblast-orf" id="dummy-2_q22_0_all"  />
<polygon points="674,40 707,40 712,35 707,30 674,30 674,40 " style="fill:white; stroke-width:1; stroke:black; " description="&lt;b&gt;CopciAB_353952.T0&lt;/b&gt;&lt;br&gt;CopciAB 353952.T0&lt;br&gt;Location: 1565806 - 1569136" locus_tag="CopciAB_353952.T0" class="clusterblast-orf" id="dummy-2_q23_0_all"  />
<polygon points="715,40 723,40 728,35 723,30 715,30 715,40 " style="fill:white; stroke-width:1; stroke:black; " description="&lt;b&gt;CopciAB_436853.T0&lt;/b&gt;&lt;br&gt;CopciAB 436853.T0&lt;br&gt;Location: 1569318 - 1570506" locus_tag="CopciAB_436853.T0" class="clusterblast-orf" id="dummy-2_q24_0_all"  />
<polygon points="736,40 745,40 750,35 745,30 736,30 736,40 " style="fill:white; stroke-width:1; stroke:black; " description="&lt;b&gt;CopciAB_461716.T0&lt;/b&gt;&lt;br&gt;CopciAB 461716.T0&lt;br&gt;Location: 1571129 - 1572388" locus_tag="CopciAB_461716.T0" class="clusterblast-orf" id="dummy-2_q25_0_all"  />
<polygon points="759,40 761,35 759,30 759,40 " style="fill:white; stroke-width:1; stroke:black; " description="&lt;b&gt;CopciAB_1000404.T0&lt;/b&gt;&lt;br&gt;CopciAB 1000404.T0&lt;br&gt;Location: 1573184 - 1573358" locus_tag="CopciAB_1000404.T0" class="clusterblast-orf" id="dummy-2_q26_0_all"  />
</g>
<g label="NZ_CP048812" description="NZ_CP048812 (221259-289458): Halomonas socia strain CKY01 chromosome, complet... (7% of genes show similarity), NRPS" class="clusterblast-cluster"  >
<text x="5" y="70" class="clusterblast-acc"  >
<a xlink:href="https://antismash-db.secondarymetabolites.org/area.html?record=NZ_CP048812&amp;start=221259&amp;end=289458" target="_blank">NZ_CP048812 (221259-289458)</a>: Halomonas socia strain CKY01 chromosome, complet... (7% of genes show similarity), NRPS</text>
<line x1="10" y1="85" x2="778.0" y2="85" style="stroke-width:1; stroke:grey; "  />
</g>
<g id="a2_000"  >
<polygon points="0,90 19,90 24,85 19,80 0,80 0,90 " style="fill:white; stroke-width:1; stroke:black; " description="&lt;b&gt;G3568_RS01060&lt;/b&gt;&lt;br&gt;TonB-dependent siderophore receptor&lt;br&gt;Location: 221943 - 224042" locus_tag="G3568_RS01060" class="clusterblast-orf" id="dummy-2_h2_4_0"  />
</g>
<g id="a2_001"  >
<polygon points="25,90 30,90 35,85 30,80 25,80 25,90 " style="fill:white; stroke-width:1; stroke:black; " description="&lt;b&gt;G3568_RS01065&lt;/b&gt;&lt;br&gt;ABC transporter substrate-binding protein&lt;br&gt;Location: 224152 - 225042" locus_tag="G3568_RS01065" class="clusterblast-orf" id="dummy-2_h2_4_1"  />
</g>
<g id="a2_002"  >
<polygon points="36,85 41,80 55,80 55,90 41,90 36,85 " style="fill:white; stroke-width:1; stroke:black; " description="&lt;b&gt;G3568_RS01070&lt;/b&gt;&lt;br&gt;multidrug ABC transporter permease/ATP-binding protein&lt;br&gt;Location: 225083 - 226753" locus_tag="G3568_RS01070" class="clusterblast-orf" id="dummy-2_h2_4_2"  />
</g>
<g id="a2_003"  >
<polygon points="57,85 62,80 80,80 80,90 62,90 57,85 " style="fill:white; stroke-width:1; stroke:black; " description="&lt;b&gt;G3568_RS01075&lt;/b&gt;&lt;br&gt;Fe(3+)-hydroxamate ABC transporter permease FhuB&lt;br&gt;Location: 226936 - 228918" locus_tag="G3568_RS01075" class="clusterblast-orf" id="dummy-2_h2_4_3"  />
</g>
<g id="a2_004"  >
<polygon points="83,90 89,90 94,85 89,80 83,80 83,90 " style="fill:white; stroke-width:1; stroke:black; " description="&lt;b&gt;G3568_RS01080&lt;/b&gt;&lt;br&gt;siderophore-interacting protein&lt;br&gt;Location: 229126 - 230052" locus_tag="G3568_RS01080" class="clusterblast-orf" id="dummy-2_h2_4_4"  />
</g>
<g id="a2_005"  >
<polygon points="95,90 95,90 100,85 95,80 95,80 95,90 " style="fill:white; stroke-width:1; stroke:black; " description="&lt;b&gt;G3568_RS01085&lt;/b&gt;&lt;br&gt;hypothetical protein&lt;br&gt;Location: 230193 - 230597" locus_tag="G3568_RS01085" class="clusterblast-orf" id="dummy-2_h2_4_5"  />
</g>
<g id="a2_006"  >
<polygon points="101,90 105,90 110,85 105,80 101,80 101,90 " style="fill:white; stroke-width:1; stroke:black; " description="&lt;b&gt;G3568_RS01090&lt;/b&gt;&lt;br&gt;ATP-binding cassette domain-containing protein&lt;br&gt;Location: 230710 - 231477" locus_tag="G3568_RS01090" class="clusterblast-orf" id="dummy-2_h2_4_6"  />
</g>
<g id="a2_007"  >
<polygon points="111,90 121,90 126,85 121,80 111,80 111,90 " style="fill:white; stroke-width:1; stroke:black; " description="&lt;b&gt;G3568_RS01095&lt;/b&gt;&lt;br&gt;MFS transporter&lt;br&gt;Location: 231563 - 232807" locus_tag="G3568_RS01095" class="clusterblast-orf" id="dummy-2_h2_4_7"  />
</g>
<g id="a2_008"  >
<polygon points="126,90 127,85 126,80 126,90 " style="fill:white; stroke-width:1; stroke:black; " description="&lt;b&gt;G3568_RS01100&lt;/b&gt;&lt;br&gt;type II toxin-antitoxin system HigB family toxin&lt;br&gt;Location: 232846 - 232926" locus_tag="G3568_RS01100" class="clusterblast-orf" id="dummy-2_h2_4_8"  />
</g>
<g id="a2_009"  >
<polygon points="127,90 127,90 132,85 127,80 127,80 127,90 " style="fill:white; stroke-width:1; stroke:black; " description="&lt;b&gt;G3568_RS01105&lt;/b&gt;&lt;br&gt;transcriptional regulator&lt;br&gt;Location: 232929 - 233344" locus_tag="G3568_RS01105" class="clusterblast-orf" id="dummy-2_h2_4_9"  />
</g>
<g id="a2_0010"  >
<polygon points="133,85 138,80 152,80 152,90 138,90 133,85 " style="fill:white; stroke-width:1; stroke:black; " description="&lt;b&gt;G3568_RS01110&lt;/b&gt;&lt;br&gt;cyclic peptide export ABC transporter&lt;br&gt;Location: 233424 - 235055" locus_tag="G3568_RS01110" class="clusterblast-orf" id="dummy-2_h2_4_10"  />
</g>
<g id="a2_0011"  >
<polygon points="153,90 161,90 166,85 161,80 153,80 153,90 " style="fill:white; stroke-width:1; stroke:black; " description="&lt;b&gt;G3568_RS01115&lt;/b&gt;&lt;br&gt;acetyltransferase&lt;br&gt;Location: 235212 - 236318" locus_tag="G3568_RS01115" class="clusterblast-orf" id="dummy-2_h2_4_11"  />
</g>
<g id="a2_0012"  >
<polygon points="167,90 177,90 182,85 177,80 167,80 167,90 " style="fill:#1563d8; stroke-width:1; stroke:black; " description="&lt;b&gt;G3568_RS01120&lt;/b&gt;&lt;br&gt;lysine N(6)-hydroxylase/L-ornithine N(5)-oxygenase family protein&lt;br&gt;Location: 236342 - 237646&lt;br&gt;&lt;br&gt;&lt;b&gt;BlastP hit with CopciAB_492586.T0&lt;/b&gt;&lt;br&gt;Percentage identity: 31&lt;br&gt;Percentage coverage: 97&lt;br&gt;BLAST bit score: 231&lt;br&gt;E-value: 3.72e-68" locus_tag="G3568_RS01120" class="clusterblast-orf" id="dummy-2_h2_4_12"  />
</g>
<g id="a2_0013"  >
<polygon points="184,90 205,90 210,85 205,80 184,80 184,90 " style="fill:white; stroke-width:1; stroke:black; " description="&lt;b&gt;G3568_RS01125&lt;/b&gt;&lt;br&gt;TonB-dependent siderophore receptor&lt;br&gt;Location: 237877 - 240123" locus_tag="G3568_RS01125" class="clusterblast-orf" id="dummy-2_h2_4_13"  />
</g>
<g id="a2_0014"  >
<polygon points="212,90 218,90 223,85 218,80 212,80 212,90 " style="fill:white; stroke-width:1; stroke:black; " description="&lt;b&gt;G3568_RS01130&lt;/b&gt;&lt;br&gt;ABC transporter substrate-binding protein&lt;br&gt;Location: 240276 - 241181" locus_tag="G3568_RS01130" class="clusterblast-orf" id="dummy-2_h2_4_14"  />
</g>
<g id="a2_0015"  >
<polygon points="224,85 229,80 258,80 258,90 229,90 224,85 " style="fill:#15d863; stroke-width:1; stroke:black; " description="&lt;b&gt;G3568_RS01135&lt;/b&gt;&lt;br&gt;amino acid adenylation domain-containing protein&lt;br&gt;Location: 241260 - 244205&lt;br&gt;&lt;br&gt;&lt;b&gt;BlastP hit with CopciAB_354233.T0&lt;/b&gt;&lt;br&gt;Percentage identity: 31&lt;br&gt;Percentage coverage: 26&lt;br&gt;BLAST bit score: 239&lt;br&gt;E-value: 3.06e-62" locus_tag="G3568_RS01135" class="clusterblast-orf" id="dummy-2_h2_4_15"  />
</g>
<g id="a2_0016"  >
<polygon points="257,85 262,80 262,80 262,90 262,90 257,85 " style="fill:white; stroke-width:1; stroke:black; " description="&lt;b&gt;G3568_RS01140&lt;/b&gt;&lt;br&gt;hypothetical protein&lt;br&gt;Location: 244181 - 244543" locus_tag="G3568_RS01140" class="clusterblast-orf" id="dummy-2_h2_4_16"  />
</g>
<g id="a2_0017"  >
<polygon points="261,85 266,80 384,80 384,90 266,90 261,85 " style="fill:white; stroke-width:1; stroke:black; " description="&lt;b&gt;G3568_RS01145&lt;/b&gt;&lt;br&gt;amino acid adenylation domain-containing protein&lt;br&gt;Location: 244447 - 255078" locus_tag="G3568_RS01145" class="clusterblast-orf" id="dummy-2_h2_4_17"  />
</g>
<g id="a2_0018"  >
<polygon points="384,85 389,80 460,80 460,90 389,90 384,85 " style="fill:#15d863; stroke-width:1; stroke:black; " description="&lt;b&gt;G3568_RS01150&lt;/b&gt;&lt;br&gt;amino acid adenylation domain-containing protein&lt;br&gt;Location: 255075 - 261638&lt;br&gt;&lt;br&gt;&lt;b&gt;BlastP hit with CopciAB_354233.T0&lt;/b&gt;&lt;br&gt;Percentage identity: 31&lt;br&gt;Percentage coverage: 26&lt;br&gt;BLAST bit score: 246&lt;br&gt;E-value: 4.82e-63" locus_tag="G3568_RS01150" class="clusterblast-orf" id="dummy-2_h2_4_18"  />
</g>
<g id="a2_0019"  >
<polygon points="460,85 465,80 497,80 497,90 465,90 460,85 " style="fill:white; stroke-width:1; stroke:black; " description="&lt;b&gt;G3568_RS01155&lt;/b&gt;&lt;br&gt;amino acid adenylation domain-containing protein&lt;br&gt;Location: 261640 - 264813" locus_tag="G3568_RS01155" class="clusterblast-orf" id="dummy-2_h2_4_19"  />
</g>
<g id="a2_0020"  >
<polygon points="497,85 502,80 551,80 551,90 502,90 497,85 " style="fill:white; stroke-width:1; stroke:black; " description="&lt;b&gt;G3568_RS01160&lt;/b&gt;&lt;br&gt;AMP-binding protein&lt;br&gt;Location: 264839 - 269458" locus_tag="G3568_RS01160" class="clusterblast-orf" id="dummy-2_h2_4_20"  />
</g>
<g id="a2_0021"  >
<polygon points="552,85 557,80 561,80 561,90 557,90 552,85 " style="fill:white; stroke-width:1; stroke:black; " description="&lt;b&gt;G3568_RS01165&lt;/b&gt;&lt;br&gt;4'-phosphopantetheinyl transferase superfamily protein&lt;br&gt;Location: 269600 - 270337" locus_tag="G3568_RS01165" class="clusterblast-orf" id="dummy-2_h2_4_21"  />
</g>
<g id="a2_0022"  >
<polygon points="561,85 566,80 569,80 569,90 566,90 561,85 " style="fill:white; stroke-width:1; stroke:black; " description="&lt;b&gt;G3568_RS01170&lt;/b&gt;&lt;br&gt;thioesterase&lt;br&gt;Location: 270315 - 271058" locus_tag="G3568_RS01170" class="clusterblast-orf" id="dummy-2_h2_4_22"  />
</g>
<g id="a2_0023"  >
<polygon points="569,85 572,80 572,90 569,85 " style="fill:white; stroke-width:1; stroke:black; " description="&lt;b&gt;G3568_RS01175&lt;/b&gt;&lt;br&gt;MbtH family NRPS accessory protein&lt;br&gt;Location: 271048 - 271293" locus_tag="G3568_RS01175" class="clusterblast-orf" id="dummy-2_h2_4_23"  />
</g>
<g id="a2_0024"  >
<polygon points="574,85 576,80 576,90 574,85 " style="fill:white; stroke-width:1; stroke:black; " description="&lt;b&gt;G3568_RS01180&lt;/b&gt;&lt;br&gt;DUF4880 domain-containing protein&lt;br&gt;Location: 271452 - 271652" locus_tag="G3568_RS01180" class="clusterblast-orf" id="dummy-2_h2_4_24"  />
</g>
<g id="a2_0025"  >
<polygon points="577,85 582,80 583,80 583,90 582,90 577,85 " style="fill:white; stroke-width:1; stroke:black; " description="&lt;b&gt;G3568_RS01185&lt;/b&gt;&lt;br&gt;sigma-70 family RNA polymerase sigma factor&lt;br&gt;Location: 271753 - 272262" locus_tag="G3568_RS01185" class="clusterblast-orf" id="dummy-2_h2_4_25"  />
</g>
<g id="a2_0026"  >
<polygon points="589,85 594,80 613,80 613,90 594,90 589,85 " style="fill:white; stroke-width:1; stroke:black; " description="&lt;b&gt;G3568_RS01190&lt;/b&gt;&lt;br&gt;TonB-dependent siderophore receptor&lt;br&gt;Location: 272759 - 274855" locus_tag="G3568_RS01190" class="clusterblast-orf" id="dummy-2_h2_4_26"  />
</g>
<g id="a2_0027"  >
<polygon points="615,85 620,80 625,80 625,90 620,90 615,85 " style="fill:white; stroke-width:1; stroke:black; " description="&lt;b&gt;G3568_RS01195&lt;/b&gt;&lt;br&gt;formyltetrahydrofolate deformylase&lt;br&gt;Location: 274987 - 275852" locus_tag="G3568_RS01195" class="clusterblast-orf" id="dummy-2_h2_4_27"  />
</g>
<g id="a2_0028"  >
<polygon points="627,85 632,80 635,80 635,90 632,90 627,85 " style="fill:white; stroke-width:1; stroke:black; " description="&lt;b&gt;G3568_RS01200&lt;/b&gt;&lt;br&gt;sarcosine oxidase subunit gamma&lt;br&gt;Location: 276064 - 276717" locus_tag="G3568_RS01200" class="clusterblast-orf" id="dummy-2_h2_4_28"  />
</g>
<g id="a2_0029"  >
<polygon points="635,85 640,80 670,80 670,90 640,90 635,85 " style="fill:white; stroke-width:1; stroke:black; " description="&lt;b&gt;G3568_RS01205&lt;/b&gt;&lt;br&gt;sarcosine oxidase subunit alpha family protein&lt;br&gt;Location: 276710 - 279754" locus_tag="G3568_RS01205" class="clusterblast-orf" id="dummy-2_h2_4_29"  />
</g>
<g id="a2_0030"  >
<polygon points="670,85 674,80 674,90 670,85 " style="fill:white; stroke-width:1; stroke:black; " description="&lt;b&gt;G3568_RS01210&lt;/b&gt;&lt;br&gt;sarcosine oxidase subunit delta&lt;br&gt;Location: 279751 - 280092" locus_tag="G3568_RS01210" class="clusterblast-orf" id="dummy-2_h2_4_30"  />
</g>
<g id="a2_0031"  >
<polygon points="678,85 683,80 692,80 692,90 683,90 678,85 " style="fill:white; stroke-width:1; stroke:black; " description="&lt;b&gt;G3568_RS01215&lt;/b&gt;&lt;br&gt;sarcosine oxidase subunit beta family protein&lt;br&gt;Location: 280394 - 281644" locus_tag="G3568_RS01215" class="clusterblast-orf" id="dummy-2_h2_4_31"  />
</g>
<g id="a2_0032"  >
<polygon points="695,85 700,80 709,80 709,90 700,90 695,85 " style="fill:white; stroke-width:1; stroke:black; " description="&lt;b&gt;G3568_RS01220&lt;/b&gt;&lt;br&gt;TRAP transporter large permease&lt;br&gt;Location: 281853 - 283135" locus_tag="G3568_RS01220" class="clusterblast-orf" id="dummy-2_h2_4_32"  />
</g>
<g id="a2_0033"  >
<polygon points="709,85 714,80 715,80 715,90 714,90 709,85 " style="fill:white; stroke-width:1; stroke:black; " description="&lt;b&gt;G3568_RS01225&lt;/b&gt;&lt;br&gt;TRAP transporter small permease&lt;br&gt;Location: 283132 - 283641" locus_tag="G3568_RS01225" class="clusterblast-orf" id="dummy-2_h2_4_33"  />
</g>
<g id="a2_0034"  >
<polygon points="716,85 721,80 728,80 728,90 721,90 716,85 " style="fill:white; stroke-width:1; stroke:black; " description="&lt;b&gt;G3568_RS01230&lt;/b&gt;&lt;br&gt;C4-dicarboxylate ABC transporter substrate-binding protein&lt;br&gt;Location: 283705 - 284727" locus_tag="G3568_RS01230" class="clusterblast-orf" id="dummy-2_h2_4_34"  />
</g>
<g id="a2_0035"  >
<polygon points="730,90 737,90 742,85 737,80 730,80 730,90 " style="fill:white; stroke-width:1; stroke:black; " description="&lt;b&gt;G3568_RS01235&lt;/b&gt;&lt;br&gt;GlxA family transcriptional regulator&lt;br&gt;Location: 284918 - 285970" locus_tag="G3568_RS01235" class="clusterblast-orf" id="dummy-2_h2_4_35"  />
</g>
<g id="a2_0036"  >
<polygon points="743,85 748,80 758,80 758,90 748,90 743,85 " style="fill:white; stroke-width:1; stroke:black; " description="&lt;b&gt;G3568_RS01240&lt;/b&gt;&lt;br&gt;serine hydroxymethyltransferase&lt;br&gt;Location: 286036 - 287361" locus_tag="G3568_RS01240" class="clusterblast-orf" id="dummy-2_h2_4_36"  />
</g>
<g id="a2_0037"  >
<polygon points="761,90 766,90 771,85 766,80 761,80 761,90 " style="fill:white; stroke-width:1; stroke:black; " description="&lt;b&gt;G3568_RS01245&lt;/b&gt;&lt;br&gt;AEC family transporter&lt;br&gt;Location: 287606 - 288484" locus_tag="G3568_RS01245" class="clusterblast-orf" id="dummy-2_h2_4_37"  />
</g>
<g id="a2_0038"  >
<polygon points="773,90 775,90 780,85 775,80 773,80 773,90 " style="fill:white; stroke-width:1; stroke:black; " description="&lt;b&gt;G3568_RS01250&lt;/b&gt;&lt;br&gt;hypothetical protein&lt;br&gt;Location: 288630 - 289175" locus_tag="G3568_RS01250" class="clusterblast-orf" id="dummy-2_h2_4_38"  />
</g>
</svg>
