<svg xmlns="http://www.w3.org/2000/svg" xmlns:xlink="http://www.w3.org/1999/xlink" version="1.1" x="0" y="0" height="230" width="800" viewBox="0 0 800 230" preserveAspectRatio="none"  >
<g label="Query sequence" class="clusterblast-cluster"  >
<text x="5" y="20" class="clusterblast-acc"  >
Query sequence</text>
<line x1="10" y1="35" x2="778.0" y2="35" style="stroke-width:1; stroke:grey; "  />
<polygon points="0,40 45,40 50,35 45,30 0,30 0,40 " style="fill:white; stroke-width:1; stroke:black; " description="&lt;b&gt;CopciAB_467191.T0&lt;/b&gt;&lt;br&gt;CopciAB 467191.T0&lt;br&gt;Location: 865635 - 867502" locus_tag="CopciAB_467191.T0" class="clusterblast-orf" id="dummy-1_q0_0_all"  />
<polygon points="53,35 58,30 115,30 115,40 58,40 53,35 " style="fill:white; stroke-width:1; stroke:black; " description="&lt;b&gt;CopciAB_141512.T0&lt;/b&gt;&lt;br&gt;CopciAB 141512.T0&lt;br&gt;Location: 867640 - 869935" locus_tag="CopciAB_141512.T0" class="clusterblast-orf" id="dummy-1_q1_0_all"  />
<polygon points="127,35 132,30 154,30 154,40 132,40 127,35 " style="fill:white; stroke-width:1; stroke:black; " description="&lt;b&gt;CopciAB_519084.T0&lt;/b&gt;&lt;br&gt;CopciAB 519084.T0&lt;br&gt;Location: 870387 - 871382" locus_tag="CopciAB_519084.T0" class="clusterblast-orf" id="dummy-1_q2_0_all"  />
<polygon points="180,35 185,30 212,30 212,40 185,40 180,35 " style="fill:white; stroke-width:1; stroke:black; " description="&lt;b&gt;CopciAB_495707.T0&lt;/b&gt;&lt;br&gt;CopciAB 495707.T0&lt;br&gt;Location: 872353 - 873585" locus_tag="CopciAB_495707.T0" class="clusterblast-orf" id="dummy-1_q3_0_all"  />
<polygon points="217,35 221,30 221,40 217,35 " style="fill:white; stroke-width:1; stroke:black; " description="&lt;b&gt;CopciAB_10026296.T1&lt;/b&gt;&lt;br&gt;CopciAB 10026296.T1&lt;br&gt;Location: 873746 - 873902" locus_tag="CopciAB_10026296.T1" class="clusterblast-orf" id="dummy-1_q4_0_all"  />
<polygon points="217,35 222,30 223,30 223,40 222,40 217,35 " style="fill:white; stroke-width:1; stroke:black; " description="&lt;b&gt;CopciAB_10026296.T0&lt;/b&gt;&lt;br&gt;CopciAB 10026296.T0&lt;br&gt;Location: 873746 - 873963" locus_tag="CopciAB_10026296.T0" class="clusterblast-orf" id="dummy-1_q5_0_all"  />
<polygon points="231,40 289,40 294,35 289,30 231,30 231,40 " style="fill:white; stroke-width:1; stroke:black; " description="&lt;b&gt;CopciAB_467195.T0&lt;/b&gt;&lt;br&gt;CopciAB 467195.T0&lt;br&gt;Location: 874282 - 876644" locus_tag="CopciAB_467195.T0" class="clusterblast-orf" id="dummy-1_q6_0_all"  />
<polygon points="317,40 344,40 349,35 344,30 317,30 317,40 " style="fill:white; stroke-width:1; stroke:black; " description="&lt;b&gt;CopciAB_141635.T0&lt;/b&gt;&lt;br&gt;CopciAB 141635.T0&lt;br&gt;Location: 877502 - 878702" locus_tag="CopciAB_141635.T0" class="clusterblast-orf" id="dummy-1_q7_0_all"  />
<polygon points="382,35 387,30 418,30 418,40 387,40 382,35 " style="fill:#d81515; stroke-width:1; stroke:black; " description="&lt;b&gt;CopciAB_443805.T0&lt;/b&gt;&lt;br&gt;CopciAB 443805.T0&lt;br&gt;Location: 879908 - 881256" locus_tag="CopciAB_443805.T0" class="clusterblast-orf" id="dummy-1_q8_0_all"  />
<polygon points="465,40 505,40 510,35 505,30 465,30 465,40 " style="fill:#15d863; stroke-width:1; stroke:black; " description="&lt;b&gt;CopciAB_141731.T0&lt;/b&gt;&lt;br&gt;CopciAB 141731.T0&lt;br&gt;Location: 883042 - 884722" locus_tag="CopciAB_141731.T0" class="clusterblast-orf" id="dummy-1_q9_0_all"  />
<polygon points="532,35 537,30 588,30 588,40 537,40 532,35 " style="fill:#1563d8; stroke-width:1; stroke:black; " description="&lt;b&gt;CopciAB_141718.T0&lt;/b&gt;&lt;br&gt;CopciAB 141718.T0&lt;br&gt;Location: 885536 - 887627" locus_tag="CopciAB_141718.T0" class="clusterblast-orf" id="dummy-1_q10_0_all"  />
<polygon points="597,35 602,30 606,30 606,40 602,40 597,35 " style="fill:white; stroke-width:1; stroke:black; " description="&lt;b&gt;CopciAB_1000642.T0&lt;/b&gt;&lt;br&gt;CopciAB 1000642.T0&lt;br&gt;Location: 887943 - 888276" locus_tag="CopciAB_1000642.T0" class="clusterblast-orf" id="dummy-1_q11_0_all"  />
<polygon points="684,35 689,30 719,30 719,40 689,40 684,35 " style="fill:#b115d8; stroke-width:1; stroke:black; " description="&lt;b&gt;CopciAB_362485.T0&lt;/b&gt;&lt;br&gt;CopciAB 362485.T0&lt;br&gt;Location: 891220 - 892508" locus_tag="CopciAB_362485.T0" class="clusterblast-orf" id="dummy-1_q12_0_all"  />
<polygon points="724,40 775,40 780,35 775,30 724,30 724,40 " style="fill:#b1d815; stroke-width:1; stroke:black; " description="&lt;b&gt;CopciAB_519105.T0&lt;/b&gt;&lt;br&gt;CopciAB 519105.T0&lt;br&gt;Location: 892712 - 894789" locus_tag="CopciAB_519105.T0" class="clusterblast-orf" id="dummy-1_q13_0_all"  />
</g>
<g label="NW_009258200" description="NW_009258200 (1042600-1069564): Heterobasidion irregulare TC 32-1 unplaced ge... (23% of genes show similarity), terpene" class="clusterblast-cluster"  >
<text x="5" y="70" class="clusterblast-acc"  >
<a xlink:href="https://antismash-db.secondarymetabolites.org/area.html?record=NW_009258200&amp;start=1042600&amp;end=1069564" target="_blank">NW_009258200 (1042600-1069564)</a>: Heterobasidion irregulare TC 32-1 unplaced ge... (23% of genes show similarity), terpene</text>
<line x1="10" y1="85" x2="778.0" y2="85" style="stroke-width:1; stroke:grey; "  />
</g>
<g id="a1_000"  >
<polygon points="29,90 63,90 68,85 63,80 29,80 29,90 " style="fill:white; stroke-width:1; stroke:black; " description="&lt;b&gt;HETIRDRAFT_316372&lt;/b&gt;&lt;br&gt;hypothetical protein&lt;br&gt;Location: 1069564 - 1068094" locus_tag="HETIRDRAFT_316372" class="clusterblast-orf" id="dummy-1_h1_2_0"  />
</g>
<g id="a1_001"  >
<polygon points="73,90 100,90 105,85 100,80 73,80 73,90 " style="fill:white; stroke-width:1; stroke:black; " description="&lt;b&gt;HETIRDRAFT_240137&lt;/b&gt;&lt;br&gt;hypothetical protein&lt;br&gt;Location: 1067925 - 1066704" locus_tag="HETIRDRAFT_240137" class="clusterblast-orf" id="dummy-1_h1_2_1"  />
</g>
<g id="a1_002"  >
<polygon points="135,85 140,80 148,80 148,90 140,90 135,85 " style="fill:white; stroke-width:1; stroke:black; " description="&lt;b&gt;HETIRDRAFT_247841&lt;/b&gt;&lt;br&gt;hypothetical protein&lt;br&gt;Location: 1065605 - 1065116" locus_tag="HETIRDRAFT_247841" class="clusterblast-orf" id="dummy-1_h1_2_2"  />
</g>
<g id="a1_003"  >
<polygon points="173,85 178,80 178,80 178,90 178,90 173,85 " style="fill:white; stroke-width:1; stroke:black; " description="&lt;b&gt;HETIRDRAFT_408876&lt;/b&gt;&lt;br&gt;hypothetical protein&lt;br&gt;Location: 1064167 - 1063972" locus_tag="HETIRDRAFT_408876" class="clusterblast-orf" id="dummy-1_h1_2_3"  />
</g>
<g id="a1_004"  >
<polygon points="181,90 209,90 214,85 209,80 181,80 181,90 " style="fill:#d81515; stroke-width:1; stroke:black; " description="&lt;b&gt;HETIRDRAFT_382802&lt;/b&gt;&lt;br&gt;hypothetical protein&lt;br&gt;Location: 1063884 - 1062649&lt;br&gt;&lt;br&gt;&lt;b&gt;BlastP hit with CopciAB_443805.T0&lt;/b&gt;&lt;br&gt;Percentage identity: 53&lt;br&gt;Percentage coverage: 85&lt;br&gt;BLAST bit score: 375&lt;br&gt;E-value: 2.01e-127" locus_tag="HETIRDRAFT_382802" class="clusterblast-orf" id="dummy-1_h1_2_4"  />
</g>
<g id="a1_005"  >
<polygon points="236,85 241,80 241,80 241,90 241,90 236,85 " style="fill:white; stroke-width:1; stroke:black; " description="&lt;b&gt;HETIRDRAFT_439474&lt;/b&gt;&lt;br&gt;hypothetical protein&lt;br&gt;Location: 1061814 - 1061620" locus_tag="HETIRDRAFT_439474" class="clusterblast-orf" id="dummy-1_h1_2_5"  />
</g>
<g id="a1_006"  >
<polygon points="245,85 250,80 274,80 274,90 250,90 245,85 " style="fill:#b115d8; stroke-width:1; stroke:black; " description="&lt;b&gt;HETIRDRAFT_450525&lt;/b&gt;&lt;br&gt;hypothetical protein&lt;br&gt;Location: 1061495 - 1060391&lt;br&gt;&lt;br&gt;&lt;b&gt;BlastP hit with CopciAB_362485.T0&lt;/b&gt;&lt;br&gt;Percentage identity: 76&lt;br&gt;Percentage coverage: 93&lt;br&gt;BLAST bit score: 152&lt;br&gt;E-value: 6.64e-44" locus_tag="HETIRDRAFT_450525" class="clusterblast-orf" id="dummy-1_h1_2_6"  />
</g>
<g id="a1_007"  >
<polygon points="316,90 332,90 337,85 332,80 316,80 316,90 " style="fill:white; stroke-width:1; stroke:black; " description="&lt;b&gt;HETIRDRAFT_439473&lt;/b&gt;&lt;br&gt;hypothetical protein&lt;br&gt;Location: 1058821 - 1058057" locus_tag="HETIRDRAFT_439473" class="clusterblast-orf" id="dummy-1_h1_2_7"  />
</g>
<g id="a1_008"  >
<polygon points="360,90 407,90 412,85 407,80 360,80 360,90 " style="fill:white; stroke-width:1; stroke:black; " description="&lt;b&gt;HETIRDRAFT_106953&lt;/b&gt;&lt;br&gt;hypothetical protein&lt;br&gt;Location: 1057168 - 1055246" locus_tag="HETIRDRAFT_106953" class="clusterblast-orf" id="dummy-1_h1_2_8"  />
</g>
<g id="a1_009"  >
<polygon points="421,90 434,90 439,85 434,80 421,80 421,90 " style="fill:white; stroke-width:1; stroke:black; " description="&lt;b&gt;HETIRDRAFT_316683&lt;/b&gt;&lt;br&gt;hypothetical protein&lt;br&gt;Location: 1054898 - 1054239" locus_tag="HETIRDRAFT_316683" class="clusterblast-orf" id="dummy-1_h1_2_9"  />
</g>
<g id="a1_0010"  >
<polygon points="489,85 494,80 520,80 520,90 494,90 489,85 " style="fill:#d81515; stroke-width:1; stroke:black; " description="&lt;b&gt;HETIRDRAFT_458479&lt;/b&gt;&lt;br&gt;hypothetical protein&lt;br&gt;Location: 1052352 - 1051220&lt;br&gt;&lt;br&gt;&lt;b&gt;BlastP hit with CopciAB_443805.T0&lt;/b&gt;&lt;br&gt;Percentage identity: 52&lt;br&gt;Percentage coverage: 85&lt;br&gt;BLAST bit score: 357&lt;br&gt;E-value: 2.33e-120" locus_tag="HETIRDRAFT_458479" class="clusterblast-orf" id="dummy-1_h1_2_10"  />
</g>
<g id="a1_0011"  >
<polygon points="529,85 534,80 534,80 534,90 534,90 529,85 " style="fill:white; stroke-width:1; stroke:black; " description="&lt;b&gt;HETIRDRAFT_163186&lt;/b&gt;&lt;br&gt;hypothetical protein&lt;br&gt;Location: 1050871 - 1050689" locus_tag="HETIRDRAFT_163186" class="clusterblast-orf" id="dummy-1_h1_2_11"  />
</g>
<g id="a1_0012"  >
<polygon points="536,85 541,80 544,80 544,90 541,90 536,85 " style="fill:white; stroke-width:1; stroke:black; " description="&lt;b&gt;HETIRDRAFT_163185&lt;/b&gt;&lt;br&gt;hypothetical protein&lt;br&gt;Location: 1050602 - 1050298" locus_tag="HETIRDRAFT_163185" class="clusterblast-orf" id="dummy-1_h1_2_12"  />
</g>
<g id="a1_0013"  >
<polygon points="565,85 570,80 603,80 603,90 570,90 565,85 " style="fill:white; stroke-width:1; stroke:black; " description="&lt;b&gt;HETIRDRAFT_54691&lt;/b&gt;&lt;br&gt;hypothetical protein&lt;br&gt;Location: 1049525 - 1048114" locus_tag="HETIRDRAFT_54691" class="clusterblast-orf" id="dummy-1_h1_2_13"  />
</g>
<g id="a1_0014"  >
<polygon points="609,90 662,90 667,85 662,80 609,80 609,90 " style="fill:#b1d815; stroke-width:1; stroke:black; " description="&lt;b&gt;HETIRDRAFT_382796&lt;/b&gt;&lt;br&gt;hypothetical protein&lt;br&gt;Location: 1047869 - 1045692&lt;br&gt;&lt;br&gt;&lt;b&gt;BlastP hit with CopciAB_519105.T0&lt;/b&gt;&lt;br&gt;Percentage identity: 71&lt;br&gt;Percentage coverage: 98&lt;br&gt;BLAST bit score: 644&lt;br&gt;E-value: 5.4e-230" locus_tag="HETIRDRAFT_382796" class="clusterblast-orf" id="dummy-1_h1_2_14"  />
</g>
<g id="a1_0015"  >
<polygon points="705,85 710,80 729,80 729,90 710,90 705,85 " style="fill:white; stroke-width:1; stroke:black; " description="&lt;b&gt;HETIRDRAFT_315871&lt;/b&gt;&lt;br&gt;hypothetical protein&lt;br&gt;Location: 1044306 - 1043382" locus_tag="HETIRDRAFT_315871" class="clusterblast-orf" id="dummy-1_h1_2_15"  />
</g>
<g id="a1_0016"  >
<polygon points="743,90 745,90 750,85 745,80 743,80 743,90 " style="fill:white; stroke-width:1; stroke:black; " description="&lt;b&gt;HETIRDRAFT_157091&lt;/b&gt;&lt;br&gt;hypothetical protein&lt;br&gt;Location: 1042855 - 1042601" locus_tag="HETIRDRAFT_157091" class="clusterblast-orf" id="dummy-1_h1_2_16"  />
</g>
</svg>
