<svg xmlns="http://www.w3.org/2000/svg" xmlns:xlink="http://www.w3.org/1999/xlink" version="1.1" x="0" y="0" height="230" width="800" viewBox="0 0 800 230" preserveAspectRatio="none"  >
<g label="Query sequence" class="clusterblast-cluster"  >
<text x="5" y="20" class="clusterblast-acc"  >
Query sequence</text>
<line x1="10" y1="35" x2="778.0" y2="35" style="stroke-width:1; stroke:grey; "  />
<polygon points="0,35 5,30 44,30 44,40 5,40 0,35 " style="fill:white; stroke-width:1; stroke:black; " description="&lt;b&gt;CopciAB_454031.T0&lt;/b&gt;&lt;br&gt;CopciAB 454031.T0&lt;br&gt;Location: 950617 - 954232" locus_tag="CopciAB_454031.T0" class="clusterblast-orf" id="dummy-3_q0_0_all"  />
<polygon points="66,40 71,40 76,35 71,30 66,30 66,40 " style="fill:white; stroke-width:1; stroke:black; " description="&lt;b&gt;CopciAB_391177.T0&lt;/b&gt;&lt;br&gt;CopciAB 391177.T0&lt;br&gt;Location: 956110 - 956875" locus_tag="CopciAB_391177.T0" class="clusterblast-orf" id="dummy-3_q1_0_all"  />
<polygon points="79,35 84,30 91,30 91,40 84,40 79,35 " style="fill:white; stroke-width:1; stroke:black; " description="&lt;b&gt;CopciAB_495078.T0&lt;/b&gt;&lt;br&gt;CopciAB 495078.T0&lt;br&gt;Location: 957103 - 958109" locus_tag="CopciAB_495078.T0" class="clusterblast-orf" id="dummy-3_q2_0_all"  />
<polygon points="94,35 99,30 110,30 110,40 99,40 94,35 " style="fill:white; stroke-width:1; stroke:black; " description="&lt;b&gt;CopciAB_441179.T0&lt;/b&gt;&lt;br&gt;CopciAB 441179.T0&lt;br&gt;Location: 958412 - 959728" locus_tag="CopciAB_441179.T0" class="clusterblast-orf" id="dummy-3_q3_0_all"  />
<polygon points="120,35 125,30 129,30 129,40 125,40 120,35 " style="fill:white; stroke-width:1; stroke:black; " description="&lt;b&gt;CopciAB_441181.T0&lt;/b&gt;&lt;br&gt;CopciAB 441181.T0&lt;br&gt;Location: 960502 - 961247" locus_tag="CopciAB_441181.T0" class="clusterblast-orf" id="dummy-3_q4_0_all"  />
<polygon points="141,40 167,40 172,35 167,30 141,30 141,40 " style="fill:#d81515; stroke-width:1; stroke:black; " description="&lt;b&gt;CopciAB_417341.T0&lt;/b&gt;&lt;br&gt;CopciAB 417341.T0&lt;br&gt;Location: 962262 - 964748" locus_tag="CopciAB_417341.T0" class="clusterblast-orf" id="dummy-3_q5_0_all"  />
<polygon points="177,40 185,40 190,35 185,30 177,30 177,40 " style="fill:#4dd815; stroke-width:1; stroke:black; " description="&lt;b&gt;CopciAB_360850.T0&lt;/b&gt;&lt;br&gt;CopciAB 360850.T0&lt;br&gt;Location: 965222 - 966252" locus_tag="CopciAB_360850.T0" class="clusterblast-orf" id="dummy-3_q6_0_all"  />
<polygon points="200,35 205,30 210,30 210,40 205,40 200,35 " style="fill:white; stroke-width:1; stroke:black; " description="&lt;b&gt;CopciAB_90622.T0&lt;/b&gt;&lt;br&gt;CopciAB 90622.T0&lt;br&gt;Location: 967097 - 967880" locus_tag="CopciAB_90622.T0" class="clusterblast-orf" id="dummy-3_q7_0_all"  />
<polygon points="221,35 226,30 277,30 277,40 226,40 221,35 " style="fill:#1585d8; stroke-width:1; stroke:black; " description="&lt;b&gt;CopciAB_360799.T0&lt;/b&gt;&lt;br&gt;CopciAB 360799.T0&lt;br&gt;Location: 968800 - 973450" locus_tag="CopciAB_360799.T0" class="clusterblast-orf" id="dummy-3_q8_0_all"  />
<polygon points="309,35 314,30 314,30 314,40 314,40 309,35 " style="fill:white; stroke-width:1; stroke:black; " description="&lt;b&gt;CopciAB_1002526.T0&lt;/b&gt;&lt;br&gt;CopciAB 1002526.T0&lt;br&gt;Location: 976072 - 976500" locus_tag="CopciAB_1002526.T0" class="clusterblast-orf" id="dummy-3_q9_0_all"  />
<polygon points="317,40 320,40 325,35 320,30 317,30 317,40 " style="fill:#1585d8; stroke-width:1; stroke:black; " description="&lt;b&gt;CopciAB_441187.T0&lt;/b&gt;&lt;br&gt;CopciAB 441187.T0&lt;br&gt;Location: 976689 - 977368" locus_tag="CopciAB_441187.T0" class="clusterblast-orf" id="dummy-3_q10_0_all"  />
<polygon points="332,40 350,40 355,35 350,30 332,30 332,40 " style="fill:#d815bc; stroke-width:1; stroke:black; " description="&lt;b&gt;CopciAB_90822.T0&lt;/b&gt;&lt;br&gt;CopciAB 90822.T0&lt;br&gt;Location: 977916 - 979803" locus_tag="CopciAB_90822.T0" class="clusterblast-orf" id="dummy-3_q11_0_all"  />
<polygon points="360,35 365,30 418,30 418,40 365,40 360,35 " style="fill:#d8bc15; stroke-width:1; stroke:black; " description="&lt;b&gt;CopciAB_417352.T0&lt;/b&gt;&lt;br&gt;CopciAB 417352.T0&lt;br&gt;Location: 980254 - 984983" locus_tag="CopciAB_417352.T0" class="clusterblast-orf" id="dummy-3_q12_0_all"  />
<polygon points="421,35 426,30 459,30 459,40 426,40 421,35 " style="fill:white; stroke-width:1; stroke:black; " description="&lt;b&gt;CopciAB_454041.T0&lt;/b&gt;&lt;br&gt;CopciAB 454041.T0&lt;br&gt;Location: 985245 - 988386" locus_tag="CopciAB_454041.T0" class="clusterblast-orf" id="dummy-3_q13_0_all"  />
<polygon points="461,40 515,40 520,35 515,30 461,30 461,40 " style="fill:white; stroke-width:1; stroke:black; " description="&lt;b&gt;CopciAB_441190.T0&lt;/b&gt;&lt;br&gt;CopciAB 441190.T0&lt;br&gt;Location: 988541 - 993401" locus_tag="CopciAB_441190.T0" class="clusterblast-orf" id="dummy-3_q14_0_all"  />
<polygon points="527,40 529,40 534,35 529,30 527,30 527,40 " style="fill:white; stroke-width:1; stroke:black; " description="&lt;b&gt;CopciAB_417357.T0&lt;/b&gt;&lt;br&gt;CopciAB 417357.T0&lt;br&gt;Location: 993991 - 994567" locus_tag="CopciAB_417357.T0" class="clusterblast-orf" id="dummy-3_q15_0_all"  />
<polygon points="551,35 556,30 577,30 577,40 556,40 551,35 " style="fill:#15d885; stroke-width:1; stroke:black; " description="&lt;b&gt;CopciAB_90959.T0&lt;/b&gt;&lt;br&gt;CopciAB 90959.T0&lt;br&gt;Location: 995905 - 998090" locus_tag="CopciAB_90959.T0" class="clusterblast-orf" id="dummy-3_q16_0_all"  />
<polygon points="585,35 590,30 593,30 593,40 590,40 585,35 " style="fill:white; stroke-width:1; stroke:black; " description="&lt;b&gt;CopciAB_1002528.T0&lt;/b&gt;&lt;br&gt;CopciAB 1002528.T0&lt;br&gt;Location: 998761 - 999424" locus_tag="CopciAB_1002528.T0" class="clusterblast-orf" id="dummy-3_q17_0_all"  />
<polygon points="601,35 606,30 617,30 617,40 606,40 601,35 " style="fill:white; stroke-width:1; stroke:black; " description="&lt;b&gt;CopciAB_465124.T0&lt;/b&gt;&lt;br&gt;CopciAB 465124.T0&lt;br&gt;Location: 1000061 - 1001390" locus_tag="CopciAB_465124.T0" class="clusterblast-orf" id="dummy-3_q18_0_all"  />
<polygon points="620,40 624,40 629,35 624,30 620,30 620,40 " style="fill:white; stroke-width:1; stroke:black; " description="&lt;b&gt;CopciAB_90982.T0&lt;/b&gt;&lt;br&gt;CopciAB 90982.T0&lt;br&gt;Location: 1001584 - 1002367" locus_tag="CopciAB_90982.T0" class="clusterblast-orf" id="dummy-3_q19_0_all"  />
<polygon points="643,40 659,40 664,35 659,30 643,30 643,40 " style="fill:white; stroke-width:1; stroke:black; " description="&lt;b&gt;CopciAB_90984.T0&lt;/b&gt;&lt;br&gt;CopciAB 90984.T0&lt;br&gt;Location: 1003469 - 1005259" locus_tag="CopciAB_90984.T0" class="clusterblast-orf" id="dummy-3_q20_0_all"  />
<polygon points="669,40 682,40 687,35 682,30 669,30 669,40 " style="fill:white; stroke-width:1; stroke:black; " description="&lt;b&gt;CopciAB_90979.T0&lt;/b&gt;&lt;br&gt;CopciAB 90979.T0&lt;br&gt;Location: 1005646 - 1007108" locus_tag="CopciAB_90979.T0" class="clusterblast-orf" id="dummy-3_q21_0_all"  />
<polygon points="692,40 706,40 711,35 706,30 692,30 692,40 " style="fill:#4d15d8; stroke-width:1; stroke:black; " description="&lt;b&gt;CopciAB_476094.T0&lt;/b&gt;&lt;br&gt;CopciAB 476094.T0&lt;br&gt;Location: 1007537 - 1009136" locus_tag="CopciAB_476094.T0" class="clusterblast-orf" id="dummy-3_q22_0_all"  />
<polygon points="715,35 720,30 761,30 761,40 720,40 715,35 " style="fill:white; stroke-width:1; stroke:black; " description="&lt;b&gt;CopciAB_91028.T0&lt;/b&gt;&lt;br&gt;CopciAB 91028.T0&lt;br&gt;Location: 1009428 - 1013227" locus_tag="CopciAB_91028.T0" class="clusterblast-orf" id="dummy-3_q23_0_all"  />
<polygon points="769,40 775,40 780,35 775,30 769,30 769,40 " style="fill:white; stroke-width:1; stroke:black; " description="&lt;b&gt;CopciAB_441197.T0&lt;/b&gt;&lt;br&gt;CopciAB 441197.T0&lt;br&gt;Location: 1013862 - 1014739" locus_tag="CopciAB_441197.T0" class="clusterblast-orf" id="dummy-3_q24_0_all"  />
</g>
<g label="NW_006267372" description="NW_006267372 (1100670-1136584): Agaricus bisporus var. bisporus H97 unplaced ... (41% of genes show similarity), NRPS-like" class="clusterblast-cluster"  >
<text x="5" y="70" class="clusterblast-acc"  >
<a xlink:href="https://antismash-db.secondarymetabolites.org/area.html?record=NW_006267372&amp;start=1100670&amp;end=1136584" target="_blank">NW_006267372 (1100670-1136584)</a>: Agaricus bisporus var. bisporus H97 unplaced ... (41% of genes show similarity), NRPS-like</text>
<line x1="10" y1="85" x2="778.0" y2="85" style="stroke-width:1; stroke:grey; "  />
</g>
<g id="a3_000"  >
<polygon points="171,90 173,90 178,85 173,80 171,80 171,90 " style="fill:white; stroke-width:1; stroke:black; " description="&lt;b&gt;AGABI2DRAFT_120781&lt;/b&gt;&lt;br&gt;hypothetical protein&lt;br&gt;Location: 1100671 - 1101228" locus_tag="AGABI2DRAFT_120781" class="clusterblast-orf" id="dummy-3_h3_1_0"  />
</g>
<g id="a3_001"  >
<polygon points="182,90 196,90 201,85 196,80 182,80 182,90 " style="fill:white; stroke-width:1; stroke:black; " description="&lt;b&gt;AGABI2DRAFT_194603&lt;/b&gt;&lt;br&gt;hypothetical protein&lt;br&gt;Location: 1101608 - 1103165" locus_tag="AGABI2DRAFT_194603" class="clusterblast-orf" id="dummy-3_h3_1_1"  />
</g>
<g id="a3_002"  >
<polygon points="207,85 212,80 233,80 233,90 212,90 207,85 " style="fill:#15d885; stroke-width:1; stroke:black; " description="&lt;b&gt;AGABI2DRAFT_194604&lt;/b&gt;&lt;br&gt;hypothetical protein&lt;br&gt;Location: 1103631 - 1105741&lt;br&gt;&lt;br&gt;&lt;b&gt;BlastP hit with CopciAB_90959.T0&lt;/b&gt;&lt;br&gt;Percentage identity: 58&lt;br&gt;Percentage coverage: 99&lt;br&gt;BLAST bit score: 727&lt;br&gt;E-value: 1.62e-257" locus_tag="AGABI2DRAFT_194604" class="clusterblast-orf" id="dummy-3_h3_1_2"  />
</g>
<g id="a3_003"  >
<polygon points="250,85 255,80 303,80 303,90 255,90 250,85 " style="fill:#1585d8; stroke-width:1; stroke:black; " description="&lt;b&gt;AGABI2DRAFT_208992&lt;/b&gt;&lt;br&gt;hypothetical protein&lt;br&gt;Location: 1107193 - 1111485&lt;br&gt;&lt;br&gt;&lt;b&gt;BlastP hit with CopciAB_360799.T0&lt;/b&gt;&lt;br&gt;Percentage identity: 63&lt;br&gt;Percentage coverage: 81&lt;br&gt;BLAST bit score: 1179&lt;br&gt;E-value: 0.0" locus_tag="AGABI2DRAFT_208992" class="clusterblast-orf" id="dummy-3_h3_1_3"  />
</g>
<g id="a3_004"  >
<polygon points="345,85 350,80 401,80 401,90 350,90 345,85 " style="fill:#d8bc15; stroke-width:1; stroke:black; " description="&lt;b&gt;AGABI2DRAFT_208996&lt;/b&gt;&lt;br&gt;hypothetical protein&lt;br&gt;Location: 1114979 - 1119598&lt;br&gt;&lt;br&gt;&lt;b&gt;BlastP hit with CopciAB_417352.T0&lt;/b&gt;&lt;br&gt;Percentage identity: 65&lt;br&gt;Percentage coverage: 101&lt;br&gt;BLAST bit score: 1878&lt;br&gt;E-value: 0.0" locus_tag="AGABI2DRAFT_208996" class="clusterblast-orf" id="dummy-3_h3_1_4"  />
</g>
<g id="a3_005"  >
<polygon points="407,90 419,90 424,85 419,80 407,80 407,90 " style="fill:#4dd815; stroke-width:1; stroke:black; " description="&lt;b&gt;AGABI2DRAFT_145143&lt;/b&gt;&lt;br&gt;hypothetical protein&lt;br&gt;Location: 1120048 - 1121498&lt;br&gt;&lt;br&gt;&lt;b&gt;BlastP hit with CopciAB_360850.T0&lt;/b&gt;&lt;br&gt;Percentage identity: 60&lt;br&gt;Percentage coverage: 69&lt;br&gt;BLAST bit score: 174&lt;br&gt;E-value: 7.41e-52" locus_tag="AGABI2DRAFT_145143" class="clusterblast-orf" id="dummy-3_h3_1_5"  />
</g>
<g id="a3_006"  >
<polygon points="425,85 430,80 456,80 456,90 430,90 425,85 " style="fill:#d81515; stroke-width:1; stroke:black; " description="&lt;b&gt;AGABI2DRAFT_120787&lt;/b&gt;&lt;br&gt;hypothetical protein&lt;br&gt;Location: 1121565 - 1124071&lt;br&gt;&lt;br&gt;&lt;b&gt;BlastP hit with CopciAB_417341.T0&lt;/b&gt;&lt;br&gt;Percentage identity: 65&lt;br&gt;Percentage coverage: 101&lt;br&gt;BLAST bit score: 914&lt;br&gt;E-value: 0.0" locus_tag="AGABI2DRAFT_120787" class="clusterblast-orf" id="dummy-3_h3_1_6"  />
</g>
<g id="a3_007"  >
<polygon points="470,90 479,90 484,85 479,80 470,80 470,90 " style="fill:white; stroke-width:1; stroke:black; " description="&lt;b&gt;AGABI2DRAFT_138201&lt;/b&gt;&lt;br&gt;hypothetical protein&lt;br&gt;Location: 1125219 - 1126372" locus_tag="AGABI2DRAFT_138201" class="clusterblast-orf" id="dummy-3_h3_1_7"  />
</g>
<g id="a3_008"  >
<polygon points="519,90 537,90 542,85 537,80 519,80 519,90 " style="fill:white; stroke-width:1; stroke:black; " description="&lt;b&gt;AGABI2DRAFT_226007&lt;/b&gt;&lt;br&gt;hypothetical protein&lt;br&gt;Location: 1129270 - 1131168" locus_tag="AGABI2DRAFT_226007" class="clusterblast-orf" id="dummy-3_h3_1_8"  />
</g>
<g id="a3_009"  >
<polygon points="546,90 569,90 574,85 569,80 546,80 546,90 " style="fill:white; stroke-width:1; stroke:black; " description="&lt;b&gt;AGABI2DRAFT_209008&lt;/b&gt;&lt;br&gt;hypothetical protein&lt;br&gt;Location: 1131476 - 1133780" locus_tag="AGABI2DRAFT_209008" class="clusterblast-orf" id="dummy-3_h3_1_9"  />
</g>
<g id="a3_0010"  >
<polygon points="578,90 579,90 584,85 579,80 578,80 578,90 " style="fill:white; stroke-width:1; stroke:black; " description="&lt;b&gt;AGABI2DRAFT_194611&lt;/b&gt;&lt;br&gt;hypothetical protein&lt;br&gt;Location: 1134151 - 1134593" locus_tag="AGABI2DRAFT_194611" class="clusterblast-orf" id="dummy-3_h3_1_10"  />
</g>
<g id="a3_0011"  >
<polygon points="593,90 603,90 608,85 603,80 593,80 593,90 " style="fill:white; stroke-width:1; stroke:black; " description="&lt;b&gt;AGABI2DRAFT_226009&lt;/b&gt;&lt;br&gt;hypothetical protein&lt;br&gt;Location: 1135372 - 1136584" locus_tag="AGABI2DRAFT_226009" class="clusterblast-orf" id="dummy-3_h3_1_11"  />
</g>
</svg>
