<svg xmlns="http://www.w3.org/2000/svg" xmlns:xlink="http://www.w3.org/1999/xlink" version="1.1" x="0" y="0" height="230" width="800" viewBox="0 0 800 230" preserveAspectRatio="none"  >
<g label="Query sequence" class="clusterblast-cluster"  >
<text x="5" y="20" class="clusterblast-acc"  >
Query sequence</text>
<line x1="10" y1="35" x2="778.0" y2="35" style="stroke-width:1; stroke:grey; "  />
<polygon points="194,35 199,30 216,30 216,40 199,40 194,35 " style="fill:white; stroke-width:1; stroke:black; " description="&lt;b&gt;CopciAB_454031.T0&lt;/b&gt;&lt;br&gt;CopciAB 454031.T0&lt;br&gt;Location: 950617 - 954232" locus_tag="CopciAB_454031.T0" class="clusterblast-orf" id="dummy-3_q0_0_all"  />
<polygon points="227,40 227,40 232,35 227,30 227,30 227,40 " style="fill:white; stroke-width:1; stroke:black; " description="&lt;b&gt;CopciAB_391177.T0&lt;/b&gt;&lt;br&gt;CopciAB 391177.T0&lt;br&gt;Location: 956110 - 956875" locus_tag="CopciAB_391177.T0" class="clusterblast-orf" id="dummy-3_q1_0_all"  />
<polygon points="233,35 238,30 239,30 239,40 238,40 233,35 " style="fill:white; stroke-width:1; stroke:black; " description="&lt;b&gt;CopciAB_495078.T0&lt;/b&gt;&lt;br&gt;CopciAB 495078.T0&lt;br&gt;Location: 957103 - 958109" locus_tag="CopciAB_495078.T0" class="clusterblast-orf" id="dummy-3_q2_0_all"  />
<polygon points="241,35 246,30 249,30 249,40 246,40 241,35 " style="fill:white; stroke-width:1; stroke:black; " description="&lt;b&gt;CopciAB_441179.T0&lt;/b&gt;&lt;br&gt;CopciAB 441179.T0&lt;br&gt;Location: 958412 - 959728" locus_tag="CopciAB_441179.T0" class="clusterblast-orf" id="dummy-3_q3_0_all"  />
<polygon points="254,35 259,30 259,30 259,40 259,40 254,35 " style="fill:white; stroke-width:1; stroke:black; " description="&lt;b&gt;CopciAB_441181.T0&lt;/b&gt;&lt;br&gt;CopciAB 441181.T0&lt;br&gt;Location: 960502 - 961247" locus_tag="CopciAB_441181.T0" class="clusterblast-orf" id="dummy-3_q4_0_all"  />
<polygon points="265,40 275,40 280,35 275,30 265,30 265,40 " style="fill:#d81515; stroke-width:1; stroke:black; " description="&lt;b&gt;CopciAB_417341.T0&lt;/b&gt;&lt;br&gt;CopciAB 417341.T0&lt;br&gt;Location: 962262 - 964748" locus_tag="CopciAB_417341.T0" class="clusterblast-orf" id="dummy-3_q5_0_all"  />
<polygon points="283,40 284,40 289,35 284,30 283,30 283,40 " style="fill:#4dd815; stroke-width:1; stroke:black; " description="&lt;b&gt;CopciAB_360850.T0&lt;/b&gt;&lt;br&gt;CopciAB 360850.T0&lt;br&gt;Location: 965222 - 966252" locus_tag="CopciAB_360850.T0" class="clusterblast-orf" id="dummy-3_q6_0_all"  />
<polygon points="294,35 299,30 299,30 299,40 299,40 294,35 " style="fill:white; stroke-width:1; stroke:black; " description="&lt;b&gt;CopciAB_90622.T0&lt;/b&gt;&lt;br&gt;CopciAB 90622.T0&lt;br&gt;Location: 967097 - 967880" locus_tag="CopciAB_90622.T0" class="clusterblast-orf" id="dummy-3_q7_0_all"  />
<polygon points="305,35 310,30 333,30 333,40 310,40 305,35 " style="fill:#1585d8; stroke-width:1; stroke:black; " description="&lt;b&gt;CopciAB_360799.T0&lt;/b&gt;&lt;br&gt;CopciAB 360799.T0&lt;br&gt;Location: 968800 - 973450" locus_tag="CopciAB_360799.T0" class="clusterblast-orf" id="dummy-3_q8_0_all"  />
<polygon points="349,35 352,30 352,40 349,35 " style="fill:white; stroke-width:1; stroke:black; " description="&lt;b&gt;CopciAB_1002526.T0&lt;/b&gt;&lt;br&gt;CopciAB 1002526.T0&lt;br&gt;Location: 976072 - 976500" locus_tag="CopciAB_1002526.T0" class="clusterblast-orf" id="dummy-3_q9_0_all"  />
<polygon points="353,40 357,35 353,30 353,40 " style="fill:#1585d8; stroke-width:1; stroke:black; " description="&lt;b&gt;CopciAB_441187.T0&lt;/b&gt;&lt;br&gt;CopciAB 441187.T0&lt;br&gt;Location: 976689 - 977368" locus_tag="CopciAB_441187.T0" class="clusterblast-orf" id="dummy-3_q10_0_all"  />
<polygon points="360,40 367,40 372,35 367,30 360,30 360,40 " style="fill:#d815bc; stroke-width:1; stroke:black; " description="&lt;b&gt;CopciAB_90822.T0&lt;/b&gt;&lt;br&gt;CopciAB 90822.T0&lt;br&gt;Location: 977916 - 979803" locus_tag="CopciAB_90822.T0" class="clusterblast-orf" id="dummy-3_q11_0_all"  />
<polygon points="375,35 380,30 404,30 404,40 380,40 375,35 " style="fill:#d8bc15; stroke-width:1; stroke:black; " description="&lt;b&gt;CopciAB_417352.T0&lt;/b&gt;&lt;br&gt;CopciAB 417352.T0&lt;br&gt;Location: 980254 - 984983" locus_tag="CopciAB_417352.T0" class="clusterblast-orf" id="dummy-3_q12_0_all"  />
<polygon points="405,35 410,30 424,30 424,40 410,40 405,35 " style="fill:white; stroke-width:1; stroke:black; " description="&lt;b&gt;CopciAB_454041.T0&lt;/b&gt;&lt;br&gt;CopciAB 454041.T0&lt;br&gt;Location: 985245 - 988386" locus_tag="CopciAB_454041.T0" class="clusterblast-orf" id="dummy-3_q13_0_all"  />
<polygon points="425,40 450,40 455,35 450,30 425,30 425,40 " style="fill:white; stroke-width:1; stroke:black; " description="&lt;b&gt;CopciAB_441190.T0&lt;/b&gt;&lt;br&gt;CopciAB 441190.T0&lt;br&gt;Location: 988541 - 993401" locus_tag="CopciAB_441190.T0" class="clusterblast-orf" id="dummy-3_q14_0_all"  />
<polygon points="459,40 462,35 459,30 459,40 " style="fill:white; stroke-width:1; stroke:black; " description="&lt;b&gt;CopciAB_417357.T0&lt;/b&gt;&lt;br&gt;CopciAB 417357.T0&lt;br&gt;Location: 993991 - 994567" locus_tag="CopciAB_417357.T0" class="clusterblast-orf" id="dummy-3_q15_0_all"  />
<polygon points="470,35 475,30 484,30 484,40 475,40 470,35 " style="fill:#15d885; stroke-width:1; stroke:black; " description="&lt;b&gt;CopciAB_90959.T0&lt;/b&gt;&lt;br&gt;CopciAB 90959.T0&lt;br&gt;Location: 995905 - 998090" locus_tag="CopciAB_90959.T0" class="clusterblast-orf" id="dummy-3_q16_0_all"  />
<polygon points="488,35 492,30 492,40 488,35 " style="fill:white; stroke-width:1; stroke:black; " description="&lt;b&gt;CopciAB_1002528.T0&lt;/b&gt;&lt;br&gt;CopciAB 1002528.T0&lt;br&gt;Location: 998761 - 999424" locus_tag="CopciAB_1002528.T0" class="clusterblast-orf" id="dummy-3_q17_0_all"  />
<polygon points="496,35 501,30 504,30 504,40 501,40 496,35 " style="fill:white; stroke-width:1; stroke:black; " description="&lt;b&gt;CopciAB_465124.T0&lt;/b&gt;&lt;br&gt;CopciAB 465124.T0&lt;br&gt;Location: 1000061 - 1001390" locus_tag="CopciAB_465124.T0" class="clusterblast-orf" id="dummy-3_q18_0_all"  />
<polygon points="505,40 505,40 510,35 505,30 505,30 505,40 " style="fill:white; stroke-width:1; stroke:black; " description="&lt;b&gt;CopciAB_90982.T0&lt;/b&gt;&lt;br&gt;CopciAB 90982.T0&lt;br&gt;Location: 1001584 - 1002367" locus_tag="CopciAB_90982.T0" class="clusterblast-orf" id="dummy-3_q19_0_all"  />
<polygon points="517,40 523,40 528,35 523,30 517,30 517,40 " style="fill:white; stroke-width:1; stroke:black; " description="&lt;b&gt;CopciAB_90984.T0&lt;/b&gt;&lt;br&gt;CopciAB 90984.T0&lt;br&gt;Location: 1003469 - 1005259" locus_tag="CopciAB_90984.T0" class="clusterblast-orf" id="dummy-3_q20_0_all"  />
<polygon points="530,40 534,40 539,35 534,30 530,30 530,40 " style="fill:white; stroke-width:1; stroke:black; " description="&lt;b&gt;CopciAB_90979.T0&lt;/b&gt;&lt;br&gt;CopciAB 90979.T0&lt;br&gt;Location: 1005646 - 1007108" locus_tag="CopciAB_90979.T0" class="clusterblast-orf" id="dummy-3_q21_0_all"  />
<polygon points="542,40 546,40 551,35 546,30 542,30 542,40 " style="fill:#4d15d8; stroke-width:1; stroke:black; " description="&lt;b&gt;CopciAB_476094.T0&lt;/b&gt;&lt;br&gt;CopciAB 476094.T0&lt;br&gt;Location: 1007537 - 1009136" locus_tag="CopciAB_476094.T0" class="clusterblast-orf" id="dummy-3_q22_0_all"  />
<polygon points="553,35 558,30 576,30 576,40 558,40 553,35 " style="fill:white; stroke-width:1; stroke:black; " description="&lt;b&gt;CopciAB_91028.T0&lt;/b&gt;&lt;br&gt;CopciAB 91028.T0&lt;br&gt;Location: 1009428 - 1013227" locus_tag="CopciAB_91028.T0" class="clusterblast-orf" id="dummy-3_q23_0_all"  />
<polygon points="580,40 581,40 586,35 581,30 580,30 580,40 " style="fill:white; stroke-width:1; stroke:black; " description="&lt;b&gt;CopciAB_441197.T0&lt;/b&gt;&lt;br&gt;CopciAB 441197.T0&lt;br&gt;Location: 1013862 - 1014739" locus_tag="CopciAB_441197.T0" class="clusterblast-orf" id="dummy-3_q24_0_all"  />
</g>
<g label="NZ_CP010407" description="NZ_CP010407 (740227-&gt;867785): Streptomyces vietnamensis strain GIMV4.0001 chr... (2% of genes show similarity), NRPS,T1PKS,butyrolactone" class="clusterblast-cluster"  >
<text x="5" y="70" class="clusterblast-acc"  >
<a xlink:href="https://antismash-db.secondarymetabolites.org/area.html?record=NZ_CP010407&amp;start=740227&amp;end=>867785" target="_blank">NZ_CP010407 (740227->867785)</a>: Streptomyces vietnamensis strain GIMV4.0001 chr... (2% of genes show similarity), NRPS,T1PKS,butyrolactone</text>
<line x1="10" y1="85" x2="778.0" y2="85" style="stroke-width:1; stroke:grey; "  />
</g>
<g id="a3_000"  >
<polygon points="0,90 3,85 0,80 0,90 " style="fill:white; stroke-width:1; stroke:black; " description="&lt;b&gt;SVTN_RS03735&lt;/b&gt;&lt;br&gt;nucleotidyltransferase family protein&lt;br&gt;Location: 867785 - 867213" locus_tag="SVTN_RS03735" class="clusterblast-orf" id="dummy-3_h3_9_0"  />
</g>
<g id="a3_001"  >
<polygon points="3,85 7,80 7,90 3,85 " style="fill:white; stroke-width:1; stroke:black; " description="&lt;b&gt;SVTN_RS03730&lt;/b&gt;&lt;br&gt;hypothetical protein&lt;br&gt;Location: 867138 - 866578" locus_tag="SVTN_RS03730" class="clusterblast-orf" id="dummy-3_h3_9_1"  />
</g>
<g id="a3_002"  >
<polygon points="8,85 10,80 10,90 8,85 " style="fill:white; stroke-width:1; stroke:black; " description="&lt;b&gt;SVTN_RS03725&lt;/b&gt;&lt;br&gt;gas vesicle protein K&lt;br&gt;Location: 866452 - 866063" locus_tag="SVTN_RS03725" class="clusterblast-orf" id="dummy-3_h3_9_2"  />
</g>
<g id="a3_003"  >
<polygon points="10,85 12,80 12,90 10,85 " style="fill:white; stroke-width:1; stroke:black; " description="&lt;b&gt;SVTN_RS03720&lt;/b&gt;&lt;br&gt;gas vesicle protein&lt;br&gt;Location: 865992 - 865753" locus_tag="SVTN_RS03720" class="clusterblast-orf" id="dummy-3_h3_9_3"  />
</g>
<g id="a3_004"  >
<polygon points="12,85 17,80 17,80 17,90 17,90 12,85 " style="fill:white; stroke-width:1; stroke:black; " description="&lt;b&gt;SVTN_RS03715&lt;/b&gt;&lt;br&gt;GvpL/GvpF family gas vesicle protein&lt;br&gt;Location: 865756 - 864950" locus_tag="SVTN_RS03715" class="clusterblast-orf" id="dummy-3_h3_9_4"  />
</g>
<g id="a3_005"  >
<polygon points="17,85 20,80 20,90 17,85 " style="fill:white; stroke-width:1; stroke:black; " description="&lt;b&gt;SVTN_RS03710&lt;/b&gt;&lt;br&gt;gas vesicle protein&lt;br&gt;Location: 864945 - 864409" locus_tag="SVTN_RS03710" class="clusterblast-orf" id="dummy-3_h3_9_5"  />
</g>
<g id="a3_006"  >
<polygon points="20,85 25,80 28,80 28,90 25,90 20,85 " style="fill:white; stroke-width:1; stroke:black; " description="&lt;b&gt;SVTN_RS03705&lt;/b&gt;&lt;br&gt;SRPBCC family protein&lt;br&gt;Location: 864381 - 863143" locus_tag="SVTN_RS03705" class="clusterblast-orf" id="dummy-3_h3_9_6"  />
</g>
<g id="a3_007"  >
<polygon points="28,85 32,80 32,90 28,85 " style="fill:white; stroke-width:1; stroke:black; " description="&lt;b&gt;SVTN_RS03700&lt;/b&gt;&lt;br&gt;hypothetical protein&lt;br&gt;Location: 863150 - 862524" locus_tag="SVTN_RS03700" class="clusterblast-orf" id="dummy-3_h3_9_7"  />
</g>
<g id="a3_008"  >
<polygon points="32,85 34,80 34,90 32,85 " style="fill:white; stroke-width:1; stroke:black; " description="&lt;b&gt;SVTN_RS03695&lt;/b&gt;&lt;br&gt;gas vesicle protein GvpG&lt;br&gt;Location: 862445 - 862182" locus_tag="SVTN_RS03695" class="clusterblast-orf" id="dummy-3_h3_9_8"  />
</g>
<g id="a3_009"  >
<polygon points="34,85 38,80 38,90 34,85 " style="fill:white; stroke-width:1; stroke:black; " description="&lt;b&gt;SVTN_RS03690&lt;/b&gt;&lt;br&gt;GvpL/GvpF family gas vesicle protein&lt;br&gt;Location: 862140 - 861427" locus_tag="SVTN_RS03690" class="clusterblast-orf" id="dummy-3_h3_9_9"  />
</g>
<g id="a3_0010"  >
<polygon points="38,85 41,80 41,90 38,85 " style="fill:white; stroke-width:1; stroke:black; " description="&lt;b&gt;SVTN_RS03685&lt;/b&gt;&lt;br&gt;gas vesicle structural protein GvpA&lt;br&gt;Location: 861424 - 860957" locus_tag="SVTN_RS03685" class="clusterblast-orf" id="dummy-3_h3_9_10"  />
</g>
<g id="a3_0011"  >
<polygon points="41,85 44,80 44,90 41,85 " style="fill:white; stroke-width:1; stroke:black; " description="&lt;b&gt;SVTN_RS03680&lt;/b&gt;&lt;br&gt;gas vesicle protein&lt;br&gt;Location: 860926 - 860468" locus_tag="SVTN_RS03680" class="clusterblast-orf" id="dummy-3_h3_9_11"  />
</g>
<g id="a3_0012"  >
<polygon points="46,90 50,85 46,80 46,90 " style="fill:white; stroke-width:1; stroke:black; " description="&lt;b&gt;SVTN_RS03675&lt;/b&gt;&lt;br&gt;class I SAM-dependent methyltransferase&lt;br&gt;Location: 860244 - 859591" locus_tag="SVTN_RS03675" class="clusterblast-orf" id="dummy-3_h3_9_12"  />
</g>
<g id="a3_0013"  >
<polygon points="51,85 56,80 57,80 57,90 56,90 51,85 " style="fill:white; stroke-width:1; stroke:black; " description="&lt;b&gt;SVTN_RS03670&lt;/b&gt;&lt;br&gt;LacI family DNA-binding transcriptional regulator&lt;br&gt;Location: 859431 - 858403" locus_tag="SVTN_RS03670" class="clusterblast-orf" id="dummy-3_h3_9_13"  />
</g>
<g id="a3_0014"  >
<polygon points="58,90 59,90 64,85 59,80 58,80 58,90 " style="fill:white; stroke-width:1; stroke:black; " description="&lt;b&gt;SVTN_RS03665&lt;/b&gt;&lt;br&gt;peptidase C45&lt;br&gt;Location: 858278 - 857202" locus_tag="SVTN_RS03665" class="clusterblast-orf" id="dummy-3_h3_9_14"  />
</g>
<g id="a3_0015"  >
<polygon points="64,90 69,90 74,85 69,80 64,80 64,90 " style="fill:white; stroke-width:1; stroke:black; " description="&lt;b&gt;SVTN_RS03660&lt;/b&gt;&lt;br&gt;amidohydrolase&lt;br&gt;Location: 857187 - 855541" locus_tag="SVTN_RS03660" class="clusterblast-orf" id="dummy-3_h3_9_15"  />
</g>
<g id="a3_0016"  >
<polygon points="75,90 76,90 81,85 76,80 75,80 75,90 " style="fill:white; stroke-width:1; stroke:black; " description="&lt;b&gt;SVTN_RS03655&lt;/b&gt;&lt;br&gt;ABC transporter permease&lt;br&gt;Location: 855454 - 854510" locus_tag="SVTN_RS03655" class="clusterblast-orf" id="dummy-3_h3_9_16"  />
</g>
<g id="a3_0017"  >
<polygon points="81,90 81,90 86,85 81,80 81,80 81,90 " style="fill:white; stroke-width:1; stroke:black; " description="&lt;b&gt;SVTN_RS03650&lt;/b&gt;&lt;br&gt;ABC transporter permease&lt;br&gt;Location: 854513 - 853641" locus_tag="SVTN_RS03650" class="clusterblast-orf" id="dummy-3_h3_9_17"  />
</g>
<g id="a3_0018"  >
<polygon points="86,90 87,90 92,85 87,80 86,80 86,90 " style="fill:white; stroke-width:1; stroke:black; " description="&lt;b&gt;SVTN_RS03645&lt;/b&gt;&lt;br&gt;ABC transporter ATP-binding protein&lt;br&gt;Location: 853644 - 852622" locus_tag="SVTN_RS03645" class="clusterblast-orf" id="dummy-3_h3_9_18"  />
</g>
<g id="a3_0019"  >
<polygon points="92,90 92,90 97,85 92,80 92,80 92,90 " style="fill:white; stroke-width:1; stroke:black; " description="&lt;b&gt;SVTN_RS03640&lt;/b&gt;&lt;br&gt;ABC transporter ATP-binding protein&lt;br&gt;Location: 852625 - 851819" locus_tag="SVTN_RS03640" class="clusterblast-orf" id="dummy-3_h3_9_19"  />
</g>
<g id="a3_0020"  >
<polygon points="97,90 102,90 107,85 102,80 97,80 97,90 " style="fill:white; stroke-width:1; stroke:black; " description="&lt;b&gt;SVTN_RS03635&lt;/b&gt;&lt;br&gt;ABC transporter substrate-binding protein&lt;br&gt;Location: 851804 - 850149" locus_tag="SVTN_RS03635" class="clusterblast-orf" id="dummy-3_h3_9_20"  />
</g>
<g id="a3_0021"  >
<polygon points="109,90 109,90 114,85 109,80 109,80 109,90 " style="fill:white; stroke-width:1; stroke:black; " description="&lt;b&gt;SVTN_RS03630&lt;/b&gt;&lt;br&gt;hypothetical protein&lt;br&gt;Location: 849821 - 849132" locus_tag="SVTN_RS03630" class="clusterblast-orf" id="dummy-3_h3_9_21"  />
</g>
<g id="a3_0022"  >
<polygon points="114,85 118,80 118,90 114,85 " style="fill:white; stroke-width:1; stroke:black; " description="&lt;b&gt;SVTN_RS03625&lt;/b&gt;&lt;br&gt;pyridoxamine 5'-phosphate oxidase family protein&lt;br&gt;Location: 849047 - 848472" locus_tag="SVTN_RS03625" class="clusterblast-orf" id="dummy-3_h3_9_22"  />
</g>
<g id="a3_0023"  >
<polygon points="121,90 126,90 131,85 126,80 121,80 121,90 " style="fill:white; stroke-width:1; stroke:black; " description="&lt;b&gt;SVTN_RS03620&lt;/b&gt;&lt;br&gt;hypothetical protein&lt;br&gt;Location: 847912 - 846242" locus_tag="SVTN_RS03620" class="clusterblast-orf" id="dummy-3_h3_9_23"  />
</g>
<g id="a3_0024"  >
<polygon points="131,90 132,90 137,85 132,80 131,80 131,90 " style="fill:white; stroke-width:1; stroke:black; " description="&lt;b&gt;SVTN_RS03615&lt;/b&gt;&lt;br&gt;diiron oxygenase&lt;br&gt;Location: 846221 - 845349" locus_tag="SVTN_RS03615" class="clusterblast-orf" id="dummy-3_h3_9_24"  />
</g>
<g id="a3_0025"  >
<polygon points="138,90 138,90 143,85 138,80 138,80 138,90 " style="fill:white; stroke-width:1; stroke:black; " description="&lt;b&gt;SVTN_RS03610&lt;/b&gt;&lt;br&gt;hypothetical protein&lt;br&gt;Location: 845196 - 844333" locus_tag="SVTN_RS03610" class="clusterblast-orf" id="dummy-3_h3_9_25"  />
</g>
<g id="a3_0026"  >
<polygon points="143,90 144,90 149,85 144,80 143,80 143,90 " style="fill:white; stroke-width:1; stroke:black; " description="&lt;b&gt;SVTN_RS03605&lt;/b&gt;&lt;br&gt;nitronate monooxygenase&lt;br&gt;Location: 844294 - 843314" locus_tag="SVTN_RS03605" class="clusterblast-orf" id="dummy-3_h3_9_26"  />
</g>
<g id="a3_0027"  >
<polygon points="149,90 151,85 149,80 149,90 " style="fill:white; stroke-width:1; stroke:black; " description="&lt;b&gt;SVTN_RS03600&lt;/b&gt;&lt;br&gt;hypothetical protein&lt;br&gt;Location: 843279 - 843046" locus_tag="SVTN_RS03600" class="clusterblast-orf" id="dummy-3_h3_9_27"  />
</g>
<g id="a3_0028"  >
<polygon points="151,90 157,90 162,85 157,80 151,80 151,90 " style="fill:white; stroke-width:1; stroke:black; " description="&lt;b&gt;SVTN_RS03595&lt;/b&gt;&lt;br&gt;ABC transporter ATP-binding protein&lt;br&gt;Location: 842938 - 841139" locus_tag="SVTN_RS03595" class="clusterblast-orf" id="dummy-3_h3_9_28"  />
</g>
<g id="a3_0029"  >
<polygon points="162,90 168,90 173,85 168,80 162,80 162,90 " style="fill:white; stroke-width:1; stroke:black; " description="&lt;b&gt;SVTN_RS03590&lt;/b&gt;&lt;br&gt;ABC transporter ATP-binding protein&lt;br&gt;Location: 841142 - 839367" locus_tag="SVTN_RS03590" class="clusterblast-orf" id="dummy-3_h3_9_29"  />
</g>
<g id="a3_0030"  >
<polygon points="173,90 175,85 173,80 173,90 " style="fill:white; stroke-width:1; stroke:black; " description="&lt;b&gt;SVTN_RS03585&lt;/b&gt;&lt;br&gt;hypothetical protein&lt;br&gt;Location: 839339 - 839079" locus_tag="SVTN_RS03585" class="clusterblast-orf" id="dummy-3_h3_9_30"  />
</g>
<g id="a3_0031"  >
<polygon points="175,90 177,90 182,85 177,80 175,80 175,90 " style="fill:white; stroke-width:1; stroke:black; " description="&lt;b&gt;SVTN_RS03580&lt;/b&gt;&lt;br&gt;FAD-dependent oxidoreductase&lt;br&gt;Location: 839020 - 837872" locus_tag="SVTN_RS03580" class="clusterblast-orf" id="dummy-3_h3_9_31"  />
</g>
<g id="a3_0032"  >
<polygon points="184,90 189,90 194,85 189,80 184,80 184,90 " style="fill:white; stroke-width:1; stroke:black; " description="&lt;b&gt;SVTN_RS03575&lt;/b&gt;&lt;br&gt;amino acid adenylation domain-containing protein&lt;br&gt;Location: 837623 - 836049" locus_tag="SVTN_RS03575" class="clusterblast-orf" id="dummy-3_h3_9_32"  />
</g>
<g id="a3_0033"  >
<polygon points="194,90 195,90 200,85 195,80 194,80 194,90 " style="fill:white; stroke-width:1; stroke:black; " description="&lt;b&gt;SVTN_RS03570&lt;/b&gt;&lt;br&gt;hypothetical protein&lt;br&gt;Location: 835961 - 835047" locus_tag="SVTN_RS03570" class="clusterblast-orf" id="dummy-3_h3_9_33"  />
</g>
<g id="a3_0034"  >
<polygon points="200,90 204,85 200,80 200,90 " style="fill:white; stroke-width:1; stroke:black; " description="&lt;b&gt;SVTN_RS03565&lt;/b&gt;&lt;br&gt;hypothetical protein&lt;br&gt;Location: 835050 - 834325" locus_tag="SVTN_RS03565" class="clusterblast-orf" id="dummy-3_h3_9_34"  />
</g>
<g id="a3_0035"  >
<polygon points="204,85 209,80 209,80 209,90 209,90 204,85 " style="fill:white; stroke-width:1; stroke:black; " description="&lt;b&gt;SVTN_RS03560&lt;/b&gt;&lt;br&gt;alpha/beta fold hydrolase&lt;br&gt;Location: 834400 - 833534" locus_tag="SVTN_RS03560" class="clusterblast-orf" id="dummy-3_h3_9_35"  />
</g>
<g id="a3_0036"  >
<polygon points="210,90 212,90 217,85 212,80 210,80 210,90 " style="fill:white; stroke-width:1; stroke:black; " description="&lt;b&gt;SVTN_RS03555&lt;/b&gt;&lt;br&gt;magnesium/cobalt transporter CorA&lt;br&gt;Location: 833370 - 832288" locus_tag="SVTN_RS03555" class="clusterblast-orf" id="dummy-3_h3_9_36"  />
</g>
<g id="a3_0037"  >
<polygon points="217,85 221,80 221,90 217,85 " style="fill:white; stroke-width:1; stroke:black; " description="&lt;b&gt;SVTN_RS03550&lt;/b&gt;&lt;br&gt;dihydrofolate reductase family protein&lt;br&gt;Location: 832199 - 831636" locus_tag="SVTN_RS03550" class="clusterblast-orf" id="dummy-3_h3_9_37"  />
</g>
<g id="a3_0038"  >
<polygon points="221,85 226,80 226,80 226,90 226,90 221,85 " style="fill:white; stroke-width:1; stroke:black; " description="&lt;b&gt;SVTN_RS03545&lt;/b&gt;&lt;br&gt;DUF4097 family beta strand repeat protein&lt;br&gt;Location: 831547 - 830822" locus_tag="SVTN_RS03545" class="clusterblast-orf" id="dummy-3_h3_9_38"  />
</g>
<g id="a3_0039"  >
<polygon points="227,90 233,90 238,85 233,80 227,80 227,90 " style="fill:white; stroke-width:1; stroke:black; " description="&lt;b&gt;SVTN_RS44130&lt;/b&gt;&lt;br&gt;fatty acyl-AMP ligase&lt;br&gt;Location: 830594 - 828765" locus_tag="SVTN_RS44130" class="clusterblast-orf" id="dummy-3_h3_9_39"  />
</g>
<g id="a3_0040"  >
<polygon points="238,90 244,90 249,85 244,80 238,80 238,90 " style="fill:white; stroke-width:1; stroke:black; " description="&lt;b&gt;SVTN_RS44125&lt;/b&gt;&lt;br&gt;acyl-CoA dehydrogenase&lt;br&gt;Location: 828771 - 827041" locus_tag="SVTN_RS44125" class="clusterblast-orf" id="dummy-3_h3_9_40"  />
</g>
<g id="a3_0041"  >
<polygon points="249,90 251,85 249,80 249,90 " style="fill:white; stroke-width:1; stroke:black; " description="&lt;b&gt;SVTN_RS03530&lt;/b&gt;&lt;br&gt;acyl carrier protein&lt;br&gt;Location: 827009 - 826731" locus_tag="SVTN_RS03530" class="clusterblast-orf" id="dummy-3_h3_9_41"  />
</g>
<g id="a3_0042"  >
<polygon points="251,90 264,90 269,85 264,80 251,80 251,90 " style="fill:white; stroke-width:1; stroke:black; " description="&lt;b&gt;SVTN_RS03525&lt;/b&gt;&lt;br&gt;acyltransferase domain-containing protein&lt;br&gt;Location: 826731 - 823753" locus_tag="SVTN_RS03525" class="clusterblast-orf" id="dummy-3_h3_9_42"  />
</g>
<g id="a3_0043"  >
<polygon points="269,90 270,90 275,85 270,80 269,80 269,90 " style="fill:white; stroke-width:1; stroke:black; " description="&lt;b&gt;SVTN_RS03520&lt;/b&gt;&lt;br&gt;3-oxoacyl-ACP synthase III family protein&lt;br&gt;Location: 823685 - 822669" locus_tag="SVTN_RS03520" class="clusterblast-orf" id="dummy-3_h3_9_43"  />
</g>
<g id="a3_0044"  >
<polygon points="275,90 282,90 287,85 282,80 275,80 275,90 " style="fill:white; stroke-width:1; stroke:black; " description="&lt;b&gt;SVTN_RS03515&lt;/b&gt;&lt;br&gt;HAD-IIIC family phosphatase&lt;br&gt;Location: 822663 - 820768" locus_tag="SVTN_RS03515" class="clusterblast-orf" id="dummy-3_h3_9_44"  />
</g>
<g id="a3_0045"  >
<polygon points="287,90 288,85 287,80 287,90 " style="fill:white; stroke-width:1; stroke:black; " description="&lt;b&gt;SVTN_RS03510&lt;/b&gt;&lt;br&gt;hypothetical protein&lt;br&gt;Location: 820771 - 820535" locus_tag="SVTN_RS03510" class="clusterblast-orf" id="dummy-3_h3_9_45"  />
</g>
<g id="a3_0046"  >
<polygon points="288,90 289,90 294,85 289,80 288,80 288,90 " style="fill:white; stroke-width:1; stroke:black; " description="&lt;b&gt;SVTN_RS03505&lt;/b&gt;&lt;br&gt;4'-phosphopantetheinyl transferase superfamily protein&lt;br&gt;Location: 820538 - 819690" locus_tag="SVTN_RS03505" class="clusterblast-orf" id="dummy-3_h3_9_46"  />
</g>
<g id="a3_0047"  >
<polygon points="294,85 299,80 300,80 300,90 299,90 294,85 " style="fill:white; stroke-width:1; stroke:black; " description="&lt;b&gt;SVTN_RS03500&lt;/b&gt;&lt;br&gt;hypothetical protein&lt;br&gt;Location: 819668 - 818634" locus_tag="SVTN_RS03500" class="clusterblast-orf" id="dummy-3_h3_9_47"  />
</g>
<g id="a3_0048"  >
<polygon points="301,90 302,85 301,80 301,90 " style="fill:white; stroke-width:1; stroke:black; " description="&lt;b&gt;SVTN_RS03495&lt;/b&gt;&lt;br&gt;hypothetical protein&lt;br&gt;Location: 818447 - 818238" locus_tag="SVTN_RS03495" class="clusterblast-orf" id="dummy-3_h3_9_48"  />
</g>
<g id="a3_0049"  >
<polygon points="303,85 307,80 307,90 303,85 " style="fill:white; stroke-width:1; stroke:black; " description="&lt;b&gt;SVTN_RS03490&lt;/b&gt;&lt;br&gt;4'-phosphopantetheinyl transferase superfamily protein&lt;br&gt;Location: 818170 - 817499" locus_tag="SVTN_RS03490" class="clusterblast-orf" id="dummy-3_h3_9_49"  />
</g>
<g id="a3_0050"  >
<polygon points="310,90 321,90 326,85 321,80 310,80 310,90 " style="fill:white; stroke-width:1; stroke:black; " description="&lt;b&gt;SVTN_RS03485&lt;/b&gt;&lt;br&gt;helix-turn-helix transcriptional regulator&lt;br&gt;Location: 817089 - 814351" locus_tag="SVTN_RS03485" class="clusterblast-orf" id="dummy-3_h3_9_50"  />
</g>
<g id="a3_0051"  >
<polygon points="328,90 329,90 334,85 329,80 328,80 328,90 " style="fill:white; stroke-width:1; stroke:black; " description="&lt;b&gt;SVTN_RS03480&lt;/b&gt;&lt;br&gt;polyprenyl synthetase family protein&lt;br&gt;Location: 814027 - 813128" locus_tag="SVTN_RS03480" class="clusterblast-orf" id="dummy-3_h3_9_51"  />
</g>
<g id="a3_0052"  >
<polygon points="334,85 339,80 345,80 345,90 339,90 334,85 " style="fill:white; stroke-width:1; stroke:black; " description="&lt;b&gt;SVTN_RS03475&lt;/b&gt;&lt;br&gt;AMP-binding protein&lt;br&gt;Location: 813100 - 811283" locus_tag="SVTN_RS03475" class="clusterblast-orf" id="dummy-3_h3_9_52"  />
</g>
<g id="a3_0053"  >
<polygon points="345,85 350,80 359,80 359,90 350,90 345,85 " style="fill:white; stroke-width:1; stroke:black; " description="&lt;b&gt;SVTN_RS03470&lt;/b&gt;&lt;br&gt;hypothetical protein&lt;br&gt;Location: 811265 - 808989" locus_tag="SVTN_RS03470" class="clusterblast-orf" id="dummy-3_h3_9_53"  />
</g>
<g id="a3_0054"  >
<polygon points="359,85 364,80 376,80 376,90 364,90 359,85 " style="fill:white; stroke-width:1; stroke:black; " description="&lt;b&gt;SVTN_RS03465&lt;/b&gt;&lt;br&gt;winged helix-turn-helix domain-containing protein&lt;br&gt;Location: 808977 - 806281" locus_tag="SVTN_RS03465" class="clusterblast-orf" id="dummy-3_h3_9_54"  />
</g>
<g id="a3_0055"  >
<polygon points="376,85 381,80 382,80 382,90 381,90 376,85 " style="fill:white; stroke-width:1; stroke:black; " description="&lt;b&gt;SVTN_RS03460&lt;/b&gt;&lt;br&gt;hypothetical protein&lt;br&gt;Location: 806270 - 805260" locus_tag="SVTN_RS03460" class="clusterblast-orf" id="dummy-3_h3_9_55"  />
</g>
<g id="a3_0056"  >
<polygon points="383,90 387,90 392,85 387,80 383,80 383,90 " style="fill:white; stroke-width:1; stroke:black; " description="&lt;b&gt;SVTN_RS03455&lt;/b&gt;&lt;br&gt;MFS transporter&lt;br&gt;Location: 805015 - 803630" locus_tag="SVTN_RS03455" class="clusterblast-orf" id="dummy-3_h3_9_56"  />
</g>
<g id="a3_0057"  >
<polygon points="392,85 397,80 398,80 398,90 397,90 392,85 " style="fill:white; stroke-width:1; stroke:black; " description="&lt;b&gt;SVTN_RS03450&lt;/b&gt;&lt;br&gt;hypothetical protein&lt;br&gt;Location: 803576 - 802587" locus_tag="SVTN_RS03450" class="clusterblast-orf" id="dummy-3_h3_9_57"  />
</g>
<g id="a3_0058"  >
<polygon points="399,90 404,90 409,85 404,80 399,80 399,90 " style="fill:white; stroke-width:1; stroke:black; " description="&lt;b&gt;SVTN_RS03445&lt;/b&gt;&lt;br&gt;MFS transporter&lt;br&gt;Location: 802399 - 800852" locus_tag="SVTN_RS03445" class="clusterblast-orf" id="dummy-3_h3_9_58"  />
</g>
<g id="a3_0059"  >
<polygon points="410,90 413,85 410,80 410,90 " style="fill:white; stroke-width:1; stroke:black; " description="&lt;b&gt;SVTN_RS03440&lt;/b&gt;&lt;br&gt;ester cyclase&lt;br&gt;Location: 800659 - 800231" locus_tag="SVTN_RS03440" class="clusterblast-orf" id="dummy-3_h3_9_59"  />
</g>
<g id="a3_0060"  >
<polygon points="413,90 421,90 426,85 421,80 413,80 413,90 " style="fill:white; stroke-width:1; stroke:black; " description="&lt;b&gt;SVTN_RS03435&lt;/b&gt;&lt;br&gt;acyltransferase domain-containing protein&lt;br&gt;Location: 800213 - 797973" locus_tag="SVTN_RS03435" class="clusterblast-orf" id="dummy-3_h3_9_60"  />
</g>
<g id="a3_0061"  >
<polygon points="426,90 462,90 467,85 462,80 426,80 426,90 " style="fill:#d8bc15; stroke-width:1; stroke:black; " description="&lt;b&gt;SVTN_RS03430&lt;/b&gt;&lt;br&gt;non-ribosomal peptide synthetase&lt;br&gt;Location: 797976 - 791386&lt;br&gt;&lt;br&gt;&lt;b&gt;BlastP hit with CopciAB_417352.T0&lt;/b&gt;&lt;br&gt;Percentage identity: 31&lt;br&gt;Percentage coverage: 61&lt;br&gt;BLAST bit score: 337&lt;br&gt;E-value: 4.01e-92" locus_tag="SVTN_RS03430" class="clusterblast-orf" id="dummy-3_h3_9_61"  />
</g>
<g id="a3_0062"  >
<polygon points="467,90 480,90 485,85 480,80 467,80 467,90 " style="fill:white; stroke-width:1; stroke:black; " description="&lt;b&gt;SVTN_RS03425&lt;/b&gt;&lt;br&gt;type I polyketide synthase&lt;br&gt;Location: 791393 - 788340" locus_tag="SVTN_RS03425" class="clusterblast-orf" id="dummy-3_h3_9_62"  />
</g>
<g id="a3_0063"  >
<polygon points="485,90 507,90 512,85 507,80 485,80 485,90 " style="fill:white; stroke-width:1; stroke:black; " description="&lt;b&gt;SVTN_RS03420&lt;/b&gt;&lt;br&gt;non-ribosomal peptide synthetase&lt;br&gt;Location: 788343 - 783919" locus_tag="SVTN_RS03420" class="clusterblast-orf" id="dummy-3_h3_9_63"  />
</g>
<g id="a3_0064"  >
<polygon points="513,90 513,90 518,85 513,80 513,80 513,90 " style="fill:white; stroke-width:1; stroke:black; " description="&lt;b&gt;SVTN_RS03415&lt;/b&gt;&lt;br&gt;methyltransferase domain-containing protein&lt;br&gt;Location: 783867 - 782968" locus_tag="SVTN_RS03415" class="clusterblast-orf" id="dummy-3_h3_9_64"  />
</g>
<g id="a3_0065"  >
<polygon points="518,90 519,85 518,80 518,90 " style="fill:white; stroke-width:1; stroke:black; " description="&lt;b&gt;SVTN_RS03410&lt;/b&gt;&lt;br&gt;MbtH family NRPS accessory protein&lt;br&gt;Location: 782971 - 782765" locus_tag="SVTN_RS03410" class="clusterblast-orf" id="dummy-3_h3_9_65"  />
</g>
<g id="a3_0066"  >
<polygon points="520,90 522,85 520,80 520,90 " style="fill:white; stroke-width:1; stroke:black; " description="&lt;b&gt;SVTN_RS03405&lt;/b&gt;&lt;br&gt;aspartate 1-decarboxylase&lt;br&gt;Location: 782715 - 782299" locus_tag="SVTN_RS03405" class="clusterblast-orf" id="dummy-3_h3_9_66"  />
</g>
<g id="a3_0067"  >
<polygon points="523,90 527,85 523,80 523,90 " style="fill:white; stroke-width:1; stroke:black; " description="&lt;b&gt;SVTN_RS03400&lt;/b&gt;&lt;br&gt;thioesterase&lt;br&gt;Location: 782236 - 781496" locus_tag="SVTN_RS03400" class="clusterblast-orf" id="dummy-3_h3_9_67"  />
</g>
<g id="a3_0068"  >
<polygon points="528,90 528,90 533,85 528,80 528,80 528,90 " style="fill:white; stroke-width:1; stroke:black; " description="&lt;b&gt;SVTN_RS03395&lt;/b&gt;&lt;br&gt;2OG-Fe(II) oxygenase&lt;br&gt;Location: 781391 - 780549" locus_tag="SVTN_RS03395" class="clusterblast-orf" id="dummy-3_h3_9_68"  />
</g>
<g id="a3_0069"  >
<polygon points="533,90 537,85 533,80 533,90 " style="fill:white; stroke-width:1; stroke:black; " description="&lt;b&gt;SVTN_RS03390&lt;/b&gt;&lt;br&gt;SDR family oxidoreductase&lt;br&gt;Location: 780546 - 779806" locus_tag="SVTN_RS03390" class="clusterblast-orf" id="dummy-3_h3_9_69"  />
</g>
<g id="a3_0070"  >
<polygon points="538,90 538,90 543,85 538,80 538,80 538,90 " style="fill:white; stroke-width:1; stroke:black; " description="&lt;b&gt;SVTN_RS03385&lt;/b&gt;&lt;br&gt;phytanoyl-CoA dioxygenase family protein&lt;br&gt;Location: 779716 - 778904" locus_tag="SVTN_RS03385" class="clusterblast-orf" id="dummy-3_h3_9_70"  />
</g>
<g id="a3_0071"  >
<polygon points="543,90 545,90 550,85 545,80 543,80 543,90 " style="fill:#4dd815; stroke-width:1; stroke:black; " description="&lt;b&gt;SVTN_RS03380&lt;/b&gt;&lt;br&gt;zinc-binding dehydrogenase&lt;br&gt;Location: 778907 - 777804&lt;br&gt;&lt;br&gt;&lt;b&gt;BlastP hit with CopciAB_360850.T0&lt;/b&gt;&lt;br&gt;Percentage identity: 33&lt;br&gt;Percentage coverage: 84&lt;br&gt;BLAST bit score: 71&lt;br&gt;E-value: 1.36e-12" locus_tag="SVTN_RS03380" class="clusterblast-orf" id="dummy-3_h3_9_71"  />
</g>
<g id="a3_0072"  >
<polygon points="551,90 599,90 604,85 599,80 551,80 551,90 " style="fill:white; stroke-width:1; stroke:black; " description="&lt;b&gt;SVTN_RS03375&lt;/b&gt;&lt;br&gt;type I polyketide synthase&lt;br&gt;Location: 777552 - 768973" locus_tag="SVTN_RS03375" class="clusterblast-orf" id="dummy-3_h3_9_72"  />
</g>
<g id="a3_0073"  >
<polygon points="604,90 639,90 644,85 639,80 604,80 604,90 " style="fill:white; stroke-width:1; stroke:black; " description="&lt;b&gt;SVTN_RS03370&lt;/b&gt;&lt;br&gt;type I polyketide synthase&lt;br&gt;Location: 768952 - 762368" locus_tag="SVTN_RS03370" class="clusterblast-orf" id="dummy-3_h3_9_73"  />
</g>
<g id="a3_0074"  >
<polygon points="644,90 657,90 662,85 657,80 644,80 644,90 " style="fill:white; stroke-width:1; stroke:black; " description="&lt;b&gt;SVTN_RS03365&lt;/b&gt;&lt;br&gt;type I polyketide synthase&lt;br&gt;Location: 762350 - 759444" locus_tag="SVTN_RS03365" class="clusterblast-orf" id="dummy-3_h3_9_74"  />
</g>
<g id="a3_0075"  >
<polygon points="662,90 663,85 662,80 662,90 " style="fill:white; stroke-width:1; stroke:black; " description="&lt;b&gt;SVTN_RS03360&lt;/b&gt;&lt;br&gt;hypothetical protein&lt;br&gt;Location: 759447 - 759199" locus_tag="SVTN_RS03360" class="clusterblast-orf" id="dummy-3_h3_9_75"  />
</g>
<g id="a3_0076"  >
<polygon points="664,90 666,90 671,85 666,80 664,80 664,90 " style="fill:white; stroke-width:1; stroke:black; " description="&lt;b&gt;SVTN_RS03355&lt;/b&gt;&lt;br&gt;methionine adenosyltransferase&lt;br&gt;Location: 759143 - 757935" locus_tag="SVTN_RS03355" class="clusterblast-orf" id="dummy-3_h3_9_76"  />
</g>
<g id="a3_0077"  >
<polygon points="671,90 672,90 677,85 672,80 671,80 671,90 " style="fill:white; stroke-width:1; stroke:black; " description="&lt;b&gt;SVTN_RS03350&lt;/b&gt;&lt;br&gt;carbohydrate kinase family protein&lt;br&gt;Location: 757931 - 756948" locus_tag="SVTN_RS03350" class="clusterblast-orf" id="dummy-3_h3_9_77"  />
</g>
<g id="a3_0078"  >
<polygon points="677,90 694,90 699,85 694,80 677,80 677,90 " style="fill:white; stroke-width:1; stroke:black; " description="&lt;b&gt;SVTN_RS03345&lt;/b&gt;&lt;br&gt;methionine synthase&lt;br&gt;Location: 756951 - 753451" locus_tag="SVTN_RS03345" class="clusterblast-orf" id="dummy-3_h3_9_78"  />
</g>
<g id="a3_0079"  >
<polygon points="699,90 699,90 704,85 699,80 699,80 699,90 " style="fill:white; stroke-width:1; stroke:black; " description="&lt;b&gt;SVTN_RS03340&lt;/b&gt;&lt;br&gt;methylenetetrahydrofolate reductase [NAD(P)H]&lt;br&gt;Location: 753454 - 752567" locus_tag="SVTN_RS03340" class="clusterblast-orf" id="dummy-3_h3_9_79"  />
</g>
<g id="a3_0080"  >
<polygon points="704,90 708,90 713,85 708,80 704,80 704,90 " style="fill:white; stroke-width:1; stroke:black; " description="&lt;b&gt;SVTN_RS03335&lt;/b&gt;&lt;br&gt;adenosylhomocysteinase&lt;br&gt;Location: 752589 - 751180" locus_tag="SVTN_RS03335" class="clusterblast-orf" id="dummy-3_h3_9_80"  />
</g>
<g id="a3_0081"  >
<polygon points="713,90 713,90 718,85 713,80 713,80 713,90 " style="fill:white; stroke-width:1; stroke:black; " description="&lt;b&gt;SVTN_RS03330&lt;/b&gt;&lt;br&gt;hypothetical protein&lt;br&gt;Location: 751109 - 750294" locus_tag="SVTN_RS03330" class="clusterblast-orf" id="dummy-3_h3_9_81"  />
</g>
<g id="a3_0082"  >
<polygon points="718,85 723,80 726,80 726,90 723,90 718,85 " style="fill:white; stroke-width:1; stroke:black; " description="&lt;b&gt;SVTN_RS03325&lt;/b&gt;&lt;br&gt;MFS transporter&lt;br&gt;Location: 750277 - 748991" locus_tag="SVTN_RS03325" class="clusterblast-orf" id="dummy-3_h3_9_82"  />
</g>
<g id="a3_0083"  >
<polygon points="726,85 729,80 729,90 726,85 " style="fill:white; stroke-width:1; stroke:black; " description="&lt;b&gt;SVTN_RS03320&lt;/b&gt;&lt;br&gt;helix-turn-helix domain-containing protein&lt;br&gt;Location: 748994 - 748455" locus_tag="SVTN_RS03320" class="clusterblast-orf" id="dummy-3_h3_9_83"  />
</g>
<g id="a3_0084"  >
<polygon points="730,85 735,80 735,80 735,90 735,90 730,85 " style="fill:white; stroke-width:1; stroke:black; " description="&lt;b&gt;SVTN_RS03315&lt;/b&gt;&lt;br&gt;slipin family protein&lt;br&gt;Location: 748342 - 747458" locus_tag="SVTN_RS03315" class="clusterblast-orf" id="dummy-3_h3_9_84"  />
</g>
<g id="a3_0085"  >
<polygon points="737,85 742,80 745,80 745,90 742,90 737,85 " style="fill:white; stroke-width:1; stroke:black; " description="&lt;b&gt;SVTN_RS03310&lt;/b&gt;&lt;br&gt;FAD-binding oxidoreductase&lt;br&gt;Location: 747248 - 745860" locus_tag="SVTN_RS03310" class="clusterblast-orf" id="dummy-3_h3_9_85"  />
</g>
<g id="a3_0086"  >
<polygon points="746,85 751,80 755,80 755,90 751,90 746,85 " style="fill:white; stroke-width:1; stroke:black; " description="&lt;b&gt;SVTN_RS03305&lt;/b&gt;&lt;br&gt;multicopper oxidase domain-containing protein&lt;br&gt;Location: 745762 - 744170" locus_tag="SVTN_RS03305" class="clusterblast-orf" id="dummy-3_h3_9_86"  />
</g>
<g id="a3_0087"  >
<polygon points="756,85 759,80 759,90 756,85 " style="fill:white; stroke-width:1; stroke:black; " description="&lt;b&gt;SVTN_RS03300&lt;/b&gt;&lt;br&gt;hypothetical protein&lt;br&gt;Location: 744065 - 743631" locus_tag="SVTN_RS03300" class="clusterblast-orf" id="dummy-3_h3_9_87"  />
</g>
<g id="a3_0088"  >
<polygon points="760,90 762,90 767,85 762,80 760,80 760,90 " style="fill:white; stroke-width:1; stroke:black; " description="&lt;b&gt;SVTN_RS03295&lt;/b&gt;&lt;br&gt;two-component sensor histidine kinase&lt;br&gt;Location: 743480 - 742212" locus_tag="SVTN_RS03295" class="clusterblast-orf" id="dummy-3_h3_9_88"  />
</g>
<g id="a3_0089"  >
<polygon points="767,90 771,85 767,80 767,90 " style="fill:white; stroke-width:1; stroke:black; " description="&lt;b&gt;SVTN_RS03290&lt;/b&gt;&lt;br&gt;response regulator transcription factor&lt;br&gt;Location: 742227 - 741580" locus_tag="SVTN_RS03290" class="clusterblast-orf" id="dummy-3_h3_9_89"  />
</g>
<g id="a3_0090"  >
<polygon points="771,85 773,80 773,90 771,85 " style="fill:white; stroke-width:1; stroke:black; " description="&lt;b&gt;SVTN_RS03285&lt;/b&gt;&lt;br&gt;DUF952 domain-containing protein&lt;br&gt;Location: 741572 - 741210" locus_tag="SVTN_RS03285" class="clusterblast-orf" id="dummy-3_h3_9_90"  />
</g>
<g id="a3_0091"  >
<polygon points="774,85 779,80 780,80 780,90 779,90 774,85 " style="fill:white; stroke-width:1; stroke:black; " description="&lt;b&gt;SVTN_RS03280&lt;/b&gt;&lt;br&gt;LysR family transcriptional regulator&lt;br&gt;Location: 741169 - 740228" locus_tag="SVTN_RS03280" class="clusterblast-orf" id="dummy-3_h3_9_91"  />
</g>
</svg>
