<svg xmlns="http://www.w3.org/2000/svg" xmlns:xlink="http://www.w3.org/1999/xlink" version="1.1" x="0" y="0" height="300" width="800" viewBox="0 0 800 300" preserveAspectRatio="none"  >
<g label="Query sequence" class="clusterblast-cluster"  >
<text x="5" y="20" class="clusterblast-acc"  >
Query sequence</text>
<line x1="10" y1="35" x2="778.0" y2="35" style="stroke-width:1; stroke:grey; "  />
<polygon points="0,40 6,40 11,35 6,30 0,30 0,40 " style="fill:white; stroke-width:1; stroke:black; " description="&lt;b&gt;CopciAB_419547.T0&lt;/b&gt;&lt;br&gt;CopciAB 419547.T0&lt;br&gt;Location: 1623445 - 1623880" locus_tag="CopciAB_419547.T0" class="clusterblast-orf" id="general-2_q0_0_all"  />
<polygon points="59,40 63,40 68,35 63,30 59,30 59,40 " style="fill:#d81515; stroke-width:1; stroke:black; " description="&lt;b&gt;CopciAB_476959.T0&lt;/b&gt;&lt;br&gt;CopciAB 476959.T0&lt;br&gt;Location: 1625642 - 1625995" locus_tag="CopciAB_476959.T0" class="clusterblast-orf" id="general-2_q1_0_all"  />
<polygon points="71,35 76,30 97,30 97,40 76,40 71,35 " style="fill:#15d863; stroke-width:1; stroke:black; " description="&lt;b&gt;CopciAB_363200.T0&lt;/b&gt;&lt;br&gt;CopciAB 363200.T0&lt;br&gt;Location: 1626078 - 1627074" locus_tag="CopciAB_363200.T0" class="clusterblast-orf" id="general-2_q2_0_all"  />
<polygon points="122,40 126,35 122,30 122,40 " style="fill:white; stroke-width:1; stroke:black; " description="&lt;b&gt;CopciAB_1001580.T0&lt;/b&gt;&lt;br&gt;CopciAB 1001580.T0&lt;br&gt;Location: 1627996 - 1628155" locus_tag="CopciAB_1001580.T0" class="clusterblast-orf" id="general-2_q3_0_all"  />
<polygon points="138,35 143,30 250,30 250,40 143,40 138,35 " style="fill:white; stroke-width:1; stroke:black; " description="&lt;b&gt;CopciAB_1001581.T0&lt;/b&gt;&lt;br&gt;CopciAB 1001581.T0&lt;br&gt;Location: 1628601 - 1632753" locus_tag="CopciAB_1001581.T0" class="clusterblast-orf" id="general-2_q4_0_all"  />
<polygon points="254,40 309,40 314,35 309,30 254,30 254,40 " style="fill:white; stroke-width:1; stroke:black; " description="&lt;b&gt;CopciAB_1001582.T0&lt;/b&gt;&lt;br&gt;CopciAB 1001582.T0&lt;br&gt;Location: 1632910 - 1635157" locus_tag="CopciAB_1001582.T0" class="clusterblast-orf" id="general-2_q5_0_all"  />
<polygon points="326,35 330,30 330,40 326,35 " style="fill:white; stroke-width:1; stroke:black; " description="&lt;b&gt;CopciAB_1001583.T0&lt;/b&gt;&lt;br&gt;CopciAB 1001583.T0&lt;br&gt;Location: 1635569 - 1635731" locus_tag="CopciAB_1001583.T0" class="clusterblast-orf" id="general-2_q6_0_all"  />
<polygon points="341,40 370,40 375,35 370,30 341,30 341,40 " style="fill:white; stroke-width:1; stroke:black; " description="&lt;b&gt;CopciAB_443341.T0&lt;/b&gt;&lt;br&gt;CopciAB 443341.T0&lt;br&gt;Location: 1636156 - 1637423" locus_tag="CopciAB_443341.T0" class="clusterblast-orf" id="general-2_q7_0_all"  />
<polygon points="391,40 396,40 401,35 396,30 391,30 391,40 " style="fill:#1563d8; stroke-width:1; stroke:black; " description="&lt;b&gt;CopciAB_362075.T0&lt;/b&gt;&lt;br&gt;CopciAB 362075.T0&lt;br&gt;Location: 1637990 - 1638388" locus_tag="CopciAB_362075.T0" class="clusterblast-orf" id="general-2_q8_0_all"  />
<polygon points="400,40 419,40 424,35 419,30 400,30 400,40 " style="fill:#1563d8; stroke-width:1; stroke:black; " description="&lt;b&gt;CopciAB_362075.T1&lt;/b&gt;&lt;br&gt;CopciAB 362075.T1&lt;br&gt;Location: 1638331 - 1639232" locus_tag="CopciAB_362075.T1" class="clusterblast-orf" id="general-2_q9_0_all"  />
<polygon points="433,40 521,40 526,35 521,30 433,30 433,40 " style="fill:#b115d8; stroke-width:1; stroke:black; " description="&lt;b&gt;CopciAB_495583.T0&lt;/b&gt;&lt;br&gt;CopciAB 495583.T0&lt;br&gt;Location: 1639579 - 1643041" locus_tag="CopciAB_495583.T0" class="clusterblast-orf" id="general-2_q10_0_all"  />
<polygon points="532,35 537,30 600,30 600,40 537,40 532,35 " style="fill:white; stroke-width:1; stroke:black; " description="&lt;b&gt;CopciAB_495582.T0&lt;/b&gt;&lt;br&gt;CopciAB 495582.T0&lt;br&gt;Location: 1643258 - 1645778" locus_tag="CopciAB_495582.T0" class="clusterblast-orf" id="general-2_q11_0_all"  />
<polygon points="569,35 570,30 570,40 569,35 " style="fill:white; stroke-width:1; stroke:black; " description="&lt;b&gt;CopciAB_495582.T1&lt;/b&gt;&lt;br&gt;CopciAB 495582.T1&lt;br&gt;Location: 1644616 - 1644651" locus_tag="CopciAB_495582.T1" class="clusterblast-orf" id="general-2_q12_0_all"  />
<polygon points="641,40 658,40 663,35 658,30 641,30 641,40 " style="fill:white; stroke-width:1; stroke:black; " description="&lt;b&gt;CopciAB_1001584.T0&lt;/b&gt;&lt;br&gt;CopciAB 1001584.T0&lt;br&gt;Location: 1647295 - 1648121" locus_tag="CopciAB_1001584.T0" class="clusterblast-orf" id="general-2_q13_0_all"  />
<polygon points="674,40 726,40 731,35 726,30 674,30 674,40 " style="fill:white; stroke-width:1; stroke:black; " description="&lt;b&gt;CopciAB_466786.T0&lt;/b&gt;&lt;br&gt;CopciAB 466786.T0&lt;br&gt;Location: 1648529 - 1650649" locus_tag="CopciAB_466786.T0" class="clusterblast-orf" id="general-2_q14_0_all"  />
<polygon points="737,35 742,30 772,30 772,40 742,40 737,35 " style="fill:#b1d815; stroke-width:1; stroke:black; " description="&lt;b&gt;CopciAB_540189.T0&lt;/b&gt;&lt;br&gt;CopciAB 540189.T0&lt;br&gt;Location: 1650866 - 1652186" locus_tag="CopciAB_540189.T0" class="clusterblast-orf" id="general-2_q15_0_all"  />
<polygon points="776,40 780,35 776,30 776,40 " style="fill:white; stroke-width:1; stroke:black; " description="&lt;b&gt;CopciAB_1001585.T0&lt;/b&gt;&lt;br&gt;CopciAB 1001585.T0&lt;br&gt;Location: 1652335 - 1652476" locus_tag="CopciAB_1001585.T0" class="clusterblast-orf" id="general-2_q16_0_all"  />
</g>
<g label="NW_020939753" description="NW_020939753 (344483-365726): Sparassis crispa DNA, contig 000006F, whole gen... (36% of genes show similarity), terpene" class="clusterblast-cluster"  >
<text x="5" y="70" class="clusterblast-acc"  >
<a xlink:href="https://antismash-db.secondarymetabolites.org/area.html?record=NW_020939753&amp;start=344483&amp;end=365726" target="_blank">NW_020939753 (344483-365726)</a>: Sparassis crispa DNA, contig 000006F, whole gen... (36% of genes show similarity), terpene</text>
<line x1="10" y1="85" x2="778.0" y2="85" style="stroke-width:1; stroke:grey; "  />
</g>
<g id="a2_000"  >
<polygon points="136,85 141,80 154,80 154,90 141,90 136,85 " style="fill:white; stroke-width:1; stroke:black; " description="&lt;b&gt;SCP_0701370&lt;/b&gt;&lt;br&gt;37S ribosomal protein S12, mitochondrial&lt;br&gt;Location: 363885 - 363243" locus_tag="SCP_0701370" class="clusterblast-orf" id="general-2_all_2_1_0"  />
</g>
<g id="a2_001"  >
<polygon points="158,90 187,90 192,85 187,80 158,80 158,90 " style="fill:white; stroke-width:1; stroke:black; " description="&lt;b&gt;SCP_0701360&lt;/b&gt;&lt;br&gt;predicted protein&lt;br&gt;Location: 363089 - 361799" locus_tag="SCP_0701360" class="clusterblast-orf" id="general-2_all_2_1_1"  />
</g>
<g id="a2_002"  >
<polygon points="204,85 209,80 222,80 222,90 209,90 204,85 " style="fill:white; stroke-width:1; stroke:black; " description="&lt;b&gt;SCP_0701350&lt;/b&gt;&lt;br&gt;predicted protein&lt;br&gt;Location: 361383 - 360714" locus_tag="SCP_0701350" class="clusterblast-orf" id="general-2_all_2_1_2"  />
</g>
<g id="a2_003"  >
<polygon points="245,90 280,90 285,85 280,80 245,80 245,90 " style="fill:white; stroke-width:1; stroke:black; " description="&lt;b&gt;SCP_0701340&lt;/b&gt;&lt;br&gt;D-amino-acid oxidase&lt;br&gt;Location: 359852 - 358372" locus_tag="SCP_0701340" class="clusterblast-orf" id="general-2_all_2_1_3"  />
</g>
<g id="a2_004"  >
<polygon points="288,85 293,80 300,80 300,90 293,90 288,85 " style="fill:white; stroke-width:1; stroke:black; " description="&lt;b&gt;SCP_0701330&lt;/b&gt;&lt;br&gt;hypothetical protein&lt;br&gt;Location: 358233 - 357787" locus_tag="SCP_0701330" class="clusterblast-orf" id="general-2_all_2_1_4"  />
</g>
<g id="a2_005"  >
<polygon points="312,90 332,90 337,85 332,80 312,80 312,90 " style="fill:#15d863; stroke-width:1; stroke:black; " description="&lt;b&gt;SCP_0701320&lt;/b&gt;&lt;br&gt;hypothetical protein&lt;br&gt;Location: 357363 - 356433&lt;br&gt;&lt;br&gt;&lt;b&gt;BlastP hit with CopciAB_363200.T0&lt;/b&gt;&lt;br&gt;Percentage identity: 45&lt;br&gt;Percentage coverage: 70&lt;br&gt;BLAST bit score: 139&lt;br&gt;E-value: 8.64e-38" locus_tag="SCP_0701320" class="clusterblast-orf" id="general-2_all_2_1_5"  />
</g>
<g id="a2_006"  >
<polygon points="339,85 344,80 349,80 349,90 344,90 339,85 " style="fill:#d81515; stroke-width:1; stroke:black; " description="&lt;b&gt;SCP_0701310&lt;/b&gt;&lt;br&gt;Succinate dehydrogenase assembly factor 1, mitochondrial&lt;br&gt;Location: 356339 - 355968&lt;br&gt;&lt;br&gt;&lt;b&gt;BlastP hit with CopciAB_476959.T0&lt;/b&gt;&lt;br&gt;Percentage identity: 64&lt;br&gt;Percentage coverage: 90&lt;br&gt;BLAST bit score: 123&lt;br&gt;E-value: 2.63e-36" locus_tag="SCP_0701310" class="clusterblast-orf" id="general-2_all_2_1_6"  />
</g>
<g id="a2_007"  >
<polygon points="356,90 384,90 389,85 384,80 356,80 356,90 " style="fill:#1563d8; stroke-width:1; stroke:black; " description="&lt;b&gt;SCP_0701300&lt;/b&gt;&lt;br&gt;hypothetical protein&lt;br&gt;Location: 355726 - 354484&lt;br&gt;&lt;br&gt;&lt;b&gt;BlastP hit with CopciAB_362075.T0&lt;/b&gt;&lt;br&gt;Percentage identity: 53&lt;br&gt;Percentage coverage: 97&lt;br&gt;BLAST bit score: 105&lt;br&gt;E-value: 1.23e-26&lt;br&gt;&lt;br&gt;&lt;b&gt;BlastP hit with CopciAB_362075.T1&lt;/b&gt;&lt;br&gt;Percentage identity: 68&lt;br&gt;Percentage coverage: 100&lt;br&gt;BLAST bit score: 327&lt;br&gt;E-value: 4.62e-111" locus_tag="SCP_0701300" class="clusterblast-orf" id="general-2_all_2_1_7"  />
</g>
<g id="a2_008"  >
<polygon points="397,90 483,90 488,85 483,80 397,80 397,90 " style="fill:#b115d8; stroke-width:1; stroke:black; " description="&lt;b&gt;SCP_0701290&lt;/b&gt;&lt;br&gt;hypothetical protein&lt;br&gt;Location: 354184 - 350803&lt;br&gt;&lt;br&gt;&lt;b&gt;BlastP hit with CopciAB_495583.T0&lt;/b&gt;&lt;br&gt;Percentage identity: 43&lt;br&gt;Percentage coverage: 104&lt;br&gt;BLAST bit score: 612&lt;br&gt;E-value: 5.88e-206" locus_tag="SCP_0701290" class="clusterblast-orf" id="general-2_all_2_1_8"  />
</g>
<g id="a2_009"  >
<polygon points="520,85 525,80 597,80 597,90 525,90 520,85 " style="fill:white; stroke-width:1; stroke:black; " description="&lt;b&gt;SCP_0701280&lt;/b&gt;&lt;br&gt;Saccharolysin&lt;br&gt;Location: 349610 - 346752" locus_tag="SCP_0701280" class="clusterblast-orf" id="general-2_all_2_1_9"  />
</g>
<g id="a2_0010"  >
<polygon points="628,90 638,90 643,85 638,80 628,80 628,90 " style="fill:white; stroke-width:1; stroke:black; " description="&lt;b&gt;SCP_0701270&lt;/b&gt;&lt;br&gt;hypothetical protein&lt;br&gt;Location: 345606 - 345049" locus_tag="SCP_0701270" class="clusterblast-orf" id="general-2_all_2_1_10"  />
</g>
<g label="NW_009258201" description="NW_009258201 (823647-844837): Heterobasidion irregulare TC 32-1 unplaced geno... (37% of genes show similarity), terpene" class="clusterblast-cluster"  >
<text x="5" y="120" class="clusterblast-acc"  >
<a xlink:href="https://antismash-db.secondarymetabolites.org/area.html?record=NW_009258201&amp;start=823647&amp;end=844837" target="_blank">NW_009258201 (823647-844837)</a>: Heterobasidion irregulare TC 32-1 unplaced geno... (37% of genes show similarity), terpene</text>
<line x1="10" y1="135" x2="778.0" y2="135" style="stroke-width:1; stroke:grey; "  />
</g>
<g id="a2_000"  >
<polygon points="148,135 153,130 218,130 218,140 153,140 148,135 " style="fill:white; stroke-width:1; stroke:black; " description="&lt;b&gt;HETIRDRAFT_383918&lt;/b&gt;&lt;br&gt;hypothetical protein&lt;br&gt;Location: 826455 - 829042" locus_tag="HETIRDRAFT_383918" class="clusterblast-orf" id="general-2_all_2_2_0"  />
</g>
<g id="a2_001"  >
<polygon points="265,140 302,140 307,135 302,130 265,130 265,140 " style="fill:white; stroke-width:1; stroke:black; " description="&lt;b&gt;HETIRDRAFT_383923&lt;/b&gt;&lt;br&gt;hypothetical protein&lt;br&gt;Location: 830791 - 832358" locus_tag="HETIRDRAFT_383923" class="clusterblast-orf" id="general-2_all_2_2_1"  />
</g>
<g id="a2_002"  >
<polygon points="341,140 368,140 373,135 368,130 341,130 341,140 " style="fill:#1563d8; stroke-width:1; stroke:black; " description="&lt;b&gt;HETIRDRAFT_173241&lt;/b&gt;&lt;br&gt;hypothetical protein&lt;br&gt;Location: 833648 - 834837&lt;br&gt;&lt;br&gt;&lt;b&gt;BlastP hit with CopciAB_362075.T0&lt;/b&gt;&lt;br&gt;Percentage identity: 52&lt;br&gt;Percentage coverage: 85&lt;br&gt;BLAST bit score: 102&lt;br&gt;E-value: 1.1e-25&lt;br&gt;&lt;br&gt;&lt;b&gt;BlastP hit with CopciAB_362075.T1&lt;/b&gt;&lt;br&gt;Percentage identity: 65&lt;br&gt;Percentage coverage: 100&lt;br&gt;BLAST bit score: 311&lt;br&gt;E-value: 5.56e-105" locus_tag="HETIRDRAFT_173241" class="clusterblast-orf" id="general-2_all_2_2_2"  />
</g>
<g id="a2_003"  >
<polygon points="381,140 467,140 472,135 467,130 381,130 381,140 " style="fill:#b115d8; stroke-width:1; stroke:black; " description="&lt;b&gt;HETIRDRAFT_434108&lt;/b&gt;&lt;br&gt;hypothetical protein&lt;br&gt;Location: 835112 - 838497&lt;br&gt;&lt;br&gt;&lt;b&gt;BlastP hit with CopciAB_495583.T0&lt;/b&gt;&lt;br&gt;Percentage identity: 42&lt;br&gt;Percentage coverage: 105&lt;br&gt;BLAST bit score: 611&lt;br&gt;E-value: 1.29e-205" locus_tag="HETIRDRAFT_434108" class="clusterblast-orf" id="general-2_all_2_2_3"  />
</g>
<g id="a2_004"  >
<polygon points="485,135 490,130 521,130 521,140 490,140 485,135 " style="fill:#b1d815; stroke-width:1; stroke:black; " description="&lt;b&gt;HETIRDRAFT_118046&lt;/b&gt;&lt;br&gt;vacuolar H+-ATPase V0 sector, subunit D&lt;br&gt;Location: 838990 - 840327&lt;br&gt;&lt;br&gt;&lt;b&gt;BlastP hit with CopciAB_540189.T0&lt;/b&gt;&lt;br&gt;Percentage identity: 77&lt;br&gt;Percentage coverage: 100&lt;br&gt;BLAST bit score: 558&lt;br&gt;E-value: 3.99e-200" locus_tag="HETIRDRAFT_118046" class="clusterblast-orf" id="general-2_all_2_2_4"  />
</g>
<g id="a2_005"  >
<polygon points="525,140 543,140 548,135 543,130 525,130 525,140 " style="fill:white; stroke-width:1; stroke:black; " description="&lt;b&gt;HETIRDRAFT_156265&lt;/b&gt;&lt;br&gt;16k subunit of the vacuolar H+ ATPase&lt;br&gt;Location: 840495 - 841347" locus_tag="HETIRDRAFT_156265" class="clusterblast-orf" id="general-2_all_2_2_5"  />
</g>
<g id="a2_006"  >
<polygon points="565,135 570,130 573,130 573,140 570,140 565,135 " style="fill:white; stroke-width:1; stroke:black; " description="&lt;b&gt;HETIRDRAFT_248226&lt;/b&gt;&lt;br&gt;hypothetical protein&lt;br&gt;Location: 841973 - 842265" locus_tag="HETIRDRAFT_248226" class="clusterblast-orf" id="general-2_all_2_2_6"  />
</g>
<g id="a2_007"  >
<polygon points="583,135 588,130 631,130 631,140 588,140 583,135 " style="fill:white; stroke-width:1; stroke:black; " description="&lt;b&gt;HETIRDRAFT_317381&lt;/b&gt;&lt;br&gt;hypothetical protein&lt;br&gt;Location: 842620 - 844416" locus_tag="HETIRDRAFT_317381" class="clusterblast-orf" id="general-2_all_2_2_7"  />
</g>
<g label="NW_003315670" description="NW_003315670 (1727330-1748555): Schizophyllum commune H4-8 unplaced genomic s... (30% of genes show similarity), terpene" class="clusterblast-cluster"  >
<text x="5" y="170" class="clusterblast-acc"  >
<a xlink:href="https://antismash-db.secondarymetabolites.org/area.html?record=NW_003315670&amp;start=1727330&amp;end=1748555" target="_blank">NW_003315670 (1727330-1748555)</a>: Schizophyllum commune H4-8 unplaced genomic s... (30% of genes show similarity), terpene</text>
<line x1="10" y1="185" x2="778.0" y2="185" style="stroke-width:1; stroke:grey; "  />
</g>
<g id="a2_000"  >
<polygon points="118,190 165,190 170,185 165,180 118,180 118,190 " style="fill:white; stroke-width:1; stroke:black; " description="&lt;b&gt;SCHCODRAFT_106861&lt;/b&gt;&lt;br&gt;uncharacterized protein&lt;br&gt;Location: 1728276 - 1730221" locus_tag="SCHCODRAFT_106861" class="clusterblast-orf" id="general-2_all_2_3_0"  />
</g>
<g id="a2_001"  >
<polygon points="173,185 178,180 212,180 212,190 178,190 173,185 " style="fill:white; stroke-width:1; stroke:black; " description="&lt;b&gt;SCHCODRAFT_106862&lt;/b&gt;&lt;br&gt;uncharacterized protein&lt;br&gt;Location: 1730316 - 1731788" locus_tag="SCHCODRAFT_106862" class="clusterblast-orf" id="general-2_all_2_3_1"  />
</g>
<g id="a2_002"  >
<polygon points="228,190 277,190 282,185 277,180 228,180 228,190 " style="fill:white; stroke-width:1; stroke:black; " description="&lt;b&gt;SCHCODRAFT_106863&lt;/b&gt;&lt;br&gt;uncharacterized protein&lt;br&gt;Location: 1732394 - 1734396" locus_tag="SCHCODRAFT_106863" class="clusterblast-orf" id="general-2_all_2_3_2"  />
</g>
<g id="a2_003"  >
<polygon points="286,185 291,180 325,180 325,190 291,190 286,185 " style="fill:white; stroke-width:1; stroke:black; " description="&lt;b&gt;SCHCODRAFT_233416&lt;/b&gt;&lt;br&gt;uncharacterized protein&lt;br&gt;Location: 1734530 - 1735981" locus_tag="SCHCODRAFT_233416" class="clusterblast-orf" id="general-2_all_2_3_3"  />
</g>
<g id="a2_004"  >
<polygon points="342,185 347,180 353,180 353,190 347,190 342,185 " style="fill:#d81515; stroke-width:1; stroke:black; " description="&lt;b&gt;SCHCODRAFT_52847&lt;/b&gt;&lt;br&gt;uncharacterized protein&lt;br&gt;Location: 1736635 - 1737048&lt;br&gt;&lt;br&gt;&lt;b&gt;BlastP hit with CopciAB_476959.T0&lt;/b&gt;&lt;br&gt;Percentage identity: 50&lt;br&gt;Percentage coverage: 92&lt;br&gt;BLAST bit score: 100&lt;br&gt;E-value: 2.29e-27" locus_tag="SCHCODRAFT_52847" class="clusterblast-orf" id="general-2_all_2_3_4"  />
</g>
<g id="a2_005"  >
<polygon points="361,190 389,190 394,185 389,180 361,180 361,190 " style="fill:#1563d8; stroke-width:1; stroke:black; " description="&lt;b&gt;SCHCODRAFT_52466&lt;/b&gt;&lt;br&gt;uncharacterized protein&lt;br&gt;Location: 1737331 - 1738555&lt;br&gt;&lt;br&gt;&lt;b&gt;BlastP hit with CopciAB_362075.T0&lt;/b&gt;&lt;br&gt;Percentage identity: 54&lt;br&gt;Percentage coverage: 86&lt;br&gt;BLAST bit score: 106&lt;br&gt;E-value: 6.56e-27&lt;br&gt;&lt;br&gt;&lt;b&gt;BlastP hit with CopciAB_362075.T1&lt;/b&gt;&lt;br&gt;Percentage identity: 67&lt;br&gt;Percentage coverage: 100&lt;br&gt;BLAST bit score: 310&lt;br&gt;E-value: 1.21e-104" locus_tag="SCHCODRAFT_52466" class="clusterblast-orf" id="general-2_all_2_3_5"  />
</g>
<g id="a2_006"  >
<polygon points="404,190 485,190 490,185 485,180 404,180 404,190 " style="fill:#b115d8; stroke-width:1; stroke:black; " description="&lt;b&gt;SCHCODRAFT_106866&lt;/b&gt;&lt;br&gt;uncharacterized protein&lt;br&gt;Location: 1738920 - 1742144&lt;br&gt;&lt;br&gt;&lt;b&gt;BlastP hit with CopciAB_495583.T0&lt;/b&gt;&lt;br&gt;Percentage identity: 41&lt;br&gt;Percentage coverage: 100&lt;br&gt;BLAST bit score: 552&lt;br&gt;E-value: 1.57e-183" locus_tag="SCHCODRAFT_106866" class="clusterblast-orf" id="general-2_all_2_3_6"  />
</g>
<g id="a2_007"  >
<polygon points="505,185 510,180 540,180 540,190 510,190 505,185 " style="fill:white; stroke-width:1; stroke:black; " description="&lt;b&gt;SCHCODRAFT_256490&lt;/b&gt;&lt;br&gt;uncharacterized protein&lt;br&gt;Location: 1742694 - 1743993" locus_tag="SCHCODRAFT_256490" class="clusterblast-orf" id="general-2_all_2_3_7"  />
</g>
<g id="a2_008"  >
<polygon points="564,185 569,180 605,180 605,190 569,190 564,185 " style="fill:white; stroke-width:1; stroke:black; " description="&lt;b&gt;SCHCODRAFT_28723&lt;/b&gt;&lt;br&gt;uncharacterized protein&lt;br&gt;Location: 1744881 - 1746400" locus_tag="SCHCODRAFT_28723" class="clusterblast-orf" id="general-2_all_2_3_8"  />
</g>
<g id="a2_009"  >
<polygon points="625,185 630,180 661,180 661,190 630,190 625,185 " style="fill:white; stroke-width:1; stroke:black; " description="&lt;b&gt;SCHCODRAFT_66649&lt;/b&gt;&lt;br&gt;uncharacterized protein&lt;br&gt;Location: 1747155 - 1748504" locus_tag="SCHCODRAFT_66649" class="clusterblast-orf" id="general-2_all_2_3_9"  />
</g>
<g label="CM008257" description="CM008257 (1280329-1301509): Phellinus noxius strain FFPRI411160 chromosome 7,... (37% of genes show similarity), terpene" class="clusterblast-cluster"  >
<text x="5" y="220" class="clusterblast-acc"  >
<a xlink:href="https://antismash-db.secondarymetabolites.org/area.html?record=CM008257&amp;start=1280329&amp;end=1301509" target="_blank">CM008257 (1280329-1301509)</a>: Phellinus noxius strain FFPRI411160 chromosome 7,... (37% of genes show similarity), terpene</text>
<line x1="10" y1="235" x2="778.0" y2="235" style="stroke-width:1; stroke:grey; "  />
</g>
<g id="a2_000"  >
<polygon points="174,235 179,230 199,230 199,240 179,240 174,235 " style="fill:white; stroke-width:1; stroke:black; " description="&lt;b&gt;PNOK_0726400&lt;/b&gt;&lt;br&gt;hypothetical protein&lt;br&gt;Location: 1299903 - 1298981" locus_tag="PNOK_0726400" class="clusterblast-orf" id="general-2_all_2_4_0"  />
</g>
<g id="a2_001"  >
<polygon points="248,235 253,230 300,230 300,240 253,240 248,235 " style="fill:white; stroke-width:1; stroke:black; " description="&lt;b&gt;PNOK_0726300&lt;/b&gt;&lt;br&gt;hypothetical protein&lt;br&gt;Location: 1297131 - 1295210" locus_tag="PNOK_0726300" class="clusterblast-orf" id="general-2_all_2_4_1"  />
</g>
<g id="a2_002"  >
<polygon points="328,235 333,230 391,230 391,240 333,240 328,235 " style="fill:white; stroke-width:1; stroke:black; " description="&lt;b&gt;PNOK_0726200&lt;/b&gt;&lt;br&gt;hypothetical protein&lt;br&gt;Location: 1294155 - 1291819" locus_tag="PNOK_0726200" class="clusterblast-orf" id="general-2_all_2_4_2"  />
</g>
<g id="a2_003"  >
<polygon points="400,235 405,230 431,230 431,240 405,240 400,235 " style="fill:#1563d8; stroke-width:1; stroke:black; " description="&lt;b&gt;PNOK_0726100&lt;/b&gt;&lt;br&gt;hypothetical protein&lt;br&gt;Location: 1291509 - 1290330&lt;br&gt;&lt;br&gt;&lt;b&gt;BlastP hit with CopciAB_362075.T0&lt;/b&gt;&lt;br&gt;Percentage identity: 55&lt;br&gt;Percentage coverage: 78&lt;br&gt;BLAST bit score: 97&lt;br&gt;E-value: 2.82e-23&lt;br&gt;&lt;br&gt;&lt;b&gt;BlastP hit with CopciAB_362075.T1&lt;/b&gt;&lt;br&gt;Percentage identity: 63&lt;br&gt;Percentage coverage: 101&lt;br&gt;BLAST bit score: 287&lt;br&gt;E-value: 2.14e-95" locus_tag="PNOK_0726100" class="clusterblast-orf" id="general-2_all_2_4_3"  />
</g>
<g id="a2_004"  >
<polygon points="434,240 440,240 445,235 440,230 434,230 434,240 " style="fill:#d81515; stroke-width:1; stroke:black; " description="&lt;b&gt;PNOK_0726000&lt;/b&gt;&lt;br&gt;heat shock&lt;br&gt;Location: 1290217 - 1289812&lt;br&gt;&lt;br&gt;&lt;b&gt;BlastP hit with CopciAB_476959.T0&lt;/b&gt;&lt;br&gt;Percentage identity: 58&lt;br&gt;Percentage coverage: 88&lt;br&gt;BLAST bit score: 104&lt;br&gt;E-value: 1.38e-28" locus_tag="PNOK_0726000" class="clusterblast-orf" id="general-2_all_2_4_4"  />
</g>
<g id="a2_005"  >
<polygon points="448,235 453,230 472,230 472,240 453,240 448,235 " style="fill:#15d863; stroke-width:1; stroke:black; " description="&lt;b&gt;PNOK_0725900&lt;/b&gt;&lt;br&gt;MRP-L47-domain-containing&lt;br&gt;Location: 1289722 - 1288824&lt;br&gt;&lt;br&gt;&lt;b&gt;BlastP hit with CopciAB_363200.T0&lt;/b&gt;&lt;br&gt;Percentage identity: 59&lt;br&gt;Percentage coverage: 40&lt;br&gt;BLAST bit score: 128&lt;br&gt;E-value: 8.7e-34" locus_tag="PNOK_0725900" class="clusterblast-orf" id="general-2_all_2_4_5"  />
</g>
<g id="a2_006"  >
<polygon points="473,240 554,240 559,235 554,230 473,230 473,240 " style="fill:white; stroke-width:1; stroke:black; " description="&lt;b&gt;PNOK_0725800&lt;/b&gt;&lt;br&gt;protein related to phosphatidic acid-preferring phospholipase A1&lt;br&gt;Location: 1288761 - 1285573" locus_tag="PNOK_0725800" class="clusterblast-orf" id="general-2_all_2_4_6"  />
</g>
<g id="a2_007"  >
<polygon points="571,240 600,240 605,235 600,230 571,230 571,240 " style="fill:white; stroke-width:1; stroke:black; " description="&lt;b&gt;PNOK_0725700&lt;/b&gt;&lt;br&gt;carbohydrate-binding module family 1&lt;br&gt;Location: 1285113 - 1283860" locus_tag="PNOK_0725700" class="clusterblast-orf" id="general-2_all_2_4_7"  />
</g>
<g label="NW_006267370" description="NW_006267370 (636822-657986): Agaricus bisporus var. bisporus H97 unplaced ge... (22% of genes show similarity), terpene" class="clusterblast-cluster"  >
<text x="5" y="270" class="clusterblast-acc"  >
<a xlink:href="https://antismash-db.secondarymetabolites.org/area.html?record=NW_006267370&amp;start=636822&amp;end=657986" target="_blank">NW_006267370 (636822-657986)</a>: Agaricus bisporus var. bisporus H97 unplaced ge... (22% of genes show similarity), terpene</text>
<line x1="10" y1="285" x2="778.0" y2="285" style="stroke-width:1; stroke:grey; "  />
</g>
<g id="a2_000"  >
<polygon points="128,285 133,280 159,280 159,290 133,290 128,285 " style="fill:white; stroke-width:1; stroke:black; " description="&lt;b&gt;AGABI2DRAFT_206856&lt;/b&gt;&lt;br&gt;hypothetical protein&lt;br&gt;Location: 637491 - 638648" locus_tag="AGABI2DRAFT_206856" class="clusterblast-orf" id="general-2_all_2_5_0"  />
</g>
<g id="a2_001"  >
<polygon points="166,285 171,280 286,280 286,290 171,290 166,285 " style="fill:white; stroke-width:1; stroke:black; " description="&lt;b&gt;AGABI2DRAFT_223857&lt;/b&gt;&lt;br&gt;hypothetical protein&lt;br&gt;Location: 638924 - 643396" locus_tag="AGABI2DRAFT_223857" class="clusterblast-orf" id="general-2_all_2_5_1"  />
</g>
<g id="a2_002"  >
<polygon points="302,290 325,290 330,285 325,280 302,280 302,290 " style="fill:white; stroke-width:1; stroke:black; " description="&lt;b&gt;AGABI2DRAFT_206864&lt;/b&gt;&lt;br&gt;hypothetical protein&lt;br&gt;Location: 643972 - 645039" locus_tag="AGABI2DRAFT_206864" class="clusterblast-orf" id="general-2_all_2_5_2"  />
</g>
<g id="a2_003"  >
<polygon points="366,285 371,280 375,280 375,290 371,290 366,285 " style="fill:#d81515; stroke-width:1; stroke:black; " description="&lt;b&gt;AGABI2DRAFT_223864&lt;/b&gt;&lt;br&gt;hypothetical protein&lt;br&gt;Location: 646345 - 646692&lt;br&gt;&lt;br&gt;&lt;b&gt;BlastP hit with CopciAB_476959.T0&lt;/b&gt;&lt;br&gt;Percentage identity: 67&lt;br&gt;Percentage coverage: 93&lt;br&gt;BLAST bit score: 128&lt;br&gt;E-value: 3.36e-38" locus_tag="AGABI2DRAFT_223864" class="clusterblast-orf" id="general-2_all_2_5_3"  />
</g>
<g id="a2_004"  >
<polygon points="378,290 405,290 410,285 405,280 378,280 378,290 " style="fill:#1563d8; stroke-width:1; stroke:black; " description="&lt;b&gt;AGABI2DRAFT_206868&lt;/b&gt;&lt;br&gt;hypothetical protein&lt;br&gt;Location: 646823 - 647986&lt;br&gt;&lt;br&gt;&lt;b&gt;BlastP hit with CopciAB_362075.T0&lt;/b&gt;&lt;br&gt;Percentage identity: 54&lt;br&gt;Percentage coverage: 83&lt;br&gt;BLAST bit score: 106&lt;br&gt;E-value: 8.09e-27&lt;br&gt;&lt;br&gt;&lt;b&gt;BlastP hit with CopciAB_362075.T1&lt;/b&gt;&lt;br&gt;Percentage identity: 58&lt;br&gt;Percentage coverage: 109&lt;br&gt;BLAST bit score: 285&lt;br&gt;E-value: 1.91e-94" locus_tag="AGABI2DRAFT_206868" class="clusterblast-orf" id="general-2_all_2_5_4"  />
</g>
<g id="a2_005"  >
<polygon points="427,290 441,290 446,285 441,280 427,280 427,290 " style="fill:white; stroke-width:1; stroke:black; " description="&lt;b&gt;AGABI2DRAFT_144074&lt;/b&gt;&lt;br&gt;hypothetical protein&lt;br&gt;Location: 648630 - 649324" locus_tag="AGABI2DRAFT_144074" class="clusterblast-orf" id="general-2_all_2_5_5"  />
</g>
<g id="a2_006"  >
<polygon points="447,285 452,280 480,280 480,290 452,290 447,285 " style="fill:white; stroke-width:1; stroke:black; " description="&lt;b&gt;AGABI2DRAFT_206870&lt;/b&gt;&lt;br&gt;hypothetical protein&lt;br&gt;Location: 649373 - 650616" locus_tag="AGABI2DRAFT_206870" class="clusterblast-orf" id="general-2_all_2_5_6"  />
</g>
<g id="a2_007"  >
<polygon points="524,285 529,280 536,280 536,290 529,290 524,285 " style="fill:white; stroke-width:1; stroke:black; " description="&lt;b&gt;AGABI2DRAFT_72336&lt;/b&gt;&lt;br&gt;hypothetical protein&lt;br&gt;Location: 652248 - 652679" locus_tag="AGABI2DRAFT_72336" class="clusterblast-orf" id="general-2_all_2_5_7"  />
</g>
<g id="a2_008"  >
<polygon points="626,290 646,290 651,285 646,280 626,280 626,290 " style="fill:white; stroke-width:1; stroke:black; " description="&lt;b&gt;AGABI2DRAFT_193638&lt;/b&gt;&lt;br&gt;hypothetical protein&lt;br&gt;Location: 656029 - 656982" locus_tag="AGABI2DRAFT_193638" class="clusterblast-orf" id="general-2_all_2_5_8"  />
</g>
</svg>
