<svg xmlns="http://www.w3.org/2000/svg" xmlns:xlink="http://www.w3.org/1999/xlink" version="1.1" x="0" y="0" height="230" width="800" viewBox="0 0 800 230" preserveAspectRatio="none"  >
<g label="Query sequence" class="clusterblast-cluster"  >
<text x="5" y="20" class="clusterblast-acc"  >
Query sequence</text>
<line x1="10" y1="35" x2="778.0" y2="35" style="stroke-width:1; stroke:grey; "  />
<polygon points="251,40 252,40 257,35 252,30 251,30 251,40 " style="fill:white; stroke-width:1; stroke:black; " description="&lt;b&gt;CopciAB_371128.T0&lt;/b&gt;&lt;br&gt;CopciAB 371128.T0&lt;br&gt;Location: 421853 - 423203" locus_tag="CopciAB_371128.T0" class="clusterblast-orf" id="dummy-1_q0_0_all"  />
<polygon points="260,40 268,40 273,35 268,30 260,30 260,40 " style="fill:white; stroke-width:1; stroke:black; " description="&lt;b&gt;CopciAB_15443.T0&lt;/b&gt;&lt;br&gt;CopciAB 15443.T0&lt;br&gt;Location: 423953 - 426878" locus_tag="CopciAB_15443.T0" class="clusterblast-orf" id="dummy-1_q1_0_all"  />
<polygon points="274,40 290,40 295,35 290,30 274,30 274,40 " style="fill:white; stroke-width:1; stroke:black; " description="&lt;b&gt;CopciAB_371141.T0&lt;/b&gt;&lt;br&gt;CopciAB 371141.T0&lt;br&gt;Location: 427240 - 432121" locus_tag="CopciAB_371141.T0" class="clusterblast-orf" id="dummy-1_q2_0_all"  />
<polygon points="300,40 303,35 300,30 300,40 " style="fill:white; stroke-width:1; stroke:black; " description="&lt;b&gt;CopciAB_499066.T0&lt;/b&gt;&lt;br&gt;CopciAB 499066.T0&lt;br&gt;Location: 433289 - 433957" locus_tag="CopciAB_499066.T0" class="clusterblast-orf" id="dummy-1_q3_0_all"  />
<polygon points="306,40 311,40 316,35 311,30 306,30 306,40 " style="fill:white; stroke-width:1; stroke:black; " description="&lt;b&gt;CopciAB_462172.T0&lt;/b&gt;&lt;br&gt;CopciAB 462172.T0&lt;br&gt;Location: 434519 - 436842" locus_tag="CopciAB_462172.T0" class="clusterblast-orf" id="dummy-1_q4_0_all"  />
<polygon points="321,35 326,30 326,30 326,40 326,40 321,35 " style="fill:white; stroke-width:1; stroke:black; " description="&lt;b&gt;CopciAB_371191.T0&lt;/b&gt;&lt;br&gt;CopciAB 371191.T0&lt;br&gt;Location: 438018 - 439147" locus_tag="CopciAB_371191.T0" class="clusterblast-orf" id="dummy-1_q5_0_all"  />
<polygon points="322,35 323,30 323,40 322,35 " style="fill:white; stroke-width:1; stroke:black; " description="&lt;b&gt;CopciAB_371191.T1&lt;/b&gt;&lt;br&gt;CopciAB 371191.T1&lt;br&gt;Location: 438368 - 438422" locus_tag="CopciAB_371191.T1" class="clusterblast-orf" id="dummy-1_q6_0_all"  />
<polygon points="326,35 328,30 328,40 326,35 " style="fill:white; stroke-width:1; stroke:black; " description="&lt;b&gt;CopciAB_371135.T0&lt;/b&gt;&lt;br&gt;CopciAB 371135.T0&lt;br&gt;Location: 439214 - 439628" locus_tag="CopciAB_371135.T0" class="clusterblast-orf" id="dummy-1_q7_0_all"  />
<polygon points="333,35 334,30 334,40 333,35 " style="fill:white; stroke-width:1; stroke:black; " description="&lt;b&gt;CopciAB_1002281.T0&lt;/b&gt;&lt;br&gt;CopciAB 1002281.T0&lt;br&gt;Location: 440768 - 441083" locus_tag="CopciAB_1002281.T0" class="clusterblast-orf" id="dummy-1_q8_0_all"  />
<polygon points="340,40 346,40 351,35 346,30 340,30 340,40 " style="fill:white; stroke-width:1; stroke:black; " description="&lt;b&gt;CopciAB_1002282.T0&lt;/b&gt;&lt;br&gt;CopciAB 1002282.T0&lt;br&gt;Location: 442404 - 444945" locus_tag="CopciAB_1002282.T0" class="clusterblast-orf" id="dummy-1_q9_0_all"  />
<polygon points="355,40 360,40 365,35 360,30 355,30 355,40 " style="fill:white; stroke-width:1; stroke:black; " description="&lt;b&gt;CopciAB_371185.T0&lt;/b&gt;&lt;br&gt;CopciAB 371185.T0&lt;br&gt;Location: 445952 - 448093" locus_tag="CopciAB_371185.T0" class="clusterblast-orf" id="dummy-1_q10_0_all"  />
<polygon points="367,35 372,30 372,30 372,40 372,40 367,35 " style="fill:#d81515; stroke-width:1; stroke:black; " description="&lt;b&gt;CopciAB_437423.T0&lt;/b&gt;&lt;br&gt;CopciAB 437423.T0&lt;br&gt;Location: 448582 - 449891" locus_tag="CopciAB_437423.T0" class="clusterblast-orf" id="dummy-1_q11_0_all"  />
<polygon points="375,40 406,40 411,35 406,30 375,30 375,40 " style="fill:#15d8d8; stroke-width:1; stroke:black; " description="&lt;b&gt;CopciAB_437425.T0&lt;/b&gt;&lt;br&gt;CopciAB 437425.T0&lt;br&gt;Location: 450566 - 458706" locus_tag="CopciAB_437425.T0" class="clusterblast-orf" id="dummy-1_q12_0_all"  />
<polygon points="414,35 417,30 417,40 414,35 " style="fill:white; stroke-width:1; stroke:black; " description="&lt;b&gt;CopciAB_1002283.T0&lt;/b&gt;&lt;br&gt;CopciAB 1002283.T0&lt;br&gt;Location: 459534 - 460198" locus_tag="CopciAB_1002283.T0" class="clusterblast-orf" id="dummy-1_q13_0_all"  />
<polygon points="438,35 441,30 441,40 438,35 " style="fill:white; stroke-width:1; stroke:black; " description="&lt;b&gt;CopciAB_1002284.T0&lt;/b&gt;&lt;br&gt;CopciAB 1002284.T0&lt;br&gt;Location: 464996 - 465772" locus_tag="CopciAB_1002284.T0" class="clusterblast-orf" id="dummy-1_q14_0_all"  />
<polygon points="465,35 470,30 470,30 470,40 470,40 465,35 " style="fill:white; stroke-width:1; stroke:black; " description="&lt;b&gt;CopciAB_1002285.T0&lt;/b&gt;&lt;br&gt;CopciAB 1002285.T0&lt;br&gt;Location: 471290 - 472430" locus_tag="CopciAB_1002285.T0" class="clusterblast-orf" id="dummy-1_q15_0_all"  />
<polygon points="474,40 474,40 479,35 474,30 474,30 474,40 " style="fill:white; stroke-width:1; stroke:black; " description="&lt;b&gt;CopciAB_532638.T0&lt;/b&gt;&lt;br&gt;CopciAB 532638.T0&lt;br&gt;Location: 473318 - 474574" locus_tag="CopciAB_532638.T0" class="clusterblast-orf" id="dummy-1_q16_0_all"  />
<polygon points="485,40 495,40 500,35 495,30 485,30 485,40 " style="fill:white; stroke-width:1; stroke:black; " description="&lt;b&gt;CopciAB_444333.T0&lt;/b&gt;&lt;br&gt;CopciAB 444333.T0&lt;br&gt;Location: 475843 - 479279" locus_tag="CopciAB_444333.T0" class="clusterblast-orf" id="dummy-1_q17_0_all"  />
<polygon points="500,35 505,30 506,30 506,40 505,40 500,35 " style="fill:white; stroke-width:1; stroke:black; " description="&lt;b&gt;CopciAB_444334.T0&lt;/b&gt;&lt;br&gt;CopciAB 444334.T0&lt;br&gt;Location: 479365 - 480691" locus_tag="CopciAB_444334.T0" class="clusterblast-orf" id="dummy-1_q18_0_all"  />
<polygon points="508,35 513,30 528,30 528,40 513,40 508,35 " style="fill:white; stroke-width:1; stroke:black; " description="&lt;b&gt;CopciAB_444335.T0&lt;/b&gt;&lt;br&gt;CopciAB 444335.T0&lt;br&gt;Location: 481168 - 485844" locus_tag="CopciAB_444335.T0" class="clusterblast-orf" id="dummy-1_q19_0_all"  />
</g>
<g label="NZ_LT607755" description="NZ_LT607755 (2088171-2268274): Micromonospora zamorensis strain DSM 45600 chr... (5% of genes show similarity), T1PKS,betalactone" class="clusterblast-cluster"  >
<text x="5" y="70" class="clusterblast-acc"  >
<a xlink:href="https://antismash-db.secondarymetabolites.org/area.html?record=NZ_LT607755&amp;start=2088171&amp;end=2268274" target="_blank">NZ_LT607755 (2088171-2268274)</a>: Micromonospora zamorensis strain DSM 45600 chr... (5% of genes show similarity), T1PKS,betalactone</text>
<line x1="10" y1="85" x2="778.0" y2="85" style="stroke-width:1; stroke:grey; "  />
</g>
<g id="a1_000"  >
<polygon points="0,90 0,90 5,85 0,80 0,80 0,90 " style="fill:white; stroke-width:1; stroke:black; " description="&lt;b&gt;GA0070619_RS09345&lt;/b&gt;&lt;br&gt;pyridoxal phosphate-dependent aminotransferase&lt;br&gt;Location: 2088321 - 2089505" locus_tag="GA0070619_RS09345" class="clusterblast-orf" id="dummy-1_h1_3_0"  />
</g>
<g id="a1_001"  >
<polygon points="5,85 6,80 6,90 5,85 " style="fill:white; stroke-width:1; stroke:black; " description="&lt;b&gt;GA0070619_RS32240&lt;/b&gt;&lt;br&gt;DUF302 domain-containing protein&lt;br&gt;Location: 2089537 - 2089908" locus_tag="GA0070619_RS32240" class="clusterblast-orf" id="dummy-1_h1_3_1"  />
</g>
<g id="a1_002"  >
<polygon points="7,90 10,85 7,80 7,90 " style="fill:white; stroke-width:1; stroke:black; " description="&lt;b&gt;GA0070619_RS09355&lt;/b&gt;&lt;br&gt;sigma-70 family RNA polymerase sigma factor&lt;br&gt;Location: 2090096 - 2090665" locus_tag="GA0070619_RS09355" class="clusterblast-orf" id="dummy-1_h1_3_2"  />
</g>
<g id="a1_003"  >
<polygon points="10,90 14,85 10,80 10,90 " style="fill:white; stroke-width:1; stroke:black; " description="&lt;b&gt;GA0070619_RS09360&lt;/b&gt;&lt;br&gt;CU044 5270 family protein&lt;br&gt;Location: 2090683 - 2091648" locus_tag="GA0070619_RS09360" class="clusterblast-orf" id="dummy-1_h1_3_3"  />
</g>
<g id="a1_004"  >
<polygon points="14,85 19,80 19,80 19,90 19,90 14,85 " style="fill:white; stroke-width:1; stroke:black; " description="&lt;b&gt;GA0070619_RS09365&lt;/b&gt;&lt;br&gt;toprim domain-containing protein&lt;br&gt;Location: 2091692 - 2092828" locus_tag="GA0070619_RS09365" class="clusterblast-orf" id="dummy-1_h1_3_4"  />
</g>
<g id="a1_005"  >
<polygon points="19,85 24,80 24,80 24,90 24,90 19,85 " style="fill:white; stroke-width:1; stroke:black; " description="&lt;b&gt;GA0070619_RS09370&lt;/b&gt;&lt;br&gt;SMP-30/gluconolactonase/LRE family protein&lt;br&gt;Location: 2092899 - 2093975" locus_tag="GA0070619_RS09370" class="clusterblast-orf" id="dummy-1_h1_3_5"  />
</g>
<g id="a1_006"  >
<polygon points="25,85 27,80 27,90 25,85 " style="fill:white; stroke-width:1; stroke:black; " description="&lt;b&gt;GA0070619_RS09375&lt;/b&gt;&lt;br&gt;hypothetical protein&lt;br&gt;Location: 2094159 - 2094557" locus_tag="GA0070619_RS09375" class="clusterblast-orf" id="dummy-1_h1_3_6"  />
</g>
<g id="a1_007"  >
<polygon points="27,90 30,85 27,80 27,90 " style="fill:white; stroke-width:1; stroke:black; " description="&lt;b&gt;GA0070619_RS09380&lt;/b&gt;&lt;br&gt;class I SAM-dependent methyltransferase&lt;br&gt;Location: 2094591 - 2095403" locus_tag="GA0070619_RS09380" class="clusterblast-orf" id="dummy-1_h1_3_7"  />
</g>
<g id="a1_008"  >
<polygon points="30,85 33,80 33,90 30,85 " style="fill:white; stroke-width:1; stroke:black; " description="&lt;b&gt;GA0070619_RS09385&lt;/b&gt;&lt;br&gt;alpha/beta hydrolase&lt;br&gt;Location: 2095443 - 2096084" locus_tag="GA0070619_RS09385" class="clusterblast-orf" id="dummy-1_h1_3_8"  />
</g>
<g id="a1_009"  >
<polygon points="33,90 35,85 33,80 33,90 " style="fill:white; stroke-width:1; stroke:black; " description="&lt;b&gt;GA0070619_RS09390&lt;/b&gt;&lt;br&gt;hypothetical protein&lt;br&gt;Location: 2096152 - 2096517" locus_tag="GA0070619_RS09390" class="clusterblast-orf" id="dummy-1_h1_3_9"  />
</g>
<g id="a1_0010"  >
<polygon points="36,90 38,85 36,80 36,90 " style="fill:white; stroke-width:1; stroke:black; " description="&lt;b&gt;GA0070619_RS09395&lt;/b&gt;&lt;br&gt;DUF1211 domain-containing protein&lt;br&gt;Location: 2096691 - 2097311" locus_tag="GA0070619_RS09395" class="clusterblast-orf" id="dummy-1_h1_3_10"  />
</g>
<g id="a1_0011"  >
<polygon points="39,90 42,85 39,80 39,90 " style="fill:white; stroke-width:1; stroke:black; " description="&lt;b&gt;GA0070619_RS09400&lt;/b&gt;&lt;br&gt;YdeI/OmpD-associated family protein&lt;br&gt;Location: 2097397 - 2098011" locus_tag="GA0070619_RS09400" class="clusterblast-orf" id="dummy-1_h1_3_11"  />
</g>
<g id="a1_0012"  >
<polygon points="42,90 43,90 48,85 43,80 42,80 42,90 " style="fill:white; stroke-width:1; stroke:black; " description="&lt;b&gt;GA0070619_RS09405&lt;/b&gt;&lt;br&gt;AMP-binding protein&lt;br&gt;Location: 2098172 - 2099611" locus_tag="GA0070619_RS09405" class="clusterblast-orf" id="dummy-1_h1_3_12"  />
</g>
<g id="a1_0013"  >
<polygon points="49,90 58,90 63,85 58,80 49,80 49,90 " style="fill:white; stroke-width:1; stroke:black; " description="&lt;b&gt;GA0070619_RS09410&lt;/b&gt;&lt;br&gt;tetratricopeptide repeat protein&lt;br&gt;Location: 2099754 - 2103083" locus_tag="GA0070619_RS09410" class="clusterblast-orf" id="dummy-1_h1_3_13"  />
</g>
<g id="a1_0014"  >
<polygon points="64,85 65,80 65,90 64,85 " style="fill:white; stroke-width:1; stroke:black; " description="&lt;b&gt;GA0070619_RS09415&lt;/b&gt;&lt;br&gt;hypothetical protein&lt;br&gt;Location: 2103188 - 2103367" locus_tag="GA0070619_RS09415" class="clusterblast-orf" id="dummy-1_h1_3_14"  />
</g>
<g id="a1_0015"  >
<polygon points="66,90 70,90 75,85 70,80 66,80 66,90 " style="fill:white; stroke-width:1; stroke:black; " description="&lt;b&gt;GA0070619_RS09425&lt;/b&gt;&lt;br&gt;2-isopropylmalate synthase&lt;br&gt;Location: 2103720 - 2105813" locus_tag="GA0070619_RS09425" class="clusterblast-orf" id="dummy-1_h1_3_15"  />
</g>
<g id="a1_0016"  >
<polygon points="76,90 83,90 88,85 83,80 76,80 76,90 " style="fill:white; stroke-width:1; stroke:black; " description="&lt;b&gt;GA0070619_RS09430&lt;/b&gt;&lt;br&gt;LuxR family transcriptional regulator&lt;br&gt;Location: 2105859 - 2108633" locus_tag="GA0070619_RS09430" class="clusterblast-orf" id="dummy-1_h1_3_16"  />
</g>
<g id="a1_0017"  >
<polygon points="88,85 92,80 92,90 88,85 " style="fill:white; stroke-width:1; stroke:black; " description="&lt;b&gt;GA0070619_RS09435&lt;/b&gt;&lt;br&gt;metallophosphoesterase&lt;br&gt;Location: 2108788 - 2109708" locus_tag="GA0070619_RS09435" class="clusterblast-orf" id="dummy-1_h1_3_17"  />
</g>
<g id="a1_0018"  >
<polygon points="93,90 97,85 93,80 93,90 " style="fill:white; stroke-width:1; stroke:black; " description="&lt;b&gt;GA0070619_RS09440&lt;/b&gt;&lt;br&gt;ATP-binding cassette domain-containing protein&lt;br&gt;Location: 2109860 - 2110828" locus_tag="GA0070619_RS09440" class="clusterblast-orf" id="dummy-1_h1_3_18"  />
</g>
<g id="a1_0019"  >
<polygon points="97,90 100,85 97,80 97,90 " style="fill:white; stroke-width:1; stroke:black; " description="&lt;b&gt;GA0070619_RS09445&lt;/b&gt;&lt;br&gt;ABC transporter permease&lt;br&gt;Location: 2110842 - 2111594" locus_tag="GA0070619_RS09445" class="clusterblast-orf" id="dummy-1_h1_3_19"  />
</g>
<g id="a1_0020"  >
<polygon points="101,85 102,80 102,90 101,85 " style="fill:white; stroke-width:1; stroke:black; " description="&lt;b&gt;GA0070619_RS09450&lt;/b&gt;&lt;br&gt;hypothetical protein&lt;br&gt;Location: 2111672 - 2112046" locus_tag="GA0070619_RS09450" class="clusterblast-orf" id="dummy-1_h1_3_20"  />
</g>
<g id="a1_0021"  >
<polygon points="104,90 142,90 147,85 142,80 104,80 104,90 " style="fill:white; stroke-width:1; stroke:black; " description="&lt;b&gt;GA0070619_RS09455&lt;/b&gt;&lt;br&gt;type I polyketide synthase&lt;br&gt;Location: 2112352 - 2122407" locus_tag="GA0070619_RS09455" class="clusterblast-orf" id="dummy-1_h1_3_21"  />
</g>
<g id="a1_0022"  >
<polygon points="147,90 221,90 226,85 221,80 147,80 147,90 " style="fill:white; stroke-width:1; stroke:black; " description="&lt;b&gt;GA0070619_RS09460&lt;/b&gt;&lt;br&gt;type I polyketide synthase&lt;br&gt;Location: 2122441 - 2140551" locus_tag="GA0070619_RS09460" class="clusterblast-orf" id="dummy-1_h1_3_22"  />
</g>
<g id="a1_0023"  >
<polygon points="226,90 249,90 254,85 249,80 226,80 226,90 " style="fill:#d81515; stroke-width:1; stroke:black; " description="&lt;b&gt;GA0070619_RS09465&lt;/b&gt;&lt;br&gt;type I polyketide synthase&lt;br&gt;Location: 2140595 - 2147011&lt;br&gt;&lt;br&gt;&lt;b&gt;BlastP hit with CopciAB_437423.T0&lt;/b&gt;&lt;br&gt;Percentage identity: 32&lt;br&gt;Percentage coverage: 61&lt;br&gt;BLAST bit score: 68&lt;br&gt;E-value: 2.67e-10" locus_tag="GA0070619_RS09465" class="clusterblast-orf" id="dummy-1_h1_3_23"  />
</g>
<g id="a1_0024"  >
<polygon points="254,90 290,90 295,85 290,80 254,80 254,90 " style="fill:#15d8d8; stroke-width:1; stroke:black; " description="&lt;b&gt;GA0070619_RS09470&lt;/b&gt;&lt;br&gt;type I polyketide synthase&lt;br&gt;Location: 2147045 - 2156422&lt;br&gt;&lt;br&gt;&lt;b&gt;BlastP hit with CopciAB_437425.T0&lt;/b&gt;&lt;br&gt;Percentage identity: 31&lt;br&gt;Percentage coverage: 35&lt;br&gt;BLAST bit score: 338&lt;br&gt;E-value: 4.45e-91" locus_tag="GA0070619_RS09470" class="clusterblast-orf" id="dummy-1_h1_3_24"  />
</g>
<g id="a1_0025"  >
<polygon points="295,90 336,90 341,85 336,80 295,80 295,90 " style="fill:white; stroke-width:1; stroke:black; " description="&lt;b&gt;GA0070619_RS09475&lt;/b&gt;&lt;br&gt;type I polyketide synthase&lt;br&gt;Location: 2156459 - 2167126" locus_tag="GA0070619_RS09475" class="clusterblast-orf" id="dummy-1_h1_3_25"  />
</g>
<g id="a1_0026"  >
<polygon points="341,90 357,90 362,85 357,80 341,80 341,90 " style="fill:white; stroke-width:1; stroke:black; " description="&lt;b&gt;GA0070619_RS09480&lt;/b&gt;&lt;br&gt;type I polyketide synthase&lt;br&gt;Location: 2167126 - 2171979" locus_tag="GA0070619_RS09480" class="clusterblast-orf" id="dummy-1_h1_3_26"  />
</g>
<g id="a1_0027"  >
<polygon points="362,90 369,90 374,85 369,80 362,80 362,90 " style="fill:white; stroke-width:1; stroke:black; " description="&lt;b&gt;GA0070619_RS32245&lt;/b&gt;&lt;br&gt;type I polyketide synthase&lt;br&gt;Location: 2172008 - 2174671" locus_tag="GA0070619_RS32245" class="clusterblast-orf" id="dummy-1_h1_3_27"  />
</g>
<g id="a1_0028"  >
<polygon points="380,90 388,90 393,85 388,80 380,80 380,90 " style="fill:white; stroke-width:1; stroke:black; " description="&lt;b&gt;GA0070619_RS32720&lt;/b&gt;&lt;br&gt;acyltransferase domain-containing protein&lt;br&gt;Location: 2176022 - 2179078" locus_tag="GA0070619_RS32720" class="clusterblast-orf" id="dummy-1_h1_3_28"  />
</g>
<g id="a1_0029"  >
<polygon points="394,90 394,90 399,85 394,80 394,80 394,90 " style="fill:white; stroke-width:1; stroke:black; " description="&lt;b&gt;GA0070619_RS32260&lt;/b&gt;&lt;br&gt;SDR family NAD(P)-dependent oxidoreductase&lt;br&gt;Location: 2179259 - 2180458" locus_tag="GA0070619_RS32260" class="clusterblast-orf" id="dummy-1_h1_3_29"  />
</g>
<g id="a1_0030"  >
<polygon points="399,90 402,85 399,80 399,90 " style="fill:white; stroke-width:1; stroke:black; " description="&lt;b&gt;GA0070619_RS32265&lt;/b&gt;&lt;br&gt;hypothetical protein&lt;br&gt;Location: 2180468 - 2181229" locus_tag="GA0070619_RS32265" class="clusterblast-orf" id="dummy-1_h1_3_30"  />
</g>
<g id="a1_0031"  >
<polygon points="402,90 414,90 419,85 414,80 402,80 402,90 " style="fill:white; stroke-width:1; stroke:black; " description="&lt;b&gt;GA0070619_RS09490&lt;/b&gt;&lt;br&gt;type I polyketide synthase&lt;br&gt;Location: 2181243 - 2185091" locus_tag="GA0070619_RS09490" class="clusterblast-orf" id="dummy-1_h1_3_31"  />
</g>
<g id="a1_0032"  >
<polygon points="419,90 422,85 419,80 419,90 " style="fill:white; stroke-width:1; stroke:black; " description="&lt;b&gt;GA0070619_RS09495&lt;/b&gt;&lt;br&gt;thioesterase&lt;br&gt;Location: 2185155 - 2185877" locus_tag="GA0070619_RS09495" class="clusterblast-orf" id="dummy-1_h1_3_32"  />
</g>
<g id="a1_0033"  >
<polygon points="423,90 426,85 423,80 423,90 " style="fill:white; stroke-width:1; stroke:black; " description="&lt;b&gt;GA0070619_RS09500&lt;/b&gt;&lt;br&gt;ABC transporter ATP-binding protein&lt;br&gt;Location: 2185920 - 2186690" locus_tag="GA0070619_RS09500" class="clusterblast-orf" id="dummy-1_h1_3_33"  />
</g>
<g id="a1_0034"  >
<polygon points="426,90 429,90 434,85 429,80 426,80 426,90 " style="fill:white; stroke-width:1; stroke:black; " description="&lt;b&gt;GA0070619_RS09505&lt;/b&gt;&lt;br&gt;hypothetical protein&lt;br&gt;Location: 2186675 - 2188624" locus_tag="GA0070619_RS09505" class="clusterblast-orf" id="dummy-1_h1_3_34"  />
</g>
<g id="a1_0035"  >
<polygon points="435,85 440,80 440,80 440,90 440,90 435,85 " style="fill:white; stroke-width:1; stroke:black; " description="&lt;b&gt;GA0070619_RS09510&lt;/b&gt;&lt;br&gt;cytochrome P450&lt;br&gt;Location: 2188683 - 2189924" locus_tag="GA0070619_RS09510" class="clusterblast-orf" id="dummy-1_h1_3_35"  />
</g>
<g id="a1_0036"  >
<polygon points="441,90 508,90 513,85 508,80 441,80 441,90 " style="fill:white; stroke-width:1; stroke:black; " description="&lt;b&gt;GA0070619_RS09515&lt;/b&gt;&lt;br&gt;type I polyketide synthase&lt;br&gt;Location: 2190160 - 2206815" locus_tag="GA0070619_RS09515" class="clusterblast-orf" id="dummy-1_h1_3_36"  />
</g>
<g id="a1_0037"  >
<polygon points="513,90 546,90 551,85 546,80 513,80 513,90 " style="fill:white; stroke-width:1; stroke:black; " description="&lt;b&gt;GA0070619_RS32725&lt;/b&gt;&lt;br&gt;SDR family NAD(P)-dependent oxidoreductase&lt;br&gt;Location: 2206844 - 2215471" locus_tag="GA0070619_RS32725" class="clusterblast-orf" id="dummy-1_h1_3_37"  />
</g>
<g id="a1_0038"  >
<polygon points="551,90 554,85 551,80 551,90 " style="fill:white; stroke-width:1; stroke:black; " description="&lt;b&gt;GA0070619_RS32730&lt;/b&gt;&lt;br&gt;polyketide synthase dehydratase domain-containing protein&lt;br&gt;Location: 2215526 - 2216293" locus_tag="GA0070619_RS32730" class="clusterblast-orf" id="dummy-1_h1_3_38"  />
</g>
<g id="a1_0039"  >
<polygon points="554,90 558,85 554,80 554,90 " style="fill:white; stroke-width:1; stroke:black; " description="&lt;b&gt;GA0070619_RS32735&lt;/b&gt;&lt;br&gt;SDR family NAD(P)-dependent oxidoreductase&lt;br&gt;Location: 2216363 - 2217286" locus_tag="GA0070619_RS32735" class="clusterblast-orf" id="dummy-1_h1_3_39"  />
</g>
<g id="a1_0040"  >
<polygon points="559,90 561,85 559,80 559,90 " style="fill:white; stroke-width:1; stroke:black; " description="&lt;b&gt;GA0070619_RS32740&lt;/b&gt;&lt;br&gt;hypothetical protein&lt;br&gt;Location: 2217290 - 2217784" locus_tag="GA0070619_RS32740" class="clusterblast-orf" id="dummy-1_h1_3_40"  />
</g>
<g id="a1_0041"  >
<polygon points="561,90 567,90 572,85 567,80 561,80 561,90 " style="fill:white; stroke-width:1; stroke:black; " description="&lt;b&gt;GA0070619_RS32745&lt;/b&gt;&lt;br&gt;type I polyketide synthase&lt;br&gt;Location: 2217872 - 2220388" locus_tag="GA0070619_RS32745" class="clusterblast-orf" id="dummy-1_h1_3_41"  />
</g>
<g id="a1_0042"  >
<polygon points="572,90 573,85 572,80 572,90 " style="fill:white; stroke-width:1; stroke:black; " description="&lt;b&gt;GA0070619_RS32750&lt;/b&gt;&lt;br&gt;hypothetical protein&lt;br&gt;Location: 2220425 - 2220544" locus_tag="GA0070619_RS32750" class="clusterblast-orf" id="dummy-1_h1_3_42"  />
</g>
<g id="a1_0043"  >
<polygon points="573,90 573,90 578,85 573,80 573,80 573,90 " style="fill:white; stroke-width:1; stroke:black; " description="&lt;b&gt;GA0070619_RS32755&lt;/b&gt;&lt;br&gt;SDR family NAD(P)-dependent oxidoreductase&lt;br&gt;Location: 2220653 - 2221726" locus_tag="GA0070619_RS32755" class="clusterblast-orf" id="dummy-1_h1_3_43"  />
</g>
<g id="a1_0044"  >
<polygon points="578,90 581,85 578,80 578,90 " style="fill:white; stroke-width:1; stroke:black; " description="&lt;b&gt;GA0070619_RS32760&lt;/b&gt;&lt;br&gt;hypothetical protein&lt;br&gt;Location: 2221736 - 2222482" locus_tag="GA0070619_RS32760" class="clusterblast-orf" id="dummy-1_h1_3_44"  />
</g>
<g id="a1_0045"  >
<polygon points="581,90 639,90 644,85 639,80 581,80 581,90 " style="fill:#15d8d8; stroke-width:1; stroke:black; " description="&lt;b&gt;GA0070619_RS32765&lt;/b&gt;&lt;br&gt;SDR family NAD(P)-dependent oxidoreductase&lt;br&gt;Location: 2222503 - 2236911&lt;br&gt;&lt;br&gt;&lt;b&gt;BlastP hit with CopciAB_437425.T0&lt;/b&gt;&lt;br&gt;Percentage identity: 31&lt;br&gt;Percentage coverage: 38&lt;br&gt;BLAST bit score: 331&lt;br&gt;E-value: 1.34e-88" locus_tag="GA0070619_RS32765" class="clusterblast-orf" id="dummy-1_h1_3_45"  />
</g>
<g id="a1_0046"  >
<polygon points="644,90 693,90 698,85 693,80 644,80 644,90 " style="fill:white; stroke-width:1; stroke:black; " description="&lt;b&gt;GA0070619_RS09545&lt;/b&gt;&lt;br&gt;SDR family NAD(P)-dependent oxidoreductase&lt;br&gt;Location: 2236946 - 2249542" locus_tag="GA0070619_RS09545" class="clusterblast-orf" id="dummy-1_h1_3_46"  />
</g>
<g id="a1_0047"  >
<polygon points="700,90 704,85 700,80 700,90 " style="fill:white; stroke-width:1; stroke:black; " description="&lt;b&gt;GA0070619_RS32295&lt;/b&gt;&lt;br&gt;SDR family NAD(P)-dependent oxidoreductase&lt;br&gt;Location: 2249870 - 2250784" locus_tag="GA0070619_RS32295" class="clusterblast-orf" id="dummy-1_h1_3_47"  />
</g>
<g id="a1_0048"  >
<polygon points="704,90 706,85 704,80 704,90 " style="fill:white; stroke-width:1; stroke:black; " description="&lt;b&gt;GA0070619_RS32300&lt;/b&gt;&lt;br&gt;polyketide synthase&lt;br&gt;Location: 2250791 - 2251294" locus_tag="GA0070619_RS32300" class="clusterblast-orf" id="dummy-1_h1_3_48"  />
</g>
<g id="a1_0049"  >
<polygon points="706,90 710,85 706,80 706,90 " style="fill:white; stroke-width:1; stroke:black; " description="&lt;b&gt;GA0070619_RS32305&lt;/b&gt;&lt;br&gt;polyketide synthase&lt;br&gt;Location: 2251379 - 2252338" locus_tag="GA0070619_RS32305" class="clusterblast-orf" id="dummy-1_h1_3_49"  />
</g>
<g id="a1_0050"  >
<polygon points="712,90 712,90 717,85 712,80 712,80 712,90 " style="fill:white; stroke-width:1; stroke:black; " description="&lt;b&gt;GA0070619_RS32310&lt;/b&gt;&lt;br&gt;acyltransferase domain-containing protein&lt;br&gt;Location: 2252696 - 2253856" locus_tag="GA0070619_RS32310" class="clusterblast-orf" id="dummy-1_h1_3_50"  />
</g>
<g id="a1_0051"  >
<polygon points="717,90 718,85 717,80 717,90 " style="fill:white; stroke-width:1; stroke:black; " description="&lt;b&gt;GA0070619_RS32770&lt;/b&gt;&lt;br&gt;hypothetical protein&lt;br&gt;Location: 2253899 - 2254081" locus_tag="GA0070619_RS32770" class="clusterblast-orf" id="dummy-1_h1_3_51"  />
</g>
<g id="a1_0052"  >
<polygon points="720,90 723,85 720,80 720,90 " style="fill:white; stroke-width:1; stroke:black; " description="&lt;b&gt;GA0070619_RS32315&lt;/b&gt;&lt;br&gt;KR domain-containing protein&lt;br&gt;Location: 2254493 - 2255131" locus_tag="GA0070619_RS32315" class="clusterblast-orf" id="dummy-1_h1_3_52"  />
</g>
<g id="a1_0053"  >
<polygon points="723,90 726,85 723,80 723,90 " style="fill:white; stroke-width:1; stroke:black; " description="&lt;b&gt;GA0070619_RS32320&lt;/b&gt;&lt;br&gt;hypothetical protein&lt;br&gt;Location: 2255198 - 2255881" locus_tag="GA0070619_RS32320" class="clusterblast-orf" id="dummy-1_h1_3_53"  />
</g>
<g id="a1_0054"  >
<polygon points="726,90 729,90 734,85 729,80 726,80 726,90 " style="fill:white; stroke-width:1; stroke:black; " description="&lt;b&gt;GA0070619_RS09550&lt;/b&gt;&lt;br&gt;hypothetical protein&lt;br&gt;Location: 2255910 - 2257679" locus_tag="GA0070619_RS09550" class="clusterblast-orf" id="dummy-1_h1_3_54"  />
</g>
<g id="a1_0055"  >
<polygon points="734,90 738,90 743,85 738,80 734,80 734,90 " style="fill:white; stroke-width:1; stroke:black; " description="&lt;b&gt;GA0070619_RS09555&lt;/b&gt;&lt;br&gt;methylmalonyl-CoA mutase&lt;br&gt;Location: 2257676 - 2259802" locus_tag="GA0070619_RS09555" class="clusterblast-orf" id="dummy-1_h1_3_55"  />
</g>
<g id="a1_0056"  >
<polygon points="743,85 746,80 746,90 743,85 " style="fill:white; stroke-width:1; stroke:black; " description="&lt;b&gt;GA0070619_RS09560&lt;/b&gt;&lt;br&gt;4'-phosphopantetheinyl transferase superfamily protein&lt;br&gt;Location: 2259890 - 2260594" locus_tag="GA0070619_RS09560" class="clusterblast-orf" id="dummy-1_h1_3_56"  />
</g>
<g id="a1_0057"  >
<polygon points="747,85 748,80 748,90 747,85 " style="fill:white; stroke-width:1; stroke:black; " description="&lt;b&gt;GA0070619_RS09565&lt;/b&gt;&lt;br&gt;hypothetical protein&lt;br&gt;Location: 2260870 - 2261106" locus_tag="GA0070619_RS09565" class="clusterblast-orf" id="dummy-1_h1_3_57"  />
</g>
<g id="a1_0058"  >
<polygon points="749,85 754,80 772,80 772,90 754,90 749,85 " style="fill:white; stroke-width:1; stroke:black; " description="&lt;b&gt;GA0070619_RS09570&lt;/b&gt;&lt;br&gt;ATP-grasp domain-containing protein&lt;br&gt;Location: 2261215 - 2266617" locus_tag="GA0070619_RS09570" class="clusterblast-orf" id="dummy-1_h1_3_58"  />
</g>
<g id="a1_0059"  >
<polygon points="773,85 778,80 780,80 780,90 778,90 773,85 " style="fill:white; stroke-width:1; stroke:black; " description="&lt;b&gt;GA0070619_RS09575&lt;/b&gt;&lt;br&gt;PLP-dependent aminotransferase family protein&lt;br&gt;Location: 2266808 - 2268274" locus_tag="GA0070619_RS09575" class="clusterblast-orf" id="dummy-1_h1_3_59"  />
</g>
</svg>
