<svg xmlns="http://www.w3.org/2000/svg" xmlns:xlink="http://www.w3.org/1999/xlink" version="1.1" x="0" y="0" height="230" width="800" viewBox="0 0 800 230" preserveAspectRatio="none"  >
<g label="Query sequence" class="clusterblast-cluster"  >
<text x="5" y="20" class="clusterblast-acc"  >
Query sequence</text>
<line x1="10" y1="35" x2="778.0" y2="35" style="stroke-width:1; stroke:grey; "  />
<polygon points="227,40 246,40 251,35 246,30 227,30 227,40 " style="fill:white; stroke-width:1; stroke:black; " description="&lt;b&gt;CopciAB_485193.T0&lt;/b&gt;&lt;br&gt;CopciAB 485193.T0&lt;br&gt;Location: 1414810 - 1416979" locus_tag="CopciAB_485193.T0" class="clusterblast-orf" id="dummy-3_q0_0_all"  />
<polygon points="256,40 262,40 267,35 262,30 256,30 256,40 " style="fill:white; stroke-width:1; stroke:black; " description="&lt;b&gt;CopciAB_452092.T0&lt;/b&gt;&lt;br&gt;CopciAB 452092.T0&lt;br&gt;Location: 1417417 - 1418394" locus_tag="CopciAB_452092.T0" class="clusterblast-orf" id="dummy-3_q1_0_all"  />
<polygon points="273,35 278,30 285,30 285,40 278,40 273,35 " style="fill:#d81515; stroke-width:1; stroke:black; " description="&lt;b&gt;CopciAB_462760.T0&lt;/b&gt;&lt;br&gt;CopciAB 462760.T0&lt;br&gt;Location: 1418847 - 1419955" locus_tag="CopciAB_462760.T0" class="clusterblast-orf" id="dummy-3_q2_0_all"  />
<polygon points="295,35 300,30 308,30 308,40 300,40 295,35 " style="fill:#15d815; stroke-width:1; stroke:black; " description="&lt;b&gt;CopciAB_438130.T0&lt;/b&gt;&lt;br&gt;CopciAB 438130.T0&lt;br&gt;Location: 1420793 - 1421920" locus_tag="CopciAB_438130.T0" class="clusterblast-orf" id="dummy-3_q3_0_all"  />
<polygon points="314,35 319,30 329,30 329,40 319,40 314,35 " style="fill:#1597d8; stroke-width:1; stroke:black; " description="&lt;b&gt;CopciAB_438131.T0&lt;/b&gt;&lt;br&gt;CopciAB 438131.T0&lt;br&gt;Location: 1422451 - 1423833" locus_tag="CopciAB_438131.T0" class="clusterblast-orf" id="dummy-3_q4_0_all"  />
<polygon points="331,40 337,40 342,35 337,30 331,30 331,40 " style="fill:#9715d8; stroke-width:1; stroke:black; " description="&lt;b&gt;CopciAB_30507.T0&lt;/b&gt;&lt;br&gt;CopciAB 30507.T0&lt;br&gt;Location: 1424014 - 1424912" locus_tag="CopciAB_30507.T0" class="clusterblast-orf" id="dummy-3_q5_0_all"  />
<polygon points="351,40 352,40 357,35 352,30 351,30 351,40 " style="fill:white; stroke-width:1; stroke:black; " description="&lt;b&gt;CopciAB_1000673.T0&lt;/b&gt;&lt;br&gt;CopciAB 1000673.T0&lt;br&gt;Location: 1425727 - 1426280" locus_tag="CopciAB_1000673.T0" class="clusterblast-orf" id="dummy-3_q6_0_all"  />
<polygon points="359,40 366,40 371,35 366,30 359,30 359,40 " style="fill:white; stroke-width:1; stroke:black; " description="&lt;b&gt;CopciAB_1000674.T0&lt;/b&gt;&lt;br&gt;CopciAB 1000674.T0&lt;br&gt;Location: 1426398 - 1427484" locus_tag="CopciAB_1000674.T0" class="clusterblast-orf" id="dummy-3_q7_0_all"  />
<polygon points="375,40 384,40 389,35 384,30 375,30 375,40 " style="fill:#d89715; stroke-width:1; stroke:black; " description="&lt;b&gt;CopciAB_30510.T0&lt;/b&gt;&lt;br&gt;CopciAB 30510.T0&lt;br&gt;Location: 1427831 - 1429089" locus_tag="CopciAB_30510.T0" class="clusterblast-orf" id="dummy-3_q8_0_all"  />
<polygon points="400,35 405,30 441,30 441,40 405,40 400,35 " style="fill:#15d897; stroke-width:1; stroke:black; " description="&lt;b&gt;CopciAB_358591.T0&lt;/b&gt;&lt;br&gt;CopciAB 358591.T0&lt;br&gt;Location: 1430058 - 1433651" locus_tag="CopciAB_358591.T0" class="clusterblast-orf" id="dummy-3_q9_0_all"  />
<polygon points="444,40 446,40 451,35 446,30 444,30 444,40 " style="fill:#1515d8; stroke-width:1; stroke:black; " description="&lt;b&gt;CopciAB_438138.T0&lt;/b&gt;&lt;br&gt;CopciAB 438138.T0&lt;br&gt;Location: 1433887 - 1434547" locus_tag="CopciAB_438138.T0" class="clusterblast-orf" id="dummy-3_q10_0_all"  />
<polygon points="457,40 472,40 477,35 472,30 457,30 457,40 " style="fill:#d81597; stroke-width:1; stroke:black; " description="&lt;b&gt;CopciAB_485202.T0&lt;/b&gt;&lt;br&gt;CopciAB 485202.T0&lt;br&gt;Location: 1435028 - 1436789" locus_tag="CopciAB_485202.T0" class="clusterblast-orf" id="dummy-3_q11_0_all"  />
<polygon points="483,35 488,30 553,30 553,40 488,40 483,35 " style="fill:#97d815; stroke-width:1; stroke:black; " description="&lt;b&gt;CopciAB_358738.T0&lt;/b&gt;&lt;br&gt;CopciAB 358738.T0&lt;br&gt;Location: 1437350 - 1443453" locus_tag="CopciAB_358738.T0" class="clusterblast-orf" id="dummy-3_q12_0_all"  />
</g>
<g label="NZ_KE386748" description="NZ_KE386748 (418331-487531): Chitinimonas koreensis DSM 17726 F559DRAFT scaff... (4% of genes show similarity), NRPS,hserlactone" class="clusterblast-cluster"  >
<text x="5" y="70" class="clusterblast-acc"  >
<a xlink:href="https://antismash-db.secondarymetabolites.org/area.html?record=NZ_KE386748&amp;start=418331&amp;end=487531" target="_blank">NZ_KE386748 (418331-487531)</a>: Chitinimonas koreensis DSM 17726 F559DRAFT scaff... (4% of genes show similarity), NRPS,hserlactone</text>
<line x1="10" y1="85" x2="778.0" y2="85" style="stroke-width:1; stroke:grey; "  />
</g>
<g id="a3_000"  >
<polygon points="0,90 3,85 0,80 0,90 " style="fill:white; stroke-width:1; stroke:black; " description="&lt;b&gt;F559_RS0119250&lt;/b&gt;&lt;br&gt;c-type cytochrome&lt;br&gt;Location: 487383 - 487078" locus_tag="F559_RS0119250" class="clusterblast-orf" id="dummy-3_h3_7_0"  />
</g>
<g id="a3_001"  >
<polygon points="5,90 5,90 10,85 5,80 5,80 5,90 " style="fill:white; stroke-width:1; stroke:black; " description="&lt;b&gt;F559_RS0119245&lt;/b&gt;&lt;br&gt;RNA polymerase-binding protein DksA&lt;br&gt;Location: 486892 - 486476" locus_tag="F559_RS0119245" class="clusterblast-orf" id="dummy-3_h3_7_1"  />
</g>
<g id="a3_002"  >
<polygon points="11,85 14,80 14,90 11,85 " style="fill:white; stroke-width:1; stroke:black; " description="&lt;b&gt;F559_RS0119240&lt;/b&gt;&lt;br&gt;hypothetical protein&lt;br&gt;Location: 486361 - 486152" locus_tag="F559_RS0119240" class="clusterblast-orf" id="dummy-3_h3_7_2"  />
</g>
<g id="a3_003"  >
<polygon points="15,90 22,90 27,85 22,80 15,80 15,90 " style="fill:white; stroke-width:1; stroke:black; " description="&lt;b&gt;F559_RS0119235&lt;/b&gt;&lt;br&gt;3-deoxy-7-phosphoheptulonate synthase AroG&lt;br&gt;Location: 486036 - 484978" locus_tag="F559_RS0119235" class="clusterblast-orf" id="dummy-3_h3_7_3"  />
</g>
<g id="a3_004"  >
<polygon points="30,85 35,80 37,80 37,90 35,90 30,85 " style="fill:white; stroke-width:1; stroke:black; " description="&lt;b&gt;F559_RS0119230&lt;/b&gt;&lt;br&gt;amino acid ABC transporter permease&lt;br&gt;Location: 484711 - 484055" locus_tag="F559_RS0119230" class="clusterblast-orf" id="dummy-3_h3_7_4"  />
</g>
<g id="a3_005"  >
<polygon points="42,85 47,80 51,80 51,90 47,90 42,85 " style="fill:white; stroke-width:1; stroke:black; " description="&lt;b&gt;F559_RS0119225&lt;/b&gt;&lt;br&gt;transporter substrate-binding domain-containing protein&lt;br&gt;Location: 483649 - 482864" locus_tag="F559_RS0119225" class="clusterblast-orf" id="dummy-3_h3_7_5"  />
</g>
<g id="a3_006"  >
<polygon points="52,85 57,80 65,80 65,90 57,90 52,85 " style="fill:#15d897; stroke-width:1; stroke:black; " description="&lt;b&gt;F559_RS0119220&lt;/b&gt;&lt;br&gt;PLP-dependent transferase&lt;br&gt;Location: 482809 - 481658&lt;br&gt;&lt;br&gt;&lt;b&gt;BlastP hit with CopciAB_358591.T0&lt;/b&gt;&lt;br&gt;Percentage identity: 41&lt;br&gt;Percentage coverage: 40&lt;br&gt;BLAST bit score: 251&lt;br&gt;E-value: 2.74e-73" locus_tag="F559_RS0119220" class="clusterblast-orf" id="dummy-3_h3_7_6"  />
</g>
<g id="a3_007"  >
<polygon points="68,85 73,80 84,80 84,90 73,90 68,85 " style="fill:white; stroke-width:1; stroke:black; " description="&lt;b&gt;F559_RS0119215&lt;/b&gt;&lt;br&gt;pyridoxal-phosphate dependent enzyme&lt;br&gt;Location: 481388 - 479964" locus_tag="F559_RS0119215" class="clusterblast-orf" id="dummy-3_h3_7_7"  />
</g>
<g id="a3_008"  >
<polygon points="86,85 91,80 92,80 92,90 91,90 86,85 " style="fill:white; stroke-width:1; stroke:black; " description="&lt;b&gt;F559_RS0119210&lt;/b&gt;&lt;br&gt;hypothetical protein&lt;br&gt;Location: 479792 - 479277" locus_tag="F559_RS0119210" class="clusterblast-orf" id="dummy-3_h3_7_8"  />
</g>
<g id="a3_009"  >
<polygon points="94,85 99,80 102,80 102,90 99,90 94,85 " style="fill:white; stroke-width:1; stroke:black; " description="&lt;b&gt;F559_RS0119205&lt;/b&gt;&lt;br&gt;autoinducer binding domain-containing protein&lt;br&gt;Location: 479101 - 478385" locus_tag="F559_RS0119205" class="clusterblast-orf" id="dummy-3_h3_7_9"  />
</g>
<g id="a3_0010"  >
<polygon points="106,90 110,85 106,80 106,90 " style="fill:white; stroke-width:1; stroke:black; " description="&lt;b&gt;F559_RS28095&lt;/b&gt;&lt;br&gt;DUF4902 domain-containing protein&lt;br&gt;Location: 478055 - 477660" locus_tag="F559_RS28095" class="clusterblast-orf" id="dummy-3_h3_7_10"  />
</g>
<g id="a3_0011"  >
<polygon points="112,90 113,90 118,85 113,80 112,80 112,90 " style="fill:white; stroke-width:1; stroke:black; " description="&lt;b&gt;F559_RS0119195&lt;/b&gt;&lt;br&gt;GNAT family N-acetyltransferase&lt;br&gt;Location: 477531 - 476959" locus_tag="F559_RS0119195" class="clusterblast-orf" id="dummy-3_h3_7_11"  />
</g>
<g id="a3_0012"  >
<polygon points="120,85 125,80 125,80 125,90 125,90 120,85 " style="fill:white; stroke-width:1; stroke:black; " description="&lt;b&gt;F559_RS0119190&lt;/b&gt;&lt;br&gt;Hsp20 family protein&lt;br&gt;Location: 476779 - 476321" locus_tag="F559_RS0119190" class="clusterblast-orf" id="dummy-3_h3_7_12"  />
</g>
<g id="a3_0013"  >
<polygon points="127,85 132,80 136,80 136,90 132,90 127,85 " style="fill:white; stroke-width:1; stroke:black; " description="&lt;b&gt;F559_RS0119185&lt;/b&gt;&lt;br&gt;LytTR family transcriptional regulator DNA-binding domain-containing protein&lt;br&gt;Location: 476152 - 475394" locus_tag="F559_RS0119185" class="clusterblast-orf" id="dummy-3_h3_7_13"  />
</g>
<g id="a3_0014"  >
<polygon points="136,85 141,80 149,80 149,90 141,90 136,85 " style="fill:white; stroke-width:1; stroke:black; " description="&lt;b&gt;F559_RS26640&lt;/b&gt;&lt;br&gt;histidine kinase&lt;br&gt;Location: 475347 - 474250" locus_tag="F559_RS26640" class="clusterblast-orf" id="dummy-3_h3_7_14"  />
</g>
<g id="a3_0015"  >
<polygon points="150,90 150,90 155,85 150,80 150,80 150,90 " style="fill:white; stroke-width:1; stroke:black; " description="&lt;b&gt;F559_RS28880&lt;/b&gt;&lt;br&gt;DUF1761 domain-containing protein&lt;br&gt;Location: 474135 - 473731" locus_tag="F559_RS28880" class="clusterblast-orf" id="dummy-3_h3_7_15"  />
</g>
<g id="a3_0016"  >
<polygon points="176,90 191,90 196,85 191,80 176,80 176,90 " style="fill:white; stroke-width:1; stroke:black; " description="&lt;b&gt;F559_RS30205&lt;/b&gt;&lt;br&gt;EAL domain-containing protein&lt;br&gt;Location: 471864 - 470095" locus_tag="F559_RS30205" class="clusterblast-orf" id="dummy-3_h3_7_16"  />
</g>
<g id="a3_0017"  >
<polygon points="198,85 203,80 218,80 218,90 203,90 198,85 " style="fill:white; stroke-width:1; stroke:black; " description="&lt;b&gt;F559_RS26630&lt;/b&gt;&lt;br&gt;FAD-dependent monooxygenase&lt;br&gt;Location: 469945 - 468194" locus_tag="F559_RS26630" class="clusterblast-orf" id="dummy-3_h3_7_17"  />
</g>
<g id="a3_0018"  >
<polygon points="218,85 223,80 236,80 236,90 223,90 218,85 " style="fill:white; stroke-width:1; stroke:black; " description="&lt;b&gt;F559_RS0119160&lt;/b&gt;&lt;br&gt;cyclic peptide export ABC transporter&lt;br&gt;Location: 468201 - 466564" locus_tag="F559_RS0119160" class="clusterblast-orf" id="dummy-3_h3_7_18"  />
</g>
<g id="a3_0019"  >
<polygon points="237,85 242,80 250,80 250,90 242,90 237,85 " style="fill:white; stroke-width:1; stroke:black; " description="&lt;b&gt;F559_RS0119155&lt;/b&gt;&lt;br&gt;alpha/beta fold hydrolase&lt;br&gt;Location: 466557 - 465334" locus_tag="F559_RS0119155" class="clusterblast-orf" id="dummy-3_h3_7_19"  />
</g>
<g id="a3_0020"  >
<polygon points="273,85 278,80 295,80 295,90 278,90 273,85 " style="fill:white; stroke-width:1; stroke:black; " description="&lt;b&gt;F559_RS30200&lt;/b&gt;&lt;br&gt;AMP-binding protein&lt;br&gt;Location: 463313 - 461438" locus_tag="F559_RS30200" class="clusterblast-orf" id="dummy-3_h3_7_20"  />
</g>
<g id="a3_0021"  >
<polygon points="295,85 300,80 450,80 450,90 300,90 295,85 " style="fill:white; stroke-width:1; stroke:black; " description="&lt;b&gt;F559_RS26620&lt;/b&gt;&lt;br&gt;non-ribosomal peptide synthetase&lt;br&gt;Location: 461441 - 447798" locus_tag="F559_RS26620" class="clusterblast-orf" id="dummy-3_h3_7_21"  />
</g>
<g id="a3_0022"  >
<polygon points="451,85 456,80 462,80 462,90 456,90 451,85 " style="fill:white; stroke-width:1; stroke:black; " description="&lt;b&gt;F559_RS0119140&lt;/b&gt;&lt;br&gt;TauD/TfdA family dioxygenase&lt;br&gt;Location: 447728 - 446784" locus_tag="F559_RS0119140" class="clusterblast-orf" id="dummy-3_h3_7_22"  />
</g>
<g id="a3_0023"  >
<polygon points="462,85 467,80 536,80 536,90 467,90 462,85 " style="fill:white; stroke-width:1; stroke:black; " description="&lt;b&gt;F559_RS0119135&lt;/b&gt;&lt;br&gt;non-ribosomal peptide synthetase&lt;br&gt;Location: 446784 - 440269" locus_tag="F559_RS0119135" class="clusterblast-orf" id="dummy-3_h3_7_23"  />
</g>
<g id="a3_0024"  >
<polygon points="537,85 542,80 558,80 558,90 542,90 537,85 " style="fill:white; stroke-width:1; stroke:black; " description="&lt;b&gt;F559_RS26615&lt;/b&gt;&lt;br&gt;non-ribosomal peptide synthetase&lt;br&gt;Location: 440191 - 438332" locus_tag="F559_RS26615" class="clusterblast-orf" id="dummy-3_h3_7_24"  />
</g>
<g id="a3_0025"  >
<polygon points="558,85 563,80 571,80 571,90 563,90 558,85 " style="fill:white; stroke-width:1; stroke:black; " description="&lt;b&gt;F559_RS0119125&lt;/b&gt;&lt;br&gt;acyl-CoA dehydrogenase family protein&lt;br&gt;Location: 438309 - 437125" locus_tag="F559_RS0119125" class="clusterblast-orf" id="dummy-3_h3_7_25"  />
</g>
<g id="a3_0026"  >
<polygon points="572,85 577,80 585,80 585,90 577,90 572,85 " style="fill:white; stroke-width:1; stroke:black; " description="&lt;b&gt;F559_RS0119120&lt;/b&gt;&lt;br&gt;acyl-CoA dehydrogenase family protein&lt;br&gt;Location: 437102 - 435981" locus_tag="F559_RS0119120" class="clusterblast-orf" id="dummy-3_h3_7_26"  />
</g>
<g id="a3_0027"  >
<polygon points="587,85 590,80 590,90 587,85 " style="fill:white; stroke-width:1; stroke:black; " description="&lt;b&gt;F559_RS0119115&lt;/b&gt;&lt;br&gt;MbtH family NRPS accessory protein&lt;br&gt;Location: 435755 - 435537" locus_tag="F559_RS0119115" class="clusterblast-orf" id="dummy-3_h3_7_27"  />
</g>
<g id="a3_0028"  >
<polygon points="595,85 600,80 602,80 602,90 600,90 595,85 " style="fill:white; stroke-width:1; stroke:black; " description="&lt;b&gt;F559_RS0119110&lt;/b&gt;&lt;br&gt;hypothetical protein&lt;br&gt;Location: 435050 - 434472" locus_tag="F559_RS0119110" class="clusterblast-orf" id="dummy-3_h3_7_28"  />
</g>
<g id="a3_0029"  >
<polygon points="603,90 610,90 615,85 610,80 603,80 603,90 " style="fill:white; stroke-width:1; stroke:black; " description="&lt;b&gt;F559_RS0119105&lt;/b&gt;&lt;br&gt;YafY family transcriptional regulator&lt;br&gt;Location: 434330 - 433335" locus_tag="F559_RS0119105" class="clusterblast-orf" id="dummy-3_h3_7_29"  />
</g>
<g id="a3_0030"  >
<polygon points="616,90 616,90 621,85 616,80 616,80 616,90 " style="fill:white; stroke-width:1; stroke:black; " description="&lt;b&gt;F559_RS0119100&lt;/b&gt;&lt;br&gt;BlaI/MecI/CopY family transcriptional regulator&lt;br&gt;Location: 433186 - 432800" locus_tag="F559_RS0119100" class="clusterblast-orf" id="dummy-3_h3_7_30"  />
</g>
<g id="a3_0031"  >
<polygon points="621,90 634,90 639,85 634,80 621,80 621,90 " style="fill:white; stroke-width:1; stroke:black; " description="&lt;b&gt;F559_RS28090&lt;/b&gt;&lt;br&gt;M48 family metalloprotease&lt;br&gt;Location: 432776 - 431223" locus_tag="F559_RS28090" class="clusterblast-orf" id="dummy-3_h3_7_31"  />
</g>
<g id="a3_0032"  >
<polygon points="640,90 647,90 652,85 647,80 640,80 640,90 " style="fill:white; stroke-width:1; stroke:black; " description="&lt;b&gt;F559_RS0119090&lt;/b&gt;&lt;br&gt;S41 family peptidase&lt;br&gt;Location: 431129 - 430011" locus_tag="F559_RS0119090" class="clusterblast-orf" id="dummy-3_h3_7_32"  />
</g>
<g id="a3_0033"  >
<polygon points="655,90 656,90 661,85 656,80 655,80 655,90 " style="fill:white; stroke-width:1; stroke:black; " description="&lt;b&gt;F559_RS26605&lt;/b&gt;&lt;br&gt;hypothetical protein&lt;br&gt;Location: 429777 - 429295" locus_tag="F559_RS26605" class="clusterblast-orf" id="dummy-3_h3_7_33"  />
</g>
<g id="a3_0034"  >
<polygon points="662,85 667,80 670,80 670,90 667,90 662,85 " style="fill:white; stroke-width:1; stroke:black; " description="&lt;b&gt;F559_RS0119080&lt;/b&gt;&lt;br&gt;GNAT family N-acetyltransferase&lt;br&gt;Location: 429195 - 428467" locus_tag="F559_RS0119080" class="clusterblast-orf" id="dummy-3_h3_7_34"  />
</g>
<g id="a3_0035"  >
<polygon points="671,85 676,80 682,80 682,90 676,90 671,85 " style="fill:white; stroke-width:1; stroke:black; " description="&lt;b&gt;F559_RS0119075&lt;/b&gt;&lt;br&gt;LysR family transcriptional regulator&lt;br&gt;Location: 428352 - 427417" locus_tag="F559_RS0119075" class="clusterblast-orf" id="dummy-3_h3_7_35"  />
</g>
<g id="a3_0036"  >
<polygon points="683,90 690,90 695,85 690,80 683,80 683,90 " style="fill:white; stroke-width:1; stroke:black; " description="&lt;b&gt;F559_RS0119070&lt;/b&gt;&lt;br&gt;MBL fold metallo-hydrolase&lt;br&gt;Location: 427301 - 426315" locus_tag="F559_RS0119070" class="clusterblast-orf" id="dummy-3_h3_7_36"  />
</g>
<g id="a3_0037"  >
<polygon points="696,85 701,80 701,80 701,90 701,90 696,85 " style="fill:white; stroke-width:1; stroke:black; " description="&lt;b&gt;F559_RS0119065&lt;/b&gt;&lt;br&gt;RidA family protein&lt;br&gt;Location: 426186 - 425770" locus_tag="F559_RS0119065" class="clusterblast-orf" id="dummy-3_h3_7_37"  />
</g>
<g id="a3_0038"  >
<polygon points="703,90 709,90 714,85 709,80 703,80 703,90 " style="fill:white; stroke-width:1; stroke:black; " description="&lt;b&gt;F559_RS0119060&lt;/b&gt;&lt;br&gt;LysR family transcriptional regulator&lt;br&gt;Location: 425561 - 424620" locus_tag="F559_RS0119060" class="clusterblast-orf" id="dummy-3_h3_7_38"  />
</g>
<g id="a3_0039"  >
<polygon points="715,85 720,80 735,80 735,90 720,90 715,85 " style="fill:white; stroke-width:1; stroke:black; " description="&lt;b&gt;F559_RS0119055&lt;/b&gt;&lt;br&gt;glutamine--fructose-6-phosphate transaminase (isomerizing)&lt;br&gt;Location: 424550 - 422727" locus_tag="F559_RS0119055" class="clusterblast-orf" id="dummy-3_h3_7_39"  />
</g>
<g id="a3_0040"  >
<polygon points="738,85 743,80 753,80 753,90 743,90 738,85 " style="fill:white; stroke-width:1; stroke:black; " description="&lt;b&gt;F559_RS0119050&lt;/b&gt;&lt;br&gt;bifunctional UDP-N-acetylglucosamine diphosphorylase/glucosamine-1-phosphate N-acetyltransferase GlmU&lt;br&gt;Location: 422505 - 421138" locus_tag="F559_RS0119050" class="clusterblast-orf" id="dummy-3_h3_7_40"  />
</g>
<g id="a3_0041"  >
<polygon points="759,90 775,90 780,85 775,80 759,80 759,90 " style="fill:#97d815; stroke-width:1; stroke:black; " description="&lt;b&gt;F559_RS26600&lt;/b&gt;&lt;br&gt;response regulator&lt;br&gt;Location: 420683 - 418848&lt;br&gt;&lt;br&gt;&lt;b&gt;BlastP hit with CopciAB_358738.T0&lt;/b&gt;&lt;br&gt;Percentage identity: 32&lt;br&gt;Percentage coverage: 18&lt;br&gt;BLAST bit score: 96&lt;br&gt;E-value: 6.4e-18" locus_tag="F559_RS26600" class="clusterblast-orf" id="dummy-3_h3_7_41"  />
</g>
</svg>
