<svg xmlns="http://www.w3.org/2000/svg" xmlns:xlink="http://www.w3.org/1999/xlink" version="1.1" x="0" y="0" height="230" width="800" viewBox="0 0 800 230" preserveAspectRatio="none"  >
<g label="Query sequence" class="clusterblast-cluster"  >
<text x="5" y="20" class="clusterblast-acc"  >
Query sequence</text>
<line x1="10" y1="35" x2="778.0" y2="35" style="stroke-width:1; stroke:grey; "  />
<polygon points="0,35 5,30 10,30 10,40 5,40 0,35 " style="fill:white; stroke-width:1; stroke:black; " description="&lt;b&gt;CopciAB_427632.T0&lt;/b&gt;&lt;br&gt;CopciAB 427632.T0&lt;br&gt;Location: 413760 - 414914" locus_tag="CopciAB_427632.T0" class="clusterblast-orf" id="dummy-2_q0_0_all"  />
<polygon points="12,35 17,30 20,30 20,40 17,40 12,35 " style="fill:white; stroke-width:1; stroke:black; " description="&lt;b&gt;CopciAB_438000.T0&lt;/b&gt;&lt;br&gt;CopciAB 438000.T0&lt;br&gt;Location: 415226 - 416108" locus_tag="CopciAB_438000.T0" class="clusterblast-orf" id="dummy-2_q1_0_all"  />
<polygon points="24,40 26,40 31,35 26,30 24,30 24,40 " style="fill:white; stroke-width:1; stroke:black; " description="&lt;b&gt;CopciAB_452018.T0&lt;/b&gt;&lt;br&gt;CopciAB 452018.T0&lt;br&gt;Location: 416577 - 417433" locus_tag="CopciAB_452018.T0" class="clusterblast-orf" id="dummy-2_q2_0_all"  />
<polygon points="50,40 53,40 58,35 53,30 50,30 50,40 " style="fill:white; stroke-width:1; stroke:black; " description="&lt;b&gt;CopciAB_27441.T0&lt;/b&gt;&lt;br&gt;CopciAB 27441.T0&lt;br&gt;Location: 419558 - 420503" locus_tag="CopciAB_27441.T0" class="clusterblast-orf" id="dummy-2_q3_0_all"  />
<polygon points="64,40 83,40 88,35 83,30 64,30 64,40 " style="fill:#d81515; stroke-width:1; stroke:black; " description="&lt;b&gt;CopciAB_499440.T0&lt;/b&gt;&lt;br&gt;CopciAB 499440.T0&lt;br&gt;Location: 421185 - 423994" locus_tag="CopciAB_499440.T0" class="clusterblast-orf" id="dummy-2_q4_0_all"  />
<polygon points="100,40 114,40 119,35 114,30 100,30 100,40 " style="fill:#15d863; stroke-width:1; stroke:black; " description="&lt;b&gt;CopciAB_372150.T0&lt;/b&gt;&lt;br&gt;CopciAB 372150.T0&lt;br&gt;Location: 425401 - 427558" locus_tag="CopciAB_372150.T0" class="clusterblast-orf" id="dummy-2_q5_0_all"  />
<polygon points="120,35 125,30 133,30 133,40 125,40 120,35 " style="fill:#1563d8; stroke-width:1; stroke:black; " description="&lt;b&gt;CopciAB_427648.T0&lt;/b&gt;&lt;br&gt;CopciAB 427648.T0&lt;br&gt;Location: 427744 - 429244" locus_tag="CopciAB_427648.T0" class="clusterblast-orf" id="dummy-2_q6_0_all"  />
<polygon points="141,40 141,40 146,35 141,30 141,30 141,40 " style="fill:white; stroke-width:1; stroke:black; " description="&lt;b&gt;CopciAB_507379.T0&lt;/b&gt;&lt;br&gt;CopciAB 507379.T0&lt;br&gt;Location: 430122 - 430738" locus_tag="CopciAB_507379.T0" class="clusterblast-orf" id="dummy-2_q7_0_all"  />
<polygon points="155,40 157,35 155,30 155,40 " style="fill:white; stroke-width:1; stroke:black; " description="&lt;b&gt;CopciAB_372112.T0&lt;/b&gt;&lt;br&gt;CopciAB 372112.T0&lt;br&gt;Location: 431791 - 431987" locus_tag="CopciAB_372112.T0" class="clusterblast-orf" id="dummy-2_q8_0_all"  />
<polygon points="158,35 163,30 172,30 172,40 163,40 158,35 " style="fill:white; stroke-width:1; stroke:black; " description="&lt;b&gt;CopciAB_372121.T0&lt;/b&gt;&lt;br&gt;CopciAB 372121.T0&lt;br&gt;Location: 432136 - 433786" locus_tag="CopciAB_372121.T0" class="clusterblast-orf" id="dummy-2_q9_0_all"  />
<polygon points="181,35 186,30 201,30 201,40 186,40 181,35 " style="fill:white; stroke-width:1; stroke:black; " description="&lt;b&gt;CopciAB_372110.T0&lt;/b&gt;&lt;br&gt;CopciAB 372110.T0&lt;br&gt;Location: 434810 - 437081" locus_tag="CopciAB_372110.T0" class="clusterblast-orf" id="dummy-2_q10_0_all"  />
<polygon points="221,40 223,35 221,30 221,40 " style="fill:white; stroke-width:1; stroke:black; " description="&lt;b&gt;CopciAB_1002472.T0&lt;/b&gt;&lt;br&gt;CopciAB 1002472.T0&lt;br&gt;Location: 439457 - 439700" locus_tag="CopciAB_1002472.T0" class="clusterblast-orf" id="dummy-2_q11_0_all"  />
<polygon points="240,40 247,40 252,35 247,30 240,30 240,40 " style="fill:white; stroke-width:1; stroke:black; " description="&lt;b&gt;CopciAB_543742.T0&lt;/b&gt;&lt;br&gt;CopciAB 543742.T0&lt;br&gt;Location: 441707 - 443028" locus_tag="CopciAB_543742.T0" class="clusterblast-orf" id="dummy-2_q12_0_all"  />
<polygon points="262,35 267,30 281,30 281,40 267,40 262,35 " style="fill:white; stroke-width:1; stroke:black; " description="&lt;b&gt;CopciAB_27642.T0&lt;/b&gt;&lt;br&gt;CopciAB 27642.T0&lt;br&gt;Location: 444225 - 446384" locus_tag="CopciAB_27642.T0" class="clusterblast-orf" id="dummy-2_q13_0_all"  />
<polygon points="288,40 290,35 288,30 288,40 " style="fill:white; stroke-width:1; stroke:black; " description="&lt;b&gt;CopciAB_462682.T0&lt;/b&gt;&lt;br&gt;CopciAB 462682.T0&lt;br&gt;Location: 447215 - 447510" locus_tag="CopciAB_462682.T0" class="clusterblast-orf" id="dummy-2_q14_0_all"  />
<polygon points="293,40 303,40 308,35 303,30 293,30 293,40 " style="fill:white; stroke-width:1; stroke:black; " description="&lt;b&gt;CopciAB_438017.T0&lt;/b&gt;&lt;br&gt;CopciAB 438017.T0&lt;br&gt;Location: 447822 - 449588" locus_tag="CopciAB_438017.T0" class="clusterblast-orf" id="dummy-2_q15_0_all"  />
<polygon points="316,35 321,30 335,30 335,40 321,40 316,35 " style="fill:#b115d8; stroke-width:1; stroke:black; " description="&lt;b&gt;CopciAB_462684.T0&lt;/b&gt;&lt;br&gt;CopciAB 462684.T0&lt;br&gt;Location: 450422 - 452641" locus_tag="CopciAB_462684.T0" class="clusterblast-orf" id="dummy-2_q16_0_all"  />
<polygon points="357,35 360,30 360,40 357,35 " style="fill:white; stroke-width:1; stroke:black; " description="&lt;b&gt;CopciAB_1002474.T0&lt;/b&gt;&lt;br&gt;CopciAB 1002474.T0&lt;br&gt;Location: 455271 - 455550" locus_tag="CopciAB_1002474.T0" class="clusterblast-orf" id="dummy-2_q17_0_all"  />
<polygon points="375,35 377,30 377,40 375,35 " style="fill:white; stroke-width:1; stroke:black; " description="&lt;b&gt;CopciAB_1002475.T0&lt;/b&gt;&lt;br&gt;CopciAB 1002475.T0&lt;br&gt;Location: 457353 - 457605" locus_tag="CopciAB_1002475.T0" class="clusterblast-orf" id="dummy-2_q18_0_all"  />
<polygon points="381,35 386,30 387,30 387,40 386,40 381,35 " style="fill:white; stroke-width:1; stroke:black; " description="&lt;b&gt;CopciAB_372143.T0&lt;/b&gt;&lt;br&gt;CopciAB 372143.T0&lt;br&gt;Location: 458034 - 458686" locus_tag="CopciAB_372143.T0" class="clusterblast-orf" id="dummy-2_q19_0_all"  />
<polygon points="392,40 396,40 401,35 396,30 392,30 392,40 " style="fill:white; stroke-width:1; stroke:black; " description="&lt;b&gt;CopciAB_499451.T0&lt;/b&gt;&lt;br&gt;CopciAB 499451.T0&lt;br&gt;Location: 459297 - 460310" locus_tag="CopciAB_499451.T0" class="clusterblast-orf" id="dummy-2_q20_0_all"  />
<polygon points="401,35 406,30 408,30 408,40 406,40 401,35 " style="fill:white; stroke-width:1; stroke:black; " description="&lt;b&gt;CopciAB_462689.T0&lt;/b&gt;&lt;br&gt;CopciAB 462689.T0&lt;br&gt;Location: 460335 - 461159" locus_tag="CopciAB_462689.T0" class="clusterblast-orf" id="dummy-2_q21_0_all"  />
<polygon points="417,40 419,35 417,30 417,40 " style="fill:white; stroke-width:1; stroke:black; " description="&lt;b&gt;CopciAB_1002476.T0&lt;/b&gt;&lt;br&gt;CopciAB 1002476.T0&lt;br&gt;Location: 462212 - 462474" locus_tag="CopciAB_1002476.T0" class="clusterblast-orf" id="dummy-2_q22_0_all"  />
<polygon points="424,40 431,40 436,35 431,30 424,30 424,40 " style="fill:white; stroke-width:1; stroke:black; " description="&lt;b&gt;CopciAB_27792.T0&lt;/b&gt;&lt;br&gt;CopciAB 27792.T0&lt;br&gt;Location: 463038 - 464422" locus_tag="CopciAB_27792.T0" class="clusterblast-orf" id="dummy-2_q23_0_all"  />
<polygon points="438,35 443,30 444,30 444,40 443,40 438,35 " style="fill:white; stroke-width:1; stroke:black; " description="&lt;b&gt;CopciAB_427679.T0&lt;/b&gt;&lt;br&gt;CopciAB 427679.T0&lt;br&gt;Location: 464670 - 465341" locus_tag="CopciAB_427679.T0" class="clusterblast-orf" id="dummy-2_q24_0_all"  />
<polygon points="455,40 459,40 464,35 459,30 455,30 455,40 " style="fill:white; stroke-width:1; stroke:black; " description="&lt;b&gt;CopciAB_372140.T0&lt;/b&gt;&lt;br&gt;CopciAB 372140.T0&lt;br&gt;Location: 466595 - 467636" locus_tag="CopciAB_372140.T0" class="clusterblast-orf" id="dummy-2_q25_0_all"  />
<polygon points="472,40 476,35 472,30 472,40 " style="fill:white; stroke-width:1; stroke:black; " description="&lt;b&gt;CopciAB_1002477.T0&lt;/b&gt;&lt;br&gt;CopciAB 1002477.T0&lt;br&gt;Location: 468600 - 469095" locus_tag="CopciAB_1002477.T0" class="clusterblast-orf" id="dummy-2_q26_0_all"  />
<polygon points="479,35 482,30 482,40 479,35 " style="fill:white; stroke-width:1; stroke:black; " description="&lt;b&gt;CopciAB_1002478.T0&lt;/b&gt;&lt;br&gt;CopciAB 1002478.T0&lt;br&gt;Location: 469329 - 469770" locus_tag="CopciAB_1002478.T0" class="clusterblast-orf" id="dummy-2_q27_0_all"  />
<polygon points="517,40 520,40 525,35 520,30 517,30 517,40 " style="fill:white; stroke-width:1; stroke:black; " description="&lt;b&gt;CopciAB_438039.T0&lt;/b&gt;&lt;br&gt;CopciAB 438039.T0&lt;br&gt;Location: 473742 - 474720" locus_tag="CopciAB_438039.T0" class="clusterblast-orf" id="dummy-2_q28_0_all"  />
<polygon points="533,35 536,30 536,40 533,35 " style="fill:white; stroke-width:1; stroke:black; " description="&lt;b&gt;CopciAB_352336.T0&lt;/b&gt;&lt;br&gt;CopciAB 352336.T0&lt;br&gt;Location: 475600 - 476021" locus_tag="CopciAB_352336.T0" class="clusterblast-orf" id="dummy-2_q29_0_all"  />
<polygon points="555,40 564,40 569,35 564,30 555,30 555,40 " style="fill:white; stroke-width:1; stroke:black; " description="&lt;b&gt;CopciAB_118644.T0&lt;/b&gt;&lt;br&gt;CopciAB 118644.T0&lt;br&gt;Location: 478160 - 479832" locus_tag="CopciAB_118644.T0" class="clusterblast-orf" id="dummy-2_q30_0_all"  />
<polygon points="590,40 603,40 608,35 603,30 590,30 590,40 " style="fill:#b1d815; stroke-width:1; stroke:black; " description="&lt;b&gt;CopciAB_466228.T0&lt;/b&gt;&lt;br&gt;CopciAB 466228.T0&lt;br&gt;Location: 482241 - 484311" locus_tag="CopciAB_466228.T0" class="clusterblast-orf" id="dummy-2_q31_0_all"  />
<polygon points="609,35 614,30 633,30 633,40 614,40 609,35 " style="fill:white; stroke-width:1; stroke:black; " description="&lt;b&gt;CopciAB_442580.T0&lt;/b&gt;&lt;br&gt;CopciAB 442580.T0&lt;br&gt;Location: 484517 - 487299" locus_tag="CopciAB_442580.T0" class="clusterblast-orf" id="dummy-2_q32_0_all"  />
<polygon points="643,40 646,40 651,35 646,30 643,30 643,40 " style="fill:white; stroke-width:1; stroke:black; " description="&lt;b&gt;CopciAB_490906.T0&lt;/b&gt;&lt;br&gt;CopciAB 490906.T0&lt;br&gt;Location: 488419 - 489289" locus_tag="CopciAB_490906.T0" class="clusterblast-orf" id="dummy-2_q33_0_all"  />
<polygon points="676,35 681,30 689,30 689,40 681,40 676,35 " style="fill:white; stroke-width:1; stroke:black; " description="&lt;b&gt;CopciAB_432515.T0&lt;/b&gt;&lt;br&gt;CopciAB 432515.T0&lt;br&gt;Location: 492228 - 493756" locus_tag="CopciAB_432515.T0" class="clusterblast-orf" id="dummy-2_q34_0_all"  />
<polygon points="725,40 729,40 734,35 729,30 725,30 725,40 " style="fill:white; stroke-width:1; stroke:black; " description="&lt;b&gt;CopciAB_490908.T0&lt;/b&gt;&lt;br&gt;CopciAB 490908.T0&lt;br&gt;Location: 497967 - 499010" locus_tag="CopciAB_490908.T0" class="clusterblast-orf" id="dummy-2_q35_0_all"  />
<polygon points="735,35 740,30 750,30 750,40 740,40 735,35 " style="fill:white; stroke-width:1; stroke:black; " description="&lt;b&gt;CopciAB_454987.T0&lt;/b&gt;&lt;br&gt;CopciAB 454987.T0&lt;br&gt;Location: 499117 - 500815" locus_tag="CopciAB_454987.T0" class="clusterblast-orf" id="dummy-2_q36_0_all"  />
<polygon points="757,40 761,40 766,35 761,30 757,30 757,40 " style="fill:white; stroke-width:1; stroke:black; " description="&lt;b&gt;CopciAB_482192.T0&lt;/b&gt;&lt;br&gt;CopciAB 482192.T0&lt;br&gt;Location: 501679 - 502723" locus_tag="CopciAB_482192.T0" class="clusterblast-orf" id="dummy-2_q37_0_all"  />
<polygon points="769,35 774,30 780,30 780,40 774,40 769,35 " style="fill:white; stroke-width:1; stroke:black; " description="&lt;b&gt;CopciAB_545686.T0&lt;/b&gt;&lt;br&gt;CopciAB 545686.T0&lt;br&gt;Location: 503032 - 504262" locus_tag="CopciAB_545686.T0" class="clusterblast-orf" id="dummy-2_q38_0_all"  />
</g>
<g label="NZ_MCIP01000001" description="NZ_MCIP01000001 (3698223-3760512): Pseudonocardia sp. Ae505 Ps2 Ae505Ps2 SC1,... (6% of genes show similarity), NRPS-like" class="clusterblast-cluster"  >
<text x="5" y="70" class="clusterblast-acc"  >
<a xlink:href="https://antismash-db.secondarymetabolites.org/area.html?record=NZ_MCIP01000001&amp;start=3698223&amp;end=3760512" target="_blank">NZ_MCIP01000001 (3698223-3760512)</a>: Pseudonocardia sp. Ae505 Ps2 Ae505Ps2 SC1,... (6% of genes show similarity), NRPS-like</text>
<line x1="10" y1="85" x2="778.0" y2="85" style="stroke-width:1; stroke:grey; "  />
</g>
<g id="a2_000"  >
<polygon points="121,90 129,90 134,85 129,80 121,80 121,90 " style="fill:#b115d8; stroke-width:1; stroke:black; " description="&lt;b&gt;Ae505Ps2_RS17750&lt;/b&gt;&lt;br&gt;amidase&lt;br&gt;Location: 3698224 - 3699768&lt;br&gt;&lt;br&gt;&lt;b&gt;BlastP hit with CopciAB_462684.T0&lt;/b&gt;&lt;br&gt;Percentage identity: 34&lt;br&gt;Percentage coverage: 25&lt;br&gt;BLAST bit score: 68&lt;br&gt;E-value: 7.54e-10" locus_tag="Ae505Ps2_RS17750" class="clusterblast-orf" id="dummy-2_h2_5_0"  />
</g>
<g id="a2_001"  >
<polygon points="134,90 135,90 140,85 135,80 134,80 134,90 " style="fill:white; stroke-width:1; stroke:black; " description="&lt;b&gt;Ae505Ps2_RS17755&lt;/b&gt;&lt;br&gt;nitrile hydratase subunit beta&lt;br&gt;Location: 3699765 - 3700469" locus_tag="Ae505Ps2_RS17755" class="clusterblast-orf" id="dummy-2_h2_5_1"  />
</g>
<g id="a2_002"  >
<polygon points="140,90 141,90 146,85 141,80 140,80 140,90 " style="fill:white; stroke-width:1; stroke:black; " description="&lt;b&gt;Ae505Ps2_RS17760&lt;/b&gt;&lt;br&gt;nitrile hydratase subunit alpha&lt;br&gt;Location: 3700473 - 3701105" locus_tag="Ae505Ps2_RS17760" class="clusterblast-orf" id="dummy-2_h2_5_2"  />
</g>
<g id="a2_003"  >
<polygon points="146,90 149,85 146,80 146,90 " style="fill:white; stroke-width:1; stroke:black; " description="&lt;b&gt;Ae505Ps2_RS17765&lt;/b&gt;&lt;br&gt;nitrile hydratase accessory protein&lt;br&gt;Location: 3701102 - 3701512" locus_tag="Ae505Ps2_RS17765" class="clusterblast-orf" id="dummy-2_h2_5_3"  />
</g>
<g id="a2_004"  >
<polygon points="150,90 152,90 157,85 152,80 150,80 150,90 " style="fill:white; stroke-width:1; stroke:black; " description="&lt;b&gt;Ae505Ps2_RS17770&lt;/b&gt;&lt;br&gt;hypothetical protein&lt;br&gt;Location: 3701566 - 3702441" locus_tag="Ae505Ps2_RS17770" class="clusterblast-orf" id="dummy-2_h2_5_4"  />
</g>
<g id="a2_005"  >
<polygon points="157,90 159,90 164,85 159,80 157,80 157,90 " style="fill:white; stroke-width:1; stroke:black; " description="&lt;b&gt;Ae505Ps2_RS17775&lt;/b&gt;&lt;br&gt;nitrile hydratase subunit alpha&lt;br&gt;Location: 3702447 - 3703184" locus_tag="Ae505Ps2_RS17775" class="clusterblast-orf" id="dummy-2_h2_5_5"  />
</g>
<g id="a2_006"  >
<polygon points="165,85 170,80 177,80 177,90 170,90 165,85 " style="fill:white; stroke-width:1; stroke:black; " description="&lt;b&gt;Ae505Ps2_RS17780&lt;/b&gt;&lt;br&gt;SLC13 family permease&lt;br&gt;Location: 3703365 - 3704660" locus_tag="Ae505Ps2_RS17780" class="clusterblast-orf" id="dummy-2_h2_5_6"  />
</g>
<g id="a2_007"  >
<polygon points="177,85 182,80 186,80 186,90 182,90 177,85 " style="fill:white; stroke-width:1; stroke:black; " description="&lt;b&gt;Ae505Ps2_RS17785&lt;/b&gt;&lt;br&gt;methylitaconate delta2-delta3-isomerase&lt;br&gt;Location: 3704734 - 3705801" locus_tag="Ae505Ps2_RS17785" class="clusterblast-orf" id="dummy-2_h2_5_7"  />
</g>
<g id="a2_008"  >
<polygon points="189,90 192,90 197,85 192,80 189,80 189,90 " style="fill:white; stroke-width:1; stroke:black; " description="&lt;b&gt;Ae505Ps2_RS17790&lt;/b&gt;&lt;br&gt;LysR family transcriptional regulator&lt;br&gt;Location: 3706087 - 3707007" locus_tag="Ae505Ps2_RS17790" class="clusterblast-orf" id="dummy-2_h2_5_8"  />
</g>
<g id="a2_009"  >
<polygon points="197,85 202,80 207,80 207,90 202,90 197,85 " style="fill:white; stroke-width:1; stroke:black; " description="&lt;b&gt;Ae505Ps2_RS17795&lt;/b&gt;&lt;br&gt;acyl-CoA dehydrogenase family protein&lt;br&gt;Location: 3707020 - 3708174" locus_tag="Ae505Ps2_RS17795" class="clusterblast-orf" id="dummy-2_h2_5_9"  />
</g>
<g id="a2_0010"  >
<polygon points="209,90 216,90 221,85 216,80 209,80 209,90 " style="fill:white; stroke-width:1; stroke:black; " description="&lt;b&gt;Ae505Ps2_RS17800&lt;/b&gt;&lt;br&gt;benzoate 1,2-dioxygenase large subunit&lt;br&gt;Location: 3708400 - 3709848" locus_tag="Ae505Ps2_RS17800" class="clusterblast-orf" id="dummy-2_h2_5_10"  />
</g>
<g id="a2_0011"  >
<polygon points="221,90 221,90 226,85 221,80 221,80 221,90 " style="fill:white; stroke-width:1; stroke:black; " description="&lt;b&gt;Ae505Ps2_RS17805&lt;/b&gt;&lt;br&gt;benzoate 1,2-dioxygenase small subunit&lt;br&gt;Location: 3709845 - 3710387" locus_tag="Ae505Ps2_RS17805" class="clusterblast-orf" id="dummy-2_h2_5_11"  />
</g>
<g id="a2_0012"  >
<polygon points="226,90 245,90 250,85 245,80 226,80 226,90 " style="fill:white; stroke-width:1; stroke:black; " description="&lt;b&gt;Ae505Ps2_RS17810&lt;/b&gt;&lt;br&gt;1,6-dihydroxycyclohexa-2,4-diene-1-carboxylate dehydrogenase&lt;br&gt;Location: 3710402 - 3713200" locus_tag="Ae505Ps2_RS17810" class="clusterblast-orf" id="dummy-2_h2_5_12"  />
</g>
<g id="a2_0013"  >
<polygon points="250,90 269,90 274,85 269,80 250,80 250,90 " style="fill:white; stroke-width:1; stroke:black; " description="&lt;b&gt;Ae505Ps2_RS17815&lt;/b&gt;&lt;br&gt;LuxR family transcriptional regulator&lt;br&gt;Location: 3713226 - 3715916" locus_tag="Ae505Ps2_RS17815" class="clusterblast-orf" id="dummy-2_h2_5_13"  />
</g>
<g id="a2_0014"  >
<polygon points="276,90 278,85 276,80 276,90 " style="fill:white; stroke-width:1; stroke:black; " description="&lt;b&gt;Ae505Ps2_RS17820&lt;/b&gt;&lt;br&gt;hypothetical protein&lt;br&gt;Location: 3716184 - 3716399" locus_tag="Ae505Ps2_RS17820" class="clusterblast-orf" id="dummy-2_h2_5_14"  />
</g>
<g id="a2_0015"  >
<polygon points="280,85 285,80 289,80 289,90 285,90 280,85 " style="fill:white; stroke-width:1; stroke:black; " description="&lt;b&gt;Ae505Ps2_RS17825&lt;/b&gt;&lt;br&gt;acyl-CoA desaturase&lt;br&gt;Location: 3716642 - 3717700" locus_tag="Ae505Ps2_RS17825" class="clusterblast-orf" id="dummy-2_h2_5_15"  />
</g>
<g id="a2_0016"  >
<polygon points="291,85 296,80 321,80 321,90 296,90 291,85 " style="fill:white; stroke-width:1; stroke:black; " description="&lt;b&gt;Ae505Ps2_RS17830&lt;/b&gt;&lt;br&gt;thioester reductase domain-containing protein&lt;br&gt;Location: 3717921 - 3721427" locus_tag="Ae505Ps2_RS17830" class="clusterblast-orf" id="dummy-2_h2_5_16"  />
</g>
<g id="a2_0017"  >
<polygon points="323,85 328,80 367,80 367,90 328,90 323,85 " style="fill:white; stroke-width:1; stroke:black; " description="&lt;b&gt;Ae505Ps2_RS17835&lt;/b&gt;&lt;br&gt;SpoIIE family protein phosphatase&lt;br&gt;Location: 3721630 - 3726720" locus_tag="Ae505Ps2_RS17835" class="clusterblast-orf" id="dummy-2_h2_5_17"  />
</g>
<g id="a2_0018"  >
<polygon points="368,85 373,80 376,80 376,90 373,90 368,85 " style="fill:white; stroke-width:1; stroke:black; " description="&lt;b&gt;Ae505Ps2_RS17840&lt;/b&gt;&lt;br&gt;amidohydrolase family protein&lt;br&gt;Location: 3726816 - 3727763" locus_tag="Ae505Ps2_RS17840" class="clusterblast-orf" id="dummy-2_h2_5_18"  />
</g>
<g id="a2_0019"  >
<polygon points="376,85 381,80 384,80 384,90 381,90 376,85 " style="fill:white; stroke-width:1; stroke:black; " description="&lt;b&gt;Ae505Ps2_RS17845&lt;/b&gt;&lt;br&gt;alpha/beta hydrolase&lt;br&gt;Location: 3727808 - 3728701" locus_tag="Ae505Ps2_RS17845" class="clusterblast-orf" id="dummy-2_h2_5_19"  />
</g>
<g id="a2_0020"  >
<polygon points="385,90 389,85 385,80 385,90 " style="fill:white; stroke-width:1; stroke:black; " description="&lt;b&gt;Ae505Ps2_RS17850&lt;/b&gt;&lt;br&gt;TetR/AcrR family transcriptional regulator&lt;br&gt;Location: 3728792 - 3729358" locus_tag="Ae505Ps2_RS17850" class="clusterblast-orf" id="dummy-2_h2_5_20"  />
</g>
<g id="a2_0021"  >
<polygon points="390,90 392,90 397,85 392,80 390,80 390,90 " style="fill:white; stroke-width:1; stroke:black; " description="&lt;b&gt;Ae505Ps2_RS17855&lt;/b&gt;&lt;br&gt;MBL fold metallo-hydrolase&lt;br&gt;Location: 3729439 - 3730293" locus_tag="Ae505Ps2_RS17855" class="clusterblast-orf" id="dummy-2_h2_5_21"  />
</g>
<g id="a2_0022"  >
<polygon points="398,90 402,85 398,80 398,90 " style="fill:white; stroke-width:1; stroke:black; " description="&lt;b&gt;Ae505Ps2_RS17860&lt;/b&gt;&lt;br&gt;MarR family transcriptional regulator&lt;br&gt;Location: 3730403 - 3730789" locus_tag="Ae505Ps2_RS17860" class="clusterblast-orf" id="dummy-2_h2_5_22"  />
</g>
<g id="a2_0023"  >
<polygon points="402,85 407,80 408,80 408,90 407,90 402,85 " style="fill:white; stroke-width:1; stroke:black; " description="&lt;b&gt;Ae505Ps2_RS17865&lt;/b&gt;&lt;br&gt;TetR family transcriptional regulator&lt;br&gt;Location: 3730832 - 3731497" locus_tag="Ae505Ps2_RS17865" class="clusterblast-orf" id="dummy-2_h2_5_23"  />
</g>
<g id="a2_0024"  >
<polygon points="409,90 412,90 417,85 412,80 409,80 409,90 " style="fill:white; stroke-width:1; stroke:black; " description="&lt;b&gt;Ae505Ps2_RS17870&lt;/b&gt;&lt;br&gt;SDR family NAD(P)-dependent oxidoreductase&lt;br&gt;Location: 3731595 - 3732509" locus_tag="Ae505Ps2_RS17870" class="clusterblast-orf" id="dummy-2_h2_5_24"  />
</g>
<g id="a2_0025"  >
<polygon points="417,90 419,85 417,80 417,90 " style="fill:white; stroke-width:1; stroke:black; " description="&lt;b&gt;Ae505Ps2_RS17875&lt;/b&gt;&lt;br&gt;hypothetical protein&lt;br&gt;Location: 3732573 - 3732761" locus_tag="Ae505Ps2_RS17875" class="clusterblast-orf" id="dummy-2_h2_5_25"  />
</g>
<g id="a2_0026"  >
<polygon points="419,85 424,80 428,80 428,90 424,90 419,85 " style="fill:white; stroke-width:1; stroke:black; " description="&lt;b&gt;Ae505Ps2_RS17880&lt;/b&gt;&lt;br&gt;cyclase family protein&lt;br&gt;Location: 3732828 - 3733814" locus_tag="Ae505Ps2_RS17880" class="clusterblast-orf" id="dummy-2_h2_5_26"  />
</g>
<g id="a2_0027"  >
<polygon points="428,85 430,80 430,90 428,85 " style="fill:white; stroke-width:1; stroke:black; " description="&lt;b&gt;Ae505Ps2_RS17885&lt;/b&gt;&lt;br&gt;hypothetical protein&lt;br&gt;Location: 3733807 - 3734091" locus_tag="Ae505Ps2_RS17885" class="clusterblast-orf" id="dummy-2_h2_5_27"  />
</g>
<g id="a2_0028"  >
<polygon points="430,85 435,80 443,80 443,90 435,90 430,85 " style="fill:white; stroke-width:1; stroke:black; " description="&lt;b&gt;Ae505Ps2_RS17890&lt;/b&gt;&lt;br&gt;TRAP transporter large permease subunit&lt;br&gt;Location: 3734114 - 3735535" locus_tag="Ae505Ps2_RS17890" class="clusterblast-orf" id="dummy-2_h2_5_28"  />
</g>
<g id="a2_0029"  >
<polygon points="443,85 448,80 454,80 454,90 448,90 443,85 " style="fill:white; stroke-width:1; stroke:black; " description="&lt;b&gt;Ae505Ps2_RS17895&lt;/b&gt;&lt;br&gt;DUF1932 domain-containing protein&lt;br&gt;Location: 3735532 - 3736881" locus_tag="Ae505Ps2_RS17895" class="clusterblast-orf" id="dummy-2_h2_5_29"  />
</g>
<g id="a2_0030"  >
<polygon points="455,90 457,90 462,85 457,80 455,80 455,90 " style="fill:white; stroke-width:1; stroke:black; " description="&lt;b&gt;Ae505Ps2_RS17900&lt;/b&gt;&lt;br&gt;helix-turn-helix domain-containing protein&lt;br&gt;Location: 3737021 - 3737791" locus_tag="Ae505Ps2_RS17900" class="clusterblast-orf" id="dummy-2_h2_5_30"  />
</g>
<g id="a2_0031"  >
<polygon points="462,85 467,80 497,80 497,90 467,90 462,85 " style="fill:white; stroke-width:1; stroke:black; " description="&lt;b&gt;Ae505Ps2_RS17905&lt;/b&gt;&lt;br&gt;non-ribosomal peptide synthetase&lt;br&gt;Location: 3737802 - 3741893" locus_tag="Ae505Ps2_RS17905" class="clusterblast-orf" id="dummy-2_h2_5_31"  />
</g>
<g id="a2_0032"  >
<polygon points="499,90 499,90 504,85 499,80 499,80 499,90 " style="fill:white; stroke-width:1; stroke:black; " description="&lt;b&gt;Ae505Ps2_RS17910&lt;/b&gt;&lt;br&gt;IS5/IS1182 family transposase&lt;br&gt;Location: 3742062 - 3742699" locus_tag="Ae505Ps2_RS17910" class="clusterblast-orf" id="dummy-2_h2_5_32"  />
</g>
<g id="a2_0033"  >
<polygon points="508,85 510,80 510,90 508,85 " style="fill:white; stroke-width:1; stroke:black; " description="&lt;b&gt;Ae505Ps2_RS17915&lt;/b&gt;&lt;br&gt;muconolactone Delta-isomerase&lt;br&gt;Location: 3743088 - 3743372" locus_tag="Ae505Ps2_RS17915" class="clusterblast-orf" id="dummy-2_h2_5_33"  />
</g>
<g id="a2_0034"  >
<polygon points="510,85 515,80 517,80 517,90 515,90 510,85 " style="fill:#1563d8; stroke-width:1; stroke:black; " description="&lt;b&gt;Ae505Ps2_RS17920&lt;/b&gt;&lt;br&gt;catechol 1,2-dioxygenase&lt;br&gt;Location: 3743372 - 3744139&lt;br&gt;&lt;br&gt;&lt;b&gt;BlastP hit with CopciAB_427648.T0&lt;/b&gt;&lt;br&gt;Percentage identity: 34&lt;br&gt;Percentage coverage: 66&lt;br&gt;BLAST bit score: 130&lt;br&gt;E-value: 8.86e-34" locus_tag="Ae505Ps2_RS17920" class="clusterblast-orf" id="dummy-2_h2_5_34"  />
</g>
<g id="a2_0035"  >
<polygon points="518,90 519,85 518,80 518,90 " style="fill:white; stroke-width:1; stroke:black; " description="&lt;b&gt;Ae505Ps2_RS31275&lt;/b&gt;&lt;br&gt;IS5/IS1182 family transposase&lt;br&gt;Location: 3744243 - 3744407" locus_tag="Ae505Ps2_RS31275" class="clusterblast-orf" id="dummy-2_h2_5_35"  />
</g>
<g id="a2_0036"  >
<polygon points="522,85 525,80 525,90 522,85 " style="fill:white; stroke-width:1; stroke:black; " description="&lt;b&gt;Ae505Ps2_RS17930&lt;/b&gt;&lt;br&gt;muconolactone Delta-isomerase&lt;br&gt;Location: 3744796 - 3745080" locus_tag="Ae505Ps2_RS17930" class="clusterblast-orf" id="dummy-2_h2_5_36"  />
</g>
<g id="a2_0037"  >
<polygon points="525,85 530,80 532,80 532,90 530,90 525,85 " style="fill:#1563d8; stroke-width:1; stroke:black; " description="&lt;b&gt;Ae505Ps2_RS17935&lt;/b&gt;&lt;br&gt;catechol 1,2-dioxygenase&lt;br&gt;Location: 3745080 - 3745919&lt;br&gt;&lt;br&gt;&lt;b&gt;BlastP hit with CopciAB_427648.T0&lt;/b&gt;&lt;br&gt;Percentage identity: 32&lt;br&gt;Percentage coverage: 72&lt;br&gt;BLAST bit score: 130&lt;br&gt;E-value: 1.13e-33" locus_tag="Ae505Ps2_RS17935" class="clusterblast-orf" id="dummy-2_h2_5_37"  />
</g>
<g id="a2_0038"  >
<polygon points="533,85 538,80 542,80 542,90 538,90 533,85 " style="fill:white; stroke-width:1; stroke:black; " description="&lt;b&gt;Ae505Ps2_RS17940&lt;/b&gt;&lt;br&gt;mandelate racemase&lt;br&gt;Location: 3745970 - 3747073" locus_tag="Ae505Ps2_RS17940" class="clusterblast-orf" id="dummy-2_h2_5_38"  />
</g>
<g id="a2_0039"  >
<polygon points="542,85 547,80 550,80 550,90 547,90 542,85 " style="fill:white; stroke-width:1; stroke:black; " description="&lt;b&gt;Ae505Ps2_RS17945&lt;/b&gt;&lt;br&gt;LysR family transcriptional regulator&lt;br&gt;Location: 3747070 - 3747990" locus_tag="Ae505Ps2_RS17945" class="clusterblast-orf" id="dummy-2_h2_5_39"  />
</g>
<g id="a2_0040"  >
<polygon points="551,85 556,80 561,80 561,90 556,90 551,85 " style="fill:white; stroke-width:1; stroke:black; " description="&lt;b&gt;Ae505Ps2_RS17950&lt;/b&gt;&lt;br&gt;FAD-dependent monooxygenase&lt;br&gt;Location: 3748099 - 3749277" locus_tag="Ae505Ps2_RS17950" class="clusterblast-orf" id="dummy-2_h2_5_40"  />
</g>
<g id="a2_0041"  >
<polygon points="563,90 564,90 569,85 564,80 563,80 563,90 " style="fill:white; stroke-width:1; stroke:black; " description="&lt;b&gt;Ae505Ps2_RS17955&lt;/b&gt;&lt;br&gt;alpha/beta hydrolase&lt;br&gt;Location: 3749457 - 3750173" locus_tag="Ae505Ps2_RS17955" class="clusterblast-orf" id="dummy-2_h2_5_41"  />
</g>
<g id="a2_0042"  >
<polygon points="570,85 575,80 591,80 591,90 575,90 570,85 " style="fill:white; stroke-width:1; stroke:black; " description="&lt;b&gt;Ae505Ps2_RS17960&lt;/b&gt;&lt;br&gt;hypothetical protein&lt;br&gt;Location: 3750288 - 3752801" locus_tag="Ae505Ps2_RS17960" class="clusterblast-orf" id="dummy-2_h2_5_42"  />
</g>
<g id="a2_0043"  >
<polygon points="593,90 600,90 605,85 600,80 593,80 593,90 " style="fill:white; stroke-width:1; stroke:black; " description="&lt;b&gt;Ae505Ps2_RS31280&lt;/b&gt;&lt;br&gt;TetR family transcriptional regulator&lt;br&gt;Location: 3753015 - 3754334" locus_tag="Ae505Ps2_RS31280" class="clusterblast-orf" id="dummy-2_h2_5_43"  />
</g>
<g id="a2_0044"  >
<polygon points="606,90 609,90 614,85 609,80 606,80 606,90 " style="fill:white; stroke-width:1; stroke:black; " description="&lt;b&gt;Ae505Ps2_RS17975&lt;/b&gt;&lt;br&gt;MBL fold metallo-hydrolase&lt;br&gt;Location: 3754452 - 3755468" locus_tag="Ae505Ps2_RS17975" class="clusterblast-orf" id="dummy-2_h2_5_44"  />
</g>
<g id="a2_0045"  >
<polygon points="615,90 626,90 631,85 626,80 615,80 615,90 " style="fill:white; stroke-width:1; stroke:black; " description="&lt;b&gt;Ae505Ps2_RS17980&lt;/b&gt;&lt;br&gt;FAD-dependent monooxygenase&lt;br&gt;Location: 3755508 - 3757394" locus_tag="Ae505Ps2_RS17980" class="clusterblast-orf" id="dummy-2_h2_5_45"  />
</g>
<g id="a2_0046"  >
<polygon points="631,90 636,90 641,85 636,80 631,80 631,90 " style="fill:white; stroke-width:1; stroke:black; " description="&lt;b&gt;Ae505Ps2_RS17990&lt;/b&gt;&lt;br&gt;homogentisate 1,2-dioxygenase&lt;br&gt;Location: 3757369 - 3758568" locus_tag="Ae505Ps2_RS17990" class="clusterblast-orf" id="dummy-2_h2_5_46"  />
</g>
<g id="a2_0047"  >
<polygon points="641,85 646,80 650,80 650,90 646,90 641,85 " style="fill:white; stroke-width:1; stroke:black; " description="&lt;b&gt;Ae505Ps2_RS17995&lt;/b&gt;&lt;br&gt;arsenic resistance protein&lt;br&gt;Location: 3758582 - 3759550" locus_tag="Ae505Ps2_RS17995" class="clusterblast-orf" id="dummy-2_h2_5_47"  />
</g>
<g id="a2_0048"  >
<polygon points="650,85 655,80 658,80 658,90 655,90 650,85 " style="fill:white; stroke-width:1; stroke:black; " description="&lt;b&gt;Ae505Ps2_RS18000&lt;/b&gt;&lt;br&gt;trypsin-like peptidase domain-containing protein&lt;br&gt;Location: 3759547 - 3760512" locus_tag="Ae505Ps2_RS18000" class="clusterblast-orf" id="dummy-2_h2_5_48"  />
</g>
</svg>
