<svg xmlns="http://www.w3.org/2000/svg" xmlns:xlink="http://www.w3.org/1999/xlink" version="1.1" x="0" y="0" height="50" width="800" viewBox="0 0 800 50" preserveAspectRatio="none"  >
<g label="Query sequence" class="clusterblast-cluster"  >
<text x="5" y="20" class="clusterblast-acc"  >
Query sequence</text>
<line x1="10" y1="35" x2="778.0" y2="35" style="stroke-width:1; stroke:grey; "  />
<polygon points="0,40 39,40 44,35 39,30 0,30 0,40 " style="fill:white; stroke-width:1; stroke:black; " description="&lt;b&gt;CopciAB_28133.T0&lt;/b&gt;&lt;br&gt;CopciAB 28133.T0&lt;br&gt;Location: 1246341 - 1247339" locus_tag="CopciAB_28133.T0" class="clusterblast-orf" id="knownclusterblast-2_q0_0_all"  />
<polygon points="110,40 136,40 141,35 136,30 110,30 110,40 " style="fill:white; stroke-width:1; stroke:black; " description="&lt;b&gt;CopciAB_507443.T1&lt;/b&gt;&lt;br&gt;CopciAB 507443.T1&lt;br&gt;Location: 1248813 - 1249523" locus_tag="CopciAB_507443.T1" class="clusterblast-orf" id="knownclusterblast-2_q1_0_all"  />
<polygon points="128,40 149,40 154,35 149,30 128,30 128,40 " style="fill:white; stroke-width:1; stroke:black; " description="&lt;b&gt;CopciAB_507443.T0&lt;/b&gt;&lt;br&gt;CopciAB 507443.T0&lt;br&gt;Location: 1249225 - 1249819" locus_tag="CopciAB_507443.T0" class="clusterblast-orf" id="knownclusterblast-2_q2_0_all"  />
<polygon points="166,35 171,30 244,30 244,40 171,40 166,35 " style="fill:white; stroke-width:1; stroke:black; " description="&lt;b&gt;CopciAB_358611.T0&lt;/b&gt;&lt;br&gt;CopciAB 358611.T0&lt;br&gt;Location: 1250094 - 1251834" locus_tag="CopciAB_358611.T0" class="clusterblast-orf" id="knownclusterblast-2_q3_0_all"  />
<polygon points="262,35 267,30 359,30 359,40 267,40 262,35 " style="fill:white; stroke-width:1; stroke:black; " description="&lt;b&gt;CopciAB_358644.T0&lt;/b&gt;&lt;br&gt;CopciAB 358644.T0&lt;br&gt;Location: 1252258 - 1254446" locus_tag="CopciAB_358644.T0" class="clusterblast-orf" id="knownclusterblast-2_q4_0_all"  />
<polygon points="403,35 408,30 501,30 501,40 408,40 403,35 " style="fill:white; stroke-width:1; stroke:black; " description="&lt;b&gt;CopciAB_438053.T0&lt;/b&gt;&lt;br&gt;CopciAB 438053.T0&lt;br&gt;Location: 1255431 - 1257642" locus_tag="CopciAB_438053.T0" class="clusterblast-orf" id="knownclusterblast-2_q5_0_all"  />
<polygon points="516,40 775,40 780,35 775,30 516,30 516,40 " style="fill:white; stroke-width:1; stroke:black; " description="&lt;b&gt;CopciAB_438054.T0&lt;/b&gt;&lt;br&gt;CopciAB 438054.T0&lt;br&gt;Location: 1257977 - 1263925" locus_tag="CopciAB_438054.T0" class="clusterblast-orf" id="knownclusterblast-2_q6_0_all"  />
</g>
</svg>
