<svg xmlns="http://www.w3.org/2000/svg" xmlns:xlink="http://www.w3.org/1999/xlink" version="1.1" x="0" y="0" height="100" width="800" viewBox="0 0 800 100" preserveAspectRatio="none"  >
<g label="Query sequence" class="clusterblast-cluster"  >
<text x="5" y="20" class="clusterblast-acc"  >
Query sequence</text>
<line x1="10" y1="35" x2="778.0" y2="35" style="stroke-width:1; stroke:grey; "  />
<polygon points="0,35 5,30 152,30 152,40 5,40 0,35 " style="fill:white; stroke-width:1; stroke:black; " description="&lt;b&gt;CopciAB_501747.T0&lt;/b&gt;&lt;br&gt;CopciAB 501747.T0&lt;br&gt;Location: 732617 - 737787" locus_tag="CopciAB_501747.T0" class="clusterblast-orf" id="knownclusterblast-1_q0_0_all"  />
<polygon points="178,35 183,30 221,30 221,40 183,40 178,35 " style="fill:white; stroke-width:1; stroke:black; " description="&lt;b&gt;CopciAB_455217.T0&lt;/b&gt;&lt;br&gt;CopciAB 455217.T0&lt;br&gt;Location: 738658 - 740132" locus_tag="CopciAB_455217.T0" class="clusterblast-orf" id="knownclusterblast-1_q1_0_all"  />
<polygon points="248,35 253,30 299,30 299,40 253,40 248,35 " style="fill:white; stroke-width:1; stroke:black; " description="&lt;b&gt;CopciAB_124572.T0&lt;/b&gt;&lt;br&gt;CopciAB 124572.T0&lt;br&gt;Location: 741042 - 742784" locus_tag="CopciAB_124572.T0" class="clusterblast-orf" id="knownclusterblast-1_q2_0_all"  />
<polygon points="365,40 412,40 417,35 412,30 365,30 365,40 " style="fill:#d81515; stroke-width:1; stroke:black; " description="&lt;b&gt;CopciAB_124670.T0&lt;/b&gt;&lt;br&gt;CopciAB 124670.T0&lt;br&gt;Location: 745008 - 746793" locus_tag="CopciAB_124670.T0" class="clusterblast-orf" id="knownclusterblast-1_q3_0_all"  />
<polygon points="427,40 463,40 468,35 463,30 427,30 427,40 " style="fill:white; stroke-width:1; stroke:black; " description="&lt;b&gt;CopciAB_442940.T0&lt;/b&gt;&lt;br&gt;CopciAB 442940.T0&lt;br&gt;Location: 747133 - 748506" locus_tag="CopciAB_442940.T0" class="clusterblast-orf" id="knownclusterblast-1_q4_0_all"  />
<polygon points="579,35 584,30 646,30 646,40 584,40 579,35 " style="fill:white; stroke-width:1; stroke:black; " description="&lt;b&gt;CopciAB_545850.T0&lt;/b&gt;&lt;br&gt;CopciAB 545850.T0&lt;br&gt;Location: 752294 - 754555" locus_tag="CopciAB_545850.T0" class="clusterblast-orf" id="knownclusterblast-1_q5_0_all"  />
<polygon points="655,40 663,40 668,35 663,30 655,30 655,40 " style="fill:white; stroke-width:1; stroke:black; " description="&lt;b&gt;CopciAB_442944.T0&lt;/b&gt;&lt;br&gt;CopciAB 442944.T0&lt;br&gt;Location: 754859 - 755306" locus_tag="CopciAB_442944.T0" class="clusterblast-orf" id="knownclusterblast-1_q6_0_all"  />
<polygon points="688,35 693,30 780,30 780,40 693,40 688,35 " style="fill:white; stroke-width:1; stroke:black; " description="&lt;b&gt;CopciAB_378005.T0&lt;/b&gt;&lt;br&gt;CopciAB 378005.T0&lt;br&gt;Location: 756004 - 759110" locus_tag="CopciAB_378005.T0" class="clusterblast-orf" id="knownclusterblast-1_q7_0_all"  />
</g>
<g label="BGC0002708" description="BGC0002708_c1: (+)-δ-cadinol (100% of genes show similarity), Terpene" class="clusterblast-cluster"  >
<text x="5" y="70" class="clusterblast-acc"  >
<a xlink:href="https://mibig.secondarymetabolites.org/go/BGC0002708/1" target="_blank">BGC0002708</a>: (+)-δ-cadinol                                                                    (100% of genes show similarity), Terpene</text>
<line x1="10" y1="85" x2="778.0" y2="85" style="stroke-width:1; stroke:grey; "  />
</g>
<g id="a1_000"  >
<polygon points="372,90 402,90 407,85 402,80 372,80 372,90 " style="fill:#d81515; stroke-width:1; stroke:black; " description="&lt;b&gt;CONPUDRAFT_118913&lt;/b&gt;&lt;br&gt;terpene synthase&lt;br&gt;Location: 58 - 1233&lt;br&gt;&lt;br&gt;&lt;b&gt;BlastP hit with CopciAB_124670.T0&lt;/b&gt;&lt;br&gt;Percentage identity: 49&lt;br&gt;Percentage coverage: 83&lt;br&gt;BLAST bit score: 330&lt;br&gt;E-value: 7.67e-111" locus_tag="CONPUDRAFT_118913" class="clusterblast-orf" id="knownclusterblast-1_all_1_1_0"  />
</g>
</svg>
