<svg xmlns="http://www.w3.org/2000/svg" xmlns:xlink="http://www.w3.org/1999/xlink" version="1.1" x="0" y="0" height="230" width="800" viewBox="0 0 800 230" preserveAspectRatio="none"  >
<g label="Query sequence" class="clusterblast-cluster"  >
<text x="5" y="20" class="clusterblast-acc"  >
Query sequence</text>
<line x1="10" y1="35" x2="778.0" y2="35" style="stroke-width:1; stroke:grey; "  />
<polygon points="0,40 45,40 50,35 45,30 0,30 0,40 " style="fill:#d81515; stroke-width:1; stroke:black; " description="&lt;b&gt;CopciAB_467191.T0&lt;/b&gt;&lt;br&gt;CopciAB 467191.T0&lt;br&gt;Location: 865635 - 867502" locus_tag="CopciAB_467191.T0" class="clusterblast-orf" id="dummy-1_q0_0_all"  />
<polygon points="53,35 58,30 115,30 115,40 58,40 53,35 " style="fill:white; stroke-width:1; stroke:black; " description="&lt;b&gt;CopciAB_141512.T0&lt;/b&gt;&lt;br&gt;CopciAB 141512.T0&lt;br&gt;Location: 867640 - 869935" locus_tag="CopciAB_141512.T0" class="clusterblast-orf" id="dummy-1_q1_0_all"  />
<polygon points="127,35 132,30 154,30 154,40 132,40 127,35 " style="fill:white; stroke-width:1; stroke:black; " description="&lt;b&gt;CopciAB_519084.T0&lt;/b&gt;&lt;br&gt;CopciAB 519084.T0&lt;br&gt;Location: 870387 - 871382" locus_tag="CopciAB_519084.T0" class="clusterblast-orf" id="dummy-1_q2_0_all"  />
<polygon points="180,35 185,30 212,30 212,40 185,40 180,35 " style="fill:white; stroke-width:1; stroke:black; " description="&lt;b&gt;CopciAB_495707.T0&lt;/b&gt;&lt;br&gt;CopciAB 495707.T0&lt;br&gt;Location: 872353 - 873585" locus_tag="CopciAB_495707.T0" class="clusterblast-orf" id="dummy-1_q3_0_all"  />
<polygon points="217,35 221,30 221,40 217,35 " style="fill:white; stroke-width:1; stroke:black; " description="&lt;b&gt;CopciAB_10026296.T1&lt;/b&gt;&lt;br&gt;CopciAB 10026296.T1&lt;br&gt;Location: 873746 - 873902" locus_tag="CopciAB_10026296.T1" class="clusterblast-orf" id="dummy-1_q4_0_all"  />
<polygon points="217,35 222,30 223,30 223,40 222,40 217,35 " style="fill:white; stroke-width:1; stroke:black; " description="&lt;b&gt;CopciAB_10026296.T0&lt;/b&gt;&lt;br&gt;CopciAB 10026296.T0&lt;br&gt;Location: 873746 - 873963" locus_tag="CopciAB_10026296.T0" class="clusterblast-orf" id="dummy-1_q5_0_all"  />
<polygon points="231,40 289,40 294,35 289,30 231,30 231,40 " style="fill:white; stroke-width:1; stroke:black; " description="&lt;b&gt;CopciAB_467195.T0&lt;/b&gt;&lt;br&gt;CopciAB 467195.T0&lt;br&gt;Location: 874282 - 876644" locus_tag="CopciAB_467195.T0" class="clusterblast-orf" id="dummy-1_q6_0_all"  />
<polygon points="317,40 344,40 349,35 344,30 317,30 317,40 " style="fill:white; stroke-width:1; stroke:black; " description="&lt;b&gt;CopciAB_141635.T0&lt;/b&gt;&lt;br&gt;CopciAB 141635.T0&lt;br&gt;Location: 877502 - 878702" locus_tag="CopciAB_141635.T0" class="clusterblast-orf" id="dummy-1_q7_0_all"  />
<polygon points="382,35 387,30 418,30 418,40 387,40 382,35 " style="fill:#15d8d8; stroke-width:1; stroke:black; " description="&lt;b&gt;CopciAB_443805.T0&lt;/b&gt;&lt;br&gt;CopciAB 443805.T0&lt;br&gt;Location: 879908 - 881256" locus_tag="CopciAB_443805.T0" class="clusterblast-orf" id="dummy-1_q8_0_all"  />
<polygon points="465,40 505,40 510,35 505,30 465,30 465,40 " style="fill:white; stroke-width:1; stroke:black; " description="&lt;b&gt;CopciAB_141731.T0&lt;/b&gt;&lt;br&gt;CopciAB 141731.T0&lt;br&gt;Location: 883042 - 884722" locus_tag="CopciAB_141731.T0" class="clusterblast-orf" id="dummy-1_q9_0_all"  />
<polygon points="532,35 537,30 588,30 588,40 537,40 532,35 " style="fill:white; stroke-width:1; stroke:black; " description="&lt;b&gt;CopciAB_141718.T0&lt;/b&gt;&lt;br&gt;CopciAB 141718.T0&lt;br&gt;Location: 885536 - 887627" locus_tag="CopciAB_141718.T0" class="clusterblast-orf" id="dummy-1_q10_0_all"  />
<polygon points="597,35 602,30 606,30 606,40 602,40 597,35 " style="fill:white; stroke-width:1; stroke:black; " description="&lt;b&gt;CopciAB_1000642.T0&lt;/b&gt;&lt;br&gt;CopciAB 1000642.T0&lt;br&gt;Location: 887943 - 888276" locus_tag="CopciAB_1000642.T0" class="clusterblast-orf" id="dummy-1_q11_0_all"  />
<polygon points="684,35 689,30 719,30 719,40 689,40 684,35 " style="fill:white; stroke-width:1; stroke:black; " description="&lt;b&gt;CopciAB_362485.T0&lt;/b&gt;&lt;br&gt;CopciAB 362485.T0&lt;br&gt;Location: 891220 - 892508" locus_tag="CopciAB_362485.T0" class="clusterblast-orf" id="dummy-1_q12_0_all"  />
<polygon points="724,40 775,40 780,35 775,30 724,30 724,40 " style="fill:white; stroke-width:1; stroke:black; " description="&lt;b&gt;CopciAB_519105.T0&lt;/b&gt;&lt;br&gt;CopciAB 519105.T0&lt;br&gt;Location: 892712 - 894789" locus_tag="CopciAB_519105.T0" class="clusterblast-orf" id="dummy-1_q13_0_all"  />
</g>
<g label="BGC0002707" description="BGC0002707_c1: (+)-δ-cadinol (60% of genes show similarity), Terpene" class="clusterblast-cluster"  >
<text x="5" y="70" class="clusterblast-acc"  >
<a xlink:href="https://mibig.secondarymetabolites.org/go/BGC0002707/1" target="_blank">BGC0002707</a>: (+)-δ-cadinol                                                                    (60% of genes show similarity), Terpene</text>
<line x1="10" y1="85" x2="778.0" y2="85" style="stroke-width:1; stroke:grey; "  />
</g>
<g id="a1_000"  >
<polygon points="105,90 127,90 132,85 127,80 105,80 105,90 " style="fill:white; stroke-width:1; stroke:black; " description="&lt;b&gt;CONPUDRAFT_17337&lt;/b&gt;&lt;br&gt;NAD(P)-binding protein&lt;br&gt;Location: 4 - 1013" locus_tag="CONPUDRAFT_17337" class="clusterblast-orf" id="dummy-1_h1_1_0"  />
</g>
<g id="a1_001"  >
<polygon points="248,90 293,90 298,85 293,80 248,80 248,90 " style="fill:#d81515; stroke-width:1; stroke:black; " description="&lt;b&gt;CONPUDRAFT_150757&lt;/b&gt;&lt;br&gt;MFS general substrate transporter&lt;br&gt;Location: 5353 - 7245&lt;br&gt;&lt;br&gt;&lt;b&gt;BlastP hit with CopciAB_467191.T0&lt;/b&gt;&lt;br&gt;Percentage identity: 47&lt;br&gt;Percentage coverage: 100&lt;br&gt;BLAST bit score: 438&lt;br&gt;E-value: 2.16e-150" locus_tag="CONPUDRAFT_150757" class="clusterblast-orf" id="dummy-1_h1_1_1"  />
</g>
<g id="a1_002"  >
<polygon points="421,90 548,90 553,85 548,80 421,80 421,90 " style="fill:#d81515; stroke-width:1; stroke:black; " description="&lt;b&gt;CONPUDRAFT_99245&lt;/b&gt;&lt;br&gt;MFS transporter&lt;br&gt;Location: 11829 - 16780&lt;br&gt;&lt;br&gt;&lt;b&gt;BlastP hit with CopciAB_467191.T0&lt;/b&gt;&lt;br&gt;Percentage identity: 46&lt;br&gt;Percentage coverage: 98&lt;br&gt;BLAST bit score: 394&lt;br&gt;E-value: 7.17e-133" locus_tag="CONPUDRAFT_99245" class="clusterblast-orf" id="dummy-1_h1_1_2"  />
</g>
<g id="a1_003"  >
<polygon points="567,85 572,80 598,80 598,90 572,90 567,85 " style="fill:#15d8d8; stroke-width:1; stroke:black; " description="&lt;b&gt;CONPUDRAFT_50941&lt;/b&gt;&lt;br&gt;terpenoid synthase&lt;br&gt;Location: 17286 - 18431&lt;br&gt;&lt;br&gt;&lt;b&gt;BlastP hit with CopciAB_443805.T0&lt;/b&gt;&lt;br&gt;Percentage identity: 49&lt;br&gt;Percentage coverage: 86&lt;br&gt;BLAST bit score: 326&lt;br&gt;E-value: 4.85e-110" locus_tag="CONPUDRAFT_50941" class="clusterblast-orf" id="dummy-1_h1_1_3"  />
</g>
<g id="a1_004"  >
<polygon points="639,85 644,80 674,80 674,90 644,90 639,85 " style="fill:white; stroke-width:1; stroke:black; " description="&lt;b&gt;CONPUDRAFT_119059&lt;/b&gt;&lt;br&gt;aldo-keto reductase&lt;br&gt;Location: 19983 - 21301" locus_tag="CONPUDRAFT_119059" class="clusterblast-orf" id="dummy-1_h1_1_4"  />
</g>
</svg>
