<svg xmlns="http://www.w3.org/2000/svg" xmlns:xlink="http://www.w3.org/1999/xlink" version="1.1" x="0" y="0" height="50" width="800" viewBox="0 0 800 50" preserveAspectRatio="none"  >
<g label="Query sequence" class="clusterblast-cluster"  >
<text x="5" y="20" class="clusterblast-acc"  >
Query sequence</text>
<line x1="10" y1="35" x2="778.0" y2="35" style="stroke-width:1; stroke:grey; "  />
<polygon points="0,35 5,30 7,30 7,40 5,40 0,35 " style="fill:white; stroke-width:1; stroke:black; " description="&lt;b&gt;CopciAB_524277.T0&lt;/b&gt;&lt;br&gt;CopciAB 524277.T0&lt;br&gt;Location: 128887 - 129462" locus_tag="CopciAB_524277.T0" class="clusterblast-orf" id="subclusterblast-1_q0_0_all"  />
<polygon points="25,40 39,40 44,35 39,30 25,30 25,40 " style="fill:white; stroke-width:1; stroke:black; " description="&lt;b&gt;CopciAB_383249.T0&lt;/b&gt;&lt;br&gt;CopciAB 383249.T0&lt;br&gt;Location: 130960 - 132504" locus_tag="CopciAB_383249.T0" class="clusterblast-orf" id="subclusterblast-1_q1_0_all"  />
<polygon points="57,40 71,40 76,35 71,30 57,30 57,40 " style="fill:white; stroke-width:1; stroke:black; " description="&lt;b&gt;CopciAB_503850.T0&lt;/b&gt;&lt;br&gt;CopciAB 503850.T0&lt;br&gt;Location: 133545 - 135075" locus_tag="CopciAB_503850.T0" class="clusterblast-orf" id="subclusterblast-1_q2_0_all"  />
<polygon points="84,40 93,40 98,35 93,30 84,30 84,40 " style="fill:white; stroke-width:1; stroke:black; " description="&lt;b&gt;CopciAB_344755.T0&lt;/b&gt;&lt;br&gt;CopciAB 344755.T0&lt;br&gt;Location: 135765 - 136915" locus_tag="CopciAB_344755.T0" class="clusterblast-orf" id="subclusterblast-1_q3_0_all"  />
<polygon points="178,35 183,30 191,30 191,40 183,40 178,35 " style="fill:white; stroke-width:1; stroke:black; " description="&lt;b&gt;CopciAB_1001492.T0&lt;/b&gt;&lt;br&gt;CopciAB 1001492.T0&lt;br&gt;Location: 143471 - 144489" locus_tag="CopciAB_1001492.T0" class="clusterblast-orf" id="subclusterblast-1_q4_0_all"  />
<polygon points="259,40 266,40 271,35 266,30 259,30 259,40 " style="fill:white; stroke-width:1; stroke:black; " description="&lt;b&gt;CopciAB_1001494.T0&lt;/b&gt;&lt;br&gt;CopciAB 1001494.T0&lt;br&gt;Location: 150000 - 151055" locus_tag="CopciAB_1001494.T0" class="clusterblast-orf" id="subclusterblast-1_q5_0_all"  />
<polygon points="291,35 296,30 329,30 329,40 296,40 291,35 " style="fill:white; stroke-width:1; stroke:black; " description="&lt;b&gt;CopciAB_446261.T0&lt;/b&gt;&lt;br&gt;CopciAB 446261.T0&lt;br&gt;Location: 152639 - 155730" locus_tag="CopciAB_446261.T0" class="clusterblast-orf" id="subclusterblast-1_q6_0_all"  />
<polygon points="331,35 336,30 340,30 340,40 336,40 331,35 " style="fill:white; stroke-width:1; stroke:black; " description="&lt;b&gt;CopciAB_1001495.T0&lt;/b&gt;&lt;br&gt;CopciAB 1001495.T0&lt;br&gt;Location: 155891 - 156645" locus_tag="CopciAB_1001495.T0" class="clusterblast-orf" id="subclusterblast-1_q7_0_all"  />
<polygon points="348,40 410,40 415,35 410,30 348,30 348,40 " style="fill:white; stroke-width:1; stroke:black; " description="&lt;b&gt;CopciAB_446258.T0&lt;/b&gt;&lt;br&gt;CopciAB 446258.T0&lt;br&gt;Location: 157279 - 162722" locus_tag="CopciAB_446258.T0" class="clusterblast-orf" id="subclusterblast-1_q8_0_all"  />
<polygon points="427,40 442,40 447,35 442,30 427,30 427,40 " style="fill:white; stroke-width:1; stroke:black; " description="&lt;b&gt;CopciAB_503283.T0&lt;/b&gt;&lt;br&gt;CopciAB 503283.T0&lt;br&gt;Location: 163767 - 165341" locus_tag="CopciAB_503283.T0" class="clusterblast-orf" id="subclusterblast-1_q9_0_all"  />
<polygon points="448,35 453,30 468,30 468,40 453,40 448,35 " style="fill:white; stroke-width:1; stroke:black; " description="&lt;b&gt;CopciAB_483444.T0&lt;/b&gt;&lt;br&gt;CopciAB 483444.T0&lt;br&gt;Location: 165469 - 167114" locus_tag="CopciAB_483444.T0" class="clusterblast-orf" id="subclusterblast-1_q10_0_all"  />
<polygon points="476,35 481,30 522,30 522,40 481,40 476,35 " style="fill:white; stroke-width:1; stroke:black; " description="&lt;b&gt;CopciAB_457651.T0&lt;/b&gt;&lt;br&gt;CopciAB 457651.T0&lt;br&gt;Location: 167751 - 171455" locus_tag="CopciAB_457651.T0" class="clusterblast-orf" id="subclusterblast-1_q11_0_all"  />
<polygon points="539,35 544,30 576,30 576,40 544,40 539,35 " style="fill:white; stroke-width:1; stroke:black; " description="&lt;b&gt;CopciAB_469248.T0&lt;/b&gt;&lt;br&gt;CopciAB 469248.T0&lt;br&gt;Location: 172833 - 175918" locus_tag="CopciAB_469248.T0" class="clusterblast-orf" id="subclusterblast-1_q12_0_all"  />
<polygon points="580,40 590,40 595,35 590,30 580,30 580,40 " style="fill:white; stroke-width:1; stroke:black; " description="&lt;b&gt;CopciAB_381762.T0&lt;/b&gt;&lt;br&gt;CopciAB 381762.T0&lt;br&gt;Location: 176193 - 177424" locus_tag="CopciAB_381762.T0" class="clusterblast-orf" id="subclusterblast-1_q13_0_all"  />
<polygon points="610,40 613,40 618,35 613,30 610,30 610,40 " style="fill:white; stroke-width:1; stroke:black; " description="&lt;b&gt;CopciAB_457655.T0&lt;/b&gt;&lt;br&gt;CopciAB 457655.T0&lt;br&gt;Location: 178634 - 179333" locus_tag="CopciAB_457655.T0" class="clusterblast-orf" id="subclusterblast-1_q14_0_all"  />
<polygon points="630,40 651,40 656,35 651,30 630,30 630,40 " style="fill:white; stroke-width:1; stroke:black; " description="&lt;b&gt;CopciAB_332159.T0&lt;/b&gt;&lt;br&gt;CopciAB 332159.T0&lt;br&gt;Location: 180288 - 182385" locus_tag="CopciAB_332159.T0" class="clusterblast-orf" id="subclusterblast-1_q15_0_all"  />
<polygon points="689,35 694,30 701,30 701,40 694,40 689,35 " style="fill:white; stroke-width:1; stroke:black; " description="&lt;b&gt;CopciAB_546985.T0&lt;/b&gt;&lt;br&gt;CopciAB 546985.T0&lt;br&gt;Location: 185119 - 186061" locus_tag="CopciAB_546985.T0" class="clusterblast-orf" id="subclusterblast-1_q16_0_all"  />
<polygon points="738,35 743,30 744,30 744,40 743,40 738,35 " style="fill:white; stroke-width:1; stroke:black; " description="&lt;b&gt;CopciAB_483147.T0&lt;/b&gt;&lt;br&gt;CopciAB 483147.T0&lt;br&gt;Location: 189103 - 189601" locus_tag="CopciAB_483147.T0" class="clusterblast-orf" id="subclusterblast-1_q17_0_all"  />
<polygon points="764,40 775,40 780,35 775,30 764,30 764,40 " style="fill:white; stroke-width:1; stroke:black; " description="&lt;b&gt;CopciAB_445389.T0&lt;/b&gt;&lt;br&gt;CopciAB 445389.T0&lt;br&gt;Location: 191232 - 192488" locus_tag="CopciAB_445389.T0" class="clusterblast-orf" id="subclusterblast-1_q18_0_all"  />
</g>
</svg>
