<svg xmlns="http://www.w3.org/2000/svg" xmlns:xlink="http://www.w3.org/1999/xlink" version="1.1" x="0" y="0" height="50" width="800" viewBox="0 0 800 50" preserveAspectRatio="none"  >
<g label="Query sequence" class="clusterblast-cluster"  >
<text x="5" y="20" class="clusterblast-acc"  >
Query sequence</text>
<line x1="10" y1="35" x2="778.0" y2="35" style="stroke-width:1; stroke:grey; "  />
<polygon points="0,40 17,40 22,35 17,30 0,30 0,40 " style="fill:white; stroke-width:1; stroke:black; " description="&lt;b&gt;CopciAB_489010.T0&lt;/b&gt;&lt;br&gt;CopciAB 489010.T0&lt;br&gt;Location: 132333 - 133099" locus_tag="CopciAB_489010.T0" class="clusterblast-orf" id="subclusterblast-1_q0_0_all"  />
<polygon points="37,40 47,40 52,35 47,30 37,30 37,40 " style="fill:white; stroke-width:1; stroke:black; " description="&lt;b&gt;CopciAB_400867.T0&lt;/b&gt;&lt;br&gt;CopciAB 400867.T0&lt;br&gt;Location: 133617 - 134115" locus_tag="CopciAB_400867.T0" class="clusterblast-orf" id="subclusterblast-1_q1_0_all"  />
<polygon points="48,40 67,40 72,35 67,30 48,30 48,40 " style="fill:white; stroke-width:1; stroke:black; " description="&lt;b&gt;CopciAB_400867.T1&lt;/b&gt;&lt;br&gt;CopciAB 400867.T1&lt;br&gt;Location: 134002 - 134811" locus_tag="CopciAB_400867.T1" class="clusterblast-orf" id="subclusterblast-1_q2_0_all"  />
<polygon points="188,40 239,40 244,35 239,30 188,30 188,40 " style="fill:white; stroke-width:1; stroke:black; " description="&lt;b&gt;CopciAB_371400.T0&lt;/b&gt;&lt;br&gt;CopciAB 371400.T0&lt;br&gt;Location: 138811 - 140750" locus_tag="CopciAB_371400.T0" class="clusterblast-orf" id="subclusterblast-1_q3_0_all"  />
<polygon points="272,40 274,40 279,35 274,30 272,30 272,40 " style="fill:white; stroke-width:1; stroke:black; " description="&lt;b&gt;CopciAB_1002446.T0&lt;/b&gt;&lt;br&gt;CopciAB 1002446.T0&lt;br&gt;Location: 141685 - 141958" locus_tag="CopciAB_1002446.T0" class="clusterblast-orf" id="subclusterblast-1_q4_0_all"  />
<polygon points="285,35 290,30 300,30 300,40 290,40 285,35 " style="fill:white; stroke-width:1; stroke:black; " description="&lt;b&gt;CopciAB_451680.T0&lt;/b&gt;&lt;br&gt;CopciAB 451680.T0&lt;br&gt;Location: 142159 - 142676" locus_tag="CopciAB_451680.T0" class="clusterblast-orf" id="subclusterblast-1_q5_0_all"  />
<polygon points="311,40 373,40 378,35 373,30 311,30 311,40 " style="fill:white; stroke-width:1; stroke:black; " description="&lt;b&gt;CopciAB_371440.T0&lt;/b&gt;&lt;br&gt;CopciAB 371440.T0&lt;br&gt;Location: 143052 - 145338" locus_tag="CopciAB_371440.T0" class="clusterblast-orf" id="subclusterblast-1_q6_0_all"  />
<polygon points="419,40 452,40 457,35 452,30 419,30 419,40 " style="fill:white; stroke-width:1; stroke:black; " description="&lt;b&gt;CopciAB_437522.T0&lt;/b&gt;&lt;br&gt;CopciAB 437522.T0&lt;br&gt;Location: 146745 - 148078" locus_tag="CopciAB_437522.T0" class="clusterblast-orf" id="subclusterblast-1_q7_0_all"  />
<polygon points="499,40 520,40 525,35 520,30 499,30 499,40 " style="fill:white; stroke-width:1; stroke:black; " description="&lt;b&gt;CopciAB_489015.T0&lt;/b&gt;&lt;br&gt;CopciAB 489015.T0&lt;br&gt;Location: 149518 - 150404" locus_tag="CopciAB_489015.T0" class="clusterblast-orf" id="subclusterblast-1_q8_0_all"  />
<polygon points="541,35 546,30 579,30 579,40 546,40 541,35 " style="fill:white; stroke-width:1; stroke:black; " description="&lt;b&gt;CopciAB_371412.T0&lt;/b&gt;&lt;br&gt;CopciAB 371412.T0&lt;br&gt;Location: 150947 - 152265" locus_tag="CopciAB_371412.T0" class="clusterblast-orf" id="subclusterblast-1_q9_0_all"  />
<polygon points="613,35 618,30 675,30 675,40 618,40 613,35 " style="fill:white; stroke-width:1; stroke:black; " description="&lt;b&gt;CopciAB_499157.T0&lt;/b&gt;&lt;br&gt;CopciAB 499157.T0&lt;br&gt;Location: 153427 - 155578" locus_tag="CopciAB_499157.T0" class="clusterblast-orf" id="subclusterblast-1_q10_0_all"  />
<polygon points="688,35 693,30 699,30 699,40 693,40 688,35 " style="fill:white; stroke-width:1; stroke:black; " description="&lt;b&gt;CopciAB_1002447.T0&lt;/b&gt;&lt;br&gt;CopciAB 1002447.T0&lt;br&gt;Location: 156030 - 156381" locus_tag="CopciAB_1002447.T0" class="clusterblast-orf" id="subclusterblast-1_q11_0_all"  />
<polygon points="723,40 738,40 743,35 738,30 723,30 723,40 " style="fill:white; stroke-width:1; stroke:black; " description="&lt;b&gt;CopciAB_1002448.T0&lt;/b&gt;&lt;br&gt;CopciAB 1002448.T0&lt;br&gt;Location: 157236 - 157902" locus_tag="CopciAB_1002448.T0" class="clusterblast-orf" id="subclusterblast-1_q12_0_all"  />
<polygon points="760,40 775,40 780,35 775,30 760,30 760,40 " style="fill:white; stroke-width:1; stroke:black; " description="&lt;b&gt;CopciAB_437528.T0&lt;/b&gt;&lt;br&gt;CopciAB 437528.T0&lt;br&gt;Location: 158499 - 159177" locus_tag="CopciAB_437528.T0" class="clusterblast-orf" id="subclusterblast-1_q13_0_all"  />
</g>
</svg>
