<svg xmlns="http://www.w3.org/2000/svg" xmlns:xlink="http://www.w3.org/1999/xlink" version="1.1" x="0" y="0" height="50" width="800" viewBox="0 0 800 50" preserveAspectRatio="none"  >
<g label="Query sequence" class="clusterblast-cluster"  >
<text x="5" y="20" class="clusterblast-acc"  >
Query sequence</text>
<line x1="10" y1="35" x2="778.0" y2="35" style="stroke-width:1; stroke:grey; "  />
<polygon points="0,40 6,40 11,35 6,30 0,30 0,40 " style="fill:white; stroke-width:1; stroke:black; " description="&lt;b&gt;CopciAB_419547.T0&lt;/b&gt;&lt;br&gt;CopciAB 419547.T0&lt;br&gt;Location: 1623445 - 1623880" locus_tag="CopciAB_419547.T0" class="clusterblast-orf" id="subclusterblast-2_q0_0_all"  />
<polygon points="59,40 63,40 68,35 63,30 59,30 59,40 " style="fill:white; stroke-width:1; stroke:black; " description="&lt;b&gt;CopciAB_476959.T0&lt;/b&gt;&lt;br&gt;CopciAB 476959.T0&lt;br&gt;Location: 1625642 - 1625995" locus_tag="CopciAB_476959.T0" class="clusterblast-orf" id="subclusterblast-2_q1_0_all"  />
<polygon points="71,35 76,30 97,30 97,40 76,40 71,35 " style="fill:white; stroke-width:1; stroke:black; " description="&lt;b&gt;CopciAB_363200.T0&lt;/b&gt;&lt;br&gt;CopciAB 363200.T0&lt;br&gt;Location: 1626078 - 1627074" locus_tag="CopciAB_363200.T0" class="clusterblast-orf" id="subclusterblast-2_q2_0_all"  />
<polygon points="122,40 126,35 122,30 122,40 " style="fill:white; stroke-width:1; stroke:black; " description="&lt;b&gt;CopciAB_1001580.T0&lt;/b&gt;&lt;br&gt;CopciAB 1001580.T0&lt;br&gt;Location: 1627996 - 1628155" locus_tag="CopciAB_1001580.T0" class="clusterblast-orf" id="subclusterblast-2_q3_0_all"  />
<polygon points="138,35 143,30 250,30 250,40 143,40 138,35 " style="fill:white; stroke-width:1; stroke:black; " description="&lt;b&gt;CopciAB_1001581.T0&lt;/b&gt;&lt;br&gt;CopciAB 1001581.T0&lt;br&gt;Location: 1628601 - 1632753" locus_tag="CopciAB_1001581.T0" class="clusterblast-orf" id="subclusterblast-2_q4_0_all"  />
<polygon points="254,40 309,40 314,35 309,30 254,30 254,40 " style="fill:white; stroke-width:1; stroke:black; " description="&lt;b&gt;CopciAB_1001582.T0&lt;/b&gt;&lt;br&gt;CopciAB 1001582.T0&lt;br&gt;Location: 1632910 - 1635157" locus_tag="CopciAB_1001582.T0" class="clusterblast-orf" id="subclusterblast-2_q5_0_all"  />
<polygon points="326,35 330,30 330,40 326,35 " style="fill:white; stroke-width:1; stroke:black; " description="&lt;b&gt;CopciAB_1001583.T0&lt;/b&gt;&lt;br&gt;CopciAB 1001583.T0&lt;br&gt;Location: 1635569 - 1635731" locus_tag="CopciAB_1001583.T0" class="clusterblast-orf" id="subclusterblast-2_q6_0_all"  />
<polygon points="341,40 370,40 375,35 370,30 341,30 341,40 " style="fill:white; stroke-width:1; stroke:black; " description="&lt;b&gt;CopciAB_443341.T0&lt;/b&gt;&lt;br&gt;CopciAB 443341.T0&lt;br&gt;Location: 1636156 - 1637423" locus_tag="CopciAB_443341.T0" class="clusterblast-orf" id="subclusterblast-2_q7_0_all"  />
<polygon points="391,40 396,40 401,35 396,30 391,30 391,40 " style="fill:white; stroke-width:1; stroke:black; " description="&lt;b&gt;CopciAB_362075.T0&lt;/b&gt;&lt;br&gt;CopciAB 362075.T0&lt;br&gt;Location: 1637990 - 1638388" locus_tag="CopciAB_362075.T0" class="clusterblast-orf" id="subclusterblast-2_q8_0_all"  />
<polygon points="400,40 419,40 424,35 419,30 400,30 400,40 " style="fill:white; stroke-width:1; stroke:black; " description="&lt;b&gt;CopciAB_362075.T1&lt;/b&gt;&lt;br&gt;CopciAB 362075.T1&lt;br&gt;Location: 1638331 - 1639232" locus_tag="CopciAB_362075.T1" class="clusterblast-orf" id="subclusterblast-2_q9_0_all"  />
<polygon points="433,40 521,40 526,35 521,30 433,30 433,40 " style="fill:white; stroke-width:1; stroke:black; " description="&lt;b&gt;CopciAB_495583.T0&lt;/b&gt;&lt;br&gt;CopciAB 495583.T0&lt;br&gt;Location: 1639579 - 1643041" locus_tag="CopciAB_495583.T0" class="clusterblast-orf" id="subclusterblast-2_q10_0_all"  />
<polygon points="532,35 537,30 600,30 600,40 537,40 532,35 " style="fill:white; stroke-width:1; stroke:black; " description="&lt;b&gt;CopciAB_495582.T0&lt;/b&gt;&lt;br&gt;CopciAB 495582.T0&lt;br&gt;Location: 1643258 - 1645778" locus_tag="CopciAB_495582.T0" class="clusterblast-orf" id="subclusterblast-2_q11_0_all"  />
<polygon points="569,35 570,30 570,40 569,35 " style="fill:white; stroke-width:1; stroke:black; " description="&lt;b&gt;CopciAB_495582.T1&lt;/b&gt;&lt;br&gt;CopciAB 495582.T1&lt;br&gt;Location: 1644616 - 1644651" locus_tag="CopciAB_495582.T1" class="clusterblast-orf" id="subclusterblast-2_q12_0_all"  />
<polygon points="641,40 658,40 663,35 658,30 641,30 641,40 " style="fill:white; stroke-width:1; stroke:black; " description="&lt;b&gt;CopciAB_1001584.T0&lt;/b&gt;&lt;br&gt;CopciAB 1001584.T0&lt;br&gt;Location: 1647295 - 1648121" locus_tag="CopciAB_1001584.T0" class="clusterblast-orf" id="subclusterblast-2_q13_0_all"  />
<polygon points="674,40 726,40 731,35 726,30 674,30 674,40 " style="fill:white; stroke-width:1; stroke:black; " description="&lt;b&gt;CopciAB_466786.T0&lt;/b&gt;&lt;br&gt;CopciAB 466786.T0&lt;br&gt;Location: 1648529 - 1650649" locus_tag="CopciAB_466786.T0" class="clusterblast-orf" id="subclusterblast-2_q14_0_all"  />
<polygon points="737,35 742,30 772,30 772,40 742,40 737,35 " style="fill:white; stroke-width:1; stroke:black; " description="&lt;b&gt;CopciAB_540189.T0&lt;/b&gt;&lt;br&gt;CopciAB 540189.T0&lt;br&gt;Location: 1650866 - 1652186" locus_tag="CopciAB_540189.T0" class="clusterblast-orf" id="subclusterblast-2_q15_0_all"  />
<polygon points="776,40 780,35 776,30 776,40 " style="fill:white; stroke-width:1; stroke:black; " description="&lt;b&gt;CopciAB_1001585.T0&lt;/b&gt;&lt;br&gt;CopciAB 1001585.T0&lt;br&gt;Location: 1652335 - 1652476" locus_tag="CopciAB_1001585.T0" class="clusterblast-orf" id="subclusterblast-2_q16_0_all"  />
</g>
</svg>
