<svg xmlns="http://www.w3.org/2000/svg" xmlns:xlink="http://www.w3.org/1999/xlink" version="1.1" x="0" y="0" height="50" width="800" viewBox="0 0 800 50" preserveAspectRatio="none"  >
<g label="Query sequence" class="clusterblast-cluster"  >
<text x="5" y="20" class="clusterblast-acc"  >
Query sequence</text>
<line x1="10" y1="35" x2="778.0" y2="35" style="stroke-width:1; stroke:grey; "  />
<polygon points="0,35 5,30 23,30 23,40 5,40 0,35 " style="fill:white; stroke-width:1; stroke:black; " description="&lt;b&gt;CopciAB_467951.T1&lt;/b&gt;&lt;br&gt;CopciAB 467951.T1&lt;br&gt;Location: 700227 - 701107" locus_tag="CopciAB_467951.T1" class="clusterblast-orf" id="subclusterblast-2_q0_0_all"  />
<polygon points="47,35 52,30 63,30 63,40 52,40 47,35 " style="fill:white; stroke-width:1; stroke:black; " description="&lt;b&gt;CopciAB_444698.T1&lt;/b&gt;&lt;br&gt;CopciAB 444698.T1&lt;br&gt;Location: 702017 - 702646" locus_tag="CopciAB_444698.T1" class="clusterblast-orf" id="subclusterblast-2_q1_0_all"  />
<polygon points="63,35 68,30 82,30 82,40 68,40 63,35 " style="fill:white; stroke-width:1; stroke:black; " description="&lt;b&gt;CopciAB_444698.T0&lt;/b&gt;&lt;br&gt;CopciAB 444698.T0&lt;br&gt;Location: 702644 - 703357" locus_tag="CopciAB_444698.T0" class="clusterblast-orf" id="subclusterblast-2_q2_0_all"  />
<polygon points="88,40 162,40 167,35 162,30 88,30 88,40 " style="fill:white; stroke-width:1; stroke:black; " description="&lt;b&gt;CopciAB_495903.T1&lt;/b&gt;&lt;br&gt;CopciAB 495903.T1&lt;br&gt;Location: 703566 - 706587" locus_tag="CopciAB_495903.T1" class="clusterblast-orf" id="subclusterblast-2_q3_0_all"  />
<polygon points="169,35 174,30 296,30 296,40 174,40 169,35 " style="fill:white; stroke-width:1; stroke:black; " description="&lt;b&gt;CopciAB_161362.T0&lt;/b&gt;&lt;br&gt;CopciAB 161362.T0&lt;br&gt;Location: 706659 - 711498" locus_tag="CopciAB_161362.T0" class="clusterblast-orf" id="subclusterblast-2_q4_0_all"  />
<polygon points="324,35 329,30 365,30 365,40 329,40 324,35 " style="fill:white; stroke-width:1; stroke:black; " description="&lt;b&gt;CopciAB_444694.T0&lt;/b&gt;&lt;br&gt;CopciAB 444694.T0&lt;br&gt;Location: 712571 - 714133" locus_tag="CopciAB_444694.T0" class="clusterblast-orf" id="subclusterblast-2_q5_0_all"  />
<polygon points="387,35 392,30 418,30 418,40 392,40 387,35 " style="fill:white; stroke-width:1; stroke:black; " description="&lt;b&gt;CopciAB_495900.T0&lt;/b&gt;&lt;br&gt;CopciAB 495900.T0&lt;br&gt;Location: 714965 - 716140" locus_tag="CopciAB_495900.T0" class="clusterblast-orf" id="subclusterblast-2_q6_0_all"  />
<polygon points="444,40 481,40 486,35 481,30 444,30 444,40 " style="fill:white; stroke-width:1; stroke:black; " description="&lt;b&gt;CopciAB_161280.T1&lt;/b&gt;&lt;br&gt;CopciAB 161280.T1&lt;br&gt;Location: 717137 - 718716" locus_tag="CopciAB_161280.T1" class="clusterblast-orf" id="subclusterblast-2_q7_0_all"  />
<polygon points="492,35 497,30 538,30 538,40 497,40 492,35 " style="fill:white; stroke-width:1; stroke:black; " description="&lt;b&gt;CopciAB_161275.T0&lt;/b&gt;&lt;br&gt;CopciAB 161275.T0&lt;br&gt;Location: 718932 - 720700" locus_tag="CopciAB_161275.T0" class="clusterblast-orf" id="subclusterblast-2_q8_0_all"  />
<polygon points="543,40 598,40 603,35 598,30 543,30 543,40 " style="fill:white; stroke-width:1; stroke:black; " description="&lt;b&gt;CopciAB_521062.T0&lt;/b&gt;&lt;br&gt;CopciAB 521062.T0&lt;br&gt;Location: 720909 - 723186" locus_tag="CopciAB_521062.T0" class="clusterblast-orf" id="subclusterblast-2_q9_0_all"  />
<polygon points="615,35 620,30 635,30 635,40 620,40 615,35 " style="fill:white; stroke-width:1; stroke:black; " description="&lt;b&gt;CopciAB_495896.T0&lt;/b&gt;&lt;br&gt;CopciAB 495896.T0&lt;br&gt;Location: 723618 - 724376" locus_tag="CopciAB_495896.T0" class="clusterblast-orf" id="subclusterblast-2_q10_0_all"  />
<polygon points="647,40 775,40 780,35 775,30 647,30 647,40 " style="fill:white; stroke-width:1; stroke:black; " description="&lt;b&gt;CopciAB_540472.T0&lt;/b&gt;&lt;br&gt;CopciAB 540472.T0&lt;br&gt;Location: 724856 - 729897" locus_tag="CopciAB_540472.T0" class="clusterblast-orf" id="subclusterblast-2_q11_0_all"  />
</g>
</svg>
