<svg xmlns="http://www.w3.org/2000/svg" xmlns:xlink="http://www.w3.org/1999/xlink" version="1.1" x="0" y="0" height="50" width="800" viewBox="0 0 800 50" preserveAspectRatio="none"  >
<g label="Query sequence" class="clusterblast-cluster"  >
<text x="5" y="20" class="clusterblast-acc"  >
Query sequence</text>
<line x1="10" y1="35" x2="778.0" y2="35" style="stroke-width:1; stroke:grey; "  />
<polygon points="0,40 45,40 50,35 45,30 0,30 0,40 " style="fill:white; stroke-width:1; stroke:black; " description="&lt;b&gt;CopciAB_467191.T0&lt;/b&gt;&lt;br&gt;CopciAB 467191.T0&lt;br&gt;Location: 865635 - 867502" locus_tag="CopciAB_467191.T0" class="clusterblast-orf" id="subclusterblast-1_q0_0_all"  />
<polygon points="53,35 58,30 115,30 115,40 58,40 53,35 " style="fill:white; stroke-width:1; stroke:black; " description="&lt;b&gt;CopciAB_141512.T0&lt;/b&gt;&lt;br&gt;CopciAB 141512.T0&lt;br&gt;Location: 867640 - 869935" locus_tag="CopciAB_141512.T0" class="clusterblast-orf" id="subclusterblast-1_q1_0_all"  />
<polygon points="127,35 132,30 154,30 154,40 132,40 127,35 " style="fill:white; stroke-width:1; stroke:black; " description="&lt;b&gt;CopciAB_519084.T0&lt;/b&gt;&lt;br&gt;CopciAB 519084.T0&lt;br&gt;Location: 870387 - 871382" locus_tag="CopciAB_519084.T0" class="clusterblast-orf" id="subclusterblast-1_q2_0_all"  />
<polygon points="180,35 185,30 212,30 212,40 185,40 180,35 " style="fill:white; stroke-width:1; stroke:black; " description="&lt;b&gt;CopciAB_495707.T0&lt;/b&gt;&lt;br&gt;CopciAB 495707.T0&lt;br&gt;Location: 872353 - 873585" locus_tag="CopciAB_495707.T0" class="clusterblast-orf" id="subclusterblast-1_q3_0_all"  />
<polygon points="217,35 221,30 221,40 217,35 " style="fill:white; stroke-width:1; stroke:black; " description="&lt;b&gt;CopciAB_10026296.T1&lt;/b&gt;&lt;br&gt;CopciAB 10026296.T1&lt;br&gt;Location: 873746 - 873902" locus_tag="CopciAB_10026296.T1" class="clusterblast-orf" id="subclusterblast-1_q4_0_all"  />
<polygon points="217,35 222,30 223,30 223,40 222,40 217,35 " style="fill:white; stroke-width:1; stroke:black; " description="&lt;b&gt;CopciAB_10026296.T0&lt;/b&gt;&lt;br&gt;CopciAB 10026296.T0&lt;br&gt;Location: 873746 - 873963" locus_tag="CopciAB_10026296.T0" class="clusterblast-orf" id="subclusterblast-1_q5_0_all"  />
<polygon points="231,40 289,40 294,35 289,30 231,30 231,40 " style="fill:white; stroke-width:1; stroke:black; " description="&lt;b&gt;CopciAB_467195.T0&lt;/b&gt;&lt;br&gt;CopciAB 467195.T0&lt;br&gt;Location: 874282 - 876644" locus_tag="CopciAB_467195.T0" class="clusterblast-orf" id="subclusterblast-1_q6_0_all"  />
<polygon points="317,40 344,40 349,35 344,30 317,30 317,40 " style="fill:white; stroke-width:1; stroke:black; " description="&lt;b&gt;CopciAB_141635.T0&lt;/b&gt;&lt;br&gt;CopciAB 141635.T0&lt;br&gt;Location: 877502 - 878702" locus_tag="CopciAB_141635.T0" class="clusterblast-orf" id="subclusterblast-1_q7_0_all"  />
<polygon points="382,35 387,30 418,30 418,40 387,40 382,35 " style="fill:white; stroke-width:1; stroke:black; " description="&lt;b&gt;CopciAB_443805.T0&lt;/b&gt;&lt;br&gt;CopciAB 443805.T0&lt;br&gt;Location: 879908 - 881256" locus_tag="CopciAB_443805.T0" class="clusterblast-orf" id="subclusterblast-1_q8_0_all"  />
<polygon points="465,40 505,40 510,35 505,30 465,30 465,40 " style="fill:white; stroke-width:1; stroke:black; " description="&lt;b&gt;CopciAB_141731.T0&lt;/b&gt;&lt;br&gt;CopciAB 141731.T0&lt;br&gt;Location: 883042 - 884722" locus_tag="CopciAB_141731.T0" class="clusterblast-orf" id="subclusterblast-1_q9_0_all"  />
<polygon points="532,35 537,30 588,30 588,40 537,40 532,35 " style="fill:white; stroke-width:1; stroke:black; " description="&lt;b&gt;CopciAB_141718.T0&lt;/b&gt;&lt;br&gt;CopciAB 141718.T0&lt;br&gt;Location: 885536 - 887627" locus_tag="CopciAB_141718.T0" class="clusterblast-orf" id="subclusterblast-1_q10_0_all"  />
<polygon points="597,35 602,30 606,30 606,40 602,40 597,35 " style="fill:white; stroke-width:1; stroke:black; " description="&lt;b&gt;CopciAB_1000642.T0&lt;/b&gt;&lt;br&gt;CopciAB 1000642.T0&lt;br&gt;Location: 887943 - 888276" locus_tag="CopciAB_1000642.T0" class="clusterblast-orf" id="subclusterblast-1_q11_0_all"  />
<polygon points="684,35 689,30 719,30 719,40 689,40 684,35 " style="fill:white; stroke-width:1; stroke:black; " description="&lt;b&gt;CopciAB_362485.T0&lt;/b&gt;&lt;br&gt;CopciAB 362485.T0&lt;br&gt;Location: 891220 - 892508" locus_tag="CopciAB_362485.T0" class="clusterblast-orf" id="subclusterblast-1_q12_0_all"  />
<polygon points="724,40 775,40 780,35 775,30 724,30 724,40 " style="fill:white; stroke-width:1; stroke:black; " description="&lt;b&gt;CopciAB_519105.T0&lt;/b&gt;&lt;br&gt;CopciAB 519105.T0&lt;br&gt;Location: 892712 - 894789" locus_tag="CopciAB_519105.T0" class="clusterblast-orf" id="subclusterblast-1_q13_0_all"  />
</g>
</svg>
