<svg xmlns="http://www.w3.org/2000/svg" xmlns:xlink="http://www.w3.org/1999/xlink" version="1.1" x="0" y="0" height="50" width="800" viewBox="0 0 800 50" preserveAspectRatio="none"  >
<g label="Query sequence" class="clusterblast-cluster"  >
<text x="5" y="20" class="clusterblast-acc"  >
Query sequence</text>
<line x1="10" y1="35" x2="778.0" y2="35" style="stroke-width:1; stroke:grey; "  />
<polygon points="0,40 86,40 91,35 86,30 0,30 0,40 " style="fill:white; stroke-width:1; stroke:black; " description="&lt;b&gt;CopciAB_354030.T0&lt;/b&gt;&lt;br&gt;CopciAB 354030.T0&lt;br&gt;Location: 468922 - 472323" locus_tag="CopciAB_354030.T0" class="clusterblast-orf" id="subclusterblast-1_q0_0_all"  />
<polygon points="114,40 125,40 130,35 125,30 114,30 114,40 " style="fill:white; stroke-width:1; stroke:black; " description="&lt;b&gt;CopciAB_1002650.T0&lt;/b&gt;&lt;br&gt;CopciAB 1002650.T0&lt;br&gt;Location: 473155 - 473780" locus_tag="CopciAB_1002650.T0" class="clusterblast-orf" id="subclusterblast-1_q1_0_all"  />
<polygon points="159,40 190,40 195,35 190,30 159,30 159,40 " style="fill:white; stroke-width:1; stroke:black; " description="&lt;b&gt;CopciAB_353834.T0&lt;/b&gt;&lt;br&gt;CopciAB 353834.T0&lt;br&gt;Location: 474853 - 476180" locus_tag="CopciAB_353834.T0" class="clusterblast-orf" id="subclusterblast-1_q2_0_all"  />
<polygon points="264,40 368,40 373,35 368,30 264,30 264,40 " style="fill:white; stroke-width:1; stroke:black; " description="&lt;b&gt;CopciAB_436777.T1&lt;/b&gt;&lt;br&gt;CopciAB 436777.T1&lt;br&gt;Location: 478750 - 482786" locus_tag="CopciAB_436777.T1" class="clusterblast-orf" id="subclusterblast-1_q3_0_all"  />
<polygon points="402,35 407,30 448,30 448,40 407,40 402,35 " style="fill:white; stroke-width:1; stroke:black; " description="&lt;b&gt;CopciAB_384680.T0&lt;/b&gt;&lt;br&gt;CopciAB 384680.T0&lt;br&gt;Location: 483888 - 485583" locus_tag="CopciAB_384680.T0" class="clusterblast-orf" id="subclusterblast-1_q4_0_all"  />
<polygon points="456,40 529,40 534,35 529,30 456,30 456,40 " style="fill:white; stroke-width:1; stroke:black; " description="&lt;b&gt;CopciAB_436779.T0&lt;/b&gt;&lt;br&gt;CopciAB 436779.T0&lt;br&gt;Location: 485894 - 488791" locus_tag="CopciAB_436779.T0" class="clusterblast-orf" id="subclusterblast-1_q5_0_all"  />
<polygon points="559,35 564,30 577,30 577,40 564,40 559,35 " style="fill:white; stroke-width:1; stroke:black; " description="&lt;b&gt;CopciAB_410865.T0&lt;/b&gt;&lt;br&gt;CopciAB 410865.T0&lt;br&gt;Location: 489703 - 490373" locus_tag="CopciAB_410865.T0" class="clusterblast-orf" id="subclusterblast-1_q6_0_all"  />
<polygon points="643,35 648,30 714,30 714,40 648,40 643,35 " style="fill:white; stroke-width:1; stroke:black; " description="&lt;b&gt;CopciAB_492524.T0&lt;/b&gt;&lt;br&gt;CopciAB 492524.T0&lt;br&gt;Location: 492834 - 495465" locus_tag="CopciAB_492524.T0" class="clusterblast-orf" id="subclusterblast-1_q7_0_all"  />
<polygon points="770,35 775,30 780,30 780,40 775,40 770,35 " style="fill:white; stroke-width:1; stroke:black; " description="&lt;b&gt;CopciAB_1002652.T0&lt;/b&gt;&lt;br&gt;CopciAB 1002652.T0&lt;br&gt;Location: 497549 - 497908" locus_tag="CopciAB_1002652.T0" class="clusterblast-orf" id="subclusterblast-1_q8_0_all"  />
</g>
</svg>
