<svg xmlns="http://www.w3.org/2000/svg" xmlns:xlink="http://www.w3.org/1999/xlink" version="1.1" x="0" y="0" height="50" width="800" viewBox="0 0 800 50" preserveAspectRatio="none"  >
<g label="Query sequence" class="clusterblast-cluster"  >
<text x="5" y="20" class="clusterblast-acc"  >
Query sequence</text>
<line x1="10" y1="35" x2="778.0" y2="35" style="stroke-width:1; stroke:grey; "  />
<polygon points="0,40 48,40 53,35 48,30 0,30 0,40 " style="fill:white; stroke-width:1; stroke:black; " description="&lt;b&gt;CopciAB_428477.T0&lt;/b&gt;&lt;br&gt;CopciAB 428477.T0&lt;br&gt;Location: 2370556 - 2372577" locus_tag="CopciAB_428477.T0" class="clusterblast-orf" id="subclusterblast-2_q0_0_all"  />
<polygon points="56,35 61,30 82,30 82,40 61,40 56,35 " style="fill:white; stroke-width:1; stroke:black; " description="&lt;b&gt;CopciAB_438833.T0&lt;/b&gt;&lt;br&gt;CopciAB 438833.T0&lt;br&gt;Location: 2372707 - 2373668" locus_tag="CopciAB_438833.T0" class="clusterblast-orf" id="subclusterblast-2_q1_0_all"  />
<polygon points="102,40 119,40 124,35 119,30 102,30 102,40 " style="fill:white; stroke-width:1; stroke:black; " description="&lt;b&gt;CopciAB_480560.T0&lt;/b&gt;&lt;br&gt;CopciAB 480560.T0&lt;br&gt;Location: 2374457 - 2375273" locus_tag="CopciAB_480560.T0" class="clusterblast-orf" id="subclusterblast-2_q2_0_all"  />
<polygon points="140,40 150,40 155,35 150,30 140,30 140,40 " style="fill:white; stroke-width:1; stroke:black; " description="&lt;b&gt;CopciAB_1001446.T0&lt;/b&gt;&lt;br&gt;CopciAB 1001446.T0&lt;br&gt;Location: 2375877 - 2376467" locus_tag="CopciAB_1001446.T0" class="clusterblast-orf" id="subclusterblast-2_q3_0_all"  />
<polygon points="168,40 188,40 193,35 188,30 168,30 168,40 " style="fill:white; stroke-width:1; stroke:black; " description="&lt;b&gt;CopciAB_480561.T0&lt;/b&gt;&lt;br&gt;CopciAB 480561.T0&lt;br&gt;Location: 2376959 - 2377916" locus_tag="CopciAB_480561.T0" class="clusterblast-orf" id="subclusterblast-2_q4_0_all"  />
<polygon points="208,40 222,40 227,35 222,30 208,30 208,40 " style="fill:white; stroke-width:1; stroke:black; " description="&lt;b&gt;CopciAB_1001447.T0&lt;/b&gt;&lt;br&gt;CopciAB 1001447.T0&lt;br&gt;Location: 2378477 - 2379191" locus_tag="CopciAB_1001447.T0" class="clusterblast-orf" id="subclusterblast-2_q5_0_all"  />
<polygon points="248,40 275,40 280,35 275,30 248,30 248,40 " style="fill:white; stroke-width:1; stroke:black; " description="&lt;b&gt;CopciAB_428490.T0&lt;/b&gt;&lt;br&gt;CopciAB 428490.T0&lt;br&gt;Location: 2380004 - 2381205" locus_tag="CopciAB_428490.T0" class="clusterblast-orf" id="subclusterblast-2_q6_0_all"  />
<polygon points="291,40 315,40 320,35 315,30 291,30 291,40 " style="fill:white; stroke-width:1; stroke:black; " description="&lt;b&gt;CopciAB_452524.T0&lt;/b&gt;&lt;br&gt;CopciAB 452524.T0&lt;br&gt;Location: 2381623 - 2382747" locus_tag="CopciAB_452524.T0" class="clusterblast-orf" id="subclusterblast-2_q7_0_all"  />
<polygon points="330,35 335,30 335,30 335,40 335,40 330,35 " style="fill:white; stroke-width:1; stroke:black; " description="&lt;b&gt;CopciAB_438837.T0&lt;/b&gt;&lt;br&gt;CopciAB 438837.T0&lt;br&gt;Location: 2383115 - 2383322" locus_tag="CopciAB_438837.T0" class="clusterblast-orf" id="subclusterblast-2_q8_0_all"  />
<polygon points="343,40 395,40 400,35 395,30 343,30 343,40 " style="fill:white; stroke-width:1; stroke:black; " description="&lt;b&gt;CopciAB_43445.T0&lt;/b&gt;&lt;br&gt;CopciAB 43445.T0&lt;br&gt;Location: 2383610 - 2385775" locus_tag="CopciAB_43445.T0" class="clusterblast-orf" id="subclusterblast-2_q9_0_all"  />
<polygon points="436,35 441,30 510,30 510,40 441,40 436,35 " style="fill:white; stroke-width:1; stroke:black; " description="&lt;b&gt;CopciAB_43479.T0&lt;/b&gt;&lt;br&gt;CopciAB 43479.T0&lt;br&gt;Location: 2387165 - 2389957" locus_tag="CopciAB_43479.T0" class="clusterblast-orf" id="subclusterblast-2_q10_0_all"  />
<polygon points="546,35 551,30 579,30 579,40 551,40 546,35 " style="fill:white; stroke-width:1; stroke:black; " description="&lt;b&gt;CopciAB_544081.T0&lt;/b&gt;&lt;br&gt;CopciAB 544081.T0&lt;br&gt;Location: 2391341 - 2392573" locus_tag="CopciAB_544081.T0" class="clusterblast-orf" id="subclusterblast-2_q11_0_all"  />
<polygon points="612,40 684,40 689,35 684,30 612,30 612,40 " style="fill:white; stroke-width:1; stroke:black; " description="&lt;b&gt;CopciAB_438844.T0&lt;/b&gt;&lt;br&gt;CopciAB 438844.T0&lt;br&gt;Location: 2393830 - 2396768" locus_tag="CopciAB_438844.T0" class="clusterblast-orf" id="subclusterblast-2_q12_0_all"  />
<polygon points="733,40 775,40 780,35 775,30 733,30 733,40 " style="fill:white; stroke-width:1; stroke:black; " description="&lt;b&gt;CopciAB_1001448.T0&lt;/b&gt;&lt;br&gt;CopciAB 1001448.T0&lt;br&gt;Location: 2398463 - 2400228" locus_tag="CopciAB_1001448.T0" class="clusterblast-orf" id="subclusterblast-2_q13_0_all"  />
</g>
</svg>
