<svg xmlns="http://www.w3.org/2000/svg" xmlns:xlink="http://www.w3.org/1999/xlink" version="1.1" x="0" y="0" height="50" width="800" viewBox="0 0 800 50" preserveAspectRatio="none"  >
<g label="Query sequence" class="clusterblast-cluster"  >
<text x="5" y="20" class="clusterblast-acc"  >
Query sequence</text>
<line x1="10" y1="35" x2="778.0" y2="35" style="stroke-width:1; stroke:grey; "  />
<polygon points="0,40 14,40 19,35 14,30 0,30 0,40 " style="fill:white; stroke-width:1; stroke:black; " description="&lt;b&gt;CopciAB_469722.T0&lt;/b&gt;&lt;br&gt;CopciAB 469722.T0&lt;br&gt;Location: 649236 - 649961" locus_tag="CopciAB_469722.T0" class="clusterblast-orf" id="subclusterblast-2_q0_0_all"  />
<polygon points="67,35 72,30 115,30 115,40 72,40 67,35 " style="fill:white; stroke-width:1; stroke:black; " description="&lt;b&gt;CopciAB_201601.T0&lt;/b&gt;&lt;br&gt;CopciAB 201601.T0&lt;br&gt;Location: 651747 - 653564" locus_tag="CopciAB_201601.T0" class="clusterblast-orf" id="subclusterblast-2_q1_0_all"  />
<polygon points="118,35 123,30 166,30 166,40 123,40 118,35 " style="fill:white; stroke-width:1; stroke:black; " description="&lt;b&gt;CopciAB_469720.T0&lt;/b&gt;&lt;br&gt;CopciAB 469720.T0&lt;br&gt;Location: 653660 - 655465" locus_tag="CopciAB_469720.T0" class="clusterblast-orf" id="subclusterblast-2_q2_0_all"  />
<polygon points="173,35 178,30 273,30 273,40 178,40 173,35 " style="fill:white; stroke-width:1; stroke:black; " description="&lt;b&gt;CopciAB_541099.T0&lt;/b&gt;&lt;br&gt;CopciAB 541099.T0&lt;br&gt;Location: 655733 - 659479" locus_tag="CopciAB_541099.T0" class="clusterblast-orf" id="subclusterblast-2_q3_0_all"  />
<polygon points="293,35 298,30 349,30 349,40 298,40 293,35 " style="fill:white; stroke-width:1; stroke:black; " description="&lt;b&gt;CopciAB_420898.T0&lt;/b&gt;&lt;br&gt;CopciAB 420898.T0&lt;br&gt;Location: 660230 - 662345" locus_tag="CopciAB_420898.T0" class="clusterblast-orf" id="subclusterblast-2_q4_0_all"  />
<polygon points="377,40 405,40 410,35 405,30 377,30 377,40 " style="fill:white; stroke-width:1; stroke:black; " description="&lt;b&gt;CopciAB_394772.T0&lt;/b&gt;&lt;br&gt;CopciAB 394772.T0&lt;br&gt;Location: 663413 - 664616" locus_tag="CopciAB_394772.T0" class="clusterblast-orf" id="subclusterblast-2_q5_0_all"  />
<polygon points="436,35 441,30 492,30 492,40 441,40 436,35 " style="fill:white; stroke-width:1; stroke:black; " description="&lt;b&gt;CopciAB_201523.T0&lt;/b&gt;&lt;br&gt;CopciAB 201523.T0&lt;br&gt;Location: 665622 - 667713" locus_tag="CopciAB_201523.T0" class="clusterblast-orf" id="subclusterblast-2_q6_0_all"  />
<polygon points="517,40 536,40 541,35 536,30 517,30 517,40 " style="fill:white; stroke-width:1; stroke:black; " description="&lt;b&gt;CopciAB_469716.T0&lt;/b&gt;&lt;br&gt;CopciAB 469716.T0&lt;br&gt;Location: 668642 - 669560" locus_tag="CopciAB_469716.T0" class="clusterblast-orf" id="subclusterblast-2_q7_0_all"  />
<polygon points="520,40 521,40 526,35 521,30 520,30 520,40 " style="fill:white; stroke-width:1; stroke:black; " description="&lt;b&gt;CopciAB_469716.T1&lt;/b&gt;&lt;br&gt;CopciAB 469716.T1&lt;br&gt;Location: 668777 - 668971" locus_tag="CopciAB_469716.T1" class="clusterblast-orf" id="subclusterblast-2_q8_0_all"  />
<polygon points="551,35 556,30 583,30 583,40 556,40 551,35 " style="fill:white; stroke-width:1; stroke:black; " description="&lt;b&gt;CopciAB_469715.T0&lt;/b&gt;&lt;br&gt;CopciAB 469715.T0&lt;br&gt;Location: 669921 - 671113" locus_tag="CopciAB_469715.T0" class="clusterblast-orf" id="subclusterblast-2_q9_0_all"  />
<polygon points="606,35 611,30 625,30 625,40 611,40 606,35 " style="fill:white; stroke-width:1; stroke:black; " description="&lt;b&gt;CopciAB_420887.T0&lt;/b&gt;&lt;br&gt;CopciAB 420887.T0&lt;br&gt;Location: 671972 - 672696" locus_tag="CopciAB_420887.T0" class="clusterblast-orf" id="subclusterblast-2_q10_0_all"  />
<polygon points="652,40 775,40 780,35 775,30 652,30 652,40 " style="fill:white; stroke-width:1; stroke:black; " description="&lt;b&gt;CopciAB_469713.T0&lt;/b&gt;&lt;br&gt;CopciAB 469713.T0&lt;br&gt;Location: 673718 - 678512" locus_tag="CopciAB_469713.T0" class="clusterblast-orf" id="subclusterblast-2_q11_0_all"  />
</g>
</svg>
